# .PCD v0.7 - Point Cloud Data file format
VERSION 0.7
FIELDS x y z intensity t qx qy qz qw
SIZE 4 4 4 4 8 4 4 4 4
TYPE F F F F F F F F F
COUNT 1 1 1 1 1 1 1 1 1
WIDTH 332
HEIGHT 1
VIEWPOINT 0 0 0 1 0 0 0
POINTS 332
DATA ascii
-3.35112166404724121 0.599701523780822754 0.982686698436737061 0 1644762833.07519817 0.999777257442474365 6.90700908307917416e-05 -0.0172457173466682434 -0.0121666630730032921
-3.22580599784851074 0.627066850662231445 1.00066459178924561 1 1644762843.27938581 0.999884903430938721 0.000875100842677056789 -0.00782407727092504501 -0.0129704931750893593
2.38563656806945801 0.644122302532196045 0.956073641777038574 2 1644762845.28000045 0.999886214733123779 -0.00679338909685611725 0.00874575600028038025 -0.0102423382923007011
11.7904253005981445 0.331450521945953369 0.901366829872131348 3 1644762847.38078332 0.999937474727630615 -0.00126961746718734503 -0.000755348592065274715 -0.0110832173377275467
18.3017559051513672 1.80987763404846191 0.842062890529632568 4 1644762848.77999949 0.982628464698791504 0.183315128087997437 -0.0104719260707497597 -0.0269657764583826065
26.5520381927490234 7.50779294967651367 0.64678037166595459 5 1644762850.78129315 0.957872152328491211 0.287023186683654785 -0.0098082302138209343 -0.00155846728011965752
36.4372520446777344 8.48952770233154297 0.386100888252258301 6 1644762852.78299856 0.998571872711181641 -0.0520913004875183105 -0.00541218090802431107 -0.0105529110878705978
46.4672737121582031 8.16836166381835938 0.109003297984600067 7 1644762854.38117886 0.999755322933197021 -0.0155453663319349289 -0.0106024593114852905 -0.01162763312458992
56.5023422241210938 7.70760393142700195 0.0174949076026678085 8 1644762855.78356624 0.999236404895782471 -0.0356857702136039734 0.0154211726039648056 -0.00392168108373880386
66.6581573486328125 7.20714950561523438 0.100351803004741669 9 1644762857.17605233 0.999982774257659912 -0.00545415515080094337 -0.00176748400554060936 -0.00124099536333233118
76.938507080078125 7.17798614501953125 0.218757122755050659 10 1644762858.67669797 0.999891102313995361 -0.0109958164393901825 0.00916602276265621185 0.00359250348992645741
87.0193405151367188 6.65437984466552734 0.390159636735916138 11 1644762860.07949805 0.999307990074157715 -0.035380978137254715 0.0102728856727480888 -0.00511292042210698128
97.3863372802734375 5.60993671417236328 0.592420101165771484 12 1644762861.57430816 0.997912287712097168 -0.0630149990320205688 0.0119365649297833443 -0.00759745202958583832
104.293037414550781 3.30041790008544922 0.99458777904510498 13 1644762862.77510834 0.967096805572509766 -0.252314299345016479 0.032488599419593811 -0.00239464477635920048
112.249900817871094 -2.89826655387878418 1.86362171173095703 14 1644762864.57272553 0.938438177108764648 -0.337464332580566406 0.0734540745615959167 -0.00748850032687187195
119.284423828125 -10.4506464004516602 2.81732058525085449 15 1644762866.47470975 0.886427581310272217 -0.460457175970077515 0.0465058162808418274 -0.00790873728692531586
125.018852233886719 -18.6525096893310547 3.20514130592346191 16 1644762868.47561479 0.921606659889221191 -0.386753439903259277 0.0272981692105531693 -0.0178268924355506897
134.031661987304688 -21.5593051910400391 3.54911017417907715 17 1644762870.57653689 0.995337605476379395 -0.093974582850933075 0.0165912248194217682 0.0140219917520880699
139.780288696289062 -27.771484375 3.73730039596557617 18 1644762872.57521605 0.781680464744567871 -0.623067140579223633 -0.0179114602506160736 0.021026933565735817
139.39959716796875 -30.3288536071777344 3.76602721214294434 19 1644762873.17300534 0.64607471227645874 -0.763044178485870361 -0.012310701422393322 0.0141256684437394142
138.107757568359375 -32.6121673583984375 3.79537463188171387 20 1644762873.77334189 0.4919547438621521 -0.870467841625213623 -0.00801591761410236359 0.0142131317406892776
135.995559692382812 -34.3581199645996094 3.7635807991027832 21 1644762874.37294364 0.310975551605224609 -0.950020134449005127 -0.0270919725298881531 0.00469289254397153854
132.95489501953125 -35.2230873107910156 3.68747997283935547 22 1644762875.07156849 0.118026770651340485 -0.99269336462020874 -0.0234975665807723999 -0.00880149193108081818
130.059661865234375 -34.9115371704101562 3.5746924877166748 23 1644762875.67355156 -0.0850181877613067627 -0.995653986930847168 -0.0303366705775260925 -0.0229074526578187943
127.683425903320312 -33.4599342346191406 3.48476481437683105 24 1644762876.27248669 -0.286529988050460815 -0.957482755184173584 -0.0240880884230136871 -0.0233899690210819244
126.051612854003906 -31.191009521484375 3.35315370559692383 25 1644762876.87135148 -0.470568031072616577 -0.881517410278320312 -0.0138609902933239937 -0.0360640808939933777
125.4276123046875 -28.4654712677001953 3.27454185485839844 26 1644762877.4714222 -0.642397224903106689 -0.765154838562011719 -0.019677845761179924 -0.0384279042482376099
125.811851501464844 -26.1980476379394531 3.26077437400817871 27 1644762877.97165084 -0.765988767147064209 -0.641308903694152832 -0.0216559004038572311 -0.0389251410961151123
127.197624206542969 -23.8900489807128906 3.32187366485595703 28 1644762878.57271433 -0.87872081995010376 -0.475420564413070679 -0.0258546359837055206 -0.034008517861366272
129.409866333007812 -22.2710762023925781 3.42326521873474121 29 1644762879.17152071 -0.955230236053466797 -0.293372392654418945 -0.0186765436083078384 -0.0334514603018760681
132.745407104492188 -21.3972053527832031 3.5184776782989502 30 1644762879.871768 -0.993639111518859863 -0.10957740992307663 -0.0137762259691953659 -0.0220082402229309082
144.084808349609375 -18.7151241302490234 3.79371929168701172 31 1644762881.87269449 -0.979317963123321533 -0.202300295233726501 0.00330889550969004631 -6.29384303465485573e-05
152.668685913085938 -13.1117935180664062 3.71986293792724609 32 1644762883.47302365 -0.951002895832061768 -0.308186531066894531 -0.00791086629033088684 -0.0234939269721508026
160.775955200195312 -6.27697658538818359 3.57560276985168457 33 1644762885.17517447 -0.929702341556549072 -0.367189377546310425 0.000312616699375212193 -0.0287300553172826767
168.799911499023438 -0.106373444199562073 3.61782050132751465 34 1644762887.1739099 -0.977216839790344238 -0.206964507699012756 -0.0260374061763286591 -0.039179384708404541
175.046554565429688 -1.47970521450042725 4.18190383911132812 35 1644762889.07453847 -0.959637343883514404 0.277776479721069336 -0.0434464514255523682 0.0069837057963013649
177.817367553710938 -4.68698406219482422 4.44992446899414062 36 1644762890.37545419 -0.895682334899902344 0.443262368440628052 -0.0355394221842288971 0.00293422979302704334
181.01837158203125 -9.43655014038085938 4.75937604904174805 37 1644762892.47628641 -0.89653778076171875 0.441141307353973389 -0.0392573587596416473 0.0085581652820110321
187.611923217773438 -13.7269468307495117 4.96311712265014648 38 1644762894.47632194 -0.9832916259765625 0.181855902075767517 0.00308459065854549408 -0.00751602696254849434
191.756484985351562 -13.9375171661376953 4.92618989944458008 39 1644762895.37728453 -0.99962538480758667 -0.0082554258406162262 0.00724405143409967422 -0.0250690598040819168
200.807266235351562 -9.27254581451416016 4.69453811645507812 40 1644762897.27658892 -0.950307190418243408 -0.31038200855255127 0.00559966778382658958 -0.0234069656580686569
208.776168823242188 -2.35012030601501465 4.32378959655761719 41 1644762898.77491069 -0.940264225006103516 -0.338560163974761963 0.00476440228521823883 -0.0354609265923500061
216.932373046875 4.07349491119384766 4.01219415664672852 42 1644762900.17540479 -0.950293898582458496 -0.308644294738769531 0.00459524709731340408 -0.0407313667237758636
224.4835205078125 10.65533447265625 3.67125606536865234 43 1644762901.47928476 -0.919007480144500732 -0.393593281507492065 0.00648059463128447533 -0.0216232538223266602
230.349761962890625 19.2017784118652344 3.13145828247070312 44 1644762902.77553582 -0.872343838214874268 -0.486313164234161377 0.00430032052099704742 -0.0499727092683315277
235.2347412109375 28.7413997650146484 2.48953032493591309 45 1644762904.07462239 -0.835431933403015137 -0.547008633613586426 -0.00682720774784684181 -0.0528059564530849457
237.919143676757812 38.5017471313476562 2.03543496131896973 46 1644762905.27637792 -0.766031563282012939 -0.64096224308013916 -0.00955764111131429672 -0.0476623699069023132
238.9302978515625 48.6291427612304688 1.44593548774719238 47 1644762906.47619414 -0.725528359413146973 -0.686578869819641113 -0.00473632337525486946 -0.0468573532998561859
239.489700317382812 58.9336700439453125 0.809620499610900879 48 1644762907.67518115 -0.720610499382019043 -0.692265510559082031 0.000240653782384470105 -0.038586881011724472
239.838973999023438 69.3777694702148438 0.111984103918075562 49 1644762908.87535548 -0.716700494289398193 -0.696303963661193848 0.0102027887478470802 -0.0373781360685825348
240.07415771484375 79.8771820068359375 -0.507396101951599121 50 1644762910.07843161 -0.713984310626983643 -0.699349880218505859 0.00364759820513427258 -0.0335086360573768616
240.271408081054688 90.5071563720703125 -1.15362489223480225 51 1644762911.27705288 -0.713351249694824219 -0.699283480644226074 0.000133410081616602838 -0.0461801886558532715
240.529403686523438 101.05853271484375 -1.64017581939697266 52 1644762912.47602606 -0.717078924179077148 -0.695876955986022949 -0.00980642437934875488 -0.0381699129939079285
240.84228515625 111.537590026855469 -1.99610567092895508 53 1644762913.67649436 -0.719523429870605469 -0.693668663501739502 -0.0142443850636482239 -0.030114760622382164
241.155075073242188 121.749359130859375 -2.1175835132598877 54 1644762914.87695336 -0.717968523502349854 -0.695509731769561768 -0.0190265346318483353 -0.0206260178238153458
241.506088256835938 132.237167358398438 -2.09649467468261719 55 1644762916.1771915 -0.721451938152313232 -0.691965997219085693 -0.0225138217210769653 -0.0135391736403107643
241.542953491210938 142.274978637695312 -2.01282811164855957 56 1644762917.47529769 -0.686874985694885254 -0.725796222686767578 -0.035114239901304245 -0.0137698734179139137
240.1011962890625 152.738525390625 -1.78548252582550049 57 1644762918.87469769 -0.629371523857116699 -0.775916159152984619 -0.0419208817183971405 -0.00939299259334802628
236.876327514648438 162.618682861328125 -1.56110501289367676 58 1644762920.27572346 -0.565687716007232666 -0.823511600494384766 -0.0401945896446704865 -0.0145067907869815826
232.27435302734375 171.810089111328125 -1.444862961769104 59 1644762921.67644668 -0.502952635288238525 -0.862641215324401855 -0.047967817634344101 -0.0242470595985651016
226.710006713867188 180.442153930664062 -1.39924740791320801 60 1644762923.07224488 -0.457010090351104736 -0.888247489929199219 -0.0437177084386348724 -0.0157137289643287659
219.889389038085938 188.09136962890625 -1.43654847145080566 61 1644762924.47122884 -0.371139228343963623 -0.927789151668548584 -0.0353692807257175446 -0.0145613886415958405
212.001876831054688 194.673355102539062 -1.52367603778839111 62 1644762925.87170267 -0.351877033710479736 -0.934391021728515625 -0.0503459274768829346 -0.0236918069422245026
204.298934936523438 201.491058349609375 -1.63672506809234619 63 1644762927.27256393 -0.363519936800003052 -0.930052101612091064 -0.0473216027021408081 -0.0248384382575750351
196.999465942382812 208.95196533203125 -1.65685379505157471 64 1644762928.77089906 -0.394838124513626099 -0.917729973793029785 -0.0412362255156040192 -0.0131965186446905136
190.060806274414062 216.192306518554688 -1.63885438442230225 65 1644762930.17218661 -0.391201794147491455 -0.919294178485870361 -0.0419133305549621582 -0.0101301977410912514
182.98248291015625 223.364349365234375 -1.61643576622009277 66 1644762931.57149386 -0.384694576263427734 -0.92193835973739624 -0.0431835316121578217 -0.0132271340116858482
175.883682250976562 230.616058349609375 -1.50025582313537598 67 1644762932.97087431 -0.396673202514648438 -0.916428208351135254 -0.052496492862701416 -0.00733780022710561752
168.919403076171875 238.053421020507812 -1.28774344921112061 68 1644762934.3718636 -0.390786260366439819 -0.919038534164428711 -0.050528794527053833 -0.0100541319698095322
161.703353881835938 245.220291137695312 -1.02623665332794189 69 1644762935.77184415 -0.379754185676574707 -0.923592805862426758 -0.0525632798671722412 0.000431442313129082322
154.5445556640625 252.343612670898438 -0.679994344711303711 70 1644762937.17323279 -0.381318747997283936 -0.922839820384979248 -0.0540143288671970367 0.0067211654968559742
146.980010986328125 259.891204833984375 -0.170409917831420898 71 1644762938.67304277 -0.384152084589004517 -0.921393394470214844 -0.0584359169006347656 0.00682778796181082726
139.518600463867188 267.403289794921875 0.396937102079391479 72 1644762940.17439938 -0.385497897863388062 -0.921151041984558105 -0.0526411645114421844 0.0100512420758605003
132.016326904296875 274.779998779296875 0.981645822525024414 73 1644762941.67126441 -0.372409194707870483 -0.926666915416717529 -0.0486539490520954132 0.0152528714388608932
123.835205078125 281.4552001953125 1.48554027080535889 74 1644762943.16982174 -0.307792335748672485 -0.950137674808502197 -0.0487481020390987396 0.0112220626324415207
114.956321716308594 287.12762451171875 1.93444859981536865 75 1644762944.66989732 -0.27055656909942627 -0.961797058582305908 -0.038774590939283371 0.0155607378110289574
105.795402526855469 292.2657470703125 2.36010241508483887 76 1644762946.17339063 -0.239117801189422607 -0.969376921653747559 -0.0524572357535362244 0.0194742809981107712
96.5596923828125 297.37945556640625 2.87133240699768066 77 1644762947.67251253 -0.278066813945770264 -0.958461642265319824 -0.0603265315294265747 0.0197706148028373718
88.0998153686523438 303.5789794921875 3.46000313758850098 78 1644762949.17565894 -0.320202946662902832 -0.945352375507354736 -0.054902881383895874 0.027650957927107811
80.2941360473632812 310.09881591796875 4.2101588249206543 79 1644762950.67229724 -0.350558966398239136 -0.934486150741577148 -0.0551853291690349579 0.0282605309039354324
72.276153564453125 316.539794921875 4.95767116546630859 80 1644762952.17000937 -0.328189343214035034 -0.942634403705596924 -0.0560401789844036102 0.0243226028978824615
63.7280616760253906 322.240631103515625 5.62517595291137695 81 1644762953.66986084 -0.264932364225387573 -0.962272107601165771 -0.0543964281678199768 0.0297358222305774689
54.468597412109375 327.08880615234375 6.22596549987792969 82 1644762955.16888213 -0.228704765439033508 -0.971838831901550293 -0.0517670027911663055 0.0233147498220205307
44.9110336303710938 331.47052001953125 6.81878089904785156 83 1644762956.67363667 -0.210400775074958801 -0.975077986717224121 -0.0690334215760231018 0.0137411272153258324
35.527008056640625 335.59979248046875 7.55144357681274414 84 1644762958.16896033 -0.210605725646018982 -0.974806308746337891 -0.0655357614159584045 0.0332100503146648407
26.0494670867919922 339.641143798828125 8.42616462707519531 85 1644762959.96961045 -0.192749336361885071 -0.978951990604400635 -0.0589932650327682495 0.031944718211889267
20.2676601409912109 340.70977783203125 8.81495571136474609 86 1644762961.16999173 -0.0106826368719339371 -0.998378932476043701 -0.0449197888374328613 0.0332805849611759186
16.7301540374755859 339.7457275390625 8.86089038848876953 87 1644762961.87012601 0.166235849261283875 -0.984967470169067383 -0.0432759411633014679 0.018218647688627243
14.1547155380249023 338.1044921875 8.9812469482421875 88 1644762962.47001195 0.325427621603012085 -0.943891167640686035 0.00478490488603711128 0.0560664087533950806
11.8021402359008789 334.81719970703125 9.18364810943603516 89 1644762963.26966286 0.501133501529693604 -0.864446878433227539 0.00548051437363028526 0.0395817309617996216
10.2410993576049805 328.018798828125 9.4323272705078125 90 1644762964.76849079 0.647254824638366699 -0.761631548404693604 -0.00921633373945951462 0.0298938602209091187
9.60336875915527344 319.08636474609375 9.67908191680908203 91 1644762966.76983094 0.690930545330047607 -0.722059488296508789 0.000544491515029221773 0.035281110554933548
10.197052001953125 310.31036376953125 9.89197254180908203 92 1644762968.77035904 0.766510903835296631 -0.642123579978942871 0.00146605446934700012 0.0116690630093216896
12.4388666152954102 301.54052734375 9.99672317504882812 93 1644762970.77156758 0.792611420154571533 -0.609488308429718018 0.00319856405258178711 0.0167581327259540558
14.6078672409057617 292.179931640625 10.0084285736083984 94 1644762972.77210069 0.781743168830871582 -0.623479187488555908 -0.0041225627064704895 0.0115900421515107155
16.4824371337890625 284.397369384765625 9.75645828247070312 95 1644762974.77310252 0.77259528636932373 -0.634755551815032959 -0.0134502174332737923 0.000996313639916479588
17.5601673126220703 275.747802734375 9.4068756103515625 96 1644762976.77420306 0.756220042705535889 -0.654039502143859863 -0.00516813155263662338 -0.0183543972671031952
19.3100929260253906 265.4366455078125 8.81924819946289062 97 1644762978.67349052 0.758228480815887451 -0.651501595973968506 -0.010495603084564209 -0.0229160115122795105
20.1018161773681641 255.346298217773438 8.27690315246582031 98 1644762980.27376747 0.716496050357818604 -0.696976721286773682 -0.0126525713130831718 -0.0263973195105791092
19.6264934539794922 245.07220458984375 7.6909489631652832 99 1644762981.77348065 0.672839105129241943 -0.739488661289215088 -0.00538919353857636452 -0.0203724466264247894
17.8880157470703125 235.17236328125 7.1089329719543457 100 1644762983.17060709 0.6004791259765625 -0.799136459827423096 -0.025630611926317215 -0.0122008435428142548
13.8970108032226562 225.7698974609375 6.66636896133422852 101 1644762984.57499599 0.5245017409324646 -0.851180732250213623 -0.0166246388107538223 -0.010626496747136116
8.61461162567138672 217.023117065429688 6.24042606353759766 102 1644762985.97522283 0.471695214509963989 -0.881576657295227051 -0.013863549567759037 -0.011578219011425972
2.10510706901550293 209.268020629882812 5.88831090927124023 103 1644762987.4676311 0.390436768531799316 -0.920380175113677979 -0.0187488067895174026 -0.0103885652497410774
-5.09352970123291016 202.039215087890625 5.61319065093994141 104 1644762989.16626048 0.407870709896087646 -0.912789762020111084 -0.0186176616698503494 -0.0104733677580952644
-9.75384330749511719 193.30804443359375 5.31619644165039062 105 1644762991.17069936 0.599267363548278809 -0.800333976745605469 -0.014737236313521862 -0.0112702818587422371
-8.8018646240234375 185.245223999023438 5.02184724807739258 106 1644762993.26638341 0.811662793159484863 -0.583576798439025879 -0.0252777542918920517 -0.00162865885067731142
-5.94535017013549805 177.774658203125 4.66026687622070312 107 1644762995.27035284 0.816508054733276367 -0.576951324939727783 -0.0186487715691328049 -0.00969395507127046585
-3.62468147277832031 169.311935424804688 4.27323579788208008 108 1644762997.36694717 0.780550777912139893 -0.624496877193450928 -0.0266244150698184967 0.00594445131719112396
-2.36550331115722656 161.3797607421875 3.93470215797424316 109 1644762999.46602917 0.750683307647705078 -0.660309314727783203 -0.0212658755481243134 0.00373979075811803341
-1.83563065528869629 155.353591918945312 3.71924805641174316 110 1644763001.56569386 0.733949959278106689 -0.679037570953369141 -0.0147713907063007355 -0.00269555626437067986
-1.48966383934020996 149.929931640625 3.59246611595153809 111 1644763003.56720567 0.724737405776977539 -0.688911676406860352 -0.0111195091158151627 0.00572065683081746101
-1.19330811500549316 143.666168212890625 3.45752668380737305 112 1644763005.66499782 0.722765624523162842 -0.690967321395874023 -0.0127697568386793137 -0.00331474537961184978
-1.21175432205200195 136.741851806640625 3.26717567443847656 113 1644763007.76473808 0.689643919467926025 -0.723944425582885742 -0.0170837342739105225 -0.00198420439846813679
-1.73328542709350586 129.015625 3.05504202842712402 114 1644763009.8647306 0.689047098159790039 -0.724591851234436035 -0.00855119246989488602 0.0103745991364121437
-1.81769990921020508 121.23712158203125 3.00080370903015137 115 1644763011.86708498 0.697931587696075439 -0.715657472610473633 -0.0151476860046386719 0.0222813822329044342
-2.01726579666137695 113.32513427734375 3.02253842353820801 116 1644763013.96534657 0.695869803428649902 -0.717417418956756592 -0.014560401439666748 0.029417913407087326
-2.06252264976501465 106.367088317871094 3.08948850631713867 117 1644763015.96836662 0.687092721462249756 -0.726321876049041748 -0.0060492493212223053 0.0179869756102561951
-2.72963213920593262 99.208740234375 3.18082523345947266 118 1644763018.0668025 0.69075852632522583 -0.722890973091125488 0.0021358903031796217 0.0166339240968227386
-3.61554598808288574 92.6835556030273438 3.23994779586791992 119 1644763020.06709981 0.680223643779754639 -0.732751846313476562 -0.00191075797192752361 0.0191537532955408096
-3.24753689765930176 86.07696533203125 3.37560081481933594 120 1644763022.06996417 0.677823543548583984 -0.734906852245330811 -0.00701698195189237595 0.0204426795244216919
-3.81890606880187988 78.2396774291992188 3.3713681697845459 121 1644763024.1700871 0.69100654125213623 -0.722636580467224121 -0.0171076264232397079 0.00369380693882703781
-3.66473937034606934 70.0066680908203125 3.03220582008361816 122 1644763026.26890588 0.710469961166381836 -0.702480733394622803 -0.0392409823834896088 0.0146090323105454445
-3.21543073654174805 61.818511962890625 2.82171773910522461 123 1644763028.36725354 0.720932602882385254 -0.691221415996551514 -0.0461062230169773102 0.0185305047780275345
-3.09932518005371094 53.5281410217285156 2.3505401611328125 124 1644763030.46726584 0.670755565166473389 -0.738841116428375244 -0.0646097138524055481 -0.00513140670955181122
-4.40388679504394531 50.200225830078125 2.16863560676574707 125 1644763031.26476765 0.512973368167877197 -0.854543805122375488 -0.078959830105304718 0.0194561723619699478
-6.62464714050292969 48.2812271118164062 2.15464377403259277 126 1644763031.86520314 0.344350546598434448 -0.938156425952911377 -0.0348219349980354309 0.00852128118276596069
-9.71400737762451172 47.1553573608398438 2.10711073875427246 127 1644763032.56407762 0.15363629162311554 -0.988034307956695557 -0.0135617908090353012 -0.000349408364854753017
-19.7129917144775391 46.4457359313964844 2.23662185668945312 128 1644763034.46586466 0.0489457063376903534 -0.998598754405975342 0.0185900963842868805 0.0076997801661491394
-25.5989093780517578 39.83563232421875 2.33133292198181152 129 1644763036.46704316 0.626196146011352539 -0.779663383960723877 0.00157112837769091129 -0.000984252314083278179
-25.1546535491943359 29.2897129058837891 2.18011760711669922 130 1644763038.3647089 0.737802207469940186 -0.674807429313659668 -0.0156765542924404144 0.00608986709266901016
-24.5016937255859375 18.9184207916259766 2.0866391658782959 131 1644763039.96585584 0.720064699649810791 -0.69383537769317627 0.002198818139731884 0.00971713196486234665
-24.2121925354003906 8.35192966461181641 1.96104872226715088 132 1644763041.46598625 0.71157383918762207 -0.702422678470611572 -0.00932137668132781982 0.0133480364456772804
-24.0684871673583984 -1.82676315307617188 1.85743796825408936 133 1644763042.8665669 0.706780850887298584 -0.707236588001251221 -0.0109649160876870155 0.0125308698043227196
-24.0812530517578125 -12.0845479965209961 1.80164992809295654 134 1644763044.26733565 0.707845628261566162 -0.706220030784606934 -0.00834216922521591187 0.0117589598521590233
-24.1610260009765625 -22.3199806213378906 1.7554314136505127 135 1644763045.66747952 0.707085132598876953 -0.706960022449493408 -0.0141289094462990761 0.00620768638327717781
-24.3250789642333984 -32.3340415954589844 1.74124801158905029 136 1644763047.16888905 0.697920858860015869 -0.715939879417419434 -0.00598298106342554092 0.0173425637185573578
-23.3811569213867188 -41.5904006958007812 1.74237990379333496 137 1644763048.86864567 0.843152165412902832 -0.537503242492675781 0.00664404546841979027 -0.0118578998371958733
-22.0945587158203125 -42.8336410522460938 1.72463655471801758 138 1644763049.26845694 0.923012197017669678 -0.383304476737976074 0.00228458293713629246 -0.0334810763597488403
-20.2588253021240234 -43.6075401306152344 1.70060408115386963 139 1644763049.76877284 0.976672172546386719 -0.212261632084846497 -0.00453398842364549637 -0.0321860015392303467
-11.9964113235473633 -43.1680641174316406 1.67667889595031738 140 1644763051.86619401 0.979652583599090576 0.196408063173294067 -0.00660157995298504829 -0.040757007896900177
-10.2349395751953125 -41.5422935485839844 1.67471086978912354 141 1644763052.36815906 0.92993462085723877 0.366012871265411377 -0.0141263287514448166 -0.0325052700936794281
-8.615875244140625 -38.5070610046386719 1.64313292503356934 142 1644763053.06919217 0.852176964282989502 0.52278745174407959 -0.00450261076912283897 -0.0216214843094348907
-6.87241029739379883 -31.6088428497314453 1.67359411716461182 143 1644763054.36732459 0.747177839279174805 0.664008200168609619 -0.0151069844141602516 -0.0242940355092287064
-7.16432714462280273 -21.1864128112792969 1.82772445678710938 144 1644763056.06668234 0.685310125350952148 0.725920438766479492 0.0251427479088306427 -0.0525102131068706512
-7.71038532257080078 -10.7501459121704102 1.76463079452514648 145 1644763057.66945171 0.68902277946472168 0.724648654460906982 -0.00460848072543740273 -0.010521911084651947
-8.60461521148681641 2.97848367691040039 1.80632960796356201 146 1644763059.76564884 0.675805389881134033 0.736993134021759033 0.0060580340214073658 0.00956509262323379517
-8.96820640563964844 13.4127588272094727 1.82869279384613037 147 1644763061.46788049 0.695939481258392334 0.718021810054779053 0.00232648290693759918 -0.0103667015209794044
-9.29373073577880859 23.8789310455322266 1.89506912231445312 148 1644763063.16656899 0.700140237808227539 0.713979482650756836 0.00461831316351890564 -0.00395877985283732414
-8.79761600494384766 34.024658203125 2.1349329948425293 149 1644763064.76952195 0.735328018665313721 0.675950586795806885 0.0374504663050174713 -0.0313208736479282379
-8.11528778076171875 44.1718215942382812 2.19726300239562988 150 1644763066.77106929 0.725322604179382324 0.688166260719299316 0.0116026150062680244 -0.0141318105161190033
-7.0363917350769043 55.8521881103515625 2.98192739486694336 151 1644763068.86998606 0.768465757369995117 0.636964619159698486 0.0327563956379890442 -0.0516084209084510803
-4.32553720474243164 62.8441238403320312 3.16016912460327148 152 1644763070.46635771 0.863129019737243652 0.502983450889587402 -0.0308506358414888382 -0.0326219424605369568
-1.39425945281982422 65.8152236938476562 2.9923701286315918 153 1644763071.36636734 0.942076683044433594 0.333600491285324097 -0.0302912984043359756 -0.0168739911168813705
1.56262314319610596 66.9743194580078125 2.7183377742767334 154 1644763071.96697354 0.988706052303314209 0.142297476530075073 -0.0463136807084083557 0.00817059166729450226
11.1719274520874023 66.8993453979492188 1.77007102966308594 155 1644763073.56685972 0.998516738414764404 -0.0308693572878837585 -0.0445458628237247467 0.00520073715597391129
21.5741348266601562 66.2967071533203125 0.757322549819946289 156 1644763074.96879983 0.998921036720275879 -0.0155160576105117798 -0.0437599420547485352 0.0010632865596562624
32.1794548034667969 65.9938430786132812 -0.0751508995890617371 157 1644763076.26548028 0.998943150043487549 -0.0111662084236741066 -0.0445212088525295258 0.00241135014221072197
42.7839508056640625 65.5881118774414062 -0.948704719543457031 158 1644763077.56484795 0.998379707336425781 -0.0369542725384235382 -0.0417688041925430298 0.0113017698749899864
53.4323501586914062 64.6117706298828125 -1.6605302095413208 159 1644763078.86356306 0.998602569103240967 -0.0431992970407009125 -0.0303711667656898499 0.00207436829805374146
64.143463134765625 63.8285408020019531 -2.30772805213928223 160 1644763080.16382766 0.999029994010925293 -0.0348647460341453552 -0.0244141984730958939 -0.0112913986667990685
74.7761306762695312 63.30755615234375 -3.01194238662719727 161 1644763081.46371245 0.999161124229431152 -0.0222236551344394684 -0.0338877215981483459 -0.00590071408078074455
85.24273681640625 63.0873336791992188 -3.4593818187713623 162 1644763082.76322436 0.999761343002319336 -0.0172808002680540085 -0.0123271346092224121 0.00516807893291115761
95.6050491333007812 62.9113922119140625 -3.80345940589904785 163 1644763084.064605 0.999501883983612061 -0.0260887127369642258 -0.00381926284171640873 0.017343476414680481
106.20068359375 61.3481292724609375 -3.91647481918334961 164 1644763085.46337628 0.994317054748535156 -0.106262370944023132 0.00249371328391134739 -0.00597507180646061897
116.175376892089844 58.4193878173828125 -3.8485102653503418 165 1644763086.86309266 0.983849048614501953 -0.178603053092956543 0.00692865531891584396 -0.00969364773482084274
125.427803039550781 54.2469520568847656 -3.60989761352539062 166 1644763088.26324487 0.973581850528717041 -0.22713005542755127 0.0194527115672826767 -0.0131099941208958626
134.458267211914062 48.7889671325683594 -3.14805150032043457 167 1644763089.76336503 0.948047399520874023 -0.316689640283584595 0.0302119459956884384 0.00102961994707584381
142.097259521484375 41.8361778259277344 -2.57221102714538574 168 1644763091.2629416 0.917532742023468018 -0.396168678998947144 0.0336897745728492737 0.00700506055727601051
148.844879150390625 33.6700859069824219 -1.7989659309387207 169 1644763092.86418748 0.899155080318450928 -0.436174780130386353 0.0343315042555332184 0.00964760221540927887
155.135589599609375 25.5345191955566406 -1.06637239456176758 170 1644763094.46430683 0.894524276256561279 -0.444822460412979126 0.0436751917004585266 0.00719727808609604836
161.2501220703125 17.6049728393554688 -0.283472239971160889 171 1644763096.06442237 0.895217299461364746 -0.443534284830093384 0.0427475757896900177 0.00599974393844604492
168.53240966796875 7.99548435211181641 0.604853630065917969 172 1644763098.06584406 0.884806931018829346 -0.464830160140991211 0.0306551866233348846 0.0104837166145443916
169.802047729492188 4.56347751617431641 0.845970392227172852 173 1644763098.7658515 0.785982251167297363 -0.617370486259460449 0.0278624817728996277 0.0175846666097640991
169.631195068359375 1.52452719211578369 1.03843080997467041 174 1644763099.36606717 0.665331542491912842 -0.745935797691345215 0.0245332904160022736 0.0176589488983154297
168.185806274414062 -1.72835338115692139 1.25850725173950195 175 1644763100.06684828 0.506940901279449463 -0.860860347747802734 0.0347830615937709808 0.0268424078822135925
161.565444946289062 -8.07892894744873047 2.07837414741516113 176 1644763101.76601553 0.347147673368453979 -0.936254680156707764 0.0412782356142997742 0.034810580313205719
152.63812255859375 -15.0751562118530273 3.00436568260192871 177 1644763103.76744676 0.310923099517822266 -0.949102580547332764 0.0489134639501571655 0.0117747057229280472
143.882217407226562 -23.6055202484130859 3.54219794273376465 178 1644763105.86704445 0.475282907485961914 -0.879770636558532715 0.0104035306721925735 0.00124727364163845778
138.048370361328125 -32.3248367309570312 3.74606227874755859 179 1644763107.86750054 0.505874454975128174 -0.862432420253753662 0.00771216396242380142 0.0155535442754626274
130.13494873046875 -36.3108634948730469 3.67537045478820801 180 1644763109.86777258 -0.0369174405932426453 -0.998476326465606689 -0.0312555953860282898 -0.0265567433089017868
125.890129089355469 -28.5710277557373047 3.30490565299987793 181 1644763111.96565175 -0.65811532735824585 -0.752440214157104492 -0.000301912048598751426 -0.0267930403351783752
123.650535583496094 -17.6943702697753906 2.9642338752746582 182 1644763113.96831346 -0.568957865238189697 -0.822282612323760986 0.00606039538979530334 -0.0100766811519861221
116.184234619140625 -6.40616607666015625 2.10443735122680664 183 1644763115.96861982 -0.423626631498336792 -0.904337763786315918 0.0118564199656248093 -0.0507262162864208221
103.953262329101562 2.89822053909301758 0.631916522979736328 184 1644763118.06987906 -0.273279011249542236 -0.961453557014465332 0.000598290236666798592 -0.03041832335293293
95.7842178344726562 5.88490390777587891 0.22912849485874176 185 1644763119.26844239 -0.103334829211235046 -0.994561314582824707 0.0118418261408805847 -0.00543047860264778137
80.6044921875 6.92914247512817383 0.0214210934937000275 186 1644763121.36633277 -0.0139343254268169403 -0.999869287014007568 0.00816063769161701202 -0.000783375930041074753
65.3633956909179688 7.53186464309692383 -0.0654235035181045532 187 1644763123.46704721 -0.0285703465342521667 -0.999471068382263184 0.0144414026290178299 0.00572142843157052994
50.7559547424316406 8.38696384429931641 -0.0921532511711120605 188 1644763125.46834993 -0.0170441903173923492 -0.999725461006164551 0.00728057650849223137 0.0143348798155784607
35.8413314819335938 8.63030052185058594 0.346578657627105713 189 1644763127.56090736 -0.0177437365055084229 -0.999536991119384766 0.000102701524156145751 0.0247169565409421921
26.3874588012695312 7.66848897933959961 0.635335147380828857 190 1644763128.96155286 0.18561650812625885 -0.982219696044921875 0.0210487060248851776 0.0186525210738182068
22.8544559478759766 5.07636213302612305 0.760280907154083252 191 1644763129.66169739 0.358690142631530762 -0.933271825313568115 0.0176666527986526489 0.00574019411578774452
13.0387516021728516 0.108484618365764618 1.00649785995483398 192 1644763131.66176391 0.0146551346406340599 -0.999744832515716553 0.0139595745131373405 0.0100328074768185616
1.23223519325256348 0.760807991027832031 1.12127697467803955 193 1644763133.66370249 -0.0222447589039802551 -0.999657094478607178 -0.00359590700827538967 0.0133404070511460304
-7.68544864654541016 2.05431270599365234 1.27341532707214355 194 1644763135.36364126 -0.199811637401580811 -0.979730069637298584 -0.0119586074724793434 -0.0078253280371427536
-9.38999748229980469 3.65727829933166504 1.28344810009002686 195 1644763135.86190939 -0.37541690468788147 -0.92672419548034668 -0.0131364772096276283 -0.00847396347671747208
-11.4703588485717773 13.1360883712768555 1.24432981014251709 196 1644763137.96146607 -0.672306180000305176 -0.74023669958114624 -0.00618758145719766617 0.00397188402712345123
-12.135289192199707 25.5544872283935547 1.23268294334411621 197 1644763140.06140757 -0.701745271682739258 -0.71241837739944458 -0.00349147245287895203 0.00118787505198270082
-11.8505067825317383 38.12371826171875 1.31802952289581299 198 1644763142.06621528 -0.725288510322570801 -0.68836677074432373 -0.00266867666505277157 -0.0100305965170264244
-10.8495988845825195 51.0310707092285156 1.60794293880462646 199 1644763144.16177249 -0.736841917037963867 -0.675379753112792969 -0.0301869865506887436 0.00386164337396621704
-8.89313125610351562 63.377777099609375 3.13005208969116211 200 1644763146.16311502 -0.723110735416412354 -0.688381969928741455 0.0193826295435428619 0.0535296276211738586
-7.40944528579711914 75.946380615234375 3.54580068588256836 201 1644763148.16612577 -0.75393211841583252 -0.655894875526428223 0.0185219664126634598 0.0323299020528793335
-6.52133846282958984 90.9253311157226562 3.44438624382019043 202 1644763150.26373553 -0.722620368003845215 -0.690857589244842529 0.0215434208512306213 0.00845130626112222672
-6.85884332656860352 106.862838745117188 3.26669907569885254 203 1644763152.3637383 -0.73792576789855957 -0.67485123872756958 0.00122377823572605848 -0.00631577474996447563
-4.85618019104003906 122.105735778808594 3.13690471649169922 204 1644763154.36436701 -0.734633326530456543 -0.677855074405670166 0.0177554711699485779 0.0226068664342164993
-4.25933647155761719 137.310470581054688 3.37429666519165039 205 1644763156.36603522 -0.714754343032836914 -0.698709011077880859 0.00066402205266058445 0.0305211562663316727
-5.1174464225769043 152.14007568359375 3.73699259757995605 206 1644763158.36771703 -0.657534003257751465 -0.752348661422729492 0.00552687421441078186 0.0398744828999042511
-7.41940832138061523 167.503616333007812 4.30518579483032227 207 1644763160.46637511 -0.634099304676055908 -0.772230148315429688 0.00157655880320817232 0.0397012419998645782
-11.3583869934082031 180.992401123046875 4.86551046371459961 208 1644763162.46790481 -0.595353841781616211 -0.803002119064331055 -0.00450800219550728798 0.0268529057502746582
-14.3212614059448242 192.95159912109375 5.37024688720703125 209 1644763164.5630362 -0.637020349502563477 -0.770586788654327393 -0.00298092490993440151 0.0198029428720474243
-14.1942253112792969 198.366195678710938 5.58639097213745117 210 1644763165.76269364 -0.776020348072052002 -0.630542933940887451 -0.0141576742753386497 0.00274969451129436493
-12.7184762954711914 200.721542358398438 5.59179496765136719 211 1644763166.46270943 -0.876277744770050049 -0.481656581163406372 0.00394449802115559578 0.0113432873040437698
-5.16668176651000977 207.11663818359375 5.68416690826416016 212 1644763168.56304502 -0.931836128234863281 -0.362422794103622437 -0.00954486988484859467 0.0154927819967269897
3.32759237289428711 216.743499755859375 6.17067193984985352 213 1644763170.66450715 -0.905525743961334229 -0.421807944774627686 -0.0384369939565658569 0.0249762758612632751
10.7174959182739258 228.4190673828125 6.73114299774169922 214 1644763172.76275396 -0.862613976001739502 -0.505095958709716797 -0.0216930266469717026 0.0174551438540220261
15.7681808471679688 242.503982543945312 7.49868488311767578 215 1644763174.86295176 -0.799382448196411133 -0.599540352821350098 -0.0377219133079051971 0.0107758352532982826
16.8767776489257812 253.958572387695312 8.15688514709472656 216 1644763176.46359396 -0.6833304762840271 -0.729548633098602295 -0.0275297090411186218 0.00776699325069785118
14.5810155868530273 268.035888671875 8.91985988616943359 217 1644763178.56279349 -0.616329371929168701 -0.786774814128875732 -0.0294715352356433868 0.0159657280892133713
11.9823522567749023 276.120086669921875 9.41417980194091797 218 1644763180.6610899 -0.60273367166519165 -0.797358930110931396 -0.026944231241941452 0.0143131306394934654
10.6112022399902344 280.95654296875 9.67745876312255859 219 1644763182.66441011 -0.60495603084564209 -0.795815229415893555 -0.0261627659201622009 0.00466483458876609802
9.05949687957763672 289.163604736328125 10.1268749237060547 220 1644763184.76422787 -0.640831172466278076 -0.767340779304504395 -0.00256503419950604439 0.022736789658665657
7.19077491760253906 298.87701416015625 10.1255264282226562 221 1644763186.76463294 -0.625284850597381592 -0.78024369478225708 0.0149621358141303062 0.0038365502841770649
5.58753681182861328 310.618804931640625 9.96191024780273438 222 1644763188.86462569 -0.677184998989105225 -0.735719561576843262 0.00775492191314697266 -0.00877679511904716492
5.47813892364501953 321.1441650390625 9.79470539093017578 223 1644763190.86670089 -0.724440217018127441 -0.688968420028686523 0.021944073960185051 0.00523279281333088875
6.7606043815612793 329.97186279296875 9.58851337432861328 224 1644763192.86703968 -0.76237332820892334 -0.646518588066101074 0.0263219568878412247 0.0103828432038426399
7.9012293815612793 336.8944091796875 9.49732112884521484 225 1644763194.96604085 -0.764034807682037354 -0.643720507621765137 0.0332813672721385956 0.0276947226375341415
9.83591556549072266 342.824859619140625 9.49820518493652344 226 1644763196.96656871 -0.833098292350769043 -0.550766229629516602 0.0138442497700452805 0.0491135679185390472
12.6054716110229492 346.298919677734375 9.78760433197021484 227 1644763198.56623459 -0.916198968887329102 -0.396127372980117798 -0.00839699059724807739 0.0599336810410022736
15.1332292556762695 347.699371337890625 9.8259124755859375 228 1644763199.26540637 -0.974289238452911377 -0.220984295010566711 0.00341833080165088177 0.0437580198049545288
18.0430355072021484 347.97467041015625 9.70254898071289062 229 1644763199.86909676 -0.999223887920379639 -0.0178384929895401001 0.0220284499228000641 0.0273529775440692902
22.0936069488525391 346.821319580078125 9.43493938446044922 230 1644763200.6616714 -0.98543858528137207 0.160852298140525818 0.0294275246560573578 0.0465977713465690613
33.9689865112304688 341.8612060546875 8.43806934356689453 231 1644763202.66737604 -0.978173613548278809 0.197467043995857239 0.0240119155496358871 0.0600543543696403503
48.325042724609375 335.247100830078125 7.30709505081176758 232 1644763204.76571608 -0.970325291156768799 0.232572838664054871 0.0174902100116014481 0.0638188272714614868
62.72650146484375 327.82647705078125 6.30293369293212891 233 1644763206.86603093 -0.96813356876373291 0.241994664072990417 0.0154292471706867218 0.0625927820801734924
76.2167282104492188 320.52789306640625 5.40189933776855469 234 1644763208.87046576 -0.963905215263366699 0.261170566082000732 0.0143578983843326569 0.0497042462229728699
89.9728546142578125 312.167633056640625 4.42587471008300781 235 1644763210.96445107 -0.953871428966522217 0.295776575803756714 0.0173902567476034164 0.0484057590365409851
102.965347290039062 304.029296875 3.53811478614807129 236 1644763212.96470141 -0.962891757488250732 0.265867352485656738 0.00859056971967220306 0.045609641820192337
113.794029235839844 298.36474609375 3.03139472007751465 237 1644763214.56502247 -0.971966207027435303 0.233114391565322876 0.0152058899402618408 0.0266119949519634247
123.620071411132812 292.44305419921875 2.46544909477233887 238 1644763216.06410813 -0.95530468225479126 0.295052677392959595 0.00926149450242519379 0.0158455930650234222
135.72216796875 281.934295654296875 1.64682877063751221 239 1644763218.16118455 -0.914316117763519287 0.40392613410949707 0.0139050325378775597 0.0260074418038129807
145.911788940429688 269.724945068359375 0.724307239055633545 240 1644763220.26069379 -0.901207625865936279 0.432355105876922607 0.0101419286802411079 0.0281243026256561279
156.611007690429688 257.7701416015625 -0.128288581967353821 241 1644763222.35965824 -0.923178672790527344 0.383238524198532104 0.00458913715556263924 0.0291266534477472305
167.574676513671875 246.260787963867188 -0.675295710563659668 242 1644763224.45855784 -0.91760408878326416 0.396294742822647095 -0.000880679115653038025 0.0308611150830984116
177.968032836914062 235.525802612304688 -1.00680708885192871 243 1644763226.45912504 -0.919843137264251709 0.390862941741943359 -0.00285946717485785484 0.0332662276923656464
188.425445556640625 224.995285034179688 -1.20006775856018066 244 1644763228.46157074 -0.923825323581695557 0.381903946399688721 -0.00730951176956295967 0.0253530647605657578
199.398910522460938 214.122879028320312 -1.26542127132415771 245 1644763230.55794597 -0.924130916595458984 0.381370753049850464 -0.00820259563624858856 0.0217041503638029099
210.262481689453125 203.204132080078125 -1.22253012657165527 246 1644763232.65787172 -0.91716235876083374 0.398269683122634888 -0.0127354096621274948 0.00567840505391359329
220.075546264648438 192.284347534179688 -1.22989225387573242 247 1644763234.65879536 -0.911631286144256592 0.410743981599807739 -0.00725271971896290779 0.012850726954638958
229.822097778320312 181.429397583007812 -1.07389891147613525 248 1644763236.65944719 -0.91385042667388916 0.404366582632064819 -0.0232581868767738342 0.0287068691104650497
238.932083129882812 170.028411865234375 -0.965406179428100586 249 1644763238.65978217 -0.879016220569610596 0.475676804780960083 -0.0174021124839782715 0.0275548622012138367
244.146942138671875 156.322723388671875 -1.24123644828796387 250 1644763240.66252518 -0.787332653999328613 0.61530458927154541 -0.0186002720147371292 0.0340812988579273224
246.398773193359375 141.06646728515625 -1.56160199642181396 251 1644763242.76257944 -0.726960182189941406 0.685343146324157715 -0.0178499966859817505 0.0389237925410270691
246.477127075195312 126.656120300292969 -1.77080249786376953 252 1644763244.7629168 -0.689392745494842529 0.7240486741065979 -0.0208490900695323944 0.00751605583354830742
245.214645385742188 111.989982604980469 -1.61747264862060547 253 1644763246.86239076 -0.676697134971618652 0.735159635543823242 -0.0393867678940296173 0.0083660222589969635
244.827178955078125 97.7413558959960938 -1.14929020404815674 254 1644763248.9616015 -0.700783491134643555 0.712656140327453613 -0.0316658876836299896 -0.00457821646705269814
244.783782958984375 84.2058334350585938 -0.442312359809875488 255 1644763251.06079006 -0.706837654113769531 0.706200659275054932 -0.0386327020823955536 -0.0129887433722615242
245.129257202148438 71.9781875610351562 0.230366766452789307 256 1644763253.06096506 -0.715382575988769531 0.697713732719421387 -0.0338198244571685791 -0.0167187973856925964
245.014495849609375 60.3975639343261719 1.11608505249023438 257 1644763255.06136894 -0.690659403800964355 0.721162199974060059 -0.0505141839385032654 -0.0190526247024536133
244.1270751953125 49.530181884765625 1.82651019096374512 258 1644763257.06222534 -0.676153242588043213 0.734681546688079834 -0.0552203617990016937 -0.00324074365198612213
243.164382934570312 38.4759864807128906 2.5382683277130127 259 1644763259.16089892 -0.668333590030670166 0.742588281631469727 -0.0433684736490249634 -0.00346559309400618076
240.663177490234375 28.0284767150878906 3.07364821434020996 260 1644763261.16221023 -0.582761824131011963 0.810562312602996826 -0.058114517480134964 -0.000392866932088509202
236.069381713867188 18.4100418090820312 3.55564546585083008 261 1644763263.16265297 -0.502332091331481934 0.862658858299255371 -0.0589479543268680573 -0.00270914961583912373
230.133590698242188 9.60714149475097656 3.91349267959594727 262 1644763265.16273904 -0.445511579513549805 0.894560098648071289 -0.0356898531317710876 0.00280936015769839287
223.033645629882812 1.66838192939758301 4.2249760627746582 263 1644763267.16281748 -0.374971240758895874 0.926460504531860352 -0.0323876067996025085 -0.00430469773709774017
214.2554931640625 -4.97490644454956055 4.466339111328125 264 1644763269.26126242 -0.304466843605041504 0.951855301856994629 -0.0342815257608890533 -0.00980787631124258041
205.7490234375 -11.2751302719116211 4.71297454833984375 265 1644763271.2612834 -0.307521253824234009 0.951147198677062988 -0.0263443775475025177 -0.0074609341099858284
197.028900146484375 -17.2021980285644531 4.93981504440307617 266 1644763273.35705471 -0.284911632537841797 0.958046495914459229 -0.0305268187075853348 -0.00635509984567761421
191.487319946289062 -20.1155242919921875 5.06681060791015625 267 1644763275.35900259 -0.188644841313362122 0.981581032276153564 -0.0298714935779571533 -0.00441876659169793129
187.7774658203125 -20.3909740447998047 5.03225898742675781 268 1644763276.55813241 0.00225034984759986401 0.999748945236206055 -0.0222888849675655365 -0.00043155843741260469
184.480621337890625 -19.2679615020751953 4.92584133148193359 269 1644763277.45797658 0.180908575654029846 0.98326408863067627 -0.0199680179357528687 0.00806886050850152969
180.476333618164062 -16.1858196258544922 4.65911006927490234 270 1644763278.55870628 0.359360396862030029 0.932732462882995605 -0.0156032908707857132 0.0250361356884241104
173.84649658203125 -6.99225854873657227 3.75822925567626953 271 1644763280.56741095 0.477349907159805298 0.878239870071411133 0.0105371084064245224 0.0268467497080564499
166.404388427734375 3.75427865982055664 2.74075460433959961 272 1644763282.65962148 0.447324514389038086 0.893377006053924561 -0.00234325509518384933 0.0421045348048210144
157.02630615234375 15.5381660461425781 1.22213268280029297 273 1644763284.6626997 0.438066989183425903 0.896826207637786865 0.0125776017084717751 0.0603480637073516846
147.0635986328125 28.8789997100830078 -0.653791904449462891 274 1644763286.76014829 0.447685867547988892 0.892155349254608154 0.00166435434948652983 0.0602776817977428436
136.161056518554688 41.1325721740722656 -2.71505427360534668 275 1644763288.76229167 0.385358572006225586 0.921186864376068115 -0.00327902310527861118 0.0538769923150539398
122.676338195800781 51.5244026184082031 -3.90537095069885254 276 1644763290.86351085 0.2768402099609375 0.960337221622467041 0.0194948073476552963 0.0270538255572319031
107.971817016601562 57.8569526672363281 -4.46849870681762695 277 1644763292.96370029 0.153945997357368469 0.987765014171600342 0.0215356219559907913 0.0125345736742019653
94.1706008911132812 60.9625625610351562 -4.54848003387451172 278 1644763295.05994678 0.110966302454471588 0.993352890014648438 0.0295333769172430038 -0.00801778491586446762
83.0218429565429688 64.78924560546875 -4.35261392593383789 279 1644763297.15819979 0.215093418955802917 0.976510286331176758 -0.00643984740599989891 -0.0109997252002358437
77.53314208984375 68.9130630493164062 -4.21775722503662109 280 1644763298.35984778 0.403279930353164673 0.915042996406555176 0.00694667547941207886 -0.00365499639883637428
73.4473114013671875 76.7574462890625 -4.27031183242797852 281 1644763299.85890889 0.558512330055236816 0.829375922679901123 -0.0138890082016587257 -0.00257926224730908871
71.1552886962890625 86.6261749267578125 -4.40908241271972656 282 1644763301.35764694 0.660627961158752441 0.7507132887840271 -0.000355199066689237952 -0.000389803113648667932
71.3166885375976562 96.6877975463867188 -4.42106246948242188 283 1644763302.75734949 0.759791314601898193 0.65012967586517334 0.00696812663227319717 0.000166391298989765346
74.3238754272460938 104.424240112304688 -4.41893386840820312 284 1644763303.85699773 0.861713886260986328 0.507386505603790283 -0.00108361337333917618 -0.00263916607946157455
81.3648834228515625 112.392753601074219 -4.40144824981689453 285 1644763305.25759101 0.936816096305847168 0.349275827407836914 -0.00684683350846171379 -0.0183075368404388428
90.5488128662109375 117.724983215332031 -4.50156211853027344 286 1644763306.65648961 0.981825888156890869 0.188719794154167175 -0.00717999832704663277 -0.0187407657504081726
100.693214416503906 118.962081909179688 -4.68072271347045898 287 1644763308.05854678 0.999289512634277344 -0.0305779986083507538 -0.00806330982595682144 -0.0205052122473716736
110.937202453613281 115.998992919921875 -5.40075540542602539 288 1644763309.5580945 0.976571381092071533 -0.211696386337280273 -0.0338292494416236877 -0.0186700746417045593
119.708839416503906 110.4041748046875 -5.7810359001159668 289 1644763311.05899978 0.931021213531494141 -0.364843755960464478 -0.00894602760672569275 -0.00291489739902317524
123.3211669921875 105.017402648925781 -5.88332939147949219 290 1644763312.0569942 0.849051594734191895 -0.528228044509887695 -0.00929955579340457916 0.000243608403252437711
127.223793029785156 95.4661712646484375 -5.99078941345214844 291 1644763313.95668936 0.875614702701568604 -0.482436448335647583 0.00758841307833790779 -0.0222790148109197617
133.770675659179688 93.8594970703125 -5.93114995956420898 292 1644763315.96012163 0.991293907165527344 0.128578037023544312 0.0038630426861345768 -0.0280921496450901031
135.145248413085938 95.0683212280273438 -5.869964599609375 293 1644763316.55775332 0.946053564548492432 0.322836816310882568 0.0115037392824888229 -0.0250343848019838333
135.941009521484375 96.767578125 -5.81684589385986328 294 1644763317.15929723 0.861145913600921631 0.507662355899810791 0.00848061870783567429 -0.0251943785697221756
135.92755126953125 98.6486740112304688 -5.78553438186645508 295 1644763317.65693784 0.732856988906860352 0.680222094058990479 0.000198268811800517142 -0.0147826401516795158
135.190277099609375 100.537307739257812 -5.73920822143554688 296 1644763318.158957 0.601592063903808594 0.798459708690643311 0.0209912862628698349 -0.0104142781347036362
132.446334838867188 104.903152465820312 -5.68245983123779297 297 1644763319.25694346 0.44638437032699585 0.894601881504058838 0.0204840917140245438 -0.00298401527106761932
128.158706665039062 108.204605102539062 -5.71285676956176758 298 1644763320.25921512 0.264715850353240967 0.964251220226287842 0.0097294151782989502 0.00710249971598386765
116.148086547851562 113.034492492675781 -5.70508098602294922 299 1644763322.35798526 0.207326889038085938 0.978066682815551758 0.0167232081294059753 -0.0110196024179458618
103.878814697265625 116.897125244140625 -4.93325614929199219 300 1644763324.35879016 0.11711893230676651 0.992237210273742676 0.0236007310450077057 -0.0345171652734279633
92.646728515625 117.158546447753906 -4.5950617790222168 301 1644763326.15899706 -0.0781592652201652527 0.996605753898620605 0.0147003578022122383 -0.0212601944804191589
85.1030807495117188 114.140518188476562 -4.43632364273071289 302 1644763327.46011615 -0.257158488035202026 0.966264903545379639 0.00685215601697564125 -0.0124398423358798027
79.6265335083007812 108.900169372558594 -4.34374713897705078 303 1644763328.6609726 -0.424084901809692383 0.905496895313262939 0.00668381480500102043 -0.0135178472846746445
74.5889511108398438 99.0891952514648438 -4.21174287796020508 304 1644763330.36209941 -0.579365730285644531 0.814979374408721924 -0.00257418234832584858 -0.0117187220603227615
72.7170639038085938 86.0468978881835938 -3.97216033935546875 305 1644763332.36238551 -0.693323075771331787 0.720449745655059814 -0.00798133481293916702 -0.0138405933976173401
74.110107421875 73.74212646484375 -3.62649154663085938 306 1644763334.36365461 -0.760082900524139404 0.649058401584625244 0.00259661208838224411 -0.0314709469676017761
73.2130966186523438 68.1952133178710938 -3.40209555625915527 307 1644763335.56127048 -0.553253054618835449 0.832475125789642334 0.0165912546217441559 -0.024918070062994957
71.5597000122070312 66.1147918701171875 -3.30770730972290039 308 1644763336.16478944 -0.397882997989654541 0.916123032569885254 0.0320284739136695862 -0.0371739864349365234
69.3097915649414062 65.0448532104492188 -3.16298580169677734 309 1644763336.7627039 -0.213636159896850586 0.976240932941436768 0.0151996780186891556 -0.0328972376883029938
61.5769767761230469 62.2422409057617188 -2.7316892147064209 310 1644763338.76279044 -0.096704043447971344 0.994651913642883301 0.0182300787419080734 -0.031362045556306839
51.3125724792480469 61.80120849609375 -1.61336147785186768 311 1644763340.86200953 0.0129809342324733734 0.99909818172454834 0.0236472338438034058 -0.0327898003160953522
39.8840713500976562 62.5480728149414062 -0.76696312427520752 312 1644763342.95944595 0.0461833514273166656 0.998052000999450684 0.0213625635951757431 -0.0360969379544258118
28.8879966735839844 63.0856513977050781 0.158303156495094299 313 1644763344.96236563 0.0182845126837491989 0.998508810997009277 0.0261213518679141998 -0.0443110354244709015
17.3242015838623047 63.573394775390625 1.15642023086547852 314 1644763347.05756617 0.0255186352878808975 0.998504102230072021 0.0155355548486113548 -0.045792602002620697
6.1371464729309082 64.1051177978515625 2.12028598785400391 315 1644763349.060853 0.0121545325964689255 0.998756468296051025 0.0118249412626028061 -0.0468817763030529022
0.216440692543983459 62.9801254272460938 2.58217000961303711 316 1644763350.15735459 -0.172815918922424316 0.984382092952728271 0.00742703070864081383 -0.0327313728630542755
-2.31384658813476562 60.9144706726074219 2.73496031761169434 317 1644763350.75764632 -0.362567782402038574 0.931183874607086182 0.0182020328938961029 -0.0333148874342441559
-6.26569175720214844 49.8029022216796875 2.22655415534973145 318 1644763352.76193452 -0.656639158725738525 0.753402471542358398 0.0177380498498678207 0.0299189183861017227
-7.0083775520324707 35.6431541442871094 2.01976561546325684 319 1644763354.85618472 -0.69032585620880127 0.72341686487197876 -0.00693685328587889671 0.00837314128875732422
-7.69782590866088867 23.8073291778564453 1.86763501167297363 320 1644763356.85858536 -0.678425431251525879 0.734497308731079102 0.000550326774828135967 0.0158848296850919724
-8.23085117340087891 11.7537364959716797 1.71241903305053711 321 1644763358.85908318 -0.698390066623687744 0.715691804885864258 0.00558092258870601654 -0.00233042333275079727
-9.68481349945068359 -1.03109920024871826 1.69305777549743652 322 1644763360.85917354 -0.667276203632354736 0.744541525840759277 -0.0198258385062217712 -0.00271073146723210812
-11.5382289886474609 -12.5172948837280273 1.74588179588317871 323 1644763362.95740008 -0.675318896770477295 0.737261652946472168 -0.0120992576703429222 0.0155959948897361755
-10.4539937973022461 -16.2119159698486328 1.71172237396240234 324 1644763363.75892282 -0.835580408573150635 0.548977673053741455 -0.00408535636961460114 0.0203010812401771545
-6.58099222183227539 -23.4328880310058594 1.6603701114654541 325 1644763365.85868144 -0.769287765026092529 0.636276364326477051 0.0578582361340522766 0.00107300560921430588
-8.12832260131835938 -27.6579227447509766 1.70230245590209961 326 1644763367.05527687 -0.538464128971099854 0.842342793941497803 0.0160335171967744827 -0.0160595476627349854
-11.7466697692871094 -34.5983505249023438 1.65290772914886475 327 1644763369.0566082 -0.547334432601928711 0.836861491203308105 -0.00601065298542380333 0.0071931532584130764
-11.7495765686035156 -40.924896240234375 1.67691171169281006 328 1644763371.0568676 -0.7991294264793396 0.60111701488494873 -0.00702202413231134415 0.00111334421671926975
-7.06879997253417969 -43.4275588989257812 1.52052974700927734 329 1644763373.1574316 -0.998892366886138916 0.0244031362235546112 0.0219063516706228256 0.0337444022297859192
-5.49078512191772461 -38.6571846008300781 1.52351677417755127 330 1644763375.15806055 -0.671252429485321045 -0.740863442420959473 0.00776823284104466438 0.0219348855316638947
-5.54919195175170898 -37.3681411743164062 1.54287922382354736 331 1644763377.15858173 -0.682768464088439941 -0.730098605155944824 0.0117678362876176834 0.0253925435245037079
