# .PCD v0.7 - Point Cloud Data file format
VERSION 0.7
FIELDS x y z intensity t qx qy qz qw
SIZE 4 4 4 4 8 4 4 4 4
TYPE F F F F F F F F F
COUNT 1 1 1 1 1 1 1 1 1
WIDTH 287
HEIGHT 1
VIEWPOINT 0 0 0 1 0 0 0
POINTS 287
DATA ascii
6.06411361694335938 -0.698180139064788818 10.0595293045043945 0 1644824546.04700017 0.999669492244720459 -0.0122345518320798874 0.0222551971673965454 -0.00399381667375564575
7.45262432098388672 -0.812293767929077148 10.1182842254638672 1 1644824548.24788451 0.999046385288238525 -0.0278311427682638168 0.0312961898744106293 -0.0123387081548571587
9.93963813781738281 -1.75112450122833252 10.1987285614013672 2 1644824549.14773297 0.978570103645324707 -0.204045578837394714 0.0262039266526699066 -0.00890751462429761887
11.4356927871704102 -3.2973179817199707 10.2437705993652344 3 1644824549.74763703 0.926222801208496094 -0.375703960657119751 0.0263595301657915115 -0.0162198841571807861
12.7156801223754883 -5.89969205856323242 10.2433929443359375 4 1644824550.44975829 0.83702242374420166 -0.546979248523712158 0.0141075318679213524 -0.00286210351623594761
13.3073387145996094 -11.7220840454101562 10.1198511123657227 5 1644824551.64796948 0.725020229816436768 -0.687940418720245361 0.0278259441256523132 -0.0175883416086435318
13.898921012878418 -21.7398853302001953 9.95270633697509766 6 1644824553.35219026 0.728686273097991943 -0.683924078941345215 0.0316519327461719513 -0.0161966700106859207
14.7527332305908203 -32.3103523254394531 9.86184883117675781 7 1644824554.9469347 0.734628200531005859 -0.677323460578918457 0.0360150933265686035 -0.0160382967442274094
15.774022102355957 -42.2952346801757812 9.7545013427734375 8 1644824556.34885263 0.745786011219024658 -0.665118396282196045 0.0305130686610937119 -0.022128663957118988
17.0236644744873047 -52.2871208190917969 9.72926235198974609 9 1644824557.84884977 0.74420773983001709 -0.666695713996887207 0.0274250730872154236 -0.0303229056298732758
18.6856708526611328 -62.3099937438964844 9.86030960083007812 10 1644824559.6484735 0.806406140327453613 -0.590446949005126953 0.0318260900676250458 -0.00828431453555822372
25.5503883361816406 -67.8280105590820312 10.1054553985595703 11 1644824561.65157628 0.989645242691040039 -0.139908954501152039 0.0301475785672664642 -0.0109055312350392342
31.1093254089355469 -73.7634506225585938 10.2610864639282227 12 1644824563.75079584 0.817297577857971191 -0.575832366943359375 0.0210087895393371582 -0.000680906872730702162
32.4456977844238281 -84.2059173583984375 10.3008623123168945 13 1644824565.75270867 0.751873433589935303 -0.659200489521026611 0.0113942772150039673 -0.00334727461449801922
31.6928138732910156 -88.8399505615234375 10.2857141494750977 14 1644824566.64797616 0.57365792989730835 -0.81906968355178833 -0.00566707458347082138 0.00305326841771602631
29.9152622222900391 -91.1280593872070312 10.2135457992553711 15 1644824567.24561763 0.410716205835342407 -0.911645591259002686 -0.011546814814209938 -0.00901055615395307541
27.2308273315429688 -92.718231201171875 10.0650663375854492 16 1644824567.94925475 0.231767982244491577 -0.972450137138366699 -0.0177165362983942032 -0.017620304599404335
22.9834766387939453 -93.328338623046875 9.89394092559814453 17 1644824568.85102749 0.0496111586689949036 -0.998679995536804199 -0.00631114048883318901 -0.0117096332833170891
12.6253519058227539 -93.98681640625 9.50217342376708984 18 1644824570.85352421 -0.00377587741240859032 -0.999863266944885254 -0.00304593960754573345 -0.0158102735877037048
8.17575740814208984 -92.8437652587890625 9.36624526977539062 19 1644824571.84669971 -0.183933869004249573 -0.982895433902740479 -0.00560801336541771889 -0.00731250317767262459
5.93163776397705078 -90.9651107788085938 9.29371547698974609 20 1644824572.44754028 -0.36263546347618103 -0.931854009628295898 -0.0112451687455177307 -0.00414126412943005562
4.30600500106811523 -88.265960693359375 9.20625209808349609 21 1644824573.0456531 -0.527649104595184326 -0.848482370376586914 -0.0310845468193292618 -0.0264171622693538666
2.34273481369018555 -78.2259063720703125 9.10453128814697266 22 1644824574.95742893 -0.642858505249023438 -0.765079319477081299 -0.0365859493613243103 -0.00693378923460841179
1.3301851749420166 -68.103118896484375 9.034942626953125 23 1644824576.7531476 -0.708197712898254395 -0.704967379570007324 -0.0318013764917850494 -0.0215782374143600464
1.6987922191619873 -58.0012664794921875 9.152069091796875 24 1644824578.54965925 -0.686394989490509033 -0.726901650428771973 -0.0204472653567790985 -0.00760507769882678986
-1.6463623046875 -51.8397979736328125 9.12458515167236328 25 1644824580.05068636 -0.361499518156051636 -0.932343006134033203 -0.00530785368755459785 -0.0051400037482380867
-3.79323291778564453 -50.9564895629882812 9.07656478881835938 26 1644824580.54889727 -0.184686824679374695 -0.982779979705810547 0.00531752686947584152 0.00244776555337011814
-6.71555757522583008 -50.8390617370605469 8.96230506896972656 27 1644824581.15047956 7.29306484572589397e-05 -0.999679982662200928 0.022103605791926384 0.0123013202100992203
-16.8526325225830078 -52.1240119934082031 8.5372314453125 28 1644824583.15215254 0.0588499568402767181 -0.998203814029693604 -0.0111058279871940613 0.0015922090969979763
-24.3582134246826172 -54.4017906188964844 8.20510005950927734 29 1644824584.54932618 0.23455365002155304 -0.971938908100128174 -0.00560067687183618546 -0.0169688966125249863
-32.1481399536132812 -60.8935966491699219 7.75361108779907227 30 1644824586.55022669 0.293905466794967651 -0.955634832382202148 -0.00494239665567874908 -0.0188994612544775009
-42.0966758728027344 -63.5263824462890625 7.10545206069946289 31 1644824588.3492353 0.059797186404466629 -0.997821807861328125 -0.00725309504196047783 -0.0268952492624521255
-52.416107177734375 -64.4873123168945312 6.47483682632446289 32 1644824589.85029864 0.0360267087817192078 -0.999019443988800049 0.00823036208748817444 -0.0243831593543291092
-63.01513671875 -65.531646728515625 5.96814346313476562 33 1644824591.24997544 0.0460751131176948547 -0.998912990093231201 0.00608407985419034958 -0.00359567906707525253
-73.0195999145507812 -66.6343917846679688 5.74503898620605469 34 1644824592.54840016 0.0495840162038803101 -0.998585641384124756 -0.0152436643838882446 -0.0116532770916819572
-83.0231399536132812 -67.5741424560546875 5.47124624252319336 35 1644824593.84898067 0.0432453639805316925 -0.999003946781158447 -0.00860922597348690033 -0.00684767914935946465
-93.0519332885742188 -68.3855133056640625 5.26589202880859375 36 1644824595.15159225 0.0411425158381462097 -0.999141156673431396 0.00463744672015309334 -0.00166378181893378496
-103.079139709472656 -68.8726425170898438 5.10795164108276367 37 1644824596.44787645 -0.0107749775052070618 -0.999940037727355957 -0.00181415874976664782 0.000688547617755830288
-113.326797485351562 -66.5819091796875 5.36254692077636719 38 1644824597.849401 -0.179445087909698486 -0.983184814453125 0.00615639938041567802 0.0333046391606330872
-122.076416015625 -61.7417640686035156 6.06116962432861328 39 1644824599.24965644 -0.292395412921905518 -0.954892516136169434 -0.00909143500030040741 0.0510155819356441498
-129.580886840820312 -54.3391609191894531 6.81257438659667969 40 1644824600.8492918 -0.439769327640533447 -0.897614419460296631 -0.00160347134806215763 0.0298104770481586456
-134.715911865234375 -45.3708877563476562 7.07675027847290039 41 1644824602.64935613 -0.581972837448120117 -0.8130912184715271 -0.00851850584149360657 0.0108507620170712471
-138.392120361328125 -35.6842384338378906 7.3842921257019043 42 1644824604.64816451 -0.442911684513092041 -0.896085083484649658 -0.00101922499015927315 0.0293204039335250854
-148.040939331054688 -33.49884033203125 7.38412952423095703 43 1644824606.74667335 0.153352320194244385 -0.987489879131317139 0.0300909783691167831 -0.0210067406296730042
-150.149627685546875 -35.2295570373535156 7.29788064956665039 44 1644824607.34897327 0.354655742645263672 -0.934222638607025146 0.0253602825105190277 -0.0283581744879484177
-151.39276123046875 -37.7193450927734375 7.19404125213623047 45 1644824607.94818473 0.539887309074401855 -0.840590476989746094 0.0266100820153951645 -0.0349471159279346466
-154.60382080078125 -47.2358283996582031 6.85480499267578125 46 1644824609.94696641 0.497201740741729736 -0.867254137992858887 0.00656158942729234695 -0.0248527601361274719
-157.791213989257812 -55.2983970642089844 6.30916404724121094 47 1644824611.84741735 0.688466846942901611 -0.723811745643615723 -0.0143935335800051689 -0.0436210371553897858
-156.785430908203125 -58.4938278198242188 5.98159408569335938 48 1644824612.64881396 0.823748111724853516 -0.563936889171600342 -0.0352966263890266418 -0.046565663069486618
-154.532180786132812 -61.1755638122558594 5.7054295539855957 49 1644824613.44620943 0.917193233966827393 -0.39539673924446106 -0.0221590287983417511 -0.0438975505530834198
-151.2987060546875 -62.968231201171875 5.52837371826171875 50 1644824614.24770713 0.973657727241516113 -0.225200742483139038 -0.00816058926284313202 -0.0347665958106517792
-147.65484619140625 -63.5885543823242188 5.46100425720214844 51 1644824614.94863224 0.998344302177429199 -0.0527530200779438019 0.000411490706028416753 -0.0229270327836275101
-137.393768310546875 -64.1656951904296875 4.97048377990722656 52 1644824616.84886384 0.986311972141265869 -0.160921260714530945 -0.0340709052979946136 0.0115008503198623657
-128.805313110351562 -69.739105224609375 4.25680637359619141 53 1644824618.6472621 0.935480654239654541 -0.352534770965576172 -0.0243697874248027802 -0.00114875601138919592
-121.770050048828125 -77.0366592407226562 3.72868776321411133 54 1644824620.34915686 0.928463280200958252 -0.37096703052520752 -0.0164197497069835663 -0.00835190340876579285
-113.223381042480469 -82.703369140625 3.27870464324951172 55 1644824622.15195084 0.980656445026397705 -0.194232970476150513 -0.0122525738552212715 -0.0208884943276643753
-104.377784729003906 -87.1268692016601562 2.87440276145935059 56 1644824624.24885941 0.927285254001617432 -0.373265057802200317 -0.0277727190405130386 0.00662819528952240944
-102.49755859375 -90.5156784057617188 2.69829583168029785 57 1644824625.14682698 0.844053566455841064 -0.535597741603851318 -0.0261921845376491547 0.00475463783368468285
-101.666130065917969 -95.0449600219726562 2.51795625686645508 58 1644824626.04836512 0.728631854057312012 -0.684234619140625 -0.0272817090153694153 0.0132017321884632111
-102.651748657226562 -100.157272338867188 2.39188790321350098 59 1644824627.04826975 0.592292189598083496 -0.80518496036529541 -0.0280146151781082153 0.00907522905617952347
-104.636474609375 -103.052383422851562 2.33653020858764648 60 1644824627.74989963 0.429315328598022461 -0.902841269969940186 -0.0213095173239707947 0.0105789359658956528
-107.096572875976562 -104.739463806152344 2.25942611694335938 61 1644824628.35108066 0.260060995817184448 -0.964983105659484863 -0.033704955130815506 -0.00631180498749017715
-114.175849914550781 -104.258110046386719 2.29182744026184082 62 1644824629.95066571 -0.186643928289413452 -0.981832921504974365 -0.0321290083229541779 0.0116581134498119354
-123.00390625 -98.7553863525390625 2.60082101821899414 63 1644824631.95420623 -0.302511215209960938 -0.952465653419494629 -0.0279577057808637619 0.0226824991405010223
-131.0677490234375 -91.9502334594726562 3.11350417137145996 64 1644824633.85146213 -0.376681536436080933 -0.925650179386138916 -0.0226654745638370514 0.0277325231581926346
-138.026580810546875 -84.2271270751953125 3.66341423988342285 65 1644824635.65290523 -0.41302981972694397 -0.910106122493743896 -0.016189228743314743 0.0291736889630556107
-145.221084594726562 -76.64288330078125 4.28719615936279297 66 1644824637.45061326 -0.38530692458152771 -0.921735107898712158 -0.0288667362183332443 0.0333118252456188202
-153.030502319335938 -67.7879791259765625 5.22534418106079102 67 1644824639.5494864 -0.444821745157241821 -0.893969535827636719 -0.0503147393465042114 0.0205048602074384689
-159.348342895507812 -61.6644325256347656 5.75456714630126953 68 1644824641.44549131 -0.218820333480834961 -0.974715948104858398 -0.0331129729747772217 0.0308220274746417999
-162.100128173828125 -61.5307426452636719 5.82699251174926758 69 1644824642.04652262 -0.00530431512743234634 -0.99845653772354126 -0.0499132461845874786 0.0237711500376462936
-164.44647216796875 -62.2570915222167969 5.78229141235351562 70 1644824642.54828668 0.180499687790870667 -0.983480513095855713 -0.0128460768610239029 -0.00456871418282389641
-171.210494995117188 -68.8730010986328125 5.28861284255981445 71 1644824644.34764981 0.455855041742324829 -0.889852344989776611 -0.00636399397626519203 -0.0178473182022571564
-170.028518676757812 -78.983856201171875 4.51565837860107422 72 1644824646.35104465 0.89674067497253418 -0.441668123006820679 -0.0208098180592060089 -0.0187708679586648941
-162.470550537109375 -85.6508712768554688 3.85164070129394531 73 1644824647.84803629 0.929798543453216553 -0.366973221302032471 -0.0283422227948904037 0.00143578508868813515
-155.292388916015625 -92.73431396484375 3.15980720520019531 74 1644824649.14766717 0.921700060367584229 -0.386741846799850464 -0.0299887266010046005 -0.00065486470703035593
-147.953659057617188 -100.243232727050781 2.47562217712402344 75 1644824650.44453692 0.924503922462463379 -0.380794525146484375 -0.0119505254551768303 0.0120484670624136925
-140.491058349609375 -106.98187255859375 1.85704076290130615 76 1644824651.6484251 0.941315829753875732 -0.336301058530807495 -0.0286366436630487442 -0.0024546794593334198
-132.35650634765625 -112.9051513671875 1.31583547592163086 77 1644824652.84420562 0.958362817764282227 -0.285030335187911987 -0.0172578915953636169 0.000793166167568415403
-123.327865600585938 -117.336051940917969 0.988350272178649902 78 1644824654.04733753 0.981484472751617432 -0.19125993549823761 -0.0103622134774923325 0.000741240743082016706
-113.023811340332031 -120.104682922363281 0.810767054557800293 79 1644824655.34437943 0.995744585990905762 -0.0918345451354980469 -0.00370606780052185059 0.00673477211967110634
-102.705924987792969 -121.171119689941406 0.898718297481536865 80 1644824656.64432573 0.999256730079650879 -0.0332860015332698822 0.0158285722136497498 0.0112884724512696266
-92.5997848510742188 -121.090560913085938 1.21164417266845703 81 1644824657.94364357 0.998975038528442383 0.0335028842091560364 0.0283139403909444809 0.0111668184399604797
-82.1481094360351562 -120.290870666503906 1.80890977382659912 82 1644824659.34434891 0.998668551445007324 0.0340825840830802917 0.0386540070176124573 0.00232048542238771915
-71.8659744262695312 -119.467178344726562 2.4264678955078125 83 1644824660.74401975 0.997640788555145264 0.0471287928521633148 0.0498409122228622437 -0.0027594009879976511
-61.8540153503417969 -118.440422058105469 3.23494338989257812 84 1644824662.14298797 0.997506618499755859 0.0498692877590656281 0.048834681510925293 0.0104291057214140892
-51.5179176330566406 -117.420578002929688 4.11817550659179688 85 1644824663.64434385 0.997359991073608398 0.0480893924832344055 0.053134579211473465 0.0117118321359157562
-41.1535835266113281 -116.254714965820312 5.03744316101074219 86 1644824665.24569798 0.996983051300048828 0.0531381666660308838 0.0550898611545562744 0.0128928190097212791
-31.2096462249755859 -115.148460388183594 6.0421910285949707 87 1644824666.84455943 0.996646285057067871 0.0519099719822406769 0.0620077401399612427 0.0125126969069242477
-21.0994148254394531 -114.047462463378906 7.10788202285766602 88 1644824668.54747224 0.996621549129486084 0.0468636639416217804 0.0658866241574287415 0.014430616982281208
-10.9558925628662109 -113.168045043945312 8.20842170715332031 89 1644824670.34579301 0.997424542903900146 0.0411381013691425323 0.0581255108118057251 0.00856190640479326248
-4.60763454437255859 -112.216712951660156 8.89284133911132812 90 1644824672.44892883 0.994905710220336914 0.0832339003682136536 0.055826086550951004 0.0108713796362280846
-4.09526300430297852 -112.157989501953125 8.94672203063964844 91 1644824674.54629755 0.994580268859863281 0.0857359021902084351 0.0584297105669975281 0.00673483265563845634
-3.92312836647033691 -112.113700866699219 8.98024082183837891 92 1644824677.24998212 0.994242966175079346 0.0837675854563713074 0.0661580860614776611 0.00933065358549356461
-1.37226653099060059 -111.765151977539062 9.24041271209716797 93 1644824679.34931111 0.99636155366897583 0.0611190833151340485 0.0583583638072013855 0.0110636893659830093
2.08235287666320801 -110.69110107421875 9.62627696990966797 94 1644824681.44986939 0.978839516639709473 0.189131051301956177 0.0746752545237541199 0.0229401886463165283
3.60352635383605957 -109.217544555664062 9.79005622863769531 95 1644824682.34897017 0.923761367797851562 0.378382831811904907 0.0575427263975143433 0.0134235760197043419
4.21624517440795898 -107.53509521484375 9.85167312622070312 96 1644824682.94673109 0.838053524494171143 0.542483210563659668 0.0547098033130168915 0.0196246057748794556
4.28414011001586914 -105.387252807617188 9.82009315490722656 97 1644824683.54812908 0.731466352939605713 0.680038034915924072 0.0361453257501125336 0.0346224531531333923
1.6165388822555542 -96.4932632446289062 9.10606765747070312 98 1644824685.55221748 0.482736110687255859 0.875671088695526123 0.0117690758779644966 0.00523951370269060135
-2.37760734558105469 -86.2589340209960938 8.82022380828857422 99 1644824687.64723039 0.637694478034973145 0.769639074802398682 0.0267791450023651123 0.016860470175743103
-2.89665007591247559 -75.55670166015625 8.75428581237792969 100 1644824689.64743495 0.73047250509262085 0.682189643383026123 0.0232671871781349182 0.0220417659729719162
-1.27291643619537354 -70.5035858154296875 8.80084419250488281 101 1644824690.9494648 0.84586799144744873 0.531902730464935303 0.0297578796744346619 0.0264811255037784576
1.17751836776733398 -67.7546157836914062 8.95571422576904297 102 1644824691.94931412 0.924836337566375732 0.377511560916900635 0.0447098389267921448 0.0128008080646395683
4.50898599624633789 -65.9051589965820312 9.15537929534912109 103 1644824692.84732103 0.976573646068572998 0.210618093609809875 0.0416296496987342834 0.0145241105929017067
14.7704944610595703 -65.2320327758789062 9.64315605163574219 104 1644824694.84903026 0.996220707893371582 -0.0804992690682411194 0.0321805700659751892 0.00535032106563448906
19.7030067443847656 -67.7833404541015625 9.79335117340087891 105 1644824695.84696841 0.949915885925292969 -0.312300503253936768 0.0106318490579724312 -0.0038879856001585722
24.2988224029541016 -78.55816650390625 10.0731201171875 106 1644824697.94806623 0.75349128246307373 -0.656826794147491455 0.0269157662987709045 -0.0102456938475370407
23.5018825531005859 -89.3988876342773438 10.0431175231933594 107 1644824699.95013714 0.544323980808258057 -0.838759124279022217 0.00496353954076766968 -0.0130315963178873062
15.0514631271362305 -93.7545700073242188 9.6546478271484375 108 1644824702.04360557 0.0605766214430332184 -0.998096883296966553 0.00661670556291937828 -0.00944921467453241348
11.3172473907470703 -95.2370071411132812 9.48159027099609375 109 1644824702.845999 0.242934450507164001 -0.969584941864013672 0.0227274242788553238 -0.019269382581114769
9.08419609069824219 -97.60186767578125 9.44767570495605469 110 1644824703.45287824 0.414420396089553833 -0.909822583198547363 0.0185282174497842789 0.0116307120770215988
7.61459827423095703 -100.496818542480469 9.63463687896728516 111 1644824704.04839492 0.565517127513885498 -0.822557568550109863 0.0571969598531723022 0.0178302992135286331
7.26550626754760742 -103.583595275878906 9.92829799652099609 112 1644824704.65059757 0.701206445693969727 -0.708707690238952637 0.0775872617959976196 0.00480741774663329124
9.27631187438964844 -112.095619201660156 10.5237808227539062 113 1644824706.74564481 0.778096973896026611 -0.624714910984039307 0.0611137263476848602 -0.0236963964998722076
10.5352058410644531 -122.471534729003906 10.7006568908691406 114 1644824708.74807572 0.740420997142791748 -0.669605553150177002 0.0514229163527488708 -0.027583220973610878
11.540369987487793 -133.035476684570312 10.7845878601074219 115 1644824710.445436 0.742826342582702637 -0.668149411678314209 0.0246985889971256256 -0.0342827588319778442
12.5691595077514648 -143.720901489257812 10.5694398880004883 116 1644824711.94743061 0.734800219535827637 -0.677238106727600098 0.0265538450330495834 -0.0266848821192979813
13.4821224212646484 -153.86737060546875 10.4681615829467773 117 1644824713.24894691 0.737255871295928955 -0.674631834030151367 0.0303425248712301254 -0.0201242603361606598
14.1384363174438477 -164.133895874023438 10.3729896545410156 118 1644824714.54539275 0.725619912147521973 -0.687072873115539551 0.0314815826714038849 -0.0203836485743522644
14.712803840637207 -174.677093505859375 10.3173360824584961 119 1644824715.94958687 0.729789078235626221 -0.682488203048706055 0.0360671281814575195 -0.0178024321794509888
15.5124778747558594 -185.237457275390625 10.5381736755371094 120 1644824717.34810209 0.741862058639526367 -0.668729662895202637 0.0477189682424068451 -0.0128141557797789574
17.2988433837890625 -195.7752685546875 10.8248920440673828 121 1644824718.74550295 0.77127230167388916 -0.635058164596557617 0.0398106910288333893 -0.0159776974469423294
19.3320293426513672 -205.61614990234375 11.109161376953125 122 1644824720.04751444 0.785368144512176514 -0.616679191589355469 0.0506079308688640594 -0.0185062829405069351
22.3843421936035156 -215.654937744140625 11.6319055557250977 123 1644824721.44690681 0.825095713138580322 -0.56202995777130127 0.0533047951757907867 -0.0223157778382301331
26.7563686370849609 -224.828948974609375 12.2119474411010742 124 1644824722.94962525 0.844775080680847168 -0.533286452293395996 0.0436231046915054321 -0.00758986920118331909
31.0630607604980469 -234.294601440429688 12.7824134826660156 125 1644824724.64724588 0.835233330726623535 -0.548102617263793945 0.0438721179962158203 -0.0066405036486685276
31.5633621215820312 -243.8525390625 13.1322793960571289 126 1644824726.54597616 0.593755781650543213 -0.803443729877471924 0.039636559784412384 -0.0190048813819885254
28.3793849945068359 -248.995254516601562 13.0789833068847656 127 1644824727.65099478 0.435663282871246338 -0.899724900722503662 0.0251976978033781052 -0.00759479450061917305
21.8763084411621094 -256.64013671875 12.998143196105957 128 1644824729.24691129 0.447435110807418823 -0.894006311893463135 0.0213770065456628799 0.00987973529845476151
16.5691967010498047 -265.430816650390625 13.1121664047241211 129 1644824730.74439883 0.523622274398803711 -0.85143125057220459 0.0296576190739870071 0.00222743349149823189
12.570857048034668 -274.87921142578125 13.3528852462768555 130 1644824732.14676166 0.572558343410491943 -0.819184660911560059 0.0310613978654146194 0.0121913561597466469
9.99986934661865234 -285.180511474609375 13.7331857681274414 131 1644824733.54719257 0.64683830738067627 -0.76178288459777832 0.0333426818251609802 0.0132389077916741371
9.55392646789550781 -295.83392333984375 14.2746086120605469 132 1644824734.94766259 0.71966087818145752 -0.693113744258880615 0.0349784865975379944 0.0214016512036323547
11.1174907684326172 -305.82879638671875 14.8745708465576172 133 1644824736.34615302 0.783638119697570801 -0.620130658149719238 0.0315660983324050903 0.0187837835401296616
14.504084587097168 -315.6214599609375 15.5115451812744141 134 1644824737.94673824 0.826060593128204346 -0.562111198902130127 0.032300703227519989 0.0247294604778289795
18.1786518096923828 -323.92425537109375 16.2166404724121094 135 1644824739.95048285 0.837792932987213135 -0.540874838829040527 0.0566678047180175781 0.0484367012977600098
20.4765357971191406 -329.468231201171875 16.5764884948730469 136 1644824742.04707766 0.830449521541595459 -0.554783344268798828 0.0351286344230175018 0.0365375056862831116
23.3150253295898438 -337.71331787109375 17.1035900115966797 137 1644824744.14609194 0.809452950954437256 -0.585480749607086182 0.044634208083152771 -0.00245422404259443283
26.7530269622802734 -347.334869384765625 17.158233642578125 138 1644824746.04616928 0.818429410457611084 -0.574048459529876709 0.0156705323606729507 -0.0199023578315973282
29.8466777801513672 -357.285369873046875 17.1210899353027344 139 1644824747.84699416 0.798761606216430664 -0.601025640964508057 0.0181587096303701401 -0.0204531252384185791
32.2041587829589844 -367.07073974609375 17.0357666015625 140 1644824749.64783072 0.756434142589569092 -0.653188884258270264 0.0102300886064767838 -0.0323582515120506287
32.2410774230957031 -376.61358642578125 16.7497692108154297 141 1644824751.64784884 0.674252033233642578 -0.737391650676727295 0.0143150482326745987 -0.0378529727458953857
30.0268840789794922 -383.4698486328125 16.374114990234375 142 1644824753.54868984 0.532798707485198975 -0.844341039657592773 0.0165457427501678467 -0.0542218200862407684
27.4274845123291016 -386.278045654296875 15.9657669067382812 143 1644824754.54802585 0.358390092849731445 -0.931663274765014648 0.00399753963574767113 -0.0595321618020534515
24.7047939300537109 -387.371185302734375 15.6657724380493164 144 1644824755.35125232 0.181352823972702026 -0.982092738151550293 0.013874453492462635 -0.0491174645721912384
22.2054271697998047 -387.303558349609375 15.3886022567749023 145 1644824756.04925609 -0.00481062987819314003 -0.997798502445220947 0.025854622945189476 -0.0608814656734466553
19.3646469116210938 -386.263519287109375 15.0752315521240234 146 1644824756.94856191 -0.179834380745887756 -0.982513308525085449 0.0383996330201625824 -0.0292007401585578918
10.0813760757446289 -384.055328369140625 13.8836154937744141 147 1644824759.04717159 -0.135797590017318726 -0.989155113697052002 0.0298087950795888901 -0.047355998307466507
0.00015604679356329143 -381.31439208984375 12.5902767181396484 148 1644824760.849962 -0.142436355352401733 -0.988390564918518066 0.0322310104966163635 -0.0419186465442180634
-9.9027252197265625 -377.910064697265625 11.626622200012207 149 1644824762.65084481 -0.164130762219429016 -0.986069798469543457 0.0233240984380245209 -0.0135417981073260307
-19.3343048095703125 -374.4332275390625 10.8046302795410156 150 1644824764.55220771 -0.19064214825630188 -0.980404019355773926 0.0274755321443080902 -0.0413358546793460846
-28.4696922302246094 -370.057647705078125 9.64162158966064453 151 1644824766.54796624 -0.257048249244689941 -0.962741553783416748 0.0337717980146408081 -0.0769050642848014832
-37.2082061767578125 -364.553863525390625 8.53463840484619141 152 1644824768.55029678 -0.285926192998886108 -0.957089126110076904 0.0273682735860347748 -0.0384394265711307526
-45.9267196655273438 -358.725799560546875 7.51216220855712891 153 1644824770.35189867 -0.292518377304077148 -0.955214798450469971 0.029756695032119751 -0.0333503670990467072
-54.3974685668945312 -353.26300048828125 6.52597999572753906 154 1644824772.05113602 -0.295779317617416382 -0.954120755195617676 0.0286913588643074036 -0.0366745628416538239
-63.1418113708496094 -347.775360107421875 5.56328248977661133 155 1644824774.05050182 -0.252311646938323975 -0.966503381729125977 0.0333468504250049591 -0.0331362932920455933
-71.8871536254882812 -343.95367431640625 4.80964756011962891 156 1644824776.05312204 -0.199440032243728638 -0.979180335998535156 0.0318676456809043884 -0.0203482471406459808
-81.3925323486328125 -340.241424560546875 4.00918149948120117 157 1644824777.74800897 -0.192788392305374146 -0.980578303337097168 0.0282697435468435287 -0.0223527029156684875
-91.1364822387695312 -336.359710693359375 3.17894077301025391 158 1644824779.34900546 -0.188778847455978394 -0.981241524219512939 0.0265532936900854111 -0.0286809355020523071
-100.851776123046875 -332.635284423828125 2.4275202751159668 159 1644824781.04612136 -0.188523218035697937 -0.981516897678375244 0.0201994087547063828 -0.0259916298091411591
-109.815391540527344 -327.9698486328125 1.68100988864898682 160 1644824782.84580898 -0.290565758943557739 -0.956290304660797119 0.018487563356757164 -0.0271762162446975708
-118.030433654785156 -322.149261474609375 0.906672835350036621 161 1644824784.64597368 -0.317059308290481567 -0.947847962379455566 0.0121857384219765663 -0.0301524419337511063
-126.032913208007812 -315.964996337890625 0.268526434898376465 162 1644824786.44638443 -0.325730323791503906 -0.94524991512298584 0.0145637588575482368 -0.0137916561216115952
-134.5137939453125 -309.620025634765625 -0.380428850650787354 163 1644824788.04552269 -0.31122666597366333 -0.950275778770446777 0.0106285437941551208 -0.000972913985606282949
-142.688873291015625 -303.51312255859375 -0.763264834880828857 164 1644824789.4466362 -0.31706535816192627 -0.948373496532440186 0.00716996984556317329 -0.0024282380472868681
-151.179489135742188 -297.115814208984375 -1.09756803512573242 165 1644824790.84601498 -0.320346981287002563 -0.947284698486328125 0.00496586831286549568 -0.00221260800026357174
-159.145339965820312 -291.0582275390625 -1.39925003051757812 166 1644824792.1476264 -0.330268442630767822 -0.943872928619384766 0.00476883910596370697 -0.00196218769997358322
-167.072265625 -284.93072509765625 -1.65936064720153809 167 1644824793.44697309 -0.326255947351455688 -0.94523996114730835 0.00690924609079957008 -0.00554391834884881973
-175.033401489257812 -278.780548095703125 -1.91094934940338135 168 1644824794.74526024 -0.320889323949813843 -0.947102904319763184 0.00503497058525681496 0.000889533897861838341
-183.069015502929688 -272.65118408203125 -2.12408566474914551 169 1644824796.04858232 -0.322961658239364624 -0.946360766887664795 0.00755238998681306839 0.0063256947323679924
-191.107162475585938 -266.600616455078125 -2.31852626800537109 170 1644824797.34774113 -0.317713022232055664 -0.948182463645935059 0.000148535807966254652 -0.00289654871448874474
-199.599533081054688 -259.99615478515625 -2.49592757225036621 171 1644824798.74733162 -0.330104798078536987 -0.94392627477645874 0.00578527152538299561 -0.000719505129382014275
-207.761703491210938 -253.557632446289062 -2.62454700469970703 172 1644824800.14790082 -0.342552512884140015 -0.939496040344238281 -0.00158227747306227684 -0.00155372207518666983
-214.606491088867188 -245.959564208984375 -2.75866913795471191 173 1644824801.64761734 -0.448856532573699951 -0.893601536750793457 -0.00201656436547636986 -0.000154093198943883181
-220.026626586914062 -236.915817260742188 -2.9374845027923584 174 1644824803.14868331 -0.520894646644592285 -0.853609561920166016 -0.00147344882134348154 0.00415947521105408669
-223.505584716796875 -227.358428955078125 -3.10698986053466797 175 1644824804.5488019 -0.609873831272125244 -0.792464256286621094 -0.00130071653984487057 0.0072527863085269928
-225.26611328125 -217.466537475585938 -3.17581439018249512 176 1644824805.94957566 -0.665821373462677002 -0.745988667011260986 -0.0044332318939268589 0.0127708520740270615
-226.42266845703125 -207.2491455078125 -3.12823772430419922 177 1644824807.44963431 -0.665376901626586914 -0.746434330940246582 0.00415807869285345078 0.00959397479891777039
-227.6453857421875 -196.788284301757812 -2.90531277656555176 178 1644824809.14901662 -0.665537357330322266 -0.746078133583068848 -0.010698528029024601 0.0176922548562288284
-228.807861328125 -187.151519775390625 -2.59755635261535645 179 1644824811.15001225 -0.666396498680114746 -0.744849681854248047 -0.00829561147838830948 0.0323394462466239929
-229.505203247070312 -180.43157958984375 -2.29762768745422363 180 1644824813.15067673 -0.677629411220550537 -0.734691202640533447 -0.0183618143200874329 0.0266468357294797897
-229.889862060546875 -174.871490478515625 -1.99580347537994385 181 1644824815.25103021 -0.682692170143127441 -0.729469537734985352 -0.0155430920422077179 0.0395473875105381012
-231.03515625 -168.183242797851562 -1.55404102802276611 182 1644824817.35154557 -0.650378584861755371 -0.757858753204345703 -0.032057344913482666 0.0403744503855705261
-232.265151977539062 -159.834030151367188 -0.958719611167907715 183 1644824819.45115113 -0.65813899040222168 -0.750870227813720703 -0.0381337478756904602 0.039910048246383667
-233.025543212890625 -151.136688232421875 -0.307406127452850342 184 1644824821.45473313 -0.670105397701263428 -0.739601314067840576 -0.0284831412136554718 0.0560115762054920197
-234.311904907226562 -141.64520263671875 0.328530490398406982 185 1644824823.54976559 -0.664010941982269287 -0.747439205646514893 -0.0103164436295628548 0.0178225114941596985
-235.34600830078125 -132.583709716796875 1.08946561813354492 186 1644824825.55034208 -0.663721799850463867 -0.746211528778076172 -0.0336969010531902313 0.03881048783659935
-236.099029541015625 -122.726272583007812 1.8399733304977417 187 1644824827.64984965 -0.70883101224899292 -0.703649222850799561 -0.034279264509677887 0.0355149246752262115
-235.1578369140625 -113.106636047363281 2.56522512435913086 188 1644824829.65079212 -0.771137654781341553 -0.634400486946105957 -0.0396176688373088837 0.0362373962998390198
-232.2899169921875 -103.4259033203125 3.43986988067626953 189 1644824831.75076652 -0.822135984897613525 -0.566048562526702881 -0.0464975908398628235 0.0389801934361457825
-227.959457397460938 -94.9002151489257812 4.24691057205200195 190 1644824833.84890485 -0.866836607456207275 -0.495779514312744141 -0.0427979566156864166 0.0310698933899402618
-222.84722900390625 -87.789703369140625 4.92264127731323242 191 1644824835.85129881 -0.903364479541778564 -0.425158232450485229 -0.0463153347373008728 0.0320623666048049927
-216.425491333007812 -80.9664306640625 5.50815057754516602 192 1644824837.94593143 -0.923939824104309082 -0.379778772592544556 -0.0360261388123035431 0.0283797271549701691
-210.201568603515625 -74.4474029541015625 6.10542917251586914 193 1644824839.94663978 -0.916140496730804443 -0.397567480802536011 -0.0413869842886924744 0.0302293021231889725
-203.473922729492188 -67.72412109375 6.73237991333007812 194 1644824842.04556489 -0.933881103992462158 -0.353896886110305786 -0.0431149788200855255 0.0276443958282470703
-198.9622802734375 -63.55133056640625 7.14437007904052734 195 1644824844.04564142 -0.874913036823272705 -0.483585208654403687 -0.0233337506651878357 -0.0113160721957683563
-195.293777465820312 -60.4022674560546875 7.41034030914306641 196 1644824845.84738874 -0.986330032348632812 -0.157316714525222778 -0.0412946790456771851 0.0264440830796957016
-193.873703002929688 -60.6518707275390625 7.40967798233032227 197 1644824846.24811196 -0.99928206205368042 0.0274346433579921722 -0.0190689694136381149 0.0178632009774446487
-192.583816528320312 -61.4312286376953125 7.38536596298217773 198 1644824846.64843655 -0.974968433380126953 0.221337035298347473 -0.012292603962123394 0.0171862859278917313
-187.977691650390625 -68.5347442626953125 6.9812312126159668 199 1644824848.74672055 -0.889970660209655762 0.45566171407699585 0.0110398139804601669 0.0142371738329529762
-183.504013061523438 -72.82049560546875 6.7322535514831543 200 1644824850.74713778 -0.928339600563049316 0.371666491031646729 -0.000526921707205474377 -0.00702053308486938477
-175.722763061523438 -76.999969482421875 6.06122875213623047 201 1644824852.6487 -0.986948370933532715 0.159364894032478333 0.0228291824460029602 0.00381294288672506809
-164.19793701171875 -84.3236007690429688 4.93844079971313477 202 1644824854.748523 -0.922118186950683594 0.385736197233200073 0.0272252485156059265 -0.0128209888935089111
-152.90997314453125 -95.4507522583007812 3.67590904235839844 203 1644824856.7494173 -0.919412136077880859 0.392527788877487183 0.0243594441562891006 -0.00313966954126954079
-140.20953369140625 -107.4078369140625 2.42023587226867676 204 1644824858.85005546 -0.937620222568511963 0.346830427646636963 0.0233612917363643646 -0.00559120764955878258
-125.25115966796875 -116.456207275390625 1.4275357723236084 205 1644824860.95063567 -0.98211747407913208 0.187908440828323364 0.00537382951006293297 -0.0103364540264010429
-108.750640869140625 -120.834465026855469 1.06581485271453857 206 1644824863.04713464 -0.997549295425415039 0.0677683129906654358 -0.0130417067557573318 -0.0115209268406033516
-92.441497802734375 -121.306571960449219 1.32273411750793457 207 1644824865.14746642 -0.999328315258026123 -0.0056112268939614296 -0.0311464332044124603 -0.0184739138931035995
-79.58587646484375 -123.839950561523438 1.87492942810058594 208 1644824867.14869571 -0.967679381370544434 0.250713080167770386 -0.0262711253017187119 0.00702681113034486771
-73.5042953491210938 -129.438796997070312 2.03914093971252441 209 1644824868.44622231 -0.908892631530761719 0.415234684944152832 -0.0284894891083240509 0.0261283423751592636
-68.0564804077148438 -138.574951171875 1.78298449516296387 210 1644824869.94381309 -0.840226650238037109 0.541794419288635254 -0.0108010079711675644 0.0190094839781522751
-65.5268707275390625 -148.35699462890625 1.51725089550018311 211 1644824871.24479818 -0.758441805839538574 0.651586413383483887 -0.00704112695530056953 0.0123150516301393509
-65.7944793701171875 -158.701370239257812 1.23489654064178467 212 1644824872.54604268 -0.642032325267791748 0.766581416130065918 -0.00678825424984097481 0.0100657353177666664
-69.01446533203125 -166.913681030273438 0.977936327457427979 213 1644824873.64923787 -0.489628016948699951 0.87188112735748291 -0.00397422956302762032 0.0084769492968916893
-76.361785888671875 -174.388153076171875 0.548285245895385742 214 1644824874.94782615 -0.32866629958152771 0.944276630878448486 -0.0110732540488243103 0.0140526322647929192
-84.8635482788085938 -178.8753662109375 0.102844536304473877 215 1644824876.14604807 -0.151253476738929749 0.988277137279510498 0.000440585165051743388 0.0207473132759332657
-94.98297119140625 -180.013336181640625 -0.413166344165802002 216 1644824877.4474504 -0.00111875205766409636 0.999558031558990479 -0.0140882134437561035 0.0261546913534402847
-105.291481018066406 -178.578094482421875 -1.31717145442962646 217 1644824878.84686613 0.119037948548793793 0.992537617683410645 -0.0130468225106596947 0.0229959860444068909
-114.974952697753906 -175.680313110351562 -1.66408300399780273 218 1644824880.44779778 0.151134848594665527 0.988182246685028076 -0.0170035343617200851 0.0191058162599802017
-124.164382934570312 -170.954910278320312 -1.69778788089752197 219 1644824882.44631004 0.320946842432022095 0.946873247623443604 -0.0126339439302682877 -0.0162645746022462845
-127.749946594238281 -166.6451416015625 -1.80353844165802002 220 1644824883.44908118 0.491897374391555786 0.87064063549041748 -0.00436374358832836151 0.00169326283503323793
-128.98724365234375 -162.3162841796875 -1.8707582950592041 221 1644824884.34805059 0.650445222854614258 0.759465694427490234 0.00780199654400348663 0.00848824810236692429
-128.599014282226562 -159.380691528320312 -1.94737374782562256 222 1644824885.04753494 0.784576117992401123 0.618909716606140137 0.0122357429936528206 0.035233035683631897
-127.37384033203125 -157.729507446289062 -1.90607523918151855 223 1644824885.64914632 0.884429097175598145 0.466184228658676147 0.0206012222915887833 0.00574575411155819893
-125.781204223632812 -156.819580078125 -1.87234628200531006 224 1644824886.24823594 0.959062814712524414 0.282430559396743774 0.0199176277965307236 0.005896739661693573
-124.121917724609375 -156.588607788085938 -1.85265958309173584 225 1644824886.74831104 0.994252204895019531 0.104899384081363678 0.0157031752169132233 0.0145611865445971489
-122.303680419921875 -157.03900146484375 -1.82806086540222168 226 1644824887.24762344 0.993685305118560791 -0.10961855947971344 0.0122808441519737244 0.0205554291605949402
-120.661827087402344 -158.342605590820312 -1.79217910766601562 227 1644824887.75060582 0.949091017246246338 -0.314396381378173828 0.0104284044355154037 0.0165056828409433365
-118.90386962890625 -160.984832763671875 -1.75721001625061035 228 1644824888.44747019 0.87857896089553833 -0.477242171764373779 0.0161982681602239609 0.0087469024583697319
-112.735130310058594 -170.876693725585938 -1.60986077785491943 229 1644824890.54734039 0.889294326305389404 -0.456738561391830444 0.0228483695536851883 -0.00483866222202777863
-103.07696533203125 -179.188125610351562 -1.15233850479125977 230 1644824892.55005741 0.971769630908966064 -0.229760155081748962 0.053439948707818985 -0.00426652375608682632
-96.3283920288085938 -180.798980712890625 -0.490866005420684814 231 1644824893.64748311 0.996510505676269531 -0.0564591288566589355 0.0614693537354469299 -0.00084862526273354888
-85.4493865966796875 -179.534591674804688 0.0983744412660598755 232 1644824895.44779062 0.991527557373046875 0.120034985244274139 0.049118679016828537 0.00721345562487840652
-76.570587158203125 -175.251754760742188 0.557779908180236816 233 1644824897.05204296 0.95340263843536377 0.299565315246582031 0.0357030145823955536 0.00305704795755445957
-71.9999542236328125 -170.194000244140625 0.805040538311004639 234 1644824898.1499052 0.879290461540222168 0.475347310304641724 0.0297744367271661758 -0.00259736948646605015
-68.1019363403320312 -158.802749633789062 1.12078094482421875 235 1644824900.05272985 0.780703186988830566 0.623994529247283936 0.0335885696113109589 -0.00227889511734247208
-68.067779541015625 -147.216201782226562 1.4665381908416748 236 1644824901.84831929 0.656409680843353271 0.753662168979644775 0.0307744238525629044 -0.0131380846723914146
-71.77716064453125 -136.096160888671875 1.77198219299316406 237 1644824903.94886947 0.522441625595092773 0.852413713932037354 0.0159516502171754837 -0.0138260358944535255
-73.7808837890625 -134.1258544921875 1.75987780094146729 238 1644824904.64669371 0.361454576253890991 0.932322144508361816 0.00993126910179853439 0.00523105217143893242
-75.8161468505859375 -133.484939575195312 1.74682235717773438 239 1644824905.24965787 0.171112462878227234 0.984966933727264404 0.0228912439197301865 0.00605733785778284073
-79.1907272338867188 -133.329086303710938 1.82257413864135742 240 1644824906.14731264 0.0189082380384206772 0.996622681617736816 -0.00617590686306357384 -0.0796719789505004883
-88.0641250610351562 -132.696853637695312 1.47775864601135254 241 1644824908.15209842 0.0213518310338258743 0.999234795570373535 -0.0272859539836645126 0.0181494224816560745
-94.3754501342773438 -132.798858642578125 1.31236493587493896 242 1644824910.24608135 -0.0451715700328350067 0.998784780502319336 -0.0144580742344260216 0.013396846130490303
-96.069671630859375 -133.593826293945312 1.2825472354888916 243 1644824910.84653711 -0.218245983123779297 0.974886894226074219 -0.0425103232264518738 0.0125328442081809044
-97.33935546875 -135.096405029296875 1.2509610652923584 244 1644824911.44794822 -0.392256289720535278 0.919444143772125244 -0.0122864637523889542 0.0246268622577190399
-100.862335205078125 -141.245880126953125 1.00449872016906738 245 1644824913.55203962 -0.478868365287780762 0.877522289752960205 0.00720220105722546577 0.0242456868290901184
-102.7193603515625 -145.419876098632812 0.889946818351745605 246 1644824915.04903841 -0.628499090671539307 0.777235269546508789 -0.027881210669875145 0.0108116939663887024
-102.502349853515625 -148.642822265625 0.892938315868377686 247 1644824916.05243897 -0.755170166492462158 0.653539001941680908 -0.0501844771206378937 0.0092919887974858284
-98.3682174682617188 -153.759796142578125 0.937234282493591309 248 1644824918.0547142 -0.938551723957061768 0.341210812330245972 -0.0280996561050415039 0.043660871684551239
-95.7121505737304688 -154.793426513671875 1.01203000545501709 249 1644824918.95043564 -0.98529738187789917 0.168759718537330627 -0.0203380528837442398 0.0171932149678468704
-92.8222885131835938 -154.9580078125 1.10583794116973877 250 1644824919.8541317 -0.999034225940704346 -0.0141547862440347672 -0.0238140244036912918 0.0341050326824188232
-90.5088958740234375 -154.056900024414062 1.22819435596466064 251 1644824920.65478468 -0.97561955451965332 -0.206374958157539368 -0.0573909729719161987 0.0477718859910964966
-88.3555526733398438 -152.096755981445312 1.27318024635314941 252 1644824921.55285835 -0.925991535186767578 -0.376317679882049561 -0.022095436230301857 0.020893048495054245
-87.468658447265625 -150.16558837890625 1.36205911636352539 253 1644824922.25156713 -0.843544244766235352 -0.536520123481750488 -0.0165529549121856689 0.0174700729548931122
-87.232940673828125 -147.760757446289062 1.39402878284454346 254 1644824923.05275202 -0.735580801963806152 -0.677156507968902588 -0.0108240507543087006 0.0162110775709152222
-87.8180770874023438 -141.234329223632812 1.46280932426452637 255 1644824925.15173554 -0.711561441421508789 -0.702358663082122803 -0.0192920304834842682 -0.000669175758957862854
-85.1682586669921875 -136.801986694335938 1.52256333827972412 256 1644824927.25120211 -0.92972266674041748 -0.367994308471679688 0.00975584983825683594 -0.0100414454936981201
-80.8663558959960938 -134.407760620117188 1.657889723777771 257 1644824929.25396252 -0.976600050926208496 -0.21184404194355011 0.00110023177694529295 -0.0370576158165931702
-75.9046096801757812 -132.244552612304688 1.79490900039672852 258 1644824931.35105872 -0.962155699729919434 -0.267524898052215576 -0.0357357300817966461 0.0375479944050312042
-74.7477645874023438 -130.562774658203125 1.91868007183074951 259 1644824931.95347023 -0.894365012645721436 -0.444870620965957642 -0.0296323467046022415 0.0363772772252559662
-71.6559295654296875 -122.873359680175781 2.40043115615844727 260 1644824934.05315304 -0.875789821147918701 -0.478900164365768433 -0.0588158741593360901 -0.013692525215446949
-63.1049880981445312 -118.036781311035156 3.1010735034942627 261 1644824936.14919209 -0.991958916187286377 -0.114449389278888702 -0.0514820702373981476 -0.016385544091463089
-52.94818115234375 -116.806900024414062 3.9466855525970459 262 1644824938.15670204 -0.996842265129089355 -0.057147633284330368 -0.053118489682674408 -0.0147659024223685265
-41.8321113586425781 -115.912261962890625 4.96504831314086914 263 1644824940.2524724 -0.997761070728302002 -0.0308662392199039459 -0.0578152090311050415 -0.0133224818855524063
-31.0225009918212891 -115.223640441894531 6.06725883483886719 264 1644824942.25260758 -0.997575044631958008 -0.0220846422016620636 -0.0653821304440498352 -0.00902888458222150803
-20.2285385131835938 -114.385505676269531 7.20534563064575195 265 1644824944.25581121 -0.996952354907989502 -0.0435944646596908569 -0.0640364810824394226 -0.00920976884663105011
-9.50496673583984375 -113.294601440429688 8.36997890472412109 266 1644824946.25743079 -0.99754023551940918 -0.0243525765836238861 -0.0652301087975502014 -0.00808965973556041718
0.854726493358612061 -111.753463745117188 9.4850311279296875 267 1644824948.3521452 -0.977583050727844238 -0.201146796345710754 -0.0620513707399368286 -0.00457817176356911659
4.26574897766113281 -103.0118408203125 9.60734844207763672 268 1644824950.35738182 -0.695778369903564453 -0.715555489063262939 -0.00860712677240371704 -0.0616342760622501373
-0.0848610848188400269 -93.2929840087890625 8.99361038208007812 269 1644824952.36007404 -0.486648082733154297 -0.873071014881134033 -0.0237302370369434357 -0.0189073644578456879
-2.60779547691345215 -82.2703857421875 8.82174873352050781 270 1644824954.45106363 -0.664020061492919922 -0.747055888175964355 -0.029813472181558609 -0.00979974493384361267
-0.78714907169342041 -70.1974334716796875 8.88912105560302734 271 1644824956.54955626 -0.828741550445556641 -0.558782875537872314 -0.0275606904178857803 -0.0137693444266915321
0.974121570587158203 -58.3510971069335938 9.10910320281982422 272 1644824958.55314374 -0.701016366481781006 -0.712710440158843994 -0.024801298975944519 -0.00219784188084304333
-0.411273866891860962 -45.55804443359375 9.29587268829345703 273 1644824960.55765009 -0.672457873821258545 -0.739413738250732422 -0.0323765724897384644 -0.00441426830366253853
-1.32485556602478027 -35.0793380737304688 9.41352176666259766 274 1644824962.25013638 -0.678315043449401855 -0.734303653240203857 -0.0261869542300701141 0.00107835337985306978
-2.2711493968963623 -24.9368228912353516 9.54873275756835938 275 1644824963.95935249 -0.672496676445007324 -0.739294350147247314 -0.0336875021457672119 0.00756384013220667839
-3.16485047340393066 -14.8604602813720703 9.64550876617431641 276 1644824965.75428104 -0.705487608909606934 -0.707853794097900391 -0.0325057022273540497 -0.0131768016144633293
-2.02227139472961426 -10.3544511795043945 9.73614406585693359 277 1644824966.64889765 -0.821720123291015625 -0.569121658802032471 -0.0264806263148784637 -0.0132416049018502235
-0.0781239941716194153 -3.40323543548583984 9.87134265899658203 278 1644824968.64923692 -0.613097608089447021 -0.789962470531463623 0.00836066342890262604 0.000841613218653947115
-0.996934950351715088 -2.44000887870788574 9.82340812683105469 279 1644824969.05158734 -0.458734750747680664 -0.888384461402893066 0.0182091407477855682 -0.00196507293730974197
-2.15839362144470215 -1.91631054878234863 9.77605247497558594 280 1644824969.4496541 -0.291265696287155151 -0.956246614456176758 0.0271698106080293655 -0.00430860649794340134
-3.62076926231384277 -1.91085958480834961 9.71758556365966797 281 1644824969.95062232 -0.0778507590293884277 -0.996285080909729004 0.0324346534907817841 -0.0174136664718389511
-4.637908935546875 -2.41196751594543457 9.64804649353027344 282 1644824970.35065627 0.110155723989009857 -0.992829859256744385 0.0343616791069507599 -0.0312064066529273987
-5.31602859497070312 -3.24894237518310547 9.58169841766357422 283 1644824970.74966025 0.298617005348205566 -0.952564001083374023 0.035576794296503067 -0.0467337518930435181
-5.54041099548339844 -4.17876291275024414 9.590301513671875 284 1644824971.14813352 0.47867351770401001 -0.875648081302642822 0.0503615178167819977 -0.0396961942315101624
-5.39111518859863281 -5.12247753143310547 9.58793735504150391 285 1644824971.55069113 0.625094830989837646 -0.778516769409179688 0.0407426655292510986 -0.0388348065316677094
-4.86875200271606445 -6.44854402542114258 9.60649299621582031 286 1644824972.45078063 0.750978350639343262 -0.659305453300476074 0.024608127772808075 -0.027245277538895607
