# .PCD v0.7 - Point Cloud Data file format
VERSION 0.7
FIELDS x y z intensity t qx qy qz qw
SIZE 4 4 4 4 8 4 4 4 4
TYPE F F F F F F F F F
COUNT 1 1 1 1 1 1 1 1 1
WIDTH 260
HEIGHT 1
VIEWPOINT 0 0 0 1 0 0 0
POINTS 260
DATA ascii
-0.103276506066322327 -0.032347310334444046 0.210882112383842468 0 1644764632.96158814 0.999501407146453857 0.000759575457777827978 0.0302518606185913086 -0.00900926627218723297
0.00429600989446043968 -0.0398131608963012695 0.244421839714050293 1 1644764642.261379 0.998924612998962402 0.00256111449562013149 0.0448254719376564026 -0.0115661639720201492
4.39483261108398438 0.118898451328277588 0.341741979122161865 2 1644764644.26174927 0.999429225921630859 0.0146315610036253929 0.0271406490355730057 -0.0138023775070905685
12.5624017715454102 -0.124632053077220917 0.40197327733039856 3 1644764646.26432061 0.998431742191314697 -0.0499842464923858643 0.0241442210972309113 0.00726195564493536949
22.6137371063232422 -1.46392333507537842 0.480090022087097168 4 1644764648.26466012 0.997321903705596924 -0.0717962607741355896 0.0111104641109704971 0.00841790996491909027
32.4492759704589844 -2.47416996955871582 0.493709444999694824 5 1644764650.36390805 0.997834265232086182 -0.0627454072237014771 0.0189375784248113632 0.00558069488033652306
42.3583526611328125 -4.18732166290283203 0.514904558658599854 6 1644764652.1645546 0.994958460330963135 -0.0999418571591377258 0.0069482065737247467 0.00457959342747926712
52.31829833984375 -6.30966520309448242 0.531347453594207764 7 1644764653.96699286 0.991197645664215088 -0.13107888400554657 0.015274987556040287 0.0105925630778074265
61.8425331115722656 -10.5798397064208984 0.523395836353302002 8 1644764655.96598864 0.96595686674118042 -0.256755352020263672 0.0103470273315906525 -0.0299499109387397766
70.1786346435546875 -16.2257957458496094 0.615679323673248291 9 1644764657.96512437 0.971185147762298584 -0.234469160437583923 0.0304002407938241959 -0.0299913622438907623
80.2300186157226562 -18.8568744659423828 0.729632139205932617 10 1644764659.96635342 0.994514644145965576 -0.100378729403018951 0.0227146223187446594 -0.0186767578125
89.3645477294921875 -18.5754013061523438 0.903836071491241455 11 1644764661.76741838 0.980826437473297119 0.190776899456977844 0.0129697192460298538 -0.0376225560903549194
91.4464111328125 -16.7399063110351562 0.956014037132263184 12 1644764662.36855674 0.933639287948608398 0.35785183310508728 0.00454962160438299179 -0.0154623668640851974
93.5113067626953125 -13.1346721649169922 1.11500632762908936 13 1644764663.36577582 0.851111531257629395 0.524283826351165771 0.0208727885037660599 -0.0173190515488386154
95.8006210327148438 -3.49618196487426758 1.03687620162963867 14 1644764665.36839962 0.772241711616516113 0.634891510009765625 0.000603921420406550169 -0.0235623437911272049
96.8738021850585938 6.83655929565429688 1.13032639026641846 15 1644764667.37082648 0.682164967060089111 0.730777382850646973 -0.000145514262840151787 -0.0248057842254638672
95.4440460205078125 10.9136571884155273 1.14229500293731689 16 1644764668.2656033 0.525810837745666504 0.850221574306488037 -0.0138148916885256767 -0.0213390421122312546
93.153564453125 13.2504339218139648 1.11226069927215576 17 1644764668.96913099 0.358895719051361084 0.933169007301330566 -0.0171609930694103241 -0.00974290911108255386
90.2438125610351562 14.5274925231933594 1.05956590175628662 18 1644764669.66385031 0.185467898845672607 0.982481122016906738 -0.0177051611244678497 -0.00436640670523047447
80.5371627807617188 16.0464839935302734 0.928334236145019531 19 1644764671.66536045 0.0690533444285392761 0.997557640075683594 -0.00876698270440101624 -0.0057862037792801857
74.7682113647460938 15.6875085830688477 0.863704144954681396 20 1644764672.8677547 -0.110864877700805664 0.993296205997467041 -0.032734941691160202 -4.11378714488819242e-05
72.545654296875 14.2971782684326172 0.84889686107635498 21 1644764673.46427703 -0.283234566450119019 0.95853734016418457 -0.031035933643579483 0.00459001772105693817
71.207061767578125 12.3429450988769531 0.845315456390380859 22 1644764674.06576085 -0.458423495292663574 0.888529300689697266 -0.0188927557319402695 0.00257205776870250702
70.019287109375 8.40387153625488281 0.805104672908782959 23 1644764675.06213975 -0.606904327869415283 0.794598400592803955 -0.0165820270776748657 0.00235893437638878822
66.7674942016601562 -1.04075849056243896 0.729513227939605713 24 1644764677.06556773 -0.515262901782989502 0.856967151165008545 0.00352514511905610561 -0.00994868762791156769
58.9305839538574219 -8.01288890838623047 0.54307103157043457 25 1644764679.06667161 -0.206408947706222534 0.978454887866973877 0.00418508099392056465 -0.00197085714899003506
54.3148536682128906 -8.64900398254394531 0.52112579345703125 26 1644764680.06368113 -0.0273717120289802551 0.999558031558990479 0.00465768296271562576 -0.0106252199038863182
47.6076316833496094 -12.9700956344604492 0.460037559270858765 27 1644764682.16409302 -0.477866947650909424 0.878396928310394287 -0.00733366841450333595 -0.00286860927008092403
46.5337905883789062 -17.9100418090820312 0.353041261434555054 28 1644764683.26344967 -0.663058876991271973 0.748400866985321045 -0.015704890713095665 -0.00155292253475636244
45.8444290161132812 -28.2761974334716797 0.294674664735794067 29 1644764685.26157665 -0.683671951293945312 0.729677438735961914 0.00652647623792290688 -0.0109954047948122025
46.655059814453125 -35.3927726745605469 0.205264493823051453 30 1644764686.66159153 -0.799685955047607422 0.60041344165802002 -0.000355764350388199091 0.00243113399483263493
50.5952072143554688 -44.2075004577636719 0.0167063046246767044 31 1644764688.76029801 -0.798150897026062012 0.60223311185836792 -0.00506167113780975342 0.0156467091292142868
50.4794731140136719 -54.3981704711914062 -0.287237733602523804 32 1644764690.75984216 -0.647215008735656738 0.762101531028747559 -0.0101337386295199394 0.0145363016054034233
49.104827880859375 -64.3115081787109375 -0.616925716400146484 33 1644764692.46088672 -0.660513043403625488 0.750657975673675537 -0.00451624393463134766 0.0146524691954255104
47.45233154296875 -74.548675537109375 -0.754111409187316895 34 1644764694.16063499 -0.642194151878356934 0.766391754150390625 -0.012849130667746067 -0.00807765312492847443
46.0117988586425781 -84.694061279296875 -0.707318246364593506 35 1644764695.86275744 -0.659815549850463867 0.75140005350112915 0.000188899808563292027 -0.00643642013892531395
44.5835189819335938 -94.7522811889648438 -0.65628349781036377 36 1644764697.55958533 -0.651758193969726562 0.758335709571838379 -0.00841566454619169235 -0.00821345951408147812
42.9407844543457031 -104.766006469726562 -0.563814282417297363 37 1644764699.26221275 -0.644895970821380615 0.764056622982025146 -0.0178452096879482269 -0.00287720956839621067
40.801971435546875 -114.648056030273438 -0.423336386680603027 38 1644764700.96045542 -0.593644499778747559 0.804508566856384277 -0.0164103582501411438 -0.00910142529755830765
35.9486351013183594 -123.037849426269531 0.0819878354668617249 39 1644764702.66148996 -0.44063037633895874 0.896128535270690918 -0.0437491685152053833 -0.0297414753586053848
28.9737625122070312 -130.417938232421875 1.02173328399658203 40 1644764704.56357551 -0.355604588985443115 0.932551801204681396 -0.0414395816624164581 -0.0466400608420372009
20.3846416473388672 -135.587570190429688 1.7667011022567749 41 1644764706.56258106 -0.212535858154296875 0.976058900356292725 -0.0352090895175933838 -0.0299632400274276733
10.4235382080078125 -138.017501831054688 1.98687648773193359 42 1644764708.56267095 -0.0356946662068367004 0.999076545238494873 -0.0193611253052949905 -0.0140381650999188423
1.00773978233337402 -138.514877319335938 2.19908285140991211 43 1644764710.65916204 -0.130278393626213074 0.990537106990814209 -0.034700438380241394 -0.0256835911422967911
-3.88177371025085449 -145.55682373046875 2.46153736114501953 44 1644764712.65959382 -0.64111793041229248 0.766501367092132568 -0.0378207452595233917 0.00360892945900559425
-3.35157632827758789 -149.01153564453125 2.48090529441833496 45 1644764713.36525464 -0.784424364566802979 0.619378387928009033 -0.0236067268997430801 0.0221704840660095215
-1.5815354585647583 -151.7935791015625 2.45488500595092773 46 1644764714.05957174 -0.889403581619262695 0.456329643726348877 -0.0115405907854437828 0.024317719042301178
0.992834031581878662 -153.66583251953125 2.41115283966064453 47 1644764714.75830221 -0.957349479198455811 0.287652194499969482 -0.00604829564690589905 0.026487814262509346
8.87410545349121094 -156.753341674804688 2.3611600399017334 48 1644764716.85975266 -0.958900988101959229 0.283698529005050659 -0.00479008303955197334 0.00102694961242377758
14.6512651443481445 -163.59307861328125 2.03971600532531738 49 1644764718.95855856 -0.888688147068023682 0.457412451505661011 0.0233274828642606735 -0.0215183179825544357
19.8608074188232422 -170.933807373046875 1.76937639713287354 50 1644764720.95915437 -0.88177943229675293 0.470688611268997192 0.019385162740945816 -0.0232687201350927353
24.7197074890136719 -178.9578857421875 1.51765954494476318 51 1644764723.05823159 -0.866415560245513916 0.499097824096679688 0.00631074374541640282 -0.0136223267763853073
27.4638271331787109 -186.425567626953125 1.58595359325408936 52 1644764725.06005979 -0.759087741374969482 0.64981997013092041 0.00118037569336593151 -0.038967527449131012
25.8689136505126953 -191.227340698242188 1.9364396333694458 53 1644764726.76201105 -0.492936313152313232 0.869133710861206055 -0.0224725231528282166 -0.0333974175155162811
23.8565196990966797 -192.850830078125 2.06517672538757324 54 1644764727.86012506 -0.333542525768280029 0.942350208759307861 -0.0154895354062318802 -0.0220357272773981094
20.4993438720703125 -195.058074951171875 2.22753381729125977 55 1644764729.86341095 -0.284884542226791382 0.958265364170074463 -0.0222746618092060089 -0.00849197525531053543
16.5000438690185547 -197.370285034179688 2.41674208641052246 56 1644764731.9616158 -0.238960132002830505 0.970536172389984131 -0.0147248813882470131 -0.027217421680688858
11.8887176513671875 -203.238449096679688 2.36326050758361816 57 1644764734.06219649 -0.550727427005767822 0.834314882755279541 0.0222875960171222687 -0.0110127367079257965
13.439244270324707 -212.70526123046875 2.01732206344604492 58 1644764736.16050386 -0.847978115081787109 0.529786646366119385 0.016071658581495285 0.000950226793065667152
18.9370822906494141 -221.290069580078125 1.4685744047164917 59 1644764738.06101656 -0.871516108512878418 0.489623308181762695 0.0252952594310045242 -0.00942326802760362625
24.1360054016113281 -229.85821533203125 1.01722812652587891 60 1644764739.86315131 -0.865296661853790283 0.500081777572631836 0.0238749459385871887 -0.0246951300650835037
30.0785675048828125 -238.276641845703125 0.418365478515625 61 1644764741.66403055 -0.897821664810180664 0.439176648855209351 0.028327425941824913 -0.0154171986505389214
37.3093109130859375 -245.620330810546875 -0.209494709968566895 62 1644764743.2626946 -0.934253931045532227 0.354298621416091919 0.0362912192940711975 -0.0180270541459321976
45.9289436340332031 -251.862762451171875 -0.996792852878570557 63 1644764744.76395416 -0.957701146602630615 0.284377098083496094 0.0346420407295227051 -0.0271675530821084976
55.425628662109375 -256.622589111328125 -1.57958149909973145 64 1644764746.16200495 -0.981242120265960693 0.189227446913719177 0.0214336290955543518 -0.0299582872539758682
65.2133102416992188 -259.161041259765625 -2.1259009838104248 65 1644764747.46103811 -0.995564639568328857 0.0874207392334938049 0.0257922783493995667 -0.0233114045113325119
75.5148773193359375 -260.686248779296875 -2.81847882270812988 66 1644764748.76369286 -0.996712863445281982 0.0758063122630119324 0.0198866967111825943 -0.0205266401171684265
86.0223159790039062 -262.26025390625 -3.49854779243469238 67 1644764750.0627315 -0.997148275375366211 0.0697218924760818481 0.0274615809321403503 -0.00894534587860107422
96.701446533203125 -263.771697998046875 -4.17304897308349609 68 1644764751.36426926 -0.997351586818695068 0.0697259008884429932 0.0178689714521169662 -0.0104340687394142151
106.65313720703125 -265.133331298828125 -4.77996492385864258 69 1644764752.56404018 -0.996980488300323486 0.071892760694026947 0.0252538342028856277 -0.0149512337520718575
117.283302307128906 -266.535675048828125 -5.31134653091430664 70 1644764753.86270189 -0.997517049312591553 0.0653530582785606384 0.0149883357807993889 -0.0215427074581384659
127.759292602539062 -267.891326904296875 -5.6974945068359375 71 1644764755.16013098 -0.997548103332519531 0.0663741230964660645 0.00955922994762659073 -0.0200229678303003311
137.99432373046875 -269.2984619140625 -5.89937829971313477 72 1644764756.56043887 -0.997428655624389648 0.0701925605535507202 0.00216513127088546753 -0.0142950257286429405
147.9991455078125 -270.65948486328125 -5.88142585754394531 73 1644764758.26331997 -0.997568488121032715 0.0653785243630409241 -0.0186447687447071075 -0.0153345726430416107
158.28607177734375 -271.888092041015625 -5.86484146118164062 74 1644764759.95845246 -0.998118460178375244 0.0567185506224632263 -0.00550540164113044739 -0.0226317942142486572
168.665542602539062 -272.34423828125 -5.67868137359619141 75 1644764761.66008592 -0.999307572841644287 -0.0214666407555341721 -0.0197195969521999359 -0.0231230594217777252
178.69866943359375 -270.7919921875 -5.40464305877685547 76 1644764763.35739279 -0.994558155536651611 -0.0970197692513465881 -0.0250416416674852371 -0.0285326410084962845
188.252670288085938 -267.777618408203125 -5.18343210220336914 77 1644764765.05864072 -0.980172276496887207 -0.194160804152488708 -0.0275006480515003204 -0.0284183751791715622
197.109390258789062 -263.10650634765625 -5.07701301574707031 78 1644764766.75751758 -0.965764820575714111 -0.256094902753829956 -0.0280112791806459427 -0.0304816626012325287
205.310302734375 -257.34991455078125 -4.99155807495117188 79 1644764768.45722294 -0.945030629634857178 -0.325008422136306763 -0.0255866050720214844 -0.0251379944384098053
213.041763305664062 -250.998291015625 -4.85059165954589844 80 1644764770.15824199 -0.94603574275970459 -0.321401447057723999 -0.0319944955408573151 -0.0263397376984357834
221.0670166015625 -245.020782470703125 -4.68094348907470703 81 1644764771.85866737 -0.948150336742401123 -0.314877688884735107 -0.0331773124635219574 -0.0276076309382915497
228.95220947265625 -238.70269775390625 -4.5554051399230957 82 1644764773.55797935 -0.940866053104400635 -0.337308794260025024 -0.0171189736574888229 -0.0264717712998390198
236.879623413085938 -232.479461669921875 -4.40421247482299805 83 1644764775.25907373 -0.949008584022521973 -0.313466578722000122 -0.0222524944692850113 -0.0250246357172727585
244.922592163085938 -226.4356689453125 -4.19843864440917969 84 1644764776.95747304 -0.943536520004272461 -0.32937312126159668 -0.028902783989906311 -0.0204164497554302216
252.8642578125 -220.272918701171875 -3.94751071929931641 85 1644764778.65658236 -0.949135541915893555 -0.311362981796264648 -0.0344759374856948853 -0.031721159815788269
261.302490234375 -213.910308837890625 -3.60609173774719238 86 1644764780.45726967 -0.945631086826324463 -0.322743922472000122 -0.0305786766111850739 -0.0261381715536117554
269.58306884765625 -207.43316650390625 -3.22253632545471191 87 1644764782.25702238 -0.942279279232025146 -0.331434875726699829 -0.0393348336219787598 -0.026709897443652153
277.73724365234375 -200.980636596679688 -2.7530207633972168 88 1644764784.05662084 -0.946493446826934814 -0.318913310766220093 -0.0444812364876270294 -0.0215853303670883179
285.72760009765625 -194.529006958007812 -2.17995667457580566 89 1644764785.85798717 -0.940428972244262695 -0.336441129446029663 -0.0459184423089027405 -0.0170947648584842682
293.55279541015625 -188.188308715820312 -1.51413702964782715 90 1644764787.65785742 -0.946501433849334717 -0.318050086498260498 -0.0511185266077518463 -0.0191340986639261246
301.431182861328125 -181.950408935546875 -0.821229279041290283 91 1644764789.45715117 -0.938944756984710693 -0.339776843786239624 -0.0530493445694446564 -0.0109628280624747276
308.795501708984375 -175.062652587890625 -0.14045967161655426 92 1644764791.25992703 -0.924809157848358154 -0.376773804426193237 -0.0512740872800350189 -0.011852337047457695
315.725433349609375 -167.736419677734375 0.508876621723175049 93 1644764793.05929518 -0.915407419204711914 -0.399010032415390015 -0.0511648841202259064 -0.0142258694395422935
322.769744873046875 -160.55535888671875 1.2008519172668457 94 1644764794.86117744 -0.924248814582824707 -0.378132283687591553 -0.0523465648293495178 -0.00631921971216797829
329.629608154296875 -153.310714721679688 1.9119950532913208 95 1644764796.65943909 -0.913726747035980225 -0.401634365320205688 -0.061062004417181015 -0.00804176367819309235
336.3079833984375 -145.847183227539062 2.65302157402038574 96 1644764798.45879912 -0.913374781608581543 -0.403324216604232788 -0.0553044229745864868 -0.0041874065063893795
343.155303955078125 -137.840164184570312 3.43765425682067871 97 1644764800.3593092 -0.903334856033325195 -0.424734801054000854 -0.0591317526996135712 -0.00948126427829265594
349.6201171875 -129.562271118164062 4.27104282379150391 98 1644764802.25817537 -0.898586750030517578 -0.434730947017669678 -0.0589894093573093414 -0.008435787633061409
355.837493896484375 -121.695419311523438 5.04182195663452148 99 1644764804.06122231 -0.899972856044769287 -0.431738585233688354 -0.0596406310796737671 -0.00967907346785068512
361.82470703125 -113.717597961425781 5.87688159942626953 100 1644764805.85797954 -0.886639297008514404 -0.459063977003097534 -0.0557100065052509308 -0.00523589272052049637
367.297607421875 -105.3487548828125 6.6545405387878418 101 1644764807.66012192 -0.881967484951019287 -0.467330724000930786 -0.0608131065964698792 -0.00609294697642326355
373.12933349609375 -96.6426925659179688 7.53981590270996094 102 1644764809.56036258 -0.876671791076660156 -0.474609196186065674 -0.0778889209032058716 -0.0112257516011595726
378.321807861328125 -87.759521484375 8.60423374176025391 103 1644764811.45751476 -0.860663652420043945 -0.501618802547454834 -0.0873125940561294556 -0.00362523621879518032
382.621368408203125 -78.6689605712890625 9.63520240783691406 104 1644764813.35404754 -0.806464493274688721 -0.586507737636566162 -0.0749794691801071167 -0.00130766350775957108
382.7225341796875 -73.8973388671875 9.93606853485107422 105 1644764814.2586844 -0.680657267570495605 -0.729277253150939941 -0.0692522227764129639 -0.0080335717648267746
381.443023681640625 -70.0222625732421875 10.1553001403808594 106 1644764815.0574913 -0.533390998840332031 -0.842163205146789551 -0.0680964663624763489 0.0402254872024059296
379.11572265625 -67.48065185546875 10.4212751388549805 107 1644764815.7603538 -0.352871060371398926 -0.933768510818481445 -0.0462079048156738281 0.0377249158918857574
371.29400634765625 -63.7577323913574219 10.8897285461425781 108 1644764817.85961628 -0.182063326239585876 -0.982275605201721191 -0.0375007465481758118 0.0241107698529958725
364.07958984375 -61.9777183532714844 11.1574602127075195 109 1644764819.9561007 -0.088763505220413208 -0.994691967964172363 -0.0422384366393089294 0.0304109286516904831
357.457763671875 -61.7074737548828125 11.3497323989868164 110 1644764821.95699906 0.0136064430698752403 -0.999380230903625488 -0.0237827915698289871 0.0221009291708469391
350.574981689453125 -62.4359054565429688 11.4081010818481445 111 1644764824.05834937 0.0662291646003723145 -0.997476637363433838 -0.0172046255320310593 0.0189209133386611938
343.3416748046875 -63.4742317199707031 11.4562244415283203 112 1644764826.15484619 0.0478944554924964905 -0.998422145843505859 -0.0254018586128950119 0.0146305765956640244
336.043914794921875 -64.2702865600585938 11.440089225769043 113 1644764828.15592575 0.06013469398021698 -0.997808516025543213 -0.0266272556036710739 0.00727959023788571358
329.572540283203125 -64.99298095703125 11.2271709442138672 114 1644764830.1561451 0.041426490992307663 -0.999127984046936035 -0.00255377870053052902 0.00453901290893554688
321.80169677734375 -65.7513809204101562 10.9124593734741211 115 1644764832.256459 0.0379634648561477661 -0.999192118644714355 -0.00513391941785812378 -0.0121445488184690475
312.56756591796875 -65.8205947875976562 10.4107484817504883 116 1644764834.25748992 -0.00157694087829440832 -0.99986034631729126 0.00202547269873321056 -0.0165145732462406158
302.3055419921875 -65.6002426147460938 9.82748222351074219 117 1644764836.15670753 -0.018481498584151268 -0.999688923358917236 0.00272550224326550961 -0.0165238548070192337
292.036346435546875 -64.6158599853515625 9.21379470825195312 118 1644764837.95703483 -0.0823900923132896423 -0.996356308460235596 0.000854613317642360926 -0.022029045969247818
281.92559814453125 -61.9638481140136719 8.67979145050048828 119 1644764839.75549245 -0.155384227633476257 -0.987701117992401123 -0.00558697385713458061 -0.0164619367569684982
272.263641357421875 -57.8778457641601562 8.21420764923095703 120 1644764841.55373526 -0.231564775109291077 -0.972600221633911133 -0.0177036374807357788 -0.0106357652693986893
263.48291015625 -52.2101707458496094 7.88793325424194336 121 1644764843.35453749 -0.314947932958602905 -0.948946654796600342 -0.0131808565929532051 -0.011587340384721756
255.6807861328125 -45.1464080810546875 7.6265716552734375 122 1644764845.15444446 -0.376882195472717285 -0.926130950450897217 -0.0145278749987483025 -0.00549393938854336739
248.539260864257812 -37.449859619140625 7.46792030334472656 123 1644764846.95464611 -0.426653534173965454 -0.904117465019226074 -0.0225332509726285934 0.00553142884746193886
240.835479736328125 -30.341278076171875 7.32366180419921875 124 1644764848.85809565 -0.265571683645248413 -0.963877618312835693 -0.0113601312041282654 -0.0168099533766508102
230.392852783203125 -29.467041015625 6.92967700958251953 125 1644764850.85646176 0.0515221022069454193 -0.998258113861083984 -0.0259691383689641953 -0.0123235266655683517
220.197921752929688 -30.9759407043457031 6.40476322174072266 126 1644764852.65420294 0.0645168498158454895 -0.997577130794525146 -0.0243331156671047211 -0.00924075767397880554
209.831985473632812 -32.1584434509277344 5.88015556335449219 127 1644764854.45307708 0.0355840399861335754 -0.998524308204650879 -0.040087677538394928 -0.00871314667165279388
199.815185546875 -32.5069198608398438 5.45371389389038086 128 1644764856.15400815 -0.00118103076238185167 -0.999475181102752686 -0.0311004649847745895 -0.00898317620158195496
189.475799560546875 -32.1243820190429688 5.21452856063842773 129 1644764857.95376134 -0.0387712717056274414 -0.998758554458618164 -0.030466809868812561 -0.00706831691786646843
179.253753662109375 -30.6195545196533203 4.90615987777709961 130 1644764859.75293446 -0.0943533331155776978 -0.995355844497680664 -0.0186536237597465515 -0.00403604563325643539
169.121917724609375 -29.0042572021484375 4.7758336067199707 131 1644764861.55372453 -0.0803524106740951538 -0.996316194534301758 -0.0281062405556440353 0.0103739378973841667
159.129165649414062 -27.5944194793701172 4.76678276062011719 132 1644764863.35442996 -0.0683387219905853271 -0.997213363647460938 -0.029354168102145195 0.00579845672473311424
148.823959350585938 -26.0457592010498047 4.84152650833129883 133 1644764865.2566762 -0.0759905055165290833 -0.996126532554626465 -0.039800204336643219 0.0193211529403924942
138.554931640625 -24.4187507629394531 4.93010616302490234 134 1644764867.15526581 -0.0819642022252082825 -0.996192395687103271 -0.0227070152759552002 0.0191550031304359436
128.38275146484375 -22.8756198883056641 5.01330137252807617 135 1644764869.15653038 -0.0871481746435165405 -0.995904684066772461 -0.0214051268994808197 0.0109962690621614456
120.283706665039062 -21.7946319580078125 4.68146514892578125 136 1644764871.15701127 -0.0314796119928359985 -0.99874955415725708 -0.0311563350260257721 -0.0231869406998157501
117.357704162597656 -22.5672760009765625 4.4770660400390625 137 1644764871.95560217 0.152005851268768311 -0.987697899341583252 -0.0318380929529666901 -0.0182588100433349609
115.25579833984375 -24.2123184204101562 4.26139640808105469 138 1644764872.65574431 0.33409583568572998 -0.94201505184173584 -0.0221494697034358978 -0.0222950410097837448
113.639076232910156 -26.921478271484375 3.90985870361328125 139 1644764873.35564756 0.506956636905670166 -0.861110091209411621 -0.0217251274734735489 -0.0318186767399311066
112.346717834472656 -32.5772056579589844 3.31291627883911133 140 1644764874.45894623 0.652390539646148682 -0.756776869297027588 -0.0193946156650781631 -0.0360442474484443665
111.374565124511719 -43.0973434448242188 2.26008987426757812 141 1644764876.1593101 0.662063479423522949 -0.748405814170837402 -0.0259602479636669159 -0.0297784842550754547
109.770637512207031 -53.1108665466308594 1.32031559944152832 142 1644764877.65753651 0.645297646522521973 -0.762829184532165527 -0.0232329964637756348 -0.0338053442537784576
108.140121459960938 -63.2252044677734375 0.366775810718536377 143 1644764879.15467596 0.644258022308349609 -0.763902425765991211 -0.0289263874292373657 -0.0234090257436037064
106.344932556152344 -73.1810836791992188 -0.445707648992538452 144 1644764880.75897789 0.637894809246063232 -0.76938176155090332 -0.0252112448215484619 -0.0225006621330976486
104.474090576171875 -83.29638671875 -1.14405286312103271 145 1644764882.55926681 0.641185998916625977 -0.766975522041320801 -0.0120168533176183701 -0.0220149178057909012
103.2364501953125 -93.509124755859375 -1.8459627628326416 146 1644764884.46113348 0.715208292007446289 -0.697536468505859375 0.000154629495227709413 -0.0438175760209560394
104.731094360351562 -98.5016860961914062 -2.19962406158447266 147 1644764885.55614209 0.83141249418258667 -0.554197371006011963 -0.00433550309389829636 -0.0399964712560176849
106.9765625 -101.185188293457031 -2.3378303050994873 148 1644764886.35673165 0.921659588813781738 -0.385430753231048584 0.00435881782323122025 -0.044359058141708374
109.635093688964844 -102.51409912109375 -2.47047042846679688 149 1644764887.058532 0.97690892219543457 -0.209823697805404663 -0.00950695201754570007 -0.0391480885446071625
112.381050109863281 -102.759803771972656 -2.53891134262084961 150 1644764887.75449657 0.99880683422088623 -0.0341499075293540955 -0.0102973878383636475 -0.0333570130169391632
117.185195922851562 -101.563400268554688 -2.55247640609741211 151 1644764889.05732894 0.988149166107177734 0.151093736290931702 0.00667020305991172791 -0.0262195393443107605
126.934112548828125 -98.9620742797851562 -2.57754659652709961 152 1644764891.05826187 0.999076306819915771 0.0410859435796737671 0.00604727817699313164 -0.0110402815043926239
136.772186279296875 -101.021507263183594 -2.64244890213012695 153 1644764892.75641513 0.981666684150695801 -0.189884364604949951 0.007564520463347435 -0.0147391883656382561
145.136764526367188 -107.303390502929688 -2.76961517333984375 154 1644764894.45863557 0.918938398361206055 -0.393822848796844482 0.0116192419081926346 -0.017910439521074295
150.9530029296875 -116.193023681640625 -3.01829171180725098 155 1644764896.15230751 0.849479079246520996 -0.527004122734069824 0.0109490668401122093 -0.0230673588812351227
152.991653442382812 -126.497123718261719 -3.36261510848999023 156 1644764897.85344648 0.714984714984893799 -0.698212921619415283 0.00972093734890222549 -0.0346568189561367035
151.1917724609375 -136.156158447265625 -3.85278534889221191 157 1644764899.85330772 0.581485271453857422 -0.812540292739868164 -0.00234059686772525311 -0.0405918508768081665
146.945098876953125 -143.915084838867188 -4.64137363433837891 158 1644764901.9529438 0.5092429518699646 -0.859853565692901611 0.0110026029869914055 -0.0346756801009178162
142.460418701171875 -152.737884521484375 -4.95023345947265625 159 1644764904.05282092 0.516569316387176514 -0.855816841125488281 0.02011067233979702 -0.0181443300098180771
137.082794189453125 -159.869308471679688 -4.96971559524536133 160 1644764906.15168142 0.378311663866043091 -0.925212085247039795 0.0288648400455713272 -0.0054515516385436058
131.131088256835938 -163.39642333984375 -5.12870502471923828 161 1644764907.75230742 0.20081251859664917 -0.97936779260635376 0.0218947045505046844 -0.00579918036237359047
126.521759033203125 -164.125503540039062 -5.25375747680664062 162 1644764908.95267296 0.0205580759793519974 -0.999763309955596924 0.0063649369403719902 -0.00318253575824201107
123.326675415039062 -163.416732788085938 -5.37560844421386719 163 1644764909.85254598 -0.158185228705406189 -0.987190544605255127 -0.0140265058726072311 -0.0153466006740927696
121.747093200683594 -162.084365844726562 -5.42409038543701172 164 1644764910.45191216 -0.341467767953872681 -0.93934863805770874 -0.0285548456013202667 -0.0144400587305426598
120.96527099609375 -160.316650390625 -5.41015481948852539 165 1644764911.05179667 -0.5131378173828125 -0.858124196529388428 -0.017304684966802597 -0.00360536552034318447
120.932464599609375 -158.551788330078125 -5.3885340690612793 166 1644764911.65224504 -0.672088265419006348 -0.740192949771881104 -0.0202573370188474655 -0.00117973913438618183
121.487060546875 -157.01580810546875 -5.38002634048461914 167 1644764912.15230513 -0.794853687286376953 -0.60642242431640625 -0.0201154500246047974 -0.00740294018760323524
122.656768798828125 -155.646621704101562 -5.35185766220092773 168 1644764912.65173125 -0.898325920104980469 -0.438242286443710327 -0.0270124748349189758 -0.0149850593879818916
124.39508056640625 -154.687088012695312 -5.30807018280029297 169 1644764913.15124059 -0.961510121822357178 -0.27367052435874939 -0.0230049211531877518 -0.00857678242027759552
133.7220458984375 -151.402679443359375 -5.1208796501159668 170 1644764915.25105643 -0.980731964111328125 -0.193194419145584106 -0.0253379754722118378 0.0140977287665009499
143.05596923828125 -145.452499389648438 -4.84169340133666992 171 1644764917.25274491 -0.941454708576202393 -0.336228400468826294 -0.0234591830521821976 0.00794937368482351303
148.660781860351562 -138.815139770507812 -4.20683717727661133 172 1644764918.85313058 -0.864999473094940186 -0.497439444065093994 -0.0545442104339599609 0.0368078388273715973
150.209396362304688 -133.404937744140625 -3.75454568862915039 173 1644764919.95429277 -0.76610952615737915 -0.640748322010040283 -0.0474511496722698212 0.0163157004863023758
150.2984619140625 -122.813819885253906 -3.34975504875183105 174 1644764922.05451894 -0.684827804565429688 -0.727486848831176758 -0.0400146320462226868 0.0131371151655912399
148.544998168945312 -116.371536254882812 -3.12377691268920898 175 1644764923.35452533 -0.547724783420562744 -0.836083889007568359 -0.0275939404964447021 0.0141369588673114777
142.906890869140625 -108.859565734863281 -2.91469216346740723 176 1644764925.15535498 -0.393069624900817871 -0.919052600860595703 -0.0262876283377408981 0.0121494447812438011
133.814056396484375 -102.519096374511719 -2.74449038505554199 177 1644764927.25535011 -0.233371436595916748 -0.972130298614501953 -0.0170845165848731995 0.0144428694620728493
126.627670288085938 -100.758949279785156 -2.6540215015411377 178 1644764928.65511918 -0.0477350801229476929 -0.998728811740875244 -0.00712485285475850105 0.0145375104621052742
117.731239318847656 -102.012130737304688 -2.59455227851867676 179 1644764930.35314083 0.131816700100898743 -0.991083860397338867 -0.00220693182200193405 0.0192950274795293808
108.107017517089844 -106.896446228027344 -2.64871668815612793 180 1644764932.35326767 0.293307960033416748 -0.955953538417816162 -0.00840939674526453018 0.00724762305617332458
101.972679138183594 -113.652854919433594 -2.9422614574432373 181 1644764933.95315075 0.460265129804611206 -0.887743592262268066 -0.00380405876785516739 -0.00727312406525015831
97.6740646362304688 -122.690055847167969 -3.20349979400634766 182 1644764935.65155816 0.573126912117004395 -0.819458842277526855 -0.000799469533376395702 -0.00347684323787689209
94.3564529418945312 -132.155380249023438 -3.25784850120544434 183 1644764937.35349774 0.564872860908508301 -0.824834465980529785 0.0237979143857955933 -0.000605901062954217196
90.1359710693359375 -141.72845458984375 -3.18504214286804199 184 1644764939.15348864 0.528162002563476562 -0.848721146583557129 0.0258219111710786819 0.00710892351344227791
84.66265869140625 -150.257614135742188 -2.92630624771118164 185 1644764940.95192766 0.440483629703521729 -0.897338390350341797 0.0233912430703639984 0.0145203946158289909
77.5578231811523438 -157.776443481445312 -2.5263524055480957 186 1644764942.85126114 0.372593969106674194 -0.927289783954620361 0.0287017207592725754 0.0219914186745882034
69.8841705322265625 -164.233306884765625 -1.99667942523956299 187 1644764944.75153255 0.315424591302871704 -0.947885572910308838 0.0255104769021272659 0.0370058454573154449
61.3728523254394531 -169.654251098632812 -1.2991565465927124 188 1644764946.75459671 0.259229660034179688 -0.964824080467224121 0.0245267916470766068 0.0362344160676002502
52.4296798706054688 -173.97784423828125 -0.547311484813690186 189 1644764948.85425854 0.22287847101688385 -0.9732322096824646 0.0349493995308876038 0.0438497588038444519
44.0840797424316406 -177.91424560546875 0.214048624038696289 190 1644764950.95358396 0.238038703799247742 -0.969350218772888184 0.0411282777786254883 0.044790416955947876
36.7538185119628906 -181.399871826171875 0.821510791778564453 191 1644764952.95410967 0.208105981349945068 -0.976944684982299805 0.0242869984358549118 0.0410014688968658447
31.3964099884033203 -182.378204345703125 1.14963161945343018 192 1644764954.15394568 0.032997719943523407 -0.998184442520141602 0.0337630920112133026 0.0374037735164165497
27.3917140960693359 -181.554397583007812 1.36586999893188477 193 1644764955.05643082 -0.163763359189033508 -0.9854888916015625 0.0189140364527702332 0.0404404886066913605
24.0842208862304688 -179.178421020507812 1.51474928855895996 194 1644764955.95384431 -0.335745096206665039 -0.941541910171508789 0.00756824761629104614 0.0267723072320222855
18.7820529937744141 -172.757568359375 1.83398842811584473 195 1644764957.85313559 -0.512082457542419434 -0.858343124389648438 0.000741432537324726582 0.0319063998758792877
18.146453857421875 -169.214080810546875 1.85962605476379395 196 1644764958.75216484 -0.664332091808319092 -0.746876657009124756 0.0158368851989507675 0.0242344178259372711
18.8274040222167969 -165.805282592773438 1.77414095401763916 197 1644764959.75150442 -0.789586186408996582 -0.612631380558013916 0.0272993016988039017 0.0221624709665775299
20.8648147583007812 -162.634384155273438 1.50171840190887451 198 1644764960.8503418 -0.887176334857940674 -0.459424734115600586 0.0380660593509674072 0.0199512317776679993
24.3235492706298828 -154.161483764648438 0.910564422607421875 199 1644764962.85799241 -0.787017583847045898 -0.616629660129547119 0.0137117505073547363 -0.0135317901149392128
28.0478897094726562 -144.860610961914062 0.228834882378578186 200 1644764964.95414615 -0.888681471347808838 -0.456401973962783813 0.0194986779242753983 -0.0395261719822883606
35.5713996887207031 -138.64349365234375 -0.554615378379821777 201 1644764966.85652876 -0.955686271190643311 -0.292418926954269409 0.0214278008788824081 -0.0263777934014797211
44.1945533752441406 -132.933425903320312 -1.20930838584899902 202 1644764968.75500107 -0.944640874862670898 -0.327435523271560669 0.0160515625029802322 -0.0134871844202280045
51.11090087890625 -125.719505310058594 -1.83251762390136719 203 1644764970.65548205 -0.902612268924713135 -0.429349303245544434 0.0152385439723730087 -0.0267971958965063095
56.7624397277832031 -118.970771789550781 -2.32678651809692383 204 1644764972.65572977 -0.936670124530792236 -0.347691923379898071 0.00471190875396132469 -0.0416798777878284454
62.3310089111328125 -116.7720947265625 -2.5937645435333252 205 1644764974.15236878 -0.992836594581604004 -0.11075950413942337 0.0109239500015974045 -0.0434574447572231293
66.4404296875 -116.994796752929688 -2.65998482704162598 206 1644764975.15174675 -0.996701717376708984 0.0680890828371047974 -0.000347133027389645576 -0.044151846319437027
70.6321334838867188 -118.773910522460938 -2.61564135551452637 207 1644764976.15137887 -0.967950403690338135 0.248750880360603333 -0.00345110218040645123 -0.0343963876366615295
73.7596893310546875 -121.846336364746094 -2.51685762405395508 208 1644764977.15011477 -0.905317127704620361 0.424097955226898193 -0.00219786050729453564 -0.0231724735349416733
75.0579452514648438 -124.90802001953125 -2.47051167488098145 209 1644764977.95122004 -0.814018130302429199 0.5804634690284729 0.00483546080067753792 -0.0203295741230249405
72.7858123779296875 -133.448272705078125 -2.32326149940490723 210 1644764980.0484159 -0.480722337961196899 0.876452803611755371 -0.000342446932336315513 -0.0271376390010118484
65.9504852294921875 -140.126510620117188 -1.9749521017074585 211 1644764982.04853177 -0.334703981876373291 0.94170677661895752 -0.00574030634015798569 -0.0335952639579772949
58.0264739990234375 -145.638504028320312 -1.44549572467803955 212 1644764984.0486536 -0.278724938631057739 0.959420084953308105 -0.0130626950412988663 -0.0406795181334018707
49.807281494140625 -151.256317138671875 -0.851856052875518799 213 1644764986.14834619 -0.300198465585708618 0.952901542186737061 -0.0145081300288438797 -0.0406081117689609528
41.9712982177734375 -156.667251586914062 -0.259322524070739746 214 1644764988.14952302 -0.268285155296325684 0.962124645709991455 -0.00244140555150806904 -0.0483038574457168579
33.6769638061523438 -160.668289184570312 0.485569387674331665 215 1644764990.15185094 -0.200256288051605225 0.9780769944190979 -0.00779547961428761482 -0.0565863735973834991
25.2760334014892578 -163.907211303710938 1.150726318359375 216 1644764992.25047708 -0.146265178918838501 0.988065361976623535 0.015105091966688633 -0.0458821877837181091
18.1182079315185547 -164.492340087890625 1.81123936176300049 217 1644764994.25117278 0.039140503853559494 0.997433364391326904 -0.0184360165148973465 -0.0570506267249584198
14.0489826202392578 -163.088638305664062 2.05812811851501465 218 1644764995.4518404 0.220404013991355896 0.974621474742889404 -0.000626548018772155046 -0.0391753651201725006
10.7956418991088867 -160.058486938476562 2.25121855735778809 219 1644764996.65302062 0.414235979318618774 0.909534871578216553 0.00617003301158547401 -0.0334190279245376587
8.96773815155029297 -156.175872802734375 2.34862446784973145 220 1644764997.74942422 0.577997565269470215 0.815753042697906494 0.00525558274239301682 -0.0209323819726705551
8.65877056121826172 -151.631576538085938 2.35993432998657227 221 1644764998.84917116 0.714163839817047119 0.699931740760803223 0.00506838969886302948 -0.00631551584228873253
10.6792964935302734 -144.396881103515625 2.19707489013671875 222 1644765000.65086722 0.825964987277984619 0.56365358829498291 -0.00519474782049655914 -0.00703718187287449837
16.2586612701416016 -137.592529296875 1.92753779888153076 223 1644765002.7519021 0.950811624526977539 0.309549897909164429 -0.000183121315785683692 0.0116670969873666763
24.8464260101318359 -133.337982177734375 1.46931791305541992 224 1644765004.85008168 0.965484142303466797 0.258533179759979248 -0.0154235763475298882 0.0276231169700622559
32.8382568359375 -126.582084655761719 0.471774190664291382 225 1644765006.85155916 0.925988852977752686 0.374983847141265869 -0.0279406122863292694 0.0339273400604724884
40.1165580749511719 -116.762405395507812 -0.330956161022186279 226 1644765008.95202661 0.851852357387542725 0.523441910743713379 -0.00826683919876813889 0.016963692381978035
42.9443168640136719 -105.537429809570312 -0.563968956470489502 227 1644765010.95336556 0.760547459125518799 0.649247348308563232 0.00660778163000941277 0.00133549410384148359
44.6829414367675781 -94.095550537109375 -0.675187349319458008 228 1644765012.95376253 0.764328658580780029 0.644755244255065918 0.00747770862653851509 -0.00603819591924548149
46.8541259765625 -82.155364990234375 -0.693200051784515381 229 1644765015.05287123 0.76259535551071167 0.646490275859832764 0.000968769716564565897 -0.0223089996725320816
48.2267112731933594 -70.6915359497070312 -0.765222549438476562 230 1644765017.0533247 0.74252617359161377 0.669696927070617676 0.011160154826939106 -0.00602745776996016502
50.0160636901855469 -58.9967269897460938 -0.456914216279983521 231 1644765019.15221834 0.764121472835540771 0.644513130187988281 0.0201514661312103271 -0.0177499819546937943
50.9902610778808594 -48.2524757385253906 -0.115278758108615875 232 1644765021.15282702 0.690540015697479248 0.722791433334350586 0.0172833409160375595 -0.0206967964768409729
49.3658332824707031 -43.2327919006347656 0.0202600210905075073 233 1644765022.15346718 0.541697919368743896 0.840082526206970215 0.0157032869756221771 -0.0240456219762563705
44.669158935546875 -33.86724853515625 0.212561532855033875 234 1644765024.25115299 0.605687379837036133 0.795385777950286865 0.0201961006969213486 -0.00981844775378704071
44.6476860046386719 -26.2489032745361328 0.267390429973602295 235 1644765025.75004482 0.742736577987670898 0.669403195381164551 0.0112404394894838333 -0.0107412040233612061
47.015350341796875 -16.1738109588623047 0.360130727291107178 236 1644765027.8508532 0.806132972240447998 0.59144216775894165 0.0165859069675207138 -0.00840764492750167847
50.0994377136230469 -9.57666587829589844 0.487217247486114502 237 1644765029.64838839 0.897773504257202148 0.440122246742248535 0.0171019826084375381 0.0016263152938336134
52.4404792785644531 -8.15768146514892578 0.521491765975952148 238 1644765030.35179996 0.966200113296508789 0.257339894771575928 0.0151945902034640312 -0.00162468431517481804
56.0646095275878906 -7.55121088027954102 0.504985630512237549 239 1644765031.24768877 0.998927116394042969 0.0452492572367191315 0.00957225263118743896 -0.00234499690122902393
63.8861351013183594 -5.30415248870849609 0.662721037864685059 240 1644765033.34700084 0.946791350841522217 0.320399314165115356 0.0101013341918587685 -0.028782302513718605
65.4659805297851562 -2.93430829048156738 0.703899204730987549 241 1644765034.04845548 0.874154210090637207 0.484330475330352783 0.00254119769670069218 -0.0356644168496131897
66.1077957153320312 -0.0522725768387317657 0.742749929428100586 242 1644765034.74765563 0.767667591571807861 0.640232682228088379 -0.00249704415909945965 -0.0279715768992900848
65.660003662109375 2.90352535247802734 0.769548177719116211 243 1644765035.44633269 0.636418402194976807 0.771042466163635254 -0.00479271216318011284 -0.0210286397486925125
64.1605377197265625 5.52017927169799805 0.762836635112762451 244 1644765036.14631557 0.484681189060211182 0.874586939811706543 -0.00654694810509681702 -0.0117897260934114456
61.7394485473632812 7.47020244598388672 0.69440758228302002 245 1644765036.84661531 0.316036075353622437 0.948687195777893066 -0.0104857617989182472 0.00197759992443025112
58.6421928405761719 8.52229881286621094 0.653105854988098145 246 1644765037.54759288 0.139198020100593567 0.990218698978424072 -0.00838448293507099152 -0.00453283404931426048
48.2493553161621094 9.54360198974609375 0.531596958637237549 247 1644765039.55079246 0.0431740246713161469 0.999009370803833008 0.00953127164393663406 -0.00504840165376663208
38.0938148498535156 10.4123382568359375 0.44607245922088623 248 1644765041.34730721 0.0463309362530708313 0.998862326145172119 0.00958379358053207397 -0.005969255231320858
27.89404296875 12.0327167510986328 0.413776546716690063 249 1644765043.1459887 0.0923666432499885559 0.995647251605987549 0.00817323196679353714 -0.00939009618014097214
17.5383625030517578 13.5143795013427734 0.35250622034072876 250 1644765045.05285096 0.0597629547119140625 0.998170435428619385 0.003960371483117342 -0.00827632192522287369
8.10203933715820312 13.4855241775512695 0.331785202026367188 251 1644765047.14538527 -0.105894632637500763 0.994332373142242432 0.00428550457581877708 -0.00842886324971914291
5.33760976791381836 11.981867790222168 0.327824115753173828 252 1644765048.04725933 -0.282621800899505615 0.959055542945861816 -0.0183661282062530518 0.000205786462174728513
3.38497710227966309 9.61962318420410156 0.294078141450881958 253 1644765049.04735589 -0.447197586297988892 0.893751859664916992 -0.0336270518600940704 0.00954763125628232956
0.563348054885864258 4.85050725936889648 0.239121019840240479 254 1644765051.04748678 -0.485711663961410522 0.873937785625457764 -0.0160880275070667267 0.00761937303468585014
-0.0918766334652900696 2.25052547454833984 0.210987284779548645 255 1644765052.14620638 -0.643326163291931152 0.764991641044616699 -0.0252184085547924042 0.016832258552312851
0.405382663011550903 0.703382730484008789 0.23772914707660675 256 1644765052.94837832 -0.778424322605133057 0.626737773418426514 -0.0308838766068220139 0.0173645317554473877
1.35916256904602051 -0.317958831787109375 0.260094702243804932 257 1644765053.84852648 -0.882039964199066162 0.470407187938690186 -0.0208419915288686752 0.0169768258929252625
2.53318047523498535 -0.805283188819885254 0.2649955153465271 258 1644765054.84771967 -0.954877376556396484 0.295830219984054565 -0.0132605237886309624 0.0227551404386758804
3.53204703330993652 -1.02840876579284668 0.273269712924957275 259 1644765056.84908462 -0.97967904806137085 0.199034065008163452 -0.0138350743800401688 0.0205663591623306274
