# .PCD v0.7 - Point Cloud Data file format
VERSION 0.7
FIELDS x y z intensity t qx qy qz qw
SIZE 4 4 4 4 8 4 4 4 4
TYPE F F F F F F F F F
COUNT 1 1 1 1 1 1 1 1 1
WIDTH 213
HEIGHT 1
VIEWPOINT 0 0 0 1 0 0 0
POINTS 213
DATA ascii
0.0353413373231887817 0.0129728522151708603 -0.215164080262184143 0 1645008760.65304041 0.999999165534973145 -0.00016518471238669008 -0.000962191959843039513 -0.000828049553092569113
2.50845718383789062 -0.014527859166264534 -0.181888401508331299 1 1645008762.75319862 0.999925315380096436 -0.00858161412179470062 0.0086692245677113533 0.00071122852386906743
8.02134513854980469 -0.878657817840576172 -0.157949060201644897 2 1645008764.7540493 0.988187432289123535 -0.153031691908836365 -0.00129103590734302998 0.0080782892182469368
9.41060447692871094 -2.15908241271972656 -0.158834949135780334 3 1645008765.45691037 0.935727238655090332 -0.352361738681793213 -0.00806998834013938904 0.0138071021065115929
9.76362037658691406 -3.49614810943603516 -0.158056840300559998 4 1645008765.95424819 0.837695658206939697 -0.545614063739776611 -0.0190518461167812347 0.0144327087327837944
9.52959442138671875 -4.57493495941162109 -0.158941939473152161 5 1645008766.3537972 0.725365102291107178 -0.688164651393890381 -0.0152054671198129654 0.00660780677571892738
8.90736103057861328 -5.58412790298461914 -0.191461503505706787 6 1645008766.756217 0.579701900482177734 -0.814393043518066406 -0.0262423809617757797 -0.00457622343674302101
7.94665098190307617 -6.23779487609863281 -0.205793827772140503 7 1645008767.15573835 0.405125826597213745 -0.913870811462402344 -0.0257285498082637787 -0.00716080190613865852
6.81462430953979492 -6.50680971145629883 -0.199911355972290039 8 1645008767.55582952 0.231104835867881775 -0.972712934017181396 -0.0197661146521568298 -0.00541940005496144295
0.499808937311172485 -7.46979379653930664 -0.221672385931015015 9 1645008769.45694256 0.0566091947257518768 -0.998102724552154541 -0.0175973381847143173 -0.0166344605386257172
-3.20474934577941895 -7.84179019927978516 -0.259085357189178467 10 1645008771.55767131 0.0533326528966426849 -0.998502135276794434 -0.01151236891746521 -0.00406782515347003937
-3.32628798484802246 -7.85804414749145508 -0.24371105432510376 11 1645008775.35111237 0.0551827028393745422 -0.998398721218109131 -0.0100427605211734772 0.00735178962349891663
-9.00633811950683594 -8.01045608520507812 -0.278751164674758911 12 1645008777.35402298 0.0326021499931812286 -0.999462783336639404 -0.00267331884242594242 0.00202831951901316643
-19.3141193389892578 -9.81516265869140625 -0.326321035623550415 13 1645008779.45012784 0.0870206728577613831 -0.996197402477264404 0.00261155096814036369 -0.0033680284395813942
-29.5351734161376953 -10.9510660171508789 -0.300909668207168579 14 1645008781.35043478 0.0291553344577550888 -0.999564230442047119 0.00274596991948783398 0.00371940759941935539
-39.62506103515625 -9.84100246429443359 0.124758176505565643 15 1645008783.25119042 -0.140627756714820862 -0.989544451236724854 0.0108184153214097023 0.0301421564072370529
-49.2048072814941406 -5.69327878952026367 1.02798259258270264 16 1645008785.25037789 -0.28707963228225708 -0.956428885459899902 0.00748038338497281075 0.0526603460311889648
-56.9863166809082031 1.26850008964538574 1.85431087017059326 17 1645008787.35255527 -0.367817789316177368 -0.928967952728271484 0.0101634534075856209 0.0403149798512458801
-65.49609375 6.57011890411376953 2.21643900871276855 18 1645008789.35168028 -0.208306610584259033 -0.977868378162384033 -0.00484576029703021049 0.0189300011843442917
-75.6404037475585938 7.40519046783447266 2.32724785804748535 19 1645008791.15042257 0.0937769785523414612 -0.995574831962585449 0.00531243905425071716 0.00290939072147011757
-80.779510498046875 4.76851797103881836 2.20921540260314941 20 1645008792.15090156 0.269971758127212524 -0.962725341320037842 -0.00750215072184801102 -0.0147946402430534363
-87.844818115234375 -2.37428474426269531 1.73446714878082275 21 1645008793.85105038 0.421498209238052368 -0.906219720840454102 -0.0280582476407289505 -0.0178279932588338852
-93.7427139282226562 -10.7629365921020508 1.21495151519775391 22 1645008795.55046821 0.464326292276382446 -0.884712755680084229 -0.0384862646460533142 -0.0142565649002790451
-100.517822265625 -18.1118946075439453 0.857254564762115479 23 1645008797.45297837 0.320290148258209229 -0.945998847484588623 -0.0499097444117069244 -0.00306374975480139256
-107.145492553710938 -19.3319473266601562 1.16590332984924316 24 1645008799.55190372 -0.0189153328537940979 -0.999252259731292725 -0.0196458511054515839 0.0274077989161014557
-112.588493347167969 -16.7305088043212891 1.56051194667816162 25 1645008801.65149903 -0.312138557434082031 -0.948883354663848877 -0.0175229385495185852 0.0433912277221679688
-117.300987243652344 -12.4280195236206055 1.82385885715484619 26 1645008803.65219975 -0.337837159633636475 -0.940855622291564941 -0.0137446960434317589 0.0216298364102840424
-124.74395751953125 -10.1192226409912109 1.73972880840301514 27 1645008805.65321875 -0.0400572679936885834 -0.998434901237487793 -0.0317713581025600433 -0.0226660091429948807
-133.374191284179688 -14.9560775756835938 1.24717104434967041 28 1645008807.75464201 0.354381531476974487 -0.934636950492858887 -0.0211049541831016541 -0.0205456335097551346
-140.033798217773438 -23.273895263671875 0.502824783325195312 29 1645008809.35470557 0.442016363143920898 -0.895753562450408936 -0.0409111455082893372 -0.0239458028227090836
-146.442581176757812 -31.0822963714599609 -0.0923009365797042847 30 1645008810.95513082 0.412081152200698853 -0.91021043062210083 -0.0405882485210895538 -0.00766174169257283211
-152.704666137695312 -39.3588752746582031 -0.875243723392486572 31 1645008812.65516806 0.472717195749282837 -0.880038321018218994 -0.0402058660984039307 -0.0213195644319057465
-157.510055541992188 -48.5108299255371094 -1.68097949028015137 32 1645008814.15052342 0.543114900588989258 -0.837713837623596191 -0.0545266494154930115 -0.0169876944273710251
-160.53741455078125 -58.5872879028320312 -2.63148832321166992 33 1645008815.55220985 0.62315523624420166 -0.779947936534881592 -0.0562457814812660217 -0.0139712197706103325
-161.868927001953125 -68.8325653076171875 -3.37180376052856445 34 1645008816.85120487 0.683908283710479736 -0.728084385395050049 -0.0464877523481845856 0.00122954696416854858
-161.234024047851562 -79.3929977416992188 -4.13662052154541016 35 1645008818.15059018 0.753898561000823975 -0.655313491821289062 -0.0442945957183837891 -0.0154668819159269333
-159.315780639648438 -89.2124252319335938 -4.95816993713378906 36 1645008819.35133433 0.771271109580993652 -0.635035097599029541 -0.0419491566717624664 -0.0105615649372339249
-157.603363037109375 -99.3514862060546875 -5.78956508636474609 37 1645008820.55126762 0.756351053714752197 -0.652888238430023193 -0.0363136120140552521 -0.0187456440180540085
-156.0751953125 -109.757888793945312 -6.58872318267822266 38 1645008821.75341511 0.765078723430633545 -0.643130958080291748 -0.0259485691785812378 -0.0190713647753000259
-154.110427856445312 -120.223663330078125 -7.37198209762573242 39 1645008822.95388627 0.765835821628570557 -0.641748964786529541 -0.0389511249959468842 -0.0116877658292651176
-152.178054809570312 -130.677093505859375 -8.0421905517578125 40 1645008824.14878917 0.766494631767272949 -0.641058921813964844 -0.0389432236552238464 -0.00358947785571217537
-150.277664184570312 -141.143463134765625 -8.58707332611083984 41 1645008825.3490293 0.764325320720672607 -0.644078373908996582 -0.0311374906450510025 -0.000596211641095578671
-148.478652954101562 -151.314315795898438 -8.92196941375732422 42 1645008826.54936099 0.764715373516082764 -0.644140005111694336 -0.0170750506222248077 0.00155961490236222744
-146.647048950195312 -161.350067138671875 -9.06486034393310547 43 1645008827.85024428 0.766710638999938965 -0.64194798469543457 -0.0055426168255507946 0.00518109742552042007
-144.67333984375 -171.6915283203125 -9.16284656524658203 44 1645008829.24678922 0.778379678726196289 -0.627380788326263428 0.000207312041311524808 0.0227688159793615341
-141.624252319335938 -181.23223876953125 -9.14203643798828125 45 1645008830.64795899 0.812794327735900879 -0.581786513328552246 -0.00930630508810281754 0.0283407308161258698
-137.678909301757812 -190.552322387695312 -8.95586967468261719 46 1645008832.1460824 0.852085769176483154 -0.522941768169403076 0.000189259080798365176 0.021948767825961113
-131.000656127929688 -198.746734619140625 -8.89512062072753906 47 1645008833.64562201 0.921709954738616943 -0.386565446853637695 -0.0102819185703992844 0.0302018318325281143
-123.105461120605469 -205.639862060546875 -8.92289161682128906 48 1645008835.04571104 0.94405132532119751 -0.328612446784973145 -0.0106130084022879601 0.0258526094257831573
-114.363914489746094 -211.844146728515625 -8.92072963714599609 49 1645008836.44554377 0.953889012336730957 -0.29899299144744873 -0.00132375862449407578 0.026404181495308876
-105.702835083007812 -217.621917724609375 -8.86478805541992188 50 1645008837.84564424 0.955617249011993408 -0.292985647916793823 -0.00798605103045701981 0.0298550333827733994
-97.2336654663085938 -223.403854370117188 -8.81411647796630859 51 1645008839.34655881 0.949953913688659668 -0.310577541589736938 -0.00749128824099898338 0.0327577292919158936
-89.0971527099609375 -229.4691162109375 -8.7543487548828125 52 1645008840.84507418 0.951677024364471436 -0.306048601865768433 -0.0041300654411315918 0.025060875341296196
-80.568634033203125 -235.225692749023438 -8.68065929412841797 53 1645008842.24585938 0.953968226909637451 -0.298466980457305908 0.00162122782785445452 0.0293170586228370667
-71.8129501342773438 -241.331451416015625 -8.56584644317626953 54 1645008843.64841294 0.95132070779800415 -0.306889176368713379 -0.00183990946970880032 0.0283647850155830383
-63.6381797790527344 -247.124252319335938 -8.38059711456298828 55 1645008844.94744134 0.951398789882659912 -0.306354552507400513 0.000721860735211521387 0.0314118824899196625
-54.88800048828125 -253.265045166015625 -8.11637687683105469 56 1645008846.34639359 0.952401876449584961 -0.303315848112106323 -0.000253268139204010367 0.0304975025355815887
-46.1317062377929688 -259.270294189453125 -7.78229284286499023 57 1645008847.74761033 0.95382380485534668 -0.298067778348922729 0.0102059189230203629 0.0356586501002311707
-37.3668594360351562 -265.246673583984375 -7.33888387680053711 58 1645008849.14897776 0.953349947929382324 -0.29977688193321228 0.0160114243626594543 0.0316444858908653259
-28.7233161926269531 -271.144195556640625 -6.76115131378173828 59 1645008850.55031776 0.95408475399017334 -0.296839505434036255 0.0200277790427207947 0.0347486697137355804
-20.1758537292480469 -276.850738525390625 -6.15012788772583008 60 1645008851.95225644 0.955888450145721436 -0.291036039590835571 0.0236142426729202271 0.0319003202021121979
-11.3710308074951172 -282.271392822265625 -5.49732637405395508 61 1645008853.34718561 0.960460484027862549 -0.275877863168716431 0.0264449771493673325 0.0266035981476306915
-2.08048391342163086 -286.646575927734375 -4.90413713455200195 62 1645008854.74832344 0.981882452964782715 -0.186051025986671448 0.0215196181088685989 0.0287886485457420349
7.69831705093383789 -289.7374267578125 -4.35552883148193359 63 1645008856.14730597 0.986766636371612549 -0.155386239290237427 0.0240659862756729126 0.0395926982164382935
17.3363742828369141 -293.1983642578125 -3.75302267074584961 64 1645008857.54888368 0.977135121822357178 -0.20520155131816864 0.0232956577092409134 0.0505632683634757996
26.5702362060546875 -297.64471435546875 -3.03804373741149902 65 1645008858.9466331 0.972030401229858398 -0.230737671256065369 0.0285769607871770859 0.0331723056733608246
35.7713470458984375 -302.049560546875 -2.3329930305480957 66 1645008860.34905028 0.975886166095733643 -0.212676495313644409 0.034303322434425354 0.0351875871419906616
44.8161392211914062 -306.549224853515625 -1.55264711380004883 67 1645008861.74426579 0.967233836650848389 -0.24976743757724762 0.0321846865117549896 0.0322351641952991486
53.8730278015136719 -311.21783447265625 -0.739002823829650879 68 1645008863.14603233 0.9738730788230896 -0.222132086753845215 0.0332832038402557373 0.0334784798324108124
63.2785415649414062 -314.97076416015625 0.0184845756739377975 69 1645008864.5442555 0.983753681182861328 -0.172110944986343384 0.0370281562209129333 0.0351490788161754608
73.0183181762695312 -317.974639892578125 0.781660914421081543 70 1645008865.94431257 0.988904654979705811 -0.141180112957954407 0.0362711362540721893 0.0286394786089658737
82.8503799438476562 -320.601318359375 1.53626060485839844 71 1645008867.34487486 0.987822771072387695 -0.140709951519966125 0.0495661832392215729 0.0441601388156414032
92.63519287109375 -323.11334228515625 2.42679047584533691 72 1645008868.74463105 0.988790452480316162 -0.13082633912563324 0.0527391284704208374 0.048953518271446228
102.510017395019531 -325.422119140625 3.47908520698547363 73 1645008870.34478116 0.993555128574371338 -0.0955363810062408447 0.0463096313178539276 0.0397036112844944
110.164505004882812 -325.3839111328125 4.17129802703857422 74 1645008871.84551549 0.99507671594619751 0.0808556005358695984 0.0458376817405223846 0.034404318779706955
113.47271728515625 -323.771484375 4.3480219841003418 75 1645008872.54606199 0.96400374174118042 0.262082278728485107 0.0323393568396568298 0.0310448277741670609
115.601234436035156 -321.59027099609375 4.58816957473754883 76 1645008873.14788985 0.902240216732025146 0.426990687847137451 0.0568179190158843994 -0.0203285105526447296
117.186538696289062 -317.66912841796875 4.95106697082519531 77 1645008874.14600396 0.810927927494049072 0.582531571388244629 0.0551741495728492737 -0.00293759140186011791
118.039070129394531 -309.65985107421875 5.49278879165649414 78 1645008876.14780235 0.732690334320068359 0.679152846336364746 0.0432963408529758453 0.00646249856799840927
117.053634643554688 -301.075164794921875 5.93133211135864258 79 1645008878.24903965 0.627361536026000977 0.777523994445800781 0.0432691499590873718 0.00130400049965828657
114.05419921875 -292.599884033203125 6.23794794082641602 80 1645008880.34714961 0.550990641117095947 0.834052622318267822 0.0276655275374650955 0.000411905668443068862
109.930397033691406 -284.395751953125 6.42508077621459961 81 1645008882.34738636 0.532709658145904541 0.845696091651916504 0.0314490944147109985 0.00542584294453263283
105.765785217285156 -274.97186279296875 6.49575901031494141 82 1645008884.45037746 0.525174975395202637 0.850774466991424561 0.00716127175837755203 0.0179676208645105362
102.511505126953125 -266.8138427734375 6.34453868865966797 83 1645008886.54878354 0.590073108673095703 0.807229816913604736 0.00712929479777812958 0.0119546046480536461
98.9412612915039062 -257.003692626953125 5.93972873687744141 84 1645008888.54875112 0.549585461616516113 0.835273802280426025 -0.012413407675921917 0.0109274666756391525
95.3673095703125 -247.154220581054688 5.4965362548828125 85 1645008890.24564409 0.604563534259796143 0.79636305570602417 -0.00115354009903967381 0.017534235492348671
93.7373199462890625 -236.978195190429688 5.05231285095214844 86 1645008891.75010228 0.670489668846130371 0.741774082183837891 -0.00782309472560882568 0.0123925935477018356
93.036346435546875 -226.669326782226562 4.65285825729370117 87 1645008893.14963579 0.694613158702850342 0.719013094902038574 -0.00756720313802361488 0.0218052491545677185
93.2590255737304688 -216.12994384765625 4.25829410552978516 88 1645008894.55093598 0.743272066116333008 0.668420255184173584 0.00803630426526069641 0.0263903457671403885
96.150848388671875 -206.189712524414062 4.11938381195068359 89 1645008896.04698515 0.82570117712020874 0.563951671123504639 -0.000809969031251966953 0.0132436072453856468
100.627113342285156 -196.6220703125 4.00781774520874023 90 1645008897.74563694 0.857790172100067139 0.51376795768737793 0.00274640275165438652 0.0151981879025697708
105.94024658203125 -187.716094970703125 3.97802090644836426 91 1645008899.64882183 0.873815059661865234 0.485864698886871338 0.0109101887792348862 0.0162383895367383957
109.6507568359375 -179.953018188476562 3.98636078834533691 92 1645008901.74789762 0.819713592529296875 0.572508871555328369 0.00911612249910831451 0.0148359294980764389
110.739639282226562 -172.755279541015625 3.92706418037414551 93 1645008903.84637284 0.689921438694000244 0.723132610321044922 0.0128688421100378036 0.0303642675280570984
107.389533996582031 -165.407058715820312 3.65641903877258301 94 1645008905.84880686 0.507304728031158447 0.861117959022521973 0.0175918135792016983 0.028430769219994545
103.182029724121094 -156.357620239257812 3.29996562004089355 95 1645008907.94328713 0.56305241584777832 0.825854122638702393 0.013100464828312397 0.0276637002825737
99.8622894287109375 -146.44232177734375 2.98262310028076172 96 1645008909.94256783 0.597089171409606934 0.800915956497192383 0.0229277946054935455 0.0386320874094963074
96.9881591796875 -136.768692016601562 2.7527167797088623 97 1645008911.84242058 0.603062093257904053 0.796655535697937012 0.0334541015326976776 0.0231704898178577423
94.0679550170898438 -126.723785400390625 2.62004590034484863 98 1645008913.64312983 0.619308114051818848 0.782905936241149902 0.0416274294257164001 0.0422249287366867065
92.3770370483398438 -116.66009521484375 2.45494771003723145 99 1645008915.44419694 0.65631401538848877 0.75398629903793335 0.013322044163942337 0.0240652468055486679
90.9737472534179688 -106.7578125 2.50833463668823242 100 1645008917.14368105 0.653705596923828125 0.755663752555847168 0.0225886199623346329 0.0336310900747776031
89.2954635620117188 -96.5262908935546875 2.67387151718139648 101 1645008918.94235802 0.644334495067596436 0.76427614688873291 0.0266669448465108871 0.0019805950578302145
87.419189453125 -86.2655715942382812 2.92263555526733398 102 1645008920.94452929 0.647882759571075439 0.761245310306549072 0.0274357553571462631 -0.000885359244421124458
86.3057479858398438 -76.7804412841796875 3.24312138557434082 103 1645008923.04178143 0.682814896106719971 0.730091571807861328 0.0270046908408403397 -0.000907854584511369467
85.1648788452148438 -67.61651611328125 3.56550931930541992 104 1645008925.14168453 0.643552601337432861 0.764783024787902832 0.0307572633028030396 0.000977802788838744164
83.5675048828125 -59.450714111328125 3.42224216461181641 105 1645008927.14325547 0.625688731670379639 0.779183447360992432 0.0140886986628174782 0.0344708897173404694
81.5718002319335938 -56.0017890930175781 3.22438979148864746 106 1645008928.24385858 0.450294166803359985 0.891640603542327881 0.0174102671444416046 0.0436926446855068207
79.4370040893554688 -54.7386093139648438 3.0171511173248291 107 1645008928.94406939 0.265275239944458008 0.963090658187866211 0.00776066305115818977 0.0450025647878646851
76.5883102416992188 -54.3018836975097656 2.68190956115722656 108 1645008929.64295864 0.0700330287218093872 0.995860815048217773 -0.000770351558458060026 0.057930823415517807
66.6257858276367188 -55.8365058898925781 1.56081151962280273 109 1645008931.54459667 -0.0669895187020301819 0.996088981628417969 0.014212585985660553 0.0558312088251113892
56.2136077880859375 -56.8011245727539062 0.518371462821960449 110 1645008933.3456645 -0.0449121221899986267 0.997979700565338135 0.00423811562359333038 0.0447374917566776276
45.8048782348632812 -58.2086639404296875 -0.526696562767028809 111 1645008934.94599128 -0.0745233073830604553 0.996227085590362549 0.0145366434007883072 0.0420298129320144653
35.4476356506347656 -59.9298629760742188 -1.5435100793838501 112 1645008936.44683552 -0.0799042880535125732 0.995482683181762695 0.0161884389817714691 0.0486569330096244812
25.5406970977783203 -61.3533439636230469 -2.32109308242797852 113 1645008937.84654427 -0.0513722039759159088 0.99782562255859375 0.0101189864799380302 0.0400321967899799347
15.1201410293579102 -62.3144607543945312 -3.06262421607971191 114 1645008939.44476056 -0.0415195785462856293 0.998214602470397949 0.00237356033176183701 0.0428736172616481781
5.73627758026123047 -66.1599197387695312 -3.88045883178710938 115 1645008941.44482493 -0.366437554359436035 0.928488016128540039 -0.0130296759307384491 0.0588531568646430969
4.32422113418579102 -68.7718734741210938 -4.05309629440307617 116 1645008942.14495158 -0.545221209526062012 0.835695981979370117 -0.024373326450586319 0.0612530931830406189
4.35339450836181641 -70.6945266723632812 -4.14928579330444336 117 1645008942.64531207 -0.691271841526031494 0.719098865985870361 -0.0134777184575796127 0.0697023123502731323
5.29685020446777344 -73.1537704467773438 -4.26242637634277344 118 1645008943.34371543 -0.81636810302734375 0.573996901512145996 -0.00943642854690551758 0.0630999207496643066
10.2458820343017578 -81.9620513916015625 -4.56130313873291016 119 1645008945.24340248 -0.845667898654937744 0.533241748809814453 -0.00268182018771767616 0.0221764259040355682
12.6790132522583008 -91.9562301635742188 -4.85323381423950195 120 1645008946.74434996 -0.732846975326538086 0.680105805397033691 0.00313166389241814613 0.0195345710963010788
11.4118232727050781 -102.471183776855469 -5.21191835403442383 121 1645008948.24572825 -0.615739107131958008 0.787437975406646729 0.000456854060757905245 0.0284006223082542419
6.72344732284545898 -111.417594909667969 -5.55825281143188477 122 1645008949.74545336 -0.430587440729141235 0.902162134647369385 -0.00409046187996864319 0.0260990727692842484
-1.22114861011505127 -118.369636535644531 -6.02190923690795898 123 1645008951.34598494 -0.283974021673202515 0.95847707986831665 -0.00262878346256911755 0.0259519461542367935
-11.1829423904418945 -121.432411193847656 -6.45982217788696289 124 1645008953.04603744 -0.0810982584953308105 0.996128737926483154 -0.0236233565956354141 0.0243430063128471375
-20.2002239227294922 -121.140907287597656 -7.15930891036987305 125 1645008954.64637518 0.10348956286907196 0.993052542209625244 0.00312219606712460518 0.0559177584946155548
-25.9811115264892578 -118.320121765136719 -7.66966819763183594 126 1645008955.74584699 0.279031038284301758 0.959712624549865723 -0.00110343878623098135 0.0330473892390727997
-33.9219284057617188 -111.765541076660156 -7.85044002532958984 127 1645008957.54728532 0.36216968297958374 0.932066440582275391 0.0024743187241256237 0.00889784377068281174
-41.0843505859375 -104.746925354003906 -7.92187643051147461 128 1645008959.54391384 0.378790616989135742 0.925475180149078369 -0.000844708818476647139 0.00355067313648760319
-48.6781883239746094 -102.987945556640625 -8.00581645965576172 129 1645008961.54545045 -0.158211588859558105 0.986939728260040283 -0.0248347055166959763 0.0173862334340810776
-49.5734100341796875 -109.306838989257812 -7.98893404006958008 130 1645008963.64574337 -0.808104574680328369 0.588996827602386475 0.00152259413152933121 0.00688711367547512054
-47.1941032409667969 -112.582061767578125 -7.927642822265625 131 1645008964.84146142 -0.901793718338012695 0.43209761381149292 -0.00328106735832989216 -0.00699663581326603889
-43.3033027648925781 -115.316123962402344 -7.91211700439453125 132 1645008966.14183879 -0.966044485569000244 0.258321315050125122 0.00330265588127076626 -0.00414754217490553856
-39.3788681030273438 -116.219337463378906 -7.90935277938842773 133 1645008967.24161768 -0.997487962245941162 0.0706789717078208923 -0.00160832679830491543 0.00443078065291047096
-29.6785316467285156 -117.380989074707031 -7.7769012451171875 134 1645008969.24466586 -0.991581380367279053 0.129104971885681152 -0.00991147942841053009 -0.000226662072236649692
-19.0868778228759766 -120.025527954101562 -7.06798315048217773 135 1645008971.24487042 -0.995651900768280029 0.0773157626390457153 -0.0514493323862552643 0.00724763143807649612
-7.9244232177734375 -119.302734375 -6.373870849609375 136 1645008973.24326563 -0.992987871170043945 -0.113656416535377502 -0.0324335917830467224 0.00231045717373490334
0.565576791763305664 -115.142410278320312 -5.9310755729675293 137 1645008974.84157586 -0.955273211002349854 -0.294509381055831909 -0.0267092585563659668 0.00198438321240246296
5.5359349250793457 -109.765274047851562 -5.62098598480224609 138 1645008976.04387093 -0.889472663402557373 -0.456373006105422974 -0.0235810335725545883 0.00245303590781986713
8.45162105560302734 -102.818321228027344 -5.36252355575561523 139 1645008977.2429378 -0.795820534229278564 -0.605266690254211426 -0.0178595669567584991 0.00173551880288869143
9.49136543273925781 -91.0103530883789062 -4.96516847610473633 140 1645008979.24460077 -0.690628588199615479 -0.723056316375732422 -0.014093044213950634 0.0048079383559525013
6.72879552841186523 -82.2099761962890625 -4.6725306510925293 141 1645008981.23980594 -0.554215908050537109 -0.832105875015258789 -0.019874032586812973 0.00704170344397425652
1.64411985874176025 -74.466217041015625 -4.45564937591552734 142 1645008983.24447966 -0.423569917678833008 -0.905582249164581299 -0.00868529453873634338 0.0208299625664949417
-4.61870574951171875 -69.8408737182617188 -4.54013490676879883 143 1645008984.74319243 -0.257014304399490356 -0.966024219989776611 -0.0133067294955253601 -0.0237435009330511093
-14.9255609512329102 -67.2808837890625 -4.85179233551025391 144 1645008986.54147458 -0.0527098439633846283 -0.998499870300292969 -0.0118715278804302216 -0.00887227617204189301
-25.1606159210205078 -67.1408843994140625 -4.99596214294433594 145 1645008988.039078 0.00488988403230905533 -0.999947428703308105 -0.00792670994997024536 -0.00429523689672350883
-35.3561553955078125 -66.5745697021484375 -4.953857421875 146 1645008989.43908238 -0.0536895431578159332 -0.998530805110931396 -0.00156357022933661938 0.00715591665357351303
-45.4918975830078125 -64.472564697265625 -4.73491716384887695 147 1645008990.83850741 -0.137220859527587891 -0.990448296070098877 0.00197687419131398201 0.01336707454174757
-54.9538612365722656 -60.7866363525390625 -4.33292150497436523 148 1645008992.23949289 -0.225692063570022583 -0.973865926265716553 -0.0030806446447968483 0.0252745058387517929
-64.0663299560546875 -55.2467269897460938 -3.70697736740112305 149 1645008993.74047446 -0.305284827947616577 -0.951706826686859131 -0.00984764937311410904 0.0309567339718341827
-72.3214874267578125 -48.9588661193847656 -2.84221982955932617 150 1645008995.23887253 -0.332273989915847778 -0.942213952541351318 -0.0171136371791362762 0.0391657128930091858
-80.2757949829101562 -42.5662269592285156 -1.94162881374359131 151 1645008996.83820677 -0.339267432689666748 -0.939653873443603516 -0.0109062502160668373 0.0427695959806442261
-88.4134979248046875 -36.0953140258789062 -0.935339629650115967 152 1645008998.73878145 -0.340279966592788696 -0.939106941223144531 -0.0173455551266670227 0.0445734113454818726
-95.9486541748046875 -29.5686149597167969 -0.0585095398128032684 153 1645009000.63975835 -0.395491600036621094 -0.917671620845794678 -0.0124152237549424171 0.0362087339162826538
-99.5394973754882812 -23.3608875274658203 0.474007666110992432 154 1645009002.24077773 -0.556937098503112793 -0.829543828964233398 -0.00240757898427546024 0.0408940538763999939
-100.24609375 -18.0091342926025391 0.806939363479614258 155 1645009003.34045076 -0.69455951452255249 -0.717660069465637207 -0.00629349937662482262 0.0501147769391536713
-99.398529052734375 -12.8175287246704102 1.06423735618591309 156 1645009004.34217787 -0.807979762554168701 -0.588952958583831787 0.00513970386236906052 0.0166350677609443665
-97.4236831665039062 -9.78234577178955078 1.27707827091217041 157 1645009005.04121089 -0.897718369960784912 -0.439835399389266968 -0.0178778804838657379 0.0180801209062337875
-89.2964935302734375 -3.60665678977966309 1.66470861434936523 158 1645009006.94212341 -0.961079001426696777 -0.275779008865356445 -0.0100378440693020821 0.0131259756162762642
-85.7584457397460938 -2.65780758857727051 1.66398429870605469 159 1645009007.74096727 -0.996360838413238525 -0.0809204801917076111 0.0156979523599147797 0.02169041708111763
-84.4660873413085938 -3.14084315299987793 1.59622502326965332 160 1645009008.14163399 -0.993682980537414551 0.106630839407444 0.0269044991582632065 0.0223632324486970901
-83.453125 -4.11974143981933594 1.43328857421875 161 1645009008.5417428 -0.955560982227325439 0.288890093564987183 0.0432228818535804749 0.039717458188533783
-81.9147720336914062 -6.34772348403930664 1.18955719470977783 162 1645009009.24367809 -0.883273899555206299 0.466533958911895752 0.0422919616103172302 0.0196121744811534882
-77.2821197509765625 -15.4224462509155273 0.355332285165786743 163 1645009011.04223537 -0.863934636116027832 0.499714761972427368 0.0220205038785934448 0.0584564618766307831
-70.7207794189453125 -23.31939697265625 -0.672314226627349854 164 1645009012.44116664 -0.914067745208740234 0.403096914291381836 0.0322410054504871368 0.0308791864663362503
-63.3008384704589844 -30.5852775573730469 -1.46053183078765869 165 1645009013.74235582 -0.931771934032440186 0.360525399446487427 0.0292136482894420624 0.0311289038509130478
-55.5418663024902344 -37.3673973083496094 -2.2274940013885498 166 1645009015.04291224 -0.939045190811157227 0.33936658501625061 0.0298890732228755951 0.0461639203131198883
-46.7815361022949219 -42.2826309204101562 -2.87775015830993652 167 1645009016.34265089 -0.972645938396453857 0.227758705615997314 0.028111213818192482 0.0359939150512218475
-36.92694091796875 -45.8001060485839844 -3.29939007759094238 168 1645009017.84454203 -0.989775419235229492 0.136249154806137085 0.0187857300043106079 0.0377876535058021545
-30.878997802734375 -46.1565322875976562 -3.38166975975036621 169 1645009018.94481969 -0.998035073280334473 -0.0425632409751415253 0.00893762614578008652 0.0451046228408813477
-28.4729824066162109 -45.1571884155273438 -3.37488341331481934 170 1645009019.54415894 -0.975297272205352783 -0.215181112289428711 0.0174387060105800629 0.0467776879668235779
-26.8974533081054688 -43.4743003845214844 -3.33400917053222656 171 1645009020.14506769 -0.913616359233856201 -0.403650045394897461 0.0157025102525949478 0.0460994690656661987
-26.0998287200927734 -41.3822059631347656 -3.26453518867492676 172 1645009020.74209428 -0.825088679790496826 -0.563011646270751953 0.0186507310718297958 0.0435746721923351288
-26.0096664428710938 -37.9657669067382812 -3.12176084518432617 173 1645009021.54621959 -0.712929666042327881 -0.699945688247680664 0.0119310766458511353 0.0408040694892406464
-27.1722679138183594 -32.3380546569824219 -2.85231900215148926 174 1645009022.74359584 -0.57530522346496582 -0.816418230533599854 0.0204981379210948944 0.045442875474691391
-29.3030738830566406 -29.4740982055664062 -2.62210893630981445 175 1645009023.4430697 -0.409031957387924194 -0.911311447620391846 0.0255464967340230942 0.0393910147249698639
-38.7236442565917969 -24.9700984954833984 -2.0024716854095459 176 1645009025.43746781 -0.228708907961845398 -0.973058223724365234 -0.00365942786447703838 0.0289219208061695099
-47.2583961486816406 -19.4205608367919922 -1.37397515773773193 177 1645009027.24262953 -0.330819696187973022 -0.943101584911346436 -0.00663532596081495285 0.032766878604888916
-56.7851448059082031 -11.7238931655883789 -0.529358029365539551 178 1645009029.34038615 -0.28616902232170105 -0.957123935222625732 -0.00258781807497143745 0.0448810942471027374
-66.6174697875976562 -8.53726005554199219 0.346043109893798828 179 1645009031.14288521 -0.0275738406926393509 -0.998549342155456543 0.021443244069814682 0.0409760065376758575
-78.8372268676757812 -8.42778491973876953 0.904160380363464355 180 1645009033.23951006 -0.144917204976081848 -0.988794565200805664 -0.0309202726930379868 0.0181173607707023621
-82.687896728515625 -6.20437240600585938 1.20481956005096436 181 1645009034.04268694 -0.323919951915740967 -0.944723427295684814 -0.0444446541368961334 0.0244586970657110214
-84.245697021484375 -3.89172983169555664 1.47603857517242432 182 1645009034.64168334 -0.516126513481140137 -0.85512995719909668 -0.0468379668891429901 0.0131314294412732124
-84.3620529174804688 -1.90456318855285645 1.71328246593475342 183 1645009035.14014864 -0.670621216297149658 -0.740470170974731445 -0.031160939484834671 0.031624913215637207
-83.7320404052734375 0.319874972105026245 1.86096394062042236 184 1645009035.74125695 -0.794269084930419922 -0.606765329837799072 -0.0223012305796146393 0.0217974074184894562
-80.0225296020507812 8.63955020904541016 2.35527825355529785 185 1645009037.83781147 -0.800058603286743164 -0.599636375904083252 -0.0116434134542942047 0.0143820876255631447
-77.8472671508789062 18.5188541412353516 2.63653898239135742 186 1645009039.73872614 -0.809869349002838135 -0.586167514324188232 -0.0227874312549829483 -5.59012260055169463e-05
-75.9143829345703125 21.3735713958740234 2.68341183662414551 187 1645009040.43900013 -0.910862326622009277 -0.411219805479049683 -0.00748336175456643105 -0.0342364795506000519
-73.5397109985351562 22.57135009765625 2.68995070457458496 188 1645009041.03668427 -0.97482454776763916 -0.222145825624465942 0.00425190804526209831 -0.0187144055962562561
-71.0557632446289062 22.7888221740722656 2.66683101654052734 189 1645009041.63684225 -0.99919503927230835 -0.0364658050239086151 0.0112392287701368332 -0.0123786060139536858
-68.536529541015625 22.0247974395751953 2.63250470161437988 190 1645009042.23748708 -0.986399710178375244 0.163148924708366394 0.0121014639735221863 -0.0158618036657571793
-66.687164306640625 20.5254592895507812 2.53372931480407715 191 1645009042.737993 -0.93626779317855835 0.349226921796798706 0.0350134856998920441 -0.0147375715896487236
-65.609954833984375 18.4694156646728516 2.43224191665649414 192 1645009043.23620367 -0.85552978515625 0.516262829303741455 0.0387805178761482239 -0.00612784875556826591
-61.608001708984375 7.76937294006347656 2.11313462257385254 193 1645009045.3355062 -0.873084008693695068 0.487438589334487915 0.00539388321340084076 0.00994128081947565079
-52.17767333984375 -2.44446206092834473 1.4037020206451416 194 1645009047.33585858 -0.940468549728393555 0.336893767118453979 0.0426761358976364136 0.0141517585143446922
-38.2354621887207031 -9.82864761352539062 0.0216833911836147308 195 1645009049.33666635 -0.978726208209991455 0.203610390424728394 0.023341003805398941 0.00964514259248971939
-31.1927928924560547 -11.1161766052246094 -0.287892729043960571 196 1645009050.23586011 -0.999536693096160889 0.0205285213887691498 0.0134643362835049629 0.0179929304867982864
-14.9624185562133789 -9.37647151947021484 -0.319270789623260498 197 1645009052.33587337 -0.99599069356918335 -0.0887228697538375854 -0.000149092200445011258 0.0114334095269441605
0.11298680305480957 -6.87599420547485352 -0.216514945030212402 198 1645009054.33598185 -0.996967196464538574 -0.0753393620252609253 -0.00324281002394855022 0.0192319992929697037
15.1739044189453125 -4.53253030776977539 -0.0778815224766731262 199 1645009056.33862352 -0.997126460075378418 -0.0734589472413063049 -0.016316363587975502 0.0087407771497964859
25.3999958038330078 -3.02347660064697266 0.321601808071136475 200 1645009057.73688316 -0.997662782669067383 -0.0664585158228874207 -0.0152961360290646553 0.00426864903420209885
35.4254951477050781 -0.988684475421905518 0.748736083507537842 201 1645009059.3386519 -0.981613397598266602 -0.18875594437122345 -0.0111970063298940659 0.0260960143059492111
38.8347740173339844 1.71175289154052734 0.959733128547668457 202 1645009060.13788033 -0.930549681186676025 -0.365102887153625488 -0.0223965533077716827 0.0165988374501466751
45.32421875 8.01539802551269531 1.29476344585418701 203 1645009062.13924074 -0.945694029331207275 -0.324114024639129639 -0.023984929546713829 0.00613775895908474922
54.8524093627929688 11.8207988739013672 1.5457150936126709 204 1645009064.23754382 -0.996166765689849854 -0.0865309238433837891 -0.0114222308620810509 0.00580817693844437599
64.96881103515625 12.7794122695922852 1.74368441104888916 205 1645009066.14425993 -0.999643027782440186 -0.0264655854552984238 -0.00355735630728304386 -0.00087394908769056201
72.4375381469726562 17.0283317565917969 2.02194118499755859 206 1645009068.23702312 -0.866624593734741211 -0.498572438955307007 -0.00615980848670005798 0.0186910852789878845
72.8235931396484375 19.6769065856933594 2.07734966278076172 207 1645009068.83951306 -0.759599030017852783 -0.650283455848693848 -0.00378308095969259739 0.0112435575574636459
72.3108673095703125 29.6708011627197266 2.24666666984558105 208 1645009070.73971868 -0.661935150623321533 -0.749506473541259766 -0.0026101972907781601 0.00866562314331531525
70.324615478515625 39.6233596801757812 2.405792236328125 209 1645009072.74009848 -0.625456750392913818 -0.780198156833648682 -0.00459993025287985802 0.00857865624129772186
68.5858612060546875 49.0285415649414062 2.49054408073425293 210 1645009074.74136925 -0.651971638202667236 -0.758165419101715088 -0.00652377959340810776 -0.00869779940694570541
67.5138778686523438 56.297882080078125 2.52128791809082031 211 1645009076.83885026 -0.656913697719573975 -0.753463506698608398 -0.0131110921502113342 -0.02419271320104599
67.366058349609375 57.0199623107910156 2.53229045867919922 212 1645009078.93846321 -0.655602335929870605 -0.754407525062561035 -0.0247828904539346695 -0.0209917444735765457
