# .PCD v0.7 - Point Cloud Data file format
VERSION 0.7
FIELDS x y z intensity t qx qy qz qw
SIZE 4 4 4 4 8 4 4 4 4
TYPE F F F F F F F F F
COUNT 1 1 1 1 1 1 1 1 1
WIDTH 351
HEIGHT 1
VIEWPOINT 0 0 0 1 0 0 0
POINTS 351
DATA ascii
5.3887176513671875 -1.28948116302490234 6.07667207717895508 0 1645007741.47201657 0.999650418758392334 -0.0140617182478308678 -0.00395194441080093384 -0.0220384467393159866
6.62531471252441406 -1.37636983394622803 6.09561014175415039 1 1645007743.67142367 0.999310016632080078 -0.0307704657316207886 0.00824471376836299896 -0.0190983414649963379
14.0423250198364258 -1.88699793815612793 6.07492494583129883 2 1645007745.67246842 0.998999893665313721 -0.0438379384577274323 -0.00257569341920316219 -0.00841668806970119476
24.4713459014892578 -3.15288305282592773 6.0972447395324707 3 1645007747.57405972 0.997237503528594971 -0.0730204656720161438 0.0132803143933415413 -0.00300866737961769104
34.9738922119140625 -4.42097330093383789 6.43848609924316406 4 1645007749.27458715 0.999028623104095459 -0.0403193123638629913 0.0168741624802350998 -0.00561049813404679298
44.9906082153320312 -4.68473434448242188 6.78790426254272461 5 1645007750.87465262 0.998591601848602295 0.0441417992115020752 0.0182124469429254532 -0.0231216475367546082
51.5024757385253906 -2.39900851249694824 7.04216957092285156 6 1645007751.97638321 0.975303113460540771 0.219955548644065857 0.00871586520224809647 -0.0180934295058250427
60.7122993469238281 1.9989781379699707 7.36102724075317383 7 1645007753.77677822 0.99017786979675293 0.139287441968917847 0.0085989050567150116 0.00853301957249641418
70.9504470825195312 1.92811179161071777 7.51507806777954102 8 1645007755.57815671 0.998334527015686035 -0.0486859828233718872 0.00464950641617178917 -0.0305985528975725174
81.3647308349609375 1.33999538421630859 7.7123875617980957 9 1645007757.57446265 0.999901533126831055 0.00133019452914595604 0.00741213653236627579 -0.0118408277630805969
89.7249832153320312 4.80525302886962891 7.86020183563232422 10 1645007759.57567906 0.95528334379196167 0.294703006744384766 -0.00668355822563171387 -0.0232205204665660858
93.0111083984375 8.48790264129638672 7.87120819091796875 11 1645007760.97750092 0.888248562812805176 0.459004342555999756 -0.00761818932369351387 -0.0164753403514623642
93.8997955322265625 11.2705402374267578 7.90197372436523438 12 1645007762.07620597 0.788994133472442627 0.613707780838012695 -0.013209829106926918 -0.0260101743042469025
93.5986175537109375 13.6387653350830078 7.95282316207885742 13 1645007762.9783597 0.661483228206634521 0.749175846576690674 -0.0076426137238740921 -0.0334223359823226929
92.2377395629882812 16.4571247100830078 8.02189826965332031 14 1645007763.97693276 0.52014690637588501 0.853898048400878906 -0.00463625369593501091 -0.0168470814824104309
88.5228652954101562 22.1138191223144531 8.18940925598144531 15 1645007765.97824264 0.50479358434677124 0.863082587718963623 0.0100714331492781639 -0.0130552435293793678
85.37371826171875 31.3669567108154297 8.20015430450439453 16 1645007767.98031902 0.643559753894805908 0.764882445335388184 0.0236115492880344391 0.0151057085022330284
85.42156982421875 41.0120773315429688 8.22553825378417969 17 1645007770.07045889 0.766046822071075439 0.642552316188812256 0.0119404420256614685 0.01249648816883564
90.7809066772460938 46.7647247314453125 8.42599201202392578 18 1645007772.07412624 0.975488603115081787 0.219460412859916687 0.0154947154223918915 0.00435762340202927589
100.108489990234375 47.2700729370117188 8.49266242980957031 19 1645007774.07603908 0.997532188892364502 -0.0693687498569488525 -0.00115687504876405001 0.0107789700850844383
102.940422058105469 45.9584579467773438 8.5116424560546875 20 1645007774.77538562 0.96988070011138916 -0.243551954627037048 0.00197559921070933342 0.00315796956419944763
104.690147399902344 44.0099258422851562 8.55602931976318359 21 1645007775.37166882 0.908084332942962646 -0.418779551982879639 -0.00250690779648721218 0.000480893970234319568
105.656585693359375 41.4577140808105469 8.53064823150634766 22 1645007775.97378039 0.813821256160736084 -0.581055045127868652 -0.00836397614330053329 -7.13445260771550238e-05
105.821327209472656 35.769683837890625 8.43700885772705078 23 1645007777.07139683 0.700401246547698975 -0.713580787181854248 0.006483463104814291 -0.0140897259116172791
104.848037719726562 25.4426097869873047 8.25204372406005859 24 1645007778.77158237 0.664767980575561523 -0.746633589267730713 0.0152949579060077667 -0.0196930710226297379
103.749526977539062 15.1075315475463867 8.09488582611083984 25 1645007780.37160826 0.664213597774505615 -0.747318685054779053 0.0117112724110484123 -0.0140694770961999893
102.451438903808594 4.6879878044128418 7.93715286254882812 26 1645007781.9698534 0.659202158451080322 -0.75173485279083252 0.0113922096788883209 -0.014744848944246769
101.010719299316406 -5.59082126617431641 7.82456684112548828 27 1645007783.56996918 0.653763771057128906 -0.756330251693725586 0.0209014751017093658 -0.0109820235520601273
98.5408477783203125 -12.8421106338500977 7.78875732421875 28 1645007784.87130666 0.494950801134109497 -0.868907272815704346 -0.00298749841749668121 -0.00385813554748892784
95.5737457275390625 -15.8408632278442383 7.79458951950073242 29 1645007785.67081666 0.327281296253204346 -0.944725930690765381 -0.0157864373177289963 -0.0114312134683132172
91.46514892578125 -17.5133838653564453 7.66910505294799805 30 1645007786.57212663 0.155539438128471375 -0.987631559371948242 -0.0139092300087213516 -0.0140699706971645355
81.1945419311523438 -19.7806663513183594 7.38476037979125977 31 1645007788.56991482 0.130369797348976135 -0.990775108337402344 0.0209480356425046921 -0.0304889306426048279
76.01275634765625 -27.3530635833740234 7.2653651237487793 32 1645007790.57452631 0.655058026313781738 -0.755158603191375732 0.0141828218474984169 -0.0208160337060689926
75.2047576904296875 -37.5726852416992188 7.22046661376953125 33 1645007792.47038817 0.713055193424224854 -0.70007014274597168 0.0231499653309583664 -0.0303011815994977951
76.41119384765625 -41.4932937622070312 7.26067686080932617 34 1645007793.37014151 0.837569832801818848 -0.544523775577545166 0.0285771898925304413 -0.0339705906808376312
78.3015899658203125 -43.1744270324707031 7.27546310424804688 35 1645007793.97060919 0.937189698219299316 -0.34745490550994873 0.00433570658788084984 -0.030524006113409996
80.1636123657226562 -43.7221336364746094 7.39705133438110352 36 1645007794.4718411 0.98407977819442749 -0.174168363213539124 0.0285494867712259293 -0.0209118034690618515
90.0404434204101562 -44.6218681335449219 7.48914813995361328 37 1645007796.47393155 0.999404966831207275 -0.0320217572152614594 0.00948530621826648712 -0.00862091220915317535
99.07769775390625 -44.2385978698730469 7.64391899108886719 38 1645007798.0720892 0.986515045166015625 0.158753752708435059 0.00135653873439878225 -0.0397921241819858551
101.494926452636719 -42.2591629028320312 7.7308354377746582 39 1645007798.67550969 0.932075262069702148 0.361525267362594604 -0.00463778432458639145 -0.0226652715355157852
102.770286560058594 -39.7096328735351562 7.78331470489501953 40 1645007799.27704263 0.840672791004180908 0.541183114051818848 -0.0115025872364640236 -0.0160555988550186157
103.089797973632812 -35.9526786804199219 7.80398368835449219 41 1645007800.07536316 0.726488471031188965 0.687115728855133057 -0.00463606417179107666 -0.00806314218789339066
104.474517822265625 -25.7216854095458984 7.81552934646606445 42 1645007802.07373714 0.844744563102722168 0.534970343112945557 0.00573178566992282867 0.0134363071992993355
109.457023620605469 -23.4016437530517578 7.86965465545654297 43 1645007803.670717 0.999531388282775879 -0.0270922575145959854 -0.00829415582120418549 0.0115837203338742256
110.4315185546875 -24.1504802703857422 7.86034107208251953 44 1645007804.0708499 0.972964763641357422 -0.229614675045013428 -0.0198014155030250549 0.0149870282039046288
110.928108215332031 -25.2265777587890625 7.84855461120605469 45 1645007804.47161007 0.905091524124145508 -0.424736350774765015 -0.0199391432106494904 0.00328470510430634022
111.018028259277344 -26.3816890716552734 7.86513185501098633 46 1645007804.87000489 0.814036905765533447 -0.580810070037841797 -0.00131157308351248503 0.00138081016484647989
111.01141357421875 -30.1380214691162109 7.84502792358398438 47 1645007805.86946917 0.694147348403930664 -0.719832241535186768 -0.000368965411325916648 0.000897445192094892263
109.583076477050781 -40.9850540161132812 7.83425235748291016 48 1645007807.96967363 0.630149245262145996 -0.776467859745025635 -0.00308253918774425983 -0.000286126742139458656
108.043342590332031 -44.2094764709472656 7.81487464904785156 49 1645007808.67076731 0.485147923231124878 -0.874177098274230957 -0.0211129225790500641 0.000366426538676023483
105.92071533203125 -45.8521652221679688 7.75505971908569336 50 1645007809.26993489 0.301041364669799805 -0.953072309494018555 -0.0295420493930578232 -0.0124333836138248444
103.581146240234375 -46.4112396240234375 7.7215728759765625 51 1645007809.87218809 0.108513325452804565 -0.993619799613952637 -0.0252167098224163055 -0.0175702311098575592
93.8724288940429688 -45.39666748046875 7.53653287887573242 52 1645007811.97027826 -0.041945870965719223 -0.999070107936859131 -0.00660620070993900299 -0.00747038982808589935
84.5334243774414062 -48.2371444702148438 7.38020658493041992 53 1645007814.07021213 0.293135076761245728 -0.9559783935546875 0.00296961050480604172 0.0129741253331303596
82.1032943725585938 -50.8582496643066406 7.60493326187133789 54 1645007814.87016678 0.452074170112609863 -0.890202164649963379 0.0555310994386672974 0.00924118142575025558
80.8413772583007812 -60.1228179931640625 8.20611858367919922 55 1645007816.87047219 0.714239537715911865 -0.697821080684661865 0.0488609336316585541 -0.0228089131414890289
80.7933883666992188 -70.681121826171875 8.4001312255859375 56 1645007818.77023387 0.685089528560638428 -0.725153148174285889 0.0641914606094360352 -0.0261656586080789566
79.9312973022460938 -80.8888473510742188 8.49978542327880859 57 1645007820.36942625 0.663789153099060059 -0.747289299964904785 0.0187817048281431198 -0.0242888927459716797
78.9835128784179688 -90.9711151123046875 8.23971939086914062 58 1645007821.87404346 0.669451534748077393 -0.74220508337020874 0.00990781094878911972 -0.029463641345500946
77.3570327758789062 -101.177001953125 8.00721836090087891 59 1645007823.37180948 0.669992268085479736 -0.741713523864746094 0.0174642708152532578 -0.0258145835250616074
77.288238525390625 -111.625762939453125 7.89320516586303711 60 1645007824.87237 0.707810878753662109 -0.70528489351272583 0.0182586628943681717 -0.0352652445435523987
76.7924346923828125 -122.034538269042969 7.82827043533325195 61 1645007826.37461734 0.672218859195709229 -0.73961329460144043 0.0252405442297458649 -0.0213750451803207397
75.5426483154296875 -132.231613159179688 7.87928676605224609 62 1645007827.87401605 0.655859231948852539 -0.754122138023376465 0.0252203494310379028 -0.0226359125226736069
76.08843994140625 -139.49981689453125 8.11634349822998047 63 1645007829.57361054 0.826340079307556152 -0.561004579067230225 0.0383072644472122192 -0.0311209000647068024
77.4279937744140625 -140.617477416992188 8.21697139739990234 64 1645007830.27356935 0.920810878276824951 -0.389308720827102661 0.0204858817160129547 -0.0112421801313757896
78.9509811401367188 -141.068191528320312 8.31464862823486328 65 1645007830.97334075 0.979509532451629639 -0.197836562991142273 0.0331740528345108032 -0.0179225020110607147
80.4640350341796875 -140.956939697265625 8.37883758544921875 66 1645007831.47334623 0.999239325523376465 -0.024203786626458168 0.0226575657725334167 -0.0205324739217758179
83.2621994018554688 -139.9976806640625 8.53585720062255859 67 1645007832.47496796 0.986507773399353027 0.161949262022972107 0.0222557187080383301 -0.00891900062561035156
85.458282470703125 -138.220733642578125 8.62538814544677734 68 1645007833.47340155 0.94187319278717041 0.335563719272613525 0.0145029556006193161 0.00784796569496393204
86.4615402221679688 -136.247421264648438 8.61517238616943359 69 1645007834.27056575 0.858189105987548828 0.513196051120758057 0.000729518185835331678 0.0118646714836359024
86.5958404541015625 -133.952423095703125 8.54469490051269531 70 1645007835.07564473 0.741560220718383789 0.670583605766296387 -0.0052237282507121563 0.0194626133888959885
85.875946044921875 -131.454605102539062 8.43102264404296875 71 1645007835.97170281 0.60186845064163208 0.798189997673034668 -0.00794546492397785187 0.0241659283638000488
84.4163436889648438 -129.608856201171875 8.30791187286376953 72 1645007836.77493382 0.438105851411819458 0.898463904857635498 -0.0159215107560157776 0.0239245705306529999
82.3480987548828125 -128.458541870117188 8.15779209136962891 73 1645007837.57221889 0.261764794588088989 0.964634120464324951 -0.0222437269985675812 0.0215724781155586243
79.8236923217773438 -128.174346923828125 8.01336383819580078 74 1645007838.37286162 0.0615914501249790192 0.997104167938232422 -0.0134040806442499161 0.0425458624958992004
77.81683349609375 -128.70184326171875 7.90253782272338867 75 1645007838.97576284 -0.11632990837097168 0.991908252239227295 -0.0354131050407886505 0.0364859774708747864
76.3267974853515625 -129.819915771484375 7.83940315246582031 76 1645007839.47274351 -0.289724528789520264 0.955541431903839111 -0.0415320731699466705 0.0357124730944633484
75.2288436889648438 -131.54986572265625 7.80203533172607422 77 1645007839.97573233 -0.464740633964538574 0.883423686027526855 -0.0482717230916023254 0.0353357233107089996
74.6718368530273438 -142.175979614257812 8.10043621063232422 78 1645007842.07523942 -0.745390415191650391 0.665162742137908936 -0.0356254950165748596 0.0261242464184761047
75.8665618896484375 -152.192779541015625 8.34822463989257812 79 1645007843.67648363 -0.742987751960754395 0.668523132801055908 -0.0296195987612009048 0.0129875261336565018
76.5874099731445312 -162.69488525390625 8.78633594512939453 80 1645007845.272053 -0.7279052734375 0.684396982192993164 -0.0384104400873184204 0.016711261123418808
78.2923736572265625 -173.12420654296875 9.28583621978759766 81 1645007846.9771688 -0.783072054386138916 0.620678544044494629 -0.0391523689031600952 0.00483465241268277168
80.8608932495117188 -182.853897094726562 9.80257701873779297 82 1645007848.67062616 -0.797498047351837158 0.602195978164672852 -0.0361124277114868164 0.00726360548287630081
82.2222900390625 -193.02972412109375 10.2826414108276367 83 1645007850.67330742 -0.645625293254852295 0.76341545581817627 -0.0184573717415332794 0.0049122166819870472
80.1588516235351562 -197.214523315429688 10.3109827041625977 84 1645007851.67213702 -0.490546077489852905 0.871027469635009766 -0.0246079973876476288 0.00837692897766828537
73.0773773193359375 -204.5172119140625 10.2428207397460938 85 1645007853.56981349 -0.356281757354736328 0.93406909704208374 -0.0178756210952997208 0.0160821620374917984
66.0187759399414062 -212.104904174804688 10.3477840423583984 86 1645007855.47009015 -0.407404065132141113 0.913084208965301514 -0.0169642083346843719 0.00338163180276751518
59.8743705749511719 -220.627532958984375 10.5420894622802734 87 1645007857.47010303 -0.460938245058059692 0.887287676334381104 -0.00398516794666647911 -0.0155141772702336311
54.9264030456542969 -229.728668212890625 10.8691349029541016 88 1645007859.36964273 -0.543490231037139893 0.839176416397094727 -0.0176036171615123749 -0.00956392381340265274
51.3789901733398438 -239.075241088867188 11.2808122634887695 89 1645007861.16921449 -0.59353327751159668 0.804360091686248779 -0.0199036095291376114 -0.018080415204167366
50.191253662109375 -249.100067138671875 11.8238134384155273 90 1645007863.06944895 -0.710801422595977783 0.702883243560791016 -0.0251450613141059875 -0.00917282048612833023
51.0968513488769531 -258.35601806640625 12.3273153305053711 91 1645007865.07088733 -0.718893051147460938 0.694472610950469971 -0.00195584911853075027 -0.0299469120800495148
51.9935188293457031 -267.848968505859375 12.9135932922363281 92 1645007867.16923499 -0.768177807331085205 0.639643311500549316 -0.0169440582394599915 -0.0217283293604850769
53.2203369140625 -273.60052490234375 13.2829952239990234 93 1645007869.27193499 -0.774207234382629395 0.632912278175354004 -6.26969049335457385e-05 -0.00501603027805685997
54.0335235595703125 -277.332733154296875 13.5464696884155273 94 1645007871.36914754 -0.779888510704040527 0.625372529029846191 -0.0243075005710124969 -0.00960484892129898071
55.0476112365722656 -282.375640869140625 13.9038219451904297 95 1645007873.46964455 -0.770795583724975586 0.636030495166778564 -0.0360423289239406586 -0.00635302113369107246
55.8416938781738281 -288.993621826171875 14.144291877746582 96 1645007875.47009325 -0.739309191703796387 0.672305703163146973 -0.026415528729557991 0.0270042922347784042
57.1254959106445312 -296.833526611328125 14.1015405654907227 97 1645007877.56914425 -0.763184010982513428 0.645692050457000732 -0.00967955216765403748 0.0232003442943096161
58.3128471374511719 -305.859619140625 14.0220794677734375 98 1645007879.57158542 -0.739120781421661377 0.673187673091888428 -0.0135941673070192337 0.018276384100317955
58.9593162536621094 -315.931610107421875 13.9175891876220703 99 1645007881.57146716 -0.71552199125289917 0.697779595851898193 -0.0140565996989607811 0.0305668320506811142
57.9683609008789062 -325.05950927734375 13.6642599105834961 100 1645007883.57202935 -0.631722450256347656 0.77384263277053833 -0.0197682008147239685 0.0412741377949714661
56.2908935546875 -332.0745849609375 13.4651899337768555 101 1645007885.67126966 -0.615589261054992676 0.786894142627716064 -0.0220631696283817291 0.0368880443274974823
54.1940345764160156 -337.510498046875 13.2155008316040039 102 1645007887.76953173 -0.539425373077392578 0.839404284954071045 -0.0335489325225353241 0.0574036985635757446
51.8238029479980469 -340.422760009765625 13.2495107650756836 103 1645007889.16926599 -0.390627175569534302 0.917805075645446777 -0.0691401213407516479 0.0162461195141077042
48.4665336608886719 -342.1156005859375 13.1768274307250977 104 1645007890.37184143 -0.216838404536247253 0.973940372467041016 -0.0628053173422813416 0.0218350458890199661
44.7088394165039062 -342.795257568359375 12.9377689361572266 105 1645007891.26961017 -0.0402667634189128876 0.997689247131347656 -0.0417053177952766418 0.0354322753846645355
38.425628662109375 -341.559173583984375 12.322845458984375 106 1645007892.4686358 0.141658216714859009 0.988121867179870605 -0.0389526411890983582 0.0450642481446266174
28.8261928558349609 -337.384002685546875 11.1278209686279297 107 1645007894.0711925 0.222806498408317566 0.972123265266418457 -0.0551729276776313782 0.0478498376905918121
19.4736957550048828 -332.826690673828125 9.99023342132568359 108 1645007895.56697202 0.231041207909584045 0.970313012599945068 -0.0600601918995380402 0.0387997515499591827
10.2051334381103516 -327.9920654296875 8.95811271667480469 109 1645007897.06960607 0.249332442879676819 0.965987205505371094 -0.0575126186013221741 0.0373416692018508911
1.15215754508972168 -322.833251953125 7.99395370483398438 110 1645007898.5718205 0.270876884460449219 0.960274398326873779 -0.0574409589171409607 0.0346314273774623871
-7.69283390045166016 -317.3724365234375 7.07628440856933594 111 1645007900.07293487 0.287131905555725098 0.956655681133270264 -0.038375411182641983 0.029875684529542923
-16.3587703704833984 -311.59521484375 6.14825201034545898 112 1645007901.57079268 0.29581788182258606 0.953432202339172363 -0.0487071536481380463 0.0329607464373111725
-24.7578334808349609 -305.492401123046875 5.21600675582885742 113 1645007903.07073689 0.315278530120849609 0.947329699993133545 -0.0468764863908290863 0.031119905412197113
-33.4276390075683594 -299.806182861328125 4.35058832168579102 114 1645007904.56659245 0.285606503486633301 0.956826388835906982 -0.0445896051824092865 0.0303968098014593124
-41.9840660095214844 -293.934173583984375 3.54844999313354492 115 1645007906.06998777 0.312182515859603882 0.948773980140686035 -0.0410952232778072357 0.0260993316769599915
-50.1390647888183594 -287.6195068359375 2.74507284164428711 116 1645007907.56577444 0.331507205963134766 0.941986620426177979 -0.0454060770571231842 0.0265046972781419754
-58.0265731811523438 -280.923858642578125 1.92601466178894043 117 1645007909.06380415 0.355214118957519531 0.933442115783691406 -0.0397751517593860626 0.0304414499551057816
-65.6549530029296875 -273.97589111328125 1.16661393642425537 118 1645007910.56460357 0.374048143625259399 0.926351785659790039 -0.0364668555557727814 0.0251101590692996979
-73.1030807495117188 -266.83245849609375 0.404716432094573975 119 1645007912.06394386 0.376558631658554077 0.925319314002990723 -0.0357977859675884247 0.026575382798910141
-80.3988037109375 -259.5863037109375 -0.279181748628616333 120 1645007913.56305313 0.393437564373016357 0.918571174144744873 -0.029652101919054985 0.0235516037791967392
-87.4532012939453125 -252.031402587890625 -1.00905096530914307 121 1645007915.06276917 0.408427119255065918 0.911844253540039062 -0.0238921362906694412 0.0340069308876991272
-94.2040481567382812 -244.325271606445312 -1.5450136661529541 122 1645007916.5631454 0.413511097431182861 0.910121560096740723 -0.0208082739263772964 0.0159493125975131989
-101.020111083984375 -236.791671752929688 -2.00185680389404297 123 1645007918.0626936 0.408434867858886719 0.912521183490753174 -0.0132464887574315071 0.01762416772544384
-107.807044982910156 -229.333999633789062 -2.37787246704101562 124 1645007919.56334305 0.407686114311218262 0.912968337535858154 -0.0056124608963727951 0.015788717195391655
-115.026725769042969 -221.463424682617188 -2.71900224685668945 125 1645007921.1642344 0.407412052154541016 0.913039982318878174 -0.00960839353501796722 0.0167669337242841721
-122.213920593261719 -213.757766723632812 -2.98592495918273926 126 1645007922.7646749 0.401090413331985474 0.915964365005493164 -0.00162879039999097586 0.0115375956520438194
-129.286239624023438 -206.023223876953125 -3.20031976699829102 127 1645007924.36669564 0.41239592432975769 0.910927891731262207 0.00309101236052811146 0.0114209027960896492
-136.5931396484375 -198.365158081054688 -3.40112757682800293 128 1645007925.96791101 0.39522165060043335 0.918359994888305664 0.0159319769591093063 0.0126865953207015991
-143.764328002929688 -190.731170654296875 -3.5427091121673584 129 1645007927.56530666 0.408880710601806641 0.912292182445526123 0.0176826007664203644 0.0150637906044721603
-150.69891357421875 -182.889663696289062 -3.70123577117919922 130 1645007929.16607499 0.422588944435119629 0.906008005142211914 0.019276423379778862 0.0140189239755272865
-157.30426025390625 -174.753311157226562 -3.74382758140563965 131 1645007930.76311255 0.435651153326034546 0.900073528289794922 0.00665472075343132019 0.00560785690322518349
-163.653030395507812 -166.525390625 -3.71747374534606934 132 1645007932.36388564 0.449289232492446899 0.893376410007476807 -0.00116112071555107832 -0.00405019614845514297
-169.447540283203125 -157.857162475585938 -3.74508929252624512 133 1645007933.9625597 0.508116841316223145 0.861283719539642334 0.000981210498139262199 0.00257442076690495014
-173.302520751953125 -148.12969970703125 -3.79580783843994141 134 1645007935.56222773 0.59964829683303833 0.800250411033630371 -0.000500834023114293814 -0.00458384538069367409
-175.094329833984375 -137.7508544921875 -3.83179998397827148 135 1645007937.16156411 0.671964108943939209 0.740531623363494873 -0.00622382527217268944 -0.00619302969425916672
-175.28399658203125 -127.240104675292969 -3.79043006896972656 136 1645007938.76282954 0.718150615692138672 0.695663273334503174 -0.01749408058822155 0.00249896175228059292
-174.82794189453125 -116.998153686523438 -3.57331013679504395 137 1645007940.36227655 0.72852635383605957 0.684881448745727539 0.0118402289226651192 -0.0068263523280620575
-174.297897338867188 -106.888832092285156 -3.23419451713562012 138 1645007941.96385193 0.72588038444519043 0.687547862529754639 0.017318999394774437 -0.00869961082935333252
-173.737991333007812 -96.9140090942382812 -2.66786670684814453 139 1645007943.56241393 0.729582786560058594 0.68314814567565918 0.0177547521889209747 -0.0265005286782979965
-173.236068725585938 -86.4571685791015625 -2.04270100593566895 140 1645007945.26304293 0.724569261074066162 0.688074111938476562 0.0340964160859584808 -0.0197692103683948517
-172.885055541992188 -76.1299667358398438 -1.24271917343139648 141 1645007946.96164894 0.723667025566101074 0.688622653484344482 0.0417388416826725006 -0.0190446861088275909
-172.599456787109375 -66.0100021362304688 -0.35941120982170105 142 1645007948.66333032 0.725035727024078369 0.687121212482452393 0.0434040986001491547 -0.0174285899847745895
-171.740692138671875 -55.5197219848632812 0.681603968143463135 143 1645007950.46333075 0.744212627410888672 0.666018426418304443 0.0394479632377624512 -0.0317933782935142517
-170.828445434570312 -45.5468177795410156 1.76596724987030029 144 1645007952.2639966 0.734329104423522949 0.67696458101272583 0.0341425612568855286 -0.0362484566867351532
-170.21826171875 -35.3214950561523438 2.85829496383666992 145 1645007954.16538215 0.728039205074310303 0.68306267261505127 0.0353794172406196594 -0.046179797500371933
-168.765914916992188 -25.2448692321777344 3.84556961059570312 146 1645007956.06505775 0.788740336894989014 0.612662255764007568 0.0324967578053474426 -0.0384392440319061279
-165.144500732421875 -15.9458742141723633 4.72455835342407227 147 1645007957.86632371 0.83726578950881958 0.543473899364471436 0.0235695410519838333 -0.055376984179019928
-160.56329345703125 -7.07079696655273438 5.67106294631958008 148 1645007959.66747236 0.863318562507629395 0.500551819801330566 0.0305216144770383835 -0.0565454363822937012
-154.774169921875 1.68519210815429688 6.57148170471191406 149 1645007961.56732202 0.898753166198730469 0.436295777559280396 0.0233101118355989456 -0.0366797037422657013
-147.486602783203125 8.53770256042480469 7.29684019088745117 150 1645007963.36487222 0.945209383964538574 0.322119921445846558 0.0314248837530612946 -0.0427833050489425659
-139.2972412109375 14.3453483581542969 8.00631904602050781 151 1645007965.1678021 0.954744637012481689 0.29506993293762207 0.0121292555704712868 -0.0353447943925857544
-130.7362060546875 20.206695556640625 8.66692733764648438 152 1645007967.06804371 0.947521507740020752 0.315683126449584961 0.024526866152882576 -0.0441085919737815857
-123.231826782226562 26.4617366790771484 9.46390438079833984 153 1645007969.06906009 0.948173880577087402 0.314456045627593994 0.02404811792075634 -0.0387993194162845612
-118.159210205078125 29.6307754516601562 9.90561676025390625 154 1645007971.07083964 0.968333423137664795 0.244094029068946838 0.033450692892074585 -0.0403679832816123962
-114.052902221679688 30.5271110534667969 10.0686731338500977 155 1645007972.36726093 0.996271073818206787 0.0711056962609291077 0.0128319896757602692 -0.0471520125865936279
-109.409507751464844 29.9444236755371094 10.1059341430664062 156 1645007973.7675612 0.993201851844787598 -0.106903500854969025 0.00938421022146940231 -0.0450959578156471252
-106.010498046875 28.1500873565673828 10.0101423263549805 157 1645007974.66164327 0.959351181983947754 -0.279355257749557495 0.000308754679281264544 -0.0400737039744853973
-102.9144287109375 24.7783184051513672 9.63502597808837891 158 1645007975.56710339 0.893868327140808105 -0.445860981941223145 -0.0422744154930114746 -0.020499715581536293
-97.6479263305664062 16.0388832092285156 8.6490325927734375 159 1645007977.36591959 0.88707810640335083 -0.460757970809936523 -0.0227818936109542847 -0.0165992565453052521
-91.5896377563476562 8.03009700775146484 7.73791790008544922 160 1645007978.96459985 0.881704568862915039 -0.468792647123336792 -0.0439676418900489807 -0.0299557261168956757
-85.7359085083007812 0.0138930398970842361 6.57987403869628906 161 1645007980.46637106 0.896845221519470215 -0.438891410827636719 -0.0550652556121349335 -0.00328663154505193233
-79.2564697265625 -8.36634159088134766 5.47654867172241211 162 1645007981.96552491 0.892739653587341309 -0.447078317403793335 -0.0523464903235435486 -0.0199175123125314713
-73.1882171630859375 -16.6606369018554688 4.39137887954711914 163 1645007983.36227226 0.890241444110870361 -0.451696664094924927 -0.0506347157061100006 -0.0296037774533033371
-66.8028030395507812 -24.8527202606201172 3.31651115417480469 164 1645007984.7660408 0.891414999961853027 -0.450995802879333496 -0.044475991278886795 -0.00200116471387445927
-60.3643531799316406 -33.3128547668457031 2.27046751976013184 165 1645007986.16126752 0.90142524242401123 -0.429268419742584229 -0.0536457598209381104 -0.0168298389762639999
-52.9825782775878906 -40.0169868469238281 1.43774807453155518 166 1645007987.46146441 0.945386767387390137 -0.32354775071144104 -0.0384871624410152435 -0.00891343783587217331
-44.0238113403320312 -45.7457199096679688 0.736370205879211426 167 1645007988.86078954 0.966572880744934082 -0.25516200065612793 -0.0246130321174860001 -0.00483805220574140549
-34.683319091796875 -50.0161514282226562 0.322090059518814087 168 1645007990.26101351 0.982303857803344727 -0.186801284551620483 -0.0129346186295151711 -0.00413926318287849426
-24.7026329040527344 -52.7217369079589844 0.15824282169342041 169 1645007991.76120162 0.994565904140472412 -0.10409276932477951 0.00109745492227375507 -0.00145085877738893032
-14.2866010665893555 -54.1195220947265625 0.277592897415161133 170 1645007993.36111259 0.999198019504547119 -0.0381318442523479462 0.0111585622653365135 -0.00497203134000301361
-4.13991641998291016 -54.6315078735351562 0.492909789085388184 171 1645007994.96162224 0.999670803546905518 -0.0223221145570278168 0.0111097283661365509 -0.00604911660775542259
5.92107963562011719 -54.9997711181640625 0.903038501739501953 172 1645007996.56041908 0.999560952186584473 -0.0208341386169195175 0.0201403535902500153 -0.00618382217362523079
16.2744636535644531 -55.6533279418945312 1.42302083969116211 173 1645007998.2602818 0.998226761817932129 -0.0550233796238899231 0.0227077025920152664 0.000302741944324225187
26.5574302673339844 -56.77044677734375 2.00477147102355957 174 1645007999.96253085 0.99790799617767334 -0.0577944479882717133 0.0288967806845903397 -0.00208791159093379974
36.8395805358886719 -57.6612663269042969 2.63542628288269043 175 1645008001.66421247 0.998582303524017334 -0.0424676649272441864 0.0318628735840320587 0.00383239053189754486
46.950927734375 -58.3645133972167969 3.31099867820739746 176 1645008003.36209393 0.998685956001281738 -0.0375358052551746368 0.034654613584280014 0.0040607755072414875
57.0604248046875 -59.3393669128417969 4.02400493621826172 177 1645008005.06185031 0.997338473796844482 -0.0610120221972465515 0.03977232426404953 -0.0034219636581838131
67.256591796875 -60.8097648620605469 4.74532747268676758 178 1645008006.96232557 0.996371567249298096 -0.0781566053628921509 0.0336824767291545868 -0.000879097206052392721
75.5145797729492188 -60.2708320617675781 5.33934116363525391 179 1645008008.96351099 0.985619664192199707 0.16453060507774353 0.0385079942643642426 -0.000863813795149326324
78.0909957885742188 -58.3619270324707031 5.56181430816650391 180 1645008009.66294765 0.939853847026824951 0.340115636587142944 0.03152451291680336 -0.0015148078091442585
79.85589599609375 -55.4481468200683594 5.76930570602416992 181 1645008010.36468601 0.861907124519348145 0.505749523639678955 0.0361936241388320923 0.00484647555276751518
81.0925140380859375 -50.6523780822753906 5.55611848831176758 182 1645008011.26499581 0.749096810817718506 0.66174471378326416 -0.0253145694732666016 0.0175230558961629868
80.560028076171875 -46.8295478820800781 5.49857330322265625 183 1645008011.96483588 0.62352752685546875 0.781578123569488525 -0.0159698203206062317 -0.00969512108713388443
78.2627105712890625 -43.0781097412109375 5.57151126861572266 184 1645008012.7660284 0.455688804388046265 0.890117049217224121 0.00261112535372376442 0.00570061290636658669
75.7082366943359375 -33.0599098205566406 5.97632789611816406 185 1645008014.86508965 0.716843247413635254 0.696763992309570312 0.0253213886171579361 -0.00381505722180008888
78.2152633666992188 -22.3083686828613281 6.45483160018920898 186 1645008016.86513758 0.826460897922515869 0.562481999397277832 0.0235141199082136154 -0.00484159402549266815
82.5375823974609375 -13.3099279403686523 6.79718208312988281 187 1645008018.96531081 0.80618894100189209 0.590759038925170898 0.027018444612622261 -0.018251148983836174
83.5447158813476562 -3.84699773788452148 7.36446332931518555 188 1645008020.8656559 0.682547509670257568 0.730048596858978271 0.00645500654354691505 -0.0334104709327220917
82.3834381103515625 -1.26734399795532227 7.50495195388793945 189 1645008021.46355605 0.519753158092498779 0.854159772396087646 0.00235702050849795341 -0.0161922145634889603
80.6334381103515625 0.188545197248458862 7.59867191314697266 190 1645008021.96452594 0.345524132251739502 0.938282430171966553 -0.00115799484774470329 -0.0154213905334472656
78.5481338500976562 0.887206554412841797 7.54357719421386719 191 1645008022.46505237 0.185949146747589111 0.981488823890686035 0.0114210173487663269 0.0444089137017726898
70.1709671020507812 1.46994531154632568 7.36592626571655273 192 1645008024.56469941 0.0452945642173290253 0.998343884944915771 0.022431468591094017 0.0274724811315536499
60.5113029479980469 1.64761781692504883 7.20602226257324219 193 1645008026.66403055 -0.0721550285816192627 0.997208833694458008 0.00570316333323717117 0.018322361633181572
53.8722076416015625 -0.938670337200164795 6.96135520935058594 194 1645008028.06490517 -0.24331173300743103 0.969506442546844482 -0.0181481670588254929 0.0229618269950151443
44.0135307312011719 -4.82382678985595703 6.50426387786865234 195 1645008030.06509924 -0.0540584027767181396 0.998053967952728271 0.0162593107670545578 0.0264869369566440582
31.7309722900390625 -3.98587346076965332 6.05787563323974609 196 1645008032.16458416 0.0295707825571298599 0.999387562274932861 -0.000524695438798516989 0.0187019053846597672
17.7504119873046875 -2.69758772850036621 5.75710248947143555 197 1645008034.265239 0.0426275618374347687 0.999057590961456299 0.00783821661025285721 -0.00231422483921051025
3.8548126220703125 -1.77426493167877197 5.76824951171875 198 1645008036.36488938 0.0371042490005493164 0.999209225177764893 0.0142656220123171806 -0.000816078565549105406
-6.68573427200317383 -0.771557271480560303 5.79459047317504883 199 1645008037.96102166 0.0576214194297790527 0.998314082622528076 0.00515776826068758965 -0.00470698997378349304
-17.0909881591796875 0.44270700216293335 5.87772846221923828 200 1645008039.5621109 0.0625209957361221313 0.998031973838806152 0.000378485594410449266 -0.00480755185708403587
-27.1734485626220703 2.69345474243164062 6.21308660507202148 201 1645008041.16056561 0.181316018104553223 0.982964992523193359 0.00496637634932994843 -0.0296586416661739349
-35.9446067810058594 8.39149093627929688 7.08787250518798828 202 1645008042.85929036 0.34040340781211853 0.938524007797241211 0.00690875295549631119 -0.0570130087435245514
-42.5878639221191406 15.8252353668212891 8.20510768890380859 203 1645008044.55945969 0.444735974073410034 0.89397585391998291 0.00554107315838336945 -0.0546474196016788483
-47.9413299560546875 24.4794406890869141 8.85177993774414062 204 1645008046.25925136 0.537230849266052246 0.843316018581390381 0.0102643845602869987 -0.00978490244597196579
-49.9016151428222656 34.4223594665527344 9.27206134796142578 205 1645008048.06104016 0.678080737590789795 0.734404444694519043 -0.00195148074999451637 -0.029204079881310463
-53.6293563842773438 42.3211250305175781 9.71597862243652344 206 1645008050.06148934 0.341689944267272949 0.93946993350982666 -0.0130269424989819527 -0.0217830445617437363
-58.1680526733398438 43.3118247985839844 9.77317237854003906 207 1645008051.06130767 0.0117871854454278946 0.999527394771575928 -0.0281690154224634171 0.00354842445813119411
-60.2975654602050781 42.5606842041015625 9.74136543273925781 208 1645008051.56252742 -0.16377142071723938 0.986130774021148682 -0.0209494419395923615 0.0169151388108730316
-62.21942138671875 40.8641853332519531 9.67225265502929688 209 1645008052.16101003 -0.358036607503890991 0.932991147041320801 -0.0183497890830039978 0.0316319763660430908
-63.4605331420898438 38.3941078186035156 9.56946945190429688 210 1645008052.76180553 -0.522906184196472168 0.851890504360198975 -0.00452133128419518471 0.0288316532969474792
-68.9899826049804688 29.5728263854980469 9.17875480651855469 211 1645008054.66328955 -0.427627652883529663 0.903618276119232178 0.00199245265685021877 0.0245883148163557053
-76.2350997924804688 22.3416175842285156 8.68171596527099609 212 1645008056.46437073 -0.356718093156814575 0.933555424213409424 0.0314189828932285309 0.0154698323458433151
-83.97076416015625 15.9134931564331055 8.13829421997070312 213 1645008058.36373448 -0.315083682537078857 0.947633564472198486 0.0467249713838100433 0.0230142548680305481
-88.7439117431640625 12.4296798706054688 7.85505962371826172 214 1645008060.45822191 -0.332183569669723511 0.942603826522827148 0.00856681074947118759 0.0328435078263282776
-93.8575439453125 8.14529800415039062 7.84502792358398438 215 1645008062.46052003 -0.234804555773735046 0.970575094223022461 0.050722271203994751 -0.0166734717786312103
-95.8468246459960938 8.02053642272949219 7.95929718017578125 216 1645008063.06016827 -0.0508413054049015045 0.997356295585632324 0.0499211549758911133 -0.0142639977857470512
-97.4388885498046875 8.64809417724609375 8.13798809051513672 217 1645008063.65904069 0.131353631615638733 0.990382909774780273 0.0283516012132167816 -0.0329252630472183228
-98.7578964233398438 9.82245349884033203 8.44171714782714844 218 1645008064.35827994 0.302409470081329346 0.95200425386428833 0.0153860421851277351 -0.0447178483009338379
-102.341102600097656 14.3225698471069336 9.13230609893798828 219 1645008066.45780683 0.422844678163528442 0.902723193168640137 0.0353779755532741547 -0.0710042864084243774
-106.382392883300781 19.0528068542480469 9.52741909027099609 220 1645008068.55757022 0.428030967712402344 0.903022050857543945 0.0276351217180490494 -0.0240196064114570618
-111.186431884765625 22.8229446411132812 9.66125965118408203 221 1645008070.55779409 0.250378638505935669 0.967410147190093994 0.0333270542323589325 0.017817620187997818
-112.895553588867188 22.9261970520019531 9.58395481109619141 222 1645008071.25661397 0.073223799467086792 0.996213257312774658 0.0341596156358718872 0.032102145254611969
-113.785758972167969 22.3747062683105469 9.51106929779052734 223 1645008071.7568531 -0.132407903671264648 0.990414917469024658 0.0187400095164775848 0.0345726944506168365
-114.361366271972656 21.7435646057128906 9.52544212341308594 224 1645008072.25771904 -0.314521759748458862 0.948308885097503662 -0.0307010095566511154 0.0290486477315425873
-117.683052062988281 19.1286582946777344 9.19785308837890625 225 1645008074.35963607 -0.254976600408554077 0.965071380138397217 0.0300431456416845322 0.0521682910621166229
-123.360946655273438 15.5326652526855469 8.64260482788085938 226 1645008076.46011639 -0.302063226699829102 0.952390491962432861 0.0261117909103631973 0.0320673324167728424
-130.2012939453125 10.5488815307617188 7.97979450225830078 227 1645008078.55719352 -0.307626634836196899 0.950586199760437012 0.0192059818655252457 0.0371863245964050293
-137.87811279296875 5.03316545486450195 7.29130983352661133 228 1645008080.55884552 -0.307958394289016724 0.951074898242950439 0.0157403033226728439 0.0192462243139743805
-145.594390869140625 -1.22872245311737061 6.44231843948364258 229 1645008082.5603044 -0.357129037380218506 0.933250486850738525 0.0165156088769435883 0.0350660122931003571
-152.273529052734375 -9.14356613159179688 5.36863517761230469 230 1645008084.66033363 -0.449147313833236694 0.891828656196594238 0.0256126206368207932 0.0474582985043525696
-157.624664306640625 -19.2442512512207031 4.16413021087646484 231 1645008086.66033769 -0.554909467697143555 0.830733120441436768 0.020027797669172287 0.0394570194184780121
-161.097930908203125 -31.6250572204589844 2.97145748138427734 232 1645008088.76026392 -0.651434540748596191 0.756992518901824951 0.0257788822054862976 0.0439414754509925842
-162.14434814453125 -44.191864013671875 1.7196812629699707 233 1645008090.76090336 -0.68751823902130127 0.723932921886444092 0.0376857370138168335 0.0426569245755672455
-162.703277587890625 -54.2075767517089844 0.840817630290985107 234 1645008092.86428475 -0.688842296600341797 0.722896397113800049 0.0316289253532886505 0.0437805838882923126
-163.233688354492188 -63.4272804260253906 -0.0770622193813323975 235 1645008094.96391416 -0.692467749118804932 0.719861745834350586 0.034471459686756134 0.0331540703773498535
-163.94036865234375 -73.5151138305664062 -0.988904893398284912 236 1645008096.96415257 -0.680955946445465088 0.730280578136444092 0.0327363871037960052 0.0437897592782974243
-164.41717529296875 -85.3511505126953125 -2.00094962120056152 237 1645008099.06496024 -0.688731789588928223 0.723597705364227295 0.0326376557350158691 0.0314591825008392334
-165.445281982421875 -97.70404052734375 -2.81470632553100586 238 1645008101.16544533 -0.673137068748474121 0.738937914371490479 0.0174139495939016342 0.0235372763127088547
-166.158050537109375 -110.18365478515625 -3.46214199066162109 239 1645008103.26217604 -0.680554568767547607 0.73202979564666748 0.0232953839004039764 0.0208620019257068634
-166.833694458007812 -122.260894775390625 -3.84229135513305664 240 1645008105.35971999 -0.694079697132110596 0.719522655010223389 0.0110058635473251343 0.0204802174121141434
-167.213165283203125 -133.5872802734375 -4.02843999862670898 241 1645008107.46056342 -0.711892426013946533 0.702147543430328369 -0.00175439612939953804 0.0139632895588874817
-165.811508178710938 -143.763381958007812 -4.03608846664428711 242 1645008109.46104431 -0.770813345909118652 0.636821210384368896 -0.0155921261757612228 0.00790025666356086731
-161.658859252929688 -155.08673095703125 -3.98594212532043457 243 1645008111.55964732 -0.840012788772583008 0.542171180248260498 -0.0135810030624270439 0.0156352221965789795
-154.848846435546875 -165.448104858398438 -3.93614792823791504 244 1645008113.65823221 -0.897564411163330078 0.440390229225158691 -0.0130692552775144577 0.016241028904914856
-145.796585083007812 -175.442047119140625 -3.8138730525970459 245 1645008115.75765538 -0.912697494029998779 0.408572494983673096 -0.00592690147459506989 0.00407594488933682442
-136.576919555664062 -185.557235717773438 -3.51665878295898438 246 1645008117.85898256 -0.914930284023284912 0.403341174125671387 -0.0115321902558207512 0.00924375932663679123
-127.475746154785156 -195.774887084960938 -3.31106472015380859 247 1645008119.95705509 -0.90939098596572876 0.415801823139190674 -0.0104322060942649841 0.00282932072877883911
-118.798561096191406 -205.42559814453125 -3.09157180786132812 248 1645008121.95754766 -0.912994682788848877 0.407695561647415161 -0.0141347674652934074 0.00502236327156424522
-109.566368103027344 -215.47991943359375 -2.81564021110534668 249 1645008124.05560088 -0.915570378303527832 0.401842087507247925 -0.0158740170300006866 0.00134432176128029823
-100.839263916015625 -225.293350219726562 -2.5276336669921875 250 1645008126.05797577 -0.909757792949676514 0.414865076541900635 -0.0150567516684532166 0.00103105767630040646
-91.7228469848632812 -235.258651733398438 -1.89810025691986084 251 1645008128.15761042 -0.918739676475524902 0.392541021108627319 -0.0408943183720111847 -0.0125118698924779892
-83.258270263671875 -244.1737060546875 -1.3038179874420166 252 1645008130.25732636 -0.913716256618499756 0.405433893203735352 -0.0219491962343454361 -0.0162529777735471725
-76.1433944702148438 -252.219512939453125 -0.612288892269134521 253 1645008132.25990391 -0.917050361633300781 0.397140264511108398 -0.0356317758560180664 -0.00535317370668053627
-68.0986480712890625 -258.809600830078125 0.0531080290675163269 254 1645008134.35671449 -0.952583670616149902 0.302762687206268311 -0.028522346168756485 -0.0102733932435512543
-59.7585678100585938 -264.0418701171875 0.678177952766418457 255 1645008136.35711646 -0.959504306316375732 0.279661357402801514 -0.0323638580739498138 -0.0096761481836438179
-51.1247215270996094 -269.48583984375 1.34395873546600342 256 1645008138.35828924 -0.961451411247253418 0.272646635770797729 -0.0292758047580718994 -0.0204426422715187073
-42.3703384399414062 -275.0693359375 2.04727315902709961 257 1645008140.35804391 -0.956058681011199951 0.290883511304855347 -0.0322302095592021942 -0.017314298078417778
-34.7363243103027344 -279.382415771484375 2.64108848571777344 258 1645008142.35864878 -0.958131670951843262 0.282928675413131714 -0.0280497223138809204 -0.0338860973715782166
-28.4371833801269531 -284.654876708984375 3.28771710395812988 259 1645008144.35885787 -0.924198269844055176 0.379414618015289307 -0.0336953476071357727 -0.0276893805712461472
-22.3317985534667969 -290.46478271484375 4.02988767623901367 260 1645008146.36189413 -0.924332499504089355 0.378790080547332764 -0.0403262414038181305 -0.0223902333527803421
-15.727931022644043 -296.86834716796875 4.85466718673706055 261 1645008148.45813537 -0.928284823894500732 0.369162470102310181 -0.0400357805192470551 -0.0200883429497480392
-8.93402194976806641 -303.25274658203125 5.68904304504394531 262 1645008150.55642414 -0.924652218818664551 0.378359764814376831 -0.0399913713335990906 -0.0162140391767024994
-2.77948904037475586 -308.991912841796875 6.46867704391479492 263 1645008152.55908537 -0.937938392162322998 0.342960149049758911 -0.0484078414738178253 -0.0175080522894859314
4.06555652618408203 -314.3470458984375 7.49129343032836914 264 1645008154.65970111 -0.950877666473388672 0.30695652961730957 -0.0378720089793205261 -0.0132314534857869148
11.5947160720825195 -318.871368408203125 8.32243251800537109 265 1645008156.7572968 -0.963752865791320801 0.263438224792480469 -0.0356613285839557648 -0.0225617960095405579
18.4898052215576172 -322.880950927734375 8.82483673095703125 266 1645008158.7584424 -0.967067837715148926 0.246586471796035767 -0.0599557533860206604 -0.0194980613887310028
25.8557357788085938 -326.892578125 9.6814117431640625 267 1645008160.85878611 -0.966614782810211182 0.248811200261116028 -0.0539205782115459442 -0.02900661900639534
34.8213081359863281 -331.188201904296875 10.8774433135986328 268 1645008162.95841718 -0.977870821952819824 0.200725376605987549 -0.0539064668118953705 -0.0239178258925676346
42.1654815673828125 -334.29730224609375 11.8365583419799805 269 1645008165.05797148 -0.977317869663238525 0.202218741178512573 -0.0529938824474811554 -0.0338974110782146454
46.4980506896972656 -335.23760986328125 12.2688770294189453 270 1645008166.85965753 -0.997914910316467285 0.0168952737003564835 -0.0486345812678337097 -0.0389240123331546783
47.7282257080078125 -334.7314453125 12.4071121215820312 271 1645008167.35840225 -0.985347867012023926 -0.157175838947296143 -0.0650867149233818054 -0.0122102824971079826
49.1887741088867188 -333.414794921875 12.6001806259155273 272 1645008168.06078029 -0.937948465347290039 -0.341584563255310059 -0.0597546733915805817 -0.00144093029666692019
50.8649864196777344 -330.512451171875 12.8514738082885742 273 1645008169.15772748 -0.856570243835449219 -0.512785494327545166 -0.0561217740178108215 -0.013739459216594696
52.6003570556640625 -323.92572021484375 13.2097854614257812 274 1645008171.15941548 -0.775740921497344971 -0.629291653633117676 -0.0425871796905994415 -0.0201081689447164536
54.11602783203125 -316.051361083984375 13.5682163238525391 275 1645008173.25999188 -0.749932408332824707 -0.659652471542358398 -0.0490843355655670166 -0.00712011195719242096
53.6661453247070312 -307.5833740234375 13.775599479675293 276 1645008175.35873175 -0.652621090412139893 -0.757202267646789551 -0.0246887002140283585 -0.0109961144626140594
51.7566490173339844 -298.44976806640625 13.8149576187133789 277 1645008177.45684171 -0.63566899299621582 -0.77144390344619751 -0.0258163418620824814 -0.0115228155627846718
49.6711463928222656 -288.438995361328125 13.7509593963623047 278 1645008179.55628467 -0.640110373497009277 -0.767796218395233154 -0.0115146022289991379 -0.0248001385480165482
48.3380088806152344 -280.466156005859375 13.4489479064941406 279 1645008181.56046319 -0.657893717288970947 -0.752262651920318604 -0.00418801233172416687 -0.035485338419675827
47.4207344055175781 -274.156829833984375 13.1968116760253906 280 1645008183.66039467 -0.651211023330688477 -0.758618831634521484 0.0110158426687121391 -0.0173294171690940857
46.0686454772949219 -264.454193115234375 12.6484451293945312 281 1645008185.75831032 -0.661907970905303955 -0.749232292175292969 0.0160189587622880936 -0.0164987258613109589
45.5544013977050781 -252.557464599609375 11.9694299697875977 282 1645008187.76065254 -0.716622591018676758 -0.696559786796569824 0.0268438644707202911 -0.0231487397104501724
47.0497207641601562 -239.570465087890625 11.2651357650756836 283 1645008189.85365343 -0.765344202518463135 -0.643238723278045654 0.013187202624976635 -0.0178401190787553787
50.0136871337890625 -227.985702514648438 10.6907777786254883 284 1645008191.85789871 -0.813508093357086182 -0.580599367618560791 0.00296741072088479996 -0.0331674180924892426
54.7226600646972656 -217.85797119140625 10.3972263336181641 285 1645008193.95360351 -0.869363784790039062 -0.493636965751647949 -0.00237544765695929527 -0.0228798799216747284
62.9818000793457031 -209.115753173828125 10.2503061294555664 286 1645008195.95441341 -0.933532476425170898 -0.357918858528137207 -0.00221810676157474518 -0.0201575886458158493
72.214447021484375 -200.757476806640625 10.253443717956543 287 1645008198.05391192 -0.925954699516296387 -0.377426356077194214 -0.0062610432505607605 -0.010866866447031498
77.4278182983398438 -193.19171142578125 10.216796875 288 1645008199.65294576 -0.838957130908966064 -0.544006943702697754 0.00319497892633080482 -0.0140413008630275726
78.4559860229492188 -187.334503173828125 10.0283050537109375 289 1645008200.75519657 -0.7271689772605896 -0.686143219470977783 0.00245107989758253098 -0.0206595379859209061
76.946746826171875 -176.470596313476562 9.51735877990722656 290 1645008202.85571718 -0.648429334163665771 -0.760956048965454102 0.00314069329760968685 -0.0218033473938703537
74.0396575927734375 -164.059356689453125 8.82155609130859375 291 1645008204.95394421 -0.62333148717880249 -0.78104168176651001 -0.0181346368044614792 -0.033210311084985733
72.064544677734375 -150.607498168945312 8.20184612274169922 292 1645008207.05385351 -0.686598241329193115 -0.726416409015655518 -0.0156153244897723198 -0.0256569553166627884
72.1573562622070312 -138.386550903320312 7.95603227615356445 293 1645008208.95602512 -0.732681930065155029 -0.679358839988708496 -0.0197370834648609161 -0.0354860387742519379
74.1130828857421875 -124.995841979980469 7.71868324279785156 294 1645008211.05446076 -0.767974495887756348 -0.638343393802642822 -0.0338800214231014252 -0.0398120395839214325
75.5185089111328125 -111.834709167480469 7.80520439147949219 295 1645008213.15506482 -0.741018116474151611 -0.669492483139038086 -0.0421315319836139679 -0.0299486052244901657
76.2088088989257812 -98.7310791015625 7.87375640869140625 296 1645008215.25466633 -0.711078763008117676 -0.702477157115936279 -0.0241248942911624908 -0.0176313929259777069
77.1869125366210938 -85.7040481567382812 8.07532978057861328 297 1645008217.35428929 -0.732497751712799072 -0.68011629581451416 -0.0274256803095340729 -0.0116944974288344383
78.350372314453125 -74.1032638549804688 7.99880075454711914 298 1645008219.35564423 -0.75448530912399292 -0.654707133769989014 -0.00704303150996565819 -0.045396905392408371
77.9444198608398438 -69.3639297485351562 7.75267982482910156 299 1645008220.55567098 -0.604142069816589355 -0.795528411865234375 0.000646634434815496206 -0.0463307499885559082
76.4305572509765625 -67.492218017578125 7.56723117828369141 300 1645008221.25442576 -0.435136407613754272 -0.899535477161407471 0.00829538051038980484 -0.0377284549176692963
74.2771224975585938 -66.2630157470703125 7.28420495986938477 301 1645008221.85495973 -0.266674607992172241 -0.962213993072509766 0.0158923473209142685 -0.0526903904974460602
69.1610794067382812 -65.17388916015625 6.67975378036499023 302 1645008222.85608339 -0.0875437930226325989 -0.994825482368469238 0.00501595158129930496 -0.0513141900300979614
55.8783836364746094 -64.2340927124023438 5.16225147247314453 303 1645008224.85670757 -0.0530312173068523407 -0.997158229351043701 0.000880125677213072777 -0.0535013042390346527
40.6818885803222656 -62.3525810241699219 3.41335916519165039 304 1645008226.95461917 -0.0542757138609886169 -0.996908426284790039 0.00304289860650897026 -0.0567312091588973999
25.3415927886962891 -61.412506103515625 1.70441484451293945 305 1645008228.95792508 -0.0447472073137760162 -0.997843325138092041 -0.0050008818507194519 -0.0477631427347660065
9.30565929412841797 -60.1441421508789062 0.987373709678649902 306 1645008231.05554914 -0.0629958733916282654 -0.997470736503601074 -0.010779612697660923 -0.03110462985932827
-5.91006183624267578 -58.1687049865722656 0.321895182132720947 307 1645008233.05957365 -0.074960663914680481 -0.996951460838317871 -0.0182757060974836349 -0.0116035407409071922
-21.098052978515625 -55.8829231262207031 0.102282360196113586 308 1645008235.15224719 -0.077357657253742218 -0.996717274188995361 -0.0215966105461120605 -0.0102011328563094139
-34.7102546691894531 -53.679351806640625 0.243028044700622559 309 1645008237.15804005 -0.0929975360631942749 -0.995597779750823975 -0.000284138775896281004 0.0116816852241754532
-47.4395523071289062 -49.2959823608398438 0.774767816066741943 310 1645008239.25265288 -0.270211070775985718 -0.962417364120483398 -0.00944038759917020798 0.0254879985004663467
-57.2968025207519531 -41.0011482238769531 1.67389857769012451 311 1645008241.25441504 -0.37259906530380249 -0.927139639854431152 -0.00839683879166841507 0.0388780012726783752
-65.8636856079101562 -32.2114982604980469 2.77528643608093262 312 1645008243.25529122 -0.395975023508071899 -0.916923224925994873 -0.0128590725362300873 0.0478568524122238159
-74.213043212890625 -22.6553077697753906 4.07225799560546875 313 1645008245.35686803 -0.437586188316345215 -0.897782087326049805 -0.0173078663647174835 0.0469695553183555603
-81.2152175903320312 -12.9411497116088867 5.37430953979492188 314 1645008247.35729623 -0.466497361660003662 -0.882630527019500732 -0.0146856419742107391 0.0559273548424243927
-87.955322265625 -2.33866143226623535 6.66780328750610352 315 1645008249.45579839 -0.491144448518753052 -0.869352281093597412 -0.00921478308737277985 0.0540258325636386871
-90.4233551025390625 4.26252365112304688 7.35615110397338867 316 1645008250.75556064 -0.638834714889526367 -0.767283499240875244 -0.00641377875581383705 0.0559028834104537964
-90.183929443359375 10.6425609588623047 7.92315101623535156 317 1645008251.95379066 -0.765755295753479004 -0.640762269496917725 -0.0250912290066480637 0.0491220206022262573
-88.0419769287109375 15.4932003021240234 8.24837207794189453 318 1645008252.95399117 -0.877570033073425293 -0.476710528135299683 -0.0252611655741930008 0.0444951727986335754
-84.9620895385742188 18.3755283355712891 8.42923545837402344 319 1645008253.85418391 -0.949720621109008789 -0.311564236879348755 -0.0185219887644052505 0.0248065721243619919
-81.44000244140625 19.6580677032470703 8.50825309753417969 320 1645008254.65382028 -0.992548167705535889 -0.120718404650688171 -0.0128466542810201645 0.0104932216927409172
-77.9359130859375 19.3612823486328125 8.44959926605224609 321 1645008255.3529458 -0.997201859951019287 0.0645411312580108643 0.00866048317402601242 0.036714356392621994
-68.3542938232421875 15.5745620727539062 7.79200839996337891 322 1645008257.15145016 -0.976223409175872803 0.208881482481956482 0.0314900763332843781 0.0486286357045173645
-58.2538337707519531 12.9738759994506836 7.15736961364746094 323 1645008258.85279202 -0.986935973167419434 0.157560735940933228 0.0329087860882282257 -0.00699725421145558357
-49.6332130432128906 7.80904340744018555 6.20976972579956055 324 1645008260.35226345 -0.939747989177703857 0.337346941232681274 0.0550921261310577393 0.00596428662538528442
-42.7460517883300781 -0.278837054967880249 5.29666233062744141 325 1645008261.85155559 -0.8992728590965271 0.435503453016281128 0.0356884971261024475 0.0192731749266386032
-35.9375572204589844 -8.14130496978759766 4.48577308654785156 326 1645008263.35176992 -0.918994903564453125 0.392143070697784424 0.0324536673724651337 0.0248790960758924484
-27.8637237548828125 -14.3953990936279297 3.75710797309875488 327 1645008265.05254602 -0.950023829936981201 0.309352487325668335 0.0407411418855190277 0.00979285780340433121
-23.6480979919433594 -20.8059730529785156 3.06380820274353027 328 1645008266.55291963 -0.808201014995574951 0.586085379123687744 0.0572642497718334198 0.00598556920886039734
-23.3493080139160156 -26.6299934387207031 2.60872197151184082 329 1645008267.75215197 -0.684565246105194092 0.726985156536102295 0.0532867684960365295 0.0048544728197157383
-24.7898197174072266 -30.8635578155517578 2.34776401519775391 330 1645008268.75320911 -0.533859491348266602 0.843892812728881836 0.0532824322581291199 5.10518657392822206e-05
-26.5392303466796875 -32.6413116455078125 2.27698183059692383 331 1645008269.35486174 -0.368786007165908813 0.927734613418579102 0.0574875809252262115 -0.000770319078583270311
-28.3086757659912109 -33.342742919921875 2.273040771484375 332 1645008269.85347271 -0.200795292854309082 0.978068172931671143 0.0550497248768806458 -0.00577985635027289391
-36.9853973388671875 -30.4832954406738281 2.61680483818054199 333 1645008271.95238304 0.266449272632598877 0.963072061538696289 0.0298204515129327774 -0.0246514510363340378
-45.1644744873046875 -23.9746856689453125 3.35424494743347168 334 1645008273.8542285 0.366965502500534058 0.929147720336914062 0.0351992510259151459 -0.0279624182730913162
-51.7246208190917969 -16.4716014862060547 4.21917200088500977 335 1645008275.55265403 0.438913106918334961 0.89741206169128418 0.0228985045105218887 -0.0385029911994934082
-58.311737060546875 -8.64021015167236328 5.09798336029052734 336 1645008277.25329876 0.429176121950149536 0.902158439159393311 0.0245868228375911713 -0.0362425819039344788
-64.5322036743164062 -0.458901345729827881 6.03123283386230469 337 1645008278.95503664 0.470945209264755249 0.88070446252822876 0.0323513150215148926 -0.0390335582196712494
-70.4083328247070312 10.5290594100952148 7.38370084762573242 338 1645008281.05607605 0.548532247543334961 0.834388911724090576 0.0470988824963569641 -0.0262529868632555008
-72.6811676025390625 19.4501018524169922 8.34227561950683594 339 1645008282.65438104 0.693583011627197266 0.718499839305877686 0.0346939638257026672 -0.0386894978582859039
-71.8391265869140625 23.2427597045898438 8.71940135955810547 340 1645008283.35333228 0.816495358943939209 0.576001882553100586 0.0261628702282905579 -0.0295411981642246246
-69.5137252807617188 26.1467418670654297 8.99298954010009766 341 1645008284.05351186 0.920552611351013184 0.389511793851852417 0.0210489910095930099 -0.0205033458769321442
-66.3755111694335938 27.8778095245361328 9.19001579284667969 342 1645008284.75115752 0.977386772632598877 0.209998756647109985 0.0169544294476509094 -0.018114505335688591
-61.6405982971191406 28.5252056121826172 9.22937393188476562 343 1645008285.65040898 0.999481737613677979 0.0231456942856311798 0.00231706793420016766 -0.0222530364990234375
-50.2146148681640625 24.7814083099365234 8.93729209899902344 344 1645008287.6516602 0.962251663208007812 -0.271280825138092041 -0.0133916689082980156 -0.0172955654561519623
-41.6240997314453125 14.7831754684448242 8.09090423583984375 345 1645008289.65170646 0.897283673286437988 -0.439217746257781982 -0.0395534336566925049 -0.020131213590502739
-30.6770362854003906 5.40220928192138672 6.55226755142211914 346 1645008291.65249085 0.952629804611206055 -0.301151961088180542 -0.0404421798884868622 -0.0129744894802570343
-19.9096088409423828 0.60565650463104248 6.00680923461914062 347 1645008293.25256419 0.991440713405609131 -0.129440844058990479 -0.00227914494462311268 -0.0168874934315681458
-5.57610607147216797 -0.990858733654022217 5.92345762252807617 348 1645008295.35176897 0.999340355396270752 -0.0332214720547199249 -0.000311170675558969378 -0.0146677345037460327
7.40377998352050781 -2.19236278533935547 5.99924755096435547 349 1645008297.35539675 0.998600602149963379 -0.0470125488936901093 -0.00213974155485630035 -0.0241256840527057648
14.256195068359375 -2.92548036575317383 5.99489736557006836 350 1645008299.45394969 0.999207735061645508 -0.0210512541234493256 -0.0155509170144796371 -0.0299818422645330429
