# .PCD v0.7 - Point Cloud Data file format
VERSION 0.7
FIELDS x y z intensity t qx qy qz qw
SIZE 4 4 4 4 8 4 4 4 4
TYPE F F F F F F F F F
COUNT 1 1 1 1 1 1 1 1 1
WIDTH 189
HEIGHT 1
VIEWPOINT 0 0 0 1 0 0 0
POINTS 189
DATA ascii
7.8316798210144043 8.25476455688476562 4.39351272583007812 0 1644828646.21623659 0.998874008655548096 -0.0208257529884576797 -0.00245903432369232178 -0.0425554960966110229
8.58769702911376953 8.26036930084228516 4.40134191513061523 1 1644828648.32104301 0.999295532703399658 -0.0224886443465948105 0.00176098616793751717 -0.0299939960241317749
15.758941650390625 8.20495223999023438 4.43838739395141602 2 1644828650.42094755 0.999579191207885742 -0.00813505798578262329 0.00661247875541448593 -0.0270468965172767639
26.0660648345947266 7.73730659484863281 4.51081275939941406 3 1644828652.41871691 0.998865127563476562 -0.0395060256123542786 0.0101370913907885551 -0.0245969332754611969
36.3235664367675781 6.05443954467773438 4.41420888900756836 4 1644828654.12187195 0.993329644203186035 -0.113097667694091797 0.00691519258543848991 -0.0213845539838075638
46.0809478759765625 3.45014643669128418 4.2375030517578125 5 1644828655.71839976 0.989797651767730713 -0.141103610396385193 -0.00630654720589518547 -0.0187237579375505447
55.9800796508789062 0.614068508148193359 4.06499099731445312 6 1644828657.31840372 0.990016043186187744 -0.140358462929725647 -0.00963427312672138214 -0.00865353737026453018
65.8506698608398438 -2.37428402900695801 3.89266061782836914 7 1644828658.91871595 0.987942516803741455 -0.154716938734054565 0.0054025682620704174 0.0017463926924392581
75.57598876953125 -5.69616222381591797 3.75706577301025391 8 1644828660.51645732 0.983446776866912842 -0.177956670522689819 -0.00311670009978115559 -0.0339732617139816284
85.1056137084960938 -9.46106433868408203 3.70926427841186523 9 1644828662.11560202 0.979481875896453857 -0.201443657279014587 -0.00100335781462490559 -0.0058897961862385273
94.5651397705078125 -13.3279428482055664 3.66257572174072266 10 1644828663.82066488 0.980817973613739014 -0.194707348942756653 0.000115210837975610048 -0.00922382064163684845
104.190086364746094 -16.8899097442626953 3.71778202056884766 11 1644828665.61684227 0.985289216041564941 -0.16994340717792511 0.0158381257206201553 -0.00857779290527105331
113.140823364257812 -21.7024459838867188 4.25234746932983398 12 1644828667.31657672 0.976340413093566895 -0.196964636445045471 0.0129562113434076309 -0.0882973149418830872
123.292221069335938 -23.8092441558837891 4.44440412521362305 13 1644828669.02287006 0.994722187519073486 -0.0866192728281021118 0.00128011265769600868 -0.0549840740859508514
133.759857177734375 -25.7282676696777344 4.69785928726196289 14 1644828670.72365308 0.994621157646179199 -0.0969641506671905518 0.00500722648575901985 -0.0360780246555805206
143.747039794921875 -28.4026699066162109 4.48752832412719727 15 1644828672.32256937 0.986056268215179443 -0.16316494345664978 -0.00880908314138650894 -0.0315060466527938843
153.036209106445312 -32.2416534423828125 4.16128301620483398 16 1644828673.82291555 0.975380539894104004 -0.217429786920547485 -0.00968318711966276169 -0.0355427004396915436
162.0870361328125 -36.7076225280761719 3.85675716400146484 17 1644828675.322191 0.972904980182647705 -0.227507859468460083 -0.00589942652732133865 -0.0407587811350822449
171.587326049804688 -39.9287452697753906 3.67764782905578613 18 1644828676.82202935 0.987432181835174561 -0.152056708931922913 0.00403858255594968796 -0.0428961701691150665
181.177078247070312 -42.7986412048339844 3.61270999908447266 19 1644828678.32226133 0.987715363502502441 -0.149079054594039917 0.0122091900557279587 -0.045218590646982193
191.170867919921875 -45.6789932250976562 3.7920982837677002 20 1644828679.92148972 0.98991161584854126 -0.136880382895469666 0.0164008066058158875 -0.0327065177261829376
201.109222412109375 -48.5030670166015625 3.83928632736206055 21 1644828681.52191257 0.989419639110565186 -0.142294436693191528 0.0132094472646713257 -0.025031358003616333
211.003738403320312 -51.6718368530273438 3.97203731536865234 22 1644828683.12176776 0.985899925231933594 -0.16135232150554657 0.0223869364708662033 -0.038282543420791626
221.049972534179688 -53.4392662048339844 4.31283950805664062 23 1644828684.724612 0.998183310031890869 -0.0332167148590087891 0.0217412281781435013 -0.0453218072652816772
231.237152099609375 -53.6578826904296875 4.74412107467651367 24 1644828686.32443261 0.99894636869430542 -0.00911477021872997284 0.0216298531740903854 -0.0394358374178409576
241.402664184570312 -54.1546134948730469 5.18414068222045898 25 1644828687.9223969 0.996237039566040039 -0.0780285894870758057 0.0257110577076673508 -0.0276090409606695175
248.956390380859375 -58.5971908569335938 5.21258783340454102 26 1644828689.32182956 0.920577347278594971 -0.390451431274414062 -0.0016832457622513175 -0.00906299520283937454
253.668075561523438 -66.9965896606445312 4.96896934509277344 27 1644828690.82492185 0.836526989936828613 -0.547825932502746582 -0.00462476816028356552 -0.00938036292791366577
258.422454833984375 -76.0073776245117188 4.87853050231933594 28 1644828692.42007637 0.890743136405944824 -0.453713148832321167 0.0125518934801220894 -0.0237376317381858826
265.786956787109375 -83.1138458251953125 4.92843389511108398 29 1644828694.0194428 0.937420010566711426 -0.347809523344039917 0.0115650556981563568 -0.0117670958861708641
273.767120361328125 -89.61651611328125 5.06572484970092773 30 1644828695.61919928 0.946018993854522705 -0.323800772428512573 0.00964860152453184128 -0.0103925559669733047
282.193634033203125 -95.3654403686523438 5.31063652038574219 31 1644828697.21807456 0.964072883129119873 -0.264831393957138062 0.0196840371936559677 -0.00635476363822817802
291.7767333984375 -98.9796905517578125 5.69513845443725586 32 1644828698.81961322 0.990089356899261475 -0.138201430439949036 0.0220750290900468826 -0.011666775681078434
301.7125244140625 -101.034492492675781 6.14677762985229492 33 1644828700.4194839 0.996420323848724365 -0.0817322283983230591 0.0214809048920869827 0.00223658792674541473
312.007843017578125 -102.128105163574219 6.67328166961669922 34 1644828702.31884623 0.998288512229919434 -0.0541454106569290161 0.0219446979463100433 0.00259537412784993649
318.602508544921875 -102.506866455078125 7.13932657241821289 35 1644828704.31964445 0.997483313083648682 -0.0162478704005479813 0.0688736811280250549 0.00441619288176298141
325.938262939453125 -102.889915466308594 7.47662782669067383 36 1644828706.32083964 0.9986305832862854 -0.0366285443305969238 0.0264226123690605164 -0.0264047533273696899
336.2520751953125 -104.318359375 7.51826238632202148 37 1644828708.22039223 0.99555128812789917 -0.0896187126636505127 -0.00933197978883981705 -0.0275508444756269455
346.699737548828125 -105.380767822265625 7.34296655654907227 38 1644828709.91956162 0.998654544353485107 -0.0374399162828922272 -0.00899444893002510071 -0.034734778106212616
357.12274169921875 -106.7054443359375 7.17262697219848633 39 1644828711.52251244 0.993954956531524658 -0.100873082876205444 -0.0145971085876226425 -0.0408048927783966064
366.73455810546875 -110.373443603515625 6.74363422393798828 40 1644828713.32070398 0.972259581089019775 -0.225041508674621582 -0.0190950427204370499 -0.0608521252870559692
374.197265625 -114.342575073242188 6.42368364334106445 41 1644828715.32113028 0.968137502670288086 -0.238597214221954346 -0.00433561904355883598 -0.0759097784757614136
379.553070068359375 -117.3348388671875 6.25212287902832031 42 1644828717.4188838 0.959640026092529297 -0.271166682243347168 0.0259662196040153503 -0.0698956400156021118
383.532318115234375 -120.871826171875 6.45910310745239258 43 1644828719.4224751 0.902715384960174561 -0.425191730260848999 0.0315977595746517181 -0.0576065964996814728
383.97772216796875 -122.630264282226562 6.37429094314575195 44 1644828720.02267599 0.80949699878692627 -0.583669781684875488 0.0210671331733465195 -0.0600031130015850067
383.8125 -124.489532470703125 6.20840215682983398 45 1644828720.51864195 0.685709953308105469 -0.725513279438018799 -0.0039007056038826704 -0.0584567748010158539
382.457122802734375 -127.713485717773438 5.80845546722412109 46 1644828721.31847572 0.544529914855957031 -0.83638310432434082 -0.00723718106746673584 -0.0624349191784858704
376.11944580078125 -135.907760620117188 4.54413890838623047 47 1644828723.12334776 0.40493890643119812 -0.911894440650939941 -0.00515160756185650826 -0.0666815266013145447
369.314727783203125 -144.0015869140625 3.21468520164489746 48 1644828724.72090769 0.416003435850143433 -0.90648949146270752 0.00731055205687880516 -0.0718640834093093872
362.630035400390625 -151.629013061523438 2.0175168514251709 49 1644828726.21800756 0.40161442756652832 -0.91334235668182373 0.0119430432096123695 -0.0660981014370918274
355.676666259765625 -159.13525390625 0.932762801647186279 50 1644828727.71831918 0.38601529598236084 -0.920364141464233398 0.0105201592668890953 -0.0617363713681697845
348.6094970703125 -166.304718017578125 -0.059316098690032959 51 1644828729.22070956 0.376875787973403931 -0.924273788928985596 0.0127393817529082298 -0.0593322925269603729
341.432281494140625 -173.33880615234375 -1.04133272171020508 52 1644828730.71838689 0.37510526180267334 -0.926149845123291016 0.0075433952733874321 -0.0385436303913593292
334.14141845703125 -180.255126953125 -2.0234067440032959 53 1644828732.21883464 0.362048238515853882 -0.930678367614746094 0.00387756549753248692 -0.0523815751075744629
326.484588623046875 -186.761886596679688 -3.00388908386230469 54 1644828733.71692014 0.328361004590988159 -0.943021714687347412 0.00523912068456411362 -0.0534944236278533936
318.62298583984375 -193.068649291992188 -3.94535183906555176 55 1644828735.21781611 0.32270437479019165 -0.945191502571105957 0.00441800756379961967 -0.0495523475110530853
310.756439208984375 -199.484298706054688 -4.82935810089111328 56 1644828736.71579957 0.331407666206359863 -0.942380666732788086 0.00862732343375682831 -0.0448682717978954315
303.012908935546875 -205.863494873046875 -5.67338228225708008 57 1644828738.2149694 0.326171159744262695 -0.944134235382080078 0.00975757744163274765 -0.0461264513432979584
294.9522705078125 -211.861038208007812 -6.54748392105102539 58 1644828739.71503496 0.294380724430084229 -0.954541325569152832 0.00216564326547086239 -0.0467559956014156342
286.487945556640625 -217.372848510742188 -7.30282831192016602 59 1644828741.21521521 0.261159121990203857 -0.964610695838928223 -0.00755935581400990486 -0.0355666466057300568
277.7763671875 -222.3905029296875 -8.05243778228759766 60 1644828742.71481729 0.255953818559646606 -0.965710341930389404 0.00307656708173453808 -0.0433782674372196198
269.094970703125 -227.466522216796875 -8.75856208801269531 61 1644828744.21468425 0.257501691579818726 -0.965758085250854492 -0.00227849697694182396 -0.0316067375242710114
260.29150390625 -232.465988159179688 -9.47240447998046875 62 1644828745.71573186 0.249396815896034241 -0.967749297618865967 -0.011907489039003849 -0.0334772169589996338
251.342803955078125 -237.1400146484375 -10.0719690322875977 63 1644828747.21703339 0.222189366817474365 -0.974619567394256592 -0.0136064635589718819 -0.0237368252128362656
241.788711547851562 -241.658859252929688 -10.5530557632446289 64 1644828748.81648588 0.217831999063491821 -0.975687384605407715 -0.0128744617104530334 -0.0204344913363456726
232.368545532226562 -246.319473266601562 -10.9507226943969727 65 1644828750.41598916 0.224583476781845093 -0.97420269250869751 -0.0188780874013900757 -0.0116182295605540276
223.111831665039062 -251.053375244140625 -11.2678518295288086 66 1644828752.01528668 0.233663842082023621 -0.97211843729019165 -0.0167241133749485016 -0.0103557519614696503
214.043655395507812 -255.893051147460938 -11.5195446014404297 67 1644828753.61476612 0.235580921173095703 -0.971617817878723145 -0.0191468056291341782 -0.00968775432556867599
204.94219970703125 -260.645233154296875 -11.7356863021850586 68 1644828755.21481299 0.231598898768424988 -0.972673177719116211 -0.0163952857255935669 -0.00014709368406329304
195.831436157226562 -265.486968994140625 -11.9233112335205078 69 1644828756.81517196 0.240357235074043274 -0.970256805419921875 -0.0286369528621435165 -0.00317575200460851192
186.891433715820312 -270.54290771484375 -12.060877799987793 70 1644828758.41602349 0.242388322949409485 -0.969407021999359131 -0.0380919426679611206 0.00684717809781432152
177.742538452148438 -275.098663330078125 -12.1996908187866211 71 1644828760.01706553 0.223959773778915405 -0.973945736885070801 -0.0356497280299663544 -0.000893284915946424007
168.469512939453125 -279.50543212890625 -12.2954206466674805 72 1644828761.61761403 0.21408410370349884 -0.976516067981719971 -0.023863673210144043 0.00385332666337490082
159.114242553710938 -283.62042236328125 -12.2937335968017578 73 1644828763.2180717 0.195348888635635376 -0.980679333209991455 -0.00993155874311923981 0.00287642655894160271
149.59375 -287.242584228515625 -12.3259544372558594 74 1644828764.819453 0.162244424223899841 -0.986711502075195312 -0.00836656522005796432 0.00267856498248875141
139.657150268554688 -289.572998046875 -12.3853263854980469 75 1644828766.41770935 0.0600879490375518799 -0.998192369937896729 -0.0010124995606020093 -0.000643418752588331699
129.353515625 -289.528350830078125 -12.4360809326171875 76 1644828768.02000332 -0.0436588115990161896 -0.999027371406555176 0.00589437736198306084 0.00186491280328482389
119.214942932128906 -287.7451171875 -12.4615192413330078 77 1644828769.61789179 -0.114408932626247406 -0.993409156799316406 0.00586857832968235016 0.00378918438218533993
109.523056030273438 -284.8487548828125 -12.3315248489379883 78 1644828771.22052264 -0.155433297157287598 -0.987794041633605957 0.00513579091057181358 0.00877808593213558197
99.4837417602539062 -281.740570068359375 -11.9056806564331055 79 1644828772.91692305 -0.159273222088813782 -0.986417114734649658 -0.0144506441429257393 0.0374762825667858124
89.6084060668945312 -278.27923583984375 -11.5409984588623047 80 1644828774.61949205 -0.175338029861450195 -0.98385244607925415 -0.00567076029255986214 0.0354799740016460419
79.8568038940429688 -275.183929443359375 -10.8987522125244141 81 1644828776.31820846 -0.143073484301567078 -0.989168941974639893 -0.00464140065014362335 0.0324539355933666229
70.1876373291015625 -272.22393798828125 -10.1547698974609375 82 1644828778.01949763 -0.165738865733146667 -0.985240399837493896 -0.0153106395155191422 0.0399689562618732452
60.7601585388183594 -268.9503173828125 -9.28439235687255859 83 1644828779.71796131 -0.170889809727668762 -0.983922004699707031 -0.0208014287054538727 0.0475553274154663086
50.8702888488769531 -265.63421630859375 -8.35592079162597656 84 1644828781.51915121 -0.164049297571182251 -0.984870374202728271 -0.0264766979962587357 0.0491647794842720032
41.2681503295898438 -262.54632568359375 -7.20863485336303711 85 1644828783.32027483 -0.158983662724494934 -0.985222280025482178 -0.0122562572360038757 0.0625387504696846008
31.6524524688720703 -259.025604248046875 -6.14135837554931641 86 1644828785.21898627 -0.194661408662796021 -0.979551553726196289 0.00355912907980382442 0.050725158303976059
22.5750885009765625 -254.923355102539062 -5.11875534057617188 87 1644828787.11432385 -0.223544329404830933 -0.973295927047729492 0.00108624878339469433 0.0521703809499740601
13.49029541015625 -250.315277099609375 -4.16934967041015625 88 1644828789.01395559 -0.243278026580810547 -0.968515992164611816 0.00622763298451900482 0.0524763353168964386
4.96148443222045898 -244.4449462890625 -3.11390495300292969 89 1644828790.91355729 -0.356705754995346069 -0.932119667530059814 0.0051226210780441761 0.0623510219156742096
-1.80952346324920654 -236.66461181640625 -2.12109565734863281 90 1644828792.81442809 -0.442341268062591553 -0.894900619983673096 0.00381677714176476002 0.0589279718697071075
-7.45004463195800781 -228.396865844726562 -1.28809738159179688 91 1644828794.61351418 -0.496825933456420898 -0.866433203220367432 -0.005663309246301651 0.0492481477558612823
-11.6923551559448242 -219.358535766601562 -0.330516815185546875 92 1644828796.41627526 -0.558575630187988281 -0.825570166110992432 -0.0232300776988267899 0.0767307355999946594
-15.031651496887207 -210.357635498046875 0.401611983776092529 93 1644828798.41748881 -0.574017763137817383 -0.816675126552581787 -0.00823064427822828293 0.0589708350598812103
-17.4890651702880859 -203.55902099609375 0.983625650405883789 94 1644828800.5154798 -0.574380695819854736 -0.817224860191345215 -0.00689175538718700409 0.0467216446995735168
-19.3263359069824219 -198.515060424804688 1.46156573295593262 95 1644828802.61634636 -0.576497793197631836 -0.815467596054077148 -0.00483014574274420738 0.0513769276440143585
-19.4931201934814453 -195.085601806640625 1.7226710319519043 96 1644828804.2177515 -0.712621927261352539 -0.699314773082733154 0.00106648611836135387 0.0559262782335281372
-18.2402267456054688 -191.288192749023438 1.89799809455871582 97 1644828805.41596842 -0.824753165245056152 -0.562300264835357666 0.010149046778678894 0.059141106903553009
-14.5102071762084961 -186.266494750976562 1.92954802513122559 98 1644828806.91646075 -0.910533428192138672 -0.409598171710968018 0.0208078846335411072 0.0522035993635654449
-7.49342918395996094 -181.154876708984375 1.8339773416519165 99 1644828808.71541119 -0.969985723495483398 -0.239846095442771912 0.0298886522650718689 0.0266129020601511002
0.0556061826646327972 -178.254425048828125 1.39914345741271973 100 1644828810.72154522 -0.985565721988677979 -0.165985822677612305 0.0324451513588428497 0.00749616604298353195
5.43557643890380859 -173.977874755859375 0.912858426570892334 101 1644828812.81962419 -0.837848007678985596 -0.539728999137878418 0.0712801665067672729 0.0402803532779216766
2.93510890007019043 -164.589492797851562 1.27200210094451904 102 1644828814.91782212 -0.539966881275177002 -0.839168310165405273 0.00501628918573260307 0.064862571656703949
-1.7217181921005249 -155.253387451171875 2.05309081077575684 103 1644828816.82003045 -0.528445959091186523 -0.847202837467193604 0.016424182802438736 0.0521777048707008362
-6.42347812652587891 -145.900405883789062 2.7967832088470459 104 1644828818.61787438 -0.487259924411773682 -0.871602714061737061 0.00352078326977789402 0.0536102503538131714
-12.7496461868286133 -137.989486694335938 3.41379332542419434 105 1644828820.31459284 -0.419859319925308228 -0.907189369201660156 -0.00785616878420114517 0.0257654283195734024
-19.1279201507568359 -129.812957763671875 3.923065185546875 106 1644828822.21519876 -0.571506857872009277 -0.82002723217010498 -0.029602881520986557 -0.00767820514738559723
-19.2968769073486328 -127.162384033203125 3.96940207481384277 107 1644828822.71618581 -0.705391466617584229 -0.708181798458099365 -0.0146168079227209091 -0.0262252558022737503
-11.7852039337158203 -121.493446350097656 3.71690821647644043 108 1644828824.81438398 -0.999070286750793457 -0.00712546473369002342 0.0406003184616565704 -0.0126256663352251053
-9.34968185424804688 -122.251594543457031 3.54713845252990723 109 1644828825.31432629 -0.979189813137054443 0.190080001950263977 0.0548859462141990662 -0.0452154316008090973
-7.22063636779785156 -124.229583740234375 3.47336483001708984 110 1644828825.91399431 -0.925094902515411377 0.377491414546966553 0.0311073046177625656 -0.027055768296122551
-5.72007036209106445 -126.884574890136719 3.40740180015563965 111 1644828826.51367211 -0.844908773899078369 0.533115267753601074 0.0354177914559841156 -0.0257457699626684189
-5.30750703811645508 -130.0106201171875 3.31329751014709473 112 1644828827.11519146 -0.717455446720123291 0.693989098072052002 0.0564914382994174957 -0.0211060903966426849
-6.19381618499755859 -132.873550415039062 3.31280994415283203 113 1644828827.7142086 -0.561881184577941895 0.825252711772918701 0.0493439175188541412 -0.0285086743533611298
-7.78961610794067383 -134.729156494140625 3.33584785461425781 114 1644828828.21388054 -0.403896450996398926 0.913312613964080811 0.0492048710584640503 -0.01750960573554039
-9.84201812744140625 -135.81854248046875 3.41509747505187988 115 1644828828.71309781 -0.233606427907943726 0.971321225166320801 0.0411998406052589417 -0.0163009464740753174
-12.1679716110229492 -136.140762329101562 3.45244216918945312 116 1644828829.21509504 -0.0514036267995834351 0.997469305992126465 0.0490069873631000519 -0.00331332092173397541
-14.329986572265625 -135.61541748046875 3.54502367973327637 117 1644828829.71324968 0.128527417778968811 0.990786433219909668 0.0421196706593036652 -0.00698779197409749031
-18.4503040313720703 -127.643798828125 3.92149591445922852 118 1644828831.81250501 0.721581399440765381 0.692167699337005615 0.0124098947271704674 0.00837193988263607025
-17.4283828735351562 -125.021865844726562 3.9248502254486084 119 1644828832.4123683 0.837525606155395508 0.546338200569152832 0.0040424061007797718 0.00700486963614821434
-15.7583045959472656 -123.146942138671875 3.88224267959594727 120 1644828832.91290903 0.920513808727264404 0.39016956090927124 -0.0100023839622735977 0.017944755032658577
-13.4920625686645508 -121.974983215332031 3.76917362213134766 121 1644828833.4135828 0.975133001804351807 0.218507885932922363 -0.0299237314611673355 0.0217827707529067993
-2.59915041923522949 -123.301277160644531 3.26113152503967285 122 1644828835.4146986 0.997805356979370117 -0.0618520677089691162 -0.0227689668536186218 -0.00635739555582404137
7.35167074203491211 -121.684623718261719 2.90215110778808594 123 1644828837.01418543 0.991953611373901367 0.121648356318473816 -0.0347412154078483582 -0.00476459553465247154
16.6874008178710938 -117.982795715332031 2.09971117973327637 124 1644828838.51452494 0.971582949161529541 0.231123074889183044 -0.051020350307226181 0.00236490671522915363
25.2164402008056641 -111.568984985351562 1.20987057685852051 125 1644828840.01516318 0.940529882907867432 0.338343709707260132 -0.0259670857340097427 0.0159003064036369324
31.6588554382324219 -103.883766174316406 0.939465105533599854 126 1644828841.41478658 0.865640878677368164 0.500085949897766113 -0.00919849146157503128 -0.0222560130059719086
35.4477005004882812 -94.4930572509765625 1.07523596286773682 127 1644828842.91688418 0.820051491260528564 0.572057545185089111 0.000616340199485421181 -0.0162882786244153976
38.8183746337890625 -84.7313003540039062 1.27053749561309814 128 1644828844.51581168 0.81303715705871582 0.581599891185760498 0.00207761512137949467 -0.0266055520623922348
42.0184707641601562 -74.9984893798828125 1.52498209476470947 129 1644828846.11671185 0.801001369953155518 0.59791940450668335 -0.00242595840245485306 -0.0297212805598974228
45.6649246215820312 -65.4408187866210938 1.69870591163635254 130 1644828847.71756959 0.835518002510070801 0.548940300941467285 -0.00637494167312979698 -0.0230985637754201889
49.3196182250976562 -56.0229873657226562 2.13390159606933594 131 1644828849.31868672 0.819660723209381104 0.572016417980194092 0.0187975950539112091 -0.0244972929358482361
52.617279052734375 -46.0732421875 2.73577308654785156 132 1644828851.01639891 0.806662619113922119 0.590034425258636475 0.0185002051293849945 -0.0285048093646764755
53.9379348754882812 -37.7291641235351562 3.24835014343261719 133 1644828852.41873169 0.681996643543243408 0.729992389678955078 0.0136316651478409767 -0.0424950569868087769
51.8819122314453125 -31.9926548004150391 3.58480286598205566 134 1644828853.41657495 0.54257279634475708 0.839519619941711426 0.0125400004908442497 -0.0257730856537818909
50.8258247375488281 -21.8696937561035156 4.05787420272827148 135 1644828855.1139493 0.775560259819030762 0.630830645561218262 0.00450946344062685966 -0.0232077576220035553
55.6039085388183594 -10.2419204711914062 4.421722412109375 136 1644828857.11587882 0.85509800910949707 0.51825559139251709 0.00967079121619462967 -0.0111834192648530006
59.8149299621582031 -4.72775030136108398 4.61229991912841797 137 1644828858.3237195 0.938499629497528076 0.345201164484024048 -0.00724333245307207108 -0.00147396477404981852
62.3365364074707031 -3.6145930290222168 4.62242984771728516 138 1644828858.81608105 0.985671639442443848 0.167251542210578918 -0.0125074479728937149 0.017942965030670166
72.0591583251953125 -7.18135404586791992 4.34293651580810547 139 1644828860.71469235 0.936900556087493896 -0.348139971494674683 -0.0118774324655532837 -0.0295778755098581314
81.804840087890625 -15.835963249206543 4.04183197021484375 140 1644828862.81501961 0.971828758716583252 -0.232050031423568726 0.00341804907657206059 -0.041109081357717514
94.2816848754882812 -20.28424072265625 3.89745497703552246 141 1644828864.91011286 0.989209592342376709 -0.136205658316612244 0.00316304061561822891 -0.0538738630712032318
106.587776184082031 -20.0847606658935547 4.02892255783081055 142 1644828866.91017413 0.998296082019805908 -0.0395214855670928955 0.0340647324919700623 -0.026126006618142128
115.831192016601562 -25.0053253173828125 3.6581275463104248 143 1644828868.71135759 0.905237913131713867 -0.42178383469581604 -0.014311634935438633 -0.0493747517466545105
117.364242553710938 -28.4253921508789062 3.30629181861877441 144 1644828869.311342 0.80682837963104248 -0.587973833084106445 -0.041136372834444046 -0.0402810573577880859
117.509391784667969 -32.2780380249023438 2.8789830207824707 145 1644828869.91043448 0.690400481224060059 -0.719500064849853516 -0.0662326961755752563 -0.0357773564755916595
115.018890380859375 -42.5916595458984375 1.64591121673583984 146 1644828871.5124898 0.574744999408721924 -0.816033899784088135 -0.0539979264140129089 -0.0290009230375289917
111.558631896972656 -52.6730995178222656 0.565803647041320801 147 1644828873.01191497 0.57966005802154541 -0.812770068645477295 -0.0434752963483333588 -0.0388447120785713196
108.001426696777344 -62.3698768615722656 -0.495273292064666748 148 1644828874.41483092 0.559171617031097412 -0.826870381832122803 -0.0531259141862392426 -0.0281096138060092926
103.885910034179688 -72.1348037719726562 -1.45085692405700684 149 1644828875.81083608 0.547857880592346191 -0.834983170032501221 -0.045286279171705246 -0.0245770048350095749
100.033462524414062 -81.34747314453125 -2.21196913719177246 150 1644828877.11325121 0.554507732391357422 -0.831183910369873047 -0.0366152003407478333 -0.0177135579288005829
96.3330841064453125 -90.6186141967773438 -2.93823385238647461 151 1644828878.41405535 0.560777008533477783 -0.826800525188446045 -0.0314315967261791229 -0.0306938979774713516
92.7557601928710938 -99.9311447143554688 -3.71071887016296387 152 1644828879.71140504 0.564715445041656494 -0.824429750442504883 -0.0304413232952356339 -0.0220305342227220535
89.1389236450195312 -109.92425537109375 -4.22466468811035156 153 1644828881.11145759 0.573746681213378906 -0.818203270435333252 -0.0367472991347312927 -0.00278826849535107613
85.5950469970703125 -119.616195678710938 -4.65455245971679688 154 1644828882.51155376 0.558780491352081299 -0.828527331352233887 -0.036029033362865448 0.00295509840361773968
80.9958953857421875 -128.96942138671875 -4.79074859619140625 155 1644828884.01424789 0.499460726976394653 -0.866260409355163574 -0.0109949586912989616 0.00331531255505979061
74.9876937866210938 -137.423080444335938 -4.72021484375 156 1644828885.61166692 0.435273438692092896 -0.900262951850891113 -0.00304297381080687046 0.00737151829525828362
68.1853103637695312 -144.8004150390625 -4.43254804611206055 157 1644828887.21213937 0.364662051200866699 -0.930908203125 -0.00498684355989098549 0.02016441710293293
59.9199104309082031 -151.113983154296875 -3.90525102615356445 158 1644828888.91352248 0.285692691802978516 -0.957795500755310059 -0.00113257684279233217 0.0317209362983703613
51.0194625854492188 -155.923263549804688 -3.19842362403869629 159 1644828890.61285853 0.213224098086357117 -0.976135432720184326 -0.00144898239523172379 0.0411455817520618439
41.9047164916992188 -160.239608764648438 -2.31159353256225586 160 1644828892.31455421 0.22625201940536499 -0.973006784915924072 -0.00251239095814526081 0.0454033240675926208
32.6818008422851562 -164.82110595703125 -1.34632205963134766 161 1644828894.11537886 0.208070293068885803 -0.977067887783050537 0.00440415693446993828 0.0450078696012496948
23.0075340270996094 -168.5784912109375 -0.328171789646148682 162 1644828896.01821733 0.145863711833953857 -0.987917244434356689 0.00625574216246604919 0.0520018786191940308
11.9558744430541992 -170.392745971679688 0.59254986047744751 163 1644828898.11475778 -0.0263705980032682419 -0.998994529247283936 0.0151593238115310669 0.0329347029328346252
6.23005819320678711 -168.743270874023438 0.968932986259460449 164 1644828899.1165843 -0.218292787671089172 -0.975237011909484863 -0.000377189542632550001 0.0355085656046867371
-0.394171684980392456 -158.752334594726562 1.70017075538635254 165 1644828901.21392298 -0.573087513446807861 -0.818464279174804688 0.00486085889860987663 0.040784049779176712
-3.73590326309204102 -147.214111328125 2.3150029182434082 166 1644828903.214077 -0.616190135478973389 -0.786466658115386963 0.00842664856463670731 0.0413393713533878326
-4.95217609405517578 -135.282684326171875 2.88084173202514648 167 1644828905.21391964 -0.73742908239364624 -0.675330758094787598 -0.00998891796916723251 0.00518956407904624939
-3.22724604606628418 -130.005859375 2.89102673530578613 168 1644828906.1133821 -0.84589838981628418 -0.533209800720214844 -0.00675806496292352676 -0.00987576786428689957
0.058785807341337204 -126.241462707519531 2.86532855033874512 169 1644828906.91454244 -0.935717403888702393 -0.35262414813041687 0.00818463321775197983 -0.00470785563811659813
12.2608575820922852 -120.551231384277344 2.31418132781982422 170 1644828909.0126996 -0.976372361183166504 -0.213135004043579102 0.0317415036261081696 -0.0162145532667636871
23.9973239898681641 -113.058624267578125 1.12638545036315918 171 1644828911.01297617 -0.934130311012268066 -0.354718774557113647 0.0366374924778938293 -0.0152594335377216339
32.9745140075683594 -101.161277770996094 0.769392788410186768 172 1644828913.11295795 -0.846816480159759521 -0.531688928604125977 0.00554039329290390015 0.0133416177704930305
37.7395095825195312 -88.8012542724609375 0.921473205089569092 173 1644828915.11430097 -0.81749427318572998 -0.575833559036254883 0.00270780525170266628 0.0105581637471914291
42.040802001953125 -75.9938583374023438 1.19399404525756836 174 1644828917.2128973 -0.812919557094573975 -0.581992447376251221 0.00217624031938612461 0.0210200287401676178
46.3447151184082031 -63.8578033447265625 1.43079137802124023 175 1644828919.21529555 -0.81917119026184082 -0.573400795459747314 -0.00239301077090203762 0.0128210438415408134
50.71209716796875 -52.1107711791992188 2.0089561939239502 176 1644828921.21657348 -0.823835909366607666 -0.566151082515716553 -0.0192444771528244019 0.0199232231825590134
53.783721923828125 -39.6550216674804688 2.71547245979309082 177 1644828923.31455159 -0.705339312553405762 -0.708216965198516846 -0.00792661774903535843 0.0293666329234838486
50.3646736145019531 -27.8850994110107422 3.34447216987609863 178 1644828925.31687856 -0.61935955286026001 -0.784175634384155273 -0.0361929573118686676 0.0123439794406294823
53.129425048828125 -15.238551139831543 3.74312567710876465 179 1644828927.41398573 -0.843589246273040771 -0.536222755908966064 0.00212009134702384472 0.0285987406969070435
56.9092140197753906 -2.621612548828125 4.13510656356811523 180 1644828929.51109719 -0.719925045967102051 -0.692140042781829834 0.0180871449410915375 0.0481971427798271179
56.3203926086425781 -0.332187801599502563 4.11666202545166016 181 1644828929.91165161 -0.568278193473815918 -0.819481015205383301 0.0595694743096828461 0.0442972742021083832
54.5675163269042969 1.84989321231842041 4.14528846740722656 182 1644828930.41947103 -0.411485761404037476 -0.904346466064453125 0.10713745653629303 0.0368581041693687439
50.3352394104003906 4.63509798049926758 4.24687862396240234 183 1644828931.41562557 -0.252808958292007446 -0.967279672622680664 0.015248691663146019 0.0150056937709450722
38.6877937316894531 8.22162818908691406 4.48075771331787109 184 1644828933.51495361 -0.116099841892719269 -0.992795288562774658 0.00890519469976425171 0.0282665882259607315
26.9845905303955078 10.4613676071166992 4.59973335266113281 185 1644828935.51639271 -0.087673477828502655 -0.996114075183868408 0.000433967623393982649 0.00836538150906562805
15.9334564208984375 12.017704963684082 4.59505987167358398 186 1644828937.6143508 -0.099963746964931488 -0.994730830192565918 -0.0201832186430692673 -0.0105125484988093376
13.6848211288452148 12.5232210159301758 4.59616947174072266 187 1644828939.71153069 -0.111519142985343933 -0.993550777435302734 -0.0195617638528347015 -0.00613728910684585571
13.5828628540039062 12.5412006378173828 4.58403205871582031 188 1644828944.01070547 -0.110845580697059631 -0.993079662322998047 -0.0166147537529468536 -0.0350709520280361176
