# .PCD v0.7 - Point Cloud Data file format
VERSION 0.7
FIELDS x y z intensity t qx qy qz qw
SIZE 4 4 4 4 8 4 4 4 4
TYPE F F F F F F F F F
COUNT 1 1 1 1 1 1 1 1 1
WIDTH 190
HEIGHT 1
VIEWPOINT 0 0 0 1 0 0 0
POINTS 190
DATA ascii
0.733122885227203369 -0.300413310527801514 0.806738376617431641 0 1644759717.66976738 0.999012768268585205 0.00217048171907663345 -0.0443600751459598541 0.00100214383564889431
0.845207333564758301 -0.319625318050384521 0.814494192600250244 1 1644759731.86734915 0.999420881271362305 0.00137321033980697393 -0.0339953303337097168 0.000622823426965624094
4.06393814086914062 -0.116241604089736938 0.622611403465270996 2 1644759733.86764932 0.999737858772277832 0.0195367597043514252 -0.0116077745333313942 0.00278884288854897022
14.1000795364379883 -0.114758856594562531 -0.0649649575352668762 3 1644759735.87145066 0.99965667724609375 -0.00438188342377543449 -0.0258093420416116714 -0.00107851263601332903
24.0882453918457031 -0.0797579213976860046 -0.802303314208984375 4 1644759737.37014723 0.999527096748352051 0.00390486209653317928 -0.0286689046770334244 0.0104127433151006699
34.0806312561035156 0.00206397706642746925 -1.47308313846588135 5 1644759738.77224684 0.999664962291717529 0.00214670808054506779 -0.0247863754630088806 0.00714437942951917648
44.5697669982910156 0.0689707770943641663 -2.14832949638366699 6 1644759740.2727983 0.999550521373748779 0.00141849182546138763 -0.0279395952820777893 0.010778430849313736
54.6340255737304688 0.196281969547271729 -2.76534771919250488 7 1644759741.77093577 0.999658763408660889 0.00519488658756017685 -0.0217461790889501572 0.013507358729839325
64.63397216796875 0.426412820816040039 -3.26170015335083008 8 1644759743.37167573 0.999773919582366943 0.00807121396064758301 -0.0169851146638393402 0.00992200430482625961
75.1410598754882812 0.544801414012908936 -3.68038702011108398 9 1644759745.17198825 0.999950051307678223 0.00783902686089277267 -0.00531417597085237503 0.003193629439920187
85.6874465942382812 0.700377047061920166 -4.14091682434082031 10 1644759746.77395487 0.999764204025268555 0.0114063005894422531 -0.0184771250933408737 -0.00010665443551260978
96.0568618774414062 1.08047044277191162 -4.44954442977905273 11 1644759748.27329493 0.999794602394104004 0.0152447428554296494 0.00241082650609314442 0.0131358141079545021
106.435737609863281 1.13038837909698486 -4.58359146118164062 12 1644759749.77399087 0.999656319618225098 -0.0154555384069681168 0.00621721427887678146 0.0202425196766853333
116.506591796875 0.369528353214263916 -4.47674036026000977 13 1644759751.27343202 0.998109221458435059 -0.0565333105623722076 0.0222239941358566284 0.00938381440937519073
126.6531982421875 -1.64887857437133789 -4.1644444465637207 14 1644759752.87026691 0.990977168083190918 -0.129743590950965881 0.0336241945624351501 -0.000551806238945573568
136.122650146484375 -5.05521106719970703 -3.71735930442810059 15 1644759754.47348309 0.979043006896972656 -0.199491873383522034 0.0407417900860309601 -0.00422682194039225578
145.4151611328125 -9.88704490661621094 -3.06476187705993652 16 1644759756.17222452 0.962966501712799072 -0.26570245623588562 0.0455215349793434143 0.00505473650991916656
153.697540283203125 -15.746368408203125 -2.29250001907348633 17 1644759757.87142324 0.942564487457275391 -0.329320758581161499 0.055454939603805542 0.00669062137603759766
161.032974243164062 -22.5269012451171875 -1.40747058391571045 18 1644759759.57737207 0.918789088726043701 -0.389653176069259644 0.0617643818259239197 0.0134980287402868271
167.939346313476562 -30.189697265625 -0.515779972076416016 19 1644759761.3689456 0.91170203685760498 -0.406059831380844116 0.0621397756040096283 0.00731267081573605537
174.953964233398438 -37.7338638305664062 0.460002005100250244 20 1644759763.16919947 0.91194617748260498 -0.405519723892211914 0.0611465387046337128 0.01300039142370224
181.601669311523438 -45.4573173522949219 1.39743137359619141 21 1644759764.96981263 0.905862331390380859 -0.419607162475585938 0.057379644364118576 0.00712987268343567848
188.646957397460938 -52.8980598449707031 2.32169055938720703 22 1644759766.86798334 0.920578122138977051 -0.38645249605178833 0.0562782473862171173 0.00481606228277087212
194.19207763671875 -58.3448371887207031 2.94698977470397949 23 1644759768.86874413 0.9274330735206604 -0.370174705982208252 0.0531079396605491638 -0.00425122771412134171
197.66400146484375 -62.1896820068359375 3.30693578720092773 24 1644759770.96849203 0.907454073429107666 -0.41693684458732605 0.0518725551664829254 -0.000156600945047102869
201.233184814453125 -67.0612411499023438 3.60803699493408203 25 1644759772.96917343 0.88105165958404541 -0.471051037311553955 0.0428754128515720367 0.00453530019149184227
206.64306640625 -70.7720718383789062 3.71636605262756348 26 1644759775.06900668 0.983354508876800537 -0.180631116032600403 0.000949517881963402033 0.0196309089660644531
209.50506591796875 -70.7154388427734375 3.64816188812255859 27 1644759775.96913838 0.999284923076629639 -0.00641887309029698372 0.00179254997055977583 0.0372185744345188141
214.577056884765625 -69.4651718139648438 3.53079867362976074 28 1644759777.36742759 0.981912553310394287 0.187894299626350403 -0.00187929265666753054 0.0232355613261461258
221.847885131835938 -63.7840690612792969 3.05066108703613281 29 1644759779.36754322 0.937618851661682129 0.345088660717010498 -0.00811937544494867325 0.0414578691124916077
229.3828125 -56.9980430603027344 2.55962276458740234 30 1644759781.36733341 0.934628129005432129 0.353150725364685059 -0.00743793509900569916 0.0412252470850944519
236.73370361328125 -50.1001091003417969 2.07456159591674805 31 1644759783.3688333 0.927876651287078857 0.370276957750320435 0.00313359289430081844 0.0439329147338867188
243.803878784179688 -42.3237991333007812 1.47355890274047852 32 1644759785.26811838 0.89650571346282959 0.441348940134048462 -0.00262660323642194271 0.0384937822818756104
249.095870971679688 -33.2570610046386719 0.702260255813598633 33 1644759786.9685185 0.851783871650695801 0.521070361137390137 -0.00291237235069274902 0.0542351678013801575
252.784286499023438 -23.6542339324951172 -0.0424108318984508514 34 1644759788.46765518 0.804779946804046631 0.591388046741485596 0.010998857207596302 0.0496829897165298462
254.629226684570312 -13.5532503128051758 -0.645125150680541992 35 1644759789.86862469 0.739345788955688477 0.671906709671020508 0.00573050277307629585 0.0433160886168479919
254.916336059570312 -3.00261759757995605 -1.43194496631622314 36 1644759791.27033424 0.707679390907287598 0.705395221710205078 -0.00203256215900182724 0.0400418490171432495
254.868728637695312 7.25251865386962891 -2.1747128963470459 37 1644759792.57239866 0.704184174537658691 0.70911109447479248 -0.00197945139370858669 0.0358072966337203979
254.695953369140625 17.8834419250488281 -3.03697514533996582 38 1644759793.87273407 0.698920190334320068 0.714321672916412354 -0.00224030250683426857 0.0353567935526371002
254.651473999023438 27.8884315490722656 -3.7111973762512207 39 1644759795.0722065 0.70752328634262085 0.706071436405181885 -0.00111108843702822924 0.0295408423990011215
254.441802978515625 38.012542724609375 -4.41123819351196289 40 1644759796.27200246 0.692692756652832031 0.720327198505401611 0.00455632433295249939 0.03584328293800354
253.9796142578125 48.7676124572753906 -4.98712635040283203 41 1644759797.5703814 0.692549467086791992 0.720633029937744141 0.0121366400271654129 0.0302659664303064346
253.612411499023438 59.27081298828125 -5.41475677490234375 42 1644759798.86709833 0.696280539035797119 0.717153668403625488 0.0135611593723297119 0.0264593176543712616
253.40625 69.8849639892578125 -5.46642446517944336 43 1644759800.27225637 0.702662467956542969 0.710990071296691895 0.026700211688876152 0.0067598181776702404
253.125411987304688 80.2592239379882812 -5.64892053604125977 44 1644759801.76741576 0.686091482639312744 0.727151393890380859 0.02144601009786129 0.00832836702466011047
252.173568725585938 90.3824005126953125 -5.67174339294433594 45 1644759803.26935339 0.658267855644226074 0.751885592937469482 0.0361643098294734955 0.00660555018112063408
249.882034301757812 100.679206848144531 -5.52439975738525391 46 1644759804.87085438 0.596572935581207275 0.801773786544799805 0.0349844358861446381 0.00597046408802270889
245.774978637695312 110.082923889160156 -5.44118118286132812 47 1644759806.46905589 0.520857274532318115 0.852796316146850586 0.0376957766711711884 0.00502179702743887901
240.199371337890625 118.669403076171875 -5.45507526397705078 48 1644759808.06879282 0.451049715280532837 0.891462206840515137 0.0412901975214481354 0.0120185287669301033
233.331497192382812 126.251388549804688 -5.52222537994384766 49 1644759809.66859555 0.375528305768966675 0.926145851612091064 0.034287530928850174 0.00753359170630574226
225.72283935546875 133.115966796875 -5.57827377319335938 50 1644759811.26966739 0.356413185596466064 0.933478593826293945 0.0398421026766300201 0.000105426959635224193
218.178726196289062 140.052505493164062 -5.60876989364624023 51 1644759812.86813974 0.364556252956390381 0.930200517177581787 0.0414288341999053955 0.0104589434340596199
210.674789428710938 147.038253784179688 -5.64478063583374023 52 1644759814.47135544 0.368071705102920532 0.929064035415649414 0.0368093289434909821 0.00288458424620330334
203.161590576171875 154.081893920898438 -5.68347358703613281 53 1644759816.06946254 0.368052929639816284 0.929211199283599854 0.0332174859941005707 -0.00038763167685829103
195.620468139648438 161.101394653320312 -5.70235967636108398 54 1644759817.66890693 0.368694871664047241 0.929020822048187256 0.0313733257353305817 -0.000420020136516541243
188.109909057617188 168.107894897460938 -5.64003753662109375 55 1644759819.27019119 0.366595625877380371 0.929589569568634033 0.0374829620122909546 -0.00811713468283414841
180.5908203125 175.068603515625 -5.49589633941650391 56 1644759820.87112498 0.364677995443344116 0.930282950401306152 0.0388377942144870758 -0.0086713004857301712
173.085403442382812 181.913909912109375 -5.36601829528808594 57 1644759822.4665978 0.36485859751701355 0.929820895195007324 0.0472746007144451141 -0.00873858761042356491
165.774887084960938 188.85357666015625 -5.10674524307250977 58 1644759824.07004857 0.374774307012557983 0.92607569694519043 0.0430827774107456207 -0.00848043523728847504
158.142669677734375 196.16864013671875 -4.70946455001831055 59 1644759825.77155232 0.371700942516326904 0.92715609073638916 0.042471766471862793 -0.0204001385718584061
150.456344604492188 203.245315551757812 -4.22384023666381836 60 1644759827.47158742 0.363597452640533447 0.930117249488830566 0.0471441484987735748 -0.0213595032691955566
142.708770751953125 210.1329345703125 -3.71177411079406738 61 1644759829.16533732 0.355376899242401123 0.933527231216430664 0.0421850122511386871 -0.0213220845907926559
134.741989135742188 216.862289428710938 -3.16343045234680176 62 1644759830.86824679 0.313606530427932739 0.948572039604187012 0.0359041504561901093 -0.0239366162568330765
126.262199401855469 222.891860961914062 -2.68365740776062012 63 1644759832.56898284 0.303777247667312622 0.951445102691650391 0.042963121086359024 -0.0250147785991430283
117.743522644042969 228.840591430664062 -2.16656589508056641 64 1644759834.26834464 0.296575278043746948 0.95385444164276123 0.0388826467096805573 -0.0263233557343482971
109.057929992675781 234.508468627929688 -1.64628219604492188 65 1644759835.96863341 0.281991750001907349 0.958114862442016602 0.0407591797411441803 -0.0289001371711492538
100.2054443359375 239.955093383789062 -1.08941066265106201 66 1644759837.66803527 0.271187007427215576 0.961244642734527588 0.038338053971529007 -0.0315678864717483521
91.3577651977539062 245.355697631835938 -0.526450693607330322 67 1644759839.37136316 0.274037390947341919 0.960394680500030518 0.0396450720727443695 -0.0312072355300188065
82.508453369140625 250.71514892578125 0.0691315010190010071 68 1644759841.07203889 0.263902992010116577 0.963248729705810547 0.0391732454299926758 -0.0311860237270593643
73.4633255004882812 255.720352172851562 0.613617956638336182 69 1644759842.77006721 0.246815547347068787 0.967601299285888672 0.0446132831275463104 -0.0289726797491312027
64.23602294921875 260.477996826171875 1.21678173542022705 70 1644759844.46945572 0.234512895345687866 0.970892906188964844 0.0385481938719749451 -0.0297435205429792404
54.9846153259277344 265.0345458984375 1.79612910747528076 71 1644759846.1672833 0.2252226322889328 0.97285991907119751 0.0417012013494968414 -0.0328531339764595032
45.5221672058105469 269.121246337890625 2.3796088695526123 72 1644759847.86761999 0.191286996006965637 0.979163110256195068 0.059262789785861969 -0.0337172485888004303
36.1043243408203125 272.87774658203125 3.17306280136108398 73 1644759849.56510043 0.195774510502815247 0.977980315685272217 0.0533512011170387268 -0.0487897656857967377
26.4239025115966797 275.627166748046875 3.96357250213623047 74 1644759851.36689019 0.0721735432744026184 0.99541175365447998 0.047380395233631134 -0.0412494577467441559
21.1900157928466797 275.02557373046875 4.1939697265625 75 1644759852.46549869 -0.108552441000938416 0.992416143417358398 0.0467096380889415741 -0.0338342338800430298
17.5811061859130859 273.21624755859375 4.37614297866821289 76 1644759853.36580515 -0.284625738859176636 0.956214070320129395 0.0131211960688233376 -0.0668626725673675537
15.3467178344726562 270.63812255859375 4.62318038940429688 77 1644759854.16665363 -0.452163606882095337 0.890187263488769531 -0.00799349695444107056 -0.0552342534065246582
13.8712005615234375 266.54107666015625 4.93422460556030273 78 1644759855.26442695 -0.600242435932159424 0.797936856746673584 -0.00725764548406004906 -0.0543424971401691437
12.6256475448608398 258.620574951171875 5.31350421905517578 79 1644759857.36601496 -0.668085217475891113 0.742753505706787109 -0.0104763694107532501 -0.0432388558983802795
12.6790714263916016 250.958023071289062 5.67163419723510742 80 1644759859.36620665 -0.72728651762008667 0.684854388236999512 -0.01486197579652071 -0.0425197109580039978
14.3579158782958984 242.905044555664062 5.93274164199829102 81 1644759861.46688104 -0.799326002597808838 0.599827885627746582 -0.0139064332470297813 -0.0330312326550483704
16.7767925262451172 234.916854858398438 6.14109325408935547 82 1644759863.46692157 -0.800683736801147461 0.598162293434143066 -0.0117835728451609612 -0.0311211347579956055
19.1813945770263672 226.643508911132812 6.25714206695556641 83 1644759865.56641412 -0.796300232410430908 0.604552626609802246 -0.00233081704936921597 -0.0204119496047496796
21.0390796661376953 219.930206298828125 6.15358829498291016 84 1644759867.56696057 -0.794645488262176514 0.60697019100189209 -0.00013071406283415854 -0.0112127438187599182
22.878448486328125 211.572555541992188 5.93450117111206055 85 1644759869.66690063 -0.778320968151092529 0.627762377262115479 -0.00841453112661838531 0.00775217078626155853
24.9530239105224609 201.80035400390625 5.49884986877441406 86 1644759871.56789207 -0.767738044261932373 0.64038538932800293 0.00470602931454777718 0.0215102452784776688
26.0138397216796875 191.587387084960938 5.08469915390014648 87 1644759873.266922 -0.722436904907226562 0.691205739974975586 0.00295580225065350533 0.0176295395940542221
25.8876113891601562 181.490768432617188 4.63747167587280273 88 1644759874.86882472 -0.687608480453491211 0.725974082946777344 0.00282294140197336674 0.0121731953695416451
24.5850353240966797 171.471054077148438 4.20327329635620117 89 1644759876.46581674 -0.629615366458892822 0.776747584342956543 0.0148743763566017151 0.00514526385813951492
21.2220726013183594 161.88897705078125 3.87518668174743652 90 1644759878.06858015 -0.541666090488433838 0.840568780899047852 0.00625645974650979042 -0.00167857634369283915
16.3008708953857422 153.019561767578125 3.58713483810424805 91 1644759879.66852355 -0.486637860536575317 0.873591005802154541 0.00455336039885878563 0.00124831288121640682
10.413874626159668 144.912872314453125 3.33754611015319824 92 1644759881.26924109 -0.43570399284362793 0.900075316429138184 0.00451242877170443535 -0.00246124435216188431
4.51094722747802734 136.774917602539062 3.15277194976806641 93 1644759883.07258105 -0.467731118202209473 0.883810281753540039 0.00704547017812728882 -0.00757047766819596291
-0.272029846906661987 127.977943420410156 2.97675371170043945 94 1644759885.17201686 -0.577616989612579346 0.816270351409912109 0.00562744820490479469 0.00544698815792798996
1.22389757633209229 118.037857055664062 2.7010493278503418 95 1644759887.0708766 -0.810828924179077148 0.584858059883117676 0.0149344252422451973 -0.0165678001940250397
4.43122529983520508 108.569046020507812 2.35490322113037109 96 1644759888.76935267 -0.803530991077423096 0.595120012760162354 0.0108078634366393089 -0.00729829631745815277
6.95051050186157227 98.5914688110351562 2.01636838912963867 97 1644759890.46919203 -0.778336942195892334 0.627691507339477539 0.0122964531183242798 -0.00661288155242800713
8.66067886352539062 88.1297760009765625 1.74551868438720703 98 1644759892.16987443 -0.75394284725189209 0.656929671764373779 0.00170735130086541176 -0.00327311200089752674
9.69800281524658203 77.62811279296875 1.63595402240753174 99 1644759893.86869264 -0.724134564399719238 0.689534366130828857 -0.00115957565139979124 -0.0130447950214147568
9.66883277893066406 67.6202774047851562 1.45381414890289307 100 1644759895.46829867 -0.704936802387237549 0.709256470203399658 0.00149500730913132429 -0.00414270581677556038
9.7462310791015625 57.0003471374511719 1.43252027034759521 101 1644759897.16571474 -0.712037742137908936 0.701764583587646484 0.00504069915041327477 -0.0224360097199678421
9.92373371124267578 46.5719451904296875 1.58053576946258545 102 1644759898.8662684 -0.704373955726623535 0.708997726440429688 -0.00364558026194572449 -0.0341515280306339264
9.90187835693359375 36.301727294921875 1.8171539306640625 103 1644759900.56933451 -0.712734818458557129 0.700896024703979492 -0.00487089063972234726 -0.0270208399742841721
9.88264942169189453 26.2382011413574219 2.01441597938537598 104 1644759902.26524806 -0.705890357494354248 0.707749366760253906 -0.00454135658219456673 -0.0280881356447935104
10.0477380752563477 16.7048435211181641 2.23160266876220703 105 1644759904.26780677 -0.707044720649719238 0.706595778465270996 -0.00192562479060143232 -0.0283984299749135971
10.0654935836791992 9.66819000244140625 2.06293773651123047 106 1644759906.36711597 -0.703774690628051758 0.709751486778259277 0.0247673466801643372 -0.0184534452855587006
10.3982458114624023 4.20045661926269531 1.90078103542327881 107 1644759908.46742988 -0.731091737747192383 0.681574165821075439 0.0208108499646186829 -0.0229869205504655838
11.0764894485473633 -4.11910629272460938 1.72787880897521973 108 1644759910.56603026 -0.735180079936981201 0.676157772541046143 0.037073913961648941 -0.0307646561414003372
11.5227737426757812 -13.9521780014038086 1.13978409767150879 109 1644759912.66497517 -0.740858733654022217 0.671052455902099609 0.0257428400218486786 0.0124207250773906708
15.1036233901977539 -23.5560512542724609 0.866038680076599121 110 1644759914.76513028 -0.798951566219329834 0.601154148578643799 0.0100075369700789452 -0.0137818753719329834
16.1415004730224609 -33.7262992858886719 0.786239326000213623 111 1644759916.6652782 -0.704983532428741455 0.70903170108795166 0.00606748135760426521 -0.0153446691110730171
14.3716192245483398 -42.5404434204101562 0.770000278949737549 112 1644759918.4660399 -0.567373275756835938 0.823153913021087646 0.0147354556247591972 -0.0169713757932186127
10.6763095855712891 -52.3737030029296875 0.834044396877288818 113 1644759920.56271052 -0.643815696239471436 0.764779269695281982 -0.00795862358063459396 -0.0234661493450403214
10.1737003326416016 -62.9101295471191406 1.00478911399841309 114 1644759922.36344385 -0.705442547798156738 0.708588600158691406 -0.0102845262736082077 -0.0121343517675995827
10.1765813827514648 -73.4752578735351562 1.07813739776611328 115 1644759924.06450057 -0.700182497501373291 0.713723599910736084 -0.00728591764345765114 -0.0170303191989660263
10.2742834091186523 -83.648529052734375 1.18464839458465576 116 1644759925.76675248 -0.708936572074890137 0.705069363117218018 -0.00781918782740831375 -0.0149989333003759384
10.5977249145507812 -93.930084228515625 1.24732208251953125 117 1644759927.86733198 -0.72313225269317627 0.690050899982452393 -0.0106907999143004417 -0.0281992014497518539
9.26885414123535156 -104.212783813476562 1.29204654693603516 118 1644759929.86998272 -0.563928484916687012 0.825654089450836182 0.00699853012338280678 -0.0151987941935658455
6.35888957977294922 -108.143157958984375 1.34857332706451416 119 1644759930.86953735 -0.394303083419799805 0.918976128101348877 0.00282870535738766193 -3.69322406186256558e-05
3.53438043594360352 -109.647697448730469 1.30645847320556641 120 1644759931.57163954 -0.205047264695167542 0.978668451309204102 0.0126633122563362122 -0.00181697157677263021
0.471765190362930298 -109.887481689453125 1.30036091804504395 121 1644759932.26853514 -0.0150177245959639549 0.999845564365386963 0.00885995756834745407 -0.00220446265302598476
-3.16610002517700195 -108.939018249511719 1.24402463436126709 122 1644759933.16392136 0.170670300722122192 0.984779536724090576 0.0295153222978115082 0.014483175240457058
-5.24417352676391602 -107.062309265136719 1.23769152164459229 123 1644759933.86990595 0.356900960206985474 0.934132814407348633 -0.00378141528926789761 -0.00182229885831475258
-6.39441299438476562 -104.744590759277344 1.20923531055450439 124 1644759934.4691298 0.535401225090026855 0.844539403915405273 -0.00210534781217575073 -0.00970884785056114197
-6.75102901458740234 -101.389846801757812 1.194008469581604 125 1644759935.16491413 0.678788065910339355 0.734262406826019287 -0.000238499589613638818 -0.0102678844705224037
-6.88177585601806641 -91.2983779907226562 1.10453581809997559 126 1644759936.9664526 0.704249858856201172 0.709467530250549316 0.00284811947494745255 -0.0260743517428636551
-7.04978561401367188 -80.7102584838867188 1.05057621002197266 127 1644759938.66330481 0.698165357112884521 0.715662181377410889 -0.00217859935946762562 -0.0196978766471147537
-7.17284870147705078 -70.565093994140625 0.990445077419281006 128 1644759940.26291823 0.707771837711334229 0.706197857856750488 -0.00162914523389190435 -0.0184665732085704803
-6.62756109237670898 -60.0944709777832031 0.95713275671005249 129 1644759941.96318698 0.74291759729385376 0.669023275375366211 -0.0054036150686442852 -0.0212625265121459961
-4.61870861053466797 -52.8385353088378906 0.961431622505187988 130 1644759943.36480379 0.848567783832550049 0.529031813144683838 0.00224779336713254452 -0.00728359073400497437
-2.1554408073425293 -50.1492652893066406 1.02217686176300049 131 1644759944.16435337 0.934686720371246338 0.355248749256134033 0.0126057006418704987 -0.000349818670656532049
0.568271040916442871 -49.0046043395996094 0.984065592288970947 132 1644759944.86288095 0.98610156774520874 0.165365159511566162 0.00401685805991292 0.0155531903728842735
3.34171772003173828 -49.0187530517578125 0.972796142101287842 133 1644759945.56182861 0.999586999416351318 -0.0222721043974161148 0.00327346683479845524 0.0178634822368621826
6.16010093688964844 -50.1586341857910156 0.938915252685546875 134 1644759946.26256156 0.975381851196289062 -0.219346880912780762 -0.00784486066550016403 0.0213466528803110123
7.96363067626953125 -52.0177574157714844 0.885687649250030518 135 1644759946.86303449 0.91785740852355957 -0.396690458059310913 -0.00861618854105472565 0.0100111030042171478
8.92151927947998047 -54.2690925598144531 0.892045259475708008 136 1644759947.46464777 0.833925604820251465 -0.551859676837921143 0.000144903489854186773 0.00435593537986278534
10.465876579284668 -61.2919502258300781 0.974451839923858643 137 1644759949.46467447 0.847331821918487549 -0.530884444713592529 0.012977047823369503 0.0046933349221944809
17.9247283935546875 -63.8431434631347656 0.90250849723815918 138 1644759951.56388617 0.999955654144287109 -0.0021535046398639679 0.0043528461828827858 0.00806628633290529251
26.8845577239990234 -63.4859504699707031 0.827256262302398682 139 1644759953.56588364 0.999432682991027832 0.0150913447141647339 0.00537100667133927345 0.0296263620257377625
35.753936767578125 -62.2950477600097656 0.798032641410827637 140 1644759955.56715441 0.988778173923492432 0.148879766464233398 0.00407246919348835945 0.0116575481370091438
39.8466529846191406 -59.6399765014648438 0.713063716888427734 141 1644759956.76654649 0.947318553924560547 0.319877564907073975 0.0118306167423725128 0.0112232109531760216
46.2866783142089844 -55.4614944458007812 0.522531390190124512 142 1644759958.7666471 0.980886757373809814 0.193761318922042847 -0.00888414867222309113 -0.0154539644718170166
56.0864715576171875 -54.8159255981445312 0.247103646397590637 143 1644759960.76749182 0.999773561954498291 0.0115962633863091469 -0.00924042891710996628 -0.0152619685977697372
66.4149551391601562 -54.6287117004394531 -0.0207237917929887772 144 1644759962.46919608 0.999968230724334717 0.00420096982270479202 -0.00561062386259436607 -0.00380061473697423935
76.6971435546875 -54.7114448547363281 -0.0931980162858963013 145 1644759964.0684514 0.999868392944335938 -0.000242685404373332858 0.0161981526762247086 0.000901706109289079905
86.9750442504882812 -54.4706153869628906 0.00412770779803395271 146 1644759965.66836047 0.99979788064956665 -0.00270022288896143436 0.0145250000059604645 0.0136372484266757965
97.2223358154296875 -54.54364013671875 0.123260945081710815 147 1644759967.26557279 0.999876916408538818 -0.00197887257672846317 0.0151149509474635124 0.00371076120063662529
107.454505920410156 -54.7299156188964844 0.291104495525360107 148 1644759968.86388969 0.999866247177124023 -0.0129160815849900246 0.00978500675410032272 -0.00221083080396056175
117.730842590332031 -55.8251190185546875 0.474292099475860596 149 1644759970.56682563 0.994499504566192627 -0.101967170834541321 0.0221419837325811386 0.00912172719836235046
127.021308898925781 -59.93927001953125 1.1624140739440918 150 1644759972.26522493 0.959919512271881104 -0.275418579578399658 0.0518710128962993622 0.00292317802086472511
134.885665893554688 -66.5493011474609375 2.25442409515380859 151 1644759974.06471682 0.920363426208496094 -0.38506627082824707 0.0663173049688339233 0.016036132350564003
141.457366943359375 -74.4977264404296875 3.10220074653625488 152 1644759976.06126761 0.890648603439331055 -0.452732294797897339 0.0396202355623245239 0.0144488867372274399
145.45074462890625 -81.3953704833984375 3.45319652557373047 153 1644759978.06684637 0.80694127082824707 -0.589973926544189453 0.0207802094519138336 0.0185661818832159042
146.051467895507812 -89.5885467529296875 3.81800675392150879 154 1644759980.15948725 0.799507081508636475 -0.598755002021789551 0.0477504134178161621 -0.000894214259460568428
152.508743286132812 -94.604400634765625 4.17111921310424805 155 1644759982.25974083 0.988596022129058838 -0.149736493825912476 0.0142587004229426384 -0.00731625407934188843
155.301406860351562 -94.432769775390625 4.17681884765625 156 1644759982.9642911 0.998866915702819824 0.0457833558320999146 0.00392906088382005692 -0.0123818395659327507
157.492477416992188 -93.3299636840820312 4.10880184173583984 157 1644759983.55900025 0.970398247241973877 0.24038366973400116 -0.0134419752284884453 -0.0190330613404512405
158.847137451171875 -91.73211669921875 4.02493429183959961 158 1644759984.06400108 0.912733674049377441 0.407552063465118408 -0.0248308423906564713 -0.0142117645591497421
162.802597045898438 -84.3224639892578125 3.66058444976806641 159 1644759986.1634233 0.897163033485412598 0.441461265087127686 -0.0140256723389029503 0.00370411132462322712
169.224685668945312 -78.2295989990234375 3.23634743690490723 160 1644759988.26084566 0.937397181987762451 0.347706913948059082 -0.0190945211797952652 0.00467505725100636482
175.578887939453125 -71.8573989868164062 2.94757533073425293 161 1644759990.35978961 0.908287227153778076 0.418233960866928101 -0.0096858954057097435 0.000930702430196106434
180.907608032226562 -64.5745086669921875 2.55199170112609863 162 1644759992.45949674 0.890849173069000244 0.453245341777801514 -0.0122946519404649734 0.0283761564642190933
183.115371704101562 -59.3471603393554688 2.27256035804748535 163 1644759993.75941062 0.796733260154724121 0.603271901607513428 -0.00798307172954082489 0.0348625741899013519
182.873779296875 -55.6797142028808594 1.92749011516571045 164 1644759994.56331396 0.666827380657196045 0.743770360946655273 -0.00419894512742757797 0.0461440347135066986
181.399642944335938 -52.6646614074707031 1.61757802963256836 165 1644759995.26118612 0.513720571994781494 0.856467068195343018 -0.00344388745725154877 0.050432983785867691
173.809005737304688 -43.0640907287597656 0.552921533584594727 166 1644759997.35962224 0.44163927435874939 0.895851552486419678 0.0165339037775993347 0.0461670048534870148
165.1529541015625 -32.4575462341308594 -0.676521956920623779 167 1644759999.36017442 0.415386736392974854 0.908683240413665771 -0.00281897815875709057 0.0417216233909130096
154.795700073242188 -21.3792057037353516 -2.04157662391662598 168 1644760001.45958114 0.369425475597381592 0.928185522556304932 0.000892679090611636639 0.0446732714772224426
142.910934448242188 -12.5831203460693359 -3.26354527473449707 169 1644760003.46131825 0.268683135509490967 0.962730765342712402 0.00775127718225121498 0.0299787558615207672
129.023757934570312 -6.50116157531738281 -4.16218328475952148 170 1644760005.56107235 0.147590294480323792 0.988876283168792725 0.00540173565968871117 0.0176511947065591812
115.794868469238281 -3.92500591278076172 -4.57063961029052734 171 1644760007.56233287 0.0603142455220222473 0.998117268085479736 0.00987006351351737976 0.00516737345606088638
103.218498229980469 -3.55874443054199219 -4.5286107063293457 172 1644760009.56288481 -0.0107734417542815208 0.999781131744384766 0.00838675070554018021 -0.015851905569434166
91.0832290649414062 -3.97568583488464355 -4.35746097564697266 173 1644760011.56366396 -0.00624665059149265289 0.999808430671691895 0.00645301351323723793 -0.0173895210027694702
79.2344894409179688 -3.87686800956726074 -3.90807342529296875 174 1644760013.56494713 0.00168880680575966835 0.999523162841796875 0.0052443300373852253 -0.0303832590579986572
67.0169677734375 -4.00047063827514648 -3.40221142768859863 175 1644760015.66379189 -0.00457226578146219254 0.999083757400512695 0.0119111360982060432 -0.0408521853387355804
54.8747749328613281 -4.32589101791381836 -2.78912210464477539 176 1644760017.76460171 -0.0130120478570461273 0.999123692512512207 0.0121435355395078659 -0.0378820784389972687
43.5199775695800781 -4.93245601654052734 -2.11164140701293945 177 1644760019.76495504 -0.0292315743863582611 0.99880295991897583 0.0122561631724238396 -0.037255801260471344
31.9003276824951172 -5.07203865051269531 -1.3564002513885498 178 1644760021.8621037 0.00622269371524453163 0.998860716819763184 0.00522253662347793579 -0.047024700790643692
21.7824268341064453 -5.23076915740966797 -0.673260509967803955 179 1644760023.96231604 -0.00859283283352851868 0.999006390571594238 0.0114260101690888405 -0.042211439460515976
13.810307502746582 -5.34814548492431641 -0.120559044182300568 180 1644760025.96372271 -0.0119260624051094055 0.998527944087982178 0.0166541635990142822 -0.0502225831151008606
5.32322072982788086 -5.86254405975341797 0.494281917810440063 181 1644760028.06479287 -0.0442449450492858887 0.998132646083831787 0.00397214945405721664 -0.0419266894459724426
-1.63762521743774414 -5.42715215682983398 0.978375852108001709 182 1644760030.06495714 0.109879888594150543 0.992979228496551514 0.0108382189646363258 -0.0424405112862586975
-3.01272249221801758 -4.3668670654296875 1.08570206165313721 183 1644760030.76250386 0.286291807889938354 0.957509279251098633 -0.00215857289731502533 -0.0347613506019115448
-3.60987567901611328 -3.06011843681335449 1.1758800745010376 184 1644760031.46482444 0.474362969398498535 0.879345715045928955 0.00116442795842885971 -0.0415883511304855347
-3.62458634376525879 -1.73135769367218018 1.15407168865203857 185 1644760032.06406236 0.640474557876586914 0.767575681209564209 -0.0177004653960466385 -0.0175103992223739624
-3.12348270416259766 -0.7923775315284729 1.11382806301116943 186 1644760032.56458068 0.773746669292449951 0.632876396179199219 -0.0232764780521392822 -0.0155502501875162125
-2.33217787742614746 -0.131483674049377441 1.03280854225158691 187 1644760033.06222987 0.877651751041412354 0.478056967258453369 -0.0337809547781944275 -0.00691340025514364243
-1.41354620456695557 0.172376632690429688 0.956631124019622803 188 1644760033.56341887 0.948572456836700439 0.314248353242874146 -0.0380234047770500183 0.00352813233621418476
0.283209085464477539 -0.155305996537208557 0.839103281497955322 189 1644760035.66347146 0.999110400676727295 0.0023165049497038126 -0.0420118421316146851 0.00283701741136610508
