# .PCD v0.7 - Point Cloud Data file format
VERSION 0.7
FIELDS x y z intensity t qx qy qz qw
SIZE 4 4 4 4 8 4 4 4 4
TYPE F F F F F F F F F
COUNT 1 1 1 1 1 1 1 1 1
WIDTH 143
HEIGHT 1
VIEWPOINT 0 0 0 1 0 0 0
POINTS 143
DATA ascii
-0.0119648566469550133 -0.0234184842556715012 0.0348413065075874329 0 1645021150.49882555 0.999620318412780762 0.000114906397357117385 0.0275266729295253754 -0.00119972263928502798
0.361260443925857544 -0.0290033090859651566 0.0676631331443786621 1 1645021152.698663 0.999413907527923584 -0.00114929862320423126 0.0341134294867515564 -0.00260401959531009197
4.87263107299804688 -0.00541612599045038223 0.357200175523757935 2 1645021154.69963384 0.999473512172698975 0.00225725048221647739 0.0323637016117572784 0.00048231755499728024
11.8249168395996094 0.199092850089073181 0.801392674446105957 3 1645021156.70120811 0.999305129051208496 0.0142485657706856728 0.03302793949842453 0.00976980011910200119
20.4145336151123047 0.589716494083404541 1.40656542778015137 4 1645021158.80186915 0.999051511287689209 0.025084473192691803 0.0355114899575710297 0.00240748841315507889
29.1657218933105469 1.18138432502746582 2.06858158111572266 5 1645021160.80260324 0.998586118221282959 0.0315530337393283844 0.0420158728957176208 0.00805123988538980484
38.0661773681640625 1.84271156787872314 2.82265615463256836 6 1645021162.80279851 0.998749792575836182 0.0222338959574699402 0.0437816902995109558 0.00936088617891073227
46.9215812683105469 1.93356943130493164 3.61420536041259766 7 1645021164.80331874 0.998740673065185547 -0.00575851369649171829 0.0493778176605701447 0.00676148291677236557
56.0746726989746094 2.05139279365539551 4.46608877182006836 8 1645021166.90150428 0.998285233974456787 0.0325695537030696869 0.0486397519707679749 -0.000155106652528047562
65.0516433715820312 3.22433090209960938 5.29561376571655273 9 1645021169.00145721 0.996601462364196777 0.0679423063993453979 0.0459859222173690796 0.00738971447572112083
70.7467117309570312 4.91304874420166016 5.83317470550537109 10 1645021170.3987174 0.967489480972290039 0.24914039671421051 0.0435103140771389008 7.17023067409172654e-06
72.1320724487304688 6.62641763687133789 5.96112251281738281 11 1645021170.89991307 0.902487754821777344 0.429394006729125977 0.0332751385867595673 0.0054263225756585598
72.7459487915039062 8.76799488067626953 6.02975273132324219 12 1645021171.40012908 0.808738589286804199 0.587024092674255371 0.0323910042643547058 0.0171898175030946732
72.7384719848632812 14.2255792617797852 5.72757720947265625 13 1645021172.49969053 0.68720632791519165 0.724576830863952637 0.0148886134847998619 0.0501417666673660278
72.0679092407226562 24.4960041046142578 5.60070371627807617 14 1645021174.20322776 0.698550999164581299 0.715124607086181641 0.020997932180762291 0.0135054588317871094
71.648712158203125 34.8793678283691406 5.616241455078125 15 1645021175.90215111 0.705646634101867676 0.70696723461151123 -1.77532037923811004e-05 0.0475412085652351379
75.2613601684570312 43.8570976257324219 5.82701778411865234 16 1645021178.00171614 0.911970674991607666 0.410202533006668091 0.00653768237680196762 -0.000811072182841598988
83.4107894897460938 49.881072998046875 6.16204595565795898 17 1645021179.80221772 0.940606176853179932 0.338228732347488403 0.0112781506031751633 -0.0270947553217411041
87.8558578491210938 59.153472900390625 6.29942178726196289 18 1645021181.50251722 0.760564684867858887 0.649132013320922852 0.00552857993170619011 -0.0117650460451841354
87.2466659545898438 69.6456069946289062 6.49084997177124023 19 1645021183.10140347 0.682504415512084961 0.730523288249969482 0.0204680655151605606 0.0102236215025186539
86.6807937622070312 79.7898101806640625 6.69113588333129883 20 1645021184.6015234 0.688889145851135254 0.724646091461181641 0.0178023912012577057 0.00170974154025316238
85.7676925659179688 89.97607421875 6.93001317977905273 21 1645021186.10202193 0.672130405902862549 0.740225076675415039 0.0172662213444709778 0.00306287454441189766
84.9303207397460938 100.206016540527344 7.20472240447998047 22 1645021187.60454535 0.690633833408355713 0.722736835479736328 0.0259961765259504318 0.000775278545916080475
83.2418365478515625 110.008636474609375 7.48360443115234375 23 1645021189.40162301 0.506534457206726074 0.862128615379333496 -0.00906338170170783997 -0.00865522120147943497
81.7481002807617188 111.028800964355469 7.47209692001342773 24 1645021189.90114045 0.322629243135452271 0.946275651454925537 -0.0213288068771362305 0.00422055181115865707
79.305145263671875 111.69580078125 7.47812271118164062 25 1645021190.70354128 0.146830707788467407 0.988911211490631104 -0.0222519394010305405 0.000438435672549530864
75.9188385009765625 111.595703125 7.42480325698852539 26 1645021191.60236931 -0.0484640300273895264 0.998581290245056152 -0.0174516960978507996 0.0134932734072208405
73.7193527221679688 110.465286254882812 7.38849115371704102 27 1645021192.20174026 -0.255433231592178345 0.966176152229309082 -0.031495463103055954 0.0162943266332149506
72.4807968139648438 108.671501159667969 7.32524013519287109 28 1645021192.70196486 -0.468430131673812866 0.882477998733520508 -0.0224939305335283279 0.036053583025932312
72.052642822265625 106.169075012207031 7.25550270080566406 29 1645021193.30332541 -0.62165600061416626 0.783053576946258545 0.00425059394910931587 0.0187824815511703491
72.4684829711914062 99.1877365112304688 7.08997821807861328 30 1645021194.80383611 -0.751441657543182373 0.659783005714416504 0.00366211310029029846 0.00290567148476839066
73.3343276977539062 88.8083572387695312 6.88935279846191406 31 1645021196.7025075 -0.724341630935668945 0.689432024955749512 5.04029048897791654e-05 -0.00355426990427076817
73.581390380859375 78.3303680419921875 6.5920109748840332 32 1645021198.4067235 -0.715870022773742676 0.698107123374938965 0.00465640239417552948 0.0124436076730489731
73.9437332153320312 67.751434326171875 6.30637931823730469 33 1645021200.0076735 -0.714572727680206299 0.699170470237731934 0.00276662339456379414 0.023211505264043808
74.4942474365234375 57.5175514221191406 6.01583147048950195 34 1645021201.50633526 -0.712053894996643066 0.701989412307739258 0.00857253000140190125 0.0108013628050684929
74.666473388671875 43.81707763671875 5.82857131958007812 35 1645021203.5075984 -0.723110437393188477 0.690543413162231445 -0.0112051013857126236 0.0116425268352031708
75.2936477661132812 31.3210048675537109 5.66363191604614258 36 1645021205.50913453 -0.70961529016494751 0.70222318172454834 0.0401606336236000061 0.0414229221642017365
75.6776885986328125 21.2465438842773438 5.65969610214233398 37 1645021207.60908461 -0.719899415969848633 0.694069385528564453 -0.00165160326287150383 0.00312733021564781666
76.03155517578125 10.0461301803588867 6.27629756927490234 38 1645021209.70956802 -0.719512641429901123 0.691248953342437744 -0.0637737438082695007 -0.0202310513705015182
76.5137100219726562 -0.50712275505065918 6.40333127975463867 39 1645021211.70958543 -0.732646048069000244 0.677998602390289307 -0.0320579260587692261 0.0501990094780921936
77.1983795166015625 -10.9479866027832031 6.47840309143066406 40 1645021213.51275826 -0.71686398983001709 0.696797788143157959 -0.0200822465121746063 0.0132498973980545998
77.6616134643554688 -21.1121444702148438 6.23165273666381836 41 1645021215.10974026 -0.739772260189056396 0.672074556350708008 -0.00256497669033706188 0.0323451124131679535
78.6431198120117188 -31.5033607482910156 5.89168357849121094 42 1645021216.60906148 -0.738855302333831787 0.672827422618865967 -0.0187583863735198975 0.0323146656155586243
79.7352218627929688 -41.48687744140625 5.59144353866577148 43 1645021218.00875854 -0.741720795631408691 0.670235157012939453 0.000571353302802890539 0.0251953825354576111
80.1894760131835938 -51.5325393676757812 5.30257177352905273 44 1645021219.41299987 -0.726659774780273438 0.686134874820709229 -0.014715367928147316 0.0311121735721826553
80.7734451293945312 -61.5439872741699219 5.09211874008178711 45 1645021220.81096864 -0.726374685764312744 0.686518430709838867 -0.0232313033193349838 0.0230789110064506531
81.2387466430664062 -72.117706298828125 5.08915996551513672 46 1645021222.31173372 -0.718624532222747803 0.694692432880401611 -0.0234088804572820663 0.0208142008632421494
82.5356597900390625 -82.5100479125976562 5.04131078720092773 47 1645021223.81258917 -0.78103560209274292 0.623620092868804932 -0.014841938391327858 0.0293452944606542587
84.6329879760742188 -92.7332229614257812 5.10791015625 48 1645021225.30478358 -0.772359549999237061 0.634533941745758057 -0.0243438892066478729 0.0153228519484400749
87.3294906616210938 -102.724945068359375 5.30156469345092773 49 1645021226.80584216 -0.815122306346893311 0.578210890293121338 -0.0223499424755573273 0.0273549593985080719
91.39373779296875 -112.132217407226562 5.53497314453125 50 1645021228.30884457 -0.840443432331085205 0.541219592094421387 -0.0218433644622564316 0.0160948317497968674
95.22418212890625 -121.519584655761719 5.74670648574829102 51 1645021229.90804791 -0.804311990737915039 0.593924820423126221 -0.014011886902153492 0.0117981014773249626
94.2273025512695312 -130.004791259765625 5.75944709777832031 52 1645021231.60699439 -0.57378089427947998 0.818166971206665039 -0.0171961262822151184 0.0329024754464626312
90.2984085083007812 -135.888748168945312 5.6717829704284668 53 1645021233.00533867 -0.418916583061218262 0.907942116260528564 -0.00492674857378005981 0.0112136909738183022
83.274017333984375 -143.123672485351562 5.63522720336914062 54 1645021234.70564318 -0.410083740949630737 0.912009119987487793 -0.00303210876882076263 -0.00784008670598268509
77.532989501953125 -151.706405639648438 5.70507049560546875 55 1645021236.30481315 -0.509889304637908936 0.860205590724945068 -0.00646381918340921402 -0.00418319227173924446
73.3888092041015625 -160.935211181640625 5.84665393829345703 56 1645021237.80479693 -0.56876683235168457 0.822466194629669189 -0.00578318722546100616 -0.00449853343889117241
70.752227783203125 -170.760589599609375 6.0658564567565918 57 1645021239.3044672 -0.637219727039337158 0.770562469959259033 -0.0086500849574804306 -0.0104742478579282761
69.9811859130859375 -180.998367309570312 6.33266830444335938 58 1645021240.80498004 -0.707799434661865234 0.706158339977264404 -0.016185566782951355 -0.00991968065500259399
71.1661529541015625 -191.086456298828125 6.64061403274536133 59 1645021242.30450273 -0.768462598323822021 0.639700472354888916 -0.00423680571839213371 -0.0151860956102609634
73.7277603149414062 -200.789443969726562 6.94578218460083008 60 1645021244.00500917 -0.805025219917297363 0.592518925666809082 0.000601795152761042118 -0.0292456541210412979
77.0342788696289062 -209.217254638671875 7.30164480209350586 61 1645021246.10586524 -0.825435400009155273 0.564330458641052246 -0.00557573931291699409 -0.0125081902369856834
79.0691070556640625 -214.63739013671875 7.48630285263061523 62 1645021248.10973907 -0.813772022724151611 0.581171929836273193 0.000476762827020138502 -0.00375445117242634296
81.4091262817382812 -222.739227294921875 7.70467853546142578 63 1645021250.20794606 -0.792487740516662598 0.609381735324859619 -0.0191544927656650543 0.0158176161348819733
83.4434585571289062 -232.531173706054688 7.41491317749023438 64 1645021252.21029186 -0.768185913562774658 0.639627218246459961 0.0148018142208456993 0.0234166719019412994
85.3739700317382812 -242.74554443359375 6.97843313217163086 65 1645021254.20889068 -0.78800511360168457 0.61501467227935791 0.00771164940670132637 0.0273023098707199097
88.2000656127929688 -252.8704833984375 6.55200386047363281 66 1645021256.10834479 -0.782847285270690918 0.620988965034484863 0.00901891477406024933 0.037966996431350708
88.895294189453125 -261.373809814453125 6.10590171813964844 67 1645021258.10955453 -0.712606966495513916 0.699731945991516113 -0.00180398125667124987 0.0506287552416324615
88.2161941528320312 -267.09405517578125 5.83024454116821289 68 1645021260.20862603 -0.631963849067687988 0.773463070392608643 -0.00469649303704500198 0.0485227108001708984
87.0181198120117188 -269.02447509765625 5.66723966598510742 69 1645021261.40877533 -0.464289188385009766 0.884360790252685547 0.00679294019937515259 0.0479101836681365967
86.0868148803710938 -269.345428466796875 5.56614017486572266 70 1645021261.90747571 -0.303622692823410034 0.950795292854309082 0.0190308224409818649 0.0586468949913978577
85.0128631591796875 -269.2496337890625 5.4615635871887207 71 1645021262.40709972 -0.109021797776222229 0.991495788097381592 0.033695463091135025 0.0625700429081916809
84.0981369018554688 -268.7879638671875 5.3865809440612793 72 1645021262.90727043 0.0848904401063919067 0.993722856044769287 0.0420348979532718658 0.0595109462738037109
83.3836288452148438 -267.97955322265625 5.36767196655273438 73 1645021263.40735483 0.279238849878311157 0.95722275972366333 0.0534700118005275726 0.0537703558802604675
83.0130996704101562 -267.03839111328125 5.37682151794433594 74 1645021263.80708694 0.453024595975875854 0.887644708156585693 0.0622300095856189728 0.054616536945104599
82.9176406860351562 -265.619140625 5.48050498962402344 75 1645021264.40526056 0.60714113712310791 0.791838347911834717 0.0629159882664680481 0.0203296225517988205
83.2406997680664062 -262.2559814453125 5.71846199035644531 76 1645021265.70633841 0.741449117660522461 0.669443428516387939 0.0457548089325428009 0.00227777403779327869
84.2685928344726562 -256.892364501953125 6.08885622024536133 77 1645021267.7075963 0.771769344806671143 0.634727537631988525 0.0384667031466960907 -0.00365269416943192482
84.1887359619140625 -251.090484619140625 6.46695709228515625 78 1645021269.80715561 0.687249481678009033 0.724914789199829102 0.0466949157416820526 0.00251746107824146748
83.3593978881835938 -245.215896606445312 6.78899240493774414 79 1645021271.90829039 0.630180001258850098 0.775960743427276611 0.0273164510726928711 -0.0034541271161288023
81.4021987915039062 -239.4566650390625 7.01449394226074219 80 1645021273.91005564 0.572258174419403076 0.819737792015075684 0.0233417823910713196 -0.0023828407283872366
78.5539169311523438 -233.134307861328125 7.23838138580322266 81 1645021276.01030827 0.548483848571777344 0.835663378238677979 0.0288247764110565186 0.00117394421249628067
76.1225738525390625 -226.154861450195312 7.43274354934692383 82 1645021278.11013579 0.579358756542205811 0.814706742763519287 0.0243699904531240463 0.00158221449237316847
73.4920120239257812 -218.332763671875 7.39021635055541992 83 1645021280.21121597 0.621045529842376709 0.78360748291015625 0.0140069033950567245 0.00810125377029180527
71.3945388793945312 -209.0743408203125 7.2422795295715332 84 1645021282.31068134 0.595549821853637695 0.803177416324615479 -0.01489988062530756 0.00209815404377877712
68.3261032104492188 -198.601486206054688 6.91647863388061523 85 1645021284.4111948 0.616172969341278076 0.787535965442657471 -0.0101174842566251755 0.00395199889317154884
66.8543548583984375 -186.569656372070312 6.54391336441040039 86 1645021286.51172972 0.681382536888122559 0.73181307315826416 -0.0121790776029229164 0.00437486963346600533
66.4935302734375 -173.396560668945312 6.17636680603027344 87 1645021288.608922 0.724810421466827393 0.688895344734191895 -0.00813054107129573822 0.00264103338122367859
69.9934768676757812 -160.758514404296875 5.87053394317626953 88 1645021290.61068392 0.834826886653900146 0.550511181354522705 0.000277036655461415648 -0.00121310481335967779
76.0342254638671875 -148.064651489257812 5.6734776496887207 89 1645021292.71499252 0.853210985660552979 0.521563827991485596 0.000890533032361418009 0.00118302286136895418
83.7591934204101562 -136.3511962890625 5.5583500862121582 90 1645021294.80927658 0.913499712944030762 0.406716108322143555 0.00600503617897629738 0.00801301468163728714
90.7159042358398438 -125.817611694335938 5.5764923095703125 91 1645021296.81506348 0.792585909366607666 0.609307169914245605 -0.0235008466988801956 0.000284648733213543892
90.4533538818359375 -122.482078552246094 5.55964803695678711 92 1645021297.41338897 0.663824796676635742 0.74779963493347168 0.00502832606434822083 0.0103453807532787323
86.6693649291992188 -111.544639587402344 5.32624959945678711 93 1645021299.41456866 0.574094533920288086 0.818737924098968506 0.00121078896336257458 0.00906729139387607574
82.4017868041992188 -98.9534072875976562 5.04900074005126953 94 1645021301.51300383 0.595346689224243164 0.803387284278869629 0.00117643398698419333 0.0113934334367513657
79.3691864013671875 -86.0732955932617188 4.85047483444213867 95 1645021303.5139277 0.633580565452575684 0.773479759693145752 0.0155896805226802826 0.00785687565803527832
77.660125732421875 -72.3161163330078125 4.9250946044921875 96 1645021305.60911512 0.689057826995849609 0.724472105503082275 0.0136432796716690063 0.0123839592561125755
77.3470001220703125 -58.4046897888183594 4.9850764274597168 97 1645021307.70877147 0.686892449855804443 0.726568341255187988 0.0158623866736888885 -0.00505632488057017326
76.6579971313476562 -45.4397125244140625 5.31716585159301758 98 1645021309.70972753 0.701605677604675293 0.711994051933288574 0.0284025277942419052 -0.00268935598433017731
75.9924240112304688 -33.0375328063964844 5.71642208099365234 99 1645021311.71208596 0.685827970504760742 0.726895630359649658 0.0354887060821056366 0.00179754174314439297
75.53515625 -20.5252532958984375 6.1739201545715332 100 1645021313.80908322 0.701103746891021729 0.712567985057830811 0.0258567053824663162 -0.00563578680157661438
75.0632781982421875 -9.13496208190917969 6.29169178009033203 101 1645021315.80988789 0.683188378810882568 0.729759514331817627 0.00158969464246183634 0.0264993291348218918
73.76007080078125 -5.3953709602355957 6.10786533355712891 102 1645021316.60996127 0.544384002685546875 0.837697684764862061 0.00112099084071815014 0.0436737388372421265
71.8451004028320312 -3.38220429420471191 5.95723104476928711 103 1645021317.21115589 0.386132866144180298 0.922006666660308838 0.00244748988188803196 0.0282685104757547379
68.679351806640625 -1.7207406759262085 5.63317489624023438 104 1645021317.90912127 0.212811574339866638 0.976096034049987793 -0.00511684129014611244 0.0438355021178722382
64.074188232421875 -1.15655732154846191 5.19002676010131836 105 1645021318.70938492 0.0196227598935365677 0.99856114387512207 -0.00483221746981143951 0.049671519547700882
49.7483406066894531 -2.35180926322937012 3.82866573333740234 106 1645021320.80849862 -0.0520705170929431915 0.997423350811004639 0.00887079723179340363 0.0485445261001586914
34.7042694091796875 -3.28528165817260742 2.47539281845092773 107 1645021322.80980206 -0.0231546368449926376 0.998575031757354736 0.0155260181054472923 0.0455045178532600403
19.1867790222167969 -4.04617023468017578 1.25892412662506104 108 1645021324.81003284 -0.0213713999837636948 0.999219417572021484 0.0125894583761692047 0.0307466983795166016
3.71659302711486816 -4.75243282318115234 0.271277487277984619 109 1645021326.81244564 -0.0249393582344055176 0.999124765396118164 -0.00103496352676302195 0.0335650704801082611
-8.57975864410400391 -5.53074836730957031 -0.519482791423797607 110 1645021328.41162658 -0.0294026713818311691 0.999206900596618652 0.00246463739313185215 0.0267390832304954529
-19.1664028167724609 -6.16232156753540039 -0.899125993251800537 111 1645021329.81011248 -0.02368149533867836 0.999413132667541504 0.0152564793825149536 0.0194902680814266205
-29.4094390869140625 -6.28837490081787109 -1.14490079879760742 112 1645021331.2109201 0.025753924623131752 0.999495267868041992 0.0162810292094945908 0.0089930584654211998
-39.8294410705566406 -5.03257608413696289 -1.09636008739471436 113 1645021332.70989323 0.0852840915322303772 0.996347963809967041 -0.00319815962575376034 -0.00266580889001488686
-49.7082023620605469 -2.81899881362915039 -0.932790219783782959 114 1645021334.21205091 0.132270842790603638 0.991098523139953613 -5.48134157725144178e-05 -0.0151059003546833992
-59.4981002807617188 1.02785623073577881 -0.553125977516174316 115 1645021335.81325865 0.247168123722076416 0.968608200550079346 0.00416161026805639267 -0.0262441392987966537
-67.8717880249023438 6.53151464462280273 -0.00934258941560983658 116 1645021337.41325641 0.295226603746414185 0.954858183860778809 0.00152318237815052271 -0.0329361222684383392
-75.7976837158203125 12.6002302169799805 0.671115219593048096 117 1645021339.11299157 0.344471395015716553 0.937911391258239746 0.0111324135214090347 -0.0392136499285697937
-83.0115127563476562 19.7249183654785156 1.43649721145629883 118 1645021341.01572466 0.404788374900817871 0.913681507110595703 0.00619393959641456604 -0.035973869264125824
-89.61737060546875 27.0572052001953125 2.21178531646728516 119 1645021343.01652598 0.393331170082092285 0.918355405330657959 0.0124658001586794853 -0.0419344194233417511
-96.4298858642578125 33.9129791259765625 3.00528645515441895 120 1645021345.11659813 0.387844681739807129 0.920593440532684326 0.0183818209916353226 -0.0417885556817054749
-102.894515991210938 40.3926544189453125 3.71843910217285156 121 1645021347.21761107 0.385509282350540161 0.921683609485626221 0.0150563223287463188 -0.0406838990747928619
-109.199211120605469 46.7327346801757812 4.41225385665893555 122 1645021349.31853151 0.381823688745498657 0.923587560653686523 0.0127829797565937042 -0.0321440994739532471
-114.777984619140625 52.0328025817871094 4.89229011535644531 123 1645021351.41563106 0.351112216711044312 0.936266124248504639 -0.000953849754296243191 -0.0111833950504660606
-118.545761108398438 56.1430854797363281 5.13820075988769531 124 1645021353.41835833 0.472694873809814453 0.881042003631591797 0.00784353166818618774 -0.0162187721580266953
-118.740638732910156 57.6432762145996094 5.20524835586547852 125 1645021354.01584077 0.624740004539489746 0.780482888221740723 0.0195481795817613602 -0.0128164254128932953
-118.310897827148438 58.7318763732910156 5.23462724685668945 126 1645021354.41671467 0.759694576263427734 0.650222420692443848 0.0067122243344783783 -0.00546716293320059776
-117.389045715332031 59.5433807373046875 5.26256370544433594 127 1645021354.91557717 0.879462778568267822 0.475495904684066772 -0.00136092200409621 -0.0211420468986034393
-116.248252868652344 59.9401512145996094 5.22488498687744141 128 1645021355.41474771 0.955231368541717529 0.294945478439331055 -0.018094455823302269 -0.0145888486877083778
-115.198577880859375 59.8761940002441406 5.19175052642822266 129 1645021355.81474066 0.993701159954071045 0.109335646033287048 -0.0195758529007434845 -0.0148482732474803925
-114.24835205078125 59.4236831665039062 5.16137170791625977 130 1645021356.21623397 0.997606992721557617 -0.0652476996183395386 -0.0140946982428431511 -0.0180113334208726883
-113.062469482421875 58.4491424560546875 5.0797734260559082 131 1645021356.71648645 0.966260850429534912 -0.254686713218688965 -0.0177207645028829575 -0.0340687446296215057
-110.385978698730469 55.4708976745605469 4.84335184097290039 132 1645021357.81927705 0.904922246932983398 -0.424968212842941284 -0.0210744403302669525 -0.0085798976942896843
-103.585769653320312 47.2871017456054688 4.12816667556762695 133 1645021359.91369224 0.909131467342376709 -0.41449284553527832 -0.031163366511464119 -0.026542099192738533
-94.392730712890625 37.6794700622558594 3.05949234962463379 134 1645021361.91650605 0.918359696865081787 -0.393035471439361572 -0.0451448149979114532 -0.0100260525941848755
-84.1942596435546875 27.0382919311523438 1.85835874080657959 135 1645021363.91680098 0.91403728723526001 -0.403191715478897095 -0.0425061136484146118 -0.0128666935488581657
-72.8164749145507812 15.6124973297119141 0.606094539165496826 136 1645021366.01850843 0.931022763252258301 -0.362667948007583618 -0.0404112599790096283 -0.00595469865947961807
-59.7769203186035156 5.88124179840087891 -0.484732717275619507 137 1645021368.11234236 0.964227557182312012 -0.263821840286254883 -0.0250958874821662903 -0.00578644871711730957
-45.6868667602539062 0.498679578304290771 -1.0789949893951416 138 1645021370.11370516 0.993160784244537354 -0.116343945264816284 -0.0095541197806596756 -0.00212541362270712852
-30.8715915679931641 -1.59277820587158203 -1.16824090480804443 139 1645021372.21383548 0.999035179615020752 -0.0422490723431110382 0.00783033296465873718 0.00907947681844234467
-17.5446739196777344 -1.36968684196472168 -0.747567474842071533 140 1645021374.21438885 0.998308300971984863 0.0527167618274688721 0.0240612663328647614 -0.00474602589383721352
-4.47808504104614258 0.305205434560775757 -0.239902481436729431 141 1645021376.31269121 0.999031007289886475 0.0361343212425708771 0.0250343251973390579 -0.00216262438334524632
0.894308924674987793 0.423975378274917603 0.0888169705867767334 142 1645021378.31358647 0.999470889568328857 0.0116825271397829056 0.0294937919825315475 -0.00718189915642142296
