# .PCD v0.7 - Point Cloud Data file format
VERSION 0.7
FIELDS x y z intensity t qx qy qz qw
SIZE 4 4 4 4 8 4 4 4 4
TYPE F F F F F F F F F
COUNT 1 1 1 1 1 1 1 1 1
WIDTH 314
HEIGHT 1
VIEWPOINT 0 0 0 1 0 0 0
POINTS 314
DATA ascii
0.858321189880371094 -0.125270530581474304 3.60335922241210938 0 1645018880.02264595 0.999975144863128662 0.00208694953471422195 0.00096783775370568037 0.00666573643684387207
1.02465665340423584 -0.0952092483639717102 3.62614107131958008 1 1645018882.61944127 0.999811172485351562 0.00849867705255746841 0.0170525405555963516 0.00382414041087031364
3.55016636848449707 0.869672119617462158 3.6271212100982666 2 1645018883.82049346 0.97974848747253418 0.200053706765174866 0.00693737762048840523 -0.00482481624931097031
6.59873437881469727 3.6393427848815918 3.5804750919342041 3 1645018884.92115951 0.92826002836227417 0.371644765138626099 -0.00796397868543863297 0.0122520308941602707
11.5638542175292969 9.15174484252929688 3.63046836853027344 4 1645018886.92116094 0.92093503475189209 0.389247655868530273 0.0106655415147542953 0.015849381685256958
18.9000396728515625 13.01226806640625 3.84213399887084961 5 1645018888.92411804 0.994969367980957031 0.0906974524259567261 0.0283343680202960968 0.0317341089248657227
28.9447402954101562 13.0429668426513672 4.41773128509521484 6 1645018890.92218614 0.999316751956939697 -0.000465263263322412968 0.0355717279016971588 0.0100222676992416382
39.119171142578125 13.1068801879882812 5.06387186050415039 7 1645018892.72379756 0.998775243759155273 0.00202063866890966892 0.0449694693088531494 0.0205348189920186996
49.2209434509277344 13.5627231597900391 5.68885326385498047 8 1645018894.42538142 0.999229252338409424 0.0206496249884366989 0.0312726348638534546 0.0116830198094248772
59.8282432556152344 13.8019227981567383 6.21762228012084961 9 1645018896.12649369 0.999961555004119873 -0.0017599801067262888 0.00709480652585625648 0.00484170159325003624
70.287261962890625 13.8297395706176758 6.41308736801147461 10 1645018897.92462969 0.99952399730682373 -0.00267659150995314121 0.022695448249578476 0.0207247119396924973
80.349029541015625 14.3748970031738281 6.56858396530151367 11 1645018899.82394862 0.998219192028045654 0.04322061687707901 0.00790537148714065552 0.0403479039669036865
90.0581436157226562 17.2322902679443359 6.16566562652587891 12 1645018901.72616696 0.97340083122253418 0.228512108325958252 0.0145943723618984222 0.00774771766737103462
99.6822662353515625 21.2130203247070312 6.38418006896972656 13 1645018903.62837863 0.994870126247406006 0.0980602577328681946 0.0174333062022924423 0.0177112091332674026
109.728530883789062 21.3677825927734375 6.71638059616088867 14 1645018905.32911086 0.998665511608123779 -0.0480584762990474701 0.0168445855379104614 0.00859418138861656189
114.800315856933594 19.6895904541015625 6.88359165191650391 15 1645018906.42847848 0.972453176975250244 -0.232743173837661743 0.00183557881973683834 0.0127314217388629913
116.259323120117188 18.0737876892089844 6.94326019287109375 16 1645018907.0283823 0.910033583641052246 -0.414347290992736816 -0.00267830747179687023 0.0121682072058320045
116.533477783203125 16.5411491394042969 6.99089956283569336 17 1645018907.52732182 0.804410934448242188 -0.593968331813812256 0.0107203517109155655 0.00311990943737328053
116.156181335449219 15.1490755081176758 7.01902675628662109 18 1645018908.02583098 0.664749205112457275 -0.747033774852752686 0.00695851724594831467 0.000770229031331837177
115.187637329101562 14.0221824645996094 6.98949623107910156 19 1645018908.52956152 0.48487621545791626 -0.874505400657653809 0.00396271329373121262 -0.0109395952895283699
114.067337036132812 13.3963384628295898 6.95900917053222656 20 1645018908.93069506 0.324838578701019287 -0.94563823938369751 -0.00876940600574016571 -0.0130878537893295288
112.46221923828125 13.1559896469116211 6.91914796829223633 21 1645018909.42699909 0.134950727224349976 -0.990714132785797119 -0.00646622246131300926 -0.0152324987575411797
104.372787475585938 13.2400140762329102 6.74368762969970703 22 1645018911.52696991 -0.0181968621909618378 -0.99964219331741333 0.00744106853380799294 0.0181371700018644333
95.876739501953125 12.1991586685180664 6.38358354568481445 23 1645018913.52829647 0.17111070454120636 -0.985033690929412842 0.0134746339172124863 -0.015752643346786499
91.7981414794921875 5.2447810173034668 6.22313928604125977 24 1645018915.42828441 0.649282693862915039 -0.759385526180267334 0.0307607315480709076 -0.0286249872297048569
92.4642486572265625 -0.887020587921142578 6.2561640739440918 25 1645018916.62971807 0.779388487339019775 -0.624989509582519531 0.0297728702425956726 -0.0324851199984550476
94.3206405639648438 -4.17360496520996094 6.36012983322143555 26 1645018917.42815375 0.888243615627288818 -0.457141339778900146 0.0313642211258411407 -0.0325786098837852478
96.91864013671875 -5.98420572280883789 6.49431943893432617 27 1645018918.1281054 0.959811627864837646 -0.278659313917160034 0.0235553067177534103 -0.0235741101205348969
99.7584686279296875 -6.73716259002685547 6.60559272766113281 28 1645018918.7302289 0.993709266185760498 -0.107522964477539062 0.0178826916962862015 -0.025707414373755455
109.742179870605469 -6.08649826049804688 6.92302608489990234 29 1645018920.72664809 0.9997672438621521 -0.0174142457544803619 0.0100229755043983459 0.00785648822784423828
115.606460571289062 -10.7033615112304688 7.08063364028930664 30 1645018922.82902408 0.803932487964630127 -0.59449845552444458 -0.00249587465077638626 -0.0160599276423454285
110.488815307617188 -13.6365318298339844 6.88395452499389648 31 1645018924.92309523 0.0771299004554748535 -0.996927559375762939 0.0036565861664712429 -0.0131525751203298569
100.950370788574219 -13.3768091201782227 6.56900453567504883 32 1645018926.92492819 -0.0357242636382579803 -0.999251246452331543 0.00131117587443441153 -0.0147969834506511688
94.5803375244140625 -12.0135822296142578 6.38078641891479492 33 1645018928.22510791 -0.234158381819725037 -0.971391379833221436 -0.0274291820824146271 -0.0285710804164409637
92.7531509399414062 -9.95864105224609375 6.31835746765136719 34 1645018928.82460856 -0.426283359527587891 -0.903732538223266602 -0.0233659204095602036 -0.0316866710782051086
91.880462646484375 -7.46399879455566406 6.25655698776245117 35 1645018929.42491603 -0.592451214790344238 -0.804464876651763916 -0.0229708123952150345 -0.0361963845789432526
92.0531768798828125 -3.99442505836486816 6.25867319107055664 36 1645018930.22395396 -0.724806487560272217 -0.68847191333770752 -0.016515759751200676 -0.0197284519672393799
92.7830276489257812 6.56193733215332031 6.25445890426635742 37 1645018932.22415137 -0.733149588108062744 -0.679786086082458496 -0.00812425650656223297 -0.0177924893796443939
93.8757400512695312 10.2572574615478516 6.29464960098266602 38 1645018933.02562571 -0.841929733753204346 -0.538726210594177246 -0.0158217139542102814 -0.0260388422757387161
102.323539733886719 12.2507400512695312 6.56972694396972656 39 1645018935.1233089 -0.999666035175323486 0.0165543798357248306 -0.0124992262572050095 0.0154134482145309448
109.342720031738281 12.1106672286987305 6.79269552230834961 40 1645018937.1247263 -0.999663710594177246 0.00169582664966583252 -0.0204106103628873825 0.0159064009785652161
119.732841491699219 12.3094654083251953 7.18881702423095703 41 1645018939.12492824 -0.999537289142608643 -0.0212368648499250412 -0.0200646333396434784 0.00845981482416391373
130.30206298828125 12.7460594177246094 7.58940601348876953 42 1645018940.82394361 -0.999170243740081787 -0.0183704793453216553 -0.02926618792116642 0.0215594358742237091
140.5738525390625 13.0061578750610352 8.09244346618652344 43 1645018942.32524705 -0.999416589736938477 -0.0131324762478470802 -0.0301326941698789597 0.00927392672747373581
150.806884765625 13.6564130783081055 8.57279682159423828 44 1645018943.82532835 -0.998620152473449707 -0.045863129198551178 -0.0229962430894374847 0.0112068206071853638
161.052322387695312 14.0830812454223633 9.03839397430419922 45 1645018945.52894092 -0.99923628568649292 -0.0302156303077936172 0.0133304204791784286 0.0208850353956222534
171.129440307617188 14.3549356460571289 9.47862529754638672 46 1645018947.52732897 -0.999375224113464355 -0.00610112491995096207 -0.0274708718061447144 0.0213849898427724838
179.752044677734375 13.5203037261962891 9.85034656524658203 47 1645018949.52889371 -0.987020134925842285 0.158949002623558044 -0.0160566661506891251 -0.0163891371339559555
182.738037109375 7.0388336181640625 9.89920616149902344 48 1645018951.52893782 -0.696365833282470703 0.717619121074676514 0.000496577995363622904 0.00985785853117704391
180.879409790039062 2.70190238952636719 9.80642795562744141 49 1645018952.72902966 -0.511161863803863525 0.859322190284729004 0.0118925310671329498 0.0117239570245146751
178.636672973632812 0.749596834182739258 9.66138172149658203 50 1645018953.43135548 -0.342225998640060425 0.938966810703277588 -0.00804308336228132248 0.0340287573635578156
175.999664306640625 -0.221695229411125183 9.54374122619628906 51 1645018954.03074265 -0.17029242217540741 0.985093235969543457 -0.0131271714344620705 0.0204800870269536972
169.588653564453125 -0.564607560634613037 9.24223423004150391 52 1645018955.22494435 0.0036886618472635746 0.999628365039825439 -0.0130229303613305092 0.0236619934439659119
159.011245727539062 -0.476778358221054077 8.77147674560546875 53 1645018956.92649078 -0.0227423999458551407 0.999329268932342529 -0.0218872521072626114 0.0185659937560558319
148.717514038085938 -1.39193999767303467 8.31635284423828125 54 1645018958.4260962 -0.0493405573070049286 0.998400032520294189 -0.0187447201460599899 0.02028702013194561
138.160263061523438 -1.93397223949432373 7.89483165740966797 55 1645018959.9254508 -0.00487364409491419792 0.999620497226715088 -0.0145002584904432297 0.0229098498821258545
128.120513916015625 -1.12182247638702393 7.51501750946044922 56 1645018961.52675772 0.105539001524448395 0.994242608547210693 -0.00489289127290248871 0.0178650394082069397
123.216987609863281 1.10949909687042236 7.40935945510864258 57 1645018962.52564478 0.282180041074752808 0.959282279014587402 0.00945959426462650299 0.00790549814701080322
120.795738220214844 3.97635912895202637 7.29579067230224609 58 1645018963.32565308 0.460958868265151978 0.886826038360595703 0.0114485826343297958 0.0304200705140829086
119.732353210449219 7.26670074462890625 7.21255731582641602 59 1645018964.12805009 0.620746493339538574 0.782813429832458496 0.0218123886734247208 0.0374320484697818756
120.062255859375 9.65480804443359375 7.21058177947998047 60 1645018964.72577596 0.760377109050750732 0.647825300693511963 0.0271303709596395493 0.0375895462930202484
121.33148193359375 11.6254940032958984 7.25957489013671875 61 1645018965.32530451 0.871231973171234131 0.490281790494918823 0.0136894816532731056 0.0197787713259458542
123.984642028808594 13.829401969909668 7.33870792388916016 62 1645018966.12593126 0.95027923583984375 0.310389518737792969 0.0168200638145208359 0.0185675639659166336
133.775650024414062 16.3635234832763672 7.774810791015625 63 1645018968.22470832 0.991383671760559082 0.129785031080245972 0.0138148777186870575 -0.0111096324399113655
136.357040405273438 22.4015693664550781 7.86444473266601562 64 1645018970.22751164 0.744932651519775391 0.667068064212799072 0.00958879664540290833 -0.00190416839905083179
136.666122436523438 32.6797027587890625 7.81985807418823242 65 1645018972.32679296 0.711429774761199951 0.70264667272567749 0.010252523235976696 0.00708591518923640251
135.48272705078125 40.4185447692871094 7.74912834167480469 66 1645018973.62763739 0.579528510570526123 0.814728081226348877 -0.0189705099910497665 -0.00224029715172946453
129.841522216796875 49.2446937561035156 7.33224058151245117 67 1645018975.32897353 0.462645679712295532 0.886277377605438232 -0.00700396625325083733 0.020551290363073349
126.473922729492188 58.9316596984863281 6.93048286437988281 68 1645018977.12759018 0.679725587368011475 0.733052611351013184 -0.000732526590581983328 0.0246267151087522507
126.329399108886719 69.0217208862304688 6.64200305938720703 69 1645018978.62955284 0.697425007820129395 0.716501295566558838 -0.00878751557320356369 0.0121260657906532288
126.174705505371094 79.3389816284179688 6.47486734390258789 70 1645018980.02888417 0.710147738456726074 0.703969240188598633 0.00101836700923740864 0.0107912728562951088
125.820381164550781 89.6971282958984375 6.6059117317199707 71 1645018981.43068123 0.691381931304931641 0.722072482109069824 0.019779793918132782 0.014530831016600132
125.590835571289062 100.044364929199219 6.65768718719482422 72 1645018982.83063531 0.705664277076721191 0.708240389823913574 0.0165111236274242401 0.0126817710697650909
125.590202331542969 110.384719848632812 6.78514719009399414 73 1645018984.23006487 0.706298232078552246 0.70783919095993042 0.0101941721513867378 0.0016019459581002593
125.676536560058594 120.714736938476562 6.97414922714233398 74 1645018985.63139343 0.729276418685913086 0.683915317058563232 0.0201990790665149689 0.00277745653875172138
128.15704345703125 129.62530517578125 7.55491018295288086 75 1645018986.93253326 0.841166317462921143 0.539114773273468018 0.0363765284419059753 -0.0217067785561084747
133.893310546875 138.050750732421875 8.74599552154541016 76 1645018988.43318057 0.897368848323822021 0.435897618532180786 0.057613179087638855 -0.0374582856893539429
141.0499267578125 145.564468383789062 9.96728134155273438 77 1645018990.23263669 0.929153025150299072 0.366625845432281494 0.0348221287131309509 -0.0323665142059326172
147.159896850585938 152.54083251953125 10.6166315078735352 78 1645018992.23611116 0.889609158039093018 0.455340147018432617 0.0349133126437664032 -0.00647500809282064438
151.376632690429688 161.028671264648438 11.0465669631958008 79 1645018994.23652768 0.837786674499511719 0.545116722583770752 0.0304540731012821198 0.00581227941438555717
156.547027587890625 165.974578857421875 11.3902950286865234 80 1645018996.03115392 0.978483319282531738 0.202698886394500732 0.0297777615487575531 0.0244310032576322556
159.307815551757812 166.137741088867188 11.5152759552001953 81 1645018996.63199234 0.999564588069915771 -0.000172044005012139678 0.0168841946870088577 0.0241979863494634628
161.719863891601562 165.149215698242188 11.6628189086914062 82 1645018997.22933531 0.979456484317779541 -0.200230866670608521 0.0210037324577569962 0.0114645939320325851
163.49517822265625 163.502029418945312 11.7505531311035156 83 1645018997.83328009 0.929482400417327881 -0.368652492761611938 0.00901707075536251068 0.00874740071594715118
164.6343994140625 161.168624877929688 11.7954120635986328 84 1645018998.53298402 0.845434725284576416 -0.533990621566772461 0.00966385379433631897 0.000875908997841179371
164.899856567382812 158.436569213867188 11.759608268737793 85 1645018999.23002529 0.728047788143157959 -0.68533402681350708 -0.00795169360935688019 -0.0141573995351791382
164.10784912109375 155.926513671875 11.6789913177490234 86 1645018999.9285059 0.589032113552093506 -0.807898461818695068 -0.00371347670443356037 -0.0180955249816179276
162.326644897460938 153.6712646484375 11.5111684799194336 87 1645019000.63166356 0.418984711170196533 -0.9072762131690979 -0.0150797804817557335 -0.0327762998640537262
160.097503662109375 152.391510009765625 11.3156557083129883 88 1645019001.23021483 0.249300092458724976 -0.967231035232543945 -0.0246954914182424545 -0.0412765070796012878
157.52850341796875 151.989639282226562 11.1443443298339844 89 1645019001.82929468 0.0630509108304977417 -0.996913492679595947 -0.0313105732202529907 -0.0347514636814594269
154.989303588867188 152.572067260742188 11.0188074111938477 90 1645019002.42763948 -0.126351431012153625 -0.990827500820159912 -0.0384609326720237732 -0.0285823419690132141
152.851089477539062 154.039276123046875 10.9608449935913086 91 1645019003.02849746 -0.307408541440963745 -0.95037841796875 -0.0379902422428131104 -0.028940470889210701
151.3702392578125 156.174713134765625 10.9246196746826172 92 1645019003.63210964 -0.468418806791305542 -0.882416844367980957 -0.0340101644396781921 -0.0277055855840444565
147.950973510742188 165.85394287109375 10.8740625381469727 93 1645019005.73080063 -0.55762404203414917 -0.829940199851989746 0.00116267160046845675 -0.0159148368984460831
142.406661987304688 174.815628051757812 10.3210811614990234 94 1645019007.62849069 -0.45986291766166687 -0.886707901954650879 -0.0233208499848842621 -0.041609056293964386
136.07269287109375 182.59002685546875 9.78507900238037109 95 1645019009.42737103 -0.418758690357208252 -0.906583130359649658 -0.0258064363151788712 -0.0456308536231517792
129.836334228515625 189.659011840820312 9.29158878326416016 96 1645019011.42777872 -0.436067342758178711 -0.899195551872253418 -0.0256869550794363022 -0.0251559074968099594
127.039566040039062 196.437103271484375 9.35420322418212891 97 1645019013.52859044 -0.65833359956741333 -0.750451326370239258 -0.0535347163677215576 -0.023532399907708168
129.694717407226562 201.30816650390625 9.85366249084472656 98 1645019015.62744284 -0.904332458972930908 -0.425742268562316895 -0.0279915276914834976 0.0119501948356628418
133.269683837890625 204.270736694335938 10.244511604309082 99 1645019017.6323874 -0.94069206714630127 -0.3360462486743927 -0.0437492690980434418 0.0160429365932941437
137.52740478515625 208.76519775390625 10.6914377212524414 100 1645019019.72883415 -0.894102215766906738 -0.446618020534515381 -0.0331227295100688934 -0.00405609980225563049
139.294342041015625 213.506256103515625 10.7305469512939453 101 1645019021.23004127 -0.791953206062316895 -0.608380496501922607 -0.02792348712682724 -0.0436301156878471375
137.410919189453125 220.930389404296875 10.4111499786376953 102 1645019023.23267817 -0.522660493850708008 -0.85111391544342041 -0.0159150548279285431 -0.0466670505702495575
130.574356079101562 228.817138671875 9.55924034118652344 103 1645019025.32940817 -0.384504407644271851 -0.921630799770355225 -0.0157766807824373245 -0.0500412993133068085
123.613349914550781 236.3875732421875 8.74544048309326172 104 1645019027.32910395 -0.394787847995758057 -0.917488932609558105 -0.0146237378939986229 -0.0462904423475265503
117.564910888671875 242.788192749023438 8.03197288513183594 105 1645019029.33116031 -0.390814632177352905 -0.917572379112243652 -0.0154538331553339958 -0.0713165253400802612
109.887550354003906 249.519180297851562 7.11732149124145508 106 1645019031.32999063 -0.306250989437103271 -0.949989080429077148 -0.0206959471106529236 -0.0574697107076644897
100.882354736328125 254.74871826171875 5.97257232666015625 107 1645019032.93197894 -0.245383948087692261 -0.966697216033935547 -0.0329846218228340149 -0.064770922064781189
91.4865493774414062 258.406829833984375 4.8757481575012207 108 1645019034.23134851 -0.132985085248947144 -0.989019811153411865 -0.0314298719167709351 -0.0562753118574619293
81.11407470703125 259.726593017578125 3.8073430061340332 109 1645019035.53395939 -0.0251287594437599182 -0.997530281543731689 -0.0295490864664316177 -0.0585556179285049438
70.4624252319335938 260.05462646484375 2.6065521240234375 110 1645019036.83212876 -0.00206874078139662743 -0.998302161693572998 -0.0228303205221891403 -0.0535472258925437927
60.3017044067382812 259.82080078125 1.50144827365875244 111 1645019038.03237867 0.0198957137763500214 -0.998010039329528809 -0.0140875214710831642 -0.0581525117158889771
49.9765625 259.42645263671875 0.28060227632522583 112 1645019039.23241186 0.0138852773234248161 -0.998033583164215088 -0.0153822069987654686 -0.0591565631330013275
39.5088920593261719 259.194793701171875 -0.810123145580291748 113 1645019040.43037534 0.0146392490714788437 -0.998198211193084717 -0.00957328453660011292 -0.0573969781398773193
28.9373226165771484 258.586029052734375 -1.95766627788543701 114 1645019041.63431263 0.0322905555367469788 -0.997888028621673584 -0.0217021163552999496 -0.0520179048180580139
18.3707008361816406 257.96380615234375 -2.92505049705505371 115 1645019042.83321762 0.0264711417257785797 -0.998484432697296143 -0.0178698282688856125 -0.0448191501200199127
7.92023992538452148 257.606781005859375 -3.75042867660522461 116 1645019044.0330627 0.0125491069629788399 -0.999298751354217529 -0.0195813346654176712 -0.0293440278619527817
-2.27021217346191406 257.3846435546875 -4.1789093017578125 117 1645019045.23191643 0.0136152151972055435 -0.99969482421875 -0.0115407006815075874 -0.017078915610909462
-12.845637321472168 257.06390380859375 -4.76355886459350586 118 1645019046.53350449 0.0376929678022861481 -0.998953819274902344 -0.00688120629638433456 -0.0249622408300638199
-22.8928432464599609 255.503921508789062 -5.17918825149536133 119 1645019047.83436823 0.0805439203977584839 -0.996403992176055908 -0.0249559972435235977 -0.00830075237900018692
-33.1557197570800781 252.82830810546875 -5.4077000617980957 120 1645019049.23369169 0.157408952713012695 -0.987335264682769775 -0.0197823084890842438 -0.00034401722950860858
-42.6660842895507812 248.453704833984375 -5.61403703689575195 121 1645019050.63409495 0.256413161754608154 -0.966310262680053711 -0.0212847404181957245 -0.00661460496485233307
-51.1415176391601562 242.3310546875 -5.92562580108642578 122 1645019052.03323936 0.334955662488937378 -0.941861450672149658 -0.0259104818105697632 -0.00551329087466001511
-58.6099014282226562 235.3228759765625 -6.2101740837097168 123 1645019053.43413687 0.387489467859268188 -0.921538412570953369 -0.0233160033822059631 -0.00867666583508253098
-65.5953826904296875 227.530105590820312 -6.46288108825683594 124 1645019054.93341494 0.41320154070854187 -0.910417675971984863 -0.0200711172074079514 -0.00111145817209035158
-72.5886611938476562 219.647125244140625 -6.68724250793457031 125 1645019056.53355312 0.402304708957672119 -0.91512763500213623 -0.026005275547504425 0.00400561559945344925
-79.5709075927734375 211.964126586914062 -6.91431283950805664 126 1645019058.13455844 0.407446444034576416 -0.912944674491882324 -0.022452058270573616 -0.00391298672184348106
-86.2685317993164062 204.532196044921875 -7.14068126678466797 127 1645019059.83483934 0.403680860996246338 -0.914688169956207275 -0.0180101767182350159 -0.00793278496712446213
-93.1958694458007812 196.807830810546875 -7.34278583526611328 128 1645019061.83616853 0.407193362712860107 -0.913092315196990967 -0.021090356633067131 -0.00333499559201300144
-99.29364013671875 189.733169555664062 -7.46468734741210938 129 1645019063.93069959 0.418039232492446899 -0.908311724662780762 -0.012970317155122757 0.00669009704142808914
-104.156715393066406 184.128128051757812 -7.52873849868774414 130 1645019065.93522549 0.407261371612548828 -0.912999391555786133 -0.0225497577339410782 0.00786237791180610657
-107.861099243164062 179.989501953125 -7.54712009429931641 131 1645019068.03158641 0.40782889723777771 -0.912762880325317383 -0.0229755211621522903 0.00341908936388790607
-109.589462280273438 178.043701171875 -7.55665731430053711 132 1645019070.13146472 0.409463763236999512 -0.912089645862579346 -0.0201041456311941147 0.0052700224332511425
-110.462028503417969 177.025802612304688 -7.56142568588256836 133 1645019072.13154507 0.410079687833786011 -0.911747276782989502 -0.0218944773077964783 0.00849576015025377274
-111.447257995605469 175.895523071289062 -7.56708669662475586 134 1645019074.13225055 0.409216970205307007 -0.91210252046585083 -0.0226227156817913055 0.00993360113352537155
-111.545242309570312 175.785415649414062 -7.5463104248046875 135 1645019080.93357301 0.409941017627716064 -0.91177445650100708 -0.0153190884739160538 0.0195200648158788681
-114.751747131347656 172.062850952148438 -7.53888511657714844 136 1645019082.93584681 0.414689421653747559 -0.909627735614776611 -0.017623094841837883 0.0173054635524749756
-120.019630432128906 165.963455200195312 -7.48024415969848633 137 1645019085.03261447 0.412604659795761108 -0.910608649253845215 -0.0161640923470258713 0.0169689394533634186
-125.713424682617188 159.63104248046875 -7.32227325439453125 138 1645019087.03265929 0.402948260307312012 -0.914946079254150391 -0.0092417718842625618 0.0205173585563898087
-131.65130615234375 152.928451538085938 -7.07794523239135742 139 1645019089.03510952 0.415932834148406982 -0.909041464328765869 -0.0122595680877566338 0.0222068354487419128
-137.21649169921875 146.093338012695312 -6.83588218688964844 140 1645019091.13055778 0.432431578636169434 -0.901401221752166748 -0.00583971384912729263 0.0210868921130895615
-142.142105102539062 139.855682373046875 -6.56652641296386719 141 1645019093.13425493 0.437370359897613525 -0.898997664451599121 0.00460891379043459892 0.022117123007774353
-147.779159545898438 132.521408081054688 -6.26809215545654297 142 1645019095.23126936 0.435924947261810303 -0.899645984172821045 -0.00578252552077174187 0.0239390265196561813
-153.308685302734375 125.416717529296875 -5.95194101333618164 143 1645019097.33154225 0.445443868637084961 -0.89508432149887085 -0.00027177276206202805 0.0200931746512651443
-158.033721923828125 118.25152587890625 -5.66083383560180664 144 1645019099.33192754 0.487317800521850586 -0.872969686985015869 0.00120324769522994757 0.0210689548403024673
-162.357772827148438 109.941825866699219 -5.34790325164794922 145 1645019101.33280611 0.533359944820404053 -0.8454551100730896 -0.00548497308045625687 0.0265095643699169159
-166.669952392578125 100.505271911621094 -4.9722895622253418 146 1645019103.43288374 0.528554439544677734 -0.84871220588684082 0.00282739428803324699 0.01760052889585495
-171.789642333984375 91.3536529541015625 -4.55048704147338867 147 1645019105.3359201 0.484201163053512573 -0.874238967895507812 -0.00204016943462193012 0.0353735685348510742
-177.363906860351562 82.9356765747070312 -4.04420804977416992 148 1645019107.03496432 0.463769197463989258 -0.885346412658691406 -0.00382382655516266823 0.0326375328004360199
-183.190811157226562 74.3396377563476562 -3.5197293758392334 149 1645019108.73551369 0.489928215742111206 -0.871381282806396484 0.00111450697295367718 0.0257630608975887299
-187.80517578125 65.077880859375 -3.0181734561920166 150 1645019110.43604708 0.539453506469726562 -0.841668605804443359 0.00816450826823711395 0.0227429158985614777
-191.985443115234375 55.6053314208984375 -2.55278110504150391 151 1645019112.13596129 0.539969325065612793 -0.841316103935241699 0.00587025051936507225 0.0242037288844585419
-195.93121337890625 46.1007728576660156 -2.06608152389526367 152 1645019113.73886752 0.56153339147567749 -0.826032161712646484 -0.00955054443329572678 0.0475387386977672577
-199.6533203125 36.3250274658203125 -1.3620905876159668 153 1645019115.43705344 0.566566169261932373 -0.822690427303314209 -0.000303444248856976628 0.0467241741716861725
-202.91485595703125 26.8662681579589844 -0.592212975025177002 154 1645019117.23847628 0.606778740882873535 -0.793518245220184326 0.0051654549315571785 0.0460612364113330841
-203.15838623046875 21.4000759124755859 -0.256187081336975098 155 1645019118.33792591 0.748030781745910645 -0.662757396697998047 0.0100317429751157761 0.0331966951489448547
-201.673233032226562 18.3115177154541016 -0.156328201293945312 156 1645019119.03971934 0.862161099910736084 -0.505829453468322754 0.00171731202863156796 0.0284934826195240021
-199.043426513671875 15.6391410827636719 0.177553936839103699 157 1645019119.84116101 0.939728856086730957 -0.338089346885681152 0.047533135861158371 0.0185975488275289536
-194.921249389648438 13.8567886352539062 0.61437457799911499 158 1645019120.83889079 0.984475314617156982 -0.16623610258102417 0.0500454306602478027 0.0258722156286239624
-186.538238525390625 12.6271524429321289 1.26493525505065918 159 1645019122.84102941 0.997644782066345215 -0.0493359416723251343 0.039844512939453125 0.0261396206915378571
-177.736740112304688 12.7367630004882812 1.93674278259277344 160 1645019124.94150734 0.997849822044372559 0.0438841171562671661 0.0440296903252601624 0.0207664165645837784
-169.044677734375 14.8491983413696289 2.45273089408874512 161 1645019127.04148626 0.988690495491027832 0.145580962300300598 0.0338166393339633942 0.01239760871976614
-159.951889038085938 17.8159999847412109 2.94009804725646973 162 1645019129.14329791 0.988262474536895752 0.149246394634246826 0.0294268243014812469 0.0140314707532525063
-150.378509521484375 20.6221427917480469 3.2246088981628418 163 1645019131.24001479 0.986739397048950195 0.156591355800628662 0.0288440641015768051 0.0315037183463573456
-142.643508911132812 22.6542377471923828 3.29933929443359375 164 1645019133.24455142 0.994256854057312012 0.106781832873821259 0.00471352133899927139 0.0053613223135471344
-132.2816162109375 24.37164306640625 3.19324350357055664 165 1645019135.34332228 0.996989309787750244 0.076703876256942749 -0.00573269510641694069 -0.00979506131261587143
-122.096038818359375 25.9116878509521484 3.04626345634460449 166 1645019137.03843689 0.997044563293457031 0.0755892917513847351 -0.00297719286754727364 -0.0133984135463833809
-112.125640869140625 27.0697917938232422 2.89621114730834961 167 1645019138.53637457 0.999104797840118408 0.0406857319176197052 -0.00729169836267828941 -0.00900801178067922592
-101.478408813476562 26.8669166564941406 2.78213691711425781 168 1645019140.0381279 0.998308062553405762 -0.0580893456935882568 -0.000471863517304882407 -0.00252692052163183689
-91.6287002563476562 24.1310596466064453 2.6853184700012207 169 1645019141.43779826 0.984246492385864258 -0.176715373992919922 -0.00399616453796625137 0.00381571520119905472
-82.549072265625 19.8713569641113281 2.68021845817565918 170 1645019142.83682203 0.9707145094871521 -0.240172326564788818 -0.00352560984902083874 -0.00426524784415960312
-73.8941268920898438 14.327056884765625 2.6867375373840332 171 1645019144.4389441 0.946473658084869385 -0.322767943143844604 0.00126212427858263254 0.00262670102529227734
-66.1541290283203125 7.69824457168579102 2.74298954010009766 172 1645019146.2379775 0.944878458976745605 -0.327312886714935303 0.00641747796908020973 -0.00545793864876031876
-57.7284088134765625 2.45827269554138184 2.88017082214355469 173 1645019148.33661509 0.973632335662841797 -0.228063449263572693 0.00499531673267483711 -0.00148354028351604939
-48.8624343872070312 0.700388491153717041 2.96122074127197266 174 1645019150.33792186 0.999866485595703125 -0.0133742736652493477 -0.00163091125432401896 0.00924529507756233215
-39.2386245727539062 3.06946158409118652 2.93995451927185059 175 1645019152.34019804 0.984403491020202637 0.175308093428611755 -0.00347368419170379639 0.0143102500587701797
-29.7666606903076172 6.79174947738647461 2.85632896423339844 176 1645019154.23675418 0.983107686042785645 0.181580454111099243 -0.000280169595498591661 0.0229736454784870148
-19.7882595062255859 9.55306816101074219 2.78553056716918945 177 1645019156.13660145 0.99596095085144043 0.0888437628746032715 -0.00877818558365106583 0.00956820137798786163
-9.93412303924560547 9.65724945068359375 2.966796875 178 1645019158.1387763 0.994701564311981201 -0.0999727696180343628 0.00744445761665701866 0.0227789077907800674
-7.42356014251708984 8.14399623870849609 3.08349442481994629 179 1645019158.83713269 0.957994163036346436 -0.285837769508361816 0.0143770817667245865 0.0183640588074922562
-0.636536896228790283 2.86838269233703613 3.45982050895690918 180 1645019160.9372406 0.970344483852386475 -0.241002306342124939 0.0127175059169530869 0.0137025834992527962
2.94303798675537109 -0.240595772862434387 3.63658738136291504 181 1645019162.43772817 0.877667546272277832 -0.478883236646652222 -0.00287839211523532867 0.0190333146601915359
2.93617630004882812 -1.42126190662384033 3.66292190551757812 182 1645019162.83842897 0.774620354175567627 -0.632303416728973389 -0.00548484129831194878 0.0112101510167121887
2.44800925254821777 -2.41216707229614258 3.68497300148010254 183 1645019163.23752427 0.634480893611907959 -0.772903680801391602 -0.00488655921071767807 0.00547974230721592903
1.62116706371307373 -3.03638195991516113 3.69614791870117188 184 1645019163.63802743 0.469466090202331543 -0.882948875427246094 -0.000848596217110753059 -0.00148488662671297789
0.709118783473968506 -3.28726577758789062 3.68773174285888672 185 1645019164.03872991 0.301518648862838745 -0.953426837921142578 0.000797021610196679831 -0.00794485770165920258
-0.377032697200775146 -3.12247991561889648 3.67064785957336426 186 1645019164.53921747 0.0960986316204071045 -0.995271921157836914 0.00384518015198409557 -0.0135686611756682396
-1.2440483570098877 -2.59401679039001465 3.63680410385131836 187 1645019165.03945923 -0.10203176736831665 -0.994601964950561523 0.00642555626109242439 -0.0177520141005516052
-1.89267849922180176 -1.74432373046875 3.60640883445739746 188 1645019165.539572 -0.300246685743331909 -0.953610420227050781 0.00351644493639469147 -0.0216042492538690567
-2.16310238838195801 -0.76676630973815918 3.57764816284179688 189 1645019165.94025135 -0.475801378488540649 -0.879011154174804688 0.00209331372752785683 -0.030791042372584343
-2.02165102958679199 0.273478597402572632 3.54894375801086426 190 1645019166.33951902 -0.644795060157775879 -0.763498902320861816 0.000387535226764157414 -0.0361743159592151642
-1.4734950065612793 1.18781912326812744 3.53870916366577148 191 1645019166.73976135 -0.785715043544769287 -0.617468953132629395 0.000942520855460315943 -0.0371897518634796143
-0.650837898254394531 1.80266916751861572 3.55105781555175781 192 1645019167.13920927 -0.89053654670715332 -0.453371912240982056 -0.00514968717470765114 -0.0370405279099941254
5.96918773651123047 4.21195125579833984 3.56009173393249512 193 1645019169.1409564 -0.975396394729614258 -0.220113947987556458 -0.0056809927336871624 -0.0109302857890725136
14.8715219497680664 9.77612495422363281 3.76076960563659668 194 1645019171.14111161 -0.974730491638183594 -0.219614461064338684 -0.0252703540027141571 -0.032115396112203598
26.8390312194824219 11.9212570190429688 4.31065797805786133 195 1645019173.14351344 -0.99939960241317749 -0.014851192943751812 -0.0293576326221227646 -0.0108631020411849022
40.1809349060058594 11.9583292007446289 5.19815778732299805 196 1645019175.23840547 -0.999322235584259033 -0.00941927079111337662 -0.035050559788942337 0.00614797230809926987
52.9077262878417969 12.1541728973388672 6.03548908233642578 197 1645019177.24015498 -0.99943995475769043 -0.0195454303175210953 -0.027093915268778801 0.00190845062024891376
63.1559829711914062 13.2451934814453125 6.34367275238037109 198 1645019179.24041462 -0.994116544723510742 -0.107011400163173676 0.00214372575283050537 -0.0166226718574762344
69.2645797729492188 19.3606147766113281 6.00809383392333984 199 1645019181.24126124 -0.837389588356018066 -0.544698596000671387 0.0247918218374252319 -0.0383076108992099762
70.3077239990234375 26.8571434020996094 5.44276666641235352 200 1645019182.53959107 -0.726027429103851318 -0.686346471309661865 0.0136362453922629356 -0.0403329730033874512
70.0619049072265625 36.8637046813964844 4.63936948776245117 201 1645019184.04281855 -0.695726096630096436 -0.716839730739593506 0.0116002336144447327 -0.0444012321531772614
69.8427276611328125 47.4090499877929688 3.86899471282958984 202 1645019185.53856993 -0.705570876598358154 -0.707280933856964111 0.0121633950620889664 -0.0421366207301616669
69.6221771240234375 57.3822097778320312 3.13017153739929199 203 1645019186.83998609 -0.700850546360015869 -0.71186983585357666 0.00232677813619375229 -0.0452153012156486511
69.36578369140625 67.6312637329101562 2.49869847297668457 204 1645019188.14036059 -0.699608981609344482 -0.713537216186523438 0.00152550125494599342 -0.037543952465057373
69.241180419921875 77.68927001953125 2.02413201332092285 205 1645019189.44117618 -0.709077000617980957 -0.704297721385955811 0.00297520402818918228 -0.0341425016522407532
69.0795669555664062 88.148681640625 1.51182901859283447 206 1645019191.04164529 -0.6452370285987854 -0.762838006019592285 0.0351628772914409637 -0.0226029790937900543
67.3633575439453125 91.5931243896484375 1.23607933521270752 207 1645019191.84149027 -0.492943406105041504 -0.868444144725799561 0.0388890691101551056 -0.0360445939004421234
64.9668121337890625 93.5583877563476562 1.02650117874145508 208 1645019192.64237022 -0.307132691144943237 -0.950341582298278809 0.0377871990203857422 -0.0330528952181339264
62.3519439697265625 94.1429214477539062 0.826696813106536865 209 1645019193.34305453 -0.106265164911746979 -0.992571711540222168 0.0408648960292339325 -0.0428854078054428101
59.1280288696289062 93.7784652709960938 0.535548925399780273 210 1645019194.04285669 0.0724752545356750488 -0.995310544967651367 0.0431424900889396667 -0.0473602302372455597
49.7490806579589844 90.22369384765625 -0.116083294153213501 211 1645019195.74344349 0.169979393482208252 -0.984914958477020264 0.0136780655011534691 -0.0293680150061845779
39.2689247131347656 88.896575927734375 -0.74038618803024292 212 1645019197.24375153 -0.0454144291579723358 -0.998691916465759277 -0.00625204062089323997 -0.0226464271545410156
29.1830539703369141 91.9624252319335938 -1.28960096836090088 213 1645019198.6423018 -0.197613999247550964 -0.980036139488220215 0.00282072136178612709 -0.0216771792620420456
21.2281284332275391 98.3905487060546875 -1.72637295722961426 214 1645019200.04375672 -0.429945796728134155 -0.902458250522613525 0.00804385356605052948 -0.0255148299038410187
16.3832130432128906 107.284233093261719 -2.12386727333068848 215 1645019201.44572544 -0.535463392734527588 -0.844355583190917969 0.0119264433160424232 -0.0141551531851291656
14.2154560089111328 117.552810668945312 -2.4007728099822998 216 1645019202.94507957 -0.703925549983978271 -0.710049808025360107 0.0129903117194771767 -0.0122194401919841766
16.0802516937255859 127.911354064941406 -2.99765753746032715 217 1645019204.44365335 -0.794447720050811768 -0.606672942638397217 0.0189954638481140137 -0.0209742095321416855
19.3407344818115234 137.758209228515625 -3.09197354316711426 218 1645019205.94408727 -0.816367983818054199 -0.577529728412628174 -0.00144097756128758192 0.000831842538900673389
23.6966533660888672 146.800918579101562 -2.79697823524475098 219 1645019207.84130311 -0.873356223106384277 -0.486657440662384033 -0.00878612324595451355 0.0183368176221847534
28.1007251739501953 151.2723388671875 -2.60907673835754395 220 1645019209.24381447 -0.944899916648864746 -0.326929003000259399 -0.00457168510183691978 0.0161440037190914154
31.1913471221923828 152.561569213867188 -2.57721590995788574 221 1645019210.0444665 -0.987522900104522705 -0.157376810908317566 0.00127512624021619558 0.00542990770190954208
33.5151710510253906 152.502288818359375 -2.52312612533569336 222 1645019210.64389896 -0.999816060066223145 0.0164836831390857697 -0.00776153896003961563 0.00599325681105256081
35.5283203125 151.58819580078125 -2.50007057189941406 223 1645019211.24306655 -0.975852608680725098 0.218403533101081848 0.000500471971463412046 -0.00337316305376589298
36.412933349609375 150.454544067382812 -2.50553178787231445 224 1645019211.6452868 -0.919956028461456299 0.391851127147674561 0.011508498340845108 -0.00107107462827116251
36.6804237365722656 149.141677856445312 -2.50702381134033203 225 1645019212.04616618 -0.830729484558105469 0.556600332260131836 -0.0006857452099211514 0.00917455088347196579
36.4250640869140625 147.536376953125 -2.5301506519317627 226 1645019212.5452323 -0.693377554416656494 0.720498502254486084 0.000945190200582146645 0.010419224388897419
35.5264511108398438 145.921310424804688 -2.56632757186889648 227 1645019213.04696894 -0.542744874954223633 0.839808523654937744 -0.000657532131299376488 0.0122147276997566223
32.8586769104003906 143.135818481445312 -2.67967629432678223 228 1645019213.94649315 -0.381288409233093262 0.924297690391540527 -0.00498190801590681076 0.0163746271282434464
24.0623970031738281 136.771453857421875 -2.97048354148864746 229 1645019215.94740319 -0.315031051635742188 0.948885440826416016 -0.010541141964495182 0.0161481965333223343
16.1652793884277344 126.200370788574219 -2.89844346046447754 230 1645019218.0487783 -0.564716935157775879 0.824056923389434814 -0.0437094792723655701 -0.0106968339532613754
15.3080987930297852 118.810218811035156 -2.46321868896484375 231 1645019219.25059128 -0.701220691204071045 0.7125052809715271 -0.0212345216423273087 -0.01322164386510849
17.1107578277587891 107.291824340820312 -2.11711382865905762 232 1645019221.14779162 -0.818198859691619873 0.574484467506408691 -0.0227048564702272415 -0.00164836551994085312
21.5500926971435547 100.520195007324219 -1.79158735275268555 233 1645019222.44834781 -0.907766044139862061 0.418917208909988403 -0.0214927997440099716 -0.00268125790171325207
29.8313655853271484 93.6734619140625 -1.31119227409362793 234 1645019224.14485025 -0.966923058032989502 0.253638923168182373 -0.0261055901646614075 0.00675410032272338867
38.5358352661132812 91.389190673828125 -0.834649205207824707 235 1645019225.54441595 -0.996436178684234619 0.0787130296230316162 -0.0302055049687623978 -0.00261824438348412514
48.1035728454589844 91.6452407836914062 -0.224599495530128479 236 1645019227.04397631 -0.993561506271362305 -0.107374101877212524 -0.0349688082933425903 0.009136970154941082
59.2277069091796875 96.8602676391601562 0.525290071964263916 237 1645019228.94329691 -0.958072543144226074 -0.28338998556137085 -0.0382571741938591003 0.0179846249520778656
65.3240890502929688 103.168708801269531 0.787516355514526367 238 1645019230.24397182 -0.884002208709716797 -0.467429757118225098 -0.00668075960129499435 0.00221393397077918053
68.259979248046875 113.386268615722656 0.809911370277404785 239 1645019231.744138 -0.758169353008270264 -0.651617705821990967 -0.0212808549404144287 -0.0109906783327460289
69.4589309692382812 123.625457763671875 0.945239603519439697 240 1645019233.14418483 -0.750335931777954102 -0.660742700099945068 -0.0201956387609243393 -0.00268997903913259506
71.8566741943359375 133.511795043945312 1.29126250743865967 241 1645019234.54366493 -0.800514459609985352 -0.598975896835327148 -0.0175230931490659714 0.00986669305711984634
75.4157638549804688 142.897842407226562 1.79588162899017334 242 1645019235.94323778 -0.846518278121948242 -0.531445086002349854 -0.0273539330810308456 0.0149899693205952644
80.97406005859375 151.900421142578125 2.57704830169677734 243 1645019237.44434786 -0.889692783355712891 -0.454606562852859497 -0.0365837849676609039 0.0210059899836778641
87.3480300903320312 160.0294189453125 3.50957942008972168 244 1645019238.94572282 -0.900390625 -0.431841999292373657 -0.0460186898708343506 0.0262962318956851959
93.9358673095703125 168.269424438476562 4.6123199462890625 245 1645019240.54375887 -0.905924439430236816 -0.419974237680435181 -0.0524531416594982147 0.0130842234939336777
101.14361572265625 175.52294921875 5.67256975173950195 246 1645019242.14443159 -0.934332370758056641 -0.352264583110809326 -0.049611113965511322 0.0217133034020662308
109.032997131347656 182.401824951171875 6.84494972229003906 247 1645019243.8436017 -0.936427772045135498 -0.3456687331199646 -0.0572405010461807251 0.0184289403259754181
117.183853149414062 188.590652465820312 7.96347475051879883 248 1645019245.5442903 -0.964610636234283447 -0.257734626531600952 -0.0511690676212310791 0.0219297371804714203
125.280128479003906 191.049942016601562 8.81516075134277344 249 1645019246.94635487 -0.996271252632141113 -0.0663533583283424377 -0.0477412976324558258 0.0275964736938476562
131.300277709960938 190.518905639648438 9.40223026275634766 250 1645019247.94529271 -0.992578685283660889 0.113397829234600067 -0.0423472039401531219 0.0116288876160979271
134.999267578125 188.606475830078125 9.68686676025390625 251 1645019248.64631844 -0.953840076923370361 0.297170847654342651 -0.0415201522409915924 -0.0124376323074102402
137.928558349609375 185.229904174804688 9.92861557006835938 252 1645019249.4467473 -0.887569546699523926 0.460130423307418823 -0.0217763427644968033 0.00510801561176776886
139.00140380859375 181.993484497070312 10.0576353073120117 253 1645019250.14642167 -0.792586565017700195 0.609181463718414307 -0.0260203443467617035 0.00523788388818502426
138.7618408203125 178.552154541015625 9.97937774658203125 254 1645019250.84592032 -0.659041464328765869 0.750917553901672363 -0.0169001556932926178 0.0387492626905441284
137.297653198242188 175.652099609375 9.70445537567138672 255 1645019251.44557405 -0.504203140735626221 0.860803544521331787 0.00190749973990023136 0.0692305043339729309
135.219497680664062 173.760162353515625 9.35046577453613281 256 1645019251.94738531 -0.338504195213317871 0.938807845115661621 0.0110149141401052475 0.062717139720916748
126.226234436035156 169.167984008789062 8.20358371734619141 257 1645019253.54714942 -0.265030711889266968 0.961167097091674805 -0.0256652329117059708 0.0725111514329910278
118.031509399414062 162.700363159179688 6.9962158203125 258 1645019255.04790163 -0.352321147918701172 0.933998525142669678 -0.00605884892866015434 0.0589906908571720123
110.133758544921875 155.822158813476562 5.96132278442382812 259 1645019256.54802108 -0.350698977708816528 0.934925198554992676 -0.00175983970984816551 0.0540559329092502594
102.781478881835938 148.767288208007812 4.97099208831787109 260 1645019258.04882336 -0.390249043703079224 0.918801784515380859 -0.00705608073621988297 0.0588149726390838623
96.5951461791992188 140.924346923828125 4.065093994140625 261 1645019259.64835048 -0.474300533533096313 0.878598213195800781 -0.0125096570700407028 0.0542925260961055756
92.21368408203125 131.726608276367188 3.38178133964538574 262 1645019261.45027208 -0.56516653299331665 0.823681950569152832 -0.0102576762437820435 0.045051872730255127
91.0460739135742188 125.401847839355469 3.12447977066040039 263 1645019262.84840918 -0.713690102100372314 0.69792330265045166 -0.0302577614784240723 0.0513229258358478546
92.05560302734375 122.420074462890625 3.08375906944274902 264 1645019263.65052867 -0.825226247310638428 0.56139063835144043 -0.0262968540191650391 0.0561305247247219086
93.7930068969726562 120.292160034179688 3.08724331855773926 265 1645019264.34936285 -0.910370111465454102 0.407954573631286621 -0.0256941430270671844 0.0643359571695327759
95.762115478515625 119.364799499511719 3.17096877098083496 266 1645019264.94714379 -0.972120225429534912 0.225046291947364807 -0.0256722830235958099 0.0606411471962928772
98.043609619140625 119.13153076171875 3.29843878746032715 267 1645019265.55048895 -0.996474504470825195 0.0506335832178592682 -0.0310910511761903763 0.0592296943068504333
101.801605224609375 119.886474609375 3.59018158912658691 268 1645019266.44952965 -0.990371048450469971 -0.123512998223304749 -0.0332192964851856232 0.0529740490019321442
108.049697875976562 123.099128723144531 4.25420236587524414 269 1645019267.95067859 -0.948673129081726074 -0.311425626277923584 -0.0316279232501983643 0.0450886674225330353
114.229057312011719 131.12103271484375 5.14073514938354492 270 1645019269.94812179 -0.882378160953521729 -0.468119442462921143 -0.0310207884758710861 0.0362028032541275024
120.617057800292969 139.31719970703125 6.09723472595214844 271 1645019271.85017014 -0.910751461982727051 -0.410189986228942871 -0.043056584894657135 0.0205447152256965637
127.907394409179688 146.545120239257812 7.13388919830322266 272 1645019273.64905167 -0.924681127071380615 -0.376741498708724976 -0.0472024865448474884 0.0283306501805782318
133.575759887695312 154.88128662109375 8.26563644409179688 273 1645019275.44975996 -0.830663800239562988 -0.553597450256347656 -0.0403953157365322113 0.0435405448079109192
135.2918701171875 166.061431884765625 9.06498432159423828 274 1645019277.45018268 -0.755744040012359619 -0.654222726821899414 -0.026581786572933197 0.0117019796743988991
137.161514282226562 171.582901000976562 9.52341270446777344 275 1645019278.54892039 -0.866993367671966553 -0.494190245866775513 -0.0594329237937927246 -0.0237951446324586868
139.413772583007812 173.823837280273438 9.90573406219482422 276 1645019279.25170565 -0.94333571195602417 -0.325286358594894409 -0.0639165639877319336 -0.0148741994053125381
141.186370849609375 174.24798583984375 10.1630544662475586 277 1645019279.75175858 -0.9904366135597229 -0.125214070081710815 -0.0573853626847267151 -0.00797689612954854965
142.805007934570312 173.887344360351562 10.3388290405273438 278 1645019280.24651122 -0.996682703495025635 0.0592572912573814392 -0.054924938827753067 0.00976800266653299332
144.614212036132812 172.723251342773438 10.5148830413818359 279 1645019280.85017157 -0.963811695575714111 0.262392312288284302 -0.0450296103954315186 0.0137706669047474861
147.456451416015625 169.487808227539062 10.823115348815918 280 1645019281.95189095 -0.901174962520599365 0.429687619209289551 -0.0531788952648639679 0.0205977149307727814
156.172653198242188 165.589035034179688 11.3595523834228516 281 1645019284.04993463 -0.997050821781158447 0.0698193013668060303 -0.0303454697132110596 0.00969633366912603378
165.064834594726562 161.834640502929688 11.8060598373413086 282 1645019286.15261841 -0.902791142463684082 0.43004906177520752 -0.000554911850485950708 -0.0050631621852517128
162.68402099609375 154.242645263671875 11.5579357147216797 283 1645019288.24726725 -0.339228123426437378 0.940017044544219971 0.0224649254232645035 0.0280645601451396942
152.530044555664062 151.3087158203125 10.8509798049926758 284 1645019290.24866676 -0.105227693915367126 0.993946552276611328 0.013014577329158783 0.0287748463451862335
143.667098999023438 147.275726318359375 10.2296695709228516 285 1645019291.74789071 -0.286085695028305054 0.957286059856414795 -0.0124768903478980064 0.0400339886546134949
133.047744750976562 136.817581176757812 8.53178024291992188 286 1645019293.74809933 -0.436213821172714233 0.897296130657196045 0.0188449621200561523 0.0649772137403488159
126.368721008300781 124.161727905273438 7.12600278854370117 287 1645019295.54756713 -0.590021789073944092 0.806215345859527588 -0.00263444962911307812 0.0434071645140647888
125.426231384277344 108.944129943847656 6.75920391082763672 288 1645019297.54880714 -0.704404056072235107 0.709400415420532227 -0.012907685711979866 0.0199840683490037918
125.696868896484375 94.1955337524414062 6.60684871673583984 289 1645019299.54952669 -0.707455098628997803 0.70605844259262085 -0.0177371744066476822 0.0259646251797676086
125.7625732421875 78.7464141845703125 6.45301675796508789 290 1645019301.64870787 -0.717601120471954346 0.695902884006500244 -0.0119059262797236443 0.0250200759619474411
126.090293884277344 65.498992919921875 6.7268829345703125 291 1645019303.64964676 -0.711908280849456787 0.701813161373138428 -0.0239795669913291931 0.00836202129721641541
127.248489379882812 53.9183578491210938 7.09728717803955078 292 1645019305.74943328 -0.792619466781616211 0.608714699745178223 -0.0326654203236103058 0.0123989814892411232
130.430679321289062 48.2932510375976562 7.37256431579589844 293 1645019306.85391092 -0.891923308372497559 0.450779765844345093 -0.0308674853295087814 0.0178225673735141754
136.207183837890625 39.4352836608886719 7.78118371963500977 294 1645019308.85488582 -0.809140622615814209 0.587500154972076416 -0.0115132424980401993 -0.00155356002505868673
136.720672607421875 30.2267055511474609 7.80092954635620117 295 1645019310.5526576 -0.693840742111206055 0.719678580760955811 -0.0173680521547794342 0.0186032559722661972
136.67474365234375 19.8200130462646484 7.91241931915283203 296 1645019312.65089226 -0.687791645526885986 0.725223720073699951 -0.0314520709216594696 -0.00198557134717702866
135.673675537109375 17.0809612274169922 7.85380125045776367 297 1645019313.35559464 -0.537310123443603516 0.843044459819793701 -0.00147463567554950714 0.0239100120961666107
133.9427490234375 15.6203203201293945 7.80009794235229492 298 1645019313.94880891 -0.354258060455322266 0.934913277626037598 -0.00745425000786781311 0.0195671785622835159
130.361221313476562 14.0719079971313477 7.61624050140380859 299 1645019314.84826994 -0.186655014753341675 0.982084393501281738 0.00784542877227067947 0.0246686320751905441
122.101898193359375 12.2449884414672852 7.29038810729980469 300 1645019316.6480341 -0.0829795598983764648 0.996384561061859131 -0.0132440533488988876 0.0125213721767067909
110.26629638671875 11.3057756423950195 6.7895350456237793 301 1645019318.74760842 -0.00797001086175441742 0.999700188636779785 0.00886123441159725189 0.0213877484202384949
99.3652877807617188 11.1078701019287109 6.43630743026733398 302 1645019320.7516315 -0.0196115057915449142 0.999780356884002686 -0.000978567637503147125 0.00732972286641597748
87.3792800903320312 10.7432575225830078 6.14515304565429688 303 1645019322.84841418 -0.00706426147371530533 0.999762475490570068 0.0205463096499443054 0.00170282274484634399
76.1755905151367188 10.9795074462890625 6.73926067352294922 304 1645019324.84920764 -0.00130036403425037861 0.999181509017944336 -0.040192481130361557 0.00438531767576932907
64.5186386108398438 10.4725637435913086 6.44225454330444336 305 1645019326.85032201 -0.0108364438638091087 0.999301731586456299 -0.0344723612070083618 0.00950327981263399124
52.42095947265625 10.1404714584350586 6.01347780227661133 306 1645019328.95226192 -0.0507596507668495178 0.997715115547180176 -0.0307242125272750854 0.0323114283382892609
40.3325843811035156 9.40574550628662109 5.23431015014648438 307 1645019331.05350494 -0.0151784699410200119 0.99916762113571167 -0.023192552849650383 0.0299286637455224991
28.3285427093505859 9.10638236999511719 4.50951099395751953 308 1645019333.15249276 -0.0144249908626079559 0.99882209300994873 -0.0230915509164333344 0.0401634760200977325
16.9078197479248047 9.00450038909912109 3.88360428810119629 309 1645019335.25470757 0.00516228843480348587 0.999457418918609619 -0.0146010564640164375 0.0290700867772102356
10.7904062271118164 8.07857322692871094 3.58166241645812988 310 1645019336.55194616 -0.167127013206481934 0.985003769397735596 -0.0367254912853240967 0.0220765918493270874
7.96457910537719727 5.9519495964050293 3.53823280334472656 311 1645019337.35397959 -0.351142048835754395 0.935175061225891113 -0.0407807491719722748 0.0219964683055877686
4.25478839874267578 -0.354538083076477051 3.65953588485717773 312 1645019339.35743165 -0.460644632577896118 0.887582778930664062 0.00123701803386211395 -0.00134156469721347094
-0.682415306568145752 -1.35893476009368896 3.61698269844055176 313 1645019341.45306706 -0.00336701073683798313 0.999550104141235352 -0.0229226462543010712 0.019047299399971962
