# .PCD v0.7 - Point Cloud Data file format
VERSION 0.7
FIELDS x y z intensity t qx qy qz qw
SIZE 4 4 4 4 8 4 4 4 4
TYPE F F F F F F F F F
COUNT 1 1 1 1 1 1 1 1 1
WIDTH 179
HEIGHT 1
VIEWPOINT 0 0 0 1 0 0 0
POINTS 179
DATA ascii
0.0833176225423812866 -0.117562390863895416 0.069375939667224884 0 1644760115.25726771 0.992506265640258789 0.00481917429715394974 0.0462778247892856598 -0.112988583743572235
0.241360604763031006 -0.128019094467163086 0.0930305421352386475 1 1644760128.35384393 0.991913259029388428 0.00885687582194805145 0.0501085631549358368 -0.116270057857036591
3.54983067512512207 0.899090290069580078 0.409553050994873047 2 1644760130.35602045 0.995116949081420898 0.095067635178565979 0.0241750795394182205 0.0109545951709151268
11.0064706802368164 1.70454061031341553 0.381729722023010254 3 1644760132.35624146 0.999870657920837402 -0.0029310199897736311 0.00704542780295014381 0.0141583224758505821
21.3589763641357422 0.8099098801612854 0.41136208176612854 4 1644760134.45597982 0.999441802501678467 -0.0295317769050598145 0.00966342538595199585 0.0122733199968934059
30.0746212005615234 0.525765061378479004 0.452803552150726318 5 1644760136.45691657 0.999521017074584961 -0.00505862478166818619 0.0130424685776233673 0.0276046860963106155
38.3911170959472656 1.15135705471038818 0.51907801628112793 6 1644760138.5555892 0.99843144416809082 0.0534348040819168091 0.0139725608751177788 0.00917038973420858383
43.7732772827148438 1.77196264266967773 0.614454388618469238 7 1644760140.55648279 0.99817270040512085 0.0502334944903850555 0.0335822924971580505 -0.000296648329822346568
48.6663970947265625 2.17723226547241211 0.671295106410980225 8 1644760142.55808687 0.998995006084442139 0.0351130999624729156 0.0272991377860307693 -0.00555314216762781143
55.71929931640625 2.00179362297058105 0.684003531932830811 9 1644760144.65798283 0.999503910541534424 -0.0212231054902076721 0.00158130074851214886 -0.0232175160199403763
63.6569099426269531 1.91142010688781738 0.297195732593536377 10 1644760146.65938354 0.999590456485748291 0.00177521503064781427 -0.0218044798821210861 -0.0184496026486158371
73.4908523559570312 2.2027583122253418 -0.326294481754302979 11 1644760148.76082492 0.999530613422393799 0.00406239647418260574 -0.026400124654173851 -0.0150026576593518257
83.473419189453125 1.58787274360656738 -0.92969667911529541 12 1644760150.857409 0.997870326042175293 -0.0528635717928409576 -0.0270062219351530075 -0.0270347017794847488
92.4377059936523438 -0.399100422859191895 -1.62887430191040039 13 1644760152.95876384 0.990878760814666748 -0.127519488334655762 -0.0327415838837623596 -0.0287409685552120209
99.5654983520507812 -2.44347286224365234 -2.13158297538757324 14 1644760154.95884442 0.986395359039306641 -0.158410355448722839 -0.024185623973608017 -0.0366805791854858398
105.699249267578125 -5.14822149276733398 -2.58929729461669922 15 1644760157.05748558 0.968474507331848145 -0.242992356419563293 -0.0321632102131843567 -0.0444674193859100342
109.171195983886719 -8.45239448547363281 -2.72560858726501465 16 1644760158.75699711 0.909327864646911621 -0.413043111562728882 0.0382885448634624481 -0.0324368886649608612
110.534187316894531 -11.450718879699707 -2.77460741996765137 17 1644760159.65905428 0.816346645355224609 -0.576825737953186035 0.0169339999556541443 -0.023736732080578804
110.528717041015625 -14.3062839508056641 -2.91006135940551758 18 1644760160.35733199 0.702689588069915771 -0.710777342319488525 0.01147496048361063 -0.0298539511859416962
108.9407958984375 -19.8010997772216797 -3.26613354682922363 19 1644760161.55447364 0.564454615116119385 -0.825077235698699951 0.0033174748532474041 -0.0250505115836858749
104.124404907226562 -28.7664661407470703 -3.98915815353393555 20 1644760163.25716996 0.490666687488555908 -0.870718777179718018 0.00501814438030123711 -0.0327084437012672424
98.5950241088867188 -37.0826683044433594 -4.68398427963256836 21 1644760164.75659871 0.475954949855804443 -0.878351211547851562 0.0216151084750890732 -0.0387149937450885773
92.8338241577148438 -45.4672889709472656 -5.28431367874145508 22 1644760166.25641823 0.451934844255447388 -0.891212582588195801 0.022412886843085289 -0.0315069109201431274
86.7971343994140625 -53.6721839904785156 -5.77731800079345703 23 1644760167.7576735 0.447201937437057495 -0.893748581409454346 0.0217837449163198471 -0.0273747891187667847
80.4121856689453125 -61.5081748962402344 -6.24023628234863281 24 1644760169.25891781 0.41761857271194458 -0.907994687557220459 0.0203256905078887939 -0.026966901496052742
74.0152587890625 -69.2759017944335938 -6.68834972381591797 25 1644760170.76017833 0.415772527456283569 -0.909218490123748779 0.0113601572811603546 -0.0180532392114400864
67.4092559814453125 -76.8655471801757812 -7.11900997161865234 26 1644760172.25853395 0.408922046422958374 -0.912148475646972656 0.0161655358970165253 -0.0225086510181427002
60.5969390869140625 -84.35943603515625 -7.56925058364868164 27 1644760173.76082468 0.400051385164260864 -0.916146993637084961 0.0145046040415763855 -0.0205709505826234818
53.6651573181152344 -91.576171875 -8.01449108123779297 28 1644760175.25790048 0.387130081653594971 -0.921882450580596924 0.0106883235275745392 -0.0121980598196387291
46.4736213684082031 -98.5864639282226562 -8.33216571807861328 29 1644760176.75741601 0.367787003517150879 -0.929740011692047119 0.0153480023145675659 -0.00898031983524560928
39.0227622985839844 -105.373802185058594 -8.70862197875976562 30 1644760178.2585988 0.361546516418457031 -0.932025253772735596 0.0174860041588544846 -0.0175294745713472366
31.5909786224365234 -112.066566467285156 -9.02285099029541016 31 1644760179.75525379 0.3478812575340271 -0.937391161918640137 0.0102484077215194702 -0.0130918519571423531
23.8207569122314453 -118.376609802246094 -9.30507659912109375 32 1644760181.25650883 0.329721271991729736 -0.943969607353210449 0.0133100831881165504 -0.00529847666621208191
15.822443962097168 -124.5050048828125 -9.60404014587402344 33 1644760182.75460958 0.315479427576065063 -0.948767602443695068 0.0146135939285159111 -0.00995763018727302551
7.73765945434570312 -130.426727294921875 -9.8610992431640625 34 1644760184.25802255 0.306551426649093628 -0.951810240745544434 0.0080815562978386879 -0.00426155328750610352
-0.389043897390365601 -136.287063598632812 -10.1052951812744141 35 1644760185.7568109 0.301572352647781372 -0.953422248363494873 0.00633150665089488029 3.88020307582337409e-05
-9.07649898529052734 -142.371932983398438 -10.1990852355957031 36 1644760187.35641861 0.297290980815887451 -0.954725801944732666 0.0106760729104280472 0.00164500693790614605
-17.7191982269287109 -148.3529052734375 -10.2367696762084961 37 1644760188.95710826 0.296454817056655884 -0.955015063285827637 0.00616061966866254807 0.0047747734934091568
-26.2220611572265625 -154.25921630859375 -10.1484193801879883 38 1644760190.55920744 0.29420587420463562 -0.95556938648223877 0.0109236631542444229 0.0145154604688286781
-34.7764701843261719 -160.09869384765625 -10.054652214050293 39 1644760192.16036105 0.290511399507522583 -0.956688165664672852 0.00549474544823169708 0.0179067645221948624
-43.2314300537109375 -165.815261840820312 -9.91373920440673828 40 1644760193.7547965 0.291235148906707764 -0.95637202262878418 0.00906527601182460785 0.0212717559188604355
-51.6872749328613281 -171.545700073242188 -9.69961357116699219 41 1644760195.35305524 0.292787730693817139 -0.955992698669433594 0.00675070751458406448 0.0175432655960321426
-60.0724678039550781 -177.359909057617188 -9.48084068298339844 42 1644760196.9558115 0.289862841367721558 -0.956788003444671631 -0.00166140485089272261 0.023096693679690361
-68.4650726318359375 -183.027496337890625 -9.20929241180419922 43 1644760198.55192184 0.286448031663894653 -0.957651317119598389 -0.00460378313437104225 0.0288144126534461975
-76.9701766967773438 -188.626663208007812 -8.94698905944824219 44 1644760200.15257597 0.282684147357940674 -0.95894920825958252 -0.000821468012873083353 0.0224808640778064728
-85.4713592529296875 -194.139312744140625 -8.58367156982421875 45 1644760201.75453258 0.281161338090896606 -0.959143340587615967 0.0155778108164668083 0.0273803956806659698
-94.1644973754882812 -199.073989868164062 -8.20672893524169922 46 1644760203.35484648 0.234557300806045532 -0.971527040004730225 0.0243418831378221512 0.0229252390563488007
-103.441360473632812 -202.974639892578125 -7.92618036270141602 47 1644760204.95310378 0.164184778928756714 -0.986003577709197998 0.0190506763756275177 0.0218484215438365936
-113.379608154296875 -205.079330444335938 -7.68139076232910156 48 1644760206.55402684 0.0613229833543300629 -0.99768441915512085 0.0238476917147636414 0.0172222964465618134
-123.495712280273438 -205.47479248046875 -7.47294759750366211 49 1644760208.15327239 0.00160280638374388218 -0.999423623085021973 0.0255370102822780609 0.0223096422851085663
-133.596389770507812 -204.757339477539062 -7.17752742767333984 50 1644760209.75345516 -0.0588752590119838715 -0.998070061206817627 0.0143177425488829613 0.0135943125933408737
-143.954986572265625 -202.783676147460938 -6.80962610244750977 51 1644760211.45463109 -0.106106601655483246 -0.993815124034881592 0.00993700511753559113 0.0312106367200613022
-154.014114379882812 -200.661300659179688 -6.28844356536865234 52 1644760213.15386128 -0.106214821338653564 -0.993694841861724854 0.00503363320603966713 0.0355475954711437225
-163.937301635742188 -198.42742919921875 -5.55240917205810547 53 1644760214.85420251 -0.105312392115592957 -0.992989659309387207 0.0142885195091366768 0.0517364703118801117
-173.764480590820312 -196.515838623046875 -4.74337530136108398 54 1644760216.55680752 -0.0972004607319831848 -0.993943095207214355 0.0014840615913271904 0.0512540489435195923
-183.950729370117188 -194.544784545898438 -3.78191876411437988 55 1644760218.35521603 -0.104412153363227844 -0.992565333843231201 -0.00443625124171376228 0.0623894035816192627
-193.889083862304688 -192.569610595703125 -2.73768901824951172 56 1644760220.15259218 -0.0977634191513061523 -0.993406891822814941 -0.0095610450953245163 0.0591066256165504456
-204.143783569335938 -190.5557861328125 -1.53387081623077393 57 1644760222.05507159 -0.100169949233531952 -0.992336571216583252 0.00111302582081407309 0.0723388418555259705
-214.13433837890625 -188.262710571289062 -0.27534174919128418 58 1644760224.05449104 -0.121000081300735474 -0.989963233470916748 0.00993355084210634232 0.0723401755094528198
-223.51947021484375 -185.737640380859375 0.88175356388092041 59 1644760226.05462861 -0.125923037528991699 -0.988877534866333008 0.01996646448969841 0.0765893831849098206
-232.865890502929688 -183.408447265625 1.96929764747619629 60 1644760228.05742908 -0.148999199271202087 -0.986329853534698486 0.0136076044291257858 0.0690469145774841309
-241.636062622070312 -179.110427856445312 2.96582961082458496 61 1644760230.0581491 -0.260061472654342651 -0.962157070636749268 0.0235536694526672363 0.0778908282518386841
-249.842117309570312 -172.996536254882812 4.03931808471679688 62 1644760232.15653324 -0.341049879789352417 -0.936361432075500488 0.0250270869582891464 0.079283297061920166
-256.6092529296875 -166.2669677734375 4.95679903030395508 63 1644760234.15872359 -0.404750436544418335 -0.911789596080780029 0.0147274816408753395 0.0678228661417961121
-262.761077880859375 -158.234222412109375 5.79431390762329102 64 1644760236.25440645 -0.471313148736953735 -0.87937086820602417 0.00452404329553246498 0.0674558207392692566
-267.017242431640625 -149.69183349609375 6.63276815414428711 65 1644760238.25535059 -0.548005223274230957 -0.833853185176849365 0.00717311585322022438 0.0657852664589881897
-270.860260009765625 -141.006744384765625 7.25005435943603516 66 1644760240.25605011 -0.527043461799621582 -0.847271859645843506 0.00533918337896466255 0.0657805353403091431
-275.150909423828125 -131.840774536132812 8.01627540588378906 67 1644760242.35793352 -0.526846110820770264 -0.847215414047241211 0.00622942997142672539 0.0679740607738494873
-278.432098388671875 -123.457046508789062 8.72675132751464844 68 1644760244.45640993 -0.629363894462585449 -0.774770259857177734 0.000164033102919347584 0.0602672696113586426
-278.185546875 -119.186408996582031 8.84228134155273438 69 1644760245.45619702 -0.754725515842437744 -0.654072761535644531 0.0108904913067817688 0.0495941340923309326
-276.266448974609375 -115.098320007324219 8.82856655120849609 70 1644760246.45699573 -0.866648614406585693 -0.496977359056472778 0.0166946407407522202 0.0406813696026802063
-272.1077880859375 -111.139007568359375 8.49248790740966797 71 1644760247.65320015 -0.938553750514984131 -0.341101258993148804 0.0464137755334377289 0.0247490424662828445
-265.5074462890625 -106.519058227539062 7.69761371612548828 72 1644760249.65592861 -0.966012418270111084 -0.252362161874771118 0.0557672902941703796 -0.00483343983069062233
-260.296478271484375 -102.123603820800781 7.21169710159301758 73 1644760251.76027751 -0.86172175407409668 -0.503926932811737061 0.0426760278642177582 0.0408903248608112335
-262.19854736328125 -94.2988739013671875 7.39183330535888672 74 1644760253.76082945 -0.534813225269317627 -0.842373549938201904 0.0169883593916893005 0.0639770105481147766
-266.4927978515625 -85.5112533569335938 7.98270559310913086 75 1644760255.85225558 -0.522734999656677246 -0.851122736930847168 0.012692771852016449 0.0466591641306877136
-270.475860595703125 -77.9607772827148438 8.487213134765625 76 1644760257.85508084 -0.534923434257507324 -0.84367680549621582 -0.00617311242967844009 0.0450361892580986023
-275.05975341796875 -71.8470611572265625 8.93616867065429688 77 1644760259.65275383 -0.36082768440246582 -0.931454598903656006 0.00435665855184197426 0.0466549061238765717
-281.547698974609375 -66.0960235595703125 9.41700458526611328 78 1644760261.75076532 -0.480020910501480103 -0.876415014266967773 -0.00911669712513685226 0.0373307466506958008
-280.9364013671875 -57.7946662902832031 9.39390373229980469 79 1644760263.75156331 -0.862347841262817383 -0.50614553689956665 0.0127671761438250542 -0.00315399561077356339
-275.1571044921875 -55.0483169555664062 8.92014884948730469 80 1644760265.15149832 -0.997130215167999268 -0.0643012449145317078 0.0295204222202301025 -0.0269297603517770767
-265.624298095703125 -55.1515350341796875 8.30981731414794922 81 1644760267.15353417 -0.998091816902160645 -0.059578385204076767 0.0161706134676933289 0.00127604790031909943
-255.722305297851562 -52.2932243347167969 7.56698179244995117 82 1644760269.15051317 -0.984271883964538574 -0.17212185263633728 0.038087308406829834 -0.0114997019991278648
-246.95306396484375 -47.2167625427246094 6.39363813400268555 83 1644760271.05133963 -0.954119503498077393 -0.294728517532348633 0.0513107739388942719 -0.0125812841579318047
-239.320846557617188 -40.0073204040527344 5.29213619232177734 84 1644760272.85291576 -0.908042728900909424 -0.417499154806137085 0.0321197919547557831 -0.0110080726444721222
-234.13177490234375 -30.9034614562988281 4.87842845916748047 85 1644760274.55289125 -0.827664554119110107 -0.560385346412658691 0.0142147848382592201 0.0271584223955869675
-231.242767333984375 -21.1856040954589844 4.81220245361328125 86 1644760276.15348291 -0.791261970996856689 -0.610897481441497803 0.0114819444715976715 0.0240196455270051956
-228.705810546875 -11.4619464874267578 4.82193517684936523 87 1644760277.75415254 -0.793621957302093506 -0.607372403144836426 0.0139425946399569511 0.0326884053647518158
-226.000045776367188 -1.79985189437866211 4.89530229568481445 88 1644760279.35380626 -0.795410215854644775 -0.604034006595611572 0.010853935033082962 0.048452470451593399
-223.55926513671875 8.00938701629638672 4.90892696380615234 89 1644760280.95565104 -0.788730263710021973 -0.613951265811920166 0.00234170444309711456 0.0310304351150989532
-220.993972778320312 18.1704864501953125 5.26415443420410156 90 1644760282.65173006 -0.794822037220001221 -0.605609357357025146 -0.0104428846389055252 0.0372312441468238831
-218.4464111328125 27.8980789184570312 5.71221780776977539 91 1644760284.35231972 -0.773809254169464111 -0.63179701566696167 -0.00207848288118839264 0.0452482588589191437
-218.712356567382812 33.92388916015625 6.03992033004760742 92 1644760285.55117464 -0.640323758125305176 -0.766849398612976074 -0.00607883185148239136 0.0434800982475280762
-222.232620239257812 43.4703254699707031 6.71620941162109375 93 1644760287.55302978 -0.619444668292999268 -0.783371329307556152 -0.0203992202877998352 0.0469203740358352661
-221.57421875 53.9662208557128906 7.06020069122314453 94 1644760289.55164886 -0.777793765068054199 -0.627512454986572266 0.00909956172108650208 0.0343827046453952789
-218.481689453125 63.6929588317871094 7.26660680770874023 95 1644760291.65013719 -0.825146377086639404 -0.564095556735992432 -0.0018392857164144516 0.0304352492094039917
-214.997222900390625 69.4832077026367188 7.32007551193237305 96 1644760293.35043073 -0.912167251110076904 -0.40861201286315918 0.012818637304008007 0.0286845620721578598
-211.970794677734375 71.2776947021484375 7.21486759185791016 97 1644760294.35029697 -0.972559869289398193 -0.230970755219459534 0.0196798890829086304 0.0198133699595928192
-208.514297485351562 71.93487548828125 6.98296928405761719 98 1644760295.25018525 -0.99795234203338623 -0.0544494576752185822 0.031739402562379837 -0.0109059326350688934
-200.686080932617188 70.4310531616210938 6.65455865859985352 99 1644760297.04856586 -0.992821216583251953 0.116489335894584656 0.0111005855724215508 0.0247587095946073532
-190.788894653320312 67.8458938598632812 6.07101154327392578 100 1644760299.05330539 -0.98923879861831665 0.145189478993415833 0.0180615782737731934 0.000647184846457093954
-181.358001708984375 65.4853973388671875 5.61877346038818359 101 1644760301.15366912 -0.989556789398193359 0.143098577857017517 0.0157230757176876068 -0.00727555574849247932
-171.601577758789062 62.6287193298339844 5.19788312911987305 102 1644760303.15205503 -0.988929688930511475 0.147757992148399353 0.0123740723356604576 0.00569906039163470268
-162.193405151367188 59.2416839599609375 5.45852375030517578 103 1644760305.15271425 -0.977843582630157471 0.203688263893127441 -0.0457324385643005371 0.0155417090281844139
-156.906631469726562 55.6461219787597656 5.25943279266357422 104 1644760306.75189447 -0.931824207305908203 0.360905975103378296 0.012931029312312603 0.0358230844140052795
-155.104217529296875 52.5854911804199219 4.95360374450683594 105 1644760307.6529932 -0.849218666553497314 0.526528477668762207 0.0287839770317077637 0.0276931673288345337
-154.544921875 48.9376258850097656 4.61503791809082031 106 1644760308.55387092 -0.736613333225250244 0.675068557262420654 0.0352400057017803192 0.0210085827857255936
-155.948699951171875 41.1890144348144531 3.83291435241699219 107 1644760310.15508151 -0.604290127754211426 0.795279800891876221 0.0482532605528831482 0.00592606328427791595
-159.07440185546875 31.2378578186035156 2.93320751190185547 108 1644760311.8533802 -0.600470781326293945 0.798514127731323242 0.0404447317123413086 0.0132008306682109833
-161.651214599609375 21.4787483215332031 2.09929680824279785 109 1644760313.35069728 -0.61000525951385498 0.791127562522888184 0.0438044518232345581 0.00958869513124227524
-164.278106689453125 11.2845840454101562 1.2374732494354248 110 1644760314.85265803 -0.605234444141387939 0.794561684131622314 0.0479005388915538788 0.00828186329454183578
-167.170989990234375 1.21246898174285889 0.528425395488739014 111 1644760316.45217204 -0.591656148433685303 0.804876148700714111 0.0460141561925411224 0.000310829811496660113
-170.371429443359375 -8.29881572723388672 0.00921019911766052246 112 1644760318.15339518 -0.58712303638458252 0.808873176574707031 0.0314723849296569824 0.00449955742806196213
-171.805694580078125 -17.9459190368652344 -0.59637373685836792 113 1644760320.15372205 -0.729795873165130615 0.682773590087890625 0.0195506885647773743 0.0289129558950662613
-170.54254150390625 -21.1934623718261719 -0.898565351963043213 114 1644760320.95356083 -0.842154026031494141 0.537205517292022705 0.0272193625569343567 0.038025248795747757
-168.507537841796875 -23.2693996429443359 -1.15317356586456299 115 1644760321.65232134 -0.927236378192901611 0.371613085269927979 0.0267710126936435699 0.037679087370634079
-165.8812255859375 -24.4107952117919922 -1.41430747509002686 116 1644760322.35327697 -0.978363931179046631 0.196492195129394531 0.0420303530991077423 0.0492774471640586853
-163.017410278320312 -24.548248291015625 -1.68778836727142334 117 1644760323.05192113 -0.99824368953704834 0.0230874139815568924 0.0352280475199222565 0.0416587144136428833
-152.632736206054688 -24.54132080078125 -2.44849872589111328 118 1644760324.95162249 -0.999284863471984863 0.027198154479265213 0.0213291831314563751 0.015332445502281189
-142.754180908203125 -27.5053253173828125 -3.14685225486755371 119 1644760326.55462289 -0.979125142097473145 0.20100635290145874 0.0238650739192962646 0.0184632651507854462
-134.245391845703125 -33.7626380920410156 -3.79746699333190918 120 1644760328.15199161 -0.913593113422393799 0.405926436185836792 0.0218075346201658249 0.00978384446352720261
-128.500640869140625 -42.6010551452636719 -4.38823223114013672 121 1644760329.75245595 -0.849281907081604004 0.527559518814086914 0.0146667221561074257 0.0136422347277402878
-126.504501342773438 -52.6354904174804688 -4.9112706184387207 122 1644760331.35261345 -0.725516855716705322 0.687924504280090332 0.0137438783422112465 0.0140088163316249847
-128.100677490234375 -62.5649948120117188 -5.28939723968505859 123 1644760333.051651 -0.593075156211853027 0.804921090602874756 0.00155706179793924093 0.0190125107765197754
-132.765411376953125 -71.8999710083007812 -5.96107387542724609 124 1644760334.8480792 -0.459940463304519653 0.887723326683044434 0.014942781999707222 0.0133704971522092819
-138.556884765625 -80.0629806518554688 -6.06537055969238281 125 1644760336.64845467 -0.468663901090621948 0.883302271366119385 -0.00180183397606015205 -0.0113148316740989685
-144.438323974609375 -86.8885421752929688 -5.84918594360351562 126 1644760338.65015674 -0.346676558256149292 0.937649548053741455 -0.015569908544421196 -0.0196538865566253662
-149.73126220703125 -89.5678024291992188 -5.72826242446899414 127 1644760339.94899225 -0.167992308735847473 0.9855538010597229 -0.0111726298928260803 -0.0183696020394563675
-154.110122680664062 -89.9129486083984375 -5.66442632675170898 128 1644760340.9482348 0.0157127249985933304 0.999794721603393555 -0.00368270254693925381 -0.0122518567368388176
-156.491989135742188 -89.0512161254882812 -5.58675098419189453 129 1644760341.54751539 0.194129213690757751 0.980760693550109863 0.00330180651508271694 -0.0202820803970098495
-158.332977294921875 -87.3499526977539062 -5.54237127304077148 130 1644760342.1476078 0.380315303802490234 0.924767553806304932 0.00368809490464627743 -0.0123129794374108315
-159.314239501953125 -85.2587661743164062 -5.50322675704956055 131 1644760342.74789715 0.554348766803741455 0.832101106643676758 0.0156817752867937088 -0.00769935734570026398
-159.23406982421875 -83.4350738525390625 -5.4947819709777832 132 1644760343.24825287 0.699988186359405518 0.714097559452056885 0.0013610494788736105 -0.00890848413109779358
-158.562789916992188 -81.9146270751953125 -5.49745798110961914 133 1644760343.74729586 0.816046595573425293 0.57792133092880249 0.00134008168242871761 -0.00854866206645965576
-157.286209106445312 -80.6067428588867188 -5.52820014953613281 134 1644760344.24749517 0.909550666809082031 0.415571063756942749 -0.00153947132639586926 -0.00398433348163962364
-155.459014892578125 -79.7827835083007812 -5.57503128051757812 135 1644760344.7470336 0.972158372402191162 0.23430238664150238 -0.00295299268327653408 -0.00133153726346790791
-146.050735473632812 -77.1135711669921875 -5.8361210823059082 136 1644760346.74795318 0.990704238414764404 0.135542035102844238 -0.00225313659757375717 -0.0113293752074241638
-135.606658935546875 -71.78900146484375 -5.99941253662109375 137 1644760348.75062943 0.934701800346374512 0.354641437530517578 0.00477963592857122421 -0.0232191979885101318
-130.94720458984375 -63.9744682312011719 -5.38819646835327148 138 1644760350.35029435 0.831842541694641113 0.552940785884857178 0.0333022288978099823 -0.0344301015138626099
-128.916915893554688 -53.4886283874511719 -4.94295930862426758 139 1644760352.25137544 0.724140703678131104 0.689018189907073975 0.0157587230205535889 -0.0250173229724168777
-130.392486572265625 -45.55889892578125 -4.51975059509277344 140 1644760353.6494689 0.589427053928375244 0.806975245475769043 0.0204990562051534653 -0.0307652968913316727
-135.255111694335938 -36.9601097106933594 -3.93403291702270508 141 1644760355.3501265 0.436575740575790405 0.898775577545166016 0.0178754273802042007 -0.0358408577740192413
-142.920440673828125 -30.6117343902587891 -3.28838539123535156 142 1644760357.04821301 0.265015602111816406 0.963275313377380371 0.0143638588488101959 -0.0407560542225837708
-150.744537353515625 -28.0027980804443359 -2.7102053165435791 143 1644760358.45039201 0.09069061279296875 0.994844615459442139 0.015147550031542778 -0.0427779071033000946
-160.545516967773438 -28.6157741546630859 -2.04892992973327637 144 1644760360.24934101 -0.0874966979026794434 0.995468378067016602 0.00983345508575439453 -0.0359209291636943817
-168.050308227539062 -29.6517124176025391 -1.55631804466247559 145 1644760362.25116134 0.0271611530333757401 0.998239755630493164 0.0276709794998168945 -0.0448773354291915894
-172.015945434570312 -28.0459346771240234 -1.25239896774291992 146 1644760363.35099745 0.265947669744491577 0.962883234024047852 0.0327700786292552948 -0.0324626713991165161
-173.9754638671875 -25.6987113952636719 -1.06707096099853516 147 1644760364.05147362 0.44099724292755127 0.896661639213562012 0.0259911045432090759 -0.029047790914773941
-175.275985717773438 -22.2529640197753906 -0.81242680549621582 148 1644760364.85037661 0.595389068126678467 0.802206099033355713 0.020598631352186203 -0.0394076518714427948
-175.398513793945312 -17.4454116821289062 -0.487914472818374634 149 1644760365.85202527 0.734332740306854248 0.677839159965515137 0.0222018975764513016 -0.0282231904566287994
-172.905349731445312 -7.17918920516967773 0.113135837018489838 150 1644760367.95339227 0.785807132720947266 0.617383241653442383 0.0225712452083826065 -0.0289072897285223007
-170.709259033203125 3.12549805641174316 0.755220115184783936 151 1644760369.95517588 0.772419214248657227 0.633720517158508301 0.0274743009358644485 -0.031812470406293869
-168.26324462890625 14.1290311813354492 1.54930329322814941 152 1644760372.04984593 0.791250050067901611 0.609850943088531494 0.0342346988618373871 -0.0288650728762149811
-164.988006591796875 24.8631172180175781 2.4401400089263916 153 1644760374.15252829 0.814125895500183105 0.578740179538726807 0.0337909907102584839 -0.0334215350449085236
-161.3065185546875 35.1587715148925781 3.34380602836608887 154 1644760376.25088978 0.811960160732269287 0.581281900405883789 0.0311980117112398148 -0.0431130379438400269
-158.57647705078125 44.8850593566894531 4.24159908294677734 155 1644760378.25165987 0.782387077808380127 0.620453298091888428 0.0285079460591077805 -0.0457764677703380585
-158.6300048828125 49.8883094787597656 4.67615413665771484 156 1644760379.25036001 0.651198029518127441 0.757014155387878418 0.0316270515322685242 -0.0432489477097988129
-160.156448364257812 53.0906562805175781 4.99127674102783203 157 1644760379.95193219 0.505292356014251709 0.861428022384643555 0.0296267606317996979 -0.0417563952505588531
-162.86846923828125 55.6662673950195312 5.25540351867675781 158 1644760380.75143147 0.34792637825012207 0.936422646045684814 0.0386272072792053223 -0.0238295849412679672
-170.198074340820312 62.1292991638183594 5.13542461395263672 159 1644760382.85049438 0.477445989847183228 0.878481447696685791 0.0070351981557905674 -0.0163165852427482605
-170.841445922851562 70.3202362060546875 5.35284328460693359 160 1644760384.35043025 0.773579955101013184 0.633245468139648438 0.0037079821340739727 -0.0236740261316299438
-169.961288452148438 77.6212615966796875 5.51555013656616211 161 1644760385.9523015 0.644752085208892822 0.762895166873931885 -0.0130839822813868523 -0.0459837131202220917
-174.781982421875 81.923492431640625 5.89902067184448242 162 1644760387.45139647 0.166847854852676392 0.985295712947845459 -0.0104450387880206108 -0.0352853797376155853
-185.204452514648438 83.0235061645507812 6.3392643928527832 163 1644760389.45242953 0.0273475106805562973 0.998992621898651123 0.0210624318569898605 -0.0286744367331266403
-195.5257568359375 83.7491912841796875 6.8178715705871582 164 1644760391.15085363 0.0456605181097984314 0.99836432933807373 0.00789858028292655945 -0.0334863997995853424
-205.43927001953125 85.3380889892578125 7.28303956985473633 165 1644760392.75139642 0.105639226734638214 0.993736028671264648 0.0181625857949256897 -0.0316099151968955994
-215.325912475585938 87.6003494262695312 7.77785253524780273 166 1644760394.34923291 0.131550788879394531 0.990463912487030029 0.027285424992442131 -0.0305148102343082428
-224.970977783203125 90.5947418212890625 8.36097431182861328 167 1644760395.94954205 0.16012166440486908 0.986229181289672852 0.0209804307669401169 -0.0356775969266891479
-234.434585571289062 93.98345947265625 8.989471435546875 168 1644760397.54840088 0.178451880812644958 0.983321547508239746 0.0158958323299884796 -0.0313200168311595917
-243.862213134765625 97.50921630859375 9.60218143463134766 169 1644760399.2535634 0.167738288640975952 0.984948694705963135 0.0153877679258584976 -0.038770042359828949
-253.50567626953125 98.7611236572265625 10.1815547943115234 170 1644760401.35013318 -0.0599753633141517639 0.997564315795898438 0.0156939513981342316 -0.031970832496881485
-256.722320556640625 97.3106689453125 10.287837028503418 171 1644760402.25085258 -0.243581533432006836 0.969631552696228027 0.0146195990964770317 -0.0163991563022136688
-259.085968017578125 94.8121337890625 10.3475923538208008 172 1644760403.14980316 -0.414002299308776855 0.909456491470336914 0.0119809824973344803 -0.0367078036069869995
-262.6729736328125 87.5300445556640625 10.3077192306518555 173 1644760405.05060744 -0.56504666805267334 0.824990272521972656 0.00965509098023176193 -0.00448518572375178337
-262.844085693359375 84.9269332885742188 10.2660379409790039 174 1644760405.75050306 -0.712033689022064209 0.701927483081817627 -0.00562118832021951675 0.0165582429617643356
-262.038299560546875 83.3471832275390625 10.1850976943969727 175 1644760406.25308132 -0.835895121097564697 0.547998487949371338 0.00925778038799762726 0.0298540927469730377
-260.749053955078125 82.3716583251953125 10.0876245498657227 176 1644760406.75208378 -0.925448060035705566 0.376943081617355347 0.0138961011543869972 0.0355909094214439392
-259.374053955078125 81.9741058349609375 10.018681526184082 177 1644760407.25165963 -0.97683250904083252 0.210008233785629272 0.019057106226682663 0.0364919714629650116
-257.875640869140625 82.110809326171875 9.95656013488769531 178 1644760408.5533421 -0.998628079891204834 0.0369080826640129089 0.0208914503455162048 0.0307132303714752197
