# .PCD v0.7 - Point Cloud Data file format
VERSION 0.7
FIELDS x y z intensity t qx qy qz qw
SIZE 4 4 4 4 8 4 4 4 4
TYPE F F F F F F F F F
COUNT 1 1 1 1 1 1 1 1 1
WIDTH 174
HEIGHT 1
VIEWPOINT 0 0 0 1 0 0 0
POINTS 174
DATA ascii
1.62236320972442627 -0.260886520147323608 0.527438938617706299 0 1645020875.27871609 0.99992978572845459 -0.00504320254549384117 -0.00952014978975057602 0.00494042644277215004
1.72976982593536377 -0.308806687593460083 0.556041419506072998 1 1645020878.68149638 0.9999503493309021 -0.00682175951078534126 0.00442214496433734894 0.00576494727283716202
7.34613561630249023 -0.726419329643249512 0.552058279514312744 2 1645020880.77925038 0.998871684074401855 -0.0470726378262042999 0.0058737793006002903 -0.00223310105502605438
17.0197391510009766 -2.67095041275024414 0.637117743492126465 3 1645020882.87920737 0.990288853645324707 -0.138576492667198181 0.0111525440588593483 0.000355682859662920237
26.7976093292236328 -6.69715118408203125 0.954287886619567871 4 1645020884.77954173 0.972596704959869385 -0.231368675827980042 0.0223596300929784775 0.00491857016459107399
35.7414283752441406 -12.367396354675293 1.46628952026367188 5 1645020886.57953095 0.948997855186462402 -0.313886582851409912 0.0286206081509590149 0.00769208464771509171
43.3911476135253906 -18.9225807189941406 2.1186058521270752 6 1645020888.27953792 0.929686069488525391 -0.366252422332763672 0.0367563068866729736 0.0138531634584069252
50.6905174255371094 -26.3253765106201172 2.87748384475708008 7 1645020890.08097339 0.916227996349334717 -0.39876064658164978 0.0381117351353168488 0.00798134040087461472
57.5472335815429688 -33.8667106628417969 3.64623475074768066 8 1645020891.88264561 0.916778147220611572 -0.396735429763793945 0.0455082282423973083 0.006913759745657444
65.278472900390625 -40.8693351745605469 4.47409534454345703 9 1645020893.78247929 0.937892377376556396 -0.344306915998458862 0.0414836332201957703 0.00947254057973623276
73.0286407470703125 -47.723052978515625 5.25536489486694336 10 1645020895.68414617 0.930215239524841309 -0.364392369985580444 0.0431755818426609039 0.00732374191284179688
80.5146865844726562 -54.6115875244140625 5.95669937133789062 11 1645020897.58324432 0.932706534862518311 -0.359501481056213379 0.0280403979122638702 0.0055653122253715992
85.8135452270507812 -59.4358444213867188 6.33658266067504883 12 1645020899.58334851 0.932062387466430664 -0.362154960632324219 0.0100645981729030609 0.00146735669113695621
89.2675247192382812 -62.7314682006835938 6.51428413391113281 13 1645020901.58472419 0.923999130725860596 -0.381447523832321167 0.0178994368761777878 0.0200757235288619995
97.260467529296875 -66.52777099609375 6.39009523391723633 14 1645020903.68345189 0.996067523956298828 -0.0770030617713928223 -0.0330767668783664703 0.0287383217364549637
101.197822570800781 -65.9095993041992188 6.19187307357788086 15 1645020904.48380852 0.991642296314239502 0.123895317316055298 -0.0236575063318014145 0.0271270498633384705
105.378684997558594 -63.4061279296875 5.84045076370239258 16 1645020905.38470721 0.949776113033294678 0.310126274824142456 -0.0327396392822265625 0.0259829722344875336
112.649024963378906 -56.1833915710449219 4.97300434112548828 17 1645020906.98182535 0.912104606628417969 0.407104462385177612 -0.0317746438086032867 0.0363521650433540344
119.600181579589844 -48.6958885192871094 4.17624092102050781 18 1645020908.58322811 0.924997627735137939 0.37745290994644165 -0.0123978862538933754 0.0418929494917392731
126.52490234375 -41.4624748229980469 3.3096163272857666 19 1645020910.28441858 0.908495664596557617 0.415666162967681885 -0.024523342028260231 0.0354378595948219299
132.427352905273438 -32.9982948303222656 2.38958263397216797 20 1645020911.78506136 0.864743351936340332 0.499056130647659302 -0.0355850346386432648 0.0435382239520549774
136.3426513671875 -23.7545127868652344 1.35163998603820801 21 1645020913.08644438 0.823503017425537109 0.563768625259399414 -0.0274605359882116318 0.0570403486490249634
139.304473876953125 -13.7758007049560547 0.483990341424942017 22 1645020914.38316345 0.780747532844543457 0.623350918292999268 -0.0128126237541437149 0.0412645637989044189
139.478179931640625 -3.23695015907287598 -0.334197193384170532 23 1645020915.68461108 0.687317550182342529 0.724384009838104248 -0.0137796485796570778 0.0516961775720119476
139.153656005859375 7.31768274307250977 -1.22057890892028809 24 1645020916.98470902 0.683976531028747559 0.72811967134475708 -0.0231607910245656967 0.0384899415075778961
138.199996948242188 17.974822998046875 -2.10697436332702637 25 1645020918.28579998 0.668820083141326904 0.742304384708404541 -0.0260171107947826385 0.0314158909022808075
137.057754516601562 28.5852432250976562 -3.01617741584777832 26 1645020919.58638978 0.666153073310852051 0.744976043701171875 -0.0237632859498262405 0.0261924024671316147
135.831832885742188 39.2914657592773438 -3.85967183113098145 27 1645020920.88648272 0.663463711738586426 0.746950626373291016 -0.0260269436985254288 0.0346883013844490051
134.785125732421875 49.9484596252441406 -4.62523794174194336 28 1645020922.18566895 0.679343223571777344 0.732947885990142822 -0.0133442431688308716 0.0331987515091896057
134.103240966796875 60.5864334106445312 -5.22060632705688477 29 1645020923.4886651 0.688907861709594727 0.724287569522857666 -0.0119516113772988319 0.025895979255437851
133.518630981445312 70.9808120727539062 -5.61874580383300781 30 1645020924.786659 0.68115389347076416 0.732035338878631592 -0.00892577320337295532 0.00859873928129673004
132.56610107421875 80.9811859130859375 -5.81186056137084961 31 1645020926.08931851 0.670672357082366943 0.741700410842895508 0.00464802281931042671 -0.00758503563702106476
131.471420288085938 91.5700912475585938 -5.99027681350708008 32 1645020927.48362303 0.663260579109191895 0.748283207416534424 -0.00375930545851588249 0.0119789363816380501
129.011947631835938 101.522514343261719 -5.99900102615356445 33 1645020928.88506722 0.59789043664932251 0.801465392112731934 0.010081978514790535 0.00886511150747537613
125.771095275878906 111.045684814453125 -5.83598184585571289 34 1645020930.28780746 0.553117871284484863 0.833009302616119385 0.0117473863065242767 -0.00425328360870480537
120.364547729492188 120.119384765625 -5.68621826171875 35 1645020931.78458977 0.457684844732284546 0.888965427875518799 0.0162799973040819168 -3.47909008269198239e-05
113.378067016601562 128.09088134765625 -5.58689451217651367 36 1645020933.28448224 0.387645542621612549 0.921621799468994141 0.0184257626533508301 0.00215844460763037205
105.525291442871094 135.178665161132812 -5.460113525390625 37 1645020934.7853713 0.344810783863067627 0.938517928123474121 0.0169326253235340118 -0.00169137155171483755
97.2045211791992188 141.670394897460938 -5.25852394104003906 38 1645020936.2857089 0.330531984567642212 0.943486571311950684 0.0239627677947282791 -0.00273031345568597317
89.09283447265625 148.371261596679688 -5.08014822006225586 39 1645020937.78775072 0.349122434854507446 0.936771571636199951 0.0239266697317361832 0.000253021717071533203
81.1164627075195312 155.379837036132812 -4.90445327758789062 40 1645020939.28827429 0.359571576118469238 0.932947695255279541 0.0178017094731330872 -3.29310314555186778e-05
72.9210739135742188 162.06427001953125 -4.72837448120117188 41 1645020940.78702402 0.326606869697570801 0.944983482360839844 0.0176588930189609528 -0.00472050672397017479
64.4352188110351562 168.41119384765625 -4.54177188873291016 42 1645020942.29016185 0.315466761589050293 0.948637306690216064 0.0237500742077827454 -0.0019826255738735199
56.1973876953125 175.134811401367188 -4.23782730102539062 43 1645020943.7889452 0.347581535577774048 0.937242507934570312 0.025514574721455574 -0.0106095606461167336
48.1311149597167969 181.884384155273438 -3.88121175765991211 44 1645020945.28905058 0.342660814523696899 0.939094245433807373 0.0253839604556560516 -0.00641721254214644432
39.982147216796875 188.357559204101562 -3.44191718101501465 45 1645020946.78709221 0.328701883554458618 0.944019317626953125 0.0240372475236654282 -0.0143127012997865677
31.9933567047119141 194.92816162109375 -2.91112971305847168 46 1645020948.28592849 0.350665003061294556 0.935965478420257568 0.0237126480787992477 -0.0209844540804624557
24.3978672027587891 201.656951904296875 -2.22334194183349609 47 1645020949.78639293 0.356556594371795654 0.933453679084777832 0.0283273644745349884 -0.0270038284361362457
16.6509361267089844 207.954803466796875 -1.52009105682373047 48 1645020951.28426814 0.317574858665466309 0.947485148906707764 0.0231510698795318604 -0.0297010987997055054
8.33278274536132812 213.516036987304688 -0.799178183078765869 49 1645020952.78387785 0.274089932441711426 0.960913956165313721 0.0217710454016923904 -0.0323286131024360657
-0.536034584045410156 218.373809814453125 -0.108293592929840088 50 1645020954.28557777 0.240359827876091003 0.969659268856048584 0.0325500816106796265 -0.0304728131741285324
-9.63537502288818359 222.564666748046875 0.58225858211517334 51 1645020955.78513074 0.211835414171218872 0.976514935493469238 0.0265733543783426285 -0.028951713815331459
-18.7995510101318359 226.598464965820312 1.27016711235046387 52 1645020957.28510737 0.217825725674629211 0.974882662296295166 0.0387251824140548706 -0.0256150830537080765
-27.7785091400146484 230.971221923828125 2.03753566741943359 53 1645020958.78468275 0.233977600932121277 0.971095144748687744 0.0352366603910923004 -0.0314186327159404755
-36.8228530883789062 236.597274780273438 2.89495491981506348 54 1645020960.38776898 0.303097575902938843 0.95160984992980957 0.0228792130947113037 -0.0452446751296520233
-45.2524147033691406 242.939117431640625 3.85405659675598145 55 1645020961.98882484 0.319603055715560913 0.946319818496704102 0.0224089212715625763 -0.0427846089005470276
-54.0335350036621094 248.650558471679688 4.82024335861206055 56 1645020963.58752155 0.271123111248016357 0.961123347282409668 0.0307511594146490097 -0.0422914028167724609
-63.3106918334960938 253.680587768554688 5.74018716812133789 57 1645020965.18556142 0.229311287403106689 0.971741437911987305 0.0379198417067527771 -0.0411947779357433319
-73.1222305297851562 257.723388671875 6.64574718475341797 58 1645020966.78704691 0.17482227087020874 0.983378410339355469 0.0287201926112174988 -0.0397388339042663574
-83.1140823364257812 261.211395263671875 7.54601383209228516 59 1645020968.38748789 0.166290611028671265 0.984079182147979736 0.0452559031546115875 -0.0434457920491695404
-92.9993896484375 264.388397216796875 8.54840946197509766 60 1645020969.98833466 0.159773558378219604 0.984784483909606934 0.0465164482593536377 -0.050081595778465271
-102.596107482910156 267.3653564453125 9.68966579437255859 61 1645020971.58613086 0.13658471405506134 0.988423407077789307 0.0398813746869564056 -0.052661944180727005
-109.275131225585938 267.870147705078125 10.3393783569335938 62 1645020972.68783092 -0.0454160459339618683 0.997248232364654541 0.0320912264287471771 -0.0490260981023311615
-113.230323791503906 266.31292724609375 10.5881214141845703 63 1645020973.38812494 -0.246777936816215515 0.968148708343505859 0.023099161684513092 -0.0354280248284339905
-115.594207763671875 264.011138916015625 10.9103326797485352 64 1645020973.98738122 -0.451452732086181641 0.89054560661315918 -0.0230968520045280457 -0.0508475303649902344
-116.652870178222656 260.6322021484375 11.1876935958862305 65 1645020974.68843722 -0.602965414524078369 0.795213937759399414 0.0023708075750619173 -0.0637333989143371582
-118.42193603515625 251.593551635742188 11.8386116027832031 66 1645020976.78728795 -0.642511069774627686 0.764833509922027588 0.00253529986366629601 -0.046933978796005249
-118.660789489746094 243.821762084960938 12.2686023712158203 67 1645020978.788342 -0.731540560722351074 0.680015504360198975 0.00932217482477426529 -0.0483778007328510284
-117.085906982421875 236.614913940429688 12.5255165100097656 68 1645020980.78983593 -0.801676750183105469 0.597146987915039062 0.00403237435966730118 -0.0267125070095062256
-114.124130249023438 229.633773803710938 12.6414012908935547 69 1645020982.79207373 -0.842851579189300537 0.537193119525909424 0.00649078516289591789 -0.0313467532396316528
-111.181671142578125 221.766311645507812 12.7590904235839844 70 1645020984.89283919 -0.805188596248626709 0.592108249664306641 0.0129950987175107002 -0.0301703661680221558
-108.527511596679688 214.554885864257812 12.6189727783203125 71 1645020986.89426517 -0.812653541564941406 0.581419706344604492 0.0374617837369441986 -0.0119132921099662781
-106.562820434570312 207.180435180664062 12.5472793579101562 72 1645020988.99447012 -0.784376859664916992 0.620026290416717529 0.0175146665424108505 -0.00367830181494355202
-104.234817504882812 197.400115966796875 12.1612672805786133 73 1645020991.09278107 -0.790155172348022461 0.61256861686706543 0.0178818609565496445 0.00973327923566102982
-101.840835571289062 187.526153564453125 11.750859260559082 74 1645020992.89342642 -0.772298991680145264 0.634935200214385986 0.020120624452829361 0.00259655294939875603
-100.841636657714844 177.52099609375 11.3404140472412109 75 1645020994.49083352 -0.727818846702575684 0.685518562793731689 0.0168215986341238022 0.00781420059502124786
-100.864944458007812 167.4688720703125 11.0058279037475586 76 1645020995.99308729 -0.691277265548706055 0.722272753715515137 0.021373482421040535 0.000981059507466852665
-102.729652404785156 157.345779418945312 10.7500572204589844 77 1645020997.48913527 -0.59880906343460083 0.800339758396148682 0.0271696373820304871 -0.0120771517977118492
-106.888420104980469 147.87713623046875 10.6883106231689453 78 1645020998.98756599 -0.522252380847930908 0.852659761905670166 0.0138273043558001518 -0.00571038573980331421
-112.0029296875 138.813140869140625 10.6961431503295898 79 1645021000.49306297 -0.491462677717208862 0.870722413063049316 0.0152025455608963966 -0.00870750565081834793
-117.727340698242188 130.14410400390625 10.7406120300292969 80 1645021002.09057593 -0.438067048788070679 0.898568034172058105 0.0179768353700637817 -0.0186971668154001236
-123.179458618164062 121.557228088378906 10.8866720199584961 81 1645021003.79477906 -0.561882853507995605 0.827132642269134521 0.010801912285387516 -0.00474931811913847923
-122.387046813964844 111.258552551269531 10.6515569686889648 82 1645021005.59681439 -0.808155238628387451 0.588207542896270752 0.0253785867244005203 -0.0159025043249130249
-118.695304870605469 101.826416015625 10.2584981918334961 83 1645021007.18912339 -0.823559165000915527 0.565374016761779785 0.0407856404781341553 -0.0209534205496311188
-115.574600219726562 92.2372207641601562 9.91306114196777344 84 1645021008.69068909 -0.797710835933685303 0.602322876453399658 0.0274016242474317551 -0.0106642330065369606
-113.130287170410156 82.1763916015625 9.60507297515869141 85 1645021010.1929512 -0.767272412776947021 0.640520215034484863 0.0258176196366548538 -0.0189834311604499817
-111.47021484375 72.1103439331054688 9.5236053466796875 86 1645021011.69106436 -0.757100582122802734 0.651197433471679688 0.0331150181591510773 -0.0405469201505184174
-110.308517456054688 61.89892578125 9.35942840576171875 87 1645021013.19100165 -0.727638602256774902 0.68394923210144043 0.0479828864336013794 -0.02128632552921772
-109.867034912109375 51.7870826721191406 9.36452007293701172 88 1645021014.69087672 -0.733003735542297363 0.679465115070343018 0.0124428393319249153 -0.0296284090727567673
-109.084861755371094 41.7179489135742188 9.47503471374511719 89 1645021016.19126296 -0.728944957256317139 0.682708144187927246 0.0277239587157964706 -0.042192511260509491
-108.364936828613281 31.1744575500488281 9.74580955505371094 90 1645021017.79198742 -0.737200617790222168 0.674820542335510254 0.0175679102540016174 -0.0290486551821231842
-107.352714538574219 20.8281459808349609 9.96095752716064453 91 1645021019.39190555 -0.740130603313446045 0.671240091323852539 0.0213965680450201035 -0.0344322063028812408
-106.791778564453125 10.5287313461303711 10.2674198150634766 92 1645021020.99181318 -0.7184562087059021 0.69479668140411377 0.00849154498428106308 -0.031720288097858429
-106.184806823730469 0.0388661585748195648 10.1688566207885742 93 1645021022.59322691 -0.736156702041625977 0.676026582717895508 0.0304419249296188354 -0.0116043100133538246
-104.784339904785156 -10.1001272201538086 9.99905681610107422 94 1645021024.09656096 -0.737102031707763672 0.673061728477478027 0.0438344217836856842 -0.0417985506355762482
-103.893783569335938 -20.7195873260498047 9.50440311431884766 95 1645021025.5955658 -0.728385567665100098 0.681085646152496338 0.0724253654479980469 -0.0182045269757509232
-103.306838989257812 -30.8071880340576172 9.28434371948242188 96 1645021026.99310303 -0.727677345275878906 0.684902489185333252 0.0292347632348537445 -0.0232285354286432266
-102.606178283691406 -41.4103813171386719 9.28286647796630859 97 1645021028.49410534 -0.729135096073150635 0.682196497917175293 0.0501287057995796204 -0.0213786549866199493
-101.872314453125 -51.4840278625488281 9.21062660217285156 98 1645021029.9953475 -0.726146042346954346 0.68671572208404541 0.0283329673111438751 -0.0181841403245925903
-101.375289916992188 -61.7447891235351562 9.23647022247314453 99 1645021031.49579 -0.718357682228088379 0.694864451885223389 0.0137955863028764725 -0.0305840782821178436
-101.336677551269531 -71.9924392700195312 9.43509578704833984 100 1645021032.99874043 -0.699801266193389893 0.713997364044189453 0.00126648775767534971 -0.0220086164772510529
-101.468551635742188 -82.1911392211914062 9.56976509094238281 101 1645021034.49688148 -0.700608432292938232 0.713362753391265869 0.00512765487655997276 -0.0153335602954030037
-100.932998657226562 -92.4422683715820312 9.71966934204101562 102 1645021035.99776936 -0.730049788951873779 0.68323671817779541 0.00208128569647669792 -0.0145108504220843315
-100.245948791503906 -102.650367736816406 9.79481983184814453 103 1645021037.49963784 -0.717493295669555664 0.696278035640716553 0.00152812118176370859 -0.0199479870498180389
-100.784988403320312 -113.066452026367188 9.88486003875732422 104 1645021039.09967375 -0.637086391448974609 0.770525932312011719 0.0136256422847509384 -0.0150026110932230949
-102.700462341308594 -117.049430847167969 9.99886703491210938 105 1645021039.89578223 -0.468092024326324463 0.882957696914672852 0.0342060327529907227 -0.0102720493450760841
-105.07794189453125 -118.948196411132812 10.064885139465332 106 1645021040.49527454 -0.296686679124832153 0.954361677169799805 0.032965540885925293 -0.00916622951626777649
-107.828880310058594 -119.712379455566406 10.1479053497314453 107 1645021041.09549522 -0.116273574531078339 0.992898821830749512 0.0239746198058128357 -0.00759292254224419594
-110.490638732910156 -119.428428649902344 10.1885757446289062 108 1645021041.69562507 0.0734624043107032776 0.997111797332763672 0.0171430818736553192 0.00879887118935585022
-112.897697448730469 -118.059585571289062 10.2970371246337891 109 1645021042.39713669 0.276521474123001099 0.960489332675933838 0.0137915704399347305 -0.0283895302563905716
-114.810371398925781 -115.720291137695312 10.3232288360595703 110 1645021043.09529614 0.440103799104690552 0.897837281227111816 -0.0123166507109999657 -0.00671777920797467232
-116.261749267578125 -111.623123168945312 10.2931728363037109 111 1645021043.99444008 0.597677767276763916 0.801354825496673584 -0.0204008165746927261 -0.0139839230105280876
-116.835517883300781 -101.611869812011719 10.1852273941040039 112 1645021045.79308248 0.711407184600830078 0.702218890190124512 -0.0178010035306215286 -0.0217159073799848557
-116.577552795410156 -91.548980712890625 10.0313577651977539 113 1645021047.39376593 0.703425765037536621 0.70988774299621582 -0.0307162981480360031 -0.0175527613610029221
-117.061737060546875 -81.4761276245117188 9.92601776123046875 114 1645021048.89338088 0.679306566715240479 0.733038067817687988 -0.0287154633551836014 -0.0193187519907951355
-117.923347473144531 -71.2215423583984375 9.88452339172363281 115 1645021050.394804 0.686829626560211182 0.72603142261505127 -0.0249125119298696518 -0.022864392027258873
-117.139602661132812 -61.0948562622070312 9.8685150146484375 116 1645021051.99518871 0.808371663093566895 0.588625073432922363 -0.00612219562754034996 0.00428487686440348625
-115.272018432617188 -58.4595527648925781 9.82492828369140625 117 1645021052.59521151 0.907774209976196289 0.418512135744094849 -0.0159478504210710526 0.0232215598225593567
-112.7333984375 -56.9953536987304688 9.71787548065185547 118 1645021053.19505429 0.971921026706695557 0.232796862721443176 -0.0267257429659366608 0.0214671138674020767
-110.105506896972656 -56.63739013671875 9.61989784240722656 119 1645021053.79488707 0.997956633567810059 0.0510986708104610443 -0.0233155731111764908 0.0304612237960100174
-107.661582946777344 -57.2857170104980469 9.53782367706298828 120 1645021054.39580703 0.990342497825622559 -0.134002894163131714 -0.0244075227528810501 0.0258693117648363113
-105.500404357910156 -58.9154930114746094 9.44284248352050781 121 1645021054.99569416 0.939285635948181152 -0.340069979429244995 -0.036156732589006424 0.0280647631734609604
-104.360069274902344 -60.9670448303222656 9.38770294189453125 122 1645021055.49668527 0.85796588659286499 -0.511567413806915283 -0.0394520089030265808 0.0252354145050048828
-104.321273803710938 -71.0800247192382812 9.51728630065917969 123 1645021057.49678946 0.699659228324890137 -0.714372575283050537 0.0116925770416855812 0.00347639224492013454
-101.531478881835938 -76.9640350341796875 9.51483058929443359 124 1645021059.49949551 0.965040445327758789 -0.260464936494827271 -0.018568018451333046 -0.0225859954953193665
-100.749107360839844 -76.6766738891601562 9.49373435974121094 125 1645021060.09645343 0.995681285858154297 -0.0899156779050827026 -0.022839495912194252 -0.00350904488004744053
-100.010345458984375 -76.23126220703125 9.45490932464599609 126 1645021060.5972321 0.994219541549682617 0.0993090420961380005 -0.0326938554644584656 -0.0244189612567424774
-99.448883056640625 -75.3961105346679688 9.40716648101806641 127 1645021060.99619627 0.949860453605651855 0.308171480894088745 -0.0429525002837181091 -0.03083067387342453
-99.2709121704101562 -74.5349960327148438 9.39489364624023438 128 1645021061.29601502 0.88203054666519165 0.469161242246627808 -0.0372025147080421448 -0.0229308512061834335
-93.6908645629882812 -71.8608169555664062 9.15430355072021484 129 1645021063.2996273 0.999904751777648926 0.00650025112554430962 -0.00157058145850896835 -0.0120745180174708366
-83.7821426391601562 -71.489593505859375 8.79616928100585938 130 1645021065.39760685 0.999167084693908691 0.0386323407292366028 -0.0110884709283709526 -0.00705553032457828522
-74.2757186889648438 -67.6179962158203125 8.43637561798095703 131 1645021067.19866896 0.94824749231338501 0.31688159704208374 -0.0202973093837499619 0.000877296726685017347
-65.73919677734375 -61.6917800903320312 7.92345237731933594 132 1645021068.80011296 0.973629474639892578 0.225610837340354919 -0.0337120965123176575 0.00298406509682536125
-55.5700035095214844 -60.1342887878417969 7.36200761795043945 133 1645021070.29893136 0.99823528528213501 0.0509620457887649536 -0.0290895011276006699 -0.00911037251353263855
-45.5926780700683594 -59.5052108764648438 6.79787588119506836 134 1645021071.70163941 0.999242484569549561 0.0236400216817855835 -0.0303135775029659271 -0.0060541653074324131
-35.6093864440917969 -58.8378524780273438 6.43169212341308594 135 1645021073.10169435 0.997960329055786133 0.0634159967303276062 -0.00726018985733389854 -0.000942677725106477737
-25.139862060546875 -57.614166259765625 6.19881486892700195 136 1645021074.60275507 0.999051213264465332 0.0408207662403583527 -0.0100571466609835625 0.0113662127405405045
-14.729304313659668 -57.0717506408691406 5.96641016006469727 137 1645021076.10101962 0.999817728996276855 0.0159702226519584656 -0.0100556807592511177 -0.00289231119677424431
-4.41483259201049805 -56.7329597473144531 5.79611587524414062 138 1645021077.60174274 0.999799370765686035 0.016290789470076561 -0.00967019889503717422 -0.00650353590026497841
5.83874082565307617 -56.9760551452636719 5.70391321182250977 139 1645021079.10287333 0.998412191867828369 -0.0561484545469284058 -0.00167877820786088705 0.00419195555150508881
15.9055624008178711 -60.0267524719238281 6.1266021728515625 140 1645021080.69844508 0.98132634162902832 -0.189436137676239014 0.0333159863948822021 -0.00159634475130587816
24.0466327667236328 -66.2799835205078125 6.92489004135131836 141 1645021082.39826107 0.920420706272125244 -0.388985723257064819 0.0385249629616737366 0.00562293548136949539
30.1422767639160156 -74.4120025634765625 7.52309751510620117 142 1645021084.19875312 0.880734443664550781 -0.472620844841003418 0.0271582026034593582 0.0141014177352190018
38.1602096557617188 -80.5413131713867188 7.67703819274902344 143 1645021085.99837184 0.988383710384368896 -0.151653721928596497 0.00218574376776814461 -0.00969427265226840973
47.6143341064453125 -82.3970794677734375 7.61472129821777344 144 1645021087.99975729 0.963843405246734619 -0.264363348484039307 -0.0131385261192917824 0.0307454187422990799
49.7121353149414062 -86.5212249755859375 7.66941022872924805 145 1645021089.09639382 0.784464836120605469 -0.618348598480224609 -0.0269434135407209396 0.0391659438610076904
49.3504600524902344 -89.1316299438476562 7.76323938369750977 146 1645021089.69909716 0.647521257400512695 -0.761071324348449707 -0.0193637926131486893 0.0333413407206535339
47.987396240234375 -91.48553466796875 7.89925765991210938 147 1645021090.29833078 0.484012037515640259 -0.874289512634277344 -0.014214586466550827 0.0338847450911998749
45.8732948303222656 -93.1239242553710938 8.00190448760986328 148 1645021090.8993454 0.297743856906890869 -0.954232215881347656 -0.0177988968789577484 0.0217412803322076797
43.1392402648925781 -93.78997802734375 8.05644893646240234 149 1645021091.49795318 0.101017110049724579 -0.994683802127838135 -0.0194564778357744217 0.00459017651155591011
40.7912254333496094 -93.4804000854492188 8.07806587219238281 150 1645021091.99838161 -0.0837865471839904785 -0.996148407459259033 -0.0247814115136861801 -0.00734790228307247162
38.8099899291992188 -92.300994873046875 8.07798576354980469 151 1645021092.49737096 -0.256950139999389648 -0.966385364532470703 -0.00562669942155480385 -0.00665563670918345451
37.2187614440917969 -90.473602294921875 8.00200366973876953 152 1645021092.9971292 -0.420368671417236328 -0.907151162624359131 0.00361943291500210762 -0.0188104435801506042
36.2364959716796875 -88.136260986328125 7.88533782958984375 153 1645021093.49653649 -0.583042025566101074 -0.810736119747161865 -0.0111905792728066444 -0.051416933536529541
36.2589035034179688 -85.643280029296875 7.80805015563964844 154 1645021093.99599433 -0.720752716064453125 -0.691370844841003418 -0.00670444732531905174 -0.0497684292495250702
37.4198455810546875 -82.9784317016601562 7.75494289398193359 155 1645021094.59634185 -0.8502998948097229 -0.524455904960632324 -0.00240420736372470856 -0.0439351275563240051
39.5015487670898438 -81.0586776733398438 7.68293285369873047 156 1645021095.19616222 -0.935826301574707031 -0.35039520263671875 0.00942648854106664658 -0.0369251668453216553
42.6546783447265625 -79.78265380859375 7.58447790145874023 157 1645021095.89573288 -0.983919501304626465 -0.177255719900131226 0.00894494354724884033 -0.0200701039284467697
53.8078269958496094 -75.1607513427734375 7.08501052856445312 158 1645021097.99567795 -0.963172197341918945 -0.265198081731796265 0.0416586920619010925 -0.0152914021164178848
62.2620353698730469 -68.8338165283203125 6.55044031143188477 159 1645021099.69708419 -0.947149813175201416 -0.318613529205322266 0.0164814647287130356 -0.0334811806678771973
69.4194717407226562 -61.8762092590332031 6.06535625457763672 160 1645021101.79625034 -0.909581959247589111 -0.413628339767456055 0.0264912731945514679 -0.0295043662190437317
71.9824676513671875 -57.2706413269042969 5.80472469329833984 161 1645021103.09727955 -0.821578323841094971 -0.569064438343048096 0.028308013454079628 -0.0193241927772760391
72.0434494018554688 -54.1047782897949219 5.53933620452880859 162 1645021103.89685512 -0.701287925243377686 -0.711808204650878906 0.0320113897323608398 -0.0223508682101964951
71.02557373046875 -51.4546890258789062 5.29346036911010742 163 1645021104.49762177 -0.560878634452819824 -0.826489865779876709 0.0337168537080287933 -0.0345373079180717468
67.8384246826171875 -47.6781120300292969 4.89184427261352539 164 1645021105.39770436 -0.408616125583648682 -0.911757111549377441 -0.00069429236464202404 -0.0416095443069934845
57.5562782287597656 -37.8477973937988281 3.81485915184020996 165 1645021107.49677801 -0.366989612579345703 -0.929180502891540527 0.00281590875238180161 -0.0439799614250659943
47.5946540832519531 -26.658782958984375 2.7037045955657959 166 1645021109.49811101 -0.370111584663391113 -0.928467929363250732 0.0106461253017187119 -0.0291779860854148865
34.8006935119628906 -16.4269905090332031 1.49955713748931885 167 1645021111.59982443 -0.298954933881759644 -0.953627943992614746 0.00873354449868202209 -0.0338148809969425201
20.5812854766845703 -9.17435932159423828 0.721245944499969482 168 1645021113.6993053 -0.164869368076324463 -0.985994935035705566 0.00558186043053865433 -0.0245136674493551254
6.9747471809387207 -5.76375770568847656 0.487133979797363281 169 1645021115.79914188 -0.100395053625106812 -0.994884669780731201 -0.00306039978750050068 -0.0107704177498817444
-6.58851718902587891 -4.98873138427734375 0.719106078147888184 170 1645021117.7993679 0.0158287342637777328 -0.999651491641998291 -0.00928734056651592255 0.0189765859395265579
-17.1774158477783203 -5.73720026016235352 1.23536086082458496 171 1645021119.39963365 0.0408238470554351807 -0.998757064342498779 0.00367332389578223228 0.0283601861447095871
-27.2526226043701172 -6.57603025436401367 1.71890628337860107 172 1645021121.09913206 0.0342946797609329224 -0.999018490314483643 0.00780342938378453255 0.0269274003803730011
-31.6361865997314453 -6.72946548461914062 2.02822232246398926 173 1645021123.20114923 0.00615700846537947655 -0.999481916427612305 0.00424835877493023872 0.0313049405813217163
