# .PCD v0.7 - Point Cloud Data file format
VERSION 0.7
FIELDS x y z intensity t qx qy qz qw
SIZE 4 4 4 4 8 4 4 4 4
TYPE F F F F F F F F F
COUNT 1 1 1 1 1 1 1 1 1
WIDTH 244
HEIGHT 1
VIEWPOINT 0 0 0 1 0 0 0
POINTS 244
DATA ascii
6.80464792251586914 2.9043431282043457 0.388108581304550171 0 1645020367.47551894 0.999537289142608643 -0.021037910133600235 0.00250464235432446003 -0.0218257233500480652
6.9435577392578125 2.90053224563598633 0.41445469856262207 1 1645020371.87417054 0.999520599842071533 -0.0134996715933084488 0.0165732204914093018 -0.0223986450582742691
11.4067487716674805 3.58839607238769531 0.50004887580871582 2 1645020373.87601161 0.996838986873626709 0.0760890990495681763 0.0167663935571908951 -0.0155349774286150932
18.4010219573974609 4.97397136688232422 0.692528009414672852 3 1645020375.87822723 0.994788587093353271 0.100716531276702881 0.0104037933051586151 -0.0119854910299181938
28.4338626861572266 6.46963930130004883 1.19457817077636719 4 1645020377.97722888 0.99679487943649292 0.0701230317354202271 0.0263095106929540634 -0.0281175281852483749
38.4285888671875 8.21621036529541016 1.76719212532043457 5 1645020379.87528777 0.99474412202835083 0.0956667736172676086 0.0308043770492076874 -0.0195715036243200302
48.6446189880371094 10.3966188430786133 2.51227807998657227 6 1645020381.77527881 0.994665145874023438 0.0949219986796379089 0.0395395606756210327 -0.0082250228151679039
58.8681640625 12.3594932556152344 3.37584686279296875 7 1645020383.6743865 0.99424821138381958 0.0993816033005714417 0.0394326001405715942 -0.00623149005696177483
68.905517578125 14.4758424758911133 4.31544208526611328 8 1645020385.57457161 0.994485259056091309 0.0906286165118217468 0.0511313341557979584 -0.0130796963348984718
79.0587387084960938 16.3514652252197266 5.37126731872558594 9 1645020387.57516313 0.994347095489501953 0.0919716879725456238 0.0485440045595169067 -0.0214137416332960129
88.76202392578125 17.8880977630615234 6.3566436767578125 10 1645020389.57530999 0.996113240718841553 0.0646538808941841125 0.0510680079460144043 -0.0311498492956161499
99.0045700073242188 18.9917926788330078 7.28693199157714844 11 1645020391.67506909 0.998039007186889648 0.0388807132840156555 0.0410294272005558014 -0.0268893502652645111
109.051872253417969 18.2057876586914062 8.12187862396240234 12 1645020393.67762089 0.99479222297668457 -0.0793815478682518005 0.0501289032399654388 -0.0396745987236499786
118.803329467773438 15.5398530960083008 8.97928333282470703 13 1645020395.67778945 0.986375093460083008 -0.149739772081375122 0.0548325888812541962 -0.0404420197010040283
128.223220825195312 12.1158275604248047 9.7962188720703125 14 1645020397.67908669 0.977764368057250977 -0.203548505902290344 0.0448580421507358551 -0.0230790674686431885
136.991836547851562 6.8760828971862793 10.5266609191894531 15 1645020399.67865634 0.952720522880554199 -0.299632757902145386 0.0468154177069664001 -0.0187640395015478134
145.00323486328125 0.693404138088226318 11.2525930404663086 16 1645020401.67724419 0.939646363258361816 -0.340607821941375732 0.0232225283980369568 -0.0226221401244401932
151.654327392578125 -5.24772739410400391 11.8446598052978516 17 1645020403.77679229 0.935393154621124268 -0.350966781377792358 0.0385651066899299622 -0.0193559546023607254
154.937942504882812 -8.02066802978515625 12.1295185089111328 18 1645020405.7770474 0.939410567283630371 -0.340075582265853882 0.040600161999464035 -0.0144208120182156563
157.6883544921875 -10.3631935119628906 12.4100914001464844 19 1645020407.87687826 0.935774505138397217 -0.349419742822647095 0.0461641103029251099 -0.0100420918315649033
160.567214965820312 -14.1616878509521484 12.7279825210571289 20 1645020409.97587156 0.873770177364349365 -0.483900964260101318 0.0461555197834968567 -0.0153379002586007118
162.6751708984375 -20.8728904724121094 13.0103435516357422 21 1645020411.97566676 0.774093031883239746 -0.630690038204193115 0.0467524081468582153 -0.028709113597869873
162.408248901367188 -28.3833274841308594 13.0706424713134766 22 1645020413.6755867 0.644892573356628418 -0.763082504272460938 0.0328280404210090637 -0.0272203497588634491
159.651901245117188 -34.8661079406738281 12.715907096862793 23 1645020415.17640471 0.495625346899032593 -0.86738663911819458 -0.00648129452019929886 -0.0442026630043983459
153.94964599609375 -41.7921943664550781 12.0981969833374023 24 1645020417.17751694 0.44509577751159668 -0.894436001777648926 0.000127235267427749932 -0.0432899147272109985
154.492416381835938 -49.8832969665527344 11.8093338012695312 25 1645020419.17770338 0.815962910652160645 -0.574315845966339111 0.0367650464177131653 -0.0549013428390026093
161.291397094726562 -57.1882133483886719 12.2219047546386719 26 1645020421.17872381 0.924840390682220459 -0.378065049648284912 0.035240568220615387 -0.0222523380070924759
160.8687744140625 -64.9603195190429688 11.8232212066650391 27 1645020423.27805305 0.455165743827819824 -0.88754957914352417 0.00852346699684858322 -0.0707616806030273438
158.973007202148438 -71.3429336547851562 11.5200815200805664 28 1645020425.28019953 0.735172092914581299 -0.674480319023132324 0.0373280905187129974 -0.0566116832196712494
161.326828002929688 -81.3370437622070312 11.1111660003662109 29 1645020427.37988615 0.73788750171661377 -0.674110770225524902 -0.0261769741773605347 -0.0202859137207269669
158.412841796875 -91.4636459350585938 10.133209228515625 30 1645020428.97878456 0.513190865516662598 -0.857008278369903564 -0.0230148453265428543 -0.0405251756310462952
152.154296875 -100.004608154296875 9.30806541442871094 31 1645020430.47688723 0.422139197587966919 -0.90528184175491333 -0.0247995909303426743 -0.0405983701348304749
146.027755737304688 -108.29644775390625 8.61054706573486328 32 1645020432.07931542 0.479350447654724121 -0.87685859203338623 -0.0229168161749839783 -0.0285831782966852188
141.028350830078125 -117.320465087890625 7.97098827362060547 33 1645020433.78232217 0.47591063380241394 -0.87822425365447998 -0.0364143364131450653 -0.030086960643529892
136.7066650390625 -120.920539855957031 7.57301759719848633 34 1645020434.78279066 0.257055759429931641 -0.96466672420501709 -0.0456870719790458679 -0.0353990271687507629
132.539108276367188 -121.963607788085938 7.3556976318359375 35 1645020435.58326364 0.0788959711790084839 -0.995748162269592285 -0.0374703407287597656 -0.029274672269821167
126.585472106933594 -121.354545593261719 7.15782356262207031 36 1645020436.78203297 -0.114195294678211212 -0.992518782615661621 -0.0359151437878608704 -0.0240008607506752014
124.158096313476562 -119.89434814453125 7.1054844856262207 37 1645020437.38216519 -0.310361534357070923 -0.948844671249389648 -0.0473088473081588745 -0.0336361490190029144
122.972999572753906 -117.979164123535156 7.08933210372924805 38 1645020437.8818562 -0.499432832002639771 -0.86386418342590332 -0.0455128401517868042 -0.0472662970423698425
122.797416687011719 -115.874183654785156 7.13317155838012695 39 1645020438.38328695 -0.654018580913543701 -0.755969762802124023 -0.021493665874004364 -0.0175346378237009048
123.527923583984375 -111.570060729980469 7.29101800918579102 40 1645020439.37907434 -0.782362759113311768 -0.622071444988250732 -0.030222620815038681 -0.00471161538735032082
127.765357971191406 -102.261985778808594 7.82247304916381836 41 1645020441.38321972 -0.85838550329208374 -0.511665225028991699 -0.0361216850578784943 0.00825983192771673203
133.07733154296875 -93.7967300415039062 8.51568889617919922 42 1645020443.18394184 -0.888834357261657715 -0.456525027751922607 -0.0380291901528835297 0.0105926720425486565
139.651748657226562 -85.89263916015625 9.25956821441650391 43 1645020444.98272347 -0.91598200798034668 -0.399410456418991089 -0.035552147775888443 0.0135732460767030716
147.0382080078125 -78.536865234375 10.0551061630249023 44 1645020446.78063846 -0.920785963535308838 -0.387693643569946289 -0.04002370685338974 0.0156496912240982056
155.427139282226562 -70.0472640991210938 11.2370491027832031 45 1645020448.88113785 -0.936483621597290039 -0.346158713102340698 -0.0544978491961956024 -0.0142308492213487625
164.958892822265625 -64.1960220336914062 12.2708339691162109 46 1645020450.98032069 -0.982090950012207031 -0.182793885469436646 -0.0441106520593166351 0.0117466244846582413
169.252166748046875 -63.7811737060546875 12.7013750076293945 47 1645020451.98221421 -0.999270796775817871 0.00576426927000284195 -0.0377447158098220825 0.000172659420059062541
174.474502563476562 -65.2486495971679688 13.0676288604736328 48 1645020453.1793611 -0.983298063278198242 0.179543226957321167 -0.0297552887350320816 0.00193994049914181232
183.94305419921875 -69.0529022216796875 13.4131078720092773 49 1645020455.1778152 -0.982285022735595703 0.186097279191017151 -0.0217037778347730637 0.00359691237099468708
192.069900512695312 -74.4766921997070312 13.5641994476318359 50 1645020457.17791414 -0.872387468814849854 0.488367050886154175 0.0194540191441774368 -0.00769922882318496704
189.251617431640625 -81.2704010009765625 13.3383779525756836 51 1645020459.07765603 -0.307619810104370117 0.950368046760559082 0.0411400869488716125 0.0218649674206972122
186.681488037109375 -81.814910888671875 13.2423591613769531 52 1645020459.67935205 -0.125598058104515076 0.991972923278808594 0.010322248563170433 0.0104074245318770409
177.41925048828125 -86.0137786865234375 12.8770647048950195 53 1645020461.57776785 -0.293852001428604126 0.955728471279144287 -0.00316240382380783558 0.01496847253292799
169.699234008789062 -93.0825576782226562 12.3851413726806641 54 1645020463.17769837 -0.385421156883239746 0.921904444694519043 0.0236177835613489151 0.0313839279115200043
163.979446411132812 -101.438812255859375 11.4078474044799805 55 1645020464.77945876 -0.506078720092773438 0.860661566257476807 0.0305103547871112823 0.047064460813999176
159.563262939453125 -110.900993347167969 10.5230293273925781 56 1645020466.27891493 -0.57732778787612915 0.815783202648162842 0.019129335880279541 0.0287132356315851212
158.59735107421875 -118.747215270996094 10.2203302383422852 57 1645020467.47988677 -0.713096380233764648 0.700827419757843018 -0.0048920842818915844 0.0176228415220975876
159.64654541015625 -128.785537719726562 10.1788549423217773 58 1645020468.97962999 -0.745701789855957031 0.66621166467666626 -0.00848698150366544724 0.00433723209425806999
161.005508422851562 -139.253875732421875 10.2003774642944336 59 1645020470.480407 -0.752725005149841309 0.657980918884277344 -0.0189449302852153778 0.0103566162288188934
162.507278442382812 -149.72772216796875 10.2931814193725586 60 1645020471.98157501 -0.757341325283050537 0.652335286140441895 -0.0281831901520490646 0.00992470141500234604
164.104721069335938 -160.290023803710938 10.3379459381103516 61 1645020473.47873926 -0.754549980163574219 0.656055271625518799 -0.010052654892206192 0.0120318140834569931
165.690994262695312 -170.626312255859375 10.6990928649902344 62 1645020474.97933459 -0.757008373737335205 0.652972698211669922 -0.0235038530081510544 -0.00353949703276157379
167.42669677734375 -180.682159423828125 11.1293468475341797 63 1645020476.4811852 -0.787560880184173584 0.615964710712432861 -0.0176425985991954803 -0.00490897614508867264
170.707107543945312 -187.342620849609375 11.4918603897094727 64 1645020477.78047752 -0.886768221855163574 0.460851848125457764 -0.035328347235918045 -0.00310271838679909706
177.936904907226562 -194.788925170898438 11.9590702056884766 65 1645020479.58039665 -0.90981590747833252 0.414364367723464966 -0.0200406108051538467 -0.0116439759731292725
180.85198974609375 -204.303298950195312 12.1445865631103516 66 1645020481.58142114 -0.757595241069793701 0.652486801147460938 -0.0131292222067713737 0.0117479022592306137
182.359725952148438 -214.0673828125 12.3225107192993164 67 1645020483.58418894 -0.769681155681610107 0.638250052928924561 -0.0142989037558436394 0.00483503891155123711
185.90435791015625 -220.846267700195312 12.5491924285888672 68 1645020485.58525777 -0.951244890689849854 0.306579828262329102 -0.0251835491508245468 0.0225338302552700043
188.032638549804688 -221.435989379882812 12.6349372863769531 69 1645020486.0849402 -0.991148054599761963 0.129796892404556274 -0.0186830684542655945 0.020717451348900795
198.264251708984375 -221.428237915039062 12.9425830841064453 70 1645020488.08619404 -0.998918831348419189 -0.0390241667628288269 -0.0189987532794475555 0.0166537351906299591
208.07586669921875 -218.614334106445312 13.2554645538330078 71 1645020489.78816009 -0.977755188941955566 -0.208161875605583191 -0.0232255011796951294 0.0111366240307688713
216.691375732421875 -212.70355224609375 13.3773345947265625 72 1645020491.49063802 -0.939221978187561035 -0.34321710467338562 0.00648367032408714294 -0.00469739409163594246
223.680694580078125 -207.500137329101562 13.4914646148681641 73 1645020493.58805037 -0.989195466041564941 -0.14569401741027832 -0.0138645842671394348 -0.00856662262231111526
229.746536254882812 -212.338897705078125 13.683720588684082 74 1645020495.68481827 -0.851976394653320312 0.523401558399200439 -0.011343780905008316 -0.00763924280181527138
232.156723022460938 -222.344833374023438 13.8478422164916992 75 1645020497.68751287 -0.747382760047912598 0.664366960525512695 -0.00596091058105230331 -0.000245130795519798994
231.664794921875 -228.221603393554688 13.8365631103515625 76 1645020498.88737655 -0.601757586002349854 0.798621058464050293 0.00259491498582065105 0.0092436792328953743
230.158004760742188 -230.255096435546875 13.8312559127807617 77 1645020499.4861877 -0.441090255975723267 0.897325098514556885 -0.00767641421407461166 0.0137169398367404938
227.897171020507812 -231.652862548828125 13.7761955261230469 78 1645020500.08678198 -0.250126272439956665 0.968029260635375977 0.0107527216896414757 0.0155091490596532822
225.563323974609375 -231.9398193359375 13.6683454513549805 79 1645020500.58602595 -0.054389413446187973 0.997980058193206787 0.0150929698720574379 0.0291503798216581345
215.267868041992188 -231.856231689453125 13.3154611587524414 80 1645020502.58389282 -0.119273275136947632 0.992100954055786133 -0.0333740897476673126 0.0198937933892011642
206.22796630859375 -237.12591552734375 13.1400632858276367 81 1645020504.38684654 -0.2207440584897995 0.975201606750488281 0.00148852576967328787 0.0158647168427705765
200.079864501953125 -236.805511474609375 12.9436254501342773 82 1645020505.5854342 0.122128777205944061 0.992191791534423828 -0.0164269618690013885 0.019240010529756546
189.565597534179688 -235.740951538085938 12.6008710861206055 83 1645020507.48970127 -0.0528733842074871063 0.997915446758270264 -0.0344907902181148529 0.013399229384958744
179.631668090820312 -239.037841796875 12.4353113174438477 84 1645020509.18855596 -0.137882426381111145 0.990206360816955566 -0.0205147210508584976 0.00767381442710757256
169.996078491210938 -241.93292236328125 12.2826309204101562 85 1645020510.88903785 -0.194309920072555542 0.980476558208465576 -0.0205514337867498398 0.0220690220594406128
167.641494750976562 -244.050704956054688 12.2210597991943359 86 1645020511.58873773 -0.393625557422637939 0.918322741985321045 -0.0282715186476707458 0.0307074692100286484
166.314437866210938 -246.9559326171875 12.2144098281860352 87 1645020512.38655519 -0.548197627067565918 0.835837960243225098 -0.0255841333419084549 0.0141333313658833504
161.53057861328125 -253.559173583984375 12.083104133605957 88 1645020514.48366618 -0.217564523220062256 0.975841522216796875 0.0170489102602005005 0.0104069653898477554
151.274459838867188 -255.322280883789062 11.885223388671875 89 1645020516.48904872 -0.0722454115748405457 0.997307717800140381 -0.00246292399242520332 0.0123247271403670311
145.10565185546875 -255.181488037109375 11.7599267959594727 90 1645020517.68496799 0.116441801190376282 0.992752552032470703 0.0214215349406003952 0.0206096414476633072
143.044143676757812 -253.799636840820312 11.7212839126586914 91 1645020518.28572726 0.315340161323547363 0.948142290115356445 0.0256687365472316742 0.0304610244929790497
142.276779174804688 -252.535934448242188 11.6702432632446289 92 1645020518.68563581 0.484272927045822144 0.872335135936737061 0.0335599258542060852 0.0581796728074550629
142.295654296875 -251.107955932617188 11.6705207824707031 93 1645020519.08483744 0.638999104499816895 0.766974031925201416 0.0247916430234909058 0.0530699864029884338
142.787933349609375 -250.025909423828125 11.70648193359375 94 1645020519.4845314 0.766147494316101074 0.641526520252227783 0.0183884762227535248 0.0335205979645252228
143.74102783203125 -249.066635131835938 11.7445993423461914 95 1645020519.98521566 0.880752682685852051 0.47277262806892395 0.0135239800438284874 0.0240385681390762329
145.024795532226562 -248.420761108398438 11.7893257141113281 96 1645020520.48536849 0.952099978923797607 0.304683536291122437 0.0178369805216789246 0.0188511386513710022
148.528060913085938 -247.563751220703125 11.860936164855957 97 1645020521.48450327 0.991209268569946289 0.131379023194313049 0.0129235675558447838 0.00875664036720991135
158.379043579101562 -245.48345947265625 12.0326747894287109 98 1645020523.58462 0.994788408279418945 0.101252332329750061 0.00798781495541334152 0.0089518791064620018
164.783950805664062 -240.507125854492188 12.0913467407226562 99 1645020525.5861125 0.831676661968231201 0.55525362491607666 -0.000939843070227652788 -0.0025361331645399332
164.882308959960938 -237.093109130859375 12.090641975402832 100 1645020526.38649035 0.708124816417694092 0.706014692783355713 0.0065198712982237339 0.00774987228214740753
163.57281494140625 -232.12652587890625 12.0026922225952148 101 1645020527.487324 0.555833339691162109 0.831192612648010254 -0.00596652412787079811 0.0115119395777583122
161.16387939453125 -229.112030029296875 11.9130744934082031 102 1645020528.38546681 0.398133665323257446 0.917161345481872559 -0.0150495870038866997 0.0088434852659702301
158.922134399414062 -228.017715454101562 11.8929100036621094 103 1645020528.98554468 0.221216604113578796 0.975168764591217041 -0.0102662723511457443 -0.00191862194333225489
155.667770385742188 -227.742645263671875 11.8401975631713867 104 1645020529.68629599 0.0224175732582807541 0.999688565731048584 -0.00824913010001182556 0.00722673581913113594
147.17694091796875 -228.523208618164062 11.7043361663818359 105 1645020531.68815827 -0.0317673459649085999 0.999450325965881348 0.00926625542342662811 0.00201717903837561607
139.792861938476562 -225.413604736328125 11.4337577819824219 106 1645020533.69001698 0.445180654525756836 0.894535362720489502 0.00421048467978835106 0.0400363840162754059
143.208633422851562 -221.106460571289062 11.4431066513061523 107 1645020535.79017282 0.98653334379196167 0.162148624658584595 0.00744008878245949745 0.0201103109866380692
151.74554443359375 -220.029220581054688 11.6127414703369141 108 1645020537.7921443 0.998961150646209717 0.0430088900029659271 0.0103521812707185745 0.010939435102045536
160.03436279296875 -220.656341552734375 11.8089179992675781 109 1645020539.48658991 0.988794326782226562 -0.14823383092880249 0.00150842475704848766 0.0176130086183547974
167.382247924804688 -223.67529296875 12.0104303359985352 110 1645020541.58667254 0.999088823795318604 -0.0420103892683982849 0.00692664878442883492 0.00295020663179457188
177.811080932617188 -222.163406372070312 12.3447999954223633 111 1645020543.68532491 0.998095273971557617 0.0572891682386398315 0.0213030576705932617 0.00836184993386268616
189.598434448242188 -220.834213256835938 12.7060909271240234 112 1645020545.68926859 0.998009026050567627 0.0604848451912403107 0.0175990760326385498 0.00313680293038487434
202.873580932617188 -219.036285400390625 13.1340398788452148 113 1645020547.78542829 0.99749600887298584 0.0671034231781959534 0.022335488349199295 5.62530403840355575e-05
215.429031372070312 -217.409637451171875 13.4632368087768555 114 1645020549.78608918 0.998746275901794434 0.0488214753568172455 0.0110398279502987862 -0.000676099443808197975
225.76171875 -217.932708740234375 13.7466611862182617 115 1645020551.68753862 0.99164736270904541 -0.128144681453704834 0.00671110255643725395 0.0130160124972462654
228.127517700195312 -219.372573852539062 13.7821321487426758 116 1645020552.28795362 0.94429856538772583 -0.327904611825942993 -0.006692470982670784 0.0270932577550411224
228.819671630859375 -227.98309326171875 13.7713823318481445 117 1645020554.38625813 0.609258174896240234 -0.792587935924530029 -0.0226478222757577896 0.00979676190763711929
220.609466552734375 -232.337127685546875 13.5026569366455078 118 1645020556.38655996 0.091246478259563446 -0.995464801788330078 0.0219869725406169891 -0.0155068105086684227
208.81903076171875 -233.179306030273438 13.1357889175415039 119 1645020558.38889647 0.0245546288788318634 -0.999414265155792236 0.0208862219005823135 -0.0114884199574589729
194.862548828125 -235.427337646484375 12.749934196472168 120 1645020560.48982525 0.0576721802353858948 -0.998187363147735596 0.010346362367272377 -0.013742431066930294
180.266677856445312 -237.540237426757812 12.4042959213256836 121 1645020562.58876252 0.0703859105706214905 -0.997382223606109619 0.0165512580424547195 -0.000786079093813896179
172.443954467773438 -237.387481689453125 12.3122997283935547 122 1645020563.88916421 -0.124804429709911346 -0.991840720176696777 -0.0222298577427864075 -0.0134786814451217651
164.610198974609375 -229.800323486328125 12.0373134613037109 123 1645020565.98920345 -0.359645992517471313 -0.932848453521728516 0.0196450222283601761 -0.00791258830577135086
152.910659790039062 -228.429168701171875 11.7753810882568359 124 1645020567.99028921 0.0843629688024520874 -0.996321737766265869 0.00130483286920934916 -0.014971061609685421
143.660369873046875 -230.374649047851562 11.6043663024902344 125 1645020569.99082398 0.0827407166361808777 -0.996528863906860352 -0.0069966544397175312 -0.00593821331858634949
133.546157836914062 -231.789932250976562 11.6113052368164062 126 1645020571.99142528 0.0601883046329021454 -0.997896909713745117 -0.00445843301713466644 0.0236473716795444489
124.945877075195312 -233.022689819335938 12.1869440078735352 127 1645020573.9926424 0.0847868248820304871 -0.995418131351470947 0.0426482446491718292 0.0116210514679551125
114.741127014160156 -234.613784790039062 12.0773859024047852 128 1645020575.99494791 0.102642342448234558 -0.99363100528717041 0.0459548160433769226 -0.00707635143771767616
104.771446228027344 -237.179977416992188 12.1602582931518555 129 1645020577.69482088 0.103845842182636261 -0.994398891925811768 0.0194822177290916443 -0.00271586352027952671
94.6484527587890625 -238.982666015625 11.7851095199584961 130 1645020579.19616604 0.086640678346157074 -0.995652258396148682 0.0210538581013679504 -0.0269580092281103134
84.5839004516601562 -240.757125854492188 11.4180326461791992 131 1645020580.59668684 0.0908358842134475708 -0.995328664779663086 0.0269858371466398239 -0.0184772349894046783
74.3794631958007812 -242.294815063476562 11.0964231491088867 132 1645020581.99472237 0.0534728802740573883 -0.997969210147857666 0.0276021063327789307 -0.0208853594958782196
64.0806732177734375 -243.6468505859375 10.7981863021850586 133 1645020583.39563203 0.05612921342253685 -0.997860312461853027 0.0317125916481018066 -0.0108917662873864174
53.8448677062988281 -244.900253295898438 10.5915098190307617 134 1645020584.79997587 0.0701275244355201721 -0.996911942958831787 0.0351272560656070709 -0.00384058523923158646
43.9470977783203125 -246.946807861328125 10.6431980133056641 135 1645020586.19819689 0.127897888422012329 -0.991345763206481934 0.0295250508934259415 -0.00200271513313055038
34.1659507751464844 -249.2952880859375 10.5459394454956055 136 1645020587.59804153 0.12485087662935257 -0.991571307182312012 0.0341747775673866272 -0.00553802074864506721
24.4766426086425781 -252.026412963867188 10.5831422805786133 137 1645020588.99261522 0.152738362550735474 -0.987777054309844971 0.0311017241328954697 0.000411922374041751027
14.5114574432373047 -255.851455688476562 10.7418107986450195 138 1645020590.49341393 0.226437374949455261 -0.973206996917724609 0.0396086350083351135 -0.00503997597843408585
5.4034276008605957 -260.914825439453125 10.956233024597168 139 1645020591.98948121 0.236768037080764771 -0.97117924690246582 0.0274132788181304932 0.000497071072459220886
-4.31183099746704102 -263.9073486328125 11.1010732650756836 140 1645020593.78942633 0.0117326583713293076 -0.999794304370880127 0.0165251363068819046 -0.000810510653536766768
-12.9200334548950195 -261.86138916015625 10.9596757888793945 141 1645020595.28993869 -0.183230400085449219 -0.982975900173187256 0.0135516943410038948 -0.00113839469850063324
-21.5683193206787109 -256.651031494140625 10.7369203567504883 142 1645020596.78980279 -0.297627896070480347 -0.954678118228912354 0.00264319824054837227 0.000578852719627320766
-30.4013710021972656 -250.95159912109375 10.6399335861206055 143 1645020598.28811669 -0.230062320828437805 -0.972969710826873779 0.0198126845061779022 0.00295687117613852024
-40.56280517578125 -247.936996459960938 10.6379051208496094 144 1645020599.78911805 -0.141269460320472717 -0.989963650703430176 0.00382748874835669994 -0.000563162670005112886
-50.9394302368164062 -245.441787719726562 10.7071495056152344 145 1645020601.28863811 -0.0936307236552238464 -0.995588362216949463 0.00455803563818335533 0.00403654295951128006
-61.4284019470214844 -245.883346557617188 10.8576602935791016 146 1645020602.78989029 0.122244931757450104 -0.992450237274169922 -0.00469439150765538216 0.00875539705157279968
-71.7191238403320312 -248.465866088867188 11.1025962829589844 147 1645020604.29273295 0.102642297744750977 -0.994551122188568115 -0.0111727165058255196 0.0144150704145431519
-81.4273452758789062 -250.966796875 11.3399991989135742 148 1645020605.7902534 0.143532648682594299 -0.989549100399017334 -0.005719723179936409 0.0125790052115917206
-90.2925796508789062 -254.9761962890625 11.7177867889404297 149 1645020607.8905797 0.209618464112281799 -0.976851463317871094 0.00376382097601890564 0.0425109937787055969
-95.1846847534179688 -257.10198974609375 11.7832088470458984 150 1645020609.89161897 0.200822815299034119 -0.979448556900024414 -0.0177084412425756454 -0.00609771069139242172
-103.661483764648438 -260.09234619140625 11.9856805801391602 151 1645020611.99166179 0.156662836670875549 -0.987233459949493408 0.0281965546309947968 -0.00564409466460347176
-113.794952392578125 -263.18212890625 11.5787076950073242 152 1645020613.79125237 0.132799014449119568 -0.990139186382293701 0.0297241006046533585 -0.0332460179924964905
-123.373733520507812 -266.902496337890625 11.1321601867675781 153 1645020615.49222231 0.195673614740371704 -0.9801064133644104 0.0211923643946647644 -0.0255754515528678894
-133.126434326171875 -269.9208984375 10.6427516937255859 154 1645020617.09203267 0.0995199084281921387 -0.99373626708984375 0.0324173867702484131 -0.0391547828912734985
-143.3135986328125 -270.59124755859375 10.0088634490966797 155 1645020618.69294906 0.000993790104985237122 -0.998867452144622803 0.0321078784763813019 -0.0350990034639835358
-153.601974487304688 -269.607147216796875 9.29128646850585938 156 1645020620.59257221 -0.0901334211230278015 -0.993321418762207031 0.0587381273508071899 -0.0416930206120014191
-157.818466186523438 -267.83770751953125 9.355926513671875 157 1645020621.69435143 -0.250995516777038574 -0.966697216033935547 0.0443603619933128357 0.0230194889008998871
-159.8294677734375 -265.748382568359375 9.27155399322509766 158 1645020622.29463196 -0.420463263988494873 -0.906336545944213867 0.041537061333656311 -0.00627705361694097519
-160.720596313476562 -263.31439208984375 9.09232139587402344 159 1645020622.79448605 -0.594060540199279785 -0.803348124027252197 0.0334735475480556488 -0.0245638862252235413
-160.63543701171875 -258.965362548828125 8.71843624114990234 160 1645020623.59184694 -0.73225855827331543 -0.679525494575500488 0.0403577797114849091 -0.0203410480171442032
-158.608993530273438 -248.747055053710938 7.71214485168457031 161 1645020625.19280005 -0.784628331661224365 -0.617479383945465088 0.0544389858841896057 -0.0106765758246183395
-156.278823852539062 -238.782455444335938 6.73003387451171875 162 1645020626.5966754 -0.783764779567718506 -0.61742103099822998 0.0669926479458808899 -0.00400916719809174538
-153.694366455078125 -228.646270751953125 5.89000034332275391 163 1645020627.99040556 -0.795342028141021729 -0.604102075099945068 0.0494259707629680634 0.00698317680507898331
-150.775619506835938 -218.629745483398438 5.13065338134765625 164 1645020629.39076304 -0.802638709545135498 -0.594032227993011475 0.0537188313901424408 0.00333492527715861797
-147.63922119140625 -208.753402709960938 4.44360923767089844 165 1645020630.79054952 -0.814250767230987549 -0.578526556491851807 0.0478418692946434021 0.0037140892818570137
-144.291213989257812 -198.91217041015625 3.74815678596496582 166 1645020632.19727159 -0.808968901634216309 -0.586377382278442383 0.0402455851435661316 0.0105433603748679161
-140.733444213867188 -189.217453002929688 3.07442307472229004 167 1645020633.59309387 -0.827503025531768799 -0.559836804866790771 0.0426660589873790741 0.00104903487954288721
-136.726654052734375 -179.61248779296875 2.39789056777954102 168 1645020634.9915359 -0.827856600284576416 -0.559369385242462158 0.0414578281342983246 0.00637323129922151566
-132.965072631835938 -169.900100708007812 1.77533066272735596 169 1645020636.39214396 -0.830515265464782715 -0.55603337287902832 0.0325502268970012665 -0.00344063807278871536
-128.739837646484375 -160.472076416015625 1.21864330768585205 170 1645020637.7923336 -0.842494189739227295 -0.537298619747161865 0.038654472678899765 0.00442217569798231125
-124.353485107421875 -151.101882934570312 0.638909220695495605 171 1645020639.19280601 -0.8464546799659729 -0.531239748001098633 0.0360025912523269653 0.00160816079005599022
-119.659652709960938 -141.914520263671875 0.116356410086154938 172 1645020640.5932374 -0.86129838228225708 -0.507358789443969727 0.0274254903197288513 -7.16978902346454561e-05
-114.201034545898438 -133.14215087890625 -0.376331895589828491 173 1645020641.99321842 -0.878609359264373779 -0.476200610399246216 0.0355239957571029663 0.00407447014003992081
-108.54119873046875 -124.501953125 -0.841403067111968994 174 1645020643.39396119 -0.882436752319335938 -0.469818055629730225 0.0233159121125936508 0.00571800721809267998
-102.81475830078125 -115.933990478515625 -1.29233288764953613 175 1645020644.79389763 -0.883800804615020752 -0.467106461524963379 0.0252588707953691483 -0.00835075881332159042
-96.9574813842773438 -107.415367126464844 -1.65118074417114258 176 1645020646.1951313 -0.885563790798187256 -0.46428602933883667 0.0144830113276839256 -0.00235094456002116203
-91.0683441162109375 -99.0972976684570312 -1.85780656337738037 177 1645020647.59651279 -0.88894808292388916 -0.457795977592468262 0.0139102796092629433 0.00084404827794060111
-85.1699447631835938 -90.869415283203125 -2.03139972686767578 178 1645020648.99601746 -0.892844259738922119 -0.450336158275604248 0.00291479472070932388 -0.00424344651401042938
-79.2425155639648438 -82.728546142578125 -2.10580539703369141 179 1645020650.39389205 -0.889526009559631348 -0.456840574741363525 0.00599936721846461296 -0.00203475775197148323
-73.1879501342773438 -73.912994384765625 -2.11523294448852539 180 1645020651.89737678 -0.885320305824279785 -0.464940667152404785 -0.00442572031170129776 0.00429955963045358658
-67.4645462036132812 -65.0071792602539062 -2.0977942943572998 181 1645020653.39680004 -0.876185178756713867 -0.48196101188659668 -0.000899539038073271513 0.00350389070808887482
-62.0333251953125 -55.9205055236816406 -2.05466723442077637 182 1645020654.89420962 -0.869965553283691406 -0.493007302284240723 -0.00916666537523269653 -0.00443864660337567329
-56.4909477233886719 -46.9350204467773438 -1.97593212127685547 183 1645020656.39385653 -0.879290282726287842 -0.475773096084594727 -0.0174273494631052017 -0.0135956183075904846
-50.5699310302734375 -38.1237831115722656 -1.90592682361602783 184 1645020657.89608192 -0.888776242733001709 -0.458100080490112305 -0.00772526254877448082 -0.0127059547230601311
-44.5248298645019531 -29.4020977020263672 -1.79161262512207031 185 1645020659.39589167 -0.884035348892211914 -0.467254370450973511 -0.011008797213435173 0.00579851586371660233
-38.5248680114746094 -20.8081645965576172 -1.52717924118041992 186 1645020660.8955791 -0.893661260604858398 -0.448475271463394165 -0.00352510507218539715 0.0150700975209474564
-31.2320652008056641 -13.273930549621582 -1.19652867317199707 187 1645020662.39723372 -0.937416791915893555 -0.347782045602798462 -0.00946717057377099991 0.0144160697236657143
-22.7545661926269531 -7.10749006271362305 -0.715960860252380371 188 1645020663.89732981 -0.957846403121948242 -0.285833567380905151 -0.0122895687818527222 0.0260459762066602707
-13.5404586791992188 -2.10875153541564941 -0.258471548557281494 189 1645020665.39993262 -0.976180613040924072 -0.21434919536113739 -0.00948341283947229385 0.0321857035160064697
0.467960387468338013 1.60621082782745361 0.283385127782821655 190 1645020667.50322747 -0.99629676342010498 -0.0724252164363861084 -0.0201466362923383713 0.0417313985526561737
14.0221309661865234 3.61956357955932617 0.685970127582550049 191 1645020669.59582329 -0.996714770793914795 -0.0571021921932697296 -0.0522093959152698517 0.0239415783435106277
26.2657394409179688 5.45554780960083008 1.06724607944488525 192 1645020671.69616604 -0.995079636573791504 -0.0909381210803985596 -0.0280031412839889526 0.0276157893240451813
39.0672454833984375 8.43390369415283203 1.84236836433410645 193 1645020673.89653969 -0.991268694400787354 -0.127370670437812805 -0.0319755710661411285 0.0118613280355930328
50.957000732421875 11.1568546295166016 2.7694849967956543 194 1645020675.99436426 -0.994884610176086426 -0.0860439613461494446 -0.0526420548558235168 0.00546742929145693779
62.63409423828125 12.8287124633789062 3.72431850433349609 195 1645020678.09378123 -0.996801614761352539 -0.063907228410243988 -0.0479012914001941681 0.00280401809141039848
73.2369155883789062 14.3720254898071289 4.74721717834472656 196 1645020680.0954473 -0.996063292026519775 -0.0725144818425178528 -0.0490947403013706207 0.0137575902044773102
83.1580276489257812 15.8986845016479492 5.74131107330322266 197 1645020682.09629583 -0.995339810848236084 -0.0768423154950141907 -0.0516231358051300049 0.026999596506357193
93.1991119384765625 17.5122661590576172 6.73112583160400391 198 1645020684.19545078 -0.995112001895904541 -0.0803638547658920288 -0.0497745126485824585 0.0285697095096111298
102.829299926757812 18.6493453979492188 7.58457231521606445 199 1645020686.19552851 -0.998305916786193848 -0.0298960991203784943 -0.0424597486853599548 0.0262417737394571304
112.490768432617188 17.3989505767822266 8.40172290802001953 200 1645020688.19624376 -0.990533888339996338 0.121166028082370758 -0.0480328314006328583 0.0430609695613384247
121.963203430175781 13.8671331405639648 9.24386215209960938 201 1645020690.29776788 -0.976620733737945557 0.205774083733558655 -0.0499675646424293518 0.0370437316596508026
130.799301147460938 9.06509017944335938 9.97105312347412109 202 1645020692.39607263 -0.959826529026031494 0.276434600353240967 -0.0441990792751312256 0.0190617535263299942
138.57147216796875 3.43098640441894531 10.674962043762207 203 1645020694.39889717 -0.943101942539215088 0.328450024127960205 -0.0490407384932041168 0.016561020165681839
146.069793701171875 -2.9391167163848877 11.3617124557495117 204 1645020696.49868107 -0.933400452136993408 0.35519292950630188 -0.04943818598985672 0.0125473570078611374
153.43914794921875 -9.73918247222900391 12.0460176467895508 205 1645020698.5975163 -0.92795109748840332 0.369749873876571655 -0.0446573421359062195 0.0140528669580817223
160.03277587890625 -16.5739421844482422 12.6947774887084961 206 1645020700.59836006 -0.900709748268127441 0.431926518678665161 -0.0452434085309505463 0.0106994723901152611
162.6807861328125 -26.2538909912109375 13.0617265701293945 207 1645020702.69816995 -0.734480679035186768 0.676689505577087402 -0.0448584705591201782 0.0248431861400604248
159.176544189453125 -36.358551025390625 12.6137123107910156 208 1645020704.69920015 -0.486368894577026367 0.872805118560791016 -0.0017070817993953824 0.0406652837991714478
151.1695556640625 -45.809783935546875 11.7348928451538086 209 1645020706.70052767 -0.405950933694839478 0.913026809692382812 0.0118660889565944672 0.0380136631429195404
144.709915161132812 -53.3888778686523438 10.7831993103027344 210 1645020708.10158896 -0.423874735832214355 0.904023051261901855 0.0338942892849445343 0.0438596904277801514
138.0838623046875 -61.5834732055664062 9.85398387908935547 211 1645020709.50125885 -0.423609673976898193 0.904477179050445557 0.0358796864748001099 0.0344749577343463898
131.379287719726562 -69.0635757446289062 8.98832511901855469 212 1645020710.80157757 -0.379266738891601562 0.923918664455413818 0.0411167405545711517 0.0289899874478578568
124.258560180664062 -76.33001708984375 8.17153835296630859 213 1645020712.10076547 -0.423888176679611206 0.905119001865386963 0.0160133875906467438 0.0286710020154714584
118.258499145507812 -84.7576141357421875 7.28762197494506836 214 1645020713.40263939 -0.454761624336242676 0.889593720436096191 0.0285041220486164093 0.0316602177917957306
113.067253112792969 -93.7284011840820312 6.48216581344604492 215 1645020714.69938731 -0.534802496433258057 0.844157755374908447 0.0267493687570095062 0.0258535649627447128
109.338607788085938 -103.347785949707031 5.93086433410644531 216 1645020716.00507903 -0.574706315994262695 0.817929625511169434 0.0203345809131860733 0.0170363336801528931
106.623573303222656 -113.70013427734375 5.55312871932983398 217 1645020717.40142846 -0.65400010347366333 0.756401956081390381 0.0035811946727335453 0.0112731028348207474
106.248275756835938 -123.987930297851562 5.41633415222167969 218 1645020718.8021071 -0.706750094890594482 0.707452714443206787 0.00347987399436533451 -0.00170263031031936407
106.709335327148438 -134.561859130859375 5.60278224945068359 219 1645020720.30105829 -0.728430092334747314 0.68477320671081543 -0.014819614589214325 -0.0159910228103399277
107.68603515625 -144.697021484375 5.91920375823974609 220 1645020721.8003459 -0.746411025524139404 0.665296375751495361 -0.0158440135419368744 0.000506176031194627285
109.0985107421875 -154.640289306640625 6.34125709533691406 221 1645020723.30326509 -0.761674165725708008 0.646801590919494629 -0.0359790883958339691 -0.0143414679914712906
110.955513000488281 -164.915451049804688 6.94057941436767578 222 1645020724.90137672 -0.765446960926055908 0.642831146717071533 -0.02169027179479599 -0.0197114851325750351
112.660362243652344 -174.943008422851562 7.56804895401000977 223 1645020726.50336933 -0.75658947229385376 0.653249859809875488 -0.0237667541950941086 -0.016496436670422554
113.92108154296875 -185.300338745117188 8.25629234313964844 224 1645020728.20362592 -0.744022846221923828 0.667111217975616455 -0.0254584122449159622 -0.027285352349281311
115.3458251953125 -195.196258544921875 9.01928997039794922 225 1645020729.89935374 -0.762341082096099854 0.645745396614074707 -0.0312170442193746567 -0.0295711960643529892
117.35040283203125 -205.207931518554688 9.80385684967041016 226 1645020731.69869661 -0.774263203144073486 0.631490468978881836 -0.0279658995568752289 -0.0308896061033010483
119.585296630859375 -215.397125244140625 10.6370172500610352 227 1645020733.60205722 -0.774072825908660889 0.631927490234375 -0.0270131900906562805 -0.0273712240159511566
119.975181579589844 -225.39501953125 11.4669628143310547 228 1645020735.49916816 -0.645140230655670166 0.762669861316680908 -0.0277701448649168015 -0.0368456654250621796
117.832992553710938 -230.0445556640625 11.8459854125976562 229 1645020736.50053835 -0.496613532304763794 0.867042839527130127 -0.0375812016427516937 -0.0141195915639400482
113.804458618164062 -234.044265747070312 12.0429363250732422 230 1645020737.60055017 -0.320340991020202637 0.946596145629882812 -0.0359649658203125 -0.00662404205650091171
102.766921997070312 -236.618759155273438 12.0817527770996094 231 1645020739.6993587 -0.0639033690094947815 0.997528314590454102 -0.0264378432184457779 0.0124347545206546783
89.7340164184570312 -238.786209106445312 11.5713300704956055 232 1645020741.69951224 -0.0804263502359390259 0.996307671070098877 -0.0208569653332233429 0.0216253511607646942
75.709869384765625 -240.574356079101562 11.0777339935302734 233 1645020743.70338535 -0.0914861708879470825 0.994724512100219727 -0.0398593060672283173 0.0237615108489990234
61.9867630004882812 -243.24053955078125 10.7101144790649414 234 1645020745.80182981 -0.093085169792175293 0.994850754737854004 -0.0359851419925689697 0.0176689811050891876
49.5340042114257812 -245.072525024414062 10.559967041015625 235 1645020747.90192795 -0.0650096535682678223 0.997294187545776367 -0.0340704023838043213 0.00415960606187582016
44.3683090209960938 -247.807723999023438 10.6588449478149414 236 1645020749.40253949 -0.405946403741836548 0.912635266780853271 -0.0443385876715183258 0.0183969102799892426
44.1200065612792969 -249.329010009765625 10.7367534637451172 237 1645020750.00176167 -0.591733813285827637 0.805337429046630859 -0.0355599485337734222 0.00426060054451227188
44.4029617309570312 -250.73077392578125 10.7952480316162109 238 1645020750.50081229 -0.735129475593566895 0.676893651485443115 -0.0362104400992393494 0.00940295308828353882
45.1109352111816406 -251.832260131835938 10.8598089218139648 239 1645020750.90309381 -0.841676414012908936 0.538760721683502197 -0.0339546762406826019 0.0128371166065335274
46.2500076293945312 -252.651626586914062 10.9352321624755859 240 1645020751.30320501 -0.926351010799407959 0.375363558530807495 -0.0303327422589063644 0.00747900549322366714
48.0468673706054688 -253.13580322265625 10.9856443405151367 241 1645020751.80198145 -0.98467254638671875 0.173673897981643677 -0.0160280037671327591 0.000666475330945104361
50.0223579406738281 -252.99627685546875 10.98065185546875 242 1645020752.30367017 -0.999978840351104736 0.000938226061407476664 0.00216063344851136208 -0.00605963403359055519
53.1117095947265625 -252.473297119140625 10.9737043380737305 243 1645020754.4045074 -0.998255729675292969 -0.0562220141291618347 0.00284806662239134312 -0.0177897606045007706
