# .PCD v0.7 - Point Cloud Data file format
VERSION 0.7
FIELDS x y z intensity t qx qy qz qw
SIZE 4 4 4 4 8 4 4 4 4
TYPE F F F F F F F F F
COUNT 1 1 1 1 1 1 1 1 1
WIDTH 245
HEIGHT 1
VIEWPOINT 0 0 0 1 0 0 0
POINTS 245
DATA ascii
-0.525163471698760986 -0.248541668057441711 0.289606630802154541 0 1645019753.87114668 0.999649763107299805 0.000872930046170949936 -0.0239606313407421112 0.0112022692337632179
-0.38408777117729187 -0.232086092233657837 0.322876811027526855 1 1645019756.17192912 0.99993133544921875 -0.00108161743264645338 -0.00086606957484036684 0.0116345416754484177
5.53211402893066406 -0.40274462103843689 0.165504544973373413 2 1645019758.1748867 0.999630093574523926 -0.0190221443772315979 -0.0120885837823152542 0.015221763402223587
15.699009895324707 -0.144314214587211609 -0.0864372849464416504 3 1645019760.0739274 0.999482929706573486 0.0295312125235795975 -0.0114892134442925453 0.00545997079461812973
26.4002475738525391 0.458507627248764038 -0.30904853343963623 4 1645019761.67458272 0.999721765518188477 0.0230024475604295731 -0.00507699651643633842 0.0012389329494908452
36.5214958190917969 0.958270609378814697 -0.340291440486907959 5 1645019763.07395029 0.999779403209686279 0.0201760865747928619 -0.00236501707695424557 -0.00533289369195699692
46.7362136840820312 1.7996140718460083 -0.340461432933807373 6 1645019764.47386885 0.997586846351623535 0.0690281316637992859 0.00735241500660777092 0.00123634946066886187
56.9139556884765625 3.07616305351257324 -0.223607704043388367 7 1645019765.87364936 0.997972369194030762 0.0635962337255477905 0.000822509173303842545 -0.0024535211268812418
67.0338592529296875 4.51843357086181641 -0.0764626190066337585 8 1645019767.27316427 0.997176706790924072 0.0749364569783210754 0.00467923888936638832 -0.00113338965456932783
77.0237808227539062 6.2139434814453125 0.112988807260990143 9 1645019768.67118478 0.996520698070526123 0.0822701454162597656 0.0133438073098659515 -0.000198487468878738582
87.1685409545898438 7.59362697601318359 0.32856026291847229 10 1645019770.07774377 0.998515725135803223 0.0533349290490150452 0.00795761588960886002 0.00763868819922208786
97.2912826538085938 8.63138008117675781 0.585926473140716553 11 1645019771.47677469 0.998945236206054688 0.0397673696279525757 0.015572037547826767 0.016866736114025116
107.397850036621094 9.46153640747070312 0.913493514060974121 12 1645019772.87429786 0.998992025852203369 0.0366476774215698242 0.0205448344349861145 0.015803193673491478
117.528945922851562 10.3166227340698242 1.188720703125 13 1645019774.27281976 0.999052584171295166 0.0387359224259853363 0.019009789451956749 0.0056631946936249733
127.563018798828125 11.0621223449707031 1.56597316265106201 14 1645019775.67228436 0.999329268932342529 0.0297490675002336502 0.020142553374171257 -0.00709251780062913895
137.633407592773438 11.4483747482299805 1.96078741550445557 15 1645019777.07815051 0.999773919582366943 -0.00149636343121528625 0.018030235543847084 -0.0111679341644048691
147.623809814453125 10.2460451126098633 2.29171252250671387 16 1645019778.47563577 0.993985295295715332 -0.107419759035110474 0.0177113153040409088 -0.0118556329980492592
157.155197143554688 6.84823322296142578 2.57585430145263672 17 1645019779.87583637 0.977282941341400146 -0.210678204894065857 0.0166198257356882095 -0.0160175785422325134
166.128463745117188 2.02738547325134277 2.86580276489257812 18 1645019781.27682233 0.963351190090179443 -0.266868650913238525 0.0214299391955137253 -0.0166225433349609375
174.436676025390625 -3.67026162147521973 3.29542326927185059 19 1645019782.67780948 0.949075162410736084 -0.312341779470443726 0.038874506950378418 -0.013699566014111042
182.877685546875 -10.1319704055786133 3.81589508056640625 20 1645019784.1758163 0.942229568958282471 -0.333113759756088257 0.034997105598449707 0.00372061855159699917
190.6365966796875 -16.6944141387939453 4.47114324569702148 21 1645019785.87885475 0.93750607967376709 -0.345206797122955322 0.0433831885457038879 0.00570442108437418938
198.584884643554688 -23.57513427734375 5.37043380737304688 22 1645019787.77425122 0.935431182384490967 -0.34976467490196228 0.0513088926672935486 0.000776427157688885927
206.52001953125 -30.1875495910644531 6.37679004669189453 23 1645019789.57325006 0.941905438899993896 -0.331622213125228882 0.0515494011342525482 0.0135466009378433228
214.77099609375 -36.3598289489746094 7.48665618896484375 24 1645019791.37287307 0.948637306690216064 -0.31048285961151123 0.0571325607597827911 0.0205795466899871826
222.997543334960938 -42.398712158203125 8.61308097839355469 25 1645019793.17259693 0.944475173950195312 -0.324285566806793213 0.0467354431748390198 0.0249272175133228302
230.552490234375 -48.9129676818847656 9.92479801177978516 26 1645019794.97383666 0.928036630153656006 -0.366129487752914429 0.0663956329226493835 0.0169967729598283768
237.9486083984375 -55.5690574645996094 11.2476091384887695 27 1645019796.87273002 0.933836936950683594 -0.349822729825973511 0.0741613283753395081 0.00852792058140039444
245.36529541015625 -62.5332603454589844 12.5371313095092773 28 1645019798.87272143 0.921772778034210205 -0.381646513938903809 0.0683893337845802307 0.00195646192878484726
252.22564697265625 -70.0983047485351562 13.733036994934082 29 1645019800.87358737 0.904640018939971924 -0.421136647462844849 0.065343514084815979 0.000759642513003200293
258.19708251953125 -78.5744857788085938 14.9324951171875 30 1645019802.87389636 0.872720718383789062 -0.48226591944694519 0.0757588297128677368 -0.00622062617912888527
262.08648681640625 -88.1063308715820312 16.1403274536132812 31 1645019804.87350273 0.797792971134185791 -0.598330438137054443 0.0742931440472602844 -0.00275661749765276909
263.748138427734375 -98.2782440185546875 17.1213703155517578 32 1645019806.87393212 0.74303746223449707 -0.666273295879364014 0.0630305260419845581 0.00153608282562345266
264.616790771484375 -108.626579284667969 18.1524314880371094 33 1645019808.87680697 0.739103615283966064 -0.670687615871429443 0.0616364888846874237 0.010244736447930336
265.631072998046875 -118.652992248535156 19.1380023956298828 34 1645019810.87495518 0.73886185884475708 -0.671217560768127441 0.0585284382104873657 0.0111589403823018074
265.049652099609375 -128.729217529296875 20.0214080810546875 35 1645019812.87681055 0.635101974010467529 -0.770596861839294434 0.0530935600399971008 0.00265084230341017246
262.658599853515625 -135.503555297851562 20.5386257171630859 36 1645019814.97739434 0.555875837802886963 -0.827983379364013672 0.0732595622539520264 -0.00886849965900182724
259.463043212890625 -139.621536254882812 20.7181644439697266 37 1645019816.57512808 0.391910701990127563 -0.917217373847961426 0.0685790777206420898 -0.0203764420002698898
251.970672607421875 -144.176513671875 20.7528266906738281 38 1645019818.57890773 0.23676784336566925 -0.970060408115386963 0.0516664981842041016 -0.015950225293636322
243.49090576171875 -148.174606323242188 20.1659088134765625 39 1645019820.67764091 0.147937804460525513 -0.986672937870025635 0.00616841902956366539 -0.067475147545337677
236.065414428710938 -153.5 19.7854518890380859 40 1645019822.68069887 0.468773722648620605 -0.881310939788818359 0.0355824902653694153 -0.0477084070444107056
233.651123046875 -163.520828247070312 20.3189525604248047 41 1645019824.68218231 0.678444921970367432 -0.731379449367523193 0.0676204711198806763 -0.0149682136252522469
233.338775634765625 -174.042373657226562 21.0577487945556641 42 1645019826.57980013 0.728249251842498779 -0.680893003940582275 0.076056361198425293 -0.0159124825149774551
236.268264770507812 -184.101287841796875 21.8305912017822266 43 1645019828.38226771 0.810915172100067139 -0.584077954292297363 0.0330578088760375977 0.0132951270788908005
239.738265991210938 -193.8798828125 22.481719970703125 44 1645019830.38315797 0.780822277069091797 -0.624434173107147217 0.0161781590431928635 0.0116942580789327621
235.424453735351562 -200.710372924804688 22.4922714233398438 45 1645019832.48059797 0.208219066262245178 -0.977802574634552002 -0.00527942879125475883 -0.0227818675339221954
232.465072631835938 -200.4808349609375 22.3043346405029297 46 1645019833.18095946 -0.0566953085362911224 -0.997651040554046631 0.00325579219497740269 -0.0383079349994659424
229.595932006835938 -199.09283447265625 22.0545940399169922 47 1645019833.87945557 -0.246018722653388977 -0.968396425247192383 0.00264426483772695065 -0.0409407243132591248
220.65478515625 -194.25335693359375 21.3687648773193359 48 1645019835.68069458 -0.173301175236701965 -0.984262645244598389 0.0226892977952957153 -0.0260562002658843994
210.571334838867188 -192.531524658203125 20.6466999053955078 49 1645019837.27857089 -0.0471692979335784912 -0.997670292854309082 0.013628554530441761 -0.0473632924258708954
200.433914184570312 -193.307785034179688 19.5264453887939453 50 1645019838.97975779 0.0614823177456855774 -0.996065855026245117 0.00659592589363455772 -0.0634765177965164185
190.73785400390625 -195.798385620117188 18.51287841796875 51 1645019840.58206391 0.159623503684997559 -0.986445009708404541 0.00789241865277290344 -0.0372052639722824097
181.818450927734375 -200.830078125 18.0666675567626953 52 1645019842.07538962 0.334050893783569336 -0.941791951656341553 0.0350626260042190552 -0.0144413942471146584
174.851699829101562 -208.088577270507812 18.0847663879394531 53 1645019843.47967339 0.400920391082763672 -0.91562199592590332 0.0289726089686155319 -0.00772849516943097115
168.088134765625 -215.607559204101562 18.1777267456054688 54 1645019844.87937045 0.402363121509552002 -0.914775192737579346 0.0342018567025661469 -0.010976436547935009
161.165420532226562 -222.90411376953125 18.2993507385253906 55 1645019846.27530098 0.388398647308349609 -0.920433759689331055 0.0441361032426357269 0.000476072076708078384
154.087127685546875 -230.199554443359375 18.3705596923828125 56 1645019847.67832732 0.389957845211029053 -0.920216202735900879 0.0333667173981666565 -0.00466040382161736488
147.050613403320312 -238.164138793945312 18.8040924072265625 57 1645019849.17506361 0.409709274768829346 -0.911497890949249268 0.0338192172348499298 0.0128917209804058075
140.300765991210938 -245.684310913085938 19.3139114379882812 58 1645019850.6793437 0.409096658229827881 -0.911790847778320312 0.0348683372139930725 0.00784388650208711624
136.741134643554688 -251.574325561523438 19.7062110900878906 59 1645019851.87897253 0.566076993942260742 -0.823166370391845703 0.0439926572144031525 0.00431047193706035614
135.433273315429688 -261.868377685546875 20.4504032135009766 60 1645019853.87778521 0.656692981719970703 -0.752962887287139893 0.0293533876538276672 0.0306530110538005829
129.940338134765625 -270.760711669921875 20.8260173797607422 61 1645019855.97530174 0.389272868633270264 -0.920469462871551514 0.0332339592278003693 -0.00990453176200389862
123.175468444824219 -277.33941650390625 21.0454483032226562 62 1645019857.97764754 0.368389546871185303 -0.929378807544708252 0.0228301677852869034 0.00478541851043701172
118.038497924804688 -280.343902587890625 21.1003246307373047 63 1645019859.27760267 0.181051269173622131 -0.983125865459442139 0.0211303997784852982 -0.0154107101261615753
115.372940063476562 -280.419158935546875 21.0437774658203125 64 1645019859.87757301 -0.0134848412126302719 -0.999604642391204834 0.018858049064874649 -0.0159099549055099487
105.811576843261719 -277.089080810546875 20.6226634979248047 65 1645019861.87648058 -0.137864217162132263 -0.989685952663421631 0.038716927170753479 -0.00402867048978805542
95.8641128540039062 -279.725616455078125 20.5377311706542969 66 1645019863.87736964 0.278338313102722168 -0.959034919738769531 0.0515196844935417175 -0.0112037928774952888
87.7671661376953125 -286.01202392578125 20.6195011138916016 67 1645019865.67872 0.314012438058853149 -0.949097037315368652 0.0236490964889526367 -0.00719523429870605469
79.1881866455078125 -285.79595947265625 20.3746700286865234 68 1645019867.67908788 -0.266884803771972656 -0.963435232639312744 0.00182266661431640387 -0.0237010028213262558
71.5869293212890625 -278.9755859375 19.8949050903320312 69 1645019869.58097386 -0.369090855121612549 -0.928955674171447754 0.0156432241201400757 -0.0238455478101968765
68.16583251953125 -274.434967041015625 19.6307144165039062 70 1645019870.6808989 -0.533027350902557373 -0.845289766788482666 -0.00400701677426695824 -0.0367557592689990997
67.9002151489257812 -272.218994140625 19.5276203155517578 71 1645019871.1814177 -0.673315763473510742 -0.737713813781738281 -0.00249302550218999386 -0.0491737052798271179
68.55242919921875 -270.29254150390625 19.4301929473876953 72 1645019871.68020463 -0.811381220817565918 -0.580255985260009766 -0.00184086349327117205 -0.0704282894730567932
69.865997314453125 -269.08929443359375 19.4191627502441406 73 1645019872.18074083 -0.914739608764648438 -0.399887889623641968 -0.00188608793541789055 -0.0577716231346130371
71.3740158081054688 -268.64678955078125 19.4502811431884766 74 1645019872.68188977 -0.978135585784912109 -0.200853839516639709 -0.00464978720992803574 -0.0537299700081348419
72.8226394653320312 -268.87884521484375 19.5148544311523438 75 1645019873.18289828 -0.998939216136932373 -0.00101766828447580338 -0.0086571788415312767 -0.0452150553464889526
74.269317626953125 -269.675262451171875 19.5864028930664062 76 1645019873.68252063 -0.979464173316955566 0.198165193200111389 -0.00677123526111245155 -0.0365323573350906372
77.0775299072265625 -272.359619140625 19.7902317047119141 77 1645019874.67864323 -0.929642558097839355 0.366999208927154541 -0.0206466410309076309 -0.0254941638559103012
85.1656646728515625 -279.71270751953125 20.2771949768066406 78 1645019876.77944136 -0.936714768409729004 0.349057048559188843 -0.0153074786067008972 -0.0221429765224456787
94.8859939575195312 -287.863800048828125 20.9073505401611328 79 1645019878.78084159 -0.938617527484893799 0.343401879072189331 -0.0253045838326215744 -0.0207831170409917831
102.700691223144531 -294.780059814453125 21.4086933135986328 80 1645019880.2823658 -0.925011277198791504 0.377726912498474121 -0.0274705328047275543 -0.0303631182760000229
109.766288757324219 -301.93035888671875 21.9587287902832031 81 1645019881.68042183 -0.915745794773101807 0.400276452302932739 -0.0151764089241623878 -0.0309534631669521332
116.574134826660156 -309.3109130859375 22.5397243499755859 82 1645019883.07701206 -0.942206621170043945 0.334251284599304199 -0.0215680766850709915 0.00758887315168976784
124.827690124511719 -314.950408935546875 23.0567760467529297 83 1645019884.47893691 -0.946973085403442383 0.319491058588027954 -0.0200993847101926804 -0.0276307575404644012
132.961257934570312 -321.63092041015625 23.6521053314208984 84 1645019886.07812834 -0.942921161651611328 0.332028776407241821 -0.0210392791777849197 -0.0146271800622344017
137.800765991210938 -323.902099609375 23.8992424011230469 85 1645019887.08020949 -0.990885913372039795 0.133531063795089722 -0.0156754385679960251 -0.00829902384430170059
140.510604858398438 -323.688720703125 23.9825363159179688 86 1645019887.68021059 -0.998292028903961182 -0.0577892251312732697 -0.00822951458394527435 -0.0023959847167134285
143.808334350585938 -322.169586181640625 24.0333137512207031 87 1645019888.47964931 -0.971696853637695312 -0.235991597175598145 0.000105932980659417808 0.0106405559927225113
146.97808837890625 -319.180694580078125 23.9646854400634766 88 1645019889.37888789 -0.905153930187225342 -0.424837410449981689 0.0141459666192531586 0.00307784019969403744
147.899322509765625 -316.642120361328125 23.9014167785644531 89 1645019889.9817884 -0.809626519680023193 -0.586358010768890381 0.0242129657417535782 0.0101444786414504051
147.774581909179688 -313.8856201171875 23.7892780303955078 90 1645019890.57859302 -0.684315860271453857 -0.728499710559844971 0.0302573125809431076 0.00918905530124902725
146.819778442382812 -311.67840576171875 23.6274738311767578 91 1645019891.0798049 -0.546973526477813721 -0.835943639278411865 0.0449237897992134094 0.000302537053357809782
142.9564208984375 -307.00390625 23.3126716613769531 92 1645019892.27955294 -0.393567740917205811 -0.918160498142242432 0.044695146381855011 -0.00938650220632553101
134.794036865234375 -300.296600341796875 22.7709579467773438 93 1645019894.08113599 -0.327190130949020386 -0.944334506988525391 0.0312512516975402832 -0.0142230875790119171
126.984382629394531 -293.7669677734375 22.1483230590820312 94 1645019895.68295741 -0.353919893503189087 -0.934562325477600098 0.0232394468039274216 -0.0281761307269334793
117.816802978515625 -285.11492919921875 21.3912849426269531 95 1645019897.68327093 -0.379171133041381836 -0.924936056137084961 0.0157097000628709793 -0.0218119584023952484
108.781761169433594 -276.46246337890625 20.6429958343505859 96 1645019899.68428302 -0.363418132066726685 -0.931142866611480713 0.0265639238059520721 -0.0139503823593258858
100.6759033203125 -268.491241455078125 20.0725631713867188 97 1645019901.68460703 -0.38446459174156189 -0.922613382339477539 0.0269534364342689514 -0.0156546309590339661
93.9867324829101562 -262.61187744140625 19.6985664367675781 98 1645019903.68559647 -0.266954362392425537 -0.963019847869873047 0.0347188077867031097 -0.0110771153122186661
87.643951416015625 -259.76263427734375 19.3727474212646484 99 1645019905.78541398 -0.245419472455978394 -0.969262897968292236 0.00631737243384122849 -0.0160867888480424881
81.9639511108398438 -255.080764770507812 19.0701522827148438 100 1645019907.78571248 -0.370249897241592407 -0.928590059280395508 0.01525154709815979 -0.0200736280530691147
76.3839263916015625 -249.686248779296875 19.1856269836425781 101 1645019909.88653302 -0.364195287227630615 -0.930516898632049561 0.00264805462211370468 0.0386402606964111328
71.8325424194335938 -245.15679931640625 19.4161510467529297 102 1645019911.98812962 -0.399439871311187744 -0.915677309036254883 0.0432821549475193024 0.0104639902710914612
70.0839614868164062 -238.836135864257812 18.9421577453613281 103 1645019914.08710384 -0.705824673175811768 -0.706493914127349854 0.0451610088348388672 -0.0252660326659679413
72.896942138671875 -233.915542602539062 18.3537540435791016 104 1645019916.08774328 -0.904810011386871338 -0.421775192022323608 0.043216165155172348 -0.0394580774009227753
78.5736083984375 -228.690704345703125 17.6429328918457031 105 1645019918.08967638 -0.924125313758850098 -0.378447115421295166 0.0329920202493667603 -0.041008729487657547
85.1797027587890625 -221.998336791992188 16.7777004241943359 106 1645019920.18960261 -0.923495054244995117 -0.379602253437042236 0.0344638116657733917 -0.0432585738599300385
91.6796188354492188 -215.55322265625 15.9990653991699219 107 1645019922.28868175 -0.92232811450958252 -0.382686913013458252 0.032376457005739212 -0.0425837785005569458
98.5675735473632812 -208.291763305664062 15.1064996719360352 108 1645019924.38397026 -0.9158439040184021 -0.397715747356414795 0.0318506620824337006 -0.0451407618820667267
105.005615234375 -201.047821044921875 14.3031454086303711 109 1645019926.38413477 -0.909804224967956543 -0.412120908498764038 0.0249318033456802368 -0.0423206835985183716
111.749061584472656 -193.23443603515625 13.6029605865478516 110 1645019928.48263979 -0.91003793478012085 -0.412706851959228516 0.019244091585278511 -0.0336709283292293549
118.578346252441406 -185.8121337890625 12.9663496017456055 111 1645019930.48219919 -0.917942464351654053 -0.394928634166717529 0.0267167240381240845 -0.0264423005282878876
125.864959716796875 -178.3941650390625 12.2820863723754883 112 1645019932.48315835 -0.925496518611907959 -0.37711566686630249 0.0148675190284848213 -0.0319203734397888184
133.020172119140625 -171.253326416015625 11.937067985534668 113 1645019934.48294473 -0.925058722496032715 -0.377499580383300781 0.00256445235572755337 -0.0418784469366073608
139.7030029296875 -164.32659912109375 11.6695842742919922 114 1645019936.4843533 -0.916949570178985596 -0.397208273410797119 -0.00373220792971551418 -0.0376188121736049652
146.404541015625 -158.12493896484375 11.6823978424072266 115 1645019938.58262277 -0.949835717678070068 -0.312569200992584229 -0.00799435842782258987 -0.00697653461247682571
154.426620483398438 -153.327529907226562 11.8979692459106445 116 1645019940.68227458 -0.9720725417137146 -0.23400057852268219 -0.0158501807600259781 -0.00821228045970201492
163.27728271484375 -149.698989868164062 12.3228015899658203 117 1645019942.78196383 -0.985802173614501953 -0.165788426995277405 -0.0266028847545385361 0.00072313996497541666
172.808990478515625 -147.0328369140625 12.9802913665771484 118 1645019944.78305888 -0.99304497241973877 -0.110761813819408417 -0.0399110317230224609 -0.000750234874431043863
182.471908569335938 -145.114410400390625 13.8095884323120117 119 1645019946.88283134 -0.995726823806762695 -0.0790533050894737244 -0.0473966486752033234 -0.00567342666909098625
191.665420532226562 -144.147491455078125 14.7353897094726562 120 1645019948.88291717 -0.998198091983795166 -0.0212581958621740341 -0.054608520120382309 -0.0129067106172442436
201.405792236328125 -144.360519409179688 15.7427339553833008 121 1645019950.8835361 -0.997558236122131348 0.0421637259423732758 -0.0554470568895339966 -0.00504230335354804993
210.340179443359375 -144.571853637695312 16.7403221130371094 122 1645019952.88485265 -0.998171389102935791 0.020980149507522583 -0.0566192902624607086 -0.00283231004141271114
218.670989990234375 -144.527725219726562 17.6544094085693359 123 1645019954.88622832 -0.998505592346191406 0.00387091864831745625 -0.0544943809509277344 -0.0013843742199242115
226.175140380859375 -144.443435668945312 18.4670467376708984 124 1645019956.98638797 -0.998009204864501953 -0.00698554981499910355 -0.0626211687922477722 -0.0027174095157533884
233.603317260742188 -144.089309692382812 19.2389812469482422 125 1645019958.98662257 -0.998215615749359131 -0.0278735700994729996 -0.0528076812624931335 -1.73097453171067173e-06
239.70166015625 -143.64996337890625 19.8473396301269531 126 1645019961.08654261 -0.997538745403289795 -0.0361127406358718872 -0.0600470155477523804 -0.00257480563595890999
244.86798095703125 -143.356689453125 20.1769599914550781 127 1645019963.09108353 -0.999660968780517578 -0.0190692618489265442 -0.00590758072212338448 -0.0167168043553829193
251.16064453125 -143.638336181640625 20.6694984436035156 128 1645019965.18510771 -0.999097049236297607 0.0264513902366161346 -0.0279709342867136002 -0.0179741345345973969
255.369354248046875 -142.398300170898438 20.7526683807373047 129 1645019966.38747048 -0.979085803031921387 -0.198798149824142456 -0.00450842780992388725 -0.0430111773312091827
257.677642822265625 -140.210403442382812 20.6517238616943359 130 1645019967.18741179 -0.920884788036346436 -0.387272775173187256 -0.0046578356996178627 -0.0443765446543693542
259.68743896484375 -136.03302001953125 20.3667201995849609 131 1645019968.18723345 -0.825853943824768066 -0.561177551746368408 0.000458324240753427148 -0.0551795288920402527
260.486236572265625 -129.364959716796875 19.7640895843505859 132 1645019969.4897325 -0.711423635482788086 -0.700515925884246826 0.0145188402384519577 -0.0542504750192165375
260.355621337890625 -117.157241821289062 18.5507850646972656 133 1645019971.58986378 -0.707613706588745117 -0.703365087509155273 0.0146120898425579071 -0.0659307762980461121
260.36981201171875 -105.283149719238281 17.4413528442382812 134 1645019973.68930578 -0.69042438268661499 -0.718622744083404541 0.0130322035402059555 -0.0820106491446495056
258.7899169921875 -92.0491256713867188 16.060455322265625 135 1645019975.68970299 -0.613790571689605713 -0.786773443222045898 0.00651901820674538612 -0.0648553669452667236
252.284317016601562 -77.63946533203125 14.0361976623535156 136 1645019977.69004893 -0.492982059717178345 -0.866981029510498047 -0.00361504708416759968 -0.0727979317307472229
241.1016845703125 -64.5888519287109375 12.0835857391357422 137 1645019979.78872108 -0.350254178047180176 -0.934371292591094971 0.00500478269532322884 -0.0651706233620643616
228.458847045898438 -53.7892341613769531 10.0257949829101562 138 1645019981.78951216 -0.34933587908744812 -0.934817850589752197 0.0131662972271442413 -0.062503524124622345
215.554580688476562 -43.0300674438476562 7.98504018783569336 139 1645019983.7902782 -0.338738352060317993 -0.939103960990905762 0.0186391286551952362 -0.0547049343585968018
201.968109130859375 -31.8367404937744141 5.96921586990356445 140 1645019985.88929582 -0.340962141752243042 -0.938530206680297852 0.000524541304912418127 -0.0539039969444274902
189.1575927734375 -21.2285614013671875 4.47326469421386719 141 1645019987.89012361 -0.338759660720825195 -0.939960718154907227 -0.000662686128634959459 -0.0414155013859272003
176.873565673828125 -11.0613956451416016 3.48697781562805176 142 1645019989.89375281 -0.340796083211898804 -0.939844906330108643 -0.00023172699729911983 -0.0234418343752622604
164.528640747070312 -1.98041963577270508 2.68414974212646484 143 1645019991.89626503 -0.268416762351989746 -0.962921619415283203 -0.0134831154718995094 -0.0235068332403898239
150.652969360351562 4.70089006423950195 2.2098848819732666 144 1645019993.98654866 -0.140554726123809814 -0.989904105663299561 -0.00587222771719098091 -0.0173140782862901688
136.278427124023438 6.78008651733398438 1.69555675983428955 145 1645019995.98685908 -0.0474128685891628265 -0.998525381088256836 -0.0166758168488740921 -0.0205180849879980087
121.79730224609375 6.51495981216430664 1.22300839424133301 146 1645019997.98916435 0.0401150994002819061 -0.999028861522674561 -0.0106749953702092171 -0.0147712957113981247
107.435050964355469 4.78474521636962891 0.853850007057189941 147 1645019999.98940873 0.0600543096661567688 -0.998006284236907959 -0.0161125753074884415 -0.0108288498595356941
93.0154495239257812 3.14788913726806641 0.429551392793655396 148 1645020001.99102402 0.0486298874020576477 -0.998665869235992432 -0.0110927307978272438 -0.0133642591536045074
77.7381134033203125 1.75071227550506592 0.020421985536813736 149 1645020004.09117842 0.0426446124911308289 -0.999024868011474609 -0.00646160682663321495 -0.00943626463413238525
62.6833114624023438 -0.752431631088256836 -0.330886155366897583 150 1645020006.18803573 0.0599586516618728638 -0.997899413108825684 -0.0236366782337427139 -0.00655885320156812668
47.5683441162109375 -2.35417628288269043 -0.50005495548248291 151 1645020008.28740907 0.0608474388718605042 -0.998005688190460205 -0.0162047166377305984 -0.0044285324402153492
33.3097724914550781 -3.65872573852539062 -0.508217692375183105 152 1645020010.28749514 0.0372557863593101501 -0.99918752908706665 -0.014935612678527832 0.00363241950981318951
18.5495700836181641 -5.06930351257324219 -0.28867572546005249 153 1645020012.3864007 0.0703599229454994202 -0.99735647439956665 -0.00307369325309991837 0.0178912486881017685
4.77144527435302734 -7.37810611724853516 0.0117573421448469162 154 1645020014.3864193 0.071783803403377533 -0.997323930263519287 -0.00799057260155677795 0.0113220298662781715
-5.46297645568847656 -9.50629806518554688 0.293921440839767456 155 1645020015.88629556 0.137941092252731323 -0.99018406867980957 -0.00295451376587152481 0.0223391447216272354
-15.2028732299804688 -13.1914825439453125 0.528824448585510254 156 1645020017.38631225 0.184172645211219788 -0.982696235179901123 -0.00893604103475809097 0.0175702422857284546
-25.0348472595214844 -16.7544155120849609 0.835449934005737305 157 1645020018.88728118 0.166410759091377258 -0.985641598701477051 -0.0157417729496955872 0.0238808952271938324
-35.0218467712402344 -19.8790397644042969 1.18197846412658691 158 1645020020.38813519 0.144188150763511658 -0.989298522472381592 -0.000380408921046182513 0.0223168116062879562
-44.9787025451660156 -22.8300800323486328 1.57689511775970459 159 1645020021.88819885 0.136029824614524841 -0.990576267242431641 -0.00325871212407946587 0.0156166562810540199
-54.9298095703125 -25.4851722717285156 1.98036456108093262 160 1645020023.39225745 0.124584995210170746 -0.991842329502105713 -0.00852043181657791138 0.0255874618887901306
-64.8372879028320312 -27.5773525238037109 2.48676872253417969 161 1645020024.88870621 0.113113969564437866 -0.993131518363952637 -0.00462989602237939835 0.0295568015426397324
-74.7501754760742188 -30.2013969421386719 2.96068930625915527 162 1645020026.38851666 0.139929264783859253 -0.989888250827789307 -0.00226816278882324696 0.0231499616056680679
-84.477081298828125 -33.4618453979492188 3.4826812744140625 163 1645020027.88846397 0.168580994009971619 -0.985210776329040527 -0.0028164261020720005 0.0305318292230367661
-94.049591064453125 -37.4193649291992188 3.99474239349365234 164 1645020029.39135861 0.204131573438644409 -0.978472650051116943 -0.00528240855783224106 0.0298935454338788986
-103.264923095703125 -41.9572486877441406 4.54212141036987305 165 1645020030.88929749 0.239279255270957947 -0.970407247543334961 -0.0103308949619531631 0.0307969097048044205
-111.987380981445312 -46.9373664855957031 5.21900606155395508 166 1645020032.38916731 0.262319505214691162 -0.963853895664215088 -0.0124164819717407227 0.0449442155659198761
-120.690216064453125 -52.4591751098632812 6.02120113372802734 167 1645020033.99055696 0.287874698638916016 -0.956749558448791504 -0.00710202474147081375 0.0413272753357887268
-124.9130859375 -56.6335372924804688 6.47209262847900391 168 1645020035.08958364 0.460254758596420288 -0.886961579322814941 0.00553218461573123932 0.0378690548241138458
-125.881355285644531 -59.5888023376464844 6.62466335296630859 169 1645020035.69054461 0.609023392200469971 -0.792602360248565674 0.00228976644575595856 0.0294415522366762161
-125.817710876464844 -62.5485420227050781 6.91658973693847656 170 1645020036.29098701 0.73463672399520874 -0.674166440963745117 0.0643629804253578186 0.0408154204487800598
-124.570808410644531 -65.477508544921875 7.2665553092956543 171 1645020036.99143314 0.841939628124237061 -0.53574603796005249 0.0390807054936885834 0.050858180969953537
-119.937660217285156 -72.3239517211914062 8.20769309997558594 172 1645020038.99317837 0.884282946586608887 -0.462975263595581055 0.0376933515071868896 0.0477159768342971802
-114.087188720703125 -78.3699874877929688 9.03942012786865234 173 1645020041.09328127 0.937382519245147705 -0.342821419239044189 0.0426408499479293823 0.0443763695657253265
-107.313095092773438 -82.7149734497070312 9.71747016906738281 174 1645020043.09346867 0.964514553546905518 -0.260765612125396729 0.0296735968440771103 0.0288520120084285736
-99.628143310546875 -86.2921142578125 10.3126564025878906 175 1645020045.09411383 0.978993773460388184 -0.198792055249214172 0.0300394743680953979 0.0339188911020755768
-91.2683486938476562 -90.0042953491210938 10.8593816757202148 176 1645020047.09741378 0.9728279709815979 -0.228719219565391541 0.020174739882349968 0.0297704171389341354
-82.754913330078125 -94.091827392578125 11.1156091690063477 177 1645020049.19796634 0.968693673610687256 -0.247131168842315674 0.00635391008108854294 0.0227689202874898911
-74.0305557250976562 -99.282562255859375 11.2642736434936523 178 1645020051.2962594 0.968704700469970703 -0.24817773699760437 0.00405152281746268272 -0.00162537815049290657
-64.9651412963867188 -104.469512939453125 11.302119255065918 179 1645020053.09527135 0.961805403232574463 -0.27352440357208252 0.0094507317990064621 0.00504850735887885094
-56.5060844421386719 -110.692413330078125 11.337224006652832 180 1645020054.69483566 0.940378129482269287 -0.340105950832366943 -0.00190710998140275478 -0.00365086761303246021
-48.7723007202148438 -117.736312866210938 11.3966388702392578 181 1645020056.19507074 0.928243875503540039 -0.371873795986175537 0.00784794427454471588 0.00340544315986335278
-41.8427009582519531 -125.8021240234375 11.4915904998779297 182 1645020057.69669461 0.880449116230010986 -0.473650068044662476 -0.0024827450979501009 0.0214202292263507843
-37.4744148254394531 -134.806793212890625 11.7249164581298828 183 1645020059.0935638 0.835638701915740967 -0.549110889434814453 0.0126913683488965034 0.00490834517404437065
-34.0983924865722656 -144.222000122070312 11.9726619720458984 184 1645020060.49796271 0.807549238204956055 -0.58960270881652832 0.014603855088353157 0.00443389266729354858
-30.6242294311523438 -154.345291137695312 12.2446775436401367 185 1645020061.99331045 0.796008944511413574 -0.605043590068817139 0.00538037484511733055 0.0162209682166576385
-29.5780353546142578 -164.758575439453125 12.6060028076171875 186 1645020063.49642229 0.739936172962188721 -0.672159135341644287 0.0263616852462291718 0.00125905382446944714
-24.5610160827636719 -173.471237182617188 12.9721488952636719 187 1645020065.19243026 0.936068594455718994 -0.351625144481658936 0.0113553693518042564 0.00253807776607573032
-15.160731315612793 -177.478195190429688 13.1311473846435547 188 1645020067.09864974 0.986353158950805664 -0.163263961672782898 0.0167551152408123016 0.0130973560735583305
-5.21748638153076172 -181.221145629882812 13.2443399429321289 189 1645020068.79275703 0.975170612335205078 -0.217924818396568298 0.00630822870880365372 0.0388744845986366272
3.62085771560668945 -186.633148193359375 13.4738788604736328 190 1645020070.29431367 0.955912888050079346 -0.291523605585098267 -0.00486479327082633972 0.0349412038922309875
11.0401544570922852 -193.8746337890625 13.9277162551879883 191 1645020072.19412804 0.881030857563018799 -0.472289204597473145 0.0171537622809410095 0.020815165713429451
12.0523099899291992 -201.907760620117188 14.5298242568969727 192 1645020074.29215336 0.690296709537506104 -0.72247612476348877 0.0364482812583446503 0.0137907760217785835
14.0576562881469727 -208.392440795898438 14.9763708114624023 193 1645020076.29246569 0.907318294048309326 -0.420192122459411621 0.0142217157408595085 -0.0031371014192700386
21.9357986450195312 -209.234466552734375 14.9824542999267578 194 1645020078.39188552 0.999638020992279053 -0.00210844236426055431 0.00264745205640792847 0.0266897138208150864
31.6641597747802734 -210.6539306640625 15.2124614715576172 195 1645020080.39200544 0.986369132995605469 -0.157976731657981873 0.0109017826616764069 0.044726155698299408
40.6148262023925781 -216.032821655273438 15.822941780090332 196 1645020082.19224763 0.941693365573883057 -0.333273321390151978 0.0219327006489038467 0.0407614409923553467
48.5118751525878906 -222.928146362304688 16.6096382141113281 197 1645020083.89229941 0.935547769069671631 -0.350630372762680054 0.0285783428698778152 0.0314961075782775879
56.2674484252929688 -229.378280639648438 17.6030788421630859 198 1645020085.49507451 0.941947638988494873 -0.330069452524185181 0.0424658022820949554 0.0445588454604148865
65.8366622924804688 -236.902557373046875 18.5381488800048828 199 1645020087.59484768 0.936793327331542969 -0.348470509052276611 0.0154702086001634598 0.0273360703140497208
71.9939041137695312 -240.463027954101562 18.6666183471679688 200 1645020089.19449258 0.987471818923950195 -0.154823273420333862 -0.00878158304840326309 0.0291907750070095062
74.8776702880859375 -240.337081909179688 18.5952091217041016 201 1645020089.89565015 0.998619318008422852 0.0429796501994132996 -0.0135438200086355209 0.0269964709877967834
83.9106979370117188 -233.430557250976562 17.6623020172119141 202 1645020091.8957355 0.913184106349945068 0.404653489589691162 -0.0272017084062099457 0.0401301085948944092
93.2738723754882812 -221.896728515625 16.3043441772460938 203 1645020093.89655757 0.906892716884613037 0.417572766542434692 -0.0283916518092155457 0.0487085916101932526
103.7972412109375 -209.985244750976562 14.8820276260375977 204 1645020095.89689374 0.9089011549949646 0.413599938154220581 -0.0277543384581804276 0.0454258136451244354
114.906211853027344 -197.0947265625 13.7316370010375977 205 1645020097.99772882 0.914308845996856689 0.403448909521102905 -0.0131114497780799866 0.0331125371158123016
126.581245422363281 -184.93603515625 12.7340679168701172 206 1645020100.09421945 0.920133233070373535 0.389341920614242554 -0.0257397070527076721 0.0332448892295360565
136.74560546875 -172.977783203125 12.0654811859130859 207 1645020102.09567165 0.906499147415161133 0.419990271329879761 0.000653293449431657791 0.0432092286646366119
147.251785278320312 -162.164276123046875 11.8228368759155273 208 1645020104.09610915 0.939271390438079834 0.34271201491355896 0.00778058916330337524 0.0160366110503673553
158.90228271484375 -152.618179321289062 12.0881843566894531 209 1645020106.19240761 0.958396613597869873 0.284815937280654907 0.018553711473941803 0.00339488941244781017
171.712875366210938 -147.506103515625 12.8707094192504883 210 1645020108.19328761 0.989559173583984375 0.138547152280807495 0.0396216213703155518 0.00272752391174435616
185.35089111328125 -144.438568115234375 14.0602130889892578 211 1645020110.29307675 0.994969725608825684 0.086569666862487793 0.0502544380724430084 0.00393179105594754219
197.057159423828125 -144.181732177734375 15.2724533081054688 212 1645020112.29451895 0.998593270778656006 -0.0057361433282494545 0.0522749088704586029 0.00677389977499842644
209.101409912109375 -144.341201782226562 16.5869712829589844 213 1645020114.29516602 0.998260498046875 -0.0114432377740740776 0.0578016228973865509 0.00201084977015852928
220.861831665039062 -144.146270751953125 17.8696804046630859 214 1645020116.29645157 0.998349785804748535 0.0134365111589431763 0.0556727275252342224 0.00420808512717485428
232.48492431640625 -143.898086547851562 19.1187553405761719 215 1645020118.29908943 0.998286545276641846 0.00870160851627588272 0.0578445605933666229 -0.00150640227366238832
242.155029296875 -143.68304443359375 20.0078372955322266 216 1645020120.30030251 0.998849570751190186 0.00883400440216064453 0.0464136712253093719 0.00820116139948368073
248.476593017578125 -143.52166748046875 20.4853420257568359 217 1645020122.39820433 0.998685836791992188 0.00943918060511350632 0.0425261296331882477 0.0270010456442832947
256.55853271484375 -141.35980224609375 20.7019386291503906 218 1645020124.39919591 0.956789731979370117 0.28683808445930481 0.00685083214193582535 0.0472269579768180847
260.72332763671875 -131.111968994140625 19.9608783721923828 219 1645020126.40007401 0.747501730918884277 0.662181735038757324 -0.0159205533564090729 0.0500302426517009735
260.7996826171875 -117.724365234375 18.6632785797119141 220 1645020128.40041518 0.709038317203521729 0.701602041721343994 -0.00715976906940340996 0.0704835131764411926
260.636810302734375 -106.663131713867188 17.6447772979736328 221 1645020130.40462852 0.694497406482696533 0.716716587543487549 0.0046178894117474556 0.0630030855536460876
258.56243896484375 -91.4039077758789062 15.9681968688964844 222 1645020132.59892082 0.589782118797302246 0.804502665996551514 -0.0157218426465988159 0.0684497132897377014
251.797775268554688 -76.903289794921875 13.9474763870239258 223 1645020134.60046244 0.496015965938568115 0.865785539150238037 0.00948139652609825134 0.0655263513326644897
240.861312866210938 -64.6216964721679688 12.0584821701049805 224 1645020136.60214281 0.36384427547454834 0.928812086582183838 -0.00268404302187263966 0.0701302066445350647
228.4693603515625 -53.6022682189941406 10.0232963562011719 225 1645020138.60248494 0.343095302581787109 0.937036454677581787 -0.0150185944512486458 0.0634251758456230164
214.934555053710938 -42.3941268920898438 7.89694070816040039 226 1645020140.7024343 0.342336386442184448 0.937728583812713623 -0.0163917001336812973 0.0565882660448551178
201.484573364257812 -31.1752948760986328 5.91605758666992188 227 1645020142.79773545 0.338227629661560059 0.939392149448394775 -0.00164726376533508301 0.0560515411198139191
188.12481689453125 -20.1758384704589844 4.37631702423095703 228 1645020144.89900088 0.333649814128875732 0.941968441009521484 0.00171488220803439617 0.037017475813627243
176.119644165039062 -9.97417736053466797 3.42134618759155273 229 1645020146.90178704 0.348238497972488403 0.936989665031433105 -0.00543138524517416954 0.0274002514779567719
163.1627197265625 -0.961379885673522949 2.6299140453338623 230 1645020149.00383139 0.275126725435256958 0.961044669151306152 0.0137301599606871605 0.0225803256034851074
149.08905029296875 5.02945470809936523 2.17664694786071777 231 1645020151.09630179 0.129242405295372009 0.991392791271209717 0.0102654667571187019 0.0182026457041501999
134.787857055664062 6.94351816177368164 1.67328512668609619 232 1645020153.09642887 0.0407650470733642578 0.998814642429351807 0.0175022054463624954 0.0200304500758647919
119.720870971679688 6.31334733963012695 1.19301176071166992 233 1645020155.19634414 -0.0619602799415588379 0.997973859310150146 0.00785895716398954391 0.0121380090713500977
104.763175964355469 4.30576229095458984 0.785505950450897217 234 1645020157.29659176 -0.0490883961319923401 0.998421907424926758 0.0231709890067577362 0.0143939908593893051
90.3629837036132812 3.06855559349060059 0.385354518890380859 235 1645020159.29770327 -0.0320969894528388977 0.999257922172546387 0.0134889697656035423 0.0164747927337884903
76.2657012939453125 1.33745467662811279 0.0178944338113069534 236 1645020161.30031896 -0.071034550666809082 0.997376799583435059 0.00909706205129623413 0.0105280252173542976
61.3194046020507812 -0.778678417205810547 -0.294682890176773071 237 1645020163.39902043 -0.0579227395355701447 0.998161435127258301 0.0172033552080392838 0.00476897880434989929
46.3227043151855469 -2.4772040843963623 -0.465995728969573975 238 1645020165.49791169 -0.0608816817402839661 0.99801945686340332 0.01532742939889431 0.00395047012716531754
32.2155418395996094 -4.43274116516113281 -0.476331263780593872 239 1645020167.49832654 -0.0633226111531257629 0.997846603393554688 0.0159439723938703537 -0.00617525866255164146
18.3119354248046875 -5.89070892333984375 -0.251030892133712769 240 1645020169.49842429 -0.0470411032438278198 0.998801171779632568 0.00743605941534042358 -0.0113164233043789864
5.26790618896484375 -7.78037261962890625 0.0255103316158056259 241 1645020171.50012803 -0.0812501758337020874 0.996619880199432373 0.00830388534814119339 -0.00884784199297428131
-4.89767980575561523 -10.1627187728881836 0.287262052297592163 242 1645020173.50020194 -0.148517608642578125 0.98875582218170166 0.000986888189800083637 -0.0174192804843187332
-11.2632179260253906 -12.7083511352539062 0.399195194244384766 243 1645020175.50170755 -0.189785376191139221 0.98162531852722168 0.0198023412376642227 0.00105074944440275431
-11.3872909545898438 -12.761444091796875 0.425035387277603149 244 1645020177.60133553 -0.187862679362297058 0.981959283351898193 0.013354569673538208 -0.0168875418603420258
