# .PCD v0.7 - Point Cloud Data file format
VERSION 0.7
FIELDS x y z intensity t qx qy qz qw
SIZE 4 4 4 4 8 4 4 4 4
TYPE F F F F F F F F F
COUNT 1 1 1 1 1 1 1 1 1
WIDTH 160
HEIGHT 1
VIEWPOINT 0 0 0 1 0 0 0
POINTS 160
DATA ascii
-0.25172773003578186 0.0489184744656085968 -0.0737172290682792664 0 1645019384.95373392 0.999886631965637207 0.000429606821853667498 -0.013830249197781086 -0.00593809457495808601
-0.131286010146141052 0.0477690994739532471 -0.0542548075318336487 1 1645019387.95161915 0.99972224235534668 0.0170484017580747604 -0.00365113862790167332 -0.0158579126000404358
0.878426194190979004 0.811607599258422852 -0.0869983360171318054 2 1645019388.75279999 0.976481914520263672 0.214164838194847107 -0.0166636016219854355 -0.0184070300310850143
2.36221814155578613 2.65501236915588379 -0.0988781452178955078 3 1645019389.85482264 0.923068583011627197 0.384348183870315552 -0.00694691156968474388 -0.0131359053775668144
7.13183832168579102 7.19263982772827148 -0.197589486837387085 4 1645019391.85673857 0.946381211280822754 0.321912020444869995 -0.0241347216069698334 -0.0123581103980541229
16.1430931091308594 11.3384523391723633 -0.312410473823547363 5 1645019393.95717311 0.986049473285675049 0.165876612067222595 -0.00912422314286231995 0.0103966034948825836
25.9734821319580078 14.7644691467285156 -0.242816224694252014 6 1645019396.05284119 0.983535230159759521 0.180356606841087341 0.0077840220183134079 0.00832620076835155487
35.1115646362304688 19.261962890625 -0.148557156324386597 7 1645019397.95488548 0.962350904941558838 0.2715911865234375 0.00690742675215005875 0.00844089314341545105
43.222503662109375 25.7717742919921875 -0.0285390112549066544 8 1645019399.75469279 0.931126177310943604 0.364402949810028076 0.012974265031516552 0.00679946271702647209
49.8962173461914062 33.4820518493652344 0.0965480580925941467 9 1645019401.55349326 0.895116209983825684 0.445542514324188232 0.0121261933818459511 0.010573272593319416
55.1815376281738281 42.5129356384277344 0.277681946754455566 10 1645019403.45397067 0.847169220447540283 0.531126439571380615 0.0139398574829101562 0.00383292627520859241
58.8876304626464844 52.2634086608886719 0.442071735858917236 11 1645019405.45416641 0.810600638389587402 0.585371494293212891 0.0139820007607340813 0.00844668503850698471
61.2449836730957031 61.4371261596679688 0.589362740516662598 12 1645019407.45427537 0.782622933387756348 0.622240841388702393 0.0172045081853866577 0.00465836701914668083
62.4639091491699219 67.9889068603515625 0.703523695468902588 13 1645019409.4555397 0.776847183704376221 0.629171669483184814 0.00364860310219228268 0.0252612736076116562
63.4463310241699219 71.9742965698242188 0.7844582200050354 14 1645019411.45641327 0.785804569721221924 0.618234753608703613 0.00351807894185185432 0.0168697424232959747
64.92181396484375 77.5469131469726562 0.919369876384735107 15 1645019413.45672727 0.792889416217803955 0.609297394752502441 0.00738005293533205986 -0.00534879090264439583
67.9563522338867188 85.625152587890625 0.717802464962005615 16 1645019415.55734706 0.833195209503173828 0.55207747220993042 -0.0315626934170722961 1.67644102475605905e-05
70.5614395141601562 95.0266494750976562 0.198635175824165344 17 1645019417.55741954 0.759172677993774414 0.650065064430236816 -0.0325978398323059082 0.00310393213294446468
72.7990264892578125 104.804542541503906 -0.276900708675384521 18 1645019419.35996437 0.803544759750366211 0.594660103321075439 -0.0262277144938707352 0.0027026105672121048
76.9388351440429688 114.283668518066406 -0.88799816370010376 19 1645019421.05898833 0.856089890003204346 0.515080511569976807 -0.041556280106306076 0.00867402274161577225
82.8433303833007812 122.566879272460938 -1.44995474815368652 20 1645019422.85474348 0.902871191501617432 0.428672462701797485 -0.0313451625406742096 -0.00899929739534854889
89.3264617919921875 128.411224365234375 -1.80897390842437744 21 1645019424.85837364 0.954442322254180908 0.295634686946868896 0.00203707488253712654 -0.0404452122747898102
93.2428054809570312 129.689422607421875 -1.7218940258026123 22 1645019425.95442128 0.993633151054382324 0.107083261013031006 -0.000613989483099430799 -0.0350136198103427887
96.0338363647460938 129.3255615234375 -1.76616060733795166 23 1645019426.65405393 0.996640563011169434 -0.074346393346786499 -0.00757398689165711403 -0.0335095375776290894
99.0241470336914062 127.724090576171875 -1.93496465682983398 24 1645019427.35461497 0.963557004928588867 -0.264885514974594116 -0.0155616672709584236 -0.0339317098259925842
106.403778076171875 120.495521545410156 -2.57781410217285156 25 1645019429.05639124 0.901340186595916748 -0.431532144546508789 -0.0184874515980482101 -0.0320018976926803589
112.828254699707031 112.481269836425781 -3.27541971206665039 26 1645019430.45643902 0.906437218189239502 -0.418462276458740234 -0.0104231266304850578 -0.0561445429921150208
119.809898376464844 104.381988525390625 -3.85833883285522461 27 1645019431.85855985 0.908846437931060791 -0.413758158683776855 0.000967073196079581976 -0.0529286079108715057
126.608749389648438 96.1084365844726562 -4.31300592422485352 28 1645019433.25889921 0.894105732440948486 -0.44548448920249939 -0.000681529229041188955 -0.0460222996771335602
132.649765014648438 87.2612152099609375 -4.75670146942138672 29 1645019434.66008306 0.877629935741424561 -0.476927667856216431 -0.0014221736928448081 -0.0479964874684810638
138.837966918945312 78.54827880859375 -5.1855769157409668 30 1645019436.06019568 0.890418827533721924 -0.45452582836151123 0.00986356008797883987 -0.021524425595998764
144.801773071289062 69.6595916748046875 -5.56726598739624023 31 1645019437.45989966 0.873250484466552734 -0.485856533050537109 -0.00128501956351101398 -0.0370852872729301453
149.938690185546875 61.0274848937988281 -5.9596562385559082 32 1645019438.7603941 0.868788719177246094 -0.493639737367630005 -0.00563069013878703117 -0.0386561676859855652
155.502670288085938 51.9695625305175781 -6.32447481155395508 33 1645019440.15782547 0.871661603450775146 -0.489284306764602661 -0.00238107051700353622 -0.0283052884042263031
160.721267700195312 42.6404953002929688 -6.60585641860961914 34 1645019441.55462956 0.857838928699493408 -0.512917220592498779 0.00282926834188401699 -0.0319420173764228821
165.547027587890625 33.0821647644042969 -6.94890832901000977 35 1645019442.9591608 0.844963490962982178 -0.534037351608276367 0.000970603665336966515 -0.028979964554309845
169.933975219726562 23.3631820678710938 -7.23302555084228516 36 1645019444.35434365 0.834315478801727295 -0.550752520561218262 0.00209575355984270573 -0.0241852123290300369
173.913803100585938 13.4271526336669922 -7.50330972671508789 37 1645019445.75498009 0.8236350417137146 -0.566303133964538574 0.00372548098675906658 -0.0302023515105247498
177.685806274414062 3.44471645355224609 -7.73354721069335938 38 1645019447.15415573 0.822346687316894531 -0.568475186824798584 0.0112126590684056282 -0.0213577225804328918
181.464569091796875 -6.51643562316894531 -7.95782279968261719 39 1645019448.55444813 0.823795080184936523 -0.566501200199127197 0.00306921941228210926 -0.0207033753395080566
185.341903686523438 -16.4350757598876953 -8.08065509796142578 40 1645019449.95485187 0.821125268936157227 -0.570502579212188721 0.00816008634865283966 -0.0146104888990521431
188.855926513671875 -26.3645133972167969 -8.08019924163818359 41 1645019451.35438943 0.813151776790618896 -0.581840276718139648 0.00926912110298871994 -0.0126539189368486404
192.302749633789062 -36.2708969116210938 -8.01577186584472656 42 1645019452.7546649 0.812928140163421631 -0.582225978374481201 0.0123755363747477531 -0.00275078509002923965
195.713272094726562 -46.0466270446777344 -7.88937187194824219 43 1645019454.15394711 0.816240012645721436 -0.577493906021118164 0.0157188344746828079 -0.00243950542062520981
199.160491943359375 -55.7585563659667969 -7.69058132171630859 44 1645019455.55529547 0.81269305944442749 -0.582447528839111328 0.0168777275830507278 2.12932773138163611e-05
202.3187255859375 -65.5546417236328125 -7.43706703186035156 45 1645019456.95802569 0.803732633590698242 -0.594537138938903809 0.0232153721153736115 -0.00070576398866251111
205.397247314453125 -75.36029052734375 -7.17584133148193359 46 1645019458.3563292 0.805930793285369873 -0.591905593872070312 0.00979704968631267548 0.00523071782663464546
208.799484252929688 -84.9918289184570312 -6.84087753295898438 47 1645019459.75789213 0.815119445323944092 -0.578895211219787598 0.0147058824077248573 0.015631234273314476
212.019500732421875 -94.7017898559570312 -6.53959035873413086 48 1645019461.15587783 0.805152595043182373 -0.592969179153442383 0.00665059871971607208 0.00852141901850700378
214.781707763671875 -104.515365600585938 -6.20222568511962891 49 1645019462.55899835 0.789198696613311768 -0.613659203052520752 0.0235698819160461426 0.0056779603473842144
216.95233154296875 -114.418693542480469 -5.77965021133422852 50 1645019463.95616651 0.772855579853057861 -0.633813917636871338 0.0302810370922088623 -0.00756295491009950638
218.538131713867188 -124.419891357421875 -5.42233133316040039 51 1645019465.35916448 0.75046837329864502 -0.66025310754776001 0.0286204107105731964 -0.00662629446014761925
219.080001831054688 -134.621780395507812 -5.12283992767333984 52 1645019466.75665784 0.695461571216583252 -0.718048393726348877 0.0262838471680879593 -0.00699509540572762489
217.716156005859375 -144.771224975585938 -4.87109899520874023 53 1645019468.15697789 0.63375622034072876 -0.772859573364257812 0.0304039623588323593 -0.0108032533898949623
214.741485595703125 -154.5416259765625 -4.63273048400878906 54 1645019469.55794144 0.567176759243011475 -0.82305753231048584 0.0295860134065151215 -0.00338862300850450993
210.459060668945312 -163.69757080078125 -4.35371303558349609 55 1645019470.95873332 0.519378840923309326 -0.854109108448028564 0.0272028110921382904 -0.00181606120895594358
205.446212768554688 -173.12835693359375 -3.82784461975097656 56 1645019472.45865011 0.524302244186401367 -0.851195752620697021 0.0238539595156908035 0.00197586929425597191
200.725494384765625 -182.462493896484375 -3.24759054183959961 57 1645019473.95879054 0.523779809474945068 -0.850506842136383057 0.0421478189527988434 0.022723836824297905
196.042190551757812 -191.627182006835938 -2.49847817420959473 58 1645019475.46223927 0.517825722694396973 -0.854204416275024414 0.0383345074951648712 0.0268666017800569534
191.573318481445312 -200.579315185546875 -1.62560498714447021 59 1645019476.9629519 0.52556765079498291 -0.849080026149749756 0.0371708720922470093 0.038210943341255188
186.977935791015625 -209.69366455078125 -0.596302807331085205 60 1645019478.56340075 0.508568465709686279 -0.859241783618927002 0.034916996955871582 0.0429244153201580048
182.1029052734375 -218.787811279296875 0.442237555980682373 61 1645019480.26351357 0.51267772912979126 -0.856522679328918457 0.0343805402517318726 0.0484598055481910706
177.30950927734375 -227.834716796875 1.69714128971099854 62 1645019482.06247735 0.518086671829223633 -0.852372944355010986 0.0479101650416851044 0.0524515733122825623
172.35650634765625 -236.605087280273438 2.88410639762878418 63 1645019483.96290994 0.501497805118560791 -0.862539947032928467 0.0549833178520202637 0.0387507155537605286
166.9686279296875 -245.245513916015625 4.03556346893310547 64 1645019485.96315527 0.474811166524887085 -0.87779390811920166 0.0524840094149112701 0.0357435569167137146
160.666351318359375 -253.405380249023438 5.07334423065185547 65 1645019487.962924 0.403949499130249023 -0.912349402904510498 0.0593906491994857788 0.0302670858800411224
152.98614501953125 -260.306365966796875 6.15679216384887695 66 1645019489.95906091 0.325227409601211548 -0.942597627639770508 0.0673721134662628174 0.0346097797155380249
144.22454833984375 -265.621490478515625 7.09192466735839844 67 1645019491.95817947 0.228746622800827026 -0.971478164196014404 0.0550451762974262238 0.0295844580978155136
134.60546875 -269.740478515625 7.91796350479125977 68 1645019493.95819473 0.166785553097724915 -0.984234988689422607 0.0416262298822402954 0.0416090600192546844
124.342491149902344 -271.695281982421875 8.76758480072021484 69 1645019495.96154547 0.0486391633749008179 -0.997683703899383545 0.0409466437995433807 0.0241826437413692474
113.953094482421875 -272.694732666015625 9.39878177642822266 70 1645019497.95659685 0.0691600814461708069 -0.995993077754974365 0.0461622141301631927 0.0329196378588676453
104.011650085449219 -273.688140869140625 10.0961475372314453 71 1645019499.85757637 -0.00828451011329889297 -0.998403191566467285 0.0411727018654346466 0.0377781689167022705
94.752532958984375 -271.382476806640625 10.5168313980102539 72 1645019501.65640926 -0.191627010703086853 -0.979490816593170166 0.0545801930129528046 0.0299645550549030304
88.6089859008789062 -267.300750732421875 10.6042118072509766 73 1645019503.05800033 -0.364293932914733887 -0.93035048246383667 0.0409035943448543549 0.00805015303194522858
86.7061233520507812 -264.06927490234375 10.3728542327880859 74 1645019503.85728788 -0.526946544647216797 -0.848253846168518066 0.0483875833451747894 -0.021246371790766716
84.4378890991210938 -254.280059814453125 9.47271537780761719 75 1645019505.66644001 -0.638110041618347168 -0.769479751586914062 0.0207334700971841812 -0.01692969910800457
82.7747726440429688 -244.09869384765625 8.4539794921875 76 1645019507.2623601 -0.653251945972442627 -0.755117535591125488 0.0409178696572780609 -0.037217654287815094
80.7899703979492188 -233.879119873046875 7.31181573867797852 77 1645019508.66179228 -0.622277498245239258 -0.781232893466949463 0.0328472703695297241 -0.0369725935161113739
78.0675888061523438 -224.127105712890625 6.19133901596069336 78 1645019509.96140575 -0.59523242712020874 -0.801384329795837402 0.0352250486612319946 -0.0473359040915966034
75.2982101440429688 -214.093154907226562 5.02357959747314453 79 1645019511.26137328 -0.614789843559265137 -0.786753416061401367 0.025702204555273056 -0.0489074103534221649
72.851898193359375 -203.667037963867188 3.87114214897155762 80 1645019512.56181145 -0.626704096794128418 -0.777328968048095703 0.0212063398212194443 -0.0505170486867427826
70.03955078125 -193.3194580078125 2.74188351631164551 81 1645019513.86029816 -0.5752105712890625 -0.816274762153625488 0.0379414521157741547 -0.0372665636241436005
65.1780014038085938 -183.827972412109375 1.81940138339996338 82 1645019515.16196728 -0.501338303089141846 -0.864194035530090332 0.0210286695510149002 -0.0372342243790626526
59.5268440246582031 -175.07904052734375 1.15729010105133057 83 1645019516.4603231 -0.45876765251159668 -0.888196170330047607 0.0137187391519546509 -0.0212503522634506226
52.4156532287597656 -167.957229614257812 0.75288921594619751 84 1645019517.7612741 -0.337883621454238892 -0.940823495388031006 0.0187601875513792038 -0.0182704553008079529
43.9393501281738281 -161.926666259765625 0.642103970050811768 85 1645019519.16114354 -0.284336268901824951 -0.958699643611907959 0.00146952609065920115 0.00676444312557578087
35.4314155578613281 -156.526901245117188 0.840524375438690186 86 1645019520.56087136 -0.280899256467819214 -0.959359109401702881 0.00712433271110057831 0.0259799901396036148
26.4248924255371094 -150.884689331054688 1.0177079439163208 87 1645019522.06141829 -0.278581559658050537 -0.960145413875579834 0.0139518119394779205 0.0178446285426616669
17.5008525848388672 -145.5555419921875 1.50623512268066406 88 1645019523.56387401 -0.24744713306427002 -0.968283772468566895 0.00939545966684818268 0.0332886353135108948
8.43205451965332031 -141.060592651367188 2.00109004974365234 89 1645019525.06382394 -0.22496679425239563 -0.973904013633728027 -0.003569410415366292 0.0298027712851762772
-0.8753814697265625 -136.14300537109375 2.59023404121398926 90 1645019526.6616981 -0.254254400730133057 -0.966624796390533447 -0.00284695415757596493 0.0313548371195793152
-9.71570587158203125 -130.9681396484375 3.27340412139892578 91 1645019528.26006317 -0.269888639450073242 -0.962162554264068604 -0.00363647774793207645 0.0372842960059642792
-18.6501255035400391 -125.58935546875 4.02708673477172852 92 1645019529.95942688 -0.269765645265579224 -0.962045252323150635 -0.00429147575050592422 0.0409510955214500427
-27.3178596496582031 -120.401878356933594 4.78231954574584961 93 1645019531.65868568 -0.256868243217468262 -0.965415716171264648 0.00372094474732875824 0.0444674044847488403
-36.577667236328125 -115.638557434082031 5.618316650390625 94 1645019533.45954561 -0.232118353247642517 -0.971779227256774902 -0.00186283339280635118 0.0419843271374702454
-41.8435325622558594 -114.170799255371094 6.04357624053955078 95 1645019534.46059918 -0.0456811897456645966 -0.998221814632415771 0.00537898251786828041 0.0379147268831729889
-45.0735740661621094 -114.948760986328125 6.29423809051513672 96 1645019535.16057777 0.143649205565452576 -0.989137589931488037 -0.00312868435867130756 0.0310146640986204147
-47.64715576171875 -116.752517700195312 6.48809480667114258 97 1645019535.85997558 0.316841334104537964 -0.947834551334381104 -0.0104920081794261932 0.0333341658115386963
-51.3066558837890625 -121.347991943359375 6.26548004150390625 98 1645019536.9607892 0.477398425340652466 -0.878555595874786377 -0.0122940260916948318 -0.00892722140997648239
-55.4803009033203125 -130.484634399414062 6.41577529907226562 99 1645019538.76042652 0.54088902473449707 -0.840958952903747559 0.00066093960776925087 0.0150553928688168526
-59.8623695373535156 -139.641387939453125 6.73904514312744141 100 1645019540.66216397 0.530167341232299805 -0.847420930862426758 -0.00893381703644990921 0.026842677965760231
-64.7464752197265625 -148.56256103515625 7.12129306793212891 101 1645019542.4619298 0.510048925876617432 -0.85988384485244751 -4.07495235776877962e-06 0.0212113335728645325
-69.562652587890625 -157.790390014648438 7.57121133804321289 102 1645019544.36077309 0.514871954917907715 -0.856766998767852783 0.00203654170036315918 0.0292064491659402847
-72.5602035522460938 -165.312347412109375 8.01058864593505859 103 1645019546.26031828 0.703882813453674316 -0.710174322128295898 0.0138878338038921356 0.00292369467206299305
-71.740020751953125 -166.643142700195312 8.06389045715332031 104 1645019546.7648015 0.833826899528503418 -0.551850557327270508 0.00929945241659879684 0.0103549137711524963
-70.1785888671875 -167.99761962890625 8.04484462738037109 105 1645019547.36330199 0.918520450592041016 -0.39440116286277771 -0.0123134497553110123 0.02482634037733078
-62.6431007385253906 -173.107467651367188 7.99923276901245117 106 1645019549.36332417 0.970190167427062988 -0.241731166839599609 -0.00786474067717790604 0.015337727963924408
-52.6471214294433594 -176.505767822265625 7.89214944839477539 107 1645019551.16388941 0.996106922626495361 -0.0863158255815505981 -0.0124663487076759338 0.0128504466265439987
-42.1352500915527344 -175.975067138671875 7.53143501281738281 108 1645019552.76407075 0.999738335609436035 0.00478112604469060898 -0.0196884386241436005 0.0106195565313100815
-32.4697799682617188 -178.528060913085938 7.18009853363037109 109 1645019554.36626077 0.971440494060516357 -0.236095532774925232 -0.0181064456701278687 0.0153094930574297905
-23.4138984680175781 -183.7138671875 6.94072771072387695 110 1645019555.96707892 0.967760920524597168 -0.251394271850585938 -0.0150599414482712746 0.00358821800909936428
-14.473576545715332 -188.541778564453125 6.79971170425415039 111 1645019557.36263108 0.969223082065582275 -0.245904505252838135 -0.00385314738377928734 0.0110788978636264801
-5.50662946701049805 -193.555252075195312 6.96378898620605469 112 1645019558.76490808 0.964478552341461182 -0.261996567249298096 -0.00631212396547198296 0.033152453601360321
3.28322935104370117 -198.843017578125 7.059478759765625 113 1645019560.16646814 0.961881399154663086 -0.272293835878372192 -0.00269962637685239315 0.0251595731824636459
11.8909511566162109 -204.22711181640625 7.20328760147094727 114 1645019561.56477499 0.961194872856140137 -0.275362759828567505 0.00272669829428195953 0.0165036097168922424
21.1281013488769531 -209.663589477539062 7.34580278396606445 115 1645019563.06669617 0.962864935398101807 -0.26860278844833374 0.00372011982835829258 0.0270162224769592285
26.2258930206298828 -214.477767944335938 7.72846794128417969 116 1645019564.06531262 0.894038617610931396 -0.446071863174438477 0.0233334377408027649 0.03421039879322052
30.6895771026611328 -223.566085815429688 8.78684520721435547 117 1645019565.56368065 0.841440320014953613 -0.53635638952255249 0.0570622943341732025 0.0323104336857795715
33.801422119140625 -233.167495727539062 10.0735511779785156 118 1645019567.16603613 0.775987863540649414 -0.628292083740234375 0.045330531895160675 0.0322030633687973022
34.6014480590820312 -243.579086303710938 10.9390544891357422 119 1645019568.9647193 0.69344639778137207 -0.719556033611297607 0.0173876509070396423 0.0326939299702644348
32.8882026672363281 -249.975051879882812 11.4373283386230469 120 1645019570.16446161 0.552501261234283447 -0.832743406295776367 0.0238594189286231995 0.0266743861138820648
31.5271110534667969 -259.254913330078125 12.1739845275878906 121 1645019572.16453314 0.800615370273590088 -0.598461568355560303 0.0275116767734289169 0.0100948801264166832
35.174896240234375 -262.35650634765625 12.2532997131347656 122 1645019573.2673595 0.968242108821868896 -0.249855667352676392 0.00240679271519184113 -0.00857629533857107162
37.5591468811035156 -262.697113037109375 12.1710433959960938 123 1645019573.76319385 0.997565865516662598 -0.0639233514666557312 -0.0211735945194959641 -0.0181071441620588303
40.0541763305664062 -262.068878173828125 12.0271739959716797 124 1645019574.26805878 0.990758121013641357 0.130582138895988464 -0.0338276252150535583 -0.0142238857224583626
48.9634590148925781 -256.8353271484375 11.2643346786499023 125 1645019576.06056571 0.9694976806640625 0.242835313081741333 -0.0315839685499668121 0.0103783300146460533
58.2291374206542969 -252.86334228515625 10.4249782562255859 126 1645019577.66313243 0.982937753200531006 0.178192690014839172 -0.0345719568431377411 0.0297572184354066849
68.2061843872070312 -249.651168823242188 9.55494403839111328 127 1645019579.36503148 0.989101529121398926 0.1317577064037323 -0.0403441451489925385 0.0518697686493396759
78.42144775390625 -246.30023193359375 8.71972274780273438 128 1645019581.46370602 0.95499497652053833 0.289880245923995972 -0.0506263747811317444 0.037295658141374588
79.8736572265625 -244.186309814453125 8.42900466918945312 129 1645019582.16560578 0.886101126670837402 0.458913624286651611 -0.0520768873393535614 0.0388725735247135162
80.4264450073242188 -241.738052368164062 8.13138961791992188 130 1645019582.76335883 0.782010197639465332 0.620412290096282959 -0.0460869893431663513 0.0377439558506011963
78.5902175903320312 -230.108367919921875 6.82888698577880859 131 1645019584.76438355 0.620443940162658691 0.78219980001449585 -0.0262754391878843307 0.0502239018678665161
75.3793792724609375 -215.440460205078125 5.16277647018432617 132 1645019586.76462817 0.658780336380004883 0.749747514724731445 -0.020732605829834938 0.0587987527251243591
71.9609832763671875 -199.165817260742188 3.37360477447509766 133 1645019588.86465788 0.584268033504486084 0.809555113315582275 -0.0298195630311965942 0.0486028380692005157
65.0832672119140625 -183.662322998046875 1.79582548141479492 134 1645019590.96287823 0.511391818523406982 0.858257293701171875 -0.0206132587045431137 0.0380511879920959473
55.7269935607910156 -171.001434326171875 0.900141298770904541 135 1645019592.96490455 0.393702775239944458 0.919069468975067139 -0.0138312196359038353 0.0108695589005947113
43.3431434631347656 -161.347686767578125 0.635396838188171387 136 1645019595.06348133 0.275232017040252686 0.961335718631744385 -0.00594249879941344261 -0.00675791548565030098
30.3626155853271484 -153.877288818359375 0.933909893035888672 137 1645019597.16344786 0.268088877201080322 0.963226079940795898 -0.0133113870397210121 -0.0121095161885023117
18.4748420715332031 -146.621719360351562 1.43618035316467285 138 1645019599.16441083 0.27587011456489563 0.960725188255310059 -0.00715257879346609116 -0.0291824433952569962
6.91793155670166016 -139.791290283203125 2.1091926097869873 139 1645019601.16518569 0.256868600845336914 0.965782344341278076 -0.00367142399773001671 -0.0356300882995128632
-4.86976385116577148 -133.964157104492188 2.8735654354095459 140 1645019603.16755223 0.217827171087265015 0.975515961647033691 0.00257380679249763489 -0.0302213262766599655
-16.5910453796386719 -127.8297119140625 3.80581045150756836 141 1645019605.26705337 0.251015841960906982 0.967306792736053467 0.00745561020448803902 -0.0353974401950836182
-27.6499290466308594 -121.555984497070312 4.77277708053588867 142 1645019607.36782908 0.258921980857849121 0.965151429176330566 -0.00216928799636662006 -0.0379136539995670319
-36.5293846130371094 -115.3170166015625 5.61371326446533203 143 1645019609.36873174 0.357420533895492554 0.933172881603240967 -0.000293730321573093534 -0.0379318296909332275
-41.1989364624023438 -109.218284606933594 6.14082622528076172 144 1645019611.46575642 0.510302722454071045 0.858873844146728516 -0.0106053901836276054 -0.0425956025719642639
-42.4593429565429688 -103.951736450195312 6.27455425262451172 145 1645019612.76984811 0.657493531703948975 0.752846121788024902 -0.00974954757839441299 -0.0288080312311649323
-41.8090019226074219 -98.8119964599609375 6.32223272323608398 146 1645019613.86900568 0.78955155611038208 0.613214194774627686 -0.0199573375284671783 -0.0133553929626941681
-37.1204376220703125 -89.9679794311523438 5.94879341125488281 147 1645019615.66825891 0.864180803298950195 0.501243352890014648 -0.0433624722063541412 -0.00814650952816009521
-32.4984130859375 -80.933929443359375 5.30465793609619141 148 1645019617.16701865 0.854321599006652832 0.518376290798187256 -0.0375080406665802002 -0.00371513213030993938
-27.7395000457763672 -71.7546844482421875 4.72782707214355469 149 1645019618.56594729 0.8587760329246521 0.511817812919616699 -0.0233671665191650391 0.000468619691673666239
-22.2762680053710938 -62.6589317321777344 4.13063907623291016 150 1645019619.96733975 0.864807605743408203 0.500563085079193115 -0.0382378064095973969 -0.00906996149569749832
-17.1154708862304688 -53.4145050048828125 3.62344980239868164 151 1645019621.36720943 0.852886319160461426 0.521065890789031982 -0.0308814868330955505 -0.0110278232023119926
-12.1565170288085938 -44.2234420776367188 3.33911991119384766 152 1645019622.76999426 0.856236040592193604 0.515551269054412842 -0.0276788007467985153 -0.0173367615789175034
-7.76408958435058594 -34.9501991271972656 3.06212401390075684 153 1645019624.26952624 0.842686712741851807 0.537675023078918457 -0.0265429578721523285 -0.00895416364073753357
-3.80479598045349121 -25.4757232666015625 2.82676911354064941 154 1645019625.77004623 0.819178223609924316 0.572302103042602539 -0.0326192639768123627 -0.0187967438250780106
-0.612606287002563477 -15.8360958099365234 2.78760719299316406 155 1645019627.27098513 0.812043488025665283 0.583030998706817627 -0.0219475161284208298 -0.0133617827668786049
1.96068179607391357 -4.40883970260620117 2.72817611694335938 156 1645019629.37269044 0.746329724788665771 0.665017008781433105 -0.022516738623380661 -0.0154042672365903854
1.61574935913085938 2.28417491912841797 2.78705573081970215 157 1645019631.06819224 0.604673266410827637 0.795654773712158203 -0.0257809814065694809 -0.0252791587263345718
-0.18572486937046051 4.74271583557128906 2.88812446594238281 158 1645019632.27039957 0.44847029447555542 0.89350813627243042 -0.011765659786760807 -0.0194724481552839279
-0.880910754203796387 5.46774005889892578 2.92597389221191406 159 1645019634.36480284 0.417306661605834961 0.908446371555328369 -0.0125544508919119835 -0.0205598399043083191
