# .PCD v0.7 - Point Cloud Data file format
VERSION 0.7
FIELDS x y z intensity t qx qy qz qw
SIZE 4 4 4 4 8 4 4 4 4
TYPE F F F F F F F F F
COUNT 1 1 1 1 1 1 1 1 1
WIDTH 204
HEIGHT 1
VIEWPOINT 0 0 0 1 0 0 0
POINTS 204
DATA ascii
2.94008040428161621 -5.49204301834106445 -1.57095658779144287 0 1645008371.25253248 0.999572634696960449 -0.0136922271922230721 0.0102569796144962311 0.0237040258944034576
3.11700129508972168 -5.51264524459838867 -1.53359556198120117 1 1645008373.65382552 0.999211251735687256 -0.0179047007113695145 0.024362809956073761 0.0257437229156494141
6.9132080078125 -6.82521820068359375 -1.45428431034088135 2 1645008375.25333071 0.979357421398162842 -0.20108717679977417 0.00960139650851488113 0.0181894861161708832
14.1758880615234375 -12.6307992935180664 -1.17368900775909424 3 1645008377.25586605 0.938441097736358643 -0.344748824834823608 0.0182644706219434738 0.0119574228301644325
22.6615200042724609 -17.9749603271484375 -0.809023439884185791 4 1645008379.05520964 0.982291102409362793 -0.186705946922302246 0.0152558237314224243 0.00350409769453108311
28.5589046478271484 -17.2792339324951172 -0.705256462097167969 5 1645008380.25519466 0.983572483062744141 0.180353328585624695 0.00383025640621781349 -0.00657048868015408516
31.8884010314941406 -14.6170492172241211 -0.721501469612121582 6 1645008381.05436635 0.935352325439453125 0.353578001260757446 -0.00505473325029015541 -0.00854458194226026535
38.0827903747558594 -6.70951223373413086 -0.813931465148925781 7 1645008382.75605774 0.887853384017944336 0.460033833980560303 -0.00891541969031095505 -0.00239284592680633068
43.7456779479980469 1.60826492309570312 -0.934037923812866211 8 1645008384.85600162 0.887487530708312988 0.46071326732635498 -0.00931591540575027466 -0.00473058829084038734
49.7540283203125 9.60835552215576172 -1.06126856803894043 9 1645008386.75669527 0.90660548210144043 0.421895593404769897 -0.00545740872621536255 0.00639184610918164253
58.7185096740722656 12.274104118347168 -1.0949251651763916 10 1645008388.85326076 0.989686012268066406 -0.138615190982818604 -0.0098122376948595047 0.0348015017807483673
61.8816184997558594 8.46775722503662109 -0.97463834285736084 11 1645008390.04991364 0.862221717834472656 -0.506011366844177246 -0.00931614916771650314 0.020961422473192215
62.7373046875 4.91950750350952148 -0.928249955177307129 12 1645008390.9579165 0.756993591785430908 -0.65331578254699707 -0.00803141482174396515 0.00864155218005180359
62.1098098754882812 2.3299555778503418 -0.898809134960174561 13 1645008391.5509913 0.619041085243225098 -0.785199642181396484 0.0155064789578318596 0.00302630523219704628
58.9913520812988281 -3.09818816184997559 -0.793480515480041504 14 1645008392.75145531 0.464871913194656372 -0.885007023811340332 0.0256055146455764771 -0.00099298765417188406
52.4691543579101562 -11.2890520095825195 -0.702049016952514648 15 1645008394.45270729 0.434763461351394653 -0.899849772453308105 0.0351289473474025726 -0.00413931487128138542
46.323394775390625 -19.6815319061279297 -0.584986567497253418 16 1645008396.05492353 0.448468655347824097 -0.89329993724822998 0.0274368505924940109 -0.0117617659270763397
40.0593185424804688 -28.0609188079833984 -0.422758579254150391 17 1645008397.65427089 0.444416671991348267 -0.895287990570068359 0.0305368471890687943 -0.00455283839255571365
33.6652183532714844 -35.9945907592773438 -0.237807855010032654 18 1645008399.25372171 0.405266493558883667 -0.913724899291992188 0.0294253472238779068 0.00019919630722142756
28.9001846313476562 -39.4674606323242188 -0.0957994610071182251 19 1645008400.3528192 0.228659346699714661 -0.973440408706665039 0.0070351259782910347 0.00889945589005947113
25.5372638702392578 -40.0913352966308594 -0.107935935258865356 20 1645008401.05540824 0.056512143462896347 -0.998353779315948486 0.00115023052785545588 -0.00973494164645671844
16.5602912902832031 -39.2163124084472656 -0.302315622568130493 21 1645008403.1552484 0.0495665222406387329 -0.998325109481811523 0.0295940283685922623 -0.00378000480122864246
8.67456150054931641 -45.8632240295410156 -0.112416781485080719 22 1645008405.15558219 0.437189042568206787 -0.899257183074951172 0.0125396512448787689 0.00670529576018452644
3.72772550582885742 -53.6700859069824219 0.0989820212125778198 23 1645008407.25599098 0.51263737678527832 -0.85847848653793335 0.0138180535286664963 0.00515838060528039932
3.00297188758850098 -56.7017250061035156 0.185911819338798523 24 1645008408.05400324 0.657931089401245117 -0.752459287643432617 0.0288390573114156723 -0.0100010037422180176
3.51279687881469727 -58.1103363037109375 0.235507607460021973 25 1645008408.45350575 0.783306777477264404 -0.621291995048522949 0.0195303130894899368 -0.00673498911783099174
4.69042491912841797 -59.7212715148925781 0.293289214372634888 26 1645008408.95404983 0.879917442798614502 -0.474741727113723755 0.0191168505698442459 -0.000281071115750819445
10.4472951889038086 -65.0381240844726562 0.516903519630432129 27 1645008410.55221796 0.953258872032165527 -0.301313012838363647 0.0171450953930616379 -0.014631231315433979
13.4125699996948242 -66.0956573486328125 0.578569173812866211 28 1645008411.15612435 0.992739975452423096 -0.114664994180202484 0.00849349983036518097 -0.0353148728609085083
15.4113855361938477 -65.788909912109375 0.605057001113891602 29 1645008411.55932689 0.997249960899353027 0.0663123875856399536 -0.00749704055488109589 -0.0322328507900238037
17.3697109222412109 -64.5964431762695312 0.606850385665893555 30 1645008412.05829501 0.970630526542663574 0.240345925092697144 -0.009786996990442276 0.0037960452027618885
21.4691524505615234 -60.54083251953125 0.53442835807800293 31 1645008413.25149059 0.913169920444488525 0.40716513991355896 -0.00503726955503225327 0.0176610406488180161
28.2737388610839844 -53.1750869750976562 0.315613538026809692 32 1645008415.15171361 0.957473516464233398 0.286799401044845581 -0.0058012939989566803 0.0309341549873352051
34.5475921630859375 -54.8112869262695312 0.375466465950012207 33 1645008417.05117321 0.88928455114364624 -0.455858588218688965 -0.0247498098760843277 0.0274478867650032043
34.5212440490722656 -56.0931320190429688 0.397789090871810913 34 1645008417.45159101 0.781409919261932373 -0.623806893825531006 -0.0130025902763009071 0.00971823558211326599
34.0968780517578125 -57.2359428405761719 0.425753295421600342 35 1645008417.8513689 0.649993777275085449 -0.759835600852966309 -0.00844489037990570068 0.00930583197623491287
33.0569877624511719 -58.5714073181152344 0.470297306776046753 36 1645008418.35097599 0.49277922511100769 -0.870112419128417969 0.0031132865697145462 0.00795945525169372559
27.1780281066894531 -65.5452346801757812 0.666243493556976318 37 1645008420.35127354 0.427833259105682373 -0.903684079647064209 0.0172385275363922119 0.00406882492825388908
21.6960182189941406 -70.5524215698242188 0.810393333435058594 38 1645008421.8516469 0.244464725255966187 -0.969636142253875732 -0.00557215092703700066 0.0034267085138708353
19.1969852447509766 -70.9043807983398438 0.808336019515991211 39 1645008422.45114422 0.0466427579522132874 -0.998766779899597168 -0.0103742191568017006 -0.013482438400387764
17.0145931243896484 -70.2504730224609375 0.74872058629989624 40 1645008423.05074739 -0.13947451114654541 -0.990039527416229248 -0.00264820922166109085 -0.0190144777297973633
11.1499061584472656 -66.3664474487304688 0.561902284622192383 41 1645008424.65093899 -0.310854732990264893 -0.95038837194442749 0.00882591679692268372 -0.00730653014034032822
2.4996333122253418 -61.5048065185546875 0.291631758213043213 42 1645008426.65356946 -0.117557182908058167 -0.992718815803527832 0.0219567064195871353 -0.0144085679203271866
-0.885700821876525879 -61.8267440795898438 0.400682955980300903 43 1645008427.45087838 0.0718284919857978821 -0.996859848499298096 0.0136866997927427292 0.0303939580917358398
-3.68994903564453125 -62.9990043640136719 0.661248087882995605 44 1645008428.15169358 0.246681928634643555 -0.966591238975524902 0.0600640811026096344 0.035238262265920639
-9.67427158355712891 -69.957550048828125 1.47467136383056641 45 1645008430.15233159 0.457749038934707642 -0.886229813098907471 0.0709292963147163391 -0.00561707094311714172
-14.9859180450439453 -78.9417343139648438 1.92837643623352051 46 1645008432.05166817 0.491222798824310303 -0.867643296718597412 0.076764233410358429 0.00159238255582749844
-20.4930782318115234 -87.748077392578125 2.31759357452392578 47 1645008433.85395241 0.470238268375396729 -0.881679296493530273 0.0388692952692508698 -0.00259580370038747787
-26.3984298706054688 -96.2419967651367188 2.28258752822875977 48 1645008435.45312524 0.456148058176040649 -0.889383018016815186 0.0253984611481428146 -0.0167834814637899399
-32.6355361938476562 -104.522346496582031 2.30618548393249512 49 1645008437.05659413 0.44206121563911438 -0.896412014961242676 0.0305918212980031967 -0.00956807471811771393
-39.0888252258300781 -112.903038024902344 2.36445140838623047 50 1645008438.75767064 0.433567941188812256 -0.900329947471618652 0.0373503342270851135 -0.00545393442735075951
-45.0590667724609375 -121.275199890136719 2.5228118896484375 51 1645008440.65505695 0.522650837898254395 -0.851352214813232422 0.0421665944159030914 -0.0160447079688310623
-45.9779930114746094 -126.041305541992188 2.74993443489074707 52 1645008441.75565481 0.670600235462188721 -0.740945279598236084 0.0359488017857074738 -0.00174988398794084787
-44.9893379211425781 -131.372543334960938 3.14916610717773438 53 1645008443.25721598 0.79050600528717041 -0.610719203948974609 0.0446112416684627533 0.0114945629611611366
-45.0872383117675781 -137.392074584960938 3.57327032089233398 54 1645008445.35451984 0.533879399299621582 -0.845177233219146729 0.0198434777557849884 0.0159511566162109375
-47.3067398071289062 -138.580978393554688 3.61836075782775879 55 1645008446.1552496 0.247129231691360474 -0.968741953372955322 0.0214661769568920135 -0.00232999632135033607
-49.2111968994140625 -138.637954711914062 3.5755913257598877 56 1645008446.7554152 0.065295487642288208 -0.997087538242340088 0.0373863950371742249 -0.0124587314203381538
-57.0393180847167969 -139.565277099609375 3.36212158203125 57 1645008448.75664711 0.154090031981468201 -0.986894547939300537 0.0445014685392379761 -0.0177506878972053528
-63.3243179321289062 -146.787612915039062 3.64867353439331055 58 1645008450.75695109 0.514493107795715332 -0.856006741523742676 0.0503216050565242767 0.00412877509370446205
-67.8312835693359375 -155.98382568359375 4.27827215194702148 59 1645008452.55561018 0.533900976181030273 -0.844074845314025879 0.0496047399938106537 0.00517007056623697281
-71.4602432250976562 -165.308517456054688 4.88934659957885742 60 1645008454.16145968 0.570136785507202148 -0.82091289758682251 0.0323299169540405273 0.000943057937547564507
-74.3103485107421875 -174.975082397460938 5.56922101974487305 61 1645008455.96057272 0.61089634895324707 -0.790754497051239014 0.0375961288809776306 0.00997552275657653809
-78.5200042724609375 -183.951797485351562 6.19079303741455078 62 1645008458.05841565 0.396520346403121948 -0.917475223541259766 0.030977100133895874 0.00715889455750584602
-87.8084182739257812 -187.960067749023438 6.32574748992919922 63 1645008460.15893102 0.114089593291282654 -0.992988049983978271 0.0308852773159742355 -0.00209747697226703167
-97.9339828491210938 -190.385284423828125 6.44495010375976562 64 1645008462.05690289 0.137664824724197388 -0.990335345268249512 0.0165455862879753113 0.00324700470082461834
-107.949623107910156 -193.360931396484375 6.72313594818115234 65 1645008463.96102595 0.161421507596969604 -0.986621499061584473 0.0228265244513750076 -7.85731463111005723e-05
-117.040359497070312 -197.663742065429688 7.19078493118286133 66 1645008465.75725675 0.238351434469223022 -0.970712244510650635 0.0232753381133079529 0.0190932899713516235
-125.496749877929688 -203.508926391601562 7.74110746383666992 67 1645008467.45743179 0.335282415151596069 -0.941580891609191895 0.024034794420003891 0.0208183825016021729
-132.528884887695312 -210.860733032226562 8.42631816864013672 68 1645008469.15281153 0.4319896399974823 -0.901285231113433838 0.0163284037262201309 0.0283408761024475098
-137.83837890625 -219.513214111328125 9.15188980102539062 69 1645008470.85738945 0.521181583404541016 -0.852721154689788818 0.021478680893778801 0.02784009650349617
-141.981735229492188 -228.836441040039062 9.90878391265869141 70 1645008472.65416622 0.542079150676727295 -0.839420616626739502 0.0141332671046257019 0.0363803431391716003
-144.61083984375 -236.169570922851562 10.6030673980712891 71 1645008474.75639081 0.577209353446960449 -0.813942313194274902 0.0363680198788642883 0.054814416915178299
-146.18414306640625 -240.39013671875 10.9352884292602539 72 1645008476.8547368 0.566820919513702393 -0.822027504444122314 0.0345957353711128235 0.0422847047448158264
-148.1986083984375 -245.451126098632812 11.3548135757446289 73 1645008478.85533524 0.560521900653839111 -0.826773583889007568 0.0387412421405315399 0.0275641083717346191
-151.44476318359375 -253.0596923828125 11.7124958038330078 74 1645008480.95265031 0.540315628051757812 -0.84084165096282959 0.0273379404097795486 -0.0172347594052553177
-155.548431396484375 -261.77313232421875 11.7687969207763672 75 1645008483.05204821 0.531184196472167969 -0.847070932388305664 0.0115259289741516113 -0.0134652042761445045
-160.1456298828125 -270.950439453125 11.8071308135986328 76 1645008484.95133448 0.517013311386108398 -0.855508327484130859 0.0243536271154880524 -0.0144804846495389938
-165.336700439453125 -279.661407470703125 11.7642946243286133 77 1645008486.65359592 0.464574933052062988 -0.884623527526855469 0.0272326543927192688 -0.0294916760176420212
-172.250442504882812 -287.373046875 11.6189212799072266 78 1645008488.55363679 0.363037079572677612 -0.930794179439544678 0.0286788754165172577 -0.0316831506788730621
-178.24249267578125 -291.320770263671875 11.386469841003418 79 1645008490.55537724 0.257963716983795166 -0.963316082954406738 0.0574769303202629089 -0.046617601066827774
-181.839096069335938 -292.86431884765625 11.535369873046875 80 1645008492.65331197 0.189825087785720825 -0.978676378726959229 0.0783639252185821533 0.00425783358514308929
-186.204574584960938 -293.3538818359375 11.640233039855957 81 1645008494.25396156 -0.00963021721690893173 -0.997960269451141357 0.0630979910492897034 0.00111284572631120682
-188.716995239257812 -292.459075927734375 11.5038576126098633 82 1645008494.85414958 -0.184143856167793274 -0.981189608573913574 0.0552061200141906738 -0.0176158435642719269
-191.035552978515625 -290.57061767578125 11.2398757934570312 83 1645008495.45570898 -0.357754439115524292 -0.931992948055267334 0.0484490394592285156 -0.032458379864692688
-196.98583984375 -282.21502685546875 10.1108198165893555 84 1645008497.15569687 -0.468849390745162964 -0.880097091197967529 0.0693276822566986084 -0.0283377096056938171
-202.571868896484375 -273.63372802734375 8.98987007141113281 85 1645008498.65691972 -0.487508445978164673 -0.869291126728057861 0.0781817212700843811 -0.0235804449766874313
-207.900848388671875 -264.71319580078125 7.91443395614624023 86 1645008500.15484929 -0.498423576354980469 -0.863331496715545654 0.0772153511643409729 -0.0164454225450754166
-212.924697875976562 -255.624603271484375 6.91512203216552734 87 1645008501.65313029 -0.516619503498077393 -0.852945268154144287 0.0735123530030250549 -0.013586786575615406
-217.50396728515625 -246.319000244140625 5.95552444458007812 88 1645008503.15616703 -0.540625274181365967 -0.838023185729980469 0.0725821331143379211 -0.0131644969806075096
-222.29443359375 -237.227752685546875 5.03675222396850586 89 1645008504.65732169 -0.528225839138031006 -0.847164690494537354 0.0560232736170291901 -0.0122831594198942184
-227.134613037109375 -228.17449951171875 4.14431619644165039 90 1645008506.15222096 -0.529219686985015869 -0.846194446086883545 0.0609189122915267944 -0.0130510283634066582
-231.386245727539062 -218.76861572265625 3.21694564819335938 91 1645008507.65183997 -0.551762580871582031 -0.831339836120605469 0.0636285468935966492 -0.0195834394544363022
-235.47882080078125 -209.283798217773438 2.33211517333984375 92 1645008509.15164876 -0.546844601631164551 -0.83544546365737915 0.0540684685111045837 -0.00827285274863243103
-239.748199462890625 -199.936325073242188 1.56948137283325195 93 1645008510.65205717 -0.5410270094871521 -0.839220762252807617 0.0532718375325202942 -0.0126641839742660522
-243.894088745117188 -190.596588134765625 0.718609631061553955 94 1645008512.15533471 -0.562875926494598389 -0.825242102146148682 0.0401966013014316559 -0.0230301916599273682
-247.402679443359375 -180.885284423828125 -0.0786204934120178223 95 1645008513.65364432 -0.581015646457672119 -0.8125876784324646 0.0435010045766830444 -0.0151561181992292404
-250.695663452148438 -171.13165283203125 -0.821786165237426758 96 1645008515.15237331 -0.60377812385559082 -0.795857727527618408 0.0355419106781482697 -0.0282702241092920303
-252.516616821289062 -161.033172607421875 -1.60274946689605713 97 1645008516.65339398 -0.65658879280090332 -0.752779901027679443 0.0375385098159313202 -0.028362596407532692
-253.959014892578125 -150.914901733398438 -2.3414456844329834 98 1645008518.15480447 -0.663149714469909668 -0.747493624687194824 0.0223294440656900406 -0.0314187183976173401
-255.539688110351562 -140.804840087890625 -3.03599739074707031 99 1645008519.65569997 -0.643031299114227295 -0.765472173690795898 0.0118283089250326157 -0.020572807639837265
-257.037933349609375 -130.881423950195312 -3.53362941741943359 100 1645008521.15497756 -0.658567607402801514 -0.752021074295043945 0.02582516148686409 -0.00928082596510648727
-258.836883544921875 -120.426811218261719 -4.03736209869384766 101 1645008522.75338578 -0.639052271842956543 -0.768679201602935791 0.023081829771399498 -0.0145508591085672379
-260.7757568359375 -110.024826049804688 -4.37359714508056641 102 1645008524.3538754 -0.646491527557373047 -0.762524604797363281 0.0222253873944282532 -0.0105343852192163467
-262.576202392578125 -99.7205047607421875 -4.69427156448364258 103 1645008525.95392895 -0.649805963039398193 -0.760000169277191162 0.00908836163580417633 -0.00832811556756496429
-264.393890380859375 -89.4328689575195312 -4.94277715682983398 104 1645008527.55486941 -0.635421395301818848 -0.772064089775085449 0.0112857501953840256 -0.00541321653872728348
-266.5057373046875 -79.221099853515625 -5.1639246940612793 105 1645008529.15636611 -0.646104097366333008 -0.763066232204437256 0.00568586913868784904 -0.0157185085117816925
-268.177947998046875 -68.9282379150390625 -5.32207441329956055 106 1645008530.75496125 -0.656060993671417236 -0.754507184028625488 -0.00600333325564861298 -0.0163362100720405579
-269.863006591796875 -58.6687355041503906 -5.44370126724243164 107 1645008532.35891676 -0.64415431022644043 -0.764768362045288086 -0.0074701998382806778 -0.0117798373103141785
-271.917266845703125 -48.422210693359375 -5.61907958984375 108 1645008533.95655799 -0.641688525676727295 -0.766878366470336914 -0.00374032859690487385 -0.0109246084466576576
-273.374053955078125 -38.1390838623046875 -5.62009668350219727 109 1645008535.55745006 -0.667036175727844238 -0.744965672492980957 0.00565216271206736565 0.00754888635128736496
-274.11553955078125 -27.8617305755615234 -5.65543794631958008 110 1645008537.15295339 -0.694541275501251221 -0.719342827796936035 0.0108797578141093254 0.00631841644644737244
-273.717559814453125 -17.4678668975830078 -5.73604917526245117 111 1645008538.75518131 -0.75038069486618042 -0.66086888313293457 0.0125720957294106483 0.00479764398187398911
-271.077789306640625 -7.37515735626220703 -5.86792469024658203 112 1645008540.35438752 -0.81728661060333252 -0.576037883758544922 0.00984127633273601532 0.0112280519679188728
-266.747406005859375 2.14382004737854004 -5.99972772598266602 113 1645008541.95106053 -0.857119381427764893 -0.51497185230255127 0.00985717028379440308 0.00729630934074521065
-261.25848388671875 10.8815088272094727 -5.99087429046630859 114 1645008543.5521698 -0.883905112743377686 -0.467527002096176147 0.00174592586699873209 0.0112792942672967911
-255.376541137695312 19.1746749877929688 -5.86996173858642578 115 1645008545.15229297 -0.89181971549987793 -0.451959609985351562 -0.0181892067193984985 0.00769556127488613129
-249.642791748046875 27.3974628448486328 -5.63271713256835938 116 1645008546.75021815 -0.885691523551940918 -0.463629484176635742 -0.0199927501380443573 0.0140884742140769958
-243.736083984375 36.1073799133300781 -5.15643310546875 117 1645008548.45663762 -0.884487330913543701 -0.465910106897354126 -0.0191112756729125977 0.0156437307596206665
-237.913650512695312 44.6265525817871094 -4.58796358108520508 118 1645008550.1537931 -0.890183031558990479 -0.454542994499206543 -0.0295595526695251465 0.00954558141529560089
-232.092041015625 52.8692131042480469 -3.88285708427429199 119 1645008551.85167122 -0.885893046855926514 -0.462136298418045044 -0.0378588549792766571 0.0137914307415485382
-226.196151733398438 61.5948715209960938 -3.15249133110046387 120 1645008553.64979863 -0.889410197734832764 -0.455125302076339722 -0.0424189120531082153 0.00332800019532442093
-220.130401611328125 69.8137283325195312 -2.20682024955749512 121 1645008555.44998074 -0.892212390899658203 -0.448516815900802612 -0.0479168593883514404 0.022219708189368248
-214.119400024414062 78.14678955078125 -1.20666253566741943 122 1645008557.34942651 -0.890033721923828125 -0.453551679849624634 -0.0354755371809005737 0.0295353364199399948
-207.93646240234375 86.5079803466796875 -0.269688606262207031 123 1645008559.3496058 -0.89591747522354126 -0.441155403852462769 -0.0357966236770153046 0.0378467850387096405
-200.70111083984375 93.9696273803710938 0.560533821582794189 124 1645008561.34909892 -0.936803281307220459 -0.345839381217956543 -0.036925874650478363 0.0378307662904262543
-192.400070190429688 99.7679824829101562 1.34797763824462891 125 1645008563.24907064 -0.956502735614776611 -0.284996598958969116 -0.0367878787219524384 0.0502607524394989014
-183.572723388671875 104.647903442382812 2.17823386192321777 126 1645008565.15055442 -0.977338314056396484 -0.205507650971412659 -0.0334383323788642883 0.0381877906620502472
-173.995376586914062 107.470855712890625 2.77622509002685547 127 1645008567.04835939 -0.992613136768341064 -0.114221930503845215 -0.0298879463225603104 0.0279150158166885376
-166.044769287109375 108.9415283203125 3.2936859130859375 128 1645008569.04902363 -0.995960891246795654 -0.0803786590695381165 -0.0299079548567533493 0.026582987979054451
-158.775070190429688 109.461517333984375 3.73933839797973633 129 1645008571.04950237 -0.99936443567276001 -0.0180658604949712753 -0.0136274443939328194 0.0275433734059333801
-150.38446044921875 109.437965393066406 4.22490596771240234 130 1645008573.05003619 -0.99905318021774292 0.0144010810181498528 -0.0304451007395982742 0.0275403168052434921
-141.759475708007812 108.791069030761719 4.6924591064453125 131 1645008575.0507586 -0.99766850471496582 0.0517676770687103271 -0.0308867990970611572 0.0319939516484737396
-132.921722412109375 107.077461242675781 5.16405200958251953 132 1645008577.0514183 -0.991015434265136719 0.122299671173095703 -0.0352430082857608795 0.041098371148109436
-125.511993408203125 103.795883178710938 5.46489381790161133 133 1645008578.85033083 -0.953819513320922852 0.297941893339157104 -0.0219382066279649734 0.0312679782509803772
-123.580879211425781 101.279006958007812 5.44303035736083984 134 1645008579.55158949 -0.883063137531280518 0.468167483806610107 -0.00762236630544066429 0.0309927240014076233
-122.6651611328125 97.9570236206054688 5.23048830032348633 135 1645008580.34959626 -0.778929948806762695 0.625332772731781006 0.0144062237814068794 0.0449388623237609863
-121.816070556640625 89.96014404296875 4.55176115036010742 136 1645008582.35152698 -0.75177156925201416 0.65528792142868042 0.0328842923045158386 0.0659992620348930359
-117.712043762207031 82.0099563598632812 4.00248861312866211 137 1645008584.35291266 -0.916616082191467285 0.392920374870300293 0.00100010039750486612 0.0736717656254768372
-110.090255737304688 79.6791839599609375 4.10434579849243164 138 1645008586.35319686 -0.996029675006866455 0.0625443905591964722 -0.0288304407149553299 0.0564084239304065704
-100.193855285644531 80.3819198608398438 4.59054327011108398 139 1645008588.45141673 -0.996911168098449707 -0.0585060194134712219 -0.0238945819437503815 0.0466284528374671936
-90.6805801391601562 80.4539947509765625 5.06931495666503906 140 1645008590.45229816 -0.99853515625 0.0394507534801959991 -0.0298792384564876556 0.0218726135790348053
-81.3647613525390625 77.57611083984375 5.20011663436889648 141 1645008592.55373216 -0.976932406425476074 0.210827380418777466 -0.00350698642432689667 0.0338027551770210266
-73.25555419921875 75.8791961669921875 5.18748712539672852 142 1645008594.65087175 -0.99717479944229126 -0.0552711747586727142 0.0112458625808358192 0.0496094375848770142
-70.8289947509765625 77.0265350341796875 5.23062562942504883 143 1645008595.35248971 -0.972121477127075195 -0.229339584708213806 0.0047937445342540741 0.0485823936760425568
-68.9123764038085938 79.0427780151367188 5.33180093765258789 144 1645008596.04904318 -0.911258697509765625 -0.408493697643280029 0.000329971750034019351 0.0523484982550144196
-68.0582275390625 81.3366622924804688 5.49279451370239258 145 1645008596.64878058 -0.821100354194641113 -0.569158554077148438 -0.00446938350796699524 0.0428101420402526855
-68.0734405517578125 83.8376922607421875 5.66537666320800781 146 1645008597.25089407 -0.704844772815704346 -0.708638250827789307 -0.00469095166772603989 0.0316813811659812927
-68.9436187744140625 86.1691513061523438 5.76178169250488281 147 1645008597.85238314 -0.566564857959747314 -0.823610782623291016 0.00619997410103678703 0.0251216460019350052
-70.642242431640625 88.0709304809570312 5.82617330551147461 148 1645008598.44734192 -0.405846625566482544 -0.913763046264648438 0.00962285138666629791 0.0152646219357848167
-72.9784011840820312 89.2887191772460938 5.86701583862304688 149 1645008599.0515449 -0.232334837317466736 -0.972445666790008545 0.0173439588397741318 0.00831630360335111618
-75.6487960815429688 89.6542510986328125 5.83044242858886719 150 1645008599.64792395 -0.0553995333611965179 -0.998207330703735352 0.0207876022905111313 -0.00899701658636331558
-78.3429946899414062 89.0374298095703125 5.7533879280090332 151 1645008600.25125217 0.121487393975257874 -0.992131173610687256 0.0188376475125551224 -0.0237004365772008896
-81.6152114868164062 86.9251480102539062 5.59881353378295898 152 1645008601.14731264 0.296986401081085205 -0.954479753971099854 0.00694747921079397202 -0.0268180910497903824
-88.2328338623046875 81.4381103515625 5.2230381965637207 153 1645008603.14760995 0.283932864665985107 -0.958266079425811768 -0.024011705070734024 -0.023058740422129631
-97.7802276611328125 79.439483642578125 4.59398746490478516 154 1645008605.15220046 0.0389458388090133667 -0.997991561889648438 -0.041378658264875412 -0.0279982462525367737
-109.2674560546875 79.1075286865234375 4.10034561157226562 155 1645008607.24650121 0.00862819235771894455 -0.998711287975311279 -0.0423120297491550446 -0.0266656707972288132
-117.801727294921875 77.5128250122070312 3.62768363952636719 156 1645008609.14689755 0.2327156662940979 -0.971212148666381836 -0.0285284295678138733 -0.0421479828655719757
-119.668510437011719 75.4263153076171875 3.34025788307189941 157 1645008609.84744859 0.417323172092437744 -0.906903445720672607 -0.0375424250960350037 -0.0442505106329917908
-120.287956237792969 73.166656494140625 3.0944976806640625 158 1645008610.44975543 0.58964163064956665 -0.805735945701599121 -0.0383565500378608704 -0.0405104272067546844
-119.640579223632812 62.9882164001464844 1.99912357330322266 159 1645008612.44820547 0.739139914512634277 -0.671361684799194336 -0.0490352138876914978 -0.0232637710869312286
-118.676864624023438 52.9966773986816406 0.895447492599487305 160 1645008613.94885492 0.734305083751678467 -0.676658034324645996 -0.0459909960627555847 -0.0285437442362308502
-118.009307861328125 43.0328254699707031 -0.162848278880119324 161 1645008615.34777379 0.728106915950775146 -0.683707058429718018 -0.0366022400557994843 -0.032638251781463623
-117.161155700683594 32.6798286437988281 -1.27102816104888916 162 1645008616.75020981 0.735863745212554932 -0.674591362476348877 -0.0546540990471839905 -0.0210691578686237335
-115.414802551269531 22.2346973419189453 -2.34409499168395996 163 1645008618.14814949 0.791005611419677734 -0.609977543354034424 -0.0402712933719158173 -0.0248148106038570404
-111.707290649414062 12.2725534439086914 -3.20930957794189453 164 1645008619.54849935 0.839437782764434814 -0.542423665523529053 -0.0281741209328174591 -0.0180826932191848755
-106.377601623535156 3.31972146034240723 -3.865509033203125 165 1645008620.94890738 0.881549537181854248 -0.471329212188720703 -0.0225464347749948502 -0.0145209077745676041
-99.8281936645507812 -4.23689174652099609 -4.24896669387817383 166 1645008622.34927893 0.92406386137008667 -0.382137477397918701 -0.00783303100615739822 -0.00394904101267457008
-91.9705123901367188 -11.1456184387207031 -4.37440586090087891 167 1645008623.95077777 0.941301167011260986 -0.33734208345413208 -0.00244518951512873173 0.0121007161214947701
-83.6219558715820312 -17.5743656158447266 -4.17881107330322266 168 1645008625.64965463 0.951012372970581055 -0.308920741081237793 0.0066197272390127182 -0.0099808545783162117
-74.9108734130859375 -23.6546268463134766 -3.96168375015258789 169 1645008627.34980273 0.950606763362884521 -0.309507846832275391 0.0229993853718042374 -0.00475976336747407913
-66.7020034790039062 -30.1253814697265625 -3.53358554840087891 170 1645008629.05179572 0.939280331134796143 -0.342431962490081787 0.0215983614325523376 0.00512906350195407867
-58.6968955993652344 -36.5736885070800781 -3.043060302734375 171 1645008630.75290036 0.943295419216156006 -0.331009447574615479 0.0241887867450714111 0.00643484992906451225
-50.5108604431152344 -42.7259674072265625 -2.49768471717834473 172 1645008632.45303226 0.9505157470703125 -0.309371024370193481 0.0273764319717884064 0.00773770362138748169
-42.0524330139160156 -48.3606605529785156 -1.84784626960754395 173 1645008634.15134239 0.958417117595672607 -0.282938361167907715 0.0347434021532535553 0.0132436575368046761
-33.7263336181640625 -54.0518379211425781 -1.13635098934173584 174 1645008635.85015583 0.945855438709259033 -0.322022080421447754 0.0361653491854667664 0.0187446046620607376
-26.0260162353515625 -60.4190788269042969 -0.366414785385131836 175 1645008637.54942131 0.940777182579040527 -0.336606532335281372 0.0398380421102046967 0.00687550939619541168
-16.4970169067382812 -66.9876022338867188 0.510033130645751953 176 1645008639.64858794 0.974320411682128906 -0.221392512321472168 0.0410110130906105042 0.00179240771103650331
-13.00433349609375 -67.3962936401367188 0.74482494592666626 177 1645008640.34870386 0.998960733413696289 -0.0212984923273324966 0.0395879372954368591 0.00752496300265192986
-10.5840415954589844 -66.6197662353515625 0.847269415855407715 178 1645008640.8493824 0.986312508583068848 0.163284629583358765 0.0219899676740169525 0.00649952562525868416
-8.17631244659423828 -64.636566162109375 0.8057747483253479 179 1645008641.45086718 0.939456045627593994 0.340725183486938477 0.00601131469011306763 0.0359524451196193695
-0.54454648494720459 -54.6386566162109375 0.148381233215332031 180 1645008643.54818606 0.885337769985198975 0.464844703674316406 0.000200704613234847784 0.00982094649225473404
5.71070957183837891 -45.1292228698730469 -0.17864970862865448 181 1645008645.64811683 0.882392942905426025 0.467012614011764526 -0.00598092563450336456 0.0569749400019645691
10.8787956237792969 -37.9282913208007812 -0.424756348133087158 182 1645008647.64812922 0.891845464706420898 0.451767593622207642 -0.00535293947905302048 0.022114243358373642
16.7854499816894531 -30.0641155242919922 -0.651277244091033936 183 1645008649.74807739 0.898847758769989014 0.437288403511047363 0.00770675390958786011 0.028145739808678627
22.0862388610839844 -22.5017738342285156 -0.716362833976745605 184 1645008651.7491312 0.851563096046447754 0.524101138114929199 -0.0106713501736521721 0.00666420115157961845
22.3868370056152344 -19.9505577087402344 -0.781217873096466064 185 1645008652.3464241 0.727511048316955566 0.68566441535949707 -0.0243081394582986832 -0.00106057361699640751
21.5872287750244141 -18.1342601776123047 -0.817104339599609375 186 1645008652.84863949 0.576381206512451172 0.817053735256195068 -0.0130485016852617264 0.00613034656271338463
19.4017314910888672 -15.3544979095458984 -0.976964354515075684 187 1645008653.74907827 0.424118340015411377 0.905166983604431152 -0.02803017757833004 0.00326824793592095375
10.7822790145874023 -9.15745162963867188 -1.32558012008666992 188 1645008655.84801722 0.290408462285995483 0.956828117370605469 -0.00912538263946771622 0.00772111024707555771
2.78035497665405273 -5.2046198844909668 -1.57168018817901611 189 1645008657.54934049 0.115689411759376526 0.992649197578430176 -0.0345959141850471497 0.00816231034696102142
-7.18493318557739258 -5.24890899658203125 -1.82846522331237793 190 1645008659.55100918 0.00169569894205778837 0.999742329120635986 -0.0162504725158214569 0.0157598275691270828
-16.6056461334228516 -1.04705965518951416 -2.32507038116455078 191 1645008661.55032516 0.312295317649841309 0.949617266654968262 -0.0177721790969371796 0.019567195326089859
-24.602142333984375 5.16163158416748047 -2.84004950523376465 192 1645008663.55123901 0.321002334356307983 0.946557879447937012 -0.0278684422373771667 0.0144559368491172791
-32.7226219177246094 11.2521400451660156 -3.15923547744750977 193 1645008665.35025287 0.321359395980834961 0.946865379810333252 -0.0128217469900846481 -0.00310365250334143639
-41.1405487060546875 17.591827392578125 -3.26954889297485352 194 1645008667.15473533 0.318944931030273438 0.947699189186096191 -0.00536503037437796593 0.0105619002133607864
-49.4378738403320312 23.8730602264404297 -3.44189810752868652 195 1645008668.85291243 0.319831043481826782 0.947419881820678711 -0.00820515863597393036 0.00602978235110640526
-57.7372550964355469 29.9497795104980469 -3.53851437568664551 196 1645008670.45436335 0.305050939321517944 0.952148675918579102 -0.0188179723918437958 -0.00163256260566413403
-66.3201370239257812 36.0736885070800781 -3.5310065746307373 197 1645008672.15559888 0.35357975959777832 0.935402572154998779 -0.00156044308096170425 0.000949827081058174372
-70.1086044311523438 41.8715324401855469 -3.30405402183532715 198 1645008673.45519209 0.510605871677398682 0.859044551849365234 -0.0169944353401660919 -0.0321754142642021179
-73.3135299682617188 50.2449264526367188 -2.75397419929504395 199 1645008675.5561378 0.596722841262817383 0.800945580005645752 -0.00324302166700363159 -0.0489641353487968445
-74.6203231811523438 59.6516990661621094 -2.0236203670501709 200 1645008677.65088153 0.693900942802429199 0.718848943710327148 -0.00256427261047065258 -0.0418462455272674561
-73.5450210571289062 68.769989013671875 -1.80932760238647461 201 1645008679.65159154 0.785022437572479248 0.619414925575256348 -0.00545790791511535645 -0.00592720741406083107
-71.3228683471679688 75.0841445922851562 -1.82047200202941895 202 1645008681.65663385 0.840557456016540527 0.541498541831970215 -0.0132512245327234268 -0.00817578285932540894
-70.7756576538085938 75.9865036010742188 -1.82235491275787354 203 1645008683.75685549 0.85968393087387085 0.510535538196563721 -0.0103723146021366119 -0.0137613434344530106
