# .PCD v0.7 - Point Cloud Data file format
VERSION 0.7
FIELDS x y z intensity t qx qy qz qw
SIZE 4 4 4 4 8 4 4 4 4
TYPE F F F F F F F F F
COUNT 1 1 1 1 1 1 1 1 1
WIDTH 189
HEIGHT 1
VIEWPOINT 0 0 0 1 0 0 0
POINTS 189
DATA ascii
4.02061796188354492 0.495190352201461792 10.8551006317138672 0 1644825660.80880284 0.999929249286651611 -0.00245336373336613178 0.0116188237443566322 -0.000681776902638375759
4.42002153396606445 0.504940688610076904 10.8900308609008789 1 1644825663.00790358 0.999584972858428955 -0.00548231462016701698 0.0282703973352909088 -0.000755927583668380976
11.3585920333862305 -0.0794569253921508789 11.0954837799072266 2 1644825665.1077857 0.996745467185974121 -0.0785349011421203613 0.016593635082244873 -0.00744372140616178513
14.4693593978881836 -1.58818316459655762 11.1833963394165039 3 1644825665.80741787 0.962156772613525391 -0.272077172994613647 0.0116569604724645615 -0.00961704552173614502
16.1682949066162109 -3.57123374938964844 11.1748313903808594 4 1644825666.30727935 0.889870047569274902 -0.455597251653671265 -0.021716216579079628 0.00953319016844034195
16.7858543395996094 -5.98223781585693359 11.1218547821044922 5 1644825666.80817461 0.786246538162231445 -0.617538988590240479 -0.0192295406013727188 -0.00960228778421878815
16.4472332000732422 -15.6585168838500977 10.8577051162719727 6 1644825668.80822229 0.700487494468688965 -0.713301002979278564 0.00678334338590502739 -0.0217481646686792374
16.2562751770019531 -26.0770645141601562 10.6280879974365234 7 1644825670.50790119 0.705787599086761475 -0.707612872123718262 0.0193754695355892181 -0.0277942027896642685
16.5009384155273438 -36.4312057495117188 10.4002361297607422 8 1644825672.00726867 0.716272354125976562 -0.697067916393280029 0.0196913275867700577 -0.0257393494248390198
16.8737812042236328 -46.8636703491210938 10.2490386962890625 9 1644825673.40915227 0.722648918628692627 -0.690259397029876709 0.0198109615594148636 -0.0304626282304525375
16.8674793243408203 -56.9227027893066406 10.1420736312866211 10 1644825674.90848279 0.680929243564605713 -0.731967508792877197 0.00814283546060323715 -0.0221951920539140701
15.6308135986328125 -61.0325355529785156 10.1609487533569336 11 1644825675.71123004 0.527231335639953613 -0.849700093269348145 -0.00605273852124810219 0.000462643452920019627
13.5673913955688477 -63.1392936706542969 10.0611820220947266 12 1644825676.30862498 0.350219309329986572 -0.936119675636291504 -0.026866469532251358 -0.0174516309052705765
11.4161014556884766 -63.9514846801757812 9.9703826904296875 13 1644825676.81025314 0.173774003982543945 -0.984136819839477539 -0.0278352145105600357 -0.0224180668592453003
8.78664588928222656 -63.8812332153320312 9.88775920867919922 14 1644825677.40896153 -0.0303147919476032257 -0.998891949653625488 -0.0294447187334299088 -0.0207086186856031418
6.62253761291503906 -62.9542274475097656 9.81308650970458984 15 1644825677.90966988 -0.218326732516288757 -0.97444993257522583 -0.0408009663224220276 -0.0334068723022937775
5.04060125350952148 -61.2781181335449219 9.75604629516601562 16 1644825678.40964699 -0.393879562616348267 -0.917979598045349121 -0.0287515539675951004 -0.0366836600005626678
3.21573758125305176 -57.3038825988769531 9.74157047271728516 17 1644825679.30898499 -0.548068702220916748 -0.836355328559875488 -0.00989808794111013412 -0.00570622459053993225
-2.77242136001586914 -49.6426048278808594 9.69668674468994141 18 1644825681.31141734 -0.219373121857643127 -0.975507915019989014 0.0146141285076737404 -0.00679758982732892036
-12.8597269058227539 -49.2112083435058594 9.35277557373046875 19 1644825683.21133065 -0.0221649389714002609 -0.999455392360687256 -0.0128191998228430748 -0.0208165217190980911
-22.8767738342285156 -49.60101318359375 9.03050422668457031 20 1644825684.81212521 0.106436878442764282 -0.994015216827392578 0.0122907627373933792 -0.021304205060005188
-31.4959812164306641 -55.455413818359375 8.53609943389892578 21 1644825686.51013494 0.353517413139343262 -0.935002744197845459 -0.000464631564682349563 -0.0281976759433746338
-40.4401435852050781 -59.9112281799316406 7.95334911346435547 22 1644825688.00948381 0.0759540647268295288 -0.996480643749237061 -0.0239549577236175537 -0.0261435266584157944
-50.8592681884765625 -60.12176513671875 7.37562894821166992 23 1644825689.51448393 0.0369042791426181793 -0.998978078365325928 0.00361849856562912464 -0.0258420314639806747
-61.5769767761230469 -60.9895782470703125 6.88552570343017578 24 1644825690.91144371 0.0352140665054321289 -0.99919426441192627 -0.00260196556337177753 -0.0190806183964014053
-71.9094314575195312 -61.8860664367675781 6.72765493392944336 25 1644825692.21262741 0.0591340363025665283 -0.998132705688476562 -0.0147363059222698212 -0.00414285482838749886
-82.2801132202148438 -62.9903526306152344 6.48956584930419922 26 1644825693.51400185 0.0406785160303115845 -0.999099493026733398 -0.0115025760605931282 -0.00363349379040300846
-92.6655960083007812 -63.3791618347167969 6.38285970687866211 27 1644825694.81683588 0.00305128935724496841 -0.999968588352203369 0.00610838364809751511 0.00401902245357632637
-103.019752502441406 -62.8367424011230469 6.28556060791015625 28 1644825696.11462569 -0.0470389500260353088 -0.998865783214569092 -0.00731490505859255791 0.00101494602859020233
-112.807693481445312 -60.2283782958984375 6.62172603607177734 29 1644825697.41493678 -0.214248597621917725 -0.976355850696563721 -0.00935964006930589676 0.0271874591708183289
-121.336212158203125 -54.2614707946777344 7.49332618713378906 30 1644825698.81389594 -0.319985419511795044 -0.945813953876495361 -0.0049203275702893734 0.0549641437828540802
-128.7867431640625 -46.9723968505859375 8.39195537567138672 31 1644825700.31600881 -0.420641839504241943 -0.906575262546539307 -0.00166795996483415365 0.0343354642391204834
-136.201995849609375 -40.2430076599121094 8.79008960723876953 32 1644825702.01668286 -0.277836859226226807 -0.960518896579742432 -0.00124370399862527847 0.014444069005548954
-145.982330322265625 -37.4639968872070312 8.95186138153076172 33 1644825704.01689458 -0.159975185990333557 -0.986298859119415283 -0.0398992002010345459 -0.00552286161109805107
-149.879730224609375 -32.5460052490234375 9.09640312194824219 34 1644825705.41547298 -0.570754587650299072 -0.820012927055358887 -0.0403226539492607117 -0.0138567415997385979
-149.921875 -30.1596450805664062 9.16302776336669922 35 1644825705.91325665 -0.720255732536315918 -0.691701233386993408 -0.0378124341368675232 -0.0367600210011005402
-149.006362915039062 -28.1246852874755859 9.27636432647705078 36 1644825706.4138844 -0.838933765888214111 -0.542728662490844727 -0.0320157967507839203 -0.0247136559337377548
-147.1063232421875 -26.3386096954345703 9.38868331909179688 37 1644825707.0130465 -0.931224405765533447 -0.363418847322463989 -0.0252337828278541565 -0.0105429952964186668
-144.508941650390625 -25.2398929595947266 9.45344257354736328 38 1644825707.61375666 -0.986607968807220459 -0.161787897348403931 -0.0101926792412996292 -0.0180421750992536545
-142.104248046875 -25.2558422088623047 9.43061447143554688 39 1644825708.11550188 -0.999212980270385742 0.0217236001044511795 0.0167366508394479752 -0.0286607518792152405
-139.643203735351562 -26.4095649719238281 9.40494155883789062 40 1644825708.71366382 -0.973893225193023682 0.226607918739318848 0.0131379645317792892 -0.00285915378481149673
-137.632232666015625 -28.5224990844726562 9.27482795715332031 41 1644825709.31232429 -0.90651237964630127 0.421415567398071289 0.0253282077610492706 0.00165603379718959332
-136.678085327148438 -30.8628005981445312 9.12883853912353516 42 1644825709.81054783 -0.806621313095092773 0.588384509086608887 0.0550799481570720673 -0.0114843398332595825
-136.764999389648438 -33.372955322265625 9.02765846252441406 43 1644825710.31528378 -0.674041986465454102 0.73565983772277832 0.06605491042137146 -0.0104281818494200706
-137.815460205078125 -35.5023651123046875 8.98248386383056641 44 1644825710.81477427 -0.520968019962310791 0.851466059684753418 0.0593016147613525391 -0.00901408400386571884
-139.875732421875 -37.3305740356445312 8.95854568481445312 45 1644825711.41255426 -0.357386559247970581 0.933379411697387695 0.0313577614724636078 -0.00971631146967411041
-145.043212890625 -39.8488731384277344 8.84028244018554688 46 1644825712.50951242 -0.177726626396179199 0.983484029769897461 0.0335331261157989502 -0.00692726951092481613
-154.383071899414062 -43.4932327270507812 8.46370220184326172 47 1644825714.10898924 -0.281164169311523438 0.958949685096740723 0.0110552655532956123 0.0352140478789806366
-162.193466186523438 -50.6483116149902344 7.80522251129150391 48 1644825715.61463666 -0.384471595287322998 0.922364294528961182 0.0330419391393661499 0.0182739514857530594
-169.416641235351562 -58.1095962524414062 7.12490749359130859 49 1644825717.11476445 -0.384324252605438232 0.922093570232391357 0.0359389707446098328 0.0273268986493349075
-172.075439453125 -62.0239105224609375 6.80702733993530273 50 1644825718.01526809 -0.539459824562072754 0.840728759765625 0.0249186791479587555 0.039208095520734787
-172.287567138671875 -64.6999588012695312 6.54235506057739258 51 1644825718.61207581 -0.682359755039215088 0.728933930397033691 0.0354972854256629944 0.0421947427093982697
-171.369140625 -67.391448974609375 6.27774143218994141 52 1644825719.21270871 -0.813843131065368652 0.579308629035949707 0.0312544107437133789 0.0329249352216720581
-167.944076538085938 -72.02020263671875 5.80948877334594727 53 1644825720.21296406 -0.903565645217895508 0.426837503910064697 0.0371265485882759094 0.000739992246963083744
-160.594863891601562 -79.5967559814453125 4.95889472961425781 54 1644825721.71251798 -0.918024241924285889 0.394095122814178467 0.0435516685247421265 0.00487553607672452927
-153.71954345703125 -87.4834747314453125 4.11549234390258789 55 1644825723.01047468 -0.90973198413848877 0.413508892059326172 0.0339437760412693024 0.0156823527067899704
-146.526824951171875 -94.7361068725585938 3.31495428085327148 56 1644825724.21409822 -0.934716403484344482 0.353812277317047119 0.0314851328730583191 0.0114363394677639008
-138.558074951171875 -101.470817565917969 2.48034787178039551 57 1644825725.41078067 -0.939861416816711426 0.339840352535247803 0.0334383808076381683 0.0071358303539454937
-129.876708984375 -107.449920654296875 1.85889089107513428 58 1644825726.61086941 -0.968043088912963867 0.249554827809333801 0.024213448166847229 0.00535292597487568855
-120.285911560058594 -111.387008666992188 1.44424211978912354 59 1644825727.81079268 -0.985705852508544922 0.168019622564315796 0.0118479421362280846 -0.00361135811544954777
-110.511070251464844 -114.256584167480469 1.30390822887420654 60 1644825729.0102427 -0.992683887481689453 0.120643116533756256 -0.00191823090426623821 -0.00450414977967739105
-99.9543991088867188 -115.740989685058594 1.4127432107925415 61 1644825730.31239367 -0.999463260173797607 0.0277414284646511078 -0.0174227654933929443 2.58565723925130442e-05
-89.6349258422851562 -115.52484130859375 1.83539450168609619 62 1644825731.60985136 -0.999305665493011475 -0.0233212187886238098 -0.0290081780403852463 0.00167139130644500256
-79.6241989135742188 -114.956771850585938 2.30201220512390137 63 1644825732.91001081 -0.999334812164306641 -0.0255403164774179459 -0.0259743090718984604 0.00172739836852997541
-69.020233154296875 -114.480987548828125 3.02335000038146973 64 1644825734.3103385 -0.999018549919128418 -0.0202790182083845139 -0.0391297973692417145 0.00441707856953144073
-58.7475967407226562 -114.020378112792969 3.80422234535217285 65 1644825735.710742 -0.999044954776763916 -0.0147637585178017616 -0.0404639206826686859 -0.00734262820333242416
-48.151763916015625 -113.565887451171875 4.67700386047363281 66 1644825737.20954728 -0.998796761035919189 -0.021990116685628891 -0.043822750449180603 -0.00100600311998277903
-37.9632339477539062 -113.042350769042969 5.59541130065917969 67 1644825738.71220088 -0.998349606990814209 -0.0236974973231554031 -0.0521164536476135254 -0.00451799854636192322
-27.5891475677490234 -112.395767211914062 6.61553239822387695 68 1644825740.312361 -0.997949540615081787 -0.0318119972944259644 -0.0552170760929584503 -0.00598037103191018105
-17.6560497283935547 -111.754714965820312 7.62502670288085938 69 1644825741.91228151 -0.998278200626373291 -0.0243924632668495178 -0.0532638616859912872 0.00293851317837834358
-7.60538625717163086 -111.698036193847656 8.66101551055908203 70 1644825743.61609674 -0.997847437858581543 0.0337249934673309326 -0.0555046051740646362 -0.00907619763165712357
1.2560652494430542 -114.017341613769531 9.63100528717041016 71 1644825745.20994902 -0.974644243717193604 0.216755062341690063 -0.0554978512227535248 -0.00240647932514548302
4.75895547866821289 -116.945159912109375 9.93212032318115234 72 1644825746.01062441 -0.922965586185455322 0.382176131010055542 -0.0381130166351795197 0.0249664802104234695
6.85750246047973633 -120.667472839355469 10.1633434295654297 73 1644825746.81502485 -0.836103320121765137 0.545238614082336426 -0.0579418912529945374 0.0169962327927350998
7.87759542465209961 -126.636871337890625 10.2237892150878906 74 1644825747.91508412 -0.728074908256530762 0.684745967388153076 -0.0224630516022443771 0.022919435054063797
7.73241281509399414 -136.791961669921875 9.92611026763916016 75 1644825749.51291227 -0.7019539475440979 0.711354374885559082 -0.00862115342170000076 0.034077472984790802
7.8504939079284668 -147.212554931640625 9.52624607086181641 76 1644825750.91297245 -0.715419173240661621 0.697945833206176758 -0.0165685005486011505 0.0277926027774810791
7.97572088241577148 -157.708160400390625 9.1888427734375 77 1644825752.21373844 -0.71583712100982666 0.697018861770629883 -0.0181746296584606171 0.0375722199678421021
8.66520023345947266 -168.362091064453125 8.94189262390136719 78 1644825753.51301241 -0.724482834339141846 0.688399791717529297 -0.0194874536246061325 0.029164901003241539
9.07340621948242188 -179.093612670898438 8.73928928375244141 79 1644825754.81335783 -0.715552568435668945 0.697718381881713867 -0.0191646870225667953 0.0283948145806789398
9.31899166107177734 -189.672897338867188 8.81366252899169922 80 1644825756.11296964 -0.72546464204788208 0.686902463436126709 -0.0390794016420841217 0.0184073224663734436
10.5869483947753906 -200.185012817382812 8.79012680053710938 81 1644825757.41139746 -0.770504474639892578 0.636303365230560303 -0.0327389910817146301 0.019212057814002037
13.4772615432739258 -210.196060180664062 8.98765468597412109 82 1644825758.71181583 -0.804885566234588623 0.592279136180877686 -0.0319883115589618683 0.0184782221913337708
16.5572700500488281 -220.054229736328125 9.24338340759277344 83 1644825760.01215696 -0.805825591087341309 0.591071963310241699 -0.0281067565083503723 0.022114122286438942
19.8407783508300781 -229.892562866210938 9.47626304626464844 84 1644825761.31109667 -0.807718336582183838 0.588794112205505371 -0.0268785953521728516 0.0137881264090538025
22.0927963256835938 -240.166885375976562 9.69227790832519531 85 1644825762.81339812 -0.723637580871582031 0.690055668354034424 -0.0104466965422034264 0.00791936274617910385
21.0610771179199219 -245.02459716796875 9.65999412536621094 86 1644825763.61323786 -0.579942107200622559 0.814523577690124512 -0.00635826680809259415 0.0133450999855995178
15.8086509704589844 -253.829849243164062 9.49373912811279297 87 1644825765.21319985 -0.463411927223205566 0.886059045791625977 -0.00540278898552060127 0.0109334029257297516
10.0015220642089844 -261.9913330078125 9.47001743316650391 88 1644825766.61406636 -0.445254892110824585 0.89540332555770874 -0.000570416450500488281 -0.000795841158833354712
4.45290708541870117 -270.55670166015625 9.51351451873779297 89 1644825768.01502347 -0.501905500888824463 0.864890992641448975 -0.00682794628664851189 -0.00279409834183752537
0.484319925308227539 -280.4334716796875 9.63532447814941406 90 1644825769.41500092 -0.589509785175323486 0.807691812515258789 -0.00985176581889390945 -0.0038846312090754509
-1.71792328357696533 -290.425079345703125 9.843658447265625 91 1644825770.71277571 -0.649900317192077637 0.759896457195281982 -0.00956387259066104889 -0.0097716236487030983
-1.7978217601776123 -300.618255615234375 10.1323051452636719 92 1644825772.01514888 -0.737851262092590332 0.674766778945922852 -0.0102032134309411049 -0.0126986633986234665
0.0487222038209438324 -310.616546630859375 10.4308462142944336 93 1644825773.31447983 -0.780988633632659912 0.62445145845413208 -0.00801575556397438049 -0.00727569125592708588
3.11335921287536621 -320.17864990234375 10.7674751281738281 94 1644825775.01373434 -0.827101647853851318 0.561922550201416016 -0.0119781792163848877 -0.00155714177526533604
5.89263916015625 -325.777130126953125 11.0086603164672852 95 1644825777.11323428 -0.844560801982879639 0.534318506717681885 -0.0221944954246282578 -0.0269851479679346085
7.79128694534301758 -330.48394775390625 11.2081937789916992 96 1644825779.21271467 -0.821544885635375977 0.569227278232574463 -0.0277831926941871643 -0.0165038257837295532
9.98907661437988281 -339.447601318359375 11.4003257751464844 97 1644825781.31335354 -0.772829294204711914 0.634111464023590088 -0.0131432237103581429 0.0215580333024263382
11.6660680770874023 -349.408599853515625 11.0438737869262695 98 1644825783.01364326 -0.757699489593505859 0.65174567699432373 -0.000107239422504790127 0.0334522388875484467
13.2680912017822266 -359.482635498046875 10.6227359771728516 99 1644825784.6113677 -0.773017466068267822 0.632820010185241699 -0.00736394710838794708 0.0439164042472839355
15.2836503982543945 -369.684417724609375 10.1574220657348633 100 1644825786.21837258 -0.749714016914367676 0.660058796405792236 0.00514989253133535385 0.0471673645079135895
15.8088541030883789 -379.71722412109375 9.70367431640625 101 1644825788.01648617 -0.712176263332366943 0.700242280960083008 -0.00650168489664793015 0.0492281019687652588
14.9699478149414062 -388.31890869140625 9.29708576202392578 102 1644825790.11201477 -0.639581382274627686 0.765753984451293945 -0.0230884533375501633 0.0634307339787483215
13.037266731262207 -393.2923583984375 9.48412895202636719 103 1644825792.11498833 -0.511648058891296387 0.857244253158569336 -0.0562570914626121521 0.0135517148301005363
11.0665616989135742 -395.040496826171875 9.44492530822753906 104 1644825792.81138277 -0.330200552940368652 0.943186342716217041 -0.030719459056854248 0.0205765999853610992
8.90992832183837891 -395.610015869140625 9.31572914123535156 105 1644825793.31067872 -0.131200388073921204 0.990564703941345215 -0.0182979684323072433 0.0351174585521221161
4.4211268424987793 -395.342742919921875 8.96170711517333984 106 1644825794.21004725 0.0487525686621665955 0.997865438461303711 -0.0226359926164150238 0.0370856784284114838
-5.32921457290649414 -392.45806884765625 8.06024074554443359 107 1644825795.81188059 0.171687230467796326 0.983658313751220703 -0.0380330458283424377 0.0386437177658081055
-15.4146804809570312 -388.89910888671875 7.10166597366333008 108 1644825797.21209264 0.171738684177398682 0.983283460140228271 -0.04816441610455513 0.0366019569337368011
-25.4361095428466797 -385.24273681640625 6.24331235885620117 109 1644825798.50893021 0.181148871779441833 0.981867969036102295 -0.0487138703465461731 0.0273382421582937241
-34.7233428955078125 -381.541595458984375 5.55082130432128906 110 1644825799.71085191 0.196699768304824829 0.979158639907836914 -0.0452211499214172363 0.0226396359503269196
-44.0127944946289062 -377.5478515625 4.91231203079223633 111 1644825800.9108007 0.21043020486831665 0.976489663124084473 -0.0425395481288433075 0.0194280799478292465
-53.2409515380859375 -373.32159423828125 4.27288389205932617 112 1644825802.11463284 0.212924137711524963 0.976373076438903809 -0.0301721245050430298 0.0211806166917085648
-62.2932395935058594 -368.832183837890625 3.67463517189025879 113 1644825803.31024432 0.231898978352546692 0.971706867218017578 -0.037776511162519455 0.02411668561398983
-71.26519775390625 -364.0941162109375 3.06718087196350098 114 1644825804.51110172 0.247796639800071716 0.968027770519256592 -0.0330923944711685181 0.020591316744685173
-80.1163177490234375 -359.101959228515625 2.48498082160949707 115 1644825805.71006608 0.261713474988937378 0.964159965515136719 -0.0308116786181926727 0.0308593697845935822
-88.8471603393554688 -353.879241943359375 1.98492324352264404 116 1644825806.91147614 0.274530261754989624 0.960997104644775391 -0.0286989063024520874 0.017147507518529892
-97.3776473999023438 -348.42364501953125 1.45163476467132568 117 1644825808.11164093 0.289296209812164307 0.956449687480926514 -0.0337784439325332642 0.0192554425448179245
-105.85198974609375 -342.753753662109375 0.964968323707580566 118 1644825809.30942678 0.298316061496734619 0.953953802585601807 -0.0273731555789709091 0.0151788052171468735
-114.118171691894531 -336.947418212890625 0.51583254337310791 119 1644825810.51084709 0.305364221334457397 0.951902687549591064 -0.022060830146074295 0.0121357105672359467
-122.298728942871094 -330.901885986328125 0.0524431802332401276 120 1644825811.71095228 0.319442212581634521 0.947080671787261963 -0.0279182717204093933 0.0146766966208815575
-130.33026123046875 -324.73095703125 -0.355152219533920288 121 1644825812.91327381 0.329789876937866211 0.943709909915924072 -0.0205205455422401428 0.0151388281956315041
-138.203872680664062 -318.44659423828125 -0.797444581985473633 122 1644825814.11012626 0.337449878454208374 0.941202342510223389 -0.0109923183917999268 0.0120382895693182945
-146.016189575195312 -312.115447998046875 -1.06341433525085449 123 1644825815.31178236 0.332421332597732544 0.943021297454833984 -0.0140611873939633369 0.00302978605031967163
-154.519424438476562 -305.50848388671875 -1.281646728515625 124 1644825816.61495566 0.327715277671813965 0.944680333137512207 -0.0102425916120409966 0.00876690447330474854
-162.909042358398438 -298.900299072265625 -1.37187623977661133 125 1644825817.91197467 0.339649409055709839 0.940536141395568848 -0.00307388906367123127 -0.00453736446797847748
-170.963180541992188 -292.04486083984375 -1.46632826328277588 126 1644825819.21133518 0.356216579675674438 0.934386730194091797 0.00341484020464122295 -0.00442421669140458107
-178.713699340820312 -284.971466064453125 -1.50166153907775879 127 1644825820.5137434 0.362907171249389648 0.931793928146362305 -5.85151246923487633e-05 -0.00764272501692175865
-186.432708740234375 -277.92181396484375 -1.48368573188781738 128 1644825821.81270933 0.363579005002975464 0.931562423706054688 0.000277709128567948937 -0.00131286913529038429
-194.250442504882812 -271.009613037109375 -1.38479053974151611 129 1644825823.11324501 0.353845924139022827 0.935238957405090332 0.0107787679880857468 -0.0022319168783724308
-202.294631958007812 -264.3607177734375 -1.25460076332092285 130 1644825824.41341639 0.335821092128753662 0.941854774951934814 0.011515127494931221 -0.00108338368590921164
-210.32257080078125 -257.748046875 -1.15993475914001465 131 1644825825.71511722 0.352615892887115479 0.935683667659759521 0.0125515414401888847 -0.000785134790930896997
-217.849334716796875 -250.649169921875 -0.948419451713562012 132 1644825827.01504159 0.381091147661209106 0.924422740936279297 -0.00358510809019207954 -0.0141171840950846672
-224.927108764648438 -243.125091552734375 -0.754844963550567627 133 1644825828.31391573 0.412037581205368042 0.910933911800384521 -0.0147517053410410881 -0.0143803609535098076
-231.29705810546875 -235.016311645507812 -0.668062984943389893 134 1644825829.61408162 0.473839640617370605 0.880433022975921631 -0.0114431120455265045 -0.0135171553120017052
-235.680755615234375 -225.600479125976562 -0.682755589485168457 135 1644825830.91457462 0.578776240348815918 0.815094351768493652 -0.0199637822806835175 -0.0155158555135130882
-238.226409912109375 -215.532669067382812 -0.758098721504211426 136 1644825832.21343207 0.63574826717376709 0.771382153034210205 -0.0221210028976202011 -0.0174440592527389526
-239.715728759765625 -205.322921752929688 -0.703466057777404785 137 1644825833.51540899 0.661097466945648193 0.749602556228637695 -0.013078729622066021 -0.0295810699462890625
-240.738662719726562 -195.165557861328125 -0.602031707763671875 138 1644825834.8134346 0.679354608058929443 0.733492076396942139 0.00522276945412158966 -0.0209621880203485489
-241.389022827148438 -184.439910888671875 -0.337997287511825562 139 1644825836.21822524 0.68968576192855835 0.723344266414642334 0.00926486775279045105 -0.0319489277899265289
-241.760955810546875 -173.908050537109375 0.138318896293640137 140 1644825837.61422181 0.69683074951171875 0.716508984565734863 0.00558803975582122803 -0.0317892283201217651
-242.135589599609375 -163.717498779296875 0.731327474117279053 141 1644825839.01785207 0.685601592063903809 0.726917386054992676 0.0176325570791959763 -0.035081811249256134
-243.37762451171875 -153.412628173828125 1.46715903282165527 142 1644825840.51374412 0.662942707538604736 0.74769890308380127 0.0226971171796321869 -0.0306297224014997482
-244.517135620117188 -143.07373046875 2.21196532249450684 143 1644825842.11198092 0.680621206760406494 0.731706321239471436 0.0286739896982908249 -0.0232052020728588104
-244.903884887695312 -132.64837646484375 3.16912937164306641 144 1644825843.81186366 0.701001465320587158 0.71118539571762085 0.0279974322766065598 -0.0450380407273769379
-245.095809936523438 -122.337127685546875 4.1477351188659668 145 1644825845.61171556 0.697672247886657715 0.71427619457244873 0.0214412864297628403 -0.0510219521820545197
-245.248977661132812 -111.853828430175781 5.07733297348022461 146 1644825847.51161337 0.7044830322265625 0.70741802453994751 0.0186088550835847855 -0.0540099740028381348
-244.655868530273438 -101.372276306152344 5.92468118667602539 147 1644825849.41007543 0.748519957065582275 0.661269187927246094 0.0122806048020720482 -0.0478551425039768219
-242.024856567382812 -91.6588592529296875 6.71010589599609375 148 1644825851.21245718 0.81676793098449707 0.573477268218994141 0.0103018991649150848 -0.062512814998626709
-237.264358520507812 -82.312347412109375 7.50019454956054688 149 1644825853.10862756 0.871286690235137939 0.487766563892364502 0.012376539409160614 -0.0528214648365974426
-231.419662475585938 -74.1650772094726562 8.09747123718261719 150 1644825854.90875077 0.89786297082901001 0.438204854726791382 0.0156021947041153908 -0.03968840092420578
-224.995574951171875 -66.4857940673828125 8.75410079956054688 151 1644825856.70829582 0.910787105560302734 0.410493373870849609 0.0290366131812334061 -0.0334504730999469757
-217.724533081054688 -59.0721817016601562 9.38517284393310547 152 1644825858.61156583 0.928388833999633789 0.369241476058959961 0.0244738943874835968 -0.0339982882142066956
-209.318954467773438 -53.0711555480957031 9.926910400390625 153 1644825860.50801802 0.961324214935302734 0.27179226279258728 0.0214289985597133636 -0.0390577353537082672
-200.574371337890625 -49.7894401550292969 10.2953128814697266 154 1644825862.21193647 0.994516670703887939 0.0937122106552124023 0.0116034578531980515 -0.0449445620179176331
-195.022354125976562 -49.9984359741210938 10.3197813034057617 155 1644825863.20871592 0.99583733081817627 -0.0819191634654998779 0.00496091274544596672 -0.0396569594740867615
-190.825637817382812 -51.8532485961914062 10.2919940948486328 156 1644825864.00866985 0.964422404766082764 -0.26340174674987793 5.65001937502529472e-05 -0.0225588362663984299
-183.57891845703125 -58.73052978515625 9.81512546539306641 157 1644825865.90894151 0.906494140625 -0.422112464904785156 -0.00929752644151449203 0.00173432938754558563
-178.530426025390625 -63.6654243469238281 9.28805065155029297 158 1644825867.91345954 0.940055727958679199 -0.33952602744102478 -0.0295934472233057022 -0.0118979662656784058
-169.16241455078125 -69.2260360717773438 8.28449916839599609 159 1644825869.91379118 0.960338711738586426 -0.274181991815567017 -0.0498838387429714203 -0.00924311205744743347
-157.819366455078125 -79.9781341552734375 6.88900184631347656 160 1644825872.01080966 0.912828683853149414 -0.405577987432479858 -0.0473903194069862366 0.00212051370181143284
-147.125518798828125 -93.0232315063476562 5.51295089721679688 161 1644825874.01217961 0.913589656352996826 -0.405829668045043945 -0.0249364431947469711 -0.00586462346836924553
-132.785140991210938 -104.291511535644531 4.03987264633178711 162 1644825876.11361027 0.956279516220092773 -0.28968346118927002 -0.0396976694464683533 -0.006087541114538908
-116.591575622558594 -112.408805847167969 3.18263936042785645 163 1644825878.21183753 0.988680899143218994 -0.149149015545845032 -0.0161112155765295029 -0.00225636642426252365
-99.660064697265625 -115.554588317871094 2.99863672256469727 164 1644825880.31067657 0.999231457710266113 -0.0372548028826713562 0.00461857672780752182 0.0112790977582335472
-83.4049453735351562 -115.556175231933594 3.48935055732727051 165 1644825882.41039538 0.999706864356994629 0.0143413254991173744 0.0193784348666667938 -0.002230415353551507
-68.4066925048828125 -114.844245910644531 4.18592309951782227 166 1644825884.41183519 0.999275684356689453 0.0278583969920873642 0.0258563663810491562 -0.00184859149158000946
-53.3890724182128906 -113.474510192871094 5.10788679122924805 167 1644825886.511765 0.997716426849365234 0.0557231307029724121 0.0351030044257640839 0.0149875311180949211
-39.91107177734375 -112.381309509277344 6.07684612274169922 168 1644825888.51232505 0.998836398124694824 0.021064097061753273 0.042409997433423996 0.00913892686367034912
-26.6090583801269531 -111.963447570800781 7.20092630386352539 169 1644825890.61007738 0.998786866664886475 0.00767279742285609245 0.0474783554673194885 0.0105715543031692505
-14.5911426544189453 -111.863067626953125 8.27828788757324219 170 1644825892.61351132 0.998951613903045654 -0.00107868690975010395 0.0457618571817874908 0.000645042164251208305
-2.623504638671875 -111.330276489257812 9.37634468078613281 171 1644825894.71135068 0.997123539447784424 0.0578827112913131714 0.0485870726406574249 -0.00578717002645134926
4.04075098037719727 -108.622390747070312 10.0075883865356445 172 1644825896.01349306 0.971270501613616943 0.233517482876777649 0.0431951470673084259 0.0154057973995804787
7.66970729827880859 -105.639358520507812 10.3300714492797852 173 1644825897.11282873 0.917545616626739502 0.397261619567871094 0.0170671679079532623 0.00140561675652861595
8.45676994323730469 -103.427421569824219 10.2248878479003906 174 1644825897.70944071 0.82156449556350708 0.568482458591461182 -0.0201590899378061295 0.0381190367043018341
8.58521652221679688 -99.2384185791015625 9.77603721618652344 175 1644825898.61409354 0.706792831420898438 0.705178499221801758 -0.0363402329385280609 0.0429719984531402588
7.10620021820068359 -92.3144607543945312 9.60581874847412109 176 1644825900.112988 0.573487758636474609 0.819163799285888672 -0.00828803889453411102 -0.00370829086750745773
3.6416318416595459 -83.2217864990234375 9.61258220672607422 177 1644825902.11354113 0.605603396892547607 0.795517802238464355 0.0156459417194128036 0.0122965816408395767
2.02374887466430664 -74.532684326171875 9.64398860931396484 178 1644825904.11526155 0.657649099826812744 0.752937436103820801 0.0209940150380134583 0.0119220484048128128
0.985615730285644531 -62.4766960144042969 9.72645854949951172 179 1644825906.21586347 0.689508438110351562 0.723573744297027588 0.0316215194761753082 0.0043890499509871006
0.749940335750579834 -52.3834228515625 10.0127401351928711 180 1644825907.71293592 0.707313060760498047 0.706572771072387695 0.021232999861240387 0.00350868934765458107
0.486591100692749023 -39.7361297607421875 10.0899429321289062 181 1644825909.51421928 0.711699724197387695 0.702148258686065674 0.0216654147952795029 0.00138751789927482605
0.183412879705429077 -29.7120323181152344 10.2973184585571289 182 1644825910.91442943 0.687301218509674072 0.726057648658752441 0.0213536880910396576 -0.00115617900155484676
-0.450774878263473511 -19.5394554138183594 10.4746932983398438 183 1644825912.61683106 0.681739449501037598 0.731210589408874512 0.0216125138103961945 0.00976508110761642456
-1.80577301979064941 -9.46770572662353516 10.5853042602539062 184 1644825914.61434221 0.649833977222442627 0.759679853916168213 0.0219762679189443588 0.0109249195083975792
-1.40858232975006104 -3.14143633842468262 10.6653680801391602 185 1644825916.015517 0.815454602241516113 0.577159702777862549 0.030408959835767746 0.0315566286444664001
-0.0241329465061426163 -1.49502182006835938 10.7519769668579102 186 1644825916.51842618 0.904697597026824951 0.424608707427978516 0.0257596466690301895 0.0237947944551706314
1.79578185081481934 -0.486181706190109253 10.7921619415283203 187 1644825917.01542711 0.964900314807891846 0.261428534984588623 0.00489852624014019966 0.0244654323905706406
6.6209416389465332 -0.426130354404449463 10.9208898544311523 188 1644825919.01604962 0.999436616897583008 -0.0332349576056003571 0.00461452873423695564 -0.000783367955591529608
