# .PCD v0.7 - Point Cloud Data file format
VERSION 0.7
FIELDS x y z intensity t qx qy qz qw
SIZE 4 4 4 4 8 4 4 4 4
TYPE F F F F F F F F F
COUNT 1 1 1 1 1 1 1 1 1
WIDTH 226
HEIGHT 1
VIEWPOINT 0 0 0 1 0 0 0
POINTS 226
DATA ascii
-0.378322571516036987 -0.0421514995396137238 0.437956362962722778 0 1644824096.94888735 0.999528825283050537 -0.00109904154669493437 -0.029027249664068222 -0.00991756469011306763
-0.479061424732208252 -0.0290008652955293655 0.462194234132766724 1 1644824107.95366335 0.999984145164489746 -0.00124615896493196487 -0.000131442677229642868 -0.00548580102622509003
-0.226103335618972778 0.0135825835168361664 0.466541320085525513 2 1644824111.05292606 0.999743998050689697 0.0184380095452070236 0.00534825073555111885 -0.0119717223569750786
0.425839155912399292 0.198114842176437378 0.476690173149108887 3 1644824111.45447278 0.997624099254608154 0.0677468180656433105 0.00243104714900255203 -0.0122748827561736107
1.65896427631378174 0.518733322620391846 0.482022196054458618 4 1644824112.15524602 0.993412435054779053 0.113276690244674683 -0.00219903606921434402 -0.0171824265271425247
3.47094511985778809 1.15596938133239746 0.511238813400268555 5 1644824113.15326762 0.986652076244354248 0.161814689636230469 -0.00103835295885801315 -0.0182371102273464203
4.2899165153503418 1.59526312351226807 0.534693300724029541 6 1644824113.55367279 0.977226376533508301 0.211078405380249023 -0.00344529259018599987 -0.0215081330388784409
5.00130510330200195 2.1101226806640625 0.567801058292388916 7 1644824113.95408535 0.964883148670196533 0.261418402194976807 0.00150267325807362795 -0.0256656594574451447
5.58462381362915039 2.63181710243225098 0.596393167972564697 8 1644824114.25651455 0.950486540794372559 0.309468597173690796 0.00618823571130633354 -0.0276800300925970078
6.20839166641235352 3.3510434627532959 0.609989643096923828 9 1644824114.55557966 0.932816267013549805 0.359973788261413574 4.65747179987374693e-05 -0.0165130011737346649
6.83314609527587891 4.16873550415039062 0.630026459693908691 10 1644824114.85247111 0.911828160285949707 0.410228550434112549 -0.000499218062032014132 -0.0167849231511354446
7.39279365539550781 5.06913232803344727 0.640270113945007324 11 1644824115.15472913 0.888684630393981934 0.458126306533813477 -0.0081542162224650383 -0.0171279385685920715
7.82615232467651367 5.92435359954833984 0.675908863544464111 12 1644824115.45460796 0.867571473121643066 0.496640324592590332 -0.0028905870858579874 -0.0256858672946691513
8.19594097137451172 6.83937311172485352 0.66014564037322998 13 1644824115.75625277 0.846490681171417236 0.53179013729095459 -0.0196521375328302383 -0.0163264349102973938
8.64031600952148438 8.27138614654541016 0.673726141452789307 14 1644824116.25495696 0.817366480827331543 0.575842142105102539 -0.0151954228058457375 -0.0093236854299902916
9.03522682189941406 10.1215019226074219 0.698925435543060303 15 1644824116.85702896 0.789617478847503662 0.613564133644104004 -0.00374892354011535645 -0.00540914339944720268
9.29177665710449219 11.9134302139282227 0.723102688789367676 16 1644824117.35340881 0.752852678298950195 0.658035695552825928 -0.0104980487376451492 -0.00957579724490642548
9.28643894195556641 13.0026121139526367 0.735038220882415771 17 1644824117.65417242 0.722752511501312256 0.690945863723754883 -0.0128304483368992805 -0.00761613901704549789
9.14070606231689453 14.3906650543212891 0.752129673957824707 18 1644824118.05555511 0.688143432140350342 0.725523591041564941 -0.00823657028377056122 -0.00250371522270143032
8.88293838500976562 16.0443191528320312 0.76265949010848999 19 1644824118.5547483 0.656247615814208984 0.75436854362487793 -0.0159467551857233047 -0.00358888017944991589
8.20636463165283203 18.6079654693603516 0.754346668720245361 20 1644824119.35469174 0.624405443668365479 0.780821859836578369 0.00526205264031887054 0.0201852377504110336
7.53576850891113281 23.5920162200927734 0.807513833045959473 21 1644824121.15387702 0.679095149040222168 0.734002470970153809 -0.00835643522441387177 0.000575826619751751423
7.53209304809570312 28.6843395233154297 0.85653078556060791 22 1644824123.05216384 0.713270604610443115 0.700678884983062744 -0.000493292929604649544 0.0171431079506874084
7.54719161987304688 33.7182083129882812 0.890944540500640869 23 1644824124.55154753 0.703215181827545166 0.710957169532775879 0.00448949588462710381 0.00285494490526616573
7.30401515960693359 38.7665519714355469 0.898548662662506104 24 1644824125.95459342 0.697539091110229492 0.716235816478729248 0.00723978690803050995 0.0198253318667411804
7.49764442443847656 43.9383773803710938 0.942598998546600342 25 1644824127.55421567 0.725845038890838623 0.687844395637512207 -0.00208920659497380257 0.00384242180734872818
7.75373220443725586 49.0289306640625 0.98160851001739502 26 1644824129.14957356 0.723519325256347656 0.690208315849304199 -0.00954859796911478043 0.00640641339123249054
7.66504907608032227 54.1678886413574219 0.976179182529449463 27 1644824130.64954591 0.703153729438781738 0.710941135883331299 0.000926017994061112404 0.0116897420957684517
7.78104352951049805 59.4741172790527344 1.05303418636322021 28 1644824132.04896903 0.72310483455657959 0.690723240375518799 0.00426786579191684723 -0.00160650874022394419
8.24480628967285156 64.739990234375 1.16048109531402588 29 1644824133.55020285 0.726165473461151123 0.687452375888824463 -0.00698963692411780357 -0.00664112996309995651
7.9691009521484375 69.9135665893554688 1.21855998039245605 30 1644824135.0494597 0.685410201549530029 0.728152275085449219 0.00101380317937582731 -0.00247866194695234299
8.00818061828613281 74.9866561889648438 1.30093526840209961 31 1644824136.65043783 0.725724577903747559 0.687801778316497803 0.011125330813229084 0.0113487401977181435
8.14324951171875 80.1051254272460938 1.44560432434082031 32 1644824138.24730992 0.710576951503753662 0.703323304653167725 0.0203447602689266205 0.00168325868435204029
8.07038784027099609 85.386260986328125 1.52798962593078613 33 1644824140.14806867 0.700495004653930664 0.713515877723693848 0.0117294332012534142 0.00801473949104547501
8.18140029907226562 90.5322799682617188 1.67306351661682129 34 1644824141.64709568 0.714508414268493652 0.699439942836761475 0.016152532771229744 -0.00078501278767362237
8.05019950866699219 95.6370620727539062 1.797507643699646 35 1644824143.14750695 0.701668739318847656 0.71233820915222168 0.0114060854539275169 0.0102572133764624596
8.0682830810546875 100.35076904296875 2.17972016334533691 36 1644824144.64784098 0.713869690895080566 0.697501063346862793 0.0561126731336116791 -0.0270860660821199417
8.42924976348876953 104.977867126464844 2.82740378379821777 37 1644824146.049366 0.736818671226501465 0.673386633396148682 0.0302025564014911652 -0.0523122064769268036
8.73759841918945312 106.555740356445312 2.94652199745178223 38 1644824146.64829302 0.75866776704788208 0.650491297245025635 0.000888845883309841156 -0.0358264818787574768
9.32866573333740234 108.625175476074219 3.02837061882019043 39 1644824147.44757819 0.791078567504882812 0.610640764236450195 -0.0137864658609032631 -0.0335031673312187195
9.8260040283203125 109.826667785644531 3.04552102088928223 40 1644824147.84894156 0.819445013999938965 0.572395682334899902 -0.0181452948600053787 -0.0233198422938585281
10.3026514053344727 110.636283874511719 3.05062723159790039 41 1644824148.14836121 0.844730496406555176 0.534048795700073242 -0.0250793453305959702 -0.024358084425330162
10.844822883605957 111.388137817382812 3.03907608985900879 42 1644824148.44861102 0.871112167835235596 0.489873379468917847 -0.025711648166179657 -0.0229464676231145859
11.4761619567871094 112.058723449707031 3.03222966194152832 43 1644824148.75071788 0.894635796546936035 0.444861471652984619 -0.0302768014371395111 -0.0284321699291467667
12.1697721481323242 112.681137084960938 3.00682330131530762 44 1644824149.04796982 0.915794968605041504 0.399092048406600952 -0.0353867262601852417 -0.0281588789075613022
12.9122552871704102 113.226768493652344 2.99376296997070312 45 1644824149.3482058 0.934201061725616455 0.354172229766845703 -0.0323892831802368164 -0.0279523562639951706
13.6991395950317383 113.715225219726562 2.96779847145080566 46 1644824149.64844728 0.950800776481628418 0.307679861783981323 -0.0308182220906019211 -0.0190070010721683502
14.580775260925293 114.124549865722656 2.91784501075744629 47 1644824149.94889569 0.965379893779754639 0.257711499929428101 -0.0369930341839790344 -0.016062786802649498
15.5101413726806641 114.451095581054688 2.86201739311218262 48 1644824150.24839115 0.977160155773162842 0.207944765686988831 -0.0405192151665687561 -0.0165891218930482864
16.4668769836425781 114.690025329589844 2.80797219276428223 49 1644824150.54791236 0.985897719860076904 0.161940023303031921 -0.0404501855373382568 -0.0120394155383110046
17.8234672546386719 114.930366516113281 2.71601152420043945 50 1644824150.94912481 0.993357956409454346 0.105356618762016296 -0.0454586222767829895 -0.00857134908437728882
19.9836444854736328 115.167350769042969 2.56592965126037598 51 1644824151.55001616 0.99731147289276123 0.0575926229357719421 -0.0450741052627563477 -0.00461018038913607597
23.8863925933837891 115.362152099609375 2.31064391136169434 52 1644824152.5493536 0.998947381973266602 0.0137754045426845551 -0.0437537245452404022 0.000188864389201626182
29.2333011627197266 115.284408569335938 1.98038971424102783 53 1644824153.85049582 0.999038040637969971 -0.000355781085090711713 -0.0434235595166683197 -0.00610516639426350594
34.6688194274902344 115.400474548339844 1.67882955074310303 54 1644824155.15032625 0.999223589897155762 0.00829950533807277679 -0.0377801470458507538 -0.00748507771641016006
40.1344757080078125 115.304779052734375 1.39909160137176514 55 1644824156.35044408 0.999172449111938477 -0.017536921426653862 -0.0354329608380794525 -0.00955808907747268677
45.4700431823730469 115.08544921875 1.09477698802947998 56 1644824157.4522984 0.999058961868286133 -0.0212260130792856216 -0.0372397340834140778 -0.00661870324984192848
50.5533714294433594 115.023765563964844 0.814715266227722168 57 1644824158.45285273 0.999143064022064209 -0.0111685916781425476 -0.0398201718926429749 -0.00164900452364236116
55.7392234802246094 114.917839050292969 0.554055392742156982 58 1644824159.448421 0.999321818351745605 -0.0127773033455014229 -0.0345252379775047302 -0.000797990825958549976
61.2115020751953125 114.760810852050781 0.311774343252182007 59 1644824160.54840112 0.999409377574920654 -0.0187084954231977463 -0.0287821348756551743 0.00156757491640746593
66.4865570068359375 114.574737548828125 0.129621997475624084 60 1644824161.64824438 0.999526560306549072 -0.0166189204901456833 -0.0258335266262292862 -0.00176709203515201807
71.6414642333984375 114.444648742675781 -0.0169915277510881424 61 1644824162.74921942 0.999590873718261719 -0.00979813281446695328 -0.0259571466594934464 -0.0069544278085231781
76.7461929321289062 114.367996215820312 -0.133668988943099976 62 1644824163.85059667 0.999568581581115723 -0.00595381017774343491 -0.0249312631785869598 -0.0143386023119091988
81.9616546630859375 114.309059143066406 -0.269950002431869507 63 1644824164.94835281 0.999490499496459961 -0.00675256270915269852 -0.0270002055913209915 -0.0156229697167873383
87.2547149658203125 114.232124328613281 -0.433011680841445923 64 1644824166.04998994 0.999439895153045654 -0.00940625183284282684 -0.0289881322532892227 -0.0138234244659543037
92.7209930419921875 114.128532409667969 -0.612001359462738037 65 1644824167.15276575 0.999530434608459473 -0.0135177755728363991 -0.0241478607058525085 -0.0131532913073897362
98.2457122802734375 114.021896362304688 -0.645046412944793701 66 1644824168.25145864 0.999759078025817871 -0.0157751068472862244 -0.0149264885112643242 -0.00317605491727590561
103.651008605957031 113.8892822265625 -0.635469377040863037 67 1644824169.34938765 0.999822020530700684 -0.0170146394520998001 -0.00803422462195158005 0.00136760913301259279
108.92706298828125 113.642433166503906 -0.63131868839263916 68 1644824170.45239091 0.999542176723480225 -0.0276536513119935989 -0.0111924977973103523 0.00504318810999393463
113.947845458984375 113.406623840332031 -0.53676450252532959 69 1644824171.55218482 0.999578237533569336 -0.0285963956266641617 0.00336259976029396057 0.00377304176799952984
118.994209289550781 112.779594421386719 -0.385637581348419189 70 1644824172.74982429 0.997427999973297119 -0.0672564581036567688 0.00742250168696045876 -0.0236405134201049805
124.138916015625 111.922752380371094 -0.155931383371353149 71 1644824173.95004654 0.995417356491088867 -0.0919513404369354248 0.0190661512315273285 -0.0180491823703050613
129.21783447265625 110.602561950683594 0.0429372489452362061 72 1644824174.95350695 0.989198207855224609 -0.144321799278259277 0.0120178721845149994 -0.0226655174046754837
133.9698486328125 108.788261413574219 0.303301990032196045 73 1644824175.9477725 0.981671571731567383 -0.187851086258888245 0.0239262636750936508 -0.0214572418481111526
138.587005615234375 106.819206237792969 0.592782855033874512 74 1644824176.95132637 0.976919114589691162 -0.211034536361694336 0.0263825748115777969 -0.019936712458729744
143.029876708984375 104.615127563476562 0.917709589004516602 75 1644824177.95334053 0.971000790596008301 -0.236447185277938843 0.0309165995568037033 -0.0171551015228033066
147.604049682617188 101.900199890136719 1.28769683837890625 76 1644824179.0503509 0.959431469440460205 -0.279705643653869629 0.0319176614284515381 -0.0154028870165348053
151.851303100585938 98.9356918334960938 1.71055877208709717 77 1644824180.14713025 0.95115286111831665 -0.305577337741851807 0.0419098138809204102 -0.0132038276642560959
154.950927734375 96.3642501831054688 2.01821351051330566 78 1644824180.94780087 0.936447620391845703 -0.348082929849624634 0.0404814817011356354 -0.0162918344140052795
158.680694580078125 92.7417678833007812 2.44473648071289062 79 1644824181.94806814 0.923513948917388916 -0.381015658378601074 0.0422820746898651123 -0.0126979351043701172
162.348220825195312 88.7239761352539062 2.92917704582214355 80 1644824183.05084753 0.908875882625579834 -0.414734303951263428 0.0424801073968410492 -0.0116399936378002167
165.732101440429688 84.6178665161132812 3.39715862274169922 81 1644824184.3468442 0.905584275722503662 -0.421907663345336914 0.0424216613173484802 -0.0105567397549748421
168.807601928710938 80.6480255126953125 3.83516812324523926 82 1644824185.94796348 0.893868625164031982 -0.445940285921096802 0.0440861731767654419 -0.0138746388256549835
171.2557373046875 77.2579421997070312 4.21161222457885742 83 1644824188.04644608 0.889395475387573242 -0.454058527946472168 0.052325323224067688 -0.00828257575631141663
174.151535034179688 73.382415771484375 4.66351509094238281 84 1644824190.04650211 0.898893475532531738 -0.435013294219970703 0.0519633069634437561 -0.00733403349295258522
176.3443603515625 71.2156829833984375 4.98127317428588867 85 1644824192.05017161 0.927616715431213379 -0.369853496551513672 0.0522877834737300873 -0.00127034960314631462
179.106674194335938 69.0296096801757812 5.3368535041809082 86 1644824194.14952207 0.939094364643096924 -0.340105503797531128 0.0491761751472949982 -0.00342521583661437035
180.66534423828125 67.2656173706054688 5.5878605842590332 87 1644824196.24957108 0.911001980304718018 -0.40894743800163269 0.0530120879411697388 -0.00520221423357725143
181.80377197265625 65.7015914916992188 5.75382518768310547 88 1644824198.25059271 0.895069360733032227 -0.44325786828994751 0.0466626174747943878 -0.0139954192563891411
181.889663696289062 65.5757064819335938 5.78421545028686523 89 1644824205.34954238 0.89341425895690918 -0.445663273334503174 0.056004941463470459 -0.00765737425535917282
184.660293579101562 61.1924400329589844 6.1899104118347168 90 1644824207.44846821 0.868935883045196533 -0.493088871240615845 0.0404134988784790039 -0.0134361851960420609
186.363983154296875 58.519866943359375 6.49909734725952148 91 1644824209.45239377 0.89973527193069458 -0.431621909141540527 0.0618152692914009094 -0.0189162362366914749
187.614669799804688 57.9658050537109375 6.6439976692199707 92 1644824210.14981842 0.95489269495010376 -0.29242357611656189 0.0515644140541553497 0.00308622396551072598
189.18402099609375 55.5298881530761719 6.87243032455444336 93 1644824212.05222654 0.843426108360290527 -0.535590708255767822 0.0380202718079090118 -0.0181495640426874161
189.150588989257812 55.1760520935058594 6.88067245483398438 94 1644824212.2508049 0.813959896564483643 -0.579105556011199951 0.0382191315293312073 -0.0254030041396617889
189.089996337890625 54.8559684753417969 6.88172435760498047 95 1644824212.45099926 0.780157923698425293 -0.623738884925842285 0.0394537746906280518 -0.0273292958736419678
188.993270874023438 54.5656509399414062 6.88159942626953125 96 1644824212.65328026 0.747965633869171143 -0.661795258522033691 0.0386577248573303223 -0.0328637324273586273
188.86492919921875 54.3016204833984375 6.86472654342651367 97 1644824212.85287809 0.714274168014526367 -0.697564184665679932 0.0396012775599956512 -0.0405998863279819489
188.72021484375 54.0843353271484375 6.85562610626220703 98 1644824213.05469179 0.680596530437469482 -0.730214834213256836 0.0406986139714717865 -0.0437981113791465759
188.58868408203125 53.8893661499023438 6.84151935577392578 99 1644824213.25280714 0.647728502750396729 -0.759569644927978516 0.0373963974416255951 -0.0458606518805027008
188.370956420898438 53.6442604064941406 6.8286585807800293 100 1644824213.55232692 0.601488649845123291 -0.796600162982940674 0.0368192754685878754 -0.0477904975414276123
188.118118286132812 53.4601669311523438 6.80638408660888672 101 1644824213.85356164 0.555497705936431885 -0.828756272792816162 0.0415399931371212006 -0.0534762144088745117
187.913772583007812 53.3000259399414062 6.78918123245239258 102 1644824214.15097117 0.513279914855957031 -0.855895280838012695 0.036197662353515625 -0.0517364479601383209
187.691268920898438 53.1805801391601562 6.76523923873901367 103 1644824214.45422339 0.472210288047790527 -0.879248857498168945 0.0349792204797267914 -0.0521092936396598816
187.474472045898438 53.0784111022949219 6.75150203704833984 104 1644824214.75130343 0.432765424251556396 -0.899313867092132568 0.0318117253482341766 -0.0541909448802471161
187.212020874023438 53.0005264282226562 6.72937393188476562 105 1644824215.15163922 0.385820716619491577 -0.920354783535003662 0.0330267585813999176 -0.0547600202262401581
186.988189697265625 52.9639892578125 6.7146611213684082 106 1644824215.55414724 0.343912452459335327 -0.937007248401641846 0.0338239111006259918 -0.0509666092693805695
186.748794555664062 52.9341583251953125 6.69661235809326172 107 1644824216.05207729 0.301382124423980713 -0.951510787010192871 0.0332731530070304871 -0.0518553294241428375
186.488174438476562 52.9388160705566406 6.67528152465820312 108 1644824216.65415883 0.251684576272964478 -0.966060221195220947 0.0329061374068260193 -0.0479548312723636627
186.1959228515625 52.9633522033691406 6.65280628204345703 109 1644824217.15306902 0.20087142288684845 -0.977736711502075195 0.0329934284090995789 -0.0509214624762535095
185.921157836914062 53.01812744140625 6.62496566772460938 110 1644824217.45202565 0.150654062628746033 -0.986703574657440186 0.0314480029046535492 -0.0522536300122737885
185.59796142578125 53.0992622375488281 6.58982706069946289 111 1644824217.75478411 0.0912520438432693481 -0.994104146957397461 0.0239323414862155914 -0.0534532405436038971
185.381683349609375 53.1983222961425781 6.56205224990844727 112 1644824217.95291162 0.0471614748239517212 -0.996918559074401855 0.0269608758389949799 -0.0565890297293663025
185.165359497070312 53.2942619323730469 6.53597307205200195 113 1644824218.15421104 0.00359273445792496204 -0.99809873104095459 0.0202950667589902878 -0.0580868683755397797
184.958023071289062 53.4147415161132812 6.51052093505859375 114 1644824218.35294747 -0.0398656763136386871 -0.997123420238494873 0.0186947491019964218 -0.0616941191256046295
184.746536254882812 53.5612716674804688 6.48142242431640625 115 1644824218.54975915 -0.0861333683133125305 -0.994104623794555664 0.0139966877177357674 -0.0643517076969146729
184.55926513671875 53.746978759765625 6.45269107818603516 116 1644824218.75013232 -0.134335950016975403 -0.988596022129058838 0.016355687752366066 -0.0660625100135803223
184.369308471679688 53.949066162109375 6.42274856567382812 117 1644824218.95362639 -0.181702673435211182 -0.980876386165618896 0.0118428543210029602 -0.0687414109706878662
184.185516357421875 54.1830406188964844 6.38425302505493164 118 1644824219.15450501 -0.23327423632144928 -0.969803333282470703 0.0095116468146443367 -0.0705274268984794617
184.028305053710938 54.4210853576660156 6.35708475112915039 119 1644824219.35293841 -0.283440351486206055 -0.956188440322875977 0.00222930451855063438 -0.0732139348983764648
183.88140869140625 54.6926536560058594 6.33051300048828125 120 1644824219.55049491 -0.330543458461761475 -0.940972626209259033 0.00249320385046303272 -0.0728372335433959961
183.680023193359375 55.0931892395019531 6.29583501815795898 121 1644824219.85062027 -0.386268258094787598 -0.919723629951477051 0.000435850233770906925 -0.0700361281633377075
181.101425170898438 58.0252304077148438 5.90569496154785156 122 1644824221.95286965 -0.401910841464996338 -0.913244068622589111 -0.01796739362180233 -0.0642656609416007996
177.74981689453125 61.7415313720703125 5.4226837158203125 123 1644824223.35032797 -0.418547213077545166 -0.905843555927276611 -0.00715703237801790237 -0.0649186074733734131
174.64971923828125 65.6644744873046875 4.97003412246704102 124 1644824224.64834857 -0.435708314180374146 -0.897627592086791992 -0.00919710192829370499 -0.065866716206073761
169.562225341796875 71.4906387329101562 4.22887277603149414 125 1644824226.55079818 -0.415356963872909546 -0.907187879085540771 -0.0062852250412106514 -0.0667022988200187683
166.261505126953125 75.6716766357421875 3.76468873023986816 126 1644824227.85107064 -0.43932536244392395 -0.896168708801269531 -6.63879545754753053e-05 -0.062248673290014267
162.700897216796875 79.52581787109375 3.23257327079772949 127 1644824229.25223231 -0.394943118095397949 -0.916061639785766602 0.0117492862045764923 -0.0686509385704994202
159.386428833007812 83.6658477783203125 2.79549384117126465 128 1644824230.64806461 -0.449364900588989258 -0.890754640102386475 -0.0233266521245241165 -0.0639003664255142212
156.256317138671875 87.7394638061523438 2.35691285133361816 129 1644824231.94838834 -0.435676455497741699 -0.897519826889038086 -0.0201882608234882355 -0.0650891512632369995
153.003280639648438 90.9457244873046875 1.94537818431854248 130 1644824233.05030227 -0.362311005592346191 -0.929615437984466553 -0.0189189668744802475 -0.0647146329283714294
149.120269775390625 94.1963577270507812 1.47713744640350342 131 1644824234.24960375 -0.339484900236129761 -0.93803483247756958 -0.0264723487198352814 -0.0643417909741401672
144.868331909179688 97.417236328125 1.08057618141174316 132 1644824235.54837322 -0.302751779556274414 -0.951149642467498779 -0.0218458417803049088 -0.0563775338232517242
140.657028198242188 99.934539794921875 0.723557710647583008 133 1644824236.75183225 -0.261561721563339233 -0.96367114782333374 -0.0267847832292318344 -0.0469676181674003601
135.957901000976562 102.31707763671875 0.369689464569091797 134 1644824238.05156636 -0.222918495535850525 -0.973362207412719727 -0.0266151987016201019 -0.0465292409062385559
131.23089599609375 104.27178955078125 0.0569617412984371185 135 1644824239.35093617 -0.185995742678642273 -0.981098711490631104 -0.0251894071698188782 -0.0470789261162281036
126.328445434570312 105.989120483398438 -0.150924235582351685 136 1644824240.74918866 -0.158048048615455627 -0.986622154712677002 -0.027436327189207077 -0.0290655959397554398
122.98406982421875 106.779396057128906 -0.308573007583618164 137 1644824241.55118108 -0.112288355827331543 -0.992798030376434326 -0.0313054099678993225 -0.0276285335421562195
119.183746337890625 107.348251342773438 -0.464769184589385986 138 1644824242.45073199 -0.0653546378016471863 -0.996993064880371094 -0.028878677636384964 -0.0299943070858716965
113.948280334472656 107.93560791015625 -0.584971129894256592 139 1644824243.84963322 -0.0616828426718711853 -0.997404515743255615 -0.0303192175924777985 -0.0214510262012481689
109.909957885742188 108.169258117675781 -0.627328753471374512 140 1644824245.1505537 -0.0185034275054931641 -0.999359309673309326 -0.0301402639597654343 -0.00549269048497080803
104.945121765136719 108.053199768066406 -0.61742013692855835 141 1644824246.5529108 0.0173043236136436462 -0.99937063455581665 -0.0301091223955154419 0.00723536871373653412
99.751556396484375 108.109291076660156 -0.648535668849945068 142 1644824247.7537992 -0.0180591903626918793 -0.999562084674835205 -0.0209779888391494751 -0.0104619245976209641
94.5439987182617188 108.50836181640625 -0.665807485580444336 143 1644824248.8486402 -0.0440081581473350525 -0.998847305774688721 -0.018488813191652298 -0.00505050970241427422
89.1737747192382812 108.770339965820312 -0.553782284259796143 144 1644824249.94966483 -0.00582267343997955322 -0.999887526035308838 -0.0105020031332969666 0.00898249726742506027
83.9436721801757812 108.765045166015625 -0.454988092184066772 145 1644824250.94998741 -0.00997665431350469589 -0.99964529275894165 -0.0240983851253986359 0.00538272596895694733
78.5014877319335938 108.9637451171875 -0.327233016490936279 146 1644824252.05158281 -0.0223887395113706589 -0.999338984489440918 -0.0282775480300188065 0.00454565975815057755
73.1023635864257812 109.115188598632812 -0.1765776127576828 147 1644824253.14730787 -0.0144275547936558723 -0.999410092830657959 -0.0295164734125137329 0.0100044012069702148
68.0413436889648438 109.177101135253906 -0.0258504766970872879 148 1644824254.15114975 -0.0081056300550699234 -0.999574661254882812 -0.0258016958832740784 0.0109127713367342949
62.7752189636230469 109.191215515136719 0.136833727359771729 149 1644824255.14832759 -0.0048517594113945961 -0.999474465847015381 -0.0298779327422380447 0.011601494625210762
57.8081436157226562 109.334098815917969 0.330475091934204102 150 1644824256.04922247 -0.0164088699966669083 -0.99940788745880127 -0.0262469872832298279 0.0150233497843146324
52.8160820007324219 109.431396484375 0.55457603931427002 151 1644824256.94834447 -0.0132778910920023918 -0.999324917793273926 -0.0262136030942201614 0.0220510996878147125
47.7754440307617188 109.588233947753906 0.810776233673095703 152 1644824257.84968853 -0.023603564128279686 -0.999069094657897949 -0.0293766874819993973 0.020994674414396286
42.7975311279296875 109.844711303710938 1.06228888034820557 153 1644824258.74817801 -0.026987055316567421 -0.999005913734436035 -0.0280348453670740128 0.0217479914426803589
37.4300498962402344 110.011344909667969 1.35008358955383301 154 1644824259.74808073 -0.0152187934145331383 -0.999216735363006592 -0.026745915412902832 0.0248799696564674377
32.1688690185546875 110.045501708984375 1.62869906425476074 155 1644824260.74949288 -0.000650483008939772844 -0.999535441398620605 -0.0223848279565572739 0.0206739865243434906
26.9865932464599609 110.136856079101562 1.9317469596862793 156 1644824261.84805799 -0.0221484284847974777 -0.999154984951019287 -0.0265827029943466187 0.0221842508763074875
22.5970993041992188 110.625633239746094 2.21469306945800781 157 1644824262.94924736 -0.0681482404470443726 -0.9969673752784729 -0.0270203035324811935 0.0261116605252027512
17.2520999908447266 111.250946044921875 2.55553197860717773 158 1644824264.44943094 -0.0253502111881971359 -0.999090313911437988 -0.0204265210777521133 0.0275432616472244263
16.2104721069335938 111.131072998046875 2.61798238754272461 159 1644824264.74882555 0.0278405230492353439 -0.99902641773223877 -0.0208292808383703232 0.0271531380712985992
15.5324869155883789 110.9429931640625 2.65318894386291504 160 1644824264.95024443 0.0730260163545608521 -0.996744155883789062 -0.0244899801909923553 0.023845084011554718
14.8943672180175781 110.711563110351562 2.6861574649810791 161 1644824265.14933872 0.123578377068042755 -0.991778433322906494 -0.0249765738844871521 0.0219117999076843262
14.2477931976318359 110.393058776855469 2.71971702575683594 162 1644824265.35165358 0.167465567588806152 -0.985455036163330078 -0.0183517914265394211 0.0222900286316871643
13.7076272964477539 110.003570556640625 2.73856472969055176 163 1644824265.55210662 0.219444483518600464 -0.975097119808197021 -0.0249129831790924072 0.0202245991677045822
13.1943550109863281 109.58062744140625 2.73766875267028809 164 1644824265.75145149 0.280922770500183105 -0.959432363510131836 -0.0195886734873056412 0.0137170106172561646
12.7289657592773438 108.98809814453125 2.75333690643310547 165 1644824265.95110893 0.341367572546005249 -0.939489662647247314 -0.0264330450445413589 0.0113408658653497696
12.3643674850463867 108.434165954589844 2.77825260162353516 166 1644824266.14955592 0.397759944200515747 -0.916617035865783691 -0.0382458046078681946 0.0117251696065068245
12.0653724670410156 107.830276489257812 2.77241992950439453 167 1644824266.3518424 0.459223657846450806 -0.88765251636505127 -0.0340654961764812469 0.00512080499902367592
11.8942327499389648 107.200050354003906 2.75084304809570312 168 1644824266.55167079 0.516902446746826172 -0.855068743228912354 -0.0404027402400970459 0.0060751819983124733
11.7935075759887695 106.586174011230469 2.74528908729553223 169 1644824266.74963713 0.574241220951080322 -0.817808926105499268 -0.0373084954917430878 0.00660659559071063995
11.7833185195922852 105.967720031738281 2.72089171409606934 170 1644824266.95147586 0.624268710613250732 -0.780353546142578125 -0.0361280478537082672 0.0056280023418366909
11.8605232238769531 105.318855285644531 2.69605755805969238 171 1644824267.15138578 0.670815944671630859 -0.740683138370513916 -0.0368017368018627167 0.00633029220625758171
11.9853134155273438 104.617790222167969 2.63971400260925293 172 1644824267.35106325 0.71889197826385498 -0.693950235843658447 -0.0401078052818775177 -0.00433767540380358696
12.1644401550292969 103.861747741699219 2.53099989891052246 173 1644824267.54972839 0.747654378414154053 -0.661394715309143066 -0.0592564418911933899 -0.00766042293980717659
12.4142789840698242 102.811592102050781 2.392578125 174 1644824267.85331106 0.773320436477661133 -0.628883421421051025 -0.0757233947515487671 -0.0273340139538049698
13.3026924133300781 97.7884597778320312 1.87329423427581787 175 1644824269.65048027 0.730633258819580078 -0.680050790309906006 -0.055873282253742218 -0.024168187752366066
12.7476119995117188 92.803314208984375 1.73276793956756592 176 1644824271.55077505 0.676813066005706787 -0.73591911792755127 -0.0147819435223937035 -0.011339929886162281
12.8134565353393555 89.3634719848632812 1.63441801071166992 177 1644824272.55340385 0.711611926555633545 -0.702284872531890869 -0.015841824933886528 -0.012389342300593853
12.7618370056152344 83.4345703125 1.47697103023529053 178 1644824274.55079961 0.687533318996429443 -0.725795984268188477 -0.0209214389324188232 -0.00896553602069616318
12.4363822937011719 78.4310302734375 1.33684825897216797 179 1644824276.55272317 0.697210192680358887 -0.716364860534667969 -0.017075294628739357 -0.0206830929964780807
12.440709114074707 72.3887405395507812 1.20751106739044189 180 1644824278.55190468 0.695295751094818115 -0.718466818332672119 -0.0167737454175949097 -0.00937424134463071823
12.1261177062988281 70.3854827880859375 1.16247594356536865 181 1644824279.25366092 0.65337824821472168 -0.756654798984527588 -0.0197753366082906723 -0.0133923999965190887
11.7633237838745117 69.1294784545898438 1.13419532775878906 182 1644824279.7536056 0.613797783851623535 -0.788998305797576904 -0.0248433034867048264 -0.0108064832165837288
11.1956567764282227 67.560211181640625 1.11452507972717285 183 1644824280.65325665 0.571911215782165527 -0.819938004016876221 -0.0246159937232732773 -0.00363699859008193016
10.7153005599975586 66.86785888671875 1.10418331623077393 184 1644824281.15260816 0.534965693950653076 -0.844689667224884033 -0.0151030607521533966 -0.00910793151706457138
10.2623500823974609 66.3007659912109375 1.09772181510925293 185 1644824281.65419769 0.497612088918685913 -0.867150485515594482 -0.0183542687445878983 -0.00976683292537927628
8.87922859191894531 62.8333015441894531 1.08563494682312012 186 1644824283.75442672 0.604593813419342041 -0.796432137489318848 -0.00247019785456359386 -0.0124909486621618271
8.894927978515625 61.0663223266601562 1.0479428768157959 187 1644824284.35525012 0.694853544235229492 -0.71884387731552124 -0.000892116338945925236 -0.021005311980843544
9.02706336975097656 60.167633056640625 1.03037846088409424 188 1644824284.65553951 0.726352155208587646 -0.686987161636352539 -0.00620048400014638901 -0.020559871569275856
9.34443759918212891 58.2411041259765625 1.00247335433959961 189 1644824285.35542583 0.755252063274383545 -0.65522456169128418 -0.00531808659434318542 -0.0157099608331918716
10.7085170745849609 51.4826240539550781 0.987955629825592041 190 1644824287.4579289 0.765217185020446777 -0.64368903636932373 -0.00448619155213236809 -0.00932504702359437943
10.948150634765625 44.6503715515136719 0.945110976696014404 191 1644824289.4570055 0.694538772106170654 -0.719410121440887451 -0.00771203311160206795 -0.00235119648277759552
10.667180061340332 36.3549461364746094 0.866984069347381592 192 1644824291.5543437 0.689850866794586182 -0.723832547664642334 -0.00884236395359039307 -0.00969729479402303696
10.4424581527709961 28.6692600250244141 0.82422792911529541 193 1644824293.65128398 0.698645353317260742 -0.715335190296173096 -0.0109916087239980698 -0.00833463110029697418
10.3489046096801758 22.7833881378173828 0.763692975044250488 194 1644824295.65456867 0.701526284217834473 -0.712562024593353271 -0.0106898024678230286 -0.00141237990465015173
10.5943803787231445 18.8535499572753906 0.720125496387481689 195 1644824296.85077 0.735414981842041016 -0.677567422389984131 -0.00782693922519683838 -0.00244669918902218342
10.9854650497436523 12.1706209182739258 0.707991182804107666 196 1644824298.95340419 0.716397702693939209 -0.697506248950958252 -0.0160644110292196274 0.00114678009413182735
10.8219594955444336 9.41555690765380859 0.642867684364318848 197 1644824299.95363832 0.685312628746032715 -0.727741599082946777 -0.0236765965819358826 -0.0133482851088047028
10.5448532104492188 7.79716587066650391 0.635607063770294189 198 1644824300.65246749 0.649991810321807861 -0.759720504283905029 -0.0170518606901168823 -0.00668297009542584419
10.2352705001831055 6.79355335235595703 0.618694841861724854 199 1644824301.14890122 0.615556776523590088 -0.78774338960647583 -0.0214910563081502914 -0.00939561799168586731
9.86075496673583984 6.01573562622070312 0.611761391162872314 200 1644824301.65079021 0.574868083000183105 -0.817933976650238037 -0.0199613757431507111 -0.0105975968763232231
9.50516319274902344 5.51027154922485352 0.607197821140289307 201 1644824302.04811406 0.531747519969940186 -0.846638083457946777 -0.0209511518478393555 -0.00309315463528037071
9.13297080993652344 5.19613027572631836 0.593856096267700195 202 1644824302.34918332 0.490581005811691284 -0.871197938919067383 -0.0124884247779846191 -0.0137295620515942574
8.90921783447265625 5.03864574432373047 0.615203976631164551 203 1644824302.54806328 0.452416837215423584 -0.891676247119903564 -0.0110790887847542763 -0.0104757295921444893
8.57166481018066406 4.87039422988891602 0.624825954437255859 204 1644824302.85104394 0.396198362112045288 -0.918064773082733154 -0.0126313846558332443 -0.00493559520691633224
8.26031303405761719 4.78318309783935547 0.630938470363616943 205 1644824303.15025568 0.350224435329437256 -0.936637699604034424 -0.00686986371874809265 -0.00232915696687996387
7.98575496673583984 4.69562673568725586 0.625849902629852295 206 1644824303.44914937 0.306246161460876465 -0.951865851879119873 -0.0123380366712808609 -0.00353782298043370247
7.67240619659423828 4.63916540145874023 0.619614779949188232 207 1644824303.84710765 0.259552866220474243 -0.965526580810546875 -0.0167385432869195938 -0.0105150863528251648
7.41520357131958008 4.61202573776245117 0.61499553918838501 208 1644824304.24656582 0.217099279165267944 -0.975818991661071777 -0.0221830736845731735 -0.0123728290200233459
7.14208650588989258 4.63308429718017578 0.619974672794342041 209 1644824304.84657168 0.17232842743396759 -0.984718620777130127 -0.0200015660375356674 -0.0152361206710338593
6.97110080718994141 4.65600919723510742 0.618080258369445801 210 1644824306.84672523 0.142953500151634216 -0.989405989646911621 -0.0203084945678710938 -0.0150874685496091843
6.82247257232666016 4.61046886444091797 0.63034898042678833 211 1644824309.24685121 0.149358123540878296 -0.988669395446777344 -0.0124540627002716064 -0.00835586618632078171
5.7404026985168457 3.65252375602722168 0.616516292095184326 212 1644824310.74950719 0.307758510112762451 -0.951376795768737793 -0.00430943397805094719 -0.0121765648946166039
5.57366704940795898 3.29954290390014648 0.607022345066070557 213 1644824311.04570079 0.365561038255691528 -0.930686414241790771 -0.0074320170097053051 -0.0115165458992123604
5.45178318023681641 3.0131831169128418 0.591771781444549561 214 1644824311.24568558 0.407412320375442505 -0.913078546524047852 -0.00412532873451709747 -0.0169027950614690781
5.36240100860595703 2.69032812118530273 0.587752163410186768 215 1644824311.44588399 0.447665035724639893 -0.89403146505355835 -0.0104913823306560516 -0.0139177460223436356
3.209747314453125 0.602744936943054199 0.487825632095336914 216 1644824313.24883866 0.320547789335250854 -0.946900010108947754 -0.0190480984747409821 -0.0163303297013044357
2.70106959342956543 0.429219216108322144 0.474728256464004517 217 1644824313.54980683 0.274980485439300537 -0.961125671863555908 -0.0158015061169862747 -0.019325820729136467
2.21790599822998047 0.303296566009521484 0.471321731805801392 218 1644824313.85046411 0.225774243474006653 -0.973898172378540039 -0.0165507551282644272 -0.0165647994726896286
1.72033190727233887 0.229620188474655151 0.46849513053894043 219 1644824314.14859939 0.180280447006225586 -0.983365297317504883 -0.015929562970995903 -0.0154256848618388176
1.23556137084960938 0.205101549625396729 0.465781688690185547 220 1644824314.44679379 0.13193117082118988 -0.99100959300994873 -0.0164909213781356812 -0.014906623400747776
0.755302906036376953 0.234138250350952148 0.464623928070068359 221 1644824314.74721241 0.0865507200360298157 -0.996074676513671875 -0.0122315129265189171 -0.0139509290456771851
0.306473195552825928 0.287029951810836792 0.465085834264755249 222 1644824315.04852867 0.0431224443018436432 -0.998897850513458252 -0.0141600044444203377 -0.0119617870077490807
-0.265052109956741333 0.422161906957626343 0.460896223783493042 223 1644824315.44687295 -0.016031358391046524 -0.999669134616851807 -0.0130425496026873589 -0.0153153045102953911
-0.792820453643798828 0.595405638217926025 0.458434641361236572 224 1644824315.94642496 -0.0641953721642494202 -0.997780680656433105 -0.00788203347474336624 -0.0158272571861743927
-0.929697871208190918 0.619190871715545654 0.459262460470199585 225 1644824317.94702625 -0.0688278228044509888 -0.997497081756591797 -0.0101804761216044426 -0.012594456784427166
