# .PCD v0.7 - Point Cloud Data file format
VERSION 0.7
FIELDS x y z intensity t qx qy qz qw
SIZE 4 4 4 4 8 4 4 4 4
TYPE F F F F F F F F F
COUNT 1 1 1 1 1 1 1 1 1
WIDTH 204
HEIGHT 1
VIEWPOINT 0 0 0 1 0 0 0
POINTS 204
DATA ascii
2.24379372596740723 -0.843884885311126709 4.66193199157714844 0 1644758461.04323435 0.999603748321533203 -0.00172317179385572672 0.00675963098183274269 -0.0272714905440807343
2.38996315002441406 -0.834673464298248291 4.69809055328369141 1 1644758486.3458569 0.999208807945251465 0.00375136919319629669 0.0255687162280082703 -0.0302308425307273865
5.81456279754638672 -0.485282361507415771 4.77993965148925781 2 1644758488.34665537 0.998775660991668701 0.0436206012964248657 0.0116519127041101456 -0.0202154740691184998
11.9678840637207031 -0.307068616151809692 4.88091754913330078 3 1644758490.34819531 0.999753654003143311 -0.0105360681191086769 0.018884001299738884 0.00500461645424365997
19.7978515625 -1.40852856636047363 4.95759391784667969 4 1644758492.44787288 0.996460974216461182 -0.0792329758405685425 0.0164869576692581177 -0.0227109063416719437
27.7264804840087891 -2.45854544639587402 5.00772523880004883 5 1644758494.54888129 0.997418045997619629 -0.0692295059561729431 0.0162192247807979584 -0.0100720245391130447
37.305908203125 -4.0708160400390625 5.06389474868774414 6 1644758496.64853334 0.994935512542724609 -0.0962246358394622803 0.014883662573993206 -0.0249527357518672943
47.09442138671875 -5.65566444396972656 5.08816194534301758 7 1644758498.74784374 0.996331214904785156 -0.0838109701871871948 -0.000676183379255235195 -0.017301999032497406
55.7511405944824219 -6.49515485763549805 5.16873645782470703 8 1644758500.74831438 0.999536395072937012 0.00968915596604347229 0.0192249305546283722 -0.0215291939675807953
59.7042160034179688 -5.11954593658447266 5.35011100769042969 9 1644758501.84752417 0.969555795192718506 0.239609107375144958 0.0256321392953395844 -0.0434972047805786133
61.2769126892089844 -3.28929734230041504 5.4341893196105957 10 1644758502.5483377 0.903944611549377441 0.42543494701385498 0.0107842078432440758 -0.0421065427362918854
61.9471054077148438 -1.1926267147064209 5.52129173278808594 11 1644758503.24781108 0.814078211784362793 0.579893350601196289 0.00520308548584580421 -0.0311967618763446808
61.829010009765625 1.09977662563323975 5.60623073577880859 12 1644758503.94676781 0.690074920654296875 0.722996771335601807 0.00896770041435956955 -0.0314933322370052338
60.9069900512695312 3.16829156875610352 5.6649479866027832 13 1644758504.54803419 0.547099411487579346 0.83669048547744751 0.0049650752916932106 -0.0246299337595701218
59.2309608459472656 4.86554861068725586 5.66282796859741211 14 1644758505.14840007 0.390536367893218994 0.920528173446655273 0.00859893485903739929 -0.00594413792714476585
56.0344276428222656 6.49158859252929688 5.58891916275024414 15 1644758506.04845262 0.212050274014472961 0.977201223373413086 0.0105872293934226036 0.000576552236452698708
46.9003257751464844 8.36391258239746094 5.4608607292175293 16 1644758508.14873576 0.0931209921836853027 0.995240390300750732 0.0286573469638824463 -0.00194637954700738192
37.0887718200683594 10.0081472396850586 5.35072851181030273 17 1644758510.15088487 0.0833360105752944946 0.996243536472320557 0.0229733902961015701 -0.00510783912613987923
26.8741645812988281 11.5138120651245117 5.2743525505065918 18 1644758512.14453053 0.0730249881744384766 0.997027933597564697 0.0237414911389350891 -0.00624287640675902367
16.7916488647460938 12.9765338897705078 5.15491819381713867 19 1644758514.14430237 0.0727903768420219421 0.997076749801635742 0.0232119075953960419 0.000860944914165884256
8.21029090881347656 14.1851215362548828 5.11792945861816406 20 1644758516.14453197 0.064797230064868927 0.99771583080291748 0.0190557241439819336 -0.00116394984070211649
4.21337413787841797 13.7142314910888672 5.09551334381103516 21 1644758517.2442987 -0.115673273801803589 0.993188202381134033 0.00800976436585187912 -0.0115221329033374786
2.28673768043518066 12.4682779312133789 5.04924726486206055 22 1644758517.94394255 -0.294795900583267212 0.955492377281188965 -0.0106493066996335983 0.00404253741726279259
0.79592585563659668 10.4290857315063477 4.95208740234375 23 1644758518.64591432 -0.46576341986656189 0.883958697319030762 -0.0339783802628517151 0.0229550264775753021
0.116654209792613983 7.72122383117675781 4.88211488723754883 24 1644758519.44716597 -0.62220454216003418 0.782303214073181152 -0.0128061519935727119 0.0264409743249416351
0.42225155234336853 5.62211894989013672 4.85680294036865234 25 1644758520.04457545 -0.751253902912139893 0.658961117267608643 -0.026377921923995018 0.0263063386082649231
1.53283309936523438 3.59760093688964844 4.84623622894287109 26 1644758520.64608073 -0.85915672779083252 0.509692549705505371 -0.0289571993052959442 0.0349967144429683685
3.66021299362182617 1.80097711086273193 4.84046220779418945 27 1644758521.34662318 -0.937580287456512451 0.346260935068130493 -0.0192008540034294128 0.0260353647172451019
10.9866218566894531 -1.01074767112731934 4.88253021240234375 28 1644758523.34805608 -0.991414487361907959 0.12836030125617981 -0.0219213478267192841 0.0118506476283073425
19.6766891479492188 -1.75636017322540283 4.96487140655517578 29 1644758525.44855618 -0.998439490795135498 0.049187980592250824 -0.0189222078770399094 0.0184673592448234558
28.5264053344726562 -2.88099575042724609 5.02228403091430664 30 1644758527.54755688 -0.997019350528717041 0.0723710432648658752 -0.0188713762909173965 0.0189408715814352036
38.2032585144042969 -4.28563547134399414 5.07578468322753906 31 1644758529.64282322 -0.995993316173553467 0.0858927369117736816 -0.0143102146685123444 0.0203710999339818954
48.150054931640625 -5.82095861434936523 5.11300325393676758 32 1644758531.74258304 -0.997083842754364014 0.0728896111249923706 -0.013574567623436451 0.0180727764964103699
57.985809326171875 -6.88283109664916992 5.20746612548828125 33 1644758533.84274483 -0.998176276683807373 0.0531727969646453857 -0.0231736414134502411 0.0167257506400346756
68.3535232543945312 -8.16250038146972656 5.32170820236206055 34 1644758535.94157839 -0.997265875339508057 0.0702050104737281799 -0.0168735887855291367 0.0157277621328830719
78.2998046875 -9.49198055267333984 5.54372644424438477 35 1644758537.9416995 -0.997624814510345459 0.0685181021690368652 0.000401993223931640387 0.00705712288618087769
88.0225601196289062 -10.8515329360961914 5.70385408401489258 36 1644758540.04186463 -0.996584296226501465 0.0778918340802192688 -0.0255463495850563049 0.0100006852298974991
97.3573150634765625 -12.7071599960327148 6.24887514114379883 37 1644758542.0442307 -0.989694595336914062 0.116169773042201996 -0.0828825384378433228 0.0118160154670476913
104.2806396484375 -15.6352291107177734 6.69480323791503906 38 1644758543.94304466 -0.958675682544708252 0.278433829545974731 -0.022790275514125824 0.0538160614669322968
106.928398132324219 -18.6301059722900391 6.49155044555664062 39 1644758544.9432199 -0.892296671867370605 0.448385566473007202 -0.00378138013184070587 0.0523706413805484772
108.231674194335938 -22.1584205627441406 6.21634864807128906 40 1644758545.84216022 -0.795722424983978271 0.604355812072753906 0.00637882668524980545 0.0392320901155471802
108.329635620117188 -29.4046897888183594 5.41360235214233398 41 1644758547.34482503 -0.671467781066894531 0.739667892456054688 0.0322386585175991058 0.0313542969524860382
106.629440307617188 -39.3167190551757812 4.35898685455322266 42 1644758548.94244838 -0.644830048084259033 0.763043045997619629 0.0267303045839071274 0.0352849401533603668
104.951126098632812 -49.7871017456054688 3.28591418266296387 43 1644758550.44235206 -0.647979915142059326 0.760225117206573486 0.0309840403497219086 0.0349251106381416321
103.317169189453125 -60.0888557434082031 2.24187946319580078 44 1644758551.84383702 -0.649146854877471924 0.759673237800598145 0.029502183198928833 0.0251910388469696045
101.772415161132812 -70.008758544921875 1.35206139087677002 45 1644758553.14345932 -0.651578426361083984 0.757868587970733643 0.0227339044213294983 0.0237461738288402557
100.380050659179688 -80.1194839477539062 0.577796578407287598 46 1644758554.4432466 -0.656706154346466064 0.753595411777496338 0.0148021122440695763 0.0247358884662389755
98.8214111328125 -90.1750106811523438 -0.185843944549560547 47 1644758555.74334574 -0.644543051719665527 0.763693511486053467 0.00954840704798698425 0.0352887287735939026
97.26629638671875 -100.333930969238281 -0.913405478000640869 48 1644758557.04475093 -0.647630453109741211 0.76185917854309082 0.00538919446989893913 0.0107872951775789261
95.7305068969726562 -110.370231628417969 -1.38680815696716309 49 1644758558.34349775 -0.64416956901550293 0.764652132987976074 0.0183220729231834412 0.00412862049415707588
93.8750228881835938 -120.741455078125 -1.73400270938873291 50 1644758559.74257302 -0.6314430832862854 0.775378108024597168 0.00790145434439182281 -0.00244593294337391853
90.5206451416015625 -130.680953979492188 -1.82237493991851807 51 1644758561.24244308 -0.546878993511199951 0.837129771709442139 -0.0115374475717544556 0.00199438445270061493
85.590087890625 -140.0142822265625 -1.79191339015960693 52 1644758562.84415579 -0.49184146523475647 0.870367765426635742 -0.0215201899409294128 -0.00942332670092582703
79.799285888671875 -148.412841796875 -1.57105934619903564 53 1644758564.44527125 -0.441031873226165771 0.897139608860015869 -0.0188353601843118668 -0.0166322682052850723
72.7128143310546875 -156.187759399414062 -1.19227468967437744 54 1644758566.14493942 -0.373507529497146606 0.926989316940307617 -0.0206075906753540039 -0.0275357905775308609
64.6750106811523438 -162.592025756835938 -0.692996203899383545 55 1644758567.84578609 -0.298274904489517212 0.953585267066955566 -0.0170105434954166412 -0.0376550145447254181
56.1843986511230469 -167.933975219726562 -0.157302305102348328 56 1644758569.54773211 -0.269253939390182495 0.962217807769775391 -0.0169118046760559082 -0.0367854125797748566
47.2172088623046875 -173.499755859375 0.449272513389587402 57 1644758571.34726453 -0.283340543508529663 0.958014726638793945 -0.0157849304378032684 -0.040947645902633667
38.523223876953125 -179.148361206054688 1.05856108665466309 58 1644758573.14547968 -0.277873337268829346 0.959729492664337158 -0.0149538982659578323 -0.0384978577494621277
29.6582202911376953 -184.719039916992188 1.63525140285491943 59 1644758575.04611969 -0.286224871873855591 0.957313001155853271 -0.0205567833036184311 -0.0347068272531032562
23.204681396484375 -189.28619384765625 2.01093816757202148 60 1644758577.04613638 -0.302359431982040405 0.952724993228912354 -0.0155113879591226578 -0.0255583208054304123
19.1087799072265625 -191.818267822265625 2.19130182266235352 61 1644758579.14453411 -0.270602434873580933 0.962144553661346436 -0.0179125852882862091 -0.0270426496863365173
15.9260711669921875 -193.824859619140625 2.26243472099304199 62 1644758581.15036297 -0.270737290382385254 0.962637960910797119 -0.00483475206419825554 -0.00247025233693420887
11.287693977355957 -196.169891357421875 2.3609161376953125 63 1644758583.24225879 -0.207753196358680725 0.978020668029785156 -0.00136390910483896732 -0.0176728889346122742
7.37578105926513672 -200.32965087890625 2.24922537803649902 64 1644758585.3438859 -0.492549687623977661 0.869998633861541748 0.0222458820790052414 0.0015192526625469327
6.75580024719238281 -203.578536987304688 2.05788493156433105 65 1644758586.3444047 -0.64017254114151001 0.767341732978820801 0.0357033126056194305 -0.0095459306612610817
7.19795894622802734 -207.981796264648438 1.84789812564849854 66 1644758587.54234624 -0.766056418418884277 0.642077624797821045 0.029879596084356308 -0.00107155414298176765
9.91619873046875 -213.49371337890625 1.47753310203552246 67 1644758589.03903103 -0.866117119789123535 0.499160826206207275 0.0241751633584499359 0.00975779816508293152
14.8515195846557617 -221.48687744140625 0.913194656372070312 68 1644758591.03949928 -0.872761547565460205 0.487432301044464111 0.0264012757688760757 0.000139601019327528775
19.9319477081298828 -229.393661499023438 0.446546167135238647 69 1644758593.04299188 -0.877896904945373535 0.478272497653961182 0.021200377494096756 -0.0101499920710921288
25.6211795806884766 -237.729385375976562 -0.210277557373046875 70 1644758595.14188337 -0.886586248874664307 0.461684703826904297 0.0281682610511779785 -0.0043186461552977562
32.7235755920410156 -245.266250610351562 -0.859808385372161865 71 1644758597.03968334 -0.931906521320343018 0.361172407865524292 0.0303542483597993851 -0.0135413222014904022
41.2041397094726562 -251.377517700195312 -1.59307026863098145 72 1644758598.63932443 -0.961262345314025879 0.273595809936523438 0.0289027392864227295 -0.016871204599738121
50.4894866943359375 -255.759963989257812 -2.12545657157897949 73 1644758600.04122281 -0.983511388301849365 0.178640469908714294 0.0165120884776115417 -0.022808535024523735
60.8295745849609375 -258.33843994140625 -2.65924334526062012 74 1644758601.43924952 -0.995498418807983398 0.0903530865907669067 0.0240346342325210571 -0.0155431861057877541
70.9367828369140625 -259.879547119140625 -3.25770330429077148 75 1644758602.73958111 -0.996946334838867188 0.0739984437823295593 0.0229615438729524612 -0.00974576734006404877
81.3675537109375 -261.467041015625 -3.8595128059387207 76 1644758604.04060364 -0.996519804000854492 0.0809510946273803711 0.0197922047227621078 -0.00186087691690772772
91.3054351806640625 -262.932861328125 -4.42537927627563477 77 1644758605.23990393 -0.997025907039642334 0.0756450444459915161 0.0146550470963120461 -0.00156047882046550512
101.583419799804688 -264.43560791015625 -4.96796417236328125 78 1644758606.44165087 -0.996880829334259033 0.0766079053282737732 0.0173032749444246292 -0.00777500541880726814
111.976951599121094 -265.85345458984375 -5.41547870635986328 79 1644758607.64142966 -0.99734032154083252 0.070353582501411438 0.0128653217107057571 -0.0140410903841257095
122.166893005371094 -267.180450439453125 -5.71734142303466797 80 1644758608.94141841 -0.998025000095367432 0.061856195330619812 0.0089474208652973175 -0.0063106524758040905
132.589508056640625 -268.307342529296875 -5.86708641052246094 81 1644758610.44368553 -0.998403072357177734 0.0557123869657516479 -0.00786599516868591309 -0.0050549311563372612
142.6199951171875 -269.570770263671875 -5.76245021820068359 82 1644758612.2441442 -0.996942996978759766 0.0738295018672943115 -0.0254968982189893723 -0.00193052773829549551
153.020416259765625 -271.279205322265625 -5.64288425445556641 83 1644758613.94206238 -0.997710049152374268 0.0653878450393676758 -0.014949234202504158 -0.00869278889149427414
163.517578125 -271.54583740234375 -5.37149143218994141 84 1644758615.54383683 -0.999312281608581543 -0.0111152566969394684 -0.0294136237353086472 -0.0196522306650876999
173.83367919921875 -270.1593017578125 -4.98183965682983398 85 1644758617.14386892 -0.993228912353515625 -0.109330311417579651 -0.0362090952694416046 -0.0152343492954969406
183.611343383789062 -266.816375732421875 -4.64169168472290039 86 1644758618.74020576 -0.981464266777038574 -0.187117829918861389 -0.0345230326056480408 -0.0228698011487722397
192.799346923828125 -262.03936767578125 -4.39419412612915039 87 1644758620.34209085 -0.961429297924041748 -0.271943151950836182 -0.0338195934891700745 -0.0235973261296749115
201.2174072265625 -256.009613037109375 -4.17954158782958984 88 1644758621.94139075 -0.946618497371673584 -0.320005863904953003 -0.0327877290546894073 -0.0208476278930902481
209.244873046875 -249.501419067382812 -3.90749740600585938 89 1644758623.53878736 -0.943713009357452393 -0.327486127614974976 -0.0379862226545810699 -0.0267515107989311218
217.46429443359375 -243.152511596679688 -3.64526891708374023 90 1644758625.14071012 -0.946997582912445068 -0.318247377872467041 -0.0332508683204650879 -0.0284362919628620148
225.704513549804688 -236.767074584960938 -3.40632176399230957 91 1644758626.73831916 -0.946962058544158936 -0.318673968315124512 -0.0331282615661621094 -0.0247441902756690979
233.937469482421875 -230.340118408203125 -3.12806344032287598 92 1644758628.33882141 -0.945147037506103516 -0.323761641979217529 -0.0362761430442333221 -0.0236549023538827896
242.16455078125 -223.9244384765625 -2.79287624359130859 93 1644758629.93896222 -0.946652233600616455 -0.319604039192199707 -0.0352271907031536102 -0.0214898250997066498
250.380661010742188 -217.558334350585938 -2.40130281448364258 94 1644758631.53842807 -0.946900129318237305 -0.318286716938018799 -0.0394978336989879608 -0.022662729024887085
258.540496826171875 -211.259674072265625 -1.93231081962585449 95 1644758633.13920522 -0.946772277355194092 -0.317372381687164307 -0.0467831715941429138 -0.0266142282634973526
266.68853759765625 -204.994705200195312 -1.4097447395324707 96 1644758634.73881316 -0.94667351245880127 -0.318197846412658691 -0.0447325669229030609 -0.0236296486109495163
274.954010009765625 -198.6346435546875 -0.786311507225036621 97 1644758636.54172015 -0.947072446346282959 -0.31682547926902771 -0.0484620332717895508 -0.0180791337043046951
282.679412841796875 -192.736404418945312 -0.0622197240591049194 98 1644758638.63975573 -0.947220146656036377 -0.314896821975708008 -0.0586355030536651611 -0.0132617363706231117
289.406402587890625 -187.190765380859375 0.604006290435791016 99 1644758640.64074492 -0.9366874098777771 -0.345358848571777344 -0.0554082468152046204 -0.0165503751486539841
295.12469482421875 -182.42791748046875 1.18869411945343018 100 1644758642.74282336 -0.94164276123046875 -0.330825686454772949 -0.0617057941854000092 -0.00746142677962779999
301.99951171875 -176.109573364257812 1.93100535869598389 101 1644758644.84074187 -0.92694014310836792 -0.369908720254898071 -0.0610335469245910645 -0.0149793485179543495
309.420928955078125 -169.078475952148438 2.72691488265991211 102 1644758646.74230599 -0.929726660251617432 -0.363041520118713379 -0.0606589578092098236 -0.011386222206056118
316.691680908203125 -162.112823486328125 3.53845024108886719 103 1644758648.44289947 -0.924055039882659912 -0.376534074544906616 -0.0653399676084518433 -0.00866306759417057037
323.78375244140625 -154.544189453125 4.36894464492797852 104 1644758650.14026332 -0.912439823150634766 -0.404004126787185669 -0.0641527622938156128 -0.0108925215899944305
330.70880126953125 -146.932342529296875 5.25052976608276367 105 1644758651.83961105 -0.913834333419799805 -0.401194751262664795 -0.0622415170073509216 -0.00869326386600732803
337.34832763671875 -139.0677490234375 6.11118936538696289 106 1644758653.5409615 -0.904201686382293701 -0.423187226057052612 -0.0565998107194900513 -0.0113273449242115021
343.85650634765625 -131.315460205078125 7.00122165679931641 107 1644758655.44373035 -0.905632555484771729 -0.418948531150817871 -0.0650492310523986816 -0.00896444730460643768
350.2593994140625 -123.388671875 7.88106822967529297 108 1644758657.53817368 -0.898539304733276367 -0.43394005298614502 -0.0643605142831802368 -0.013448457233607769
356.256439208984375 -115.200889587402344 8.78351783752441406 109 1644758659.54127002 -0.889200031757354736 -0.452600538730621338 -0.0666123330593109131 -0.00623396551236510277
362.228668212890625 -107.048164367675781 9.66248989105224609 110 1644758661.54336882 -0.891836643218994141 -0.446716248989105225 -0.0703470185399055481 -0.0111026186496019363
367.431304931640625 -99.1245803833007812 10.5055074691772461 111 1644758663.63891602 -0.867301583290100098 -0.491962701082229614 -0.0724135041236877441 -0.022736087441444397
370.418487548828125 -93.105865478515625 11.0942554473876953 112 1644758665.64168811 -0.849284887313842773 -0.521833121776580811 -0.0783948078751564026 -0.0161123983561992645
373.222503662109375 -87.844146728515625 11.7580194473266602 113 1644758667.7383759 -0.861062228679656982 -0.502240300178527832 -0.079017937183380127 -0.00909300986677408218
374.96923828125 -84.7786483764648438 12.1684837341308594 114 1644758669.73959708 -0.864073753356933594 -0.496336221694946289 -0.0836737751960754395 -0.00506327534094452858
376.316864013671875 -82.4026260375976562 12.4905900955200195 115 1644758671.83617568 -0.863922953605651855 -0.496692419052124023 -0.0831804201006889343 -0.00385328754782676697
377.709991455078125 -79.70263671875 12.8264656066894531 116 1644758673.8386724 -0.853172004222869873 -0.514325261116027832 -0.0867514535784721375 -0.00641741277649998665
378.76190185546875 -75.2455520629882812 13.2569332122802734 117 1644758675.93726158 -0.73836439847946167 -0.669192850589752197 -0.0835142433643341064 -0.00493113882839679718
378.163116455078125 -72.5978469848632812 13.3570985794067383 118 1644758676.7372191 -0.609992265701293945 -0.788884460926055908 -0.0742445662617683411 -0.00764524005353450775
376.5166015625 -69.6983108520507812 13.5916337966918945 119 1644758677.63845062 -0.455973565578460693 -0.887346148490905762 -0.0446274057030677795 0.0520897246897220612
373.4896240234375 -67.448883056640625 13.8179817199707031 120 1644758678.63736916 -0.295617669820785522 -0.952629745006561279 -0.0598793104290962219 0.0390028394758701324
366.607452392578125 -64.285919189453125 14.1868009567260742 121 1644758680.7374227 -0.189046621322631836 -0.980696320533752441 -0.0433062687516212463 0.0249141380190849304
359.030670166015625 -62.5701484680175781 14.4118022918701172 122 1644758682.8363812 -0.0745061859488487244 -0.995957374572753906 -0.038904484361410141 0.0316882692277431488
351.434844970703125 -62.1504669189453125 14.5810766220092773 123 1644758684.83729029 0.00240758783183991909 -0.999440908432006836 -0.0254955794662237167 0.0214951932430267334
343.023529052734375 -63.1802444458007812 14.5808687210083008 124 1644758686.93955255 0.0582511238753795624 -0.997869372367858887 -0.0241600126028060913 0.0167276263236999512
333.952667236328125 -64.1141357421875 14.5520048141479492 125 1644758689.03873444 0.0547835603356361389 -0.998086988925933838 -0.0253234244883060455 0.0134115107357501984
325.8975830078125 -65.1141357421875 14.2641792297363281 126 1644758691.1389091 0.0386971421539783478 -0.997486472129821777 -0.0592615976929664612 -0.00335981743410229683
316.850006103515625 -65.3353424072265625 13.8471527099609375 127 1644758693.23958373 0.00972758326679468155 -0.999717831611633301 -0.0118053862825036049 -0.0181739982217550278
306.6402587890625 -65.3772659301757812 13.1836910247802734 128 1644758695.14013362 0.000824093876872211695 -0.999761044979095459 -0.000906395085621625185 -0.0218250546604394913
296.234893798828125 -64.7891998291015625 12.5128593444824219 129 1644758696.84050798 -0.0594340115785598755 -0.997974872589111328 -0.00353828095830976963 -0.0223874077200889587
286.1221923828125 -62.9148063659667969 11.848231315612793 130 1644758698.44120336 -0.10682225227355957 -0.994085907936096191 -0.00624406849965453148 -0.0185251012444496155
276.148193359375 -60.1237564086914062 11.2632503509521484 131 1644758700.03847218 -0.167162463068962097 -0.985569596290588379 -0.0142501210793852806 -0.0225005131214857101
266.944549560546875 -55.4543952941894531 10.8328266143798828 132 1644758701.63985229 -0.271280676126480103 -0.962258458137512207 -0.0189685691148042679 -0.0102796563878655434
258.789703369140625 -49.630706787109375 10.5325660705566406 133 1644758703.23771906 -0.333055734634399414 -0.94262319803237915 -0.0212624724954366684 -0.00912554468959569931
251.579010009765625 -42.6795616149902344 10.3171958923339844 134 1644758705.04067779 -0.401994943618774414 -0.915297329425811768 -0.0229450594633817673 -0.010216057300567627
244.595046997070312 -34.8521194458007812 10.1878519058227539 135 1644758707.13770223 -0.395412832498550415 -0.918085217475891113 -0.0276370104402303696 0.00210229773074388504
236.833648681640625 -28.7990474700927734 10.0126523971557617 136 1644758709.13828039 -0.254012823104858398 -0.966866433620452881 -0.0198466368019580841 -0.0159016605466604233
228.189682006835938 -28.2124347686767578 9.59509754180908203 137 1644758711.14202523 0.0915524587035179138 -0.995187997817993164 -0.0288550034165382385 -0.0196559485048055649
221.267868041992188 -29.8685188293457031 9.14067363739013672 138 1644758713.24153805 0.0944418236613273621 -0.994934022426605225 -0.0284913647919893265 -0.0193712227046489716
216.174057006835938 -30.5731678009033203 8.83663845062255859 139 1644758715.34035873 0.0591566488146781921 -0.997685730457305908 -0.0262312684208154678 -0.0208705849945545197
212.285888671875 -30.9795303344726562 8.61864471435546875 140 1644758717.44169879 0.0499627254903316498 -0.99825209379196167 -0.0279879644513130188 -0.0146001232787966728
209.32708740234375 -31.3623504638671875 8.44507789611816406 141 1644758719.5401938 0.0534040443599224091 -0.997798562049865723 -0.038064807653427124 -0.00985644571483135223
202.976593017578125 -31.5617923736572266 8.10454845428466797 142 1644758721.54166269 0.00666056713089346886 -0.999585390090942383 -0.0277026761323213577 -0.00415043672546744347
193.217987060546875 -31.2253684997558594 7.7139739990234375 143 1644758723.54196072 -0.0210091881453990936 -0.999493956565856934 -0.0236915908753871918 0.00303414487279951572
183.030364990234375 -30.1806983947753906 7.4517216682434082 144 1644758725.34160376 -0.073191322386264801 -0.996652781963348389 -0.0364018678665161133 -0.00109183660242706537
173.1915283203125 -28.3564224243164062 7.1134028434753418 145 1644758726.93870664 -0.0876055434346199036 -0.99580007791519165 -0.0252215266227722168 -0.00844522751867771149
163.270889282226562 -26.6588459014892578 7.02657413482666016 146 1644758728.54109502 -0.0909781455993652344 -0.995117425918579102 -0.0375775732100009918 0.00722473440691828728
152.874099731445312 -24.9024906158447266 7.0095829963684082 147 1644758730.23796701 -0.0919403582811355591 -0.994978785514831543 -0.0387623384594917297 0.00785259250551462173
142.568801879882812 -23.2136611938476562 7.05908060073852539 148 1644758731.94526124 -0.0725246071815490723 -0.996260643005371094 -0.0434290021657943726 0.017856864258646965
132.400955200195312 -21.3849906921386719 7.16634130477905273 149 1644758733.64441824 -0.087306097149848938 -0.995572268962860107 -0.0333920940756797791 0.00992069859057664871
122.415130615234375 -19.5356941223144531 7.19702816009521484 150 1644758735.73980665 -0.0975360199809074402 -0.994909226894378662 -0.0216425564140081406 -0.0131900804117321968
114.659469604492188 -19.3780250549316406 6.77421903610229492 151 1644758737.83719778 0.0997086167335510254 -0.993727147579193115 -0.046213395893573761 -0.0207081828266382217
112.231231689453125 -20.8249130249023438 6.51135063171386719 152 1644758738.63959885 0.290160894393920898 -0.956078946590423584 -0.0285014789551496506 -0.0301217176020145416
110.546524047851562 -23.2540321350097656 6.15769004821777344 153 1644758739.4379797 0.474723845720291138 -0.878680944442749023 -0.0280160829424858093 -0.042097337543964386
108.341506958007812 -33.8925590515136719 4.87444877624511719 154 1644758741.43880749 0.655607998371124268 -0.753602385520935059 -0.0327433198690414429 -0.034488871693611145
105.958000183105469 -47.4717674255371094 3.38173937797546387 155 1644758743.439147 0.636627435684204102 -0.769756734371185303 -0.026345597580075264 -0.0385484248399734497
103.385269165039062 -63.0209693908691406 1.85239815711975098 156 1644758745.54035211 0.645880043506622314 -0.762323737144470215 -0.0319704823195934296 -0.0260646753013134003
100.999229431152344 -77.919891357421875 0.653597176074981689 157 1644758747.64100623 0.649814188480377197 -0.759640991687774658 -0.0175534579902887344 -0.0194677580147981644
98.7576522827148438 -92.6650924682617188 -0.455172479152679443 158 1644758749.73616862 0.646919310092926025 -0.761903524398803711 -0.0139160174876451492 -0.0283699017018079758
96.7159347534179688 -107.963432312011719 -1.32296502590179443 159 1644758751.83594465 0.649141609668731689 -0.760510861873626709 -0.014942011795938015 -0.00389312510378658772
93.4384536743164062 -122.527130126953125 -1.79537415504455566 160 1644758753.9365828 0.6007118821144104 -0.799364149570465088 -0.00393415149301290512 0.0121121928095817566
87.9780197143554688 -135.3583984375 -1.86828744411468506 161 1644758756.03438115 0.51048731803894043 -0.859806299209594727 0.0108515601605176926 0.00424874573945999146
80.4622344970703125 -146.431228637695312 -1.66526949405670166 162 1644758758.13294888 0.436348021030426025 -0.899318277835845947 0.02020266093313694 0.0204676389694213867
72.0125885009765625 -155.421066284179688 -1.23290359973907471 163 1644758760.13515973 0.366336047649383545 -0.929792702198028564 0.0241989139467477798 0.0264163520187139511
62.7384109497070312 -163.013336181640625 -0.601636111736297607 164 1644758762.13593292 0.307021737098693848 -0.950646758079528809 0.015113338828086853 0.0421892963349819183
52.259185791015625 -169.508056640625 0.0473001673817634583 165 1644758764.2332437 0.26264616847038269 -0.963918626308441162 0.0242398306727409363 0.0359211526811122894
42.2641639709472656 -175.33721923828125 0.738047122955322266 166 1644758766.23512316 0.25311434268951416 -0.966311812400817871 0.0296290721744298935 0.0360093154013156891
31.7153072357177734 -179.833938598632812 1.33191955089569092 167 1644758768.23515153 0.124593921005725861 -0.991497993469238281 0.0194758810102939606 0.032075151801109314
25.1364936828613281 -180.012069702148438 1.61675465106964111 168 1644758769.43829489 -0.0587856248021125793 -0.997425317764282227 0.0175108723342418671 0.037153933197259903
20.3771877288818359 -178.172088623046875 1.92906725406646729 169 1644758770.53780508 -0.241636261343955994 -0.96982884407043457 -0.00380730628967285156 0.0320843197405338287
16.1682090759277344 -174.335784912109375 2.22339582443237305 170 1644758771.73764205 -0.415469378232955933 -0.908671796321868896 -0.0119549529626965523 0.0394695587456226349
11.2314510345458984 -165.325393676757812 2.65561771392822266 171 1644758773.73749924 -0.532900094985961914 -0.845318496227264404 0.00215411768294870853 0.0380723513662815094
7.3000025749206543 -155.795074462890625 3.11150193214416504 172 1644758775.63782549 -0.592480719089508057 -0.80469965934753418 -0.0155807016417384148 0.0343840755522251129
6.16274166107177734 -146.59368896484375 3.28979635238647461 173 1644758777.43682051 -0.725112497806549072 -0.688500285148620605 -0.00629623234272003174 0.0118122370913624763
7.86626577377319336 -141.330169677734375 3.2996065616607666 174 1644758778.63864183 -0.838931024074554443 -0.544219791889190674 0.000320844759698957205 0.00441453419625759125
11.0331335067749023 -137.310028076171875 3.27066540718078613 175 1644758779.83796096 -0.921388745307922363 -0.388433128595352173 -0.0121928472071886063 -0.00371998688206076622
15.3227396011352539 -134.727462768554688 3.20203995704650879 176 1644758780.93858242 -0.975639998912811279 -0.21928057074546814 0.00153558631427586079 -0.00634776754304766655
24.1718654632568359 -129.904190063476562 2.7033836841583252 177 1644758782.93959427 -0.953692972660064697 -0.299364179372787476 0.0227156132459640503 -0.0182964857667684555
31.7248554229736328 -122.592140197753906 1.95660936832427979 178 1644758784.74176168 -0.909625053405761719 -0.414728105068206787 0.0113401087000966072 -0.0213129483163356781
37.042083740234375 -113.597160339355469 1.65436232089996338 179 1644758786.43938279 -0.829795300960540771 -0.557948768138885498 -0.010013568215072155 0.00571116851642727852
39.4430007934570312 -103.553550720214844 1.76546013355255127 180 1644758788.03852868 -0.771630942821502686 -0.635864555835723877 -0.0148783037438988686 0.00637630932033061981
41.0697059631347656 -93.3936538696289062 1.92494833469390869 181 1644758789.63951254 -0.760880410671234131 -0.648511052131652832 -0.0177093204110860825 0.0134447282180190086
42.8738288879394531 -83.3051910400390625 2.15970230102539062 182 1644758791.23865891 -0.769254446029663086 -0.638581752777099609 -0.00974583346396684647 0.0191281698644161224
44.7312393188476562 -73.2047042846679688 2.35571861267089844 183 1644758792.8346076 -0.768384933471679688 -0.639604449272155762 -0.0151583738625049591 0.0161546003073453903
46.2035484313964844 -62.8128738403320312 2.78359580039978027 184 1644758794.53573871 -0.752299129962921143 -0.657774925231933594 -0.0346517227590084076 0.0133209908381104469
47.6705589294433594 -52.63018798828125 3.37875628471374512 185 1644758796.33626437 -0.755917787551879883 -0.653309762477874756 -0.037798907607793808 0.018598560243844986
47.2932472229003906 -45.4641227722167969 3.71569347381591797 186 1644758797.83655167 -0.614736616611480713 -0.787860989570617676 -0.0251832250505685806 0.0271988380700349808
42.5507469177246094 -36.114898681640625 4.0738368034362793 187 1644758799.83736181 -0.568792521953582764 -0.82185131311416626 -0.0318588428199291229 0.00452796835452318192
41.7089614868164062 -25.6612510681152344 4.4020695686340332 188 1644758801.93365574 -0.73629605770111084 -0.676123499870300293 -0.0252789631485939026 0.00927534792572259903
43.6024284362792969 -15.8526449203491211 4.69389820098876953 189 1644758803.93452382 -0.788537800312042236 -0.614212453365325928 -0.0297598373144865036 0.00809617713093757629
47.8794212341308594 -8.20654678344726562 5.0458683967590332 190 1644758806.03331256 -0.929791569709777832 -0.366939008235931396 -0.0269969850778579712 0.0107044735923409462
56.8309822082519531 -6.66481494903564453 5.1830596923828125 191 1644758808.1323576 -0.999444127082824707 0.0249613504856824875 -0.0181124955415725708 0.0126616591587662697
63.3513755798339844 -3.32097244262695312 5.42843198776245117 192 1644758810.23116183 -0.894124329090118408 -0.446046561002731323 -0.00751092704012989998 0.0390859209001064301
62.0561065673828125 3.94064235687255859 5.70940113067626953 193 1644758812.23163414 -0.479341208934783936 -0.877461254596710205 -0.00512387137860059738 0.0163544211536645889
53.8340339660644531 6.97605276107788086 5.53717517852783203 194 1644758814.33395863 -0.0593563206493854523 -0.997987091541290283 -0.0221986491233110428 -0.0024224533699452877
42.9781837463378906 8.55773639678955078 5.38158655166625977 195 1644758816.43411398 -0.0777572691440582275 -0.996612489223480225 -0.0263231862336397171 0.00493905087932944298
30.1117401123046875 10.6941680908203125 5.27625131607055664 196 1644758818.53202677 -0.0916509926319122314 -0.99544680118560791 -0.0260095540434122086 0.00304579152725636959
17.2132053375244141 13.1521902084350586 5.15607595443725586 197 1644758820.63511729 -0.0877502113580703735 -0.995972573757171631 -0.0174785126000642776 -0.00574280694127082825
7.11067533493041992 14.6623201370239258 5.12578916549682617 198 1644758822.73265767 -0.0766350775957107544 -0.99676358699798584 -0.0239755045622587204 0.0038151575718075037
-0.400132447481155396 13.4553318023681641 5.01010751724243164 199 1644758824.83300662 0.268939077854156494 -0.963037788867950439 -0.0105580100789666176 -0.0108853094279766083
-2.83262753486633301 7.14930009841918945 4.78373622894287109 200 1644758826.83412147 0.619004726409912109 -0.785140454769134521 0.00698121264576911926 -0.0184098184108734131
-3.89615106582641602 0.318670809268951416 4.55541658401489258 201 1644758828.93497086 0.708288192749023438 -0.704380214214324951 0.0290417522192001343 -0.0365084223449230194
-0.427510887384414673 -2.63714337348937988 4.52100849151611328 202 1644758830.93553853 0.988734424114227295 -0.14097316563129425 0.0171768348664045334 -0.0472843833267688751
0.875875413417816162 -2.37459349632263184 4.56960248947143555 203 1644758833.03636503 0.999297678470611572 -0.0059568299911916256 0.0193760562688112259 -0.0315147042274475098
