# .PCD v0.7 - Point Cloud Data file format
VERSION 0.7
FIELDS x y z intensity t qx qy qz qw
SIZE 4 4 4 4 8 4 4 4 4
TYPE F F F F F F F F F
COUNT 1 1 1 1 1 1 1 1 1
WIDTH 295
HEIGHT 1
VIEWPOINT 0 0 0 1 0 0 0
POINTS 295
DATA ascii
-6.38644027709960938 2.62011480331420898 -0.0896930024027824402 0 1644764052.50646067 0.999938011169433594 -0.0104906763881444931 0.00367927341721951962 -0.000586667156312614679
-6.26172494888305664 2.60942935943603516 -0.0717945322394371033 1 1644764058.40662122 0.999827027320861816 -0.0121997557580471039 0.0137941399589180946 -0.00260318745858967304
-0.87915956974029541 2.51714992523193359 -0.0844674855470657349 2 1644764060.40816927 0.999948561191558838 -0.00637050718069076538 0.0073726065456867218 -0.00281208031810820103
9.14563083648681641 2.7862093448638916 -0.091164804995059967 3 1644764062.40859723 0.999994993209838867 0.00228909612633287907 -1.59080427692970261e-05 -0.00218502222560346127
19.1799793243408203 2.50413131713867188 -0.0313708335161209106 4 1644764064.00776219 0.999634325504302979 -0.0232233442366123199 0.0057837311178445816 -0.0125868776813149452
29.7104396820068359 1.72410321235656738 0.0890120565891265869 5 1644764065.60963798 0.997651576995849609 -0.0674011856317520142 0.0111046489328145981 -0.00500561762601137161
35.7565841674804688 -0.548934578895568848 0.388658612966537476 6 1644764066.60802412 0.967577934265136719 -0.251091480255126953 0.0269311331212520599 -0.0045473836362361908
43.8017997741699219 -6.7797551155090332 1.12345564365386963 7 1644764068.2073741 0.938637316226959229 -0.338144481182098389 0.0674738958477973938 -0.00809635035693645477
50.8297615051269531 -14.1889152526855469 1.94927394390106201 8 1644764069.90850234 0.894938886165618896 -0.444217413663864136 0.0403759889304637909 -0.0111844521015882492
55.778045654296875 -23.4273796081542969 2.18320035934448242 9 1644764071.61087871 0.833392858505249023 -0.552459001541137695 0.0133693469688296318 -0.00816732645034790039
58.1072921752929688 -33.5262031555175781 2.3068699836730957 10 1644764073.40874124 0.77557837963104248 -0.630296528339385986 0.0275772660970687866 -0.0210697799921035767
65.3634719848632812 -39.07470703125 2.48600101470947266 11 1644764075.41026378 0.998435676097869873 -0.00683547882363200188 -0.00208616489544510841 -0.0554541349411010742
67.5964584350585938 -38.1563911437988281 2.52379631996154785 12 1644764075.9091413 0.981790840625762939 0.186862245202064514 -0.00604833103716373444 -0.0336559414863586426
70.288543701171875 -35.8699493408203125 2.51709485054016113 13 1644764076.60972357 0.921525895595550537 0.386254638433456421 -0.0186578854918479919 -0.0353442654013633728
71.2311553955078125 -33.9377403259277344 2.49166154861450195 14 1644764077.00945759 0.840108692646026611 0.540238142013549805 -0.0364422313868999481 -0.0321257561445236206
71.3639984130859375 -31.3157100677490234 2.48936557769775391 15 1644764077.51035619 0.708001315593719482 0.70450437068939209 -0.0412645265460014343 -0.0265500321984291077
70.4775619506835938 -28.9988460540771484 2.50480437278747559 16 1644764078.01124334 0.571567773818969727 0.819899439811706543 -0.0265052039176225662 -0.0193057190626859665
68.4812393188476562 -26.7033824920654297 2.47150325775146484 17 1644764078.60955119 0.389754712581634521 0.920517027378082275 -0.0268930010497570038 0.00405019335448741913
65.8184280395507812 -25.4276256561279297 2.43606925010681152 18 1644764079.21114111 0.206503778696060181 0.978046119213104248 -0.0277974177151918411 0.00304793287068605423
55.2868804931640625 -20.5147342681884766 2.18251991271972656 19 1644764081.31103826 0.376752972602844238 0.925955116748809814 0.0181065667420625687 0.0183435920625925064
47.1920089721679688 -9.93407440185546875 1.54006505012512207 20 1644764083.31105208 0.411187916994094849 0.910145282745361328 -0.00852224789559841156 0.0498746298253536224
34.7157211303710938 -0.76845163106918335 0.301754146814346313 21 1644764085.40769839 0.253053873777389526 0.967012345790863037 0.0086374552920460701 0.0278617572039365768
26.4199199676513672 2.06461501121520996 0.0369043163955211639 22 1644764086.60830855 0.0780936926603317261 0.996903002262115479 -0.00914508476853370667 0.00148240290582180023
12.0974340438842773 2.61326479911804199 -0.0710094794631004333 23 1644764088.60899115 0.0071415947750210762 0.999969542026519775 0.00307252421043813229 -0.000670665176585316658
-2.83063459396362305 2.91809916496276855 -0.0874347537755966187 24 1644764090.70713615 0.0138400774449110031 0.999879062175750732 -0.00663354573771357536 -0.00250053033232688904
-16.2820014953613281 3.38955354690551758 -0.091516450047492981 25 1644764092.60895324 0.0225285273045301437 0.999347269535064697 0.011342155747115612 -0.0258614085614681244
-26.8994464874267578 3.65385055541992188 0.259376555681228638 26 1644764094.10931993 0.00833362992852926254 0.999714195728302002 0.00702478364109992981 -0.0212778095155954361
-37.2126426696777344 3.65966892242431641 0.641270697116851807 27 1644764095.60819745 -0.0322697348892688751 0.999262511730194092 -0.0144866788759827614 -0.0149426069110631943
-42.370361328125 2.08622884750366211 0.821979343891143799 28 1644764096.41046548 -0.214710995554924011 0.976239204406738281 -0.0177379269152879715 -0.0232718493789434433
-50.3880386352539062 -4.0430293083190918 1.05939149856567383 29 1644764097.90986371 -0.258773863315582275 0.965424597263336182 0.0147396894171833992 -0.0278244856745004654
-60.4566421508789062 -5.58468723297119141 1.17281818389892578 30 1644764099.4098978 0.00709759723395109177 0.999964535236358643 -0.00355516490526497364 -0.00282299797981977463
-70.7811813354492188 -5.23220539093017578 1.2964707612991333 31 1644764100.91159701 -0.000748319318518042564 0.999857842922210693 -0.00249179219827055931 -0.016659073531627655
-80.3884048461914062 -9.26911735534667969 1.44487535953521729 32 1644764102.71147728 -0.433771461248397827 0.900158405303955078 -0.0327919162809848785 0.0219513364136219025
-81.8759918212890625 -13.2889852523803711 1.4482194185256958 33 1644764103.51361442 -0.593124270439147949 0.80477064847946167 -0.00913300085812807083 0.0215486250817775726
-82.2058868408203125 -23.7616977691650391 1.48084306716918945 34 1644764105.50890613 -0.722534835338592529 0.691233456134796143 -0.00886441301554441452 0.00782433152198791504
-81.7276077270507812 -34.2815704345703125 1.48422074317932129 35 1644764107.20733976 -0.713642001152038574 0.700378656387329102 0.00195289868861436844 0.0134534146636724472
-82.0049667358398438 -44.6409187316894531 1.48102998733520508 36 1644764108.90879774 -0.682563364505767822 0.73073422908782959 -0.00734736770391464233 0.0089870840311050415
-87.969879150390625 -51.7441024780273438 1.47836077213287354 37 1644764111.00626826 -0.143584311008453369 0.989372491836547852 0.0226361509412527084 0.00363106373697519302
-93.7926406860351562 -50.6449317932128906 1.51822209358215332 38 1644764112.40797544 0.214164525270462036 0.976624131202697754 0.00797431357204914093 -0.016592223197221756
-95.5234603881835938 -48.9540939331054688 1.5057145357131958 39 1644764112.90659666 0.415855884552001953 0.908628284931182861 0.0321939997375011444 0.0205439794808626175
-96.2558212280273438 -46.76593017578125 1.50353646278381348 40 1644764113.40715075 0.580530285835266113 0.813704609870910645 0.0135904140770435333 0.0261657871305942535
-96.4372787475585938 -40.4802970886230469 1.48749268054962158 41 1644764114.70814824 0.709464073181152344 0.704576671123504639 -0.00158737460151314735 -0.0151627166196703911
-96.002288818359375 -29.947967529296875 1.44751465320587158 42 1644764116.50709724 0.719379663467407227 0.694424033164978027 -0.00462491670623421669 -0.0157089252024888992
-95.5237655639648438 -19.4535942077636719 1.44556987285614014 43 1644764118.10811186 0.726113319396972656 0.687472105026245117 -0.00443150848150253296 -0.0110416105017066002
-94.7180099487304688 -9.09952259063720703 1.4179915189743042 44 1644764119.60868645 0.738725244998931885 0.673835456371307373 -0.0115848025307059288 -0.00982671603560447693
-93.44390869140625 0.964929282665252686 1.43984794616699219 45 1644764121.20877075 0.752747535705566406 0.657724916934967041 -0.0148945888504385948 -0.0233924631029367447
-94.1139068603515625 11.0549516677856445 1.60100150108337402 46 1644764123.00965714 0.604640722274780273 0.796390116214752197 -0.00625218916684389114 -0.011542334221303463
-96.8780593872070312 21.3697471618652344 1.63361442089080811 47 1644764124.71026707 0.644237995147705078 0.764726579189300537 0.00279869907535612583 -0.011950906366109848
-97.008087158203125 31.4489822387695312 1.71861600875854492 48 1644764126.31110287 0.736973583698272705 0.675785303115844727 -0.00666256062686443329 -0.0118223987519741058
-95.1969223022460938 38.70794677734375 1.67742061614990234 49 1644764127.71124721 0.854713082313537598 0.518786132335662842 -0.00480689946562051773 0.0174184516072273254
-93.1869659423828125 40.48443603515625 1.64113771915435791 50 1644764128.31046152 0.943184733390808105 0.331420481204986572 -0.00556603120639920235 0.0230668261647224426
-90.8842239379882812 41.2192153930664062 1.62438023090362549 51 1644764128.906703 0.988072395324707031 0.152861997485160828 -0.0028360260184854269 0.0183886829763650894
-81.5127334594726562 43.1379356384277344 1.55994367599487305 52 1644764130.90687799 0.978652477264404297 0.204720273613929749 0.00286741834133863449 -0.0179095156490802765
-77.2120742797851562 51.4447860717773438 2.35900282859802246 53 1644764132.90800667 0.805646538734436035 0.589255392551422119 0.0193433389067649841 -0.0577717944979667664
-70.8689727783203125 59.5799331665039062 2.03983592987060547 54 1644764134.90730619 0.960631906986236572 0.276155531406402588 -0.0253414269536733627 -0.0168020837008953094
-60.8625450134277344 60.8521614074707031 1.17623662948608398 55 1644764136.50459194 0.999044120311737061 0.00286239595152437687 -0.0436069071292877197 0.00103850930463522673
-50.4883689880371094 60.8126449584960938 0.315504103899002075 56 1644764137.9076252 0.998895406723022461 -0.0156119680032134056 -0.0442784838378429413 0.0019129280699416995
-40.3160209655761719 60.3817634582519531 -0.482837259769439697 57 1644764139.20325208 0.998808681964874268 -0.0288444478064775467 -0.0386796928942203522 0.00728285312652587891
-29.8169994354248047 59.8847999572753906 -1.27148902416229248 58 1644764140.50437832 0.999004662036895752 -0.0234026480466127396 -0.0368402674794197083 0.00920684263110160828
-19.2231597900390625 59.5098037719726562 -1.9162139892578125 59 1644764141.80681396 0.999518871307373047 -0.0133991753682494164 -0.0279580559581518173 0.000928634835872799158
-8.56420230865478516 59.2172012329101562 -2.49744677543640137 60 1644764143.10382533 0.999638617038726807 -0.0124912187457084656 -0.021941058337688446 -0.00923312176018953323
1.98266518115997314 59.0337409973144531 -3.09856796264648438 61 1644764144.4048214 0.999570250511169434 -0.0109717147424817085 -0.0271692629903554916 -0.000850391632411628962
12.4080085754394531 58.86553955078125 -3.42153573036193848 62 1644764145.70418596 0.999879300594329834 -0.0103382132947444916 -0.00740191340446472168 0.00893157348036766052
22.5717411041259766 58.7406730651855469 -3.62846803665161133 63 1644764147.00715828 0.9997406005859375 -0.0127360858023166656 0.00188141630496829748 0.0187875572592020035
33.0493583679199219 57.8472213745117188 -3.59563946723937988 64 1644764148.40364552 0.994912624359130859 -0.100096046924591064 0.0089580342173576355 0.00702889962121844292
42.7530746459960938 55.0369529724121094 -3.3824002742767334 65 1644764149.80353403 0.987700521945953369 -0.155269429087638855 0.0165634285658597946 -0.0080490531399846077
52.60369873046875 51.1646728515625 -2.98321723937988281 66 1644764151.30349851 0.976620972156524658 -0.213126316666603088 0.0270565561950206757 -0.00751959718763828278
61.6419830322265625 46.3519401550292969 -2.44498109817504883 67 1644764152.80403233 0.961037158966064453 -0.274270832538604736 0.0343229100108146667 0.00224744901061058044
69.6344833374023438 40.2830085754394531 -1.80049741268157959 68 1644764154.30397844 0.934109926223754883 -0.355078965425491333 0.0364924073219299316 0.0050811409018933773
76.4712142944335938 32.414337158203125 -1.03528809547424316 69 1644764155.90497923 0.896247506141662598 -0.441206991672515869 0.0455697290599346161 -0.000409433181630447507
82.6738128662109375 24.3948707580566406 -0.318645089864730835 70 1644764157.50419354 0.897413432598114014 -0.438914656639099121 0.0446836426854133606 0.00253020599484443665
89.537353515625 16.4678783416748047 0.494408696889877319 71 1644764159.20709348 0.912934422492980957 -0.405919104814529419 0.0409532338380813599 0.0101630566641688347
96.4926223754882812 9.06742477416992188 1.26762533187866211 72 1644764160.90952325 0.915012478828430176 -0.401183456182479858 0.042451031506061554 0.00137709244154393673
103.045089721679688 1.44585549831390381 1.9490436315536499 73 1644764162.60650373 0.911921262741088867 -0.407914429903030396 0.0441757068037986755 -0.00734228687360882759
108.393241882324219 -4.92647409439086914 2.3912804126739502 74 1644764164.60765409 0.900046586990356445 -0.435597658157348633 0.0113227618858218193 -0.00652767019346356392
110.985733032226562 -8.25145912170410156 2.52973079681396484 75 1644764166.60867405 0.898162007331848145 -0.439539909362792969 -0.00192171800881624222 -0.0102936848998069763
112.015724182128906 -10.7462749481201172 2.62055420875549316 76 1644764168.00809836 0.792443633079528809 -0.609845399856567383 0.00503570446744561195 0.00981430523097515106
111.557350158691406 -11.8098697662353516 2.63013005256652832 77 1644764168.51059556 0.657243430614471436 -0.75358957052230835 0.00952851679176092148 -0.0065588788129389286
110.789810180664062 -12.466252326965332 2.62528181076049805 78 1644764169.00908256 0.511223971843719482 -0.859123408794403076 0.0206139609217643738 -0.0114927440881729126
109.825523376464844 -12.8825492858886719 2.57756900787353516 79 1644764169.61158681 0.337367147207260132 -0.940924167633056641 0.0127442460507154465 -0.0261288899928331375
108.746925354003906 -12.8642187118530273 2.54514002799987793 80 1644764170.31006789 0.145539700984954834 -0.989163637161254883 0.00895080715417861938 -0.0171267464756965637
107.735183715820312 -12.4794034957885742 2.4899909496307373 81 1644764170.80988145 -0.0481032654643058777 -0.998571038246154785 -8.84828623384237289e-05 -0.0232808981090784073
106.8253173828125 -11.6103715896606445 2.47423362731933594 82 1644764171.40704465 -0.248038962483406067 -0.968657255172729492 0.00931818131357431412 -0.00964486319571733475
101.821235656738281 -7.05769157409667969 2.08783555030822754 83 1644764173.40833616 -0.31199193000793457 -0.949934720993041992 0.00729828281328082085 -0.0152237443253397942
94.1802520751953125 -6.92436027526855469 1.87597823143005371 84 1644764175.40922666 0.234387770295143127 -0.971765220165252686 0.0251643452793359756 0.0100762136280536652
87.3819351196289062 -12.817774772644043 2.10478901863098145 85 1644764177.50537467 0.371659517288208008 -0.927567541599273682 0.0374279096722602844 0.00931409932672977448
79.7995147705078125 -19.4761867523193359 2.35120677947998047 86 1644764179.50530243 0.339224636554718018 -0.939685344696044922 0.0426976345479488373 0.00975045375525951385
73.3428726196289062 -23.3699569702148438 2.52049589157104492 87 1644764180.90514469 0.169268578290939331 -0.985466539859771729 0.000450580497272312641 0.014270036481320858
62.6490211486816406 -25.2215862274169922 2.4196314811706543 88 1644764182.90652895 0.13514392077922821 -0.99055248498916626 0.0228714458644390106 -0.00434155389666557312
59.322662353515625 -27.2277927398681641 2.3658759593963623 89 1644764183.70407081 0.326205968856811523 -0.944359362125396729 0.0386246815323829651 -0.0168271083384752274
57.9179458618164062 -29.3902873992919922 2.3066871166229248 90 1644764184.20326877 0.495693445205688477 -0.86707305908203125 0.0353164337575435638 -0.0350004993379116058
59.5678291320800781 -36.7783660888671875 2.46747851371765137 91 1644764185.80295801 0.888264179229736328 -0.457436323165893555 0.0313305817544460297 -0.0275166574865579605
61.6562843322753906 -38.3085212707519531 2.50301599502563477 92 1644764186.30443406 0.954751133918762207 -0.294477641582489014 0.0166740156710147858 -0.038146045058965683
71.1565093994140625 -35.0116806030273438 2.55905652046203613 93 1644764188.40451288 0.880708396434783936 0.472132623195648193 -0.0237596891820430756 -0.0296466592699289322
77.7081451416015625 -24.3815956115722656 2.45247268676757812 94 1644764190.50290108 0.918775439262390137 0.394715338945388794 -0.00688979029655456543 -0.00199959520250558853
88.35906982421875 -14.6768922805786133 2.17223787307739258 95 1644764192.60191965 0.928401291370391846 0.371090859174728394 -0.0181450210511684418 -0.00578030338510870934
95.7368927001953125 -4.30915117263793945 1.75001645088195801 96 1644764194.70140243 0.839775204658508301 0.542509019374847412 -0.0199069827795028687 0.00807768385857343674
96.225341796875 -0.649873912334442139 1.50162029266357422 97 1644764195.40228653 0.727919876575469971 0.684570193290710449 -0.0290490016341209412 0.0255424268543720245
95.4618988037109375 1.73867392539978027 1.33890509605407715 98 1644764195.90257502 0.589946329593658447 0.806360006332397461 -0.0194401051849126816 0.0369992069900035858
88.2065200805664062 11.2850847244262695 0.529920041561126709 99 1644764198.00032234 0.405599892139434814 0.912989258766174316 0.00978371314704418182 0.0429377928376197815
78.9846572875976562 22.5706005096435547 -0.538009226322174072 100 1644764200.00096393 0.473062664270401001 0.879967749118804932 0.0103583913296461105 0.0419664531946182251
68.8121261596679688 34.2477607727050781 -1.6542518138885498 101 1644764202.0018239 0.380991756916046143 0.923499822616577148 0.0110536599531769753 0.0432567484676837921
56.3567428588867188 45.2367820739746094 -2.72851181030273438 102 1644764204.10110474 0.304560601711273193 0.951986014842987061 0.00579851679503917694 0.0305264443159103394
42.4420433044433594 51.7354393005371094 -3.39069008827209473 103 1644764206.10190392 0.150086954236030579 0.988494634628295898 0.00929767917841672897 0.0163034107536077499
27.9823417663574219 54.1314888000488281 -3.63558530807495117 104 1644764208.10311007 0.0487067252397537231 0.998652160167694092 0.0176390651613473892 -0.00321875233203172684
13.310577392578125 54.9715423583984375 -3.34104084968566895 105 1644764210.20299673 0.00687902979552745819 0.999882996082305908 0.00311402627266943455 -0.0133031019940972328
-0.183495238423347473 55.6133651733398438 -2.89933228492736816 106 1644764212.2031517 0.0407235734164714813 0.998610198497772217 0.00295101595111191273 -0.0333244316279888153
-13.2284755706787109 56.275054931640625 -2.22065639495849609 107 1644764214.20358968 0.0180975794792175293 0.999284029006958008 0.013581608422100544 -0.0303219445049762726
-26.3032569885253906 56.327972412109375 -1.45928359031677246 108 1644764216.30120492 -0.00771165406331419945 0.999104499816894531 0.0175377223640680313 -0.0377246662974357605
-38.8157005310058594 56.0069808959960938 -0.60437774658203125 109 1644764218.40131235 -0.00543670123443007469 0.998905420303344727 0.0238478723913431168 -0.0398714803159236908
-50.8073196411132812 56.3281097412109375 0.331378668546676636 110 1644764220.50044155 0.0278003159910440445 0.998391151428222656 0.0191451888531446457 -0.045559711754322052
-62.3561210632324219 57.2868385314941406 1.30663681030273438 111 1644764222.60123944 0.0507234483957290649 0.997435212135314941 0.016449538990855217 -0.047743968665599823
-72.4441986083984375 56.8138465881347656 2.10977411270141602 112 1644764224.50216079 -0.146407023072242737 0.988228499889373779 0.0115226292982697487 -0.0428565181791782379
-75.5264739990234375 54.7712326049804688 2.32506108283996582 113 1644764225.2017355 -0.332476705312728882 0.942330598831176758 0.0121006472036242485 -0.0364130064845085144
-76.9608383178710938 52.5354690551757812 2.39099478721618652 114 1644764225.7014451 -0.494720190763473511 0.868351280689239502 0.0128251966089010239 -0.032457355409860611
-77.6996002197265625 49.2270431518554688 2.16680479049682617 115 1644764226.30223799 -0.643942177295684814 0.763032972812652588 0.0513517223298549652 0.0219573918730020523
-78.2226104736328125 36.2133979797363281 1.52460086345672607 116 1644764228.3027637 -0.708216071128845215 0.705974340438842773 0.00409752922132611275 0.00366195547394454479
-78.757781982421875 26.0296745300292969 1.35437357425689697 117 1644764230.30213809 -0.678581297397613525 0.733096718788146973 0.029967164620757103 0.0346200615167617798
-80.6408004760742188 18.7817440032958984 1.27450025081634521 118 1644764232.10339689 -0.535464227199554443 0.844531476497650146 0.00620563700795173645 0.00248962407931685448
-84.8786773681640625 14.8594598770141602 1.29622197151184082 119 1644764233.20203304 -0.27205502986907959 0.961990416049957275 0.018052639439702034 -0.0153157925233244896
-88.6832351684570312 13.9053497314453125 1.36175787448883057 120 1644764233.9028933 -0.0744447186589241028 0.997039437294006348 0.017083214595913887 -0.00886377692222595215
-92.1494598388671875 14.4390792846679688 1.39557838439941406 121 1644764234.50243545 0.122480176389217377 0.992376387119293213 0.0136061552911996841 -0.00160469836555421352
-94.7566757202148438 15.9454278945922852 1.39879238605499268 122 1644764235.00402141 0.295423567295074463 0.955024659633636475 0.0218610037118196487 0.0132276685908436775
-96.5956268310546875 18.1925926208496094 1.45060229301452637 123 1644764235.5036788 0.459246993064880371 0.887910306453704834 0.0239961463958024979 0.0114755257964134216
-97.2360000610351562 29.7043857574462891 1.65086221694946289 124 1644764237.50391269 0.738046348094940186 0.674427032470703125 -0.000654266797937452793 -0.020863901823759079
-93.170989990234375 39.8999824523925781 1.65585982799530029 125 1644764239.60281038 0.950501143932342529 0.308190256357192993 -0.00719463545829057693 0.0389174558222293854
-83.7247314453125 42.1215019226074219 1.54676902294158936 126 1644764241.60588598 0.990585565567016602 0.136880204081535339 0.00121396745089441538 -0.00159640831407159567
-78.67864990234375 50.5005760192871094 2.37662768363952637 127 1644764243.70410013 0.690169394016265869 0.719291627407073975 0.0281829833984375 -0.0741041302680969238
-78.2781524658203125 60.8798370361328125 2.80199551582336426 128 1644764245.80421019 0.758848607540130615 0.648460865020751953 -0.034427940845489502 -0.0496181957423686981
-78.4685134887695312 70.9821548461914062 3.06886696815490723 129 1644764247.50257635 0.70028996467590332 0.713285744190216064 -0.00512494007125496864 -0.0281275678426027298
-78.5368804931640625 81.5804595947265625 3.10552692413330078 130 1644764249.10079241 0.7036781907081604 0.709992349147796631 -0.0209740232676267624 -0.0175478756427764893
-78.5043182373046875 91.7135772705078125 2.93057537078857422 131 1644764250.50164604 0.718350470066070557 0.695593118667602539 -0.0098539348691701889 -0.0050709242932498455
-77.2965621948242188 102.097190856933594 2.78912854194641113 132 1644764251.90760756 0.726608455181121826 0.686104476451873779 -0.0270022209733724594 -0.0239097978919744492
-77.2683258056640625 112.51519775390625 2.70916175842285156 133 1644764253.30631304 0.706965208053588867 0.706803977489471436 -0.0153180351480841637 -0.0198419820517301559
-77.0918197631835938 122.898078918457031 2.70269203186035156 134 1644764254.70636153 0.717889666557312012 0.695564925670623779 -0.0128426235169172287 -0.0256698746234178543
-76.633148193359375 133.15667724609375 2.92215180397033691 135 1644764256.10670209 0.715184867382049561 0.698086023330688477 -0.0112718977034091949 -0.0325500667095184326
-77.173004150390625 143.31396484375 3.0804755687713623 136 1644764257.50789881 0.659362494945526123 0.751122772693634033 -0.0199471693485975266 -0.0256467442959547043
-78.455169677734375 153.321563720703125 3.32070565223693848 137 1644764258.9046433 0.659157872200012207 0.751062750816345215 -0.00609355000779032707 -0.0371277779340744019
-80.188232421875 163.206161499023438 3.7337498664855957 138 1644764260.3060863 0.611364364624023438 0.790400445461273193 -0.0162226464599370956 -0.0351797901093959808
-83.2198104858398438 173.38232421875 4.18754816055297852 139 1644764261.80252242 0.594565808773040771 0.803331196308135986 -0.000131420631078071892 -0.0339196175336837769
-85.3741683959960938 183.8486328125 4.58431005477905273 140 1644764263.30521798 0.6830863356590271 0.729884207248687744 0.000486440199892967939 -0.0257265884429216385
-83.438751220703125 193.574111938476562 4.7819361686706543 141 1644764264.70400405 0.842484056949615479 0.53863227367401123 0.00942956656217575073 -0.0026467442512512207
-79.4145736694335938 198.58880615234375 4.76372003555297852 142 1644764265.60458779 0.925498843193054199 0.378743082284927368 -0.000500762718729674816 -0.00231868983246386051
-72.0332870483398438 205.399856567382812 4.84204006195068359 143 1644764267.00719619 0.922157347202301025 0.386378377676010132 0.00467731570824980736 -0.0177681818604469299
-66.1958541870117188 214.230331420898438 5.02503442764282227 144 1644764268.49871445 0.862354040145874023 0.50607764720916748 0.0108967553824186325 -0.010591418482363224
-61.5874595642089844 223.837509155273438 5.31967020034790039 145 1644764269.99922156 0.832186877727508545 0.554183244705200195 0.0113925691694021225 -0.0147002339363098145
-58.8253936767578125 234.116378784179688 5.69536399841308594 146 1644764271.49834752 0.769512534141540527 0.63831639289855957 0.0145045807585120201 -0.013866194523870945
-58.27978515625 244.718780517578125 6.17744541168212891 147 1644764273.00114155 0.696359872817993164 0.717049121856689453 0.0283521823585033417 -0.0109373759478330612
-59.6712837219238281 254.755233764648438 6.62663364410400391 148 1644764274.70125461 0.644574284553527832 0.76423722505569458 0.0207979269325733185 0.00573502713814377785
-60.0222129821777344 259.496185302734375 6.89009666442871094 149 1644764276.7993052 0.681952774524688721 0.730951249599456787 0.0226789750158786774 -0.0116772111505270004
-61.4506950378417969 264.7589111328125 7.19968509674072266 150 1644764278.89921665 0.598848223686218262 0.800143241882324219 0.0270684882998466492 -0.0204654783010482788
-63.2655220031738281 270.467742919921875 7.50868034362792969 151 1644764280.90096998 0.601948857307434082 0.797973275184631348 0.0286661945283412933 0.00862771738320589066
-64.0856475830078125 274.6512451171875 7.72107648849487305 152 1644764282.90212226 0.630818724632263184 0.775882959365844727 -0.00853131245821714401 -0.000780092319473624229
-65.3011474609375 280.62384033203125 8.09278011322021484 153 1644764284.99897909 0.626753151416778564 0.77845996618270874 0.00260766549035906792 -0.0342606902122497559
-67.0632400512695312 290.49432373046875 8.12994289398193359 154 1644764286.89984417 0.655514001846313477 0.754745423793792725 -0.0249995272606611252 -0.00597469182685017586
-68.7401351928710938 300.8883056640625 7.90930938720703125 155 1644764288.70307922 0.649053514003753662 0.760382175445556641 -0.0233437754213809967 0.0018960998859256506
-70.26605224609375 310.886566162109375 7.74331951141357422 156 1644764290.40129566 0.657876431941986084 0.752670347690582275 -0.0241003744304180145 -0.01025350671261549
-70.1234588623046875 320.982818603515625 7.40348100662231445 157 1644764292.09984732 0.744703710079193115 0.666513979434967041 -0.0331748165190219879 -0.00866023078560829163
-68.4279861450195312 330.997802734375 7.08728694915771484 158 1644764294.00119352 0.771971046924591064 0.633896589279174805 -0.042133871465921402 -0.021461019292473793
-66.0627670288085938 337.59552001953125 7.04737138748168945 159 1644764296.00214934 0.856866776943206787 0.511698782444000244 -0.00547607429325580597 -0.0625597685575485229
-63.74261474609375 339.75946044921875 7.08929252624511719 160 1644764297.0026567 0.937012374401092529 0.344435542821884155 -0.0129222478717565536 -0.0566125921905040741
-60.9723320007324219 340.820281982421875 6.99829006195068359 161 1644764297.70430183 0.985776007175445557 0.160169988870620728 -0.0251764282584190369 -0.0442417338490486145
-57.4603843688964844 340.91650390625 6.73840665817260742 162 1644764298.404809 0.998730361461639404 -0.0156408399343490601 -0.0341272652149200439 -0.03359178826212883
-49.3818473815917969 338.434173583984375 5.92415523529052734 163 1644764299.80392814 0.979650437831878662 -0.192567110061645508 -0.0399770215153694153 -0.0400596074759960175
-39.6884918212890625 334.010711669921875 4.80170106887817383 164 1644764301.30414891 0.975398838520050049 -0.208745822310447693 -0.0391265936195850372 -0.0590879619121551514
-30.1243362426757812 329.804473876953125 3.80293369293212891 165 1644764302.70386124 0.97394031286239624 -0.216726064682006836 -0.0340896844863891602 -0.0575153827667236328
-20.6168041229248047 325.274017333984375 2.91045832633972168 166 1644764304.10092187 0.972414672374725342 -0.22506500780582428 -0.0280558317899703979 -0.0544818751513957977
-11.2937288284301758 320.5235595703125 2.08686494827270508 167 1644764305.50157928 0.969051957130432129 -0.240512415766716003 -0.0237163566052913666 -0.0502952225506305695
-2.01464128494262695 315.6353759765625 1.27047252655029297 168 1644764306.9017756 0.96786046028137207 -0.24444618821144104 -0.0396845787763595581 -0.0437871254980564117
7.13382291793823242 310.7550048828125 0.48569074273109436 169 1644764308.30427694 0.96770322322845459 -0.246558055281639099 -0.0247021075338125229 -0.0463617034256458282
16.1372776031494141 305.4736328125 -0.32051926851272583 170 1644764309.70219111 0.960680544376373291 -0.273306012153625488 -0.0266118962317705154 -0.0410922355949878693
24.9490871429443359 299.73779296875 -1.12397253513336182 171 1644764311.10153556 0.952323496341705322 -0.301369160413742065 -0.025952409952878952 -0.0397874638438224792
33.5672035217285156 293.83447265625 -1.84277379512786865 172 1644764312.50333977 0.95392763614654541 -0.296664685010910034 -0.0222017951309680939 -0.038977060467004776
42.2399749755859375 287.994873046875 -2.57808995246887207 173 1644764313.90516734 0.95509183406829834 -0.292170494794845581 -0.0235599242150783539 -0.0433695688843727112
50.8742179870605469 282.222137451171875 -3.24400806427001953 174 1644764315.30327225 0.953172683715820312 -0.299067109823226929 -0.0220254585146903992 -0.0391870588064193726
59.0427742004394531 275.7493896484375 -3.87928938865661621 175 1644764316.70285726 0.933833539485931396 -0.355906397104263306 -0.0163706745952367783 -0.0318997539579868317
66.79193115234375 268.800384521484375 -4.54558753967285156 176 1644764318.10138965 0.931248068809509277 -0.362335175275802612 -0.0187332890927791595 -0.0337529554963111877
74.35845947265625 261.624176025390625 -5.15185213088989258 177 1644764319.50277185 0.923217952251434326 -0.382842540740966797 -0.0252312310039997101 -0.0215304158627986908
81.702362060546875 254.252609252929688 -5.76801204681396484 178 1644764320.90036321 0.919478178024291992 -0.392264485359191895 -0.0228185690939426422 -0.0129541791975498199
88.8535308837890625 246.688888549804688 -6.18799352645874023 179 1644764322.30050373 0.917358577251434326 -0.397539824247360229 -0.0137131586670875549 -0.0150769054889678955
95.934112548828125 239.307937622070312 -6.53503561019897461 180 1644764323.69836187 0.920426070690155029 -0.390510350465774536 -0.0150836193934082985 -0.00948788877576589584
103.12255859375 232.151779174804688 -6.77540206909179688 181 1644764325.09934711 0.925022125244140625 -0.379682362079620361 -0.00850766431540250778 -0.0101500144228339195
110.456710815429688 225.262466430664062 -7.01048660278320312 182 1644764326.49989867 0.929550230503082275 -0.368689447641372681 -0.00188494857866317034 0.000950992398429661989
117.888458251953125 218.563339233398438 -7.20973491668701172 183 1644764327.89877868 0.933516740798950195 -0.358458369970321655 -0.00563602615147829056 0.0047202487476170063
125.224510192871094 211.76422119140625 -7.34090423583984375 184 1644764329.29832482 0.924783587455749512 -0.380364686250686646 -0.00952737778425216675 0.00270116003230214119
132.469192504882812 204.830642700195312 -7.4718785285949707 185 1644764330.69709158 0.925764024257659912 -0.377671867609024048 -0.00740545568987727165 0.0164354518055915833
140.140457153320312 197.426071166992188 -7.55645179748535156 186 1644764332.19740653 0.92320936918258667 -0.383582174777984619 -0.00683151558041572571 0.0224168095737695694
147.238632202148438 190.362869262695312 -7.65085792541503906 187 1644764333.59761429 0.921234190464019775 -0.388467162847518921 -0.00947322975844144821 0.0181966014206409454
154.605819702148438 182.636962890625 -7.65283584594726562 188 1644764335.09663343 0.917297840118408203 -0.398094654083251953 0.00100935634691268206 0.00918213929980993271
161.548980712890625 174.66552734375 -7.60073423385620117 189 1644764336.59831262 0.90244060754776001 -0.430758684873580933 0.00676635419949889183 0.00145403656642884016
167.686981201171875 166.025161743164062 -7.59311580657958984 190 1644764338.09718633 0.868391871452331543 -0.495870381593704224 0.00264419778250157833 0.00104736268986016512
171.7269287109375 156.163070678710938 -7.64698457717895508 191 1644764339.59774804 0.800888419151306152 -0.598758041858673096 0.00683440174907445908 -0.00445306394249200821
173.617156982421875 145.651962280273438 -7.71640872955322266 192 1644764341.10028768 0.74589771032333374 -0.665938079357147217 0.00898743141442537308 -0.00907097756862640381
174.119873046875 135.055282592773438 -7.61453628540039062 193 1644764342.60034919 0.704397618770599365 -0.709416627883911133 0.0224358066916465759 0.00697553250938653946
173.915664672851562 124.642799377441406 -7.41595983505249023 194 1644764344.10069156 0.692937552928924561 -0.720536172389984131 0.0165973547846078873 0.019741477444767952
173.541488647460938 114.446861267089844 -7.05728673934936523 195 1644764345.60173464 0.696402132511138916 -0.716707050800323486 0.0281710326671600342 0.0236940924078226089
173.6624755859375 104.425033569335938 -6.51324319839477539 196 1644764347.10173035 0.718374967575073242 -0.694845676422119141 0.0293817482888698578 0.0162347014993429184
174.413345336914062 94.03741455078125 -5.8177638053894043 197 1644764348.69757819 0.723452866077423096 -0.688687026500701904 0.0244273971766233444 0.0415857061743736267
174.787506103515625 83.9805831909179688 -5.03202009201049805 198 1644764350.29739547 0.713996410369873047 -0.698032498359680176 0.0278714541345834732 0.0467217862606048584
174.906219482421875 73.6566390991210938 -4.18891525268554688 199 1644764351.99673319 0.706071853637695312 -0.70654064416885376 0.0226332191377878189 0.0418398529291152954
175.022903442382812 63.3126411437988281 -3.17696237564086914 200 1644764353.79629111 0.706221163272857666 -0.705420255661010742 0.0423325188457965851 0.0429178588092327118
175.092147827148438 53.1173744201660156 -2.14184141159057617 201 1644764355.6961956 0.709087014198303223 -0.702776968479156494 0.0461240410804748535 0.0342444144189357758
174.855438232421875 42.9366416931152344 -1.16161096096038818 202 1644764357.69723105 0.690291881561279297 -0.720865190029144287 0.0572418347001075745 0.0239557493478059769
173.31298828125 32.6474494934082031 -0.315203338861465454 203 1644764359.79661918 0.62374192476272583 -0.779928922653198242 0.0457395985722541809 0.0237649325281381607
170.045974731445312 23.1324691772460938 0.480439364910125732 204 1644764361.7953372 0.559136390686035156 -0.826879799365997314 0.057546176016330719 0.01802084781229496
165.516845703125 13.7526865005493164 1.39260280132293701 205 1644764363.89567327 0.512501299381256104 -0.856625556945800781 0.0554614141583442688 0.0214274507015943527
160.02496337890625 5.61803340911865234 2.05405759811401367 206 1644764365.89593458 0.424750000238418579 -0.904164969921112061 0.0365533269941806793 0.027147756889462471
152.757522583007812 -1.299294114112854 2.68451976776123047 207 1644764367.8960917 0.349050253629684448 -0.935961067676544189 0.0390865132212638855 0.0247586406767368317
145.098419189453125 -7.48056364059448242 3.24396324157714844 208 1644764369.89823556 0.324900358915328979 -0.944482028484344482 0.037052638828754425 0.0319468118250370026
136.86468505859375 -13.8799362182617188 3.73470950126647949 209 1644764371.99920845 0.322411835193634033 -0.945702850818634033 0.0357090979814529419 0.0205327179282903671
130.023895263671875 -18.7960338592529297 3.75574541091918945 210 1644764374.00024271 0.300150543451309204 -0.952942073345184326 0.0424509681761264801 0.00299009936861693859
124.250465393066406 -21.5252246856689453 3.86669516563415527 211 1644764376.09964466 0.157440081238746643 -0.986936211585998535 0.0338849425315856934 -0.00462308479472994804
118.579757690429688 -21.4025955200195312 3.72038745880126953 212 1644764378.09974408 -0.0665484890341758728 -0.997120797634124756 0.036014556884765625 -0.0049344194121658802
111.439422607421875 -18.0204696655273438 3.35234165191650391 213 1644764380.10020804 -0.312572389841079712 -0.948984920978546143 0.0311054512858390808 -0.0275425892323255539
106.242942810058594 -11.7515249252319336 2.70973682403564453 214 1644764382.20106006 -0.463335305452346802 -0.885529935359954834 0.00719618424773216248 -0.0332468971610069275
102.247154235839844 -7.09093809127807617 2.19495630264282227 215 1644764384.20169401 -0.448155194520950317 -0.893420994281768799 0.000118862626550253481 -0.0309159997850656509
103.823387145996094 -3.04982471466064453 2.18239259719848633 216 1644764386.2019968 -0.922299325466156006 -0.383589982986450195 -0.0267558805644512177 -0.0388175174593925476
104.937477111816406 -2.91174674034118652 2.26691937446594238 217 1644764386.70369816 -0.980447530746459961 -0.191829100251197815 -0.0333093665540218353 -0.0285433605313301086
106.183670043945312 -3.26860284805297852 2.38113069534301758 218 1644764387.20277762 -0.998900234699249268 0.0304485596716403961 -0.0319347977638244629 -0.0158544573932886124
107.153709411621094 -4.07169342041015625 2.52540206909179688 219 1644764387.70336437 -0.969425499439239502 0.237081527709960938 -0.0618546456098556519 -0.0134363910183310509
110.522804260253906 -8.59364986419677734 2.68622350692749023 220 1644764389.70410657 -0.872058451175689697 0.488961607217788696 -0.00848927441984415054 0.0189337898045778275
114.450630187988281 -13.6150655746459961 2.95041632652282715 221 1644764391.79792619 -0.925685644149780273 0.377554506063461304 -0.0235511325299739838 0.00201470521278679371
118.33880615234375 -15.7036209106445312 2.96280813217163086 222 1644764392.90311813 -0.978377699851989746 0.206513524055480957 0.00858466979116201401 -0.00745541974902153015
121.481971740722656 -15.9897909164428711 2.92317700386047363 223 1644764393.7030375 -0.999550580978393555 0.0278957262635231018 0.00256335549056529999 -0.0106733581051230431
124.940521240234375 -15.046539306640625 2.87425351142883301 224 1644764394.49987006 -0.988035440444946289 -0.153236865997314453 0.00448056962341070175 -0.0168635398149490356
133.827987670898438 -9.69783782958984375 2.69637894630432129 225 1644764396.39898562 -0.943870604038238525 -0.329309612512588501 0.00855626910924911499 -0.0242960602045059204
143.1871337890625 -1.65922093391418457 2.51820516586303711 226 1644764398.5013876 -0.949012339115142822 -0.313780367374420166 0.00609565619379281998 -0.0296704955399036407
151.413482666015625 5.03834390640258789 2.13687586784362793 227 1644764400.50209403 -0.935412049293518066 -0.351773977279663086 0.0139734596014022827 -0.0326198488473892212
160.688552856445312 15.6652307510375977 1.09819161891937256 228 1644764402.59534168 -0.887994587421417236 -0.456528156995773315 0.0192704536020755768 -0.0517329908907413483
167.562637329101562 30.2234611511230469 -0.341488122940063477 229 1644764404.69543147 -0.800745308399200439 -0.597041845321655273 0.0124707696959376335 -0.0468245036900043488
169.627227783203125 46.1012039184570312 -1.66162240505218506 230 1644764406.69548678 -0.709262251853942871 -0.703339636325836182 0.0227070432156324387 -0.041770201176404953
169.733001708984375 63.2692794799804688 -3.19336318969726562 231 1644764408.79437494 -0.713965475559234619 -0.699156701564788818 0.0192632116377353668 -0.0325895324349403381
169.927703857421875 80.7074050903320312 -4.75101041793823242 232 1644764410.89377022 -0.698363125324249268 -0.714580059051513672 0.0322978496551513672 -0.0249230656772851944
169.617523193359375 97.363189697265625 -6.13729190826416016 233 1644764412.89431214 -0.708308815956115723 -0.704942107200622559 0.0174472834914922714 -0.0324167460203170776
169.913528442382812 114.558486938476562 -7.14903831481933594 234 1644764414.99402761 -0.7161521315574646 -0.697727322578430176 0.00878420379012823105 -0.0150182284414768219
170.413070678710938 130.27813720703125 -7.62753915786743164 235 1644764416.99669695 -0.714111089706420898 -0.699957370758056641 0.00931640062481164932 -0.00426698010414838791
169.5577392578125 146.081619262695312 -7.87016677856445312 236 1644764419.09582496 -0.648331761360168457 -0.761352300643920898 -0.00293251196853816509 -0.000208243800443597138
164.87847900390625 160.510177612304688 -7.78058147430419922 237 1644764421.19591403 -0.5585135817527771 -0.829431414604187012 -0.0102868815883994102 -0.0004848719690926373
157.73095703125 173.582382202148438 -7.72701263427734375 238 1644764423.29647803 -0.473608434200286865 -0.88070833683013916 -0.00656574312597513199 -0.00218744040466845036
147.476303100585938 184.305709838867188 -7.68706130981445312 239 1644764425.39567924 -0.351926594972610474 -0.935996592044830322 -0.00559205887839198112 0.00517288083210587502
136.410537719726562 194.216140747070312 -7.55760908126831055 240 1644764427.4960165 -0.389924377202987671 -0.920661032199859619 -0.0182654280215501785 -0.00293333386071026325
126.525497436523438 204.412551879882812 -7.42798709869384766 241 1644764429.49675727 -0.391084372997283936 -0.920272111892700195 -0.0121108414605259895 -0.00237060617655515671
116.168594360351562 215.2686767578125 -7.26783943176269531 242 1644764431.59600401 -0.380877166986465454 -0.924586832523345947 -0.00595458131283521652 0.00603093486279249191
105.328659057617188 224.477996826171875 -7.07204818725585938 243 1644764433.59814811 -0.379916250705718994 -0.924624621868133545 -0.0270315948873758316 0.00149958103429526091
95.6735305786132812 234.792083740234375 -6.72161626815795898 244 1644764435.59898472 -0.398387521505355835 -0.916891753673553467 -0.0239956788718700409 0.00459723128005862236
85.2079238891601562 245.055877685546875 -6.25623321533203125 245 1644764437.69521594 -0.360251843929290771 -0.932375907897949219 -0.0282775089144706726 0.00970315840095281601
74.7604293823242188 254.127716064453125 -5.65312528610229492 246 1644764439.6952796 -0.357738733291625977 -0.93303978443145752 -0.0330813489854335785 0.0191165059804916382
64.8058013916015625 263.412017822265625 -4.89038848876953125 247 1644764441.69565058 -0.376528948545455933 -0.92560344934463501 -0.0322365574538707733 0.0210960898548364639
54.5348663330078125 272.161285400390625 -4.08493518829345703 248 1644764443.69681501 -0.326324731111526489 -0.944371700286865234 -0.0310404915362596512 0.0266606099903583527
43.2585411071777344 279.69268798828125 -3.28315544128417969 249 1644764445.69698739 -0.268965035676956177 -0.962243735790252686 -0.034168194979429245 0.0240279193967580795
31.38470458984375 286.108489990234375 -2.47638750076293945 250 1644764447.6976614 -0.243594005703926086 -0.968355059623718262 -0.0485499538481235504 0.0243591684848070145
19.7097263336181641 293.96295166015625 -1.48384130001068115 251 1644764449.79805589 -0.367125362157821655 -0.928673028945922852 -0.0450346469879150391 0.0275186151266098022
9.07143497467041016 302.98114013671875 -0.319593489170074463 252 1644764451.89719677 -0.328040540218353271 -0.943360507488250732 -0.0317504033446311951 0.0381087064743041992
-1.82141351699829102 310.65985107421875 0.776276767253875732 253 1644764453.89880872 -0.28639674186706543 -0.956748485565185547 -0.0385506600141525269 0.0335133299231529236
-14.0573539733886719 317.670501708984375 1.88868212699890137 254 1644764455.99938273 -0.24422118067741394 -0.968405783176422119 -0.0380201637744903564 0.0331767275929450989
-26.8180007934570312 323.562225341796875 2.93555855751037598 255 1644764458.09388208 -0.20007692277431488 -0.978218019008636475 -0.0470474101603031158 0.0290745925158262253
-39.6971626281738281 328.894500732421875 4.17515993118286133 256 1644764460.19388223 -0.202493414282798767 -0.976451992988586426 -0.0555328018963336945 0.04953804612159729
-50.5666427612304688 333.3558349609375 5.45256376266479492 257 1644764462.19705796 -0.17410123348236084 -0.982313692569732666 -0.0469259992241859436 0.0504635199904441833
-56.0868415832519531 334.078704833984375 5.94242382049560547 258 1644764463.297611 0.0061188885010778904 -0.998113453388214111 -0.0415434278547763824 0.0447905734181404114
-59.6055030822753906 333.039337158203125 6.11768627166748047 259 1644764463.99895978 0.184538304805755615 -0.981474101543426514 -0.0385191552340984344 0.0342122279107570648
-62.0516738891601562 331.28076171875 6.35832118988037109 260 1644764464.59602737 0.354790270328521729 -0.933276474475860596 0.0176853630691766739 0.052972160279750824
-63.4908561706542969 328.666839599609375 6.55514001846313477 261 1644764465.19898009 0.512925624847412109 -0.856876671314239502 -0.00801196228712797165 0.0510433390736579895
-65.6314315795898438 319.73004150390625 7.07306766510009766 262 1644764467.29345918 0.631961643695831299 -0.773709535598754883 -0.0145672177895903587 0.0422597639262676239
-66.0832748413085938 311.60076904296875 7.45312070846557617 263 1644764469.29472661 0.714552998542785645 -0.698179781436920166 -0.00501069473102688789 0.0439760982990264893
-64.7459182739257812 303.76458740234375 7.66181278228759766 264 1644764471.2962997 0.785659492015838623 -0.618243396282196045 -0.00711274240165948868 0.0215333625674247742
-62.3049087524414062 295.4427490234375 7.78615427017211914 265 1644764473.39538336 0.797624349594116211 -0.602370500564575195 -0.00755349500104784966 0.0298016238957643509
-60.4370536804199219 286.436004638671875 7.884979248046875 266 1644764475.49617195 0.769064724445343018 -0.638755917549133301 -0.0117374341934919357 0.0198119301348924637
-58.3852157592773438 278.32281494140625 7.69610595703125 267 1644764477.49874067 0.798261940479278564 -0.602097570896148682 -0.0153508773073554039 0.00455987965688109398
-56.6079559326171875 269.259857177734375 7.39618587493896484 268 1644764479.59434056 0.755813837051391602 -0.654581069946289062 -0.00603190064430236816 -0.0152537589892745018
-55.419158935546875 258.27691650390625 6.85075998306274414 269 1644764481.59447527 0.735947310924530029 -0.676835000514984131 -0.0133203566074371338 -0.00992533843964338303
-54.4251747131347656 244.912582397460938 6.21893930435180664 270 1644764483.69337773 0.728339672088623047 -0.684973716735839844 -0.00849967356771230698 -0.016126539558172226
-55.3944091796875 230.567962646484375 5.54577112197875977 271 1644764485.79237938 0.629345118999481201 -0.776367902755737305 -0.0254059284925460815 -0.023069087415933609
-60.6257781982421875 216.9884033203125 5.09808349609375 272 1644764487.89186549 0.519658029079437256 -0.854232668876647949 -0.0147221442312002182 -0.00502937287092208862
-68.0755538940429688 205.437423706054688 4.78614425659179688 273 1644764489.89239478 0.456671744585037231 -0.889517068862915039 -0.0143100805580615997 -0.00235588266514241695
-76.4569320678710938 195.1221923828125 4.59897851943969727 274 1644764491.9920783 0.388823121786117554 -0.921185493469238281 -0.0140175158157944679 0.00611662492156028748
-82.45452880859375 185.5743408203125 4.47422981262207031 275 1644764493.99308133 0.628341078758239746 -0.777898252010345459 -0.00774146383628249168 -0.00138293788768351078
-82.1359634399414062 181.419448852539062 4.32334232330322266 276 1644764494.69491029 0.764050900936126709 -0.644791781902313232 -0.0122344186529517174 -0.0178911779075860977
-78.2955245971679688 168.886734008789062 3.77978968620300293 277 1644764496.79264092 0.800828039646148682 -0.597980022430419922 -0.0301558393985033035 0.0136000877246260643
-75.5933837890625 155.485763549804688 3.22780299186706543 278 1644764498.79523683 0.762301445007324219 -0.646090388298034668 -0.0371895991265773773 0.0089806094765663147
-73.8825302124023438 141.070159912109375 2.88036346435546875 279 1644764500.89366651 0.736106455326080322 -0.676497161388397217 -0.0171945895999670029 0.0142549723386764526
-73.9574127197265625 127.326614379882812 2.58350968360900879 280 1644764502.89530444 0.683656454086303711 -0.729651391506195068 -0.0143550485372543335 0.00408345228061079979
-74.9376907348632812 113.055252075195312 2.54284572601318359 281 1644764504.99361348 0.679737269878387451 -0.732903122901916504 -0.014496777206659317 0.0244962181895971298
-75.0852890014648438 99.1171875 2.70280241966247559 282 1644764507.09311986 0.714724719524383545 -0.698768794536590576 -0.00630135508254170418 0.0291730426251888275
-75.3820419311523438 85.4412460327148438 2.85822653770446777 283 1644764509.19366145 0.671111106872558594 -0.740864038467407227 -0.011502441018819809 0.0244560185819864273
-76.3868942260742188 72.4845504760742188 2.93048524856567383 284 1644764511.19785619 0.696037590503692627 -0.718001306056976318 0.00100558542180806398 0.00218430976383388042
-76.9868240356445312 58.025299072265625 2.49603629112243652 285 1644764513.29761434 0.678152740001678467 -0.733846426010131836 -0.0326642543077468872 0.0226136371493339539
-77.4698486328125 43.7671585083007812 1.65343523025512695 286 1644764515.29835963 0.688533425331115723 -0.723968982696533203 -0.0390503741800785065 -0.0163013860583305359
-78.505126953125 30.3726310729980469 1.44869029521942139 287 1644764517.39724803 0.679572820663452148 -0.73355942964553833 0.00351735763251781464 -0.00767896929755806923
-78.9658279418945312 21.2832164764404297 1.35173237323760986 288 1644764519.39770222 0.694018781185150146 -0.719839572906494141 0.0102642662823200226 -0.00797040201723575592
-78.9059295654296875 10.5116691589355469 1.29828798770904541 289 1644764521.39982748 0.71235126256942749 -0.701712131500244141 -0.00627115415409207344 0.010790814645588398
-79.1825637817382812 -2.60605478286743164 1.4083402156829834 290 1644764523.49930978 0.711526691913604736 -0.702616333961486816 0.00644548423588275909 0.00430250540375709534
-79.2443008422851562 -15.6108942031860352 1.48204410076141357 291 1644764525.59767962 0.70237356424331665 -0.71174854040145874 0.00876501854509115219 0.00293799489736557007
-79.1882781982421875 -28.9172649383544922 1.484549880027771 292 1644764527.60072207 0.715112090110778809 -0.697057962417602539 -0.0379241108894348145 -0.0358702056109905243
-79.1084442138671875 -40.0380439758300781 1.51006484031677246 293 1644764529.60090065 0.709804892539978027 -0.704351902008056641 -0.00791797228157520294 0.0016542759258300066
-78.9862899780273438 -47.0735931396484375 1.44859039783477783 294 1644764531.69572163 0.706956565380096436 -0.707017421722412109 -0.0170473251491785049 -0.00693943072110414505
