# .PCD v0.7 - Point Cloud Data file format
VERSION 0.7
FIELDS x y z intensity t qx qy qz qw
SIZE 4 4 4 4 8 4 4 4 4
TYPE F F F F F F F F F
COUNT 1 1 1 1 1 1 1 1 1
WIDTH 328
HEIGHT 1
VIEWPOINT 0 0 0 1 0 0 0
POINTS 328
DATA ascii
0.655278325080871582 4.08558559417724609 4.11993217468261719 0 1645007116.10227299 0.999583601951599121 -0.00593206193298101425 -0.0267068184912204742 -0.00917254388332366943
0.775603890419006348 4.07558012008666992 4.14168834686279297 1 1645007119.20001793 0.99988865852355957 -0.00192571547813713551 -0.00912931747734546661 -0.0116451103240251541
6.20985889434814453 3.71239376068115234 3.9642493724822998 2 1645007121.20631123 0.996067047119140625 -0.0870908349752426147 -0.0150800952687859535 0.00618030456826090813
14.1668024063110352 0.136321589350700378 3.83075404167175293 3 1645007123.30119896 0.975989997386932373 -0.217378959059715271 -0.013766811229288578 0.00058388739125803113
21.9473781585693359 -1.00504434108734131 3.63472104072570801 4 1645007125.40032959 0.999774515628814697 0.00366784865036606789 -0.0207506194710731506 0.00261658104136586189
30.6147804260253906 0.154147103428840637 3.03402900695800781 5 1645007127.5010159 0.994976639747619629 0.0896164551377296448 -0.0439175702631473541 0.00785126164555549622
40.4107627868652344 3.25499701499938965 2.30688381195068359 6 1645007129.49982572 0.986017107963562012 0.164644375443458557 -0.0191443841904401779 0.0172038637101650238
49.3211250305175781 8.40038108825683594 2.03532791137695312 7 1645007131.09985232 0.943853557109832764 0.330146968364715576 0.000460139388451352715 -0.0119691090658307076
56.0597000122070312 16.3371467590332031 2.17518258094787598 8 1645007132.70009208 0.900583803653717041 0.434593319892883301 0.00803135335445404053 -0.00360344373621046543
62.4106521606445312 24.4384918212890625 2.37830400466918945 9 1645007134.29939651 0.896523416042327881 0.442702710628509521 0.00785040203481912613 -0.0140885096043348312
69.0705718994140625 32.1839790344238281 2.6079103946685791 10 1645007135.89966655 0.921077728271484375 0.388591766357421875 0.000414456648286432028 -0.0247409753501415253
75.5277328491210938 40.0120468139648438 2.8539125919342041 11 1645007137.50020075 0.896096289157867432 0.443551719188690186 0.012629031203687191 -0.0106681948527693748
81.83953857421875 47.85321044921875 3.31241369247436523 12 1645007139.1048646 0.910515666007995605 0.412536203861236572 0.0235418770462274551 -0.0148634016513824463
87.977081298828125 56.1668930053710938 3.93095564842224121 13 1645007140.80175328 0.877891600131988525 0.476945549249649048 0.0340484827756881714 -0.0258843507617712021
90.1773223876953125 62.2336273193359375 4.27645540237426758 14 1645007142.00435972 0.776820540428161621 0.629001438617706299 0.0186908785253763199 -0.0236154291778802872
90.8891754150390625 72.2448654174804688 4.82576656341552734 15 1645007144.00273681 0.72685617208480835 0.686475813388824463 0.0172682944685220718 -0.0115263005718588829
94.131103515625 80.9202804565429688 5.26199769973754883 16 1645007146.00293255 0.890255153179168701 0.454989492893218994 0.0136147104203701019 -0.0156502984464168549
100.539634704589844 88.2535247802734375 5.60279464721679688 17 1645007148.00308371 0.91131746768951416 0.40997806191444397 0.00959296524524688721 -0.0364206694066524506
105.509986877441406 96.2213821411132812 6.01306724548339844 18 1645007150.00374222 0.815433025360107422 0.578760981559753418 0.00538747850805521011 -0.00870155170559883118
104.765357971191406 100.219635009765625 6.18258762359619141 19 1645007151.00499129 0.571476519107818604 0.820203661918640137 -0.00755136972293257713 -0.0249717626720666885
101.788230895996094 103.850013732910156 6.31735658645629883 20 1645007152.00482559 0.408888190984725952 0.912438452243804932 -0.00157156726345419884 -0.0162490904331207275
93.5754547119140625 109.839912414550781 6.51758670806884766 21 1645007153.80478597 0.282228410243988037 0.959296524524688721 0.00403202185407280922 -0.00900014117360115051
84.6530914306640625 115.183128356933594 6.63704204559326172 22 1645007155.7058804 0.269968986511230469 0.962656557559967041 0.0200544781982898712 0.00263596232980489731
76.89996337890625 120.623390197753906 6.73868608474731445 23 1645007157.70930672 0.377376437187194824 0.925425112247467041 0.0336837098002433777 0.00638972967863082886
73.4813079833984375 129.67462158203125 6.99877405166625977 24 1645007159.80521655 0.69359588623046875 0.719869375228881836 0.0244563836604356766 0.0107080508023500443
78.3261032104492188 137.9598388671875 7.22445917129516602 25 1645007161.90822673 0.944328010082244873 0.32863384485244751 0.0102861979976296425 -0.0117711806669831276
81.2547454833984375 139.102890014648438 7.31499481201171875 26 1645007162.60344505 0.987659931182861328 0.156125679612159729 0.00323102390393614769 -0.0119244465604424477
83.7277603149414062 138.938232421875 7.31962013244628906 27 1645007163.20790744 0.99872666597366333 -0.049939129501581192 -0.00139791343826800585 -0.00700879283249378204
85.4038619995117188 137.92852783203125 7.27298593521118164 28 1645007163.70041418 0.967640101909637451 -0.251592367887496948 -0.0185109376907348633 -0.00559434620663523674
91.777923583984375 131.730789184570312 7.08285188674926758 29 1645007165.70372081 0.932090401649475098 -0.361019223928451538 0.00150264578405767679 -0.0295008253306150436
99.3661651611328125 125.085762023925781 6.88545656204223633 30 1645007167.40620232 0.936743259429931641 -0.348599344491958618 0.0058058607392013073 -0.0309333354234695435
107.250869750976562 118.487380981445312 6.68295145034790039 31 1645007169.00398612 0.93963700532913208 -0.340596228837966919 -0.00374047667719423771 -0.0325965769588947296
115.302543640136719 111.96435546875 6.53471565246582031 32 1645007170.59955549 0.945026397705078125 -0.324991613626480103 0.00648559210821986198 -0.0355460941791534424
123.669593811035156 105.792747497558594 6.4489893913269043 33 1645007172.20480037 0.95098721981048584 -0.307136416435241699 0.0114588541910052299 -0.0340481698513031006
132.5032958984375 100.761878967285156 6.43263769149780273 34 1645007173.7994597 0.973005950450897217 -0.229881063103675842 -0.0027596659492701292 -0.0201630759984254837
141.434463500976562 95.5506515502929688 6.38229274749755859 35 1645007175.5998652 0.956952810287475586 -0.288972645998001099 0.00465150224044919014 -0.0267290044575929642
148.967086791992188 89.4225540161132812 6.31110620498657227 36 1645007177.6010344 0.930641114711761475 -0.364601790904998779 0.00274790171533823013 -0.0310654491186141968
151.704513549804688 85.7211456298828125 6.20162773132324219 37 1645007178.69958615 0.847799599170684814 -0.529884576797485352 -0.0186960510909557343 -0.0104256710037589073
151.821487426757812 83.7672958374023438 6.12417364120483398 38 1645007179.19913888 0.729416370391845703 -0.683126926422119141 -0.0353685915470123291 -0.00619866838678717613
151.155120849609375 82.0435562133789062 6.06183671951293945 39 1645007179.69833136 0.595685958862304688 -0.802797496318817139 -0.0254485439509153366 -0.00517968321219086647
147.874557495117188 77.3276138305664062 5.87058496475219727 40 1645007180.99819756 0.43644300103187561 -0.899284660816192627 -0.0241922494024038315 -0.014810279943048954
144.340377807617188 74.6461029052734375 5.7565765380859375 41 1645007181.99782062 0.263213098049163818 -0.964469790458679199 -0.0220743622630834579 -0.00543846888467669487
141.521453857421875 74.144073486328125 5.72062397003173828 42 1645007182.69816113 0.0696773529052734375 -0.997352421283721924 -0.0191827323287725449 -0.00807693134993314743
139.193771362304688 74.6586456298828125 5.71605587005615234 43 1645007183.29823709 -0.105186566710472107 -0.994330883026123047 -0.013295288197696209 -0.00807244144380092621
136.425308227539062 76.364715576171875 5.73036670684814453 44 1645007184.09954357 -0.28045952320098877 -0.959840059280395508 -0.0070185433141887188 0.00045991543447598815
130.14117431640625 82.5170135498046875 5.79172134399414062 45 1645007186.19825053 -0.415158778429031372 -0.909742295742034912 -0.00231438782066106796 0.00261257961392402649
125.174118041992188 89.1465606689453125 5.93138313293457031 46 1645007188.30054283 -0.459161251783370972 -0.888200640678405762 -0.0135944066569209099 0.00926240440458059311
121.013420104980469 91.2569808959960938 5.97082233428955078 47 1645007189.69826388 -0.0675283968448638916 -0.997646093368530273 0.0017166064353659749 -0.0117993401363492012
119.774543762207031 90.723480224609375 5.91899824142456055 48 1645007190.09906435 0.124877028167247772 -0.991823434829711914 0.00856239628046751022 -0.0248727332800626755
118.967643737792969 89.7198715209960938 5.86352062225341797 49 1645007190.49747396 0.341320961713790894 -0.939081370830535889 0.0143427802249789238 -0.0376891531050205231
118.734817504882812 88.4556121826171875 5.80593395233154297 50 1645007190.89835978 0.536116480827331543 -0.842903017997741699 0.0104668727144598961 -0.0445427745580673218
119.013565063476562 87.0528488159179688 5.72020387649536133 51 1645007191.29939318 0.691874384880065918 -0.720861911773681641 -0.0141913611441850662 -0.0382953137159347534
120.004737854003906 83.1748046875 5.58328580856323242 52 1645007192.2995038 0.80699622631072998 -0.588955163955688477 0.0178746003657579422 -0.0396157465875148773
122.983650207519531 78.6021652221679688 5.53284883499145508 53 1645007193.39978075 0.898605644702911377 -0.436939030885696411 0.0159277282655239105 -0.0365845561027526855
131.180267333984375 71.3800811767578125 5.40928316116333008 54 1645007195.40145183 0.944230258464813232 -0.327403366565704346 0.00518901553004980087 -0.0347763039171695709
139.093170166015625 67.194244384765625 5.45027828216552734 55 1645007197.20055246 0.986742019653320312 -0.158104747533798218 0.010085027664899826 -0.0352325290441513062
147.825393676757812 63.8008346557617188 5.81027412414550781 56 1645007199.20103312 0.963012516498565674 -0.26489025354385376 0.0441227294504642487 -0.022209828719496727
154.050460815429688 57.09478759765625 5.98045873641967773 57 1645007201.2014389 0.873452842235565186 -0.483785718679428101 0.0173816587775945663 -0.0522435083985328674
154.719024658203125 54.1078987121582031 5.78929281234741211 58 1645007201.90271068 0.761858820915222168 -0.645424783229827881 0.000282849679933860898 -0.0547536499798297882
154.337509155273438 51.385955810546875 5.53287172317504883 59 1645007202.50153327 0.633719682693481445 -0.771057605743408203 -0.0304631460458040237 -0.0542363934218883514
148.687744140625 42.5101661682128906 4.36521482467651367 60 1645007204.30080867 0.440197139978408813 -0.896159350872039795 -0.0375949032604694366 -0.0413710363209247589
142.138565063476562 34.3441085815429688 3.30924677848815918 61 1645007205.80339241 0.428862780332565308 -0.901987195014953613 -0.0258312094956636429 -0.0427612327039241791
135.745346069335938 26.4443473815917969 2.2651371955871582 62 1645007207.20228028 0.425784975290298462 -0.903309762477874756 -0.0348152481019496918 -0.0390714369714260101
129.049240112304688 18.3324298858642578 1.25682473182678223 63 1645007208.60102463 0.421040713787078857 -0.905693292617797852 -0.0385983511805534363 -0.0308951176702976227
122.422592163085938 9.96890640258789062 0.396154910326004028 64 1645007209.9996202 0.440981268882751465 -0.896400988101959229 -0.0257299654185771942 -0.0365885272622108459
116.037528991699219 1.53270399570465088 -0.388834267854690552 65 1645007211.39828753 0.440148800611495972 -0.8971291184425354 -0.0183504018932580948 -0.033039536327123642
109.515098571777344 -6.89091920852661133 -1.24875342845916748 66 1645007212.79982543 0.434782505035400391 -0.899726808071136475 -0.0224461574107408524 -0.0308542679995298386
102.917091369628906 -15.0766420364379883 -1.76716303825378418 67 1645007214.20080638 0.421622276306152344 -0.90627676248550415 -0.0274533461779356003 -0.0119742527604103088
96.3031005859375 -22.7185821533203125 -2.17174673080444336 68 1645007215.60060811 0.398188859224319458 -0.91680908203125 -0.0297283213585615158 -0.0047970116138458252
88.7982330322265625 -29.7462959289550781 -2.30494904518127441 69 1645007217.10070777 0.343373358249664307 -0.939184367656707764 -0.00442618876695632935 0.00280112470500171185
80.442718505859375 -36.1772232055664062 -2.26723647117614746 70 1645007218.70268226 0.302991330623626709 -0.95298081636428833 0.00253670965321362019 0.00417169323191046715
71.8130722045898438 -41.4660224914550781 -2.02843260765075684 71 1645007220.30225277 0.221606850624084473 -0.974949121475219727 -0.0013951427536085248 0.0190423987805843353
62.395965576171875 -44.8026390075683594 -1.57740890979766846 72 1645007221.90012646 0.143736988306045532 -0.989222466945648193 0.00485370680689811707 0.0274776406586170197
52.2147026062011719 -47.071014404296875 -0.969456374645233154 73 1645007223.60232449 0.0837855264544487 -0.995897829532623291 0.002781690564006567 0.0340556874871253967
42.106414794921875 -47.9234161376953125 -0.241069868206977844 74 1645007225.29760814 0.00640022056177258492 -0.999306082725524902 0.00290516670793294907 0.0365783050656318665
31.8791389465332031 -48.0800018310546875 0.497847199440002441 75 1645007227.00218749 0.0129600111395120621 -0.999091386795043945 0.00593871250748634338 0.0401648394763469696
21.7581958770751953 -48.5650253295898438 1.27751624584197998 76 1645007228.7034421 0.0147747527807950974 -0.999067783355712891 0.000366594234947115183 0.0405600070953369141
11.6246910095214844 -48.7380599975585938 2.04167318344116211 77 1645007230.39655471 0.0145885255187749863 -0.999149143695831299 0.0011724164942279458 0.0385591201484203339
1.27074253559112549 -49.6004676818847656 2.77491068840026855 78 1645007232.19706321 0.0498902425169944763 -0.998381733894348145 -0.000474030297482386231 0.0272882003337144852
-5.96080875396728516 -50.2665672302246094 3.20678997039794922 79 1645007234.29646254 0.0421041548252105713 -0.998858451843261719 0.0083056250587105751 0.0209778808057308197
-9.84368515014648438 -50.4652252197265625 3.36283516883850098 80 1645007236.3954494 0.0153846358880400658 -0.999878048896789551 -0.0026485370472073555 -0.00042453431524336338
-11.9204492568969727 -49.8710556030273438 3.45431780815124512 81 1645007237.49757195 -0.16847655177116394 -0.985444247722625732 -0.0159446429461240768 0.016157912090420723
-12.5386810302734375 -48.9684562683105469 3.49162507057189941 82 1645007237.99639678 -0.347075849771499634 -0.937687456607818604 -0.00829074997454881668 0.0145541606470942497
-12.7439823150634766 -47.8944015502929688 3.52144384384155273 83 1645007238.49524784 -0.516035318374633789 -0.856404304504394531 -0.000827101001050323248 0.0166896600276231766
-12.5453462600708008 -46.7870826721191406 3.5113823413848877 84 1645007238.99548578 -0.670025467872619629 -0.742103397846221924 0.0138831967487931252 0.0124785378575325012
-11.9507045745849609 -45.826263427734375 3.48376893997192383 85 1645007239.4952538 -0.802056193351745605 -0.59703439474105835 0.0158743448555469513 0.00195026060100644827
-11.0350103378295898 -45.215972900390625 3.45970344543457031 86 1645007239.99590802 -0.902145087718963623 -0.430854856967926025 0.0197222083806991577 0.0104582430794835091
-9.85371780395507812 -44.8828811645507812 3.4452669620513916 87 1645007240.49563932 -0.966636896133422852 -0.255542874336242676 0.00868356414139270782 0.0153472097590565681
-7.47230863571166992 -44.5734138488769531 3.25584602355957031 88 1645007241.29752851 -0.997232198715209961 -0.0675410181283950806 0.0294164866209030151 -0.0100388377904891968
-0.781737744808197021 -43.5736274719238281 2.93962764739990234 89 1645007243.29939318 -0.998559772968292236 -0.0484276600182056427 0.0167055334895849228 0.0159394871443510056
11.0886573791503906 -43.9753227233886719 1.96761810779571533 90 1645007245.39705825 -0.99886786937713623 0.0198404379189014435 0.0399139709770679474 -0.0166195370256900787
24.9762096405029297 -43.3760452270507812 0.948615372180938721 91 1645007247.39948368 -0.998356461524963379 -0.0397649481892585754 0.0398251786828041077 -0.0108197275549173355
40.3392524719238281 -43.28515625 -0.211064457893371582 92 1645007249.49646616 -0.997934043407440186 0.0437319315969944 0.0438479892909526825 -0.0171040017157793045
55.1871070861816406 -41.860595703125 -1.25769233703613281 93 1645007251.49763465 -0.989162862300872803 -0.143191203474998474 0.0323331654071807861 -0.00277815316803753376
70.2260360717773438 -36.36553955078125 -2.102508544921875 94 1645007253.59529614 -0.981675028800964355 -0.189486876130104065 0.0170958172529935837 -0.0107979420572519302
83.1784286499023438 -28.3860721588134766 -2.39176535606384277 95 1645007255.69312644 -0.947925686836242676 -0.318426132202148438 -0.00442071910947561264 -0.00470045628026127815
93.4987411499023438 -18.7283401489257812 -2.1885383129119873 96 1645007257.79299831 -0.919562876224517822 -0.392064839601516724 -0.0250917151570320129 -0.00772621482610702515
101.8011474609375 -9.08604812622070312 -1.61567926406860352 97 1645007259.79315782 -0.90497279167175293 -0.425188124179840088 -0.0122924987226724625 0.00938953645527362823
109.643096923828125 1.44509708881378174 -0.858509600162506104 98 1645007261.89277911 -0.890171527862548828 -0.454520195722579956 -0.0298460777848958969 0.0107345134019851685
117.322059631347656 11.7044086456298828 0.051800113171339035 99 1645007263.99238658 -0.90099412202835083 -0.431665897369384766 -0.0428995862603187561 0.00581364799290895462
124.96807861328125 20.9337425231933594 1.01041662693023682 100 1645007265.99352241 -0.906705498695373535 -0.419312834739685059 -0.0437511801719665527 0.0121554136276245117
132.921432495117188 30.6555519104003906 2.16583466529846191 101 1645007268.09244442 -0.904842019081115723 -0.422774195671081543 -0.0492869541049003601 0.00967768020927906036
140.323043823242188 40.0029754638671875 3.32126545906066895 102 1645007270.09524226 -0.895852088928222656 -0.441416800022125244 -0.0480817072093486786 0.0169815924018621445
147.819198608398438 49.8342323303222656 4.56511306762695312 103 1645007272.19462776 -0.908840000629425049 -0.413607239723205566 -0.0529356598854064941 0.0116937821730971336
155.562896728515625 56.2197990417480469 5.64315605163574219 104 1645007273.99543858 -0.969500482082366943 -0.239701613783836365 -0.0483629517257213593 0.0165230073034763336
160.770797729492188 57.4533309936523438 6.07788276672363281 105 1645007275.19441009 -0.9965057373046875 -0.0686903670430183411 -0.0287734568119049072 0.0378165319561958313
169.657699584960938 53.6090774536132812 6.35884952545166016 106 1645007277.19529414 -0.931528329849243164 0.362243384122848511 -0.0130038261413574219 0.0294219385832548141
177.740524291992188 46.7458724975585938 6.14572477340698242 107 1645007278.99757004 -0.943910539150238037 0.328116655349731445 0.0110927596688270569 0.0353456325829029083
185.6646728515625 40.5305595397949219 5.84870100021362305 108 1645007280.49789405 -0.946510612964630127 0.32010766863822937 0.00222780369222164154 0.040543481707572937
193.709762573242188 34.1636505126953125 5.59807634353637695 109 1645007281.99837184 -0.934034943580627441 0.355572819709777832 0.00266642961651086807 0.0337575264275074005
201.4434814453125 27.4223289489746094 5.31335067749023438 110 1645007283.49780822 -0.940337181091308594 0.337909668684005737 -0.00627373764291405678 0.0392899550497531891
209.600662231445312 21.2207241058349609 5.22550773620605469 111 1645007284.9991889 -0.949368894100189209 0.31203344464302063 -0.010895763523876667 0.0348593257367610931
217.773147583007812 15.2714614868164062 5.29897308349609375 112 1645007286.50109029 -0.952210903167724609 0.302859902381896973 -0.0191747378557920456 0.0346789993345737457
226.555709838867188 9.27630996704101562 5.30118274688720703 113 1645007288.10214972 -0.950187981128692627 0.310722440481185913 -0.000606708636041730642 0.0243710596114397049
235.467636108398438 3.57700872421264648 5.43593645095825195 114 1645007289.69857597 -0.965522825717926025 0.257575064897537231 -0.0220258533954620361 0.0305881332606077194
244.352737426757812 -1.29329597949981689 5.69158077239990234 115 1645007291.30228329 -0.975411295890808105 0.216819971799850464 -0.0176192168146371841 0.0353764109313488007
254.285614013671875 -4.63115739822387695 6.05483293533325195 116 1645007293.19638968 -0.986258506774902344 0.163355827331542969 -0.0156093882396817207 0.0191139336675405502
263.25555419921875 -7.08162689208984375 6.3874669075012207 117 1645007295.30119157 -0.993111968040466309 0.11205214262008667 -0.0223462805151939392 0.0259526334702968597
270.974151611328125 -10.3986473083496094 6.63621139526367188 118 1645007297.39664721 -0.941238105297088623 0.337490767240524292 -0.0056010163389146328 0.0118090957403182983
272.20263671875 -12.6402044296264648 6.62958717346191406 119 1645007298.09297538 -0.854773044586181641 0.518885910511016846 -0.00663401372730731964 0.00874202419072389603
272.57037353515625 -15.7478132247924805 6.50926351547241211 120 1645007298.89464688 -0.739636540412902832 0.672616779804229736 -0.00854455865919589996 0.0212482810020446777
272.362548828125 -25.603118896484375 6.15057802200317383 121 1645007300.89610624 -0.73752826452255249 0.675160825252532959 -0.00332259922288358212 0.0141030158847570419
274.591766357421875 -35.6114730834960938 6.11596345901489258 122 1645007302.69276309 -0.782370805740356445 0.622787296772003174 -0.00543238129466772079 0.00154041789937764406
277.65478515625 -45.69964599609375 6.14757585525512695 123 1645007304.49162102 -0.82706838846206665 0.561896800994873047 -0.0139113441109657288 0.00603363057598471642
282.608978271484375 -54.5342674255371094 6.28181076049804688 124 1645007306.09252143 -0.880834102630615234 0.473262220621109009 -0.0122024873271584511 0.00228942488320171833
289.284027099609375 -62.5184211730957031 6.50551080703735352 125 1645007307.69291806 -0.917770564556121826 0.396709591150283813 -0.0175184980034828186 -0.0034326799213886261
297.548492431640625 -69.1347427368164062 6.86584997177124023 126 1645007309.39195228 -0.955446839332580566 0.294576734304428101 -0.0185988917946815491 -7.83220855282706907e-07
306.397430419921875 -73.9549636840820312 7.21965503692626953 127 1645007311.09139681 -0.964834272861480713 0.262060284614562988 -0.00934764835983514786 -0.0182178914546966553
315.6046142578125 -78.1867904663085938 7.68039178848266602 128 1645007313.09155822 -0.985828042030334473 0.166623920202255249 -0.0184904299676418304 -0.00613354146480560303
320.85589599609375 -80.2565536499023438 7.99365425109863281 129 1645007315.09166408 -0.978237330913543701 0.205889195203781128 -0.0257140733301639557 -0.000333483214490115643
324.842559814453125 -82.2834091186523438 8.18369960784912109 130 1645007317.19132018 -0.972885012626647949 0.229245543479919434 -0.0294060446321964264 0.00874619651585817337
332.224273681640625 -85.8753890991210938 8.41334819793701172 131 1645007319.19295955 -0.973802566528320312 0.225378811359405518 -0.00258080032654106617 0.0301042851060628891
341.311859130859375 -90.8617477416992188 8.15514850616455078 132 1645007321.19213033 -0.964922487735748291 0.260536909103393555 0.0182579569518566132 0.0266777221113443375
350.004302978515625 -95.7729110717773438 7.87211465835571289 133 1645007323.09367943 -0.965790987014770508 0.257414400577545166 0.00882809329777956009 0.0301272105425596237
358.820770263671875 -101.00689697265625 7.51430416107177734 134 1645007325.09350801 -0.953765749931335449 0.295966207981109619 0.0199917946010828018 0.0483243614435195923
365.56195068359375 -106.481201171875 7.13329601287841797 135 1645007327.09551311 -0.931640505790710449 0.360479742288589478 0.0181329809129238129 0.0420892946422100067
368.975006103515625 -109.737869262695312 6.98009967803955078 136 1645007329.19663477 -0.931633174419403076 0.359848886728286743 0.000467530422611162066 0.0506775751709938049
371.311309814453125 -112.093223571777344 6.86188411712646484 137 1645007331.29549599 -0.921728610992431641 0.381365448236465454 0.00143543863669037819 0.0705317109823226929
371.779571533203125 -112.839683532714844 6.78925752639770508 138 1645007333.2957356 -0.898321032524108887 0.433042407035827637 0.00679515302181243896 0.0738066434860229492
371.865966796875 -112.889251708984375 6.78216123580932617 139 1645007338.7924428 -0.899855732917785645 0.43058285117149353 0.00803427211940288544 0.069235287606716156
372.139923095703125 -114.382461547851562 6.63331031799316406 140 1645007340.39145374 -0.798367679119110107 0.598609268665313721 0.018231172114610672 0.0627986937761306763
371.777069091796875 -115.538986206054688 6.52878618240356445 141 1645007340.99265814 -0.681063652038574219 0.72995305061340332 0.0150342779234051704 0.055630810558795929
370.97015380859375 -116.645553588867188 6.38977718353271484 142 1645007341.5901041 -0.543671369552612305 0.83721160888671875 0.00670070620253682137 0.0587645620107650757
369.444305419921875 -117.924942016601562 6.18503570556640625 143 1645007342.39283633 -0.379930764436721802 0.922882020473480225 0.000151221945998258889 0.0627806335687637329
364.78509521484375 -120.904953002929688 5.53693103790283203 144 1645007344.39442945 -0.272702544927597046 0.959467470645904541 5.60842818231321871e-06 0.0711023733019828796
361.612091064453125 -123.108329772949219 5.17441034317016602 145 1645007346.49280477 -0.328760921955108643 0.942512929439544678 -0.00126435921993106604 0.0598668530583381653
355.797882080078125 -126.883735656738281 4.39437198638916016 146 1645007348.49365377 -0.250550895929336548 0.966465413570404053 -0.000287817383650690317 0.0562919527292251587
348.124969482421875 -131.256561279296875 3.3904118537902832 147 1645007350.59419751 -0.260642051696777344 0.963241755962371826 -0.00780676864087581635 0.0645766332745552063
340.736328125 -135.594970703125 2.54100322723388672 148 1645007352.69436049 -0.239648923277854919 0.969492554664611816 -0.000713763583917170763 0.051498759537935257
334.429412841796875 -138.54888916015625 2.20358467102050781 149 1645007354.69523668 -0.227007418870925903 0.973311483860015869 -0.0315962359309196472 0.0115791941061615944
327.760162353515625 -142.094497680664062 1.53474688529968262 150 1645007356.69576907 -0.206024229526519775 0.977331936359405518 -0.00525302952155470848 0.0484629720449447632
320.801055908203125 -144.8272705078125 0.942799925804138184 151 1645007358.79454398 -0.162222057580947876 0.985688209533691406 -0.00891774892807006836 0.044980265200138092
312.9093017578125 -146.819015502929688 -0.0276031605899333954 152 1645007360.79798079 -0.0977200716733932495 0.994507908821105957 -0.00356198754161596298 0.037311900407075882
303.5030517578125 -149.031982421875 -0.842862844467163086 153 1645007362.8914578 -0.122868746519088745 0.991522789001464844 -0.00201381230726838112 0.0422105416655540466
295.615447998046875 -150.733505249023438 -1.5040128231048584 154 1645007364.99051642 -0.0958103537559509277 0.994439303874969482 -0.00815378781408071518 0.0429463572800159454
287.316741943359375 -152.561935424804688 -2.24351334571838379 155 1645007366.99127698 -0.0941889360547065735 0.994443893432617188 -0.0049788779579102993 0.0467436462640762329
278.8681640625 -154.552139282226562 -2.93330073356628418 156 1645007368.99267125 -0.124893538653850555 0.991179347038269043 -0.0149087477475404739 0.0417477786540985107
270.538116455078125 -157.513275146484375 -3.5042731761932373 157 1645007370.99320602 -0.2029104083776474 0.978798329830169678 -0.0232196971774101257 0.0155563540756702423
261.0296630859375 -162.138992309570312 -4.18853425979614258 158 1645007372.79482198 -0.212529420852661133 0.976644456386566162 -0.0121399518102407455 0.0291465166956186295
251.3931884765625 -166.398834228515625 -4.85530948638916016 159 1645007374.39628363 -0.200989291071891785 0.978894412517547607 -0.0063538718968629837 0.0364509224891662598
242.230682373046875 -170.6007080078125 -5.47342872619628906 160 1645007375.99647522 -0.199929371476173401 0.979329407215118408 -0.000713667017407715321 0.0306859854608774185
232.667343139648438 -174.241729736328125 -6.04877471923828125 161 1645007377.68978596 -0.141826048493385315 0.989352762699127197 -0.000224255796638317406 0.0326566100120544434
222.291046142578125 -176.081466674804688 -6.68898725509643555 162 1645007379.48935938 -0.0733611956238746643 0.996872007846832275 0.00317371007986366749 0.0292276181280612946
212.02447509765625 -177.683700561523438 -7.22539329528808594 163 1645007381.08788681 -0.0782492086291313171 0.996654808521270752 -0.00811085104942321777 0.0221475083380937576
201.550933837890625 -179.151412963867188 -7.75339698791503906 164 1645007382.68782234 -0.0618427060544490814 0.997887372970581055 -0.0148351686075329781 0.0132713951170444489
191.16265869140625 -180.687515258789062 -8.03050613403320312 165 1645007384.38815761 -0.0677818804979324341 0.997557103633880615 -0.00960830319672822952 0.0138948364183306694
180.716094970703125 -182.196121215820312 -8.26035690307617188 166 1645007386.08898306 -0.0723811760544776917 0.9972686767578125 -0.0128350621089339256 0.00716710183769464493
170.432174682617188 -183.926513671875 -8.47374057769775391 167 1645007387.6879425 -0.0829862579703330994 0.996468603610992432 -0.0102286506444215775 0.00768093671649694443
160.106109619140625 -185.595230102539062 -8.63073062896728516 168 1645007389.28874588 -0.0707881078124046326 0.99744117259979248 -0.00775931356474757195 0.00631843786686658859
149.722793579101562 -187.133102416992188 -8.77538871765136719 169 1645007390.88822818 -0.0796285495162010193 0.996702671051025391 -0.0139501979574561119 0.00696121109649538994
139.3824462890625 -188.76214599609375 -8.90520572662353516 170 1645007392.48820615 -0.0679776296019554138 0.997480392456054688 -0.0177935771644115448 0.0097605586051940918
129.069198608398438 -190.167068481445312 -8.99959087371826172 171 1645007394.08708549 -0.064139343798160553 0.997787356376647949 -0.016807902604341507 0.00490554468706250191
118.78424072265625 -191.84228515625 -9.05486869812011719 172 1645007395.69269776 -0.0662364810705184937 0.997757554054260254 -0.00962470844388008118 6.6584572778083384e-05
108.432258605957031 -192.95849609375 -9.08798122406005859 173 1645007397.29184461 -0.051472935825586319 0.998607933521270752 -0.0104147149249911308 -0.00492653483524918556
98.2302703857421875 -192.443588256835938 -9.10762786865234375 174 1645007398.88968301 0.0815483257174491882 0.996599435806274414 -0.0111353406682610512 -0.00393065763637423515
88.5137939453125 -189.973907470703125 -9.17490673065185547 175 1645007400.49048042 0.159411594271659851 0.987195611000061035 -0.00530395377427339554 -0.00214382912963628769
79.3115005493164062 -185.943145751953125 -9.21165657043457031 176 1645007402.29162192 0.243975982069969177 0.969742476940155029 -0.00862090475857257843 -0.000975134724285453558
71.250091552734375 -180.551162719726562 -9.14957237243652344 177 1645007404.39084029 0.310011059045791626 0.950615048408508301 -0.010365036316215992 -0.0108054419979453087
65.671295166015625 -176.794387817382812 -9.01397609710693359 178 1645007406.49219561 0.29196438193321228 0.956280171871185303 -0.00791417714208364487 -0.0149121601134538651
60.4828071594238281 -172.287033081054688 -8.85538101196289062 179 1645007408.59109378 0.349092394113540649 0.936752438545227051 -0.00202128826640546322 -0.0250055510550737381
53.2788772583007812 -166.618209838867188 -8.50537490844726562 180 1645007410.5928483 0.318942070007324219 0.947404980659484863 -0.0048559713177382946 -0.0260041989386081696
45.2244796752929688 -160.606674194335938 -8.00329685211181641 181 1645007412.4932518 0.309652656316757202 0.950193226337432861 -0.00422532623633742332 -0.0350737422704696655
36.9409599304199219 -154.159530639648438 -7.34046030044555664 182 1645007414.39345789 0.328343510627746582 0.943599939346313477 -0.00651416508480906487 -0.0420384705066680908
28.4600067138671875 -147.920486450195312 -6.48572874069213867 183 1645007416.29471779 0.30693778395652771 0.950270712375640869 0.00618885690346360207 -0.0523117147386074066
20.1684913635253906 -141.584030151367188 -5.61495685577392578 184 1645007418.19659448 0.333679825067520142 0.941554069519042969 -0.00208039069548249245 -0.0461448319256305695
11.9855155944824219 -135.341354370117188 -4.72626352310180664 185 1645007420.09924078 0.303202062845230103 0.952285587787628174 -8.36037943372502923e-05 -0.0349383912980556488
3.72423481941223145 -129.397506713867188 -3.86292648315429688 186 1645007422.09718776 0.321121037006378174 0.945621311664581299 0.00814381614327430725 -0.05113968625664711
-4.12562370300292969 -123.013145446777344 -2.98594403266906738 187 1645007424.09347224 0.360891461372375488 0.931528866291046143 0.0131372911855578423 -0.0428805537521839142
-10.6978397369384766 -115.280258178710938 -2.13481354713439941 188 1645007426.09307265 0.453559339046478271 0.890308916568756104 0.00895960535854101181 -0.0394161641597747803
-14.2489404678344727 -109.888336181640625 -1.50933218002319336 189 1645007428.09505916 0.492031693458557129 0.868381261825561523 0.0281455013900995255 -0.0550145693123340607
-16.6093616485595703 -104.573188781738281 -0.917191565036773682 190 1645007430.19296026 0.566923081874847412 0.822056591510772705 0.0260022226721048355 -0.0463142544031143188
-18.1006851196289062 -99.160247802734375 -0.340418070554733276 191 1645007432.1937573 0.621999144554138184 0.780946612358093262 0.0218784306198358536 -0.0525429621338844299
-19.5135459899902344 -93.4742584228515625 0.234275460243225098 192 1645007434.19423938 0.585281252861022949 0.808991134166717529 0.0224645547568798065 -0.0497444868087768555
-20.7066230773925781 -86.9854278564453125 0.835567712783813477 193 1645007436.28914809 0.676714122295379639 0.734473288059234619 0.030376870185136795 -0.0410394556820392609
-20.9209327697753906 -79.2604522705078125 1.44376635551452637 194 1645007438.29248929 0.699404895305633545 0.713751673698425293 0.0142390495166182518 -0.0344754159450531006
-21.2018070220947266 -72.7435760498046875 1.96136569976806641 195 1645007440.39124942 0.693891644477844238 0.718965113162994385 0.0133254285901784897 -0.0377619676291942596
-20.9381771087646484 -66.9756088256835938 2.43554353713989258 196 1645007442.48940516 0.713709473609924316 0.698698997497558594 0.0228020567446947098 -0.0438018366694450378
-21.3754501342773438 -60.0257301330566406 3.03675198554992676 197 1645007444.49169111 0.68517005443572998 0.725776553153991699 0.0266239624470472336 -0.05551181361079216
-21.7260322570800781 -53.9093475341796875 3.39634847640991211 198 1645007446.59112597 0.686739087104797363 0.724817872047424316 0.0406954213976860046 0.0370455347001552582
-18.1143283843994141 -48.8878440856933594 3.75432705879211426 199 1645007448.59156156 0.930070102214813232 0.365610092878341675 0.003640361363068223 -0.0358551368117332458
-9.93590068817138672 -46.0393562316894531 3.44369387626647949 200 1645007450.6891396 0.998607516288757324 0.051685679703950882 -0.00801560748368501663 -0.00688146892935037613
-2.99419736862182617 -44.3555335998535156 3.05889034271240234 201 1645007452.69072032 0.96508479118347168 0.258633583784103394 -0.0245622061192989349 -0.033417385071516037
2.00662469863891602 -37.1238021850585938 2.98810935020446777 202 1645007454.78862453 0.812169492244720459 0.581968545913696289 -0.00975728407502174377 -0.0399766936898231506
2.14896559715270996 -32.7848548889160156 3.18083858489990234 203 1645007455.88934088 0.696409821510314941 0.715766072273254395 -0.0132674630731344223 -0.0501619353890419006
1.84547138214111328 -24.3103294372558594 3.56936955451965332 204 1645007457.88945866 0.784219563007354736 0.620190024375915527 -0.00656132027506828308 -0.0179140511900186539
3.39741158485412598 -22.5420665740966797 3.53764510154724121 205 1645007458.58950019 0.905585050582885742 0.422835350036621094 -0.024465540423989296 -0.0229648929089307785
10.1143159866333008 -21.3735866546630859 2.97465300559997559 206 1645007460.5914681 0.999094605445861816 -0.0107438182458281517 -0.0407553613185882568 -0.0057959994301199913
16.3084831237792969 -24.6451072692871094 2.51592898368835449 207 1645007462.29037356 0.944169521331787109 -0.325826436281204224 -0.0438074842095375061 -0.0214942693710327148
25.4212360382080078 -28.7472801208496094 1.56440877914428711 208 1645007464.39010525 0.989412844181060791 -0.136229395866394043 -0.042517881840467453 -0.0263823438435792923
35.4398307800292969 -29.4188327789306641 0.901520013809204102 209 1645007466.08677578 0.998678267002105713 0.0069833085872232914 -0.0336781367659568787 -0.0381941422820091248
45.9155387878417969 -28.4546966552734375 0.289374262094497681 210 1645007467.79004836 0.998350262641906738 0.0416477248072624207 -0.031831786036491394 -0.0234298054128885269
56.2614784240722656 -27.2937946319580078 -0.319221973419189453 211 1645007469.48763919 0.996536076068878174 0.0728151500225067139 -0.0350550711154937744 -0.0196214336901903152
65.202392578125 -24.0549468994140625 -0.696174383163452148 212 1645007471.48915935 0.969871103763580322 0.241425856947898865 -0.0248181261122226715 -0.0211578886955976486
71.7974700927734375 -18.5815925598144531 -0.854363501071929932 213 1645007473.58787489 0.90625762939453125 0.420611947774887085 -0.0172683056443929672 -0.0385289080440998077
73.57672119140625 -14.5699663162231445 -0.812205374240875244 214 1645007474.58667779 0.809582293033599854 0.585423767566680908 -0.0250809825956821442 -0.0350204035639762878
73.6239547729492188 -10.9909496307373047 -0.803904116153717041 215 1645007475.38716745 0.687312781810760498 0.724956274032592773 -0.0330629982054233551 -0.030762525275349617
72.3403244018554688 -7.41904878616333008 -0.766257584095001221 216 1645007476.28730512 0.541393101215362549 0.839284360408782959 -0.0427288226783275604 -0.0258749909698963165
70.0807952880859375 -4.93336868286132812 -0.675837337970733643 217 1645007477.18956232 0.373328953981399536 0.926215052604675293 -0.0416552163660526276 -0.0318746976554393768
67.2122879028320312 -3.54199075698852539 -0.539210736751556396 218 1645007477.98719049 0.193436756730079651 0.979517102241516113 -0.0441695228219032288 -0.0343157574534416199
63.7469749450683594 -3.37353658676147461 -0.309092700481414795 219 1645007478.78764606 0.00381601764820516109 0.99908977746963501 -0.0258298888802528381 -0.0337330177426338196
54.3287925720214844 -5.44948148727416992 0.192543059587478638 220 1645007480.78850412 -0.122755512595176697 0.991922199726104736 -0.0202452987432479858 -0.0247285943478345871
44.3165740966796875 -7.93265151977539062 0.70155566930770874 221 1645007482.68870091 -0.0882459655404090881 0.995692551136016846 -0.00505773769691586494 -0.0279893577098846436
32.7331504821777344 -9.04242706298828125 1.3469855785369873 222 1645007484.68898463 -0.0357918068766593933 0.998745620250701904 -0.0121253468096256256 -0.0328493565320968628
22.8145256042480469 -11.1567974090576172 2.11754512786865234 223 1645007486.48839521 -0.178496554493904114 0.982701301574707031 -0.0288281403481960297 -0.0400761328637599945
13.0391263961791992 -17.415435791015625 2.76461005210876465 224 1645007488.58874679 -0.330339729785919189 0.943340539932250977 -0.0282231122255325317 -0.0137011948972940445
4.79611778259277344 -24.423614501953125 3.32688450813293457 225 1645007490.5910449 -0.361915796995162964 0.931143820285797119 0.0346020236611366272 -0.0281227137893438339
1.92824876308441162 -28.9218978881835938 3.35955572128295898 226 1645007491.69071746 -0.522908627986907959 0.851821422576904297 0.0292879734188318253 -0.0104445526376366615
-0.533095955848693848 -37.4360542297363281 3.07273340225219727 227 1645007493.69094539 -0.601768195629119873 0.797854840755462646 0.0360706225037574768 0.00124052842147648335
-0.965272247791290283 -45.2063484191894531 2.93416452407836914 228 1645007495.79264116 -0.702445149421691895 0.710847020149230957 0.0258318111300468445 -0.0244956221431493759
-1.73950302600860596 -47.8622474670410156 2.96183276176452637 229 1645007496.58957624 -0.558327794075012207 0.828023791313171387 0.0359157174825668335 -0.0368341915309429169
-2.99991273880004883 -49.02777099609375 3.03544378280639648 230 1645007497.09011912 -0.40725630521774292 0.912692546844482422 0.0173867885023355484 -0.0288492627441883087
-9.36598014831542969 -49.989959716796875 3.30210709571838379 231 1645007499.09030986 -0.0208471342921257019 0.999560832977294922 -0.00650646723806858063 0.0200299844145774841
-16.3078117370605469 -50.3788566589355469 3.61076951026916504 232 1645007501.19089007 -0.0238124877214431763 0.999585330486297607 0.00946489442139863968 -0.0131347281858325005
-19.7781314849853516 -51.5635795593261719 3.57879853248596191 233 1645007502.18884897 -0.208025917410850525 0.977948904037475586 0.0167162679135799408 0.00785806402564048767
-22.0157909393310547 -53.7980766296386719 3.43354344367980957 234 1645007502.89394832 -0.38871234655380249 0.920442402362823486 0.0393963828682899475 0.0116815622895956039
-23.8456325531005859 -57.3443870544433594 3.21746420860290527 235 1645007503.69203949 -0.546756088733673096 0.836608350276947021 0.0331461243331432343 0.0067488555796444416
-24.7323436737060547 -63.3468132019042969 2.7801520824432373 236 1645007504.69459677 -0.688047587871551514 0.724705398082733154 0.0302533786743879318 0.0218475628644227982
-23.8969326019287109 -77.9095535278320312 1.60030508041381836 237 1645007506.78662181 -0.725641906261444092 0.686559498310089111 0.0436251051723957062 0.0132956095039844513
-23.0994739532470703 -92.5898513793945312 0.446493744850158691 238 1645007508.79254436 -0.736162006855010986 0.675013363361358643 0.0486220866441726685 0.00763847725465893745
-18.3165187835693359 -108.263618469238281 -1.08545982837677002 239 1645007510.8868928 -0.839881181716918945 0.539207935333251953 0.0620750114321708679 -0.00108348473440855742
-9.02519893646240234 -122.265434265136719 -2.58685803413391113 240 1645007512.88722396 -0.916233360767364502 0.398136228322982788 0.043673146516084671 -0.00983055587857961655
4.89637374877929688 -134.234649658203125 -4.17205333709716797 241 1645007514.98562336 -0.944002032279968262 0.32798236608505249 0.0355970039963722229 0.00453460309654474258
19.1185894012451172 -145.058944702148438 -5.76768350601196289 242 1645007516.98722339 -0.945830106735229492 0.321289539337158203 0.0451792813837528229 0.0117165455594658852
34.028594970703125 -156.797271728515625 -7.29222202301025391 243 1645007519.08484268 -0.942781984806060791 0.330429166555404663 0.0444822423160076141 0.000268069037701934576
48.1819534301757812 -167.88739013671875 -8.3933868408203125 244 1645007521.08860159 -0.946539819240570068 0.321189969778060913 0.0299819968640804291 -0.000651249138172715902
62.8053932189941406 -178.628890991210938 -8.96111679077148438 245 1645007523.18652701 -0.952326536178588867 0.304962307214736938 -0.0031694506760686636 -0.00788215268403291702
76.2875442504882812 -187.8094482421875 -9.22625160217285156 246 1645007525.18674135 -0.958201348781585693 0.28579413890838623 0.00174992624670267105 -0.0129930153489112854
90.2928466796875 -194.1925048828125 -9.11365127563476562 247 1645007527.2848208 -0.989982068538665771 0.140512645244598389 -0.00179921905510127544 -0.0137266535311937332
104.359565734863281 -196.404296875 -9.03651046752929688 248 1645007529.3845818 -0.99879145622253418 0.0400344096124172211 -0.00468254508450627327 -0.0281240269541740417
118.290283203125 -195.76080322265625 -9.01451492309570312 249 1645007531.48348999 -0.998135089874267578 -0.0569457188248634338 -0.00159546919167041779 -0.0219311751425266266
131.253616333007812 -193.078475952148438 -8.92736625671386719 250 1645007533.48463011 -0.99267125129699707 -0.117819108068943024 -0.00563661428168416023 -0.0262802932411432266
144.290908813476562 -190.740875244140625 -8.83467483520507812 251 1645007535.48567772 -0.996612727642059326 -0.0787445083260536194 -0.00671592680737376213 -0.0227426160126924515
158.110382080078125 -188.85491943359375 -8.69464111328125 252 1645007537.58482981 -0.998423874378204346 -0.0542828887701034546 -0.00580563489347696304 -0.0130166402086615562
171.260635375976562 -187.059829711914062 -8.5343017578125 253 1645007539.58611202 -0.997650742530822754 -0.0659238174557685852 -0.00849683769047260284 -0.0165800321847200394
184.328125 -184.934906005859375 -8.27197265625 254 1645007541.58730459 -0.996502518653869629 -0.0784566327929496765 -0.018886880949139595 -0.0216916892677545547
197.972747802734375 -182.742462158203125 -7.90702152252197266 255 1645007543.6860249 -0.996747255325317383 -0.0747708156704902649 -0.0197537112981081009 -0.0226730052381753922
210.8583984375 -180.764801025390625 -7.39874601364135742 256 1645007545.68853164 -0.996760785579681396 -0.0725648701190948486 -0.0251231640577316284 -0.0238973069936037064
224.11724853515625 -178.589889526367188 -6.6787872314453125 257 1645007547.78511882 -0.996091961860656738 -0.0774615928530693054 -0.0358890891075134277 -0.0226390659809112549
236.649734497070312 -176.753021240234375 -5.89637899398803711 258 1645007549.78597832 -0.996679544448852539 -0.0732817426323890686 -0.0331280827522277832 -0.0127347828820347786
248.83917236328125 -173.35748291015625 -5.11645984649658203 259 1645007551.78737783 -0.984092593193054199 -0.172312989830970764 -0.0359311886131763458 -0.0240612775087356567
261.251220703125 -168.300216674804688 -4.30464553833007812 260 1645007553.88569021 -0.978872358798980713 -0.200448185205459595 -0.0304205883294343948 -0.0265340451151132584
272.9605712890625 -163.536468505859375 -3.45148611068725586 261 1645007555.88802695 -0.984405279159545898 -0.168535396456718445 -0.0383103750646114349 -0.0327774509787559509
285.625762939453125 -159.353500366210938 -2.42280006408691406 262 1645007557.98722458 -0.987927556037902832 -0.14850848913192749 -0.0397304780781269073 -0.0191282574087381363
298.30633544921875 -155.464797973632812 -1.36685526371002197 263 1645007560.08863401 -0.988167464733123779 -0.144960373640060425 -0.0480201020836830139 -0.0143386572599411011
309.8748779296875 -152.522796630859375 -0.33415946364402771 264 1645007562.18788695 -0.993982255458831787 -0.100308135151863098 -0.0384211093187332153 -0.0214791800826787949
318.17181396484375 -149.879913330078125 0.399289458990097046 265 1645007564.28787422 -0.979107379913330078 -0.197659298777580261 -0.0440092943608760834 -0.0185120552778244019
327.1005859375 -145.765945434570312 1.240226149559021 266 1645007566.28823042 -0.976037144660949707 -0.215184003114700317 -0.0290429256856441498 0.0142786195501685143
336.35028076171875 -141.2764892578125 2.11840701103210449 267 1645007568.28872848 -0.972892940044403076 -0.226635605096817017 -0.0457357056438922882 0.00488084089010953903
345.821624755859375 -136.261962890625 3.04212307929992676 268 1645007570.2894218 -0.967090129852294922 -0.247726678848266602 -0.0557521991431713104 -0.016120370477437973
354.496826171875 -131.1158447265625 4.14495468139648438 269 1645007572.38365579 -0.964856743812561035 -0.254157036542892456 -0.0651801005005836487 -0.0143947545439004898
362.0208740234375 -126.504638671875 5.1411137580871582 270 1645007574.38388991 -0.950823962688446045 -0.303578495979309082 -0.0608564354479312897 -0.00839119032025337219
364.86053466796875 -122.950279235839844 5.54706478118896484 271 1645007575.48282337 -0.873688697814941406 -0.483348697423934937 -0.0532987341284751892 -0.0141876796260476112
365.452178955078125 -120.09710693359375 5.68917083740234375 272 1645007576.18512797 -0.763339102268218994 -0.644214928150177002 -0.0465427450835704803 -0.011592465452849865
365.07659912109375 -117.347213745117188 5.95391368865966797 273 1645007576.88530469 -0.642935812473297119 -0.763308346271514893 -0.0534451678395271301 0.0337269529700279236
362.452178955078125 -111.908615112304688 6.53801965713500977 274 1645007578.58390808 -0.492770969867706299 -0.867873489856719971 -0.0585663430392742157 0.0232893098145723343
357.50164794921875 -105.9176025390625 7.06408452987670898 275 1645007580.68317795 -0.405509203672409058 -0.912682473659515381 -0.0475888960063457489 0.0175572317093610764
351.305450439453125 -100.669631958007812 7.51520919799804688 276 1645007582.68392467 -0.304222851991653442 -0.951609015464782715 -0.0373059399425983429 0.0222930070012807846
343.78631591796875 -96.8718032836914062 7.77867031097412109 277 1645007584.68420815 -0.19495856761932373 -0.98025280237197876 -0.0294482409954071045 0.0151146668940782547
335.246856689453125 -93.5609588623046875 7.96899509429931641 278 1645007586.68473959 -0.195818349719047546 -0.980074048042297363 -0.0322957895696163177 0.00818862020969390869
326.03173828125 -89.7870559692382812 7.98324728012084961 279 1645007588.68580961 -0.202122673392295837 -0.978842437267303467 -0.0278850514441728592 -0.0153744174167513847
317.046234130859375 -85.1926727294921875 7.79982185363769531 280 1645007590.68751574 -0.230613052845001221 -0.972843170166015625 -0.00934442412108182907 -0.017505597323179245
306.17431640625 -79.7170791625976562 7.32704830169677734 281 1645007592.78512216 -0.236230894923210144 -0.971272647380828857 0.00913078337907791138 -0.0272229760885238647
294.7236328125 -72.7943572998046875 6.83082151412963867 282 1645007594.88393044 -0.30555802583694458 -0.951956570148468018 0.000943846476729959249 -0.0203010905534029007
284.58660888671875 -63.7095832824707031 6.39024734497070312 283 1645007596.98152876 -0.398948550224304199 -0.916834652423858643 -0.00349418539553880692 -0.0155566101893782616
276.55517578125 -53.422576904296875 6.09726572036743164 284 1645007598.98270035 -0.472637534141540527 -0.881085634231567383 -0.0143174920231103897 -0.0098401559516787529
271.55133056640625 -40.7327232360839844 5.99164438247680664 285 1645007601.08194709 -0.608829855918884277 -0.793172895908355713 -0.0121978921815752983 -0.00735784834250807762
269.175872802734375 -27.1946678161621094 6.02104091644287109 286 1645007603.17986131 -0.652716517448425293 -0.757558703422546387 -0.00746240187436342239 -0.00320324301719665527
265.230316162109375 -15.4102592468261719 6.10248708724975586 287 1645007605.18061113 -0.482163906097412109 -0.876047790050506592 0.00731678493320941925 -0.00217256136238574982
260.360565185546875 -10.9456844329833984 6.009521484375 288 1645007606.38240051 -0.323322087526321411 -0.94610220193862915 -0.0132716037333011627 -0.013317430391907692
249.065628051757812 -5.2339472770690918 5.68908071517944336 289 1645007608.48281646 -0.212438628077507019 -0.977012157440185547 -0.00422440050169825554 -0.0172969270497560501
237.79791259765625 -0.640546619892120361 5.3044891357421875 290 1645007610.58265567 -0.213182061910629272 -0.976782917976379395 -0.0136053059250116348 -0.0162302292883396149
227.474212646484375 4.89443635940551758 5.05298376083374023 291 1645007612.68301892 -0.265606075525283813 -0.963693678379058838 -0.0264635141938924789 -0.00690120691433548927
216.641326904296875 11.164881706237793 4.99037981033325195 292 1645007614.78203249 -0.256445795297622681 -0.9656791090965271 -0.0395697690546512604 -0.0115589527413249016
206.477828979492188 18.7523765563964844 4.87269258499145508 293 1645007616.78289294 -0.348118007183074951 -0.937171995639801025 -0.021889006718993187 0.0065865381620824337
196.56280517578125 26.696990966796875 5.0521397590637207 294 1645007618.78697062 -0.332881569862365723 -0.942094206809997559 -0.0398611091077327728 0.00770991900935769081
186.280181884765625 34.8347282409667969 5.39251041412353516 295 1645007620.88415098 -0.347034066915512085 -0.936665236949920654 -0.0454304702579975128 0.0127147724851965904
176.775100708007812 42.9804649353027344 5.77406215667724609 296 1645007622.8842299 -0.340611934661865234 -0.939852774143218994 -0.024467984214425087 0.00785026047378778458
166.958663940429688 50.8529243469238281 5.97372770309448242 297 1645007624.88603425 -0.340277224779129028 -0.939750969409942627 -0.028592228889465332 -0.0161857996135950089
156.781036376953125 59.0584487915039062 6.08497142791748047 298 1645007626.88713455 -0.324445962905883789 -0.944618344306945801 -0.0481583699584007263 -0.0105705438181757927
145.319976806640625 67.3896102905273438 5.6311192512512207 299 1645007628.99029613 -0.296909034252166748 -0.954234719276428223 -0.00930978916585445404 -0.034560859203338623
133.495025634765625 75.3683242797851562 5.60205936431884766 300 1645007631.08897972 -0.288033902645111084 -0.957120954990386963 -0.0295162852853536606 -0.00920435599982738495
123.221961975097656 82.5910263061523438 5.64654874801635742 301 1645007633.18866253 -0.305204480886459351 -0.95209735631942749 -0.017942424863576889 -0.00624070782214403152
115.009635925292969 89.4850997924804688 5.75802850723266602 302 1645007635.28527164 -0.366148024797439575 -0.930093109607696533 -0.0293623562902212143 0.000516351952683180571
107.938835144042969 94.3692092895507812 5.94392919540405273 303 1645007637.3894577 -0.154877766966819763 -0.987929821014404297 -0.000952884962316602468 -0.00258597848005592823
101.69000244140625 90.581756591796875 5.71765327453613281 304 1645007639.39140296 0.349032104015350342 -0.936958134174346924 -0.00466051977127790451 -0.0162564851343631744
94.404327392578125 82.0243911743164062 5.30490827560424805 305 1645007641.48241925 0.462609678506851196 -0.886380136013031006 -0.00802790001034736633 -0.0160643234848976135
91.0954818725585938 75.0551300048828125 4.99515295028686523 306 1645007642.88693428 0.610647261142730713 -0.791059255599975586 0.00307457963936030865 -0.0364106334745883942
90.90850830078125 64.479736328125 4.42252159118652344 307 1645007644.98381019 0.675872504711151123 -0.736272990703582764 -0.0196228064596652985 -0.026708848774433136
85.405487060546875 54.5140419006347656 3.73256874084472656 308 1645007647.08196425 0.443871080875396729 -0.895489692687988281 -0.0163004826754331589 -0.0284771788865327835
77.100189208984375 43.5130805969238281 2.95233964920043945 309 1645007649.17971087 0.450662940740585327 -0.892436742782592773 -0.00318825873546302319 -0.0211984105408191681
69.4259719848632812 32.6038055419921875 2.62362957000732422 310 1645007651.18007612 0.4602527916431427 -0.887585163116455078 -0.0175769645720720291 -0.00714243948459625244
60.4972076416015625 21.936431884765625 2.28075408935546875 311 1645007653.27954555 0.408695071935653687 -0.912583291530609131 -0.00420488137751817703 -0.0119307730346918106
51.5764541625976562 11.3464546203613281 2.04389572143554688 312 1645007655.37854719 0.432389706373214722 -0.901599347591400146 0.00310384156182408333 -0.0121714826673269272
41.812164306640625 3.22960209846496582 2.22194671630859375 313 1645007657.37874436 0.212880522012710571 -0.976788163185119629 0.0137344859540462494 0.0194442570209503174
30.7245807647705078 0.00193888857029378414 3.02840018272399902 314 1645007659.3789835 0.119306951761245728 -0.991720676422119141 0.0198353193700313568 0.0431562401354312897
20.0726814270019531 -1.3905569314956665 3.71494889259338379 315 1645007661.47717667 0.0265186484903097153 -0.999169588088989258 0.0254418030381202698 0.017596028745174408
10.9998226165771484 -3.49026298522949219 3.94019055366516113 316 1645007663.47871113 0.206931352615356445 -0.978228926658630371 0.00340041238814592361 0.015363713726401329
2.30019927024841309 -8.069854736328125 4.1225590705871582 317 1645007665.57880259 0.152062326669692993 -0.988219797611236572 -0.0135431904345750809 0.010738469660282135
-1.56683802604675293 -8.19055557250976562 4.11692094802856445 318 1645007666.37807798 -0.0458165109157562256 -0.998569130897521973 -0.026252472773194313 -0.00844786781817674637
-4.08314800262451172 -7.1164393424987793 4.13913679122924805 319 1645007666.97812629 -0.224173665046691895 -0.974160254001617432 -0.0267564915120601654 -0.00648515857756137848
-5.93606138229370117 -5.33577680587768555 4.16417932510375977 320 1645007667.5804987 -0.392509490251541138 -0.919215977191925049 -0.0303656850010156631 -0.00749408965930342674
-6.91751956939697266 -3.14400291442871094 4.2118840217590332 321 1645007668.17860818 -0.546859622001647949 -0.836779177188873291 -0.0245943702757358551 -0.0118458345532417297
-6.99201488494873047 -0.971804618835449219 4.24849462509155273 322 1645007668.77978015 -0.691337406635284424 -0.722132503986358643 -0.0176504272967576981 -0.016300717368721962
-6.25709438323974609 0.897020518779754639 4.27691841125488281 323 1645007669.37917113 -0.81819450855255127 -0.574484109878540039 -0.0141096422448754311 -0.0180731844156980515
-4.77904558181762695 2.41611599922180176 4.27981281280517578 324 1645007669.9788065 -0.91196441650390625 -0.410019844770431519 -0.0053411419503390789 -0.0132687008008360863
-1.69277822971343994 4.06997442245483398 4.24315023422241211 325 1645007670.88147974 -0.971764981746673584 -0.23569701611995697 0.00817982107400894165 -0.00726889539510011673
4.28732824325561523 3.13427352905273438 4.02983713150024414 326 1645007672.88159084 -0.973172903060913086 0.228817030787467957 0.024021560326218605 0.000498385750688612461
4.63972949981689453 2.82756876945495605 4.02397489547729492 327 1645007674.88233876 -0.965873003005981445 0.25832366943359375 0.0189253557473421097 0.000252400612225756049
