# .PCD v0.7 - Point Cloud Data file format
VERSION 0.7
FIELDS x y z intensity t qx qy qz qw
SIZE 4 4 4 4 8 4 4 4 4
TYPE F F F F F F F F F
COUNT 1 1 1 1 1 1 1 1 1
WIDTH 379
HEIGHT 1
VIEWPOINT 0 0 0 1 0 0 0
POINTS 379
DATA ascii
-0.160335585474967957 4.78009843826293945 6.64029121398925781 0 1644758883.62794065 0.999692201614379883 -0.00700704241171479225 0.00864990614354610443 -0.0221707113087177277
-0.0051331566646695137 4.77998208999633789 6.66043472290039062 1 1644758891.02823138 0.999583780765533447 -0.00473190844058990479 0.0176395289599895477 -0.0223333537578582764
4.02779006958007812 4.57344388961791992 6.68062210083007812 2 1644758893.02871299 0.999083161354064941 -0.0330908037722110748 0.0107244569808244705 -0.02495613694190979
10.6919803619384766 3.92857718467712402 6.70559310913085938 3 1644758895.02875829 0.999078691005706787 -0.0345130413770675659 0.0143344178795814514 -0.0210985876619815826
19.1322135925292969 3.41370153427124023 6.68670415878295898 4 1644758897.03057647 0.99901878833770752 -0.0408472195267677307 0.0022398708388209343 -0.0169688276946544647
27.7027339935302734 2.15647983551025391 6.62215662002563477 5 1644758899.13030672 0.995114982128143311 -0.0978218093514442444 -0.00613307440653443336 -0.0118105039000511169
35.7484817504882812 0.40694880485534668 6.53942203521728516 6 1644758901.13112402 0.995332419872283936 -0.0943719595670700073 -0.00474431179463863373 -0.0196166038513183594
44.2955970764160156 -1.20024394989013672 6.52110481262207031 7 1644758903.13252568 0.995559751987457275 -0.0895970612764358521 0.0223434735089540482 -0.0182730332016944885
53.9132423400878906 -2.29169774055480957 6.39460086822509766 8 1644758905.231812 0.998406767845153809 -0.0492271445691585541 0.00728769600391387939 -0.0265995189547538757
61.8019332885742188 -4.73226404190063477 6.34113168716430664 9 1644758907.02946997 0.959645211696624756 -0.280482292175292969 0.00613531842827796936 -0.0193159952759742737
69.4627838134765625 -9.54825973510742188 6.33778047561645508 10 1644758909.03372359 0.983187556266784668 -0.180462613701820374 0.00478934962302446365 -0.0274322368204593658
78.9902572631835938 -11.2052860260009766 6.37196016311645508 11 1644758911.13070273 0.998183071613311768 -0.0557687729597091675 0.00845303852111101151 -0.0211890731006860733
85.8232421875 -10.7067356109619141 6.45586585998535156 12 1644758912.73327875 0.987434327602386475 0.152162179350852966 0.00562558416277170181 -0.0422901809215545654
87.8482284545898438 -9.12922573089599609 6.49069118499755859 13 1644758913.33311319 0.946470379829406738 0.321690559387207031 -0.00978993717581033707 -0.0247608143836259842
89.4094924926757812 -6.72739076614379883 6.62521886825561523 14 1644758914.03415465 0.875668466091156006 0.482258141040802002 0.0119248116388916969 -0.0221275351941585541
90.9815750122070312 -1.19286572933197021 6.63943815231323242 15 1644758915.33456278 0.774937748908996582 0.632030904293060303 -0.00283804372884333134 0.000609856739174574614
91.9134521484375 8.54920101165771484 6.71823453903198242 16 1644758917.43481231 0.686406552791595459 0.726597070693969727 -0.0100004738196730614 -0.0283318199217319489
90.48602294921875 12.910639762878418 6.81016874313354492 17 1644758918.3350966 0.537905395030975342 0.842643678188323975 -0.00670603616163134575 -0.0237585734575986862
88.1534347534179688 15.4447021484375 6.87823295593261719 18 1644758919.03355432 0.361781030893325806 0.931972384452819824 -0.0153669808059930801 -0.0174888018518686295
85.4186630249023438 16.6572589874267578 6.87709331512451172 19 1644758919.63460183 0.186011657118797302 0.982347607612609863 -0.0197908580303192139 -0.00108790129888802767
79.4792861938476562 17.2362766265869141 6.84679841995239258 20 1644758920.83431649 0.0126093272119760513 0.999869644641876221 -0.0100419521331787109 -0.000926072942093014717
69.2854690551757812 15.8728656768798828 6.72403621673583984 21 1644758922.83149552 -0.0840580016374588013 0.996420502662658691 0.00741607788950204849 0.00504758488386869431
59.30450439453125 15.2519140243530273 6.7327427864074707 22 1644758924.6350584 0.00139342935290187597 0.999989688396453857 -0.00144267198629677296 -0.00408068671822547913
49.2238540649414062 15.7204780578613281 6.60828495025634766 23 1644758926.23515821 0.0438173338770866394 0.998672544956207275 0.0267421230673789978 0.00424598809331655502
39.0455703735351562 16.8904151916503906 6.62896823883056641 24 1644758927.83346272 0.0661004334688186646 0.997593879699707031 0.0208141878247261047 0.00199838983826339245
28.9205856323242188 18.2806224822998047 6.68566226959228516 25 1644758929.43046188 0.0731864720582962036 0.997144818305969238 0.0178377050906419754 -0.00527442712336778641
18.7709026336669922 19.6933555603027344 6.73113107681274414 26 1644758931.03240919 0.0597949139773845673 0.998107731342315674 0.014189770445227623 -0.00205383379943668842
8.43527698516845703 21.0353755950927734 6.81945323944091797 27 1644758932.8316505 0.0727887526154518127 0.997172951698303223 0.0173273179680109024 -0.00690517295151948929
2.94604611396789551 20.7876071929931641 6.89279270172119141 28 1644758933.93323565 -0.120894879102706909 0.992605626583099365 -0.00636750925332307816 -0.00882744975388050079
-0.584536612033843994 18.7289485931396484 6.81795406341552734 29 1644758934.83439946 -0.293257415294647217 0.955923378467559814 -0.0139158256351947784 0.00410803453996777534
-2.61716628074645996 16.1383495330810547 6.79386615753173828 30 1644758935.63175201 -0.478604763746261597 0.877685904502868652 -0.0166655760258436203 0.018088148906826973
-2.96498823165893555 13.9136314392089844 6.76559352874755859 31 1644758936.22860026 -0.643970727920532227 0.764299631118774414 -0.0117276087403297424 0.0317846797406673431
-2.36541485786437988 11.0315389633178711 6.75469207763671875 32 1644758937.02938604 -0.774508297443389893 0.632085919380187988 -0.0156223336234688759 0.0189794097095727921
-0.769140720367431641 8.15546035766601562 6.74388837814331055 33 1644758937.82966375 -0.880379676818847656 0.473449409008026123 -0.0134314531460404396 0.0244308356195688248
1.7840583324432373 6.16528034210205078 6.70454788208007812 34 1644758938.52956724 -0.952070951461791992 0.303092509508132935 0.00100897252559661865 0.0411677323281764984
11.7081031799316406 3.93144464492797852 6.7087092399597168 35 1644758940.53125334 -0.999266088008880615 0.030482439324259758 -0.00656154612079262733 0.0222486052662134171
23.9240970611572266 3.8282933235168457 6.63462352752685547 36 1644758942.63039374 -0.998937487602233887 0.0312472879886627197 0.0332042314112186432 0.00670389831066131592
36.0604400634765625 2.83547425270080566 6.58900642395019531 37 1644758944.728369 -0.998491346836090088 0.0548282861709594727 0.000437151233199983835 0.00294252717867493629
47.3416175842285156 1.22861802577972412 6.51208066940307617 38 1644758946.72987413 -0.996546626091003418 0.0824349522590637207 -0.00371413887478411198 0.00924611091613769531
57.4751777648925781 1.36178731918334961 6.49633455276489258 39 1644758948.7308712 -0.991305172443389893 -0.128909125924110413 -0.00582636520266532898 0.0257388148456811905
61.2467079162597656 3.59654998779296875 6.5501408576965332 40 1644758949.62774086 -0.948464334011077881 -0.315420091152191162 0.00938710197806358337 0.0289381667971611023
64.3761978149414062 7.75327110290527344 6.60539007186889648 41 1644758950.72790217 -0.87764662504196167 -0.478889495134353638 0.00242021284066140652 0.0198846049606800079
69.1650619506835938 15.7097015380859375 6.70075845718383789 42 1644758952.73011351 -0.920031607151031494 -0.391367465257644653 -0.0193198658525943756 -0.000316744029987603426
73.6192398071289062 17.7401828765869141 6.79128885269165039 43 1644758953.73047161 -0.990131735801696777 -0.139961153268814087 -0.00602691574022173882 -0.00370391481555998325
78.7648391723632812 17.9034156799316406 6.81587123870849609 44 1644758954.72764921 -0.999066948890686035 0.039483189582824707 -0.00693087978288531303 -0.0160707868635654449
84.8267440795898438 15.7593669891357422 6.84986400604248047 45 1644758955.92771363 -0.977057576179504395 0.212889835238456726 0.00194466079119592905 -0.00570780225098133087
89.1781845092773438 12.5395441055297852 6.78719663619995117 46 1644758956.92852259 -0.923686683177947998 0.383017003536224365 0.00947173871099948883 -0.0033376673236489296
91.3066177368164062 8.77025413513183594 6.70662784576416016 47 1644758957.7300117 -0.830836951732635498 0.556083619594573975 0.0194706451147794724 -0.0100937075912952423
91.7049407958984375 5.16701984405517578 6.64516925811767578 48 1644758958.43081594 -0.708921730518341064 0.7043570876121521 0.031848512589931488 -0.0172254834324121475
90.7309417724609375 1.96180212497711182 6.63798046112060547 49 1644758959.1285181 -0.568784177303314209 0.821892499923706055 0.0266082305461168289 -0.0164101086556911469
88.3850021362304688 -0.955682456493377686 6.62078475952148438 50 1644758959.9314847 -0.405787736177444458 0.913943588733673096 0.00642523122951388359 -0.00144968356471508741
85.1111373901367188 -2.84072208404541016 6.60229301452636719 51 1644758960.73158145 -0.218327060341835022 0.975860655307769775 0.00537476874887943268 0.000649125082418322563
81.23590087890625 -3.39218807220458984 6.57697820663452148 52 1644758961.53321028 -0.0432624481618404388 0.999050140380859375 0.00494976667687296867 -0.00165430572815239429
72.113800048828125 -1.82462024688720703 6.51423931121826172 53 1644758963.63191366 0.115927644073963165 0.993111848831176758 -0.0168629959225654602 0.00230044405907392502
63.5996322631835938 -1.08994472026824951 6.46187400817871094 54 1644758965.72864175 0.0239456519484519958 0.99969857931137085 0.00527310138568282127 -0.00125274702440947294
53.725616455078125 -1.18279480934143066 6.4319157600402832 55 1644758967.82817888 -0.00354904099367558956 0.999977827072143555 0.00533003499731421471 -0.00184206687845289707
45.2533721923828125 -2.1105952262878418 6.45158910751342773 56 1644758969.92511559 -0.188126936554908752 0.982102155685424805 -0.00794509239494800568 0.00453248107805848122
44.0220794677734375 -3.47310757637023926 6.45757198333740234 57 1644758970.42782974 -0.371730953454971313 0.928338289260864258 -0.00165385310538113117 -0.00119166262447834015
43.1118698120117188 -5.53798198699951172 6.37091159820556641 58 1644758971.02891707 -0.5303688645362854 0.847219347953796387 0.0019145419355481863 0.030406024307012558
42.0641288757324219 -13.1374912261962891 6.25906229019165039 59 1644758973.1259582 -0.664129853248596191 0.747595787048339844 -0.00153922569006681442 0.00544759957119822502
40.790924072265625 -21.6397418975830078 6.16750574111938477 60 1644758975.2258513 -0.662234723567962646 0.749267637729644775 0.00639986805617809296 0.00147308118175715208
41.4412384033203125 -27.8192653656005859 6.02545356750488281 61 1644758976.72479177 -0.793883025646209717 0.607798516750335693 -0.00073526846244931221 0.0181686673313379288
44.3848114013671875 -32.6345405578613281 5.87157583236694336 62 1644758978.02596998 -0.889262259006500244 0.456914544105529785 0.00501513434574007988 0.020411292091012001
47.9919929504394531 -40.9414138793945312 5.58983135223388672 63 1644758980.12492561 -0.731872797012329102 0.681168258190155029 0.0155143905431032181 0.0114599298685789108
46.4489212036132812 -49.9233970642089844 5.25546121597290039 64 1644758982.12761474 -0.673697829246520996 0.738795816898345947 0.00462607294321060181 0.0170465447008609772
45.4729270935058594 -60.3470840454101562 4.89595746994018555 65 1644758984.1292367 -0.66475909948348999 0.746902942657470703 0.00477164750918745995 0.0144401220604777336
43.8469429016113281 -69.5317459106445312 4.85004138946533203 66 1644758986.23014998 -0.643962740898132324 0.76503145694732666 -0.000297113292617723346 -0.00622938619926571846
42.6337623596191406 -79.3865127563476562 4.83666419982910156 67 1644758988.32974505 -0.65965801477432251 0.751531898975372314 0.0050383969210088253 -0.00506935827434062958
41.3871612548828125 -88.8819656372070312 4.84058809280395508 68 1644758990.32979989 -0.656961500644683838 0.753906846046447754 -0.00245512370020151138 -0.00446786219254136086
40.0076866149902344 -98.8412857055664062 4.8941655158996582 69 1644758992.2289114 -0.659340500831604004 0.751784861087799072 -0.00946563202887773514 -5.00993737659882754e-05
38.1596832275390625 -109.010543823242188 5.07919502258300781 70 1644758994.13069916 -0.588442802429199219 0.808316171169281006 -0.0122456159442663193 -0.0144917070865631104
34.8287353515625 -114.328506469726562 5.41344261169433594 71 1644758995.3294704 -0.437294125556945801 0.89857029914855957 -0.0288381949067115784 -0.0226621776819229126
27.5012931823730469 -121.634254455566406 6.29332685470581055 72 1644758997.33127475 -0.404083758592605591 0.912782847881317139 -0.0401916541159152985 -0.0439139232039451599
19.5843181610107422 -127.820259094238281 7.15057277679443359 73 1644758999.33039141 -0.244034036993980408 0.969082534313201904 -0.025305580347776413 -0.0261937305331230164
9.76927757263183594 -131.162322998046875 7.46220684051513672 74 1644759001.32973909 -0.123145699501037598 0.992298543453216553 -0.00988781265914440155 -0.00899515021592378616
0.0383829772472381592 -131.950653076171875 7.70914125442504883 75 1644759003.43107462 -0.0648647397756576538 0.997370243072509766 -0.0270387548953294754 -0.0177235603332519531
-6.2444758415222168 -138.249038696289062 7.9472804069519043 76 1644759005.52760792 -0.587181925773620605 0.808940529823303223 -0.0259940363466739655 0.0125256199389696121
-5.71276664733886719 -142.263015747070312 7.93274736404418945 77 1644759006.42731237 -0.788711726665496826 0.613958835601806641 -0.0140216555446386337 0.0281384866684675217
-4.15067863464355469 -144.528244018554688 7.90567922592163086 78 1644759007.02985954 -0.892962038516998291 0.448878943920135498 -0.0048810676671564579 0.0332069434225559235
-1.76951181888580322 -145.998977661132812 7.83449220657348633 79 1644759007.63060689 -0.966069996356964111 0.255156427621841431 0.00763249164447188377 0.0393159203231334686
0.93610382080078125 -146.3778076171875 7.80098819732666016 80 1644759008.22824049 -0.997829735279083252 0.0549506284296512604 0.00874879490584135056 0.0352102182805538177
3.59321761131286621 -145.658035278320312 7.76468896865844727 81 1644759008.8317852 -0.989729344844818115 -0.138860002160072327 0.00898188166320323944 0.0327575914561748505
6.51579809188842773 -143.627334594726562 7.72364091873168945 82 1644759009.62618709 -0.947059094905853271 -0.320408463478088379 0.0156657285988330841 0.0131170917302370071
8.82378482818603516 -140.342498779296875 7.62999200820922852 83 1644759010.52645826 -0.866421699523925781 -0.498073428869247437 0.0269749239087104797 0.02255217544734478
9.46069240570068359 -137.301910400390625 7.58290433883666992 84 1644759011.2276063 -0.759116590023040771 -0.649948596954345703 0.0276093855500221252 0.0233780797570943832
8.92053604125976562 -134.684814453125 7.57372188568115234 85 1644759011.8283546 -0.618608295917510986 -0.784747540950775146 0.0335535556077957153 0.0192152708768844604
7.35628890991210938 -132.522781372070312 7.55673789978027344 86 1644759012.42835927 -0.442680925130844116 -0.89557957649230957 0.0422176644206047058 0.0137306218966841698
5.46503448486328125 -131.362594604492188 7.54680871963500977 87 1644759012.92804527 -0.276674389839172363 -0.959771275520324707 0.0465539023280143738 0.0110945310443639755
-3.18802809715270996 -132.802001953125 7.83531761169433594 88 1644759015.02430153 0.237177208065986633 -0.97105097770690918 0.0251484736800193787 0.0132091343402862549
-5.62924385070800781 -135.29498291015625 7.89043140411376953 89 1644759015.82800341 0.420622020959854126 -0.9067726731300354 0.0288490355014801025 -0.00286372657865285873
-3.92810702323913574 -143.935928344726562 7.89511632919311523 90 1644759017.92724276 0.926448404788970947 -0.374047040939331055 0.00747923040762543678 -0.0415484979748725891
5.26948070526123047 -148.862472534179688 7.70836782455444336 91 1644759020.02461052 0.951782464981079102 -0.306610673666000366 -0.00709110451862215996 -0.0070504150353372097
12.5683059692382812 -156.184844970703125 7.33880615234375 92 1644759021.92371035 0.909533917903900146 -0.41516074538230896 -0.0197390466928482056 -0.000155006084241904318
19.2406501770019531 -164.187210083007812 6.89095258712768555 93 1644759023.82329798 0.893795371055603027 -0.44675976037979126 -0.0360390469431877136 0.0153883639723062515
24.8961429595947266 -172.640670776367188 6.52882242202758789 94 1644759025.82499933 0.868932187557220459 -0.494362384080886841 -0.0180526021867990494 0.0153871020302176476
26.8421249389648438 -177.920181274414062 6.55737972259521484 95 1644759027.22385406 0.768396973609924316 -0.638554275035858154 -0.0128229018300771713 0.0406213551759719849
26.3931159973144531 -180.614181518554688 6.69442415237426758 96 1644759028.12713981 0.62316662073135376 -0.780986428260803223 -0.0104900151491165161 0.0401688665151596069
25.1004886627197266 -182.230224609375 6.83264970779418945 97 1644759029.02320743 0.470252692699432373 -0.881922423839569092 0.0124388197436928749 0.0303405821323394775
20.8220291137695312 -185.772781372070312 7.15579557418823242 98 1644759030.82555032 0.308318614959716797 -0.950174987316131592 0.0200526900589466095 0.0412911921739578247
15.9714107513427734 -188.961807250976562 7.34788894653320312 99 1644759032.82696176 0.303208082914352417 -0.952634811401367188 0.0073178592137992382 0.0223219543695449829
11.8928794860839844 -194.333282470703125 7.30634975433349609 100 1644759034.92662024 0.536181926727294922 -0.843532443046569824 -0.0286880321800708771 -0.0117884539067745209
13.3919668197631836 -198.47845458984375 7.2176060676574707 101 1644759037.02785277 0.889372944831848145 -0.455067664384841919 0.0267334189265966415 -0.0348496101796627045
16.589691162109375 -202.973709106445312 6.78295183181762695 102 1644759039.12556005 0.873831510543823242 -0.484426379203796387 -0.0407887324690818787 -0.00926702655851840973
19.8227920532226562 -208.468109130859375 6.37071514129638672 103 1644759041.12687898 0.868684887886047363 -0.494003057479858398 -0.0329028032720088959 -0.0162770636379718781
24.3802452087402344 -215.285415649414062 5.86288833618164062 104 1644759043.22648144 0.881539762020111084 -0.471051067113876343 -0.0294361524283885956 -0.0114933159202337265
29.2607860565185547 -222.5621337890625 5.31464958190917969 105 1644759045.22768068 0.889088153839111328 -0.456814348697662354 -0.0220795068889856339 -0.0188512988388538361
34.6835289001464844 -229.67095947265625 4.69848918914794922 106 1644759047.2279253 0.905657052993774414 -0.422589033842086792 -0.0291755553334951401 -0.0187789089977741241
41.1122512817382812 -235.405807495117188 3.99141645431518555 107 1644759049.32903218 0.942050635814666748 -0.331606358289718628 -0.0476148612797260284 -0.0176252815872430801
47.8950080871582031 -240.26849365234375 3.28284549713134766 108 1644759051.42906666 0.965911507606506348 -0.253459811210632324 -0.0498770363628864288 -0.016893414780497551
55.399444580078125 -243.814300537109375 2.68966841697692871 109 1644759053.52616954 0.978345870971679688 -0.203639596700668335 -0.0363679379224777222 -0.00690506491810083389
63.3577232360839844 -246.017745971679688 2.12162327766418457 110 1644759055.62474275 0.993484735488891602 -0.106120161712169647 -0.041020657867193222 -0.00662617478519678116
71.427154541015625 -247.33770751953125 1.54912209510803223 111 1644759057.72467685 0.996903479099273682 -0.0669099986553192139 -0.0412632785737514496 0.00195894879288971424
79.6384658813476562 -248.231094360351562 0.918678224086761475 112 1644759059.72816014 0.997218847274780273 -0.0625639334321022034 -0.0404836647212505341 0.00117462885100394487
86.7865982055664062 -249.004638671875 0.514040946960449219 113 1644759061.73253918 0.998178541660308838 -0.0464994646608829498 -0.0382988788187503815 0.00325651629827916622
93.765045166015625 -249.610397338867188 -0.00975008029490709305 114 1644759063.82628679 0.998195230960845947 -0.0448291897773742676 -0.0374965369701385498 0.0138079039752483368
100.575752258300781 -250.43206787109375 -0.483005553483963013 115 1644759065.82669353 0.99815523624420166 -0.0508634969592094421 -0.0331515520811080933 -0.000136390197440050542
108.65283203125 -251.14569091796875 -1.00191390514373779 116 1644759067.92791843 0.998404145240783691 -0.0496813058853149414 -0.0262386947870254517 0.00570135330781340599
117.684112548828125 -252.237655639648438 -1.56242334842681885 117 1644759070.0234251 0.997720003128051758 -0.0575613565742969513 -0.0334103815257549286 0.0111914975568652153
126.601036071777344 -253.360610961914062 -1.92422723770141602 118 1644759072.12529349 0.997692525386810303 -0.0655271708965301514 -0.0157953090965747833 0.00814712513238191605
135.284332275390625 -254.042449951171875 -2.19027805328369141 119 1644759074.22477126 0.999102413654327393 -0.0365582965314388275 -0.0188584905117750168 0.0101114334538578987
142.268051147460938 -254.785842895507812 -2.33384466171264648 120 1644759076.32155347 0.997866630554199219 -0.0633143484592437744 -0.0151413846760988235 0.00492268847301602364
147.539352416992188 -255.096954345703125 -2.40805196762084961 121 1644759078.32237339 0.999472439289093018 -0.0311858728528022766 -0.00539322616532444954 0.00729262223467230797
152.289459228515625 -255.764816284179688 -2.40377545356750488 122 1644759080.42292762 0.99734652042388916 -0.0727441906929016113 0.00110850518103688955 0.00265032751485705376
156.134994506835938 -256.18035888671875 -2.40777254104614258 123 1644759082.42420959 0.99876248836517334 -0.0491354465484619141 0.00173416465986520052 0.00749334599822759628
160.174041748046875 -256.408935546875 -2.40863490104675293 124 1644759084.526088 0.999362349510192871 -0.0351721830666065216 0.00158088363241404295 0.00593752274289727211
162.607177734375 -256.599700927734375 -2.36204791069030762 125 1644759086.62531757 0.999295830726623535 -0.0373145602643489838 0.00388180860318243504 -0.000628369394689798355
164.689300537109375 -256.832550048828125 -2.31800675392150879 126 1644759088.72406816 0.998261511325836182 -0.0575278289616107941 0.0111613301560282707 0.00631829537451267242
168.151596069335938 -256.760833740234375 -2.27483773231506348 127 1644759090.8251543 0.999551296234130859 0.0281883403658866882 0.00751497736200690269 0.00679638097062706947
171.027740478515625 -256.444061279296875 -2.21703386306762695 128 1644759092.82629108 0.998559176921844482 0.052639249712228775 0.00941711664199829102 0.0044755726121366024
174.802841186523438 -255.935012817382812 -2.13617634773254395 129 1644759094.92376542 0.997147679328918457 0.074294745922088623 0.00818254891782999039 0.0104793757200241089
181.872528076171875 -254.695098876953125 -1.95486736297607422 130 1644759097.02487326 0.992568314075469971 0.120627127587795258 0.0151330931112170219 0.00531175127252936363
189.9783935546875 -251.440902709960938 -1.78732204437255859 131 1644759099.12074804 0.97747492790222168 0.210125327110290527 0.016803959384560585 0.0103783691301941872
197.24017333984375 -247.196441650390625 -1.66925466060638428 132 1644759101.12232995 0.952224791049957275 0.305226713418960571 0.00696901185438036919 0.00748381763696670532
203.619308471679688 -242.052230834960938 -1.58851921558380127 133 1644759103.2203784 0.942138433456420898 0.334738463163375854 0.0104943439364433289 0.0146685615181922913
209.749618530273438 -236.980361938476562 -1.48443830013275146 134 1644759105.22250438 0.94398123025894165 0.329152524471282959 0.0212790872901678085 0.0102582173421978951
216.535110473632812 -231.789352416992188 -1.37755322456359863 135 1644759107.32010984 0.94418412446975708 0.329177737236022949 0.0113118775188922882 0.00551048526540398598
222.759033203125 -226.482772827148438 -1.2695842981338501 136 1644759109.32146263 0.937608063220977783 0.34710395336151123 0.0159030593931674957 0.0125322137027978897
229.403228759765625 -220.937850952148438 -1.10837662220001221 137 1644759111.32474971 0.942902147769927979 0.332372456789016724 0.0187845230102539062 0.0105446018278598785
236.545455932617188 -215.358001708984375 -0.942592799663543701 138 1644759113.42109799 0.942956626415252686 0.33266216516494751 0.0118270013481378555 0.00536931911483407021
243.083847045898438 -209.61181640625 -0.782139480113983154 139 1644759115.42257476 0.943176627159118652 0.331511378288269043 0.0160497222095727921 0.0161379259079694748
250.253067016601562 -204.111679077148438 -0.568511307239532471 140 1644759117.5234468 0.942298948764801025 0.334540784358978271 0.0117099136114120483 0.00424828426912426949
256.906005859375 -198.696426391601562 -0.386109530925750732 141 1644759119.52373648 0.940984964370727539 0.338147431612014771 0.0135931270197033882 0.0043415403924882412
263.380157470703125 -192.860183715820312 -0.182982563972473145 142 1644759121.6227572 0.933964192867279053 0.356551498174667358 0.0199084002524614334 0.0136243943125009537
269.8277587890625 -187.672897338867188 0.134848505258560181 143 1644759123.72506118 0.941727101802825928 0.334732264280319214 0.0328971408307552338 0.00471338909119367599
276.10955810546875 -182.55963134765625 0.586145639419555664 144 1644759125.82401562 0.942420661449432373 0.333320468664169312 0.0271053984761238098 -0.00245752441696822643
282.050628662109375 -177.846755981445312 0.991920292377471924 145 1644759127.82462907 0.947578370571136475 0.317758023738861084 0.0332654155790805817 0.00429469114169478416
287.969390869140625 -172.882095336914062 1.49346780776977539 146 1644759129.82566547 0.940534055233001709 0.337693542242050171 0.0353468768298625946 -0.0104562435299158096
293.496002197265625 -167.894775390625 1.96789777278900146 147 1644759131.8284502 0.932020962238311768 0.360735505819320679 0.034738440066576004 -3.69037479686085135e-05
298.084259033203125 -161.5843505859375 2.4037480354309082 148 1644759133.92640853 0.870314836502075195 0.49145883321762085 0.0319371111690998077 -0.000596311583649367094
301.9486083984375 -155.750015258789062 2.77997183799743652 149 1644759135.92737174 0.902440428733825684 0.429323017597198486 0.0352652557194232941 0.00627436349168419838
306.42388916015625 -150.835968017578125 3.16627645492553711 150 1644759137.92909336 0.902145326137542725 0.428913921117782593 0.02948041632771492 -0.0360213369131088257
309.64593505859375 -147.730514526367188 3.43588805198669434 151 1644759140.02923775 0.919095993041992188 0.391225159168243408 0.0463607572019100189 0.00749073689803481102
312.76239013671875 -142.5574951171875 3.73964166641235352 152 1644759142.12791395 0.858037650585174561 0.511003196239471436 0.043143831193447113 0.0280310790985822678
317.148590087890625 -138.356781005859375 4.19370174407958984 153 1644759144.2212975 0.931487321853637695 0.360070556402206421 0.04976663738489151 0.014275488443672657
321.69281005859375 -133.64739990234375 4.67485189437866211 154 1644759146.22920203 0.917605936527252197 0.394407123327255249 0.0480111762881278992 0.0117159774526953697
326.144195556640625 -128.514297485351562 5.17025470733642578 155 1644759148.31958151 0.902905881404876709 0.426568895578384399 0.0520113110542297363 0.00973227433860301971
328.7998046875 -123.820220947265625 5.45205307006835938 156 1644759150.32023907 0.88181912899017334 0.468240201473236084 0.0499284341931343079 0.0255601294338703156
333.06951904296875 -119.462539672851562 5.87392234802246094 157 1644759152.41956592 0.926985383033752441 0.372091621160507202 0.0472739525139331818 0.00332747749052941799
336.82568359375 -116.284164428710938 6.27985763549804688 158 1644759154.42186594 0.941401422023773193 0.335247188806533813 0.0350721292197704315 -0.0119415288791060448
338.79608154296875 -114.163009643554688 6.49962472915649414 159 1644759156.51946735 0.915515005588531494 0.400091826915740967 0.0419094078242778778 -0.00154189218301326036
341.796875 -110.948387145996094 6.83832979202270508 160 1644759158.52217484 0.921157658100128174 0.386863201856613159 0.0424058474600315094 -0.00267987418919801712
345.819671630859375 -107.395240783691406 7.28564023971557617 161 1644759160.62050724 0.938013315200805664 0.344655871391296387 0.0349356271326541901 -0.0110839176923036575
347.942413330078125 -103.293098449707031 7.5925140380859375 162 1644759162.71991968 0.857903540134429932 0.510174870491027832 0.0542609505355358124 0.0279081016778945923
351.890838623046875 -99.4449920654296875 8.20612716674804688 163 1644759164.72110224 0.923820197582244873 0.37520897388458252 0.0755645483732223511 -0.00802775751799345016
355.913665771484375 -94.5221328735351562 8.75616073608398438 164 1644759166.81906104 0.889097869396209717 0.456134885549545288 0.0380251295864582062 2.98756694974144921e-05
359.5584716796875 -88.9118194580078125 9.27906990051269531 165 1644759168.8210237 0.880651473999023438 0.471093922853469849 0.0501971766352653503 0.00194718956481665373
363.89202880859375 -82.9117202758789062 9.58449363708496094 166 1644759170.9208343 0.885226011276245117 0.464337348937988281 0.0205054692924022675 0.0185814350843429565
368.0986328125 -76.1933517456054688 10.1803064346313477 167 1644759173.01900601 0.870540618896484375 0.489532053470611572 0.0500844120979309082 -0.0029937343206256628
371.969207763671875 -69.0627593994140625 10.9233236312866211 168 1644759175.02054667 0.862240195274353027 0.50388568639755249 0.0513484328985214233 -0.00209484761580824852
375.50079345703125 -62.2313499450683594 11.6536359786987305 169 1644759177.02095652 0.851395368576049805 0.521562337875366211 0.0555843561887741089 0.00300713162869215012
377.865509033203125 -56.7272834777832031 12.2041006088256836 170 1644759179.02353024 0.833763182163238525 0.549997448921203613 0.0483322814106941223 -0.00240015285089612007
378.541168212890625 -53.060089111328125 12.5066776275634766 171 1644759180.62542415 0.712061882019042969 0.700279533863067627 0.0355519205331802368 -0.0362288095057010651
377.94183349609375 -51.6743316650390625 12.6321773529052734 172 1644759181.22432661 0.579227328300476074 0.813631713390350342 0.0367081984877586365 -0.03393515944480896
376.337310791015625 -50.0261764526367188 12.779170036315918 173 1644759182.02505636 0.416093498468399048 0.908303558826446533 0.0355358384549617767 -0.0242492109537124634
373.1873779296875 -48.2444992065429688 13.0250730514526367 174 1644759183.22122264 0.242881760001182556 0.968567609786987305 0.0440733581781387329 -0.0307052470743656158
366.641082763671875 -46.2553291320800781 13.2941493988037109 175 1644759185.22279215 0.117459088563919067 0.992428898811340332 0.0324399657547473907 -0.0153580540791153908
358.709228515625 -44.8215980529785156 13.6153535842895508 176 1644759187.3207128 0.0828209444880485535 0.995814383029937744 0.0277406778186559677 -0.0269221551716327667
350.13299560546875 -44.6980323791503906 13.8493003845214844 177 1644759189.41957951 -0.0337263904511928558 0.999274253845214844 0.0118900267407298088 -0.0131195485591888428
340.997589111328125 -46.3283309936523438 13.9955520629882812 178 1644759191.51830435 -0.0914097204804420471 0.995506644248962402 0.0185041353106498718 -0.0163835249841213226
331.506683349609375 -48.3255500793457031 13.9989795684814453 179 1644759193.51893854 -0.0886295214295387268 0.995860934257507324 0.0201392676681280136 0.000433419976616278291
321.278656005859375 -49.1017227172851562 13.7415771484375 180 1644759195.51879478 -0.0169479977339506149 0.999751031398773193 0.0137647669762372971 0.00460014306008815765
311.087432861328125 -49.0603713989257812 13.2712078094482422 181 1644759197.31915855 0.0140472156926989555 0.999656200408935547 -0.00267087854444980621 0.0219786576926708221
301.096038818359375 -49.3413963317871094 12.7418079376220703 182 1644759198.91808724 -0.0128220124170184135 0.99963611364364624 -0.00581908132880926132 0.0230078399181365967
290.89642333984375 -49.3111495971679688 12.2068643569946289 183 1644759200.51988769 0.0226995516568422318 0.999482691287994385 -0.007031251210719347 0.0216725803911685944
280.704864501953125 -47.9695663452148438 11.7034130096435547 184 1644759202.11999249 0.10200994461774826 0.994495749473571777 0.00272486940957605839 0.0237651374191045761
270.963226318359375 -44.6470413208007812 11.206721305847168 185 1644759203.72071433 0.223955914378166199 0.974136292934417725 0.0207658112049102783 0.0217024050652980804
262.23211669921875 -39.43408203125 10.881927490234375 186 1644759205.32039261 0.279854327440261841 0.959870100021362305 0.00400711037218570709 0.0177461206912994385
254.142715454101562 -33.2109298706054688 10.6050901412963867 187 1644759207.12142706 0.352729886770248413 0.93557584285736084 0.00467695342376828194 0.016051221638917923
247.131301879882812 -25.8950099945068359 10.4039945602416992 188 1644759209.11946297 0.420530706644058228 0.907030463218688965 0.0150298047810792923 0.0149578042328357697
240.154052734375 -18.3533592224121094 10.2991561889648438 189 1644759211.02168655 0.360037028789520264 0.932911694049835205 0.00555460993200540543 0.0042668594978749752
230.738616943359375 -14.7126245498657227 10.0402507781982422 190 1644759212.92277622 0.0892015174031257629 0.995873212814331055 0.00804151315242052078 0.0146614285185933113
220.689163208007812 -16.1984176635742188 9.62078666687011719 191 1644759214.81913877 -0.157494187355041504 0.987262606620788574 0.00393718481063842773 0.0221961401402950287
210.386459350585938 -18.4773025512695312 9.14178371429443359 192 1644759216.61937022 -0.0741486623883247375 0.996642947196960449 0.0335850603878498077 0.00876337941735982895
200.390579223632812 -19.0117435455322266 8.74114322662353516 193 1644759218.21918082 0.00491736643016338348 0.999407768249511719 0.024602031335234642 0.0235514193773269653
190.28607177734375 -18.9195289611816406 8.50878429412841797 194 1644759219.82097363 0.0176036916673183441 0.999475359916687012 0.0271679256111383438 0.00101392390206456184
179.889358520507812 -17.7560997009277344 8.30232715606689453 195 1644759221.52166867 0.0647300556302070618 0.997770488262176514 0.00390610890462994576 0.0157728474587202072
169.643630981445312 -15.9797458648681641 8.11436176300048828 196 1644759223.22054052 0.111204579472541809 0.993625879287719727 0.0166142098605632782 -0.00806708261370658875
159.309768676757812 -13.9632749557495117 8.14104843139648438 197 1644759224.92101979 0.0671380311250686646 0.997470319271087646 0.0198340509086847305 -0.0123327160254120827
148.818069458007812 -13.2046470642089844 8.17494297027587891 198 1644759226.61926317 0.0288451742380857468 0.999306559562683105 0.0228258762508630753 -0.00576984044164419174
138.365615844726562 -12.2093915939331055 8.26658535003662109 199 1644759228.31946206 0.0631250739097595215 0.997919082641601562 -0.00367096951231360435 -0.01261886116117239
128.028778076171875 -10.5249481201171875 8.41778659820556641 200 1644759230.01830578 0.0862496420741081238 0.996231973171234131 0.00648319628089666367 -0.00638558808714151382
117.681129455566406 -9.49139118194580078 8.27004623413085938 201 1644759231.82082367 0.00161087990272790194 0.999419867992401123 0.0248071625828742981 0.0232803318649530411
113.196945190429688 -10.6969232559204102 8.00346946716308594 202 1644759232.81815457 -0.191613152623176575 0.980878651142120361 0.0147469937801361084 0.0307239871472120285
108.683219909667969 -19.1409378051757812 7.07768344879150391 203 1644759234.9184382 -0.621368765830993652 0.78201591968536377 0.0280522461980581284 0.039560265839099884
107.715034484863281 -29.5269737243652344 6.1151885986328125 204 1644759236.51698875 -0.682222187519073486 0.729949235916137695 0.0273712631314992905 0.0315883047878742218
106.656394958496094 -39.4516525268554688 5.25470924377441406 205 1644759237.91701794 -0.66832965612411499 0.742280423641204834 0.0286736469715833664 0.0391543358564376831
105.258781433105469 -49.7883186340332031 4.34119892120361328 206 1644759239.31598783 -0.649245917797088623 0.759278655052185059 0.0331259556114673615 0.0296363551169633865
103.7845458984375 -59.6871528625488281 3.56549167633056641 207 1644759240.61519623 -0.651379287242889404 0.758008420467376709 0.0239639859646558762 0.0235356464982032776
102.292640686035156 -69.7514266967773438 2.90757250785827637 208 1644759241.91679335 -0.649985730648040771 0.759330928325653076 0.0183939710259437561 0.0244288593530654907
100.701850891113281 -79.8300247192382812 2.30506587028503418 209 1644759243.21748137 -0.645307838916778564 0.763188660144805908 0.0160031206905841827 0.0294071752578020096
99.074676513671875 -89.9297027587890625 1.64363861083984375 210 1644759244.51554441 -0.647126972675323486 0.761690974235534668 0.0194971747696399689 0.0259502232074737549
97.4454269409179688 -99.9677505493164062 1.30199778079986572 211 1644759245.81596398 -0.643144667148590088 0.765521883964538574 0.018454384058713913 -0.00079035275848582387
95.6924591064453125 -110.445663452148438 1.02088415622711182 212 1644759247.21576929 -0.643853604793548584 0.765001595020294189 0.0149193434044718742 -0.00158736086450517178
93.3756256103515625 -120.821540832519531 1.00941765308380127 213 1644759248.71809769 -0.596707940101623535 0.80241084098815918 -0.00874106120318174362 5.64216024940833449e-05
89.6421890258789062 -130.346786499023438 1.15943217277526855 214 1644759250.31698275 -0.537781000137329102 0.842954158782958984 -0.014056486077606678 -0.00471976585686206818
84.2174606323242188 -139.220199584960938 1.4761812686920166 215 1644759252.11665559 -0.454047292470932007 0.890654444694519043 -0.0203952807933092117 -0.012639729306101799
77.6611557006835938 -147.113235473632812 1.95955514907836914 216 1644759253.81578016 -0.385115444660186768 0.922342419624328613 -0.0188774801790714264 -0.0247819218784570694
69.5906448364257812 -153.559356689453125 2.55309653282165527 217 1644759255.51506567 -0.307309716939926147 0.950958728790283203 -0.0213139299303293228 -0.0279992297291755676
61.4021339416503906 -159.53472900390625 3.25729084014892578 218 1644759257.22059703 -0.30975031852722168 0.950140118598937988 -0.0186174642294645309 -0.0306893829256296158
52.9795074462890625 -165.226287841796875 3.9559323787689209 219 1644759258.9188118 -0.283210933208465576 0.958188414573669434 -0.0233209561556577682 -0.0335063189268112183
44.2809524536132812 -170.556396484375 4.68466043472290039 220 1644759260.71882057 -0.263376444578170776 0.963860571384429932 -0.0226997062563896179 -0.03302045539021492
34.7760047912597656 -175.314926147460938 5.38280582427978516 221 1644759262.81903791 -0.168060392141342163 0.985010325908660889 -0.016739649698138237 -0.0350740030407905579
28.7748680114746094 -175.910400390625 5.69817972183227539 222 1644759264.0203023 0.0209263823926448822 0.999427378177642822 -0.00633402029052376747 -0.0258237309753894806
24.5363616943359375 -174.516799926757812 5.9278569221496582 223 1644759264.91943789 0.204424306750297546 0.978336811065673828 -0.00555532285943627357 -0.032201770693063736
20.6548824310302734 -171.41668701171875 6.12492990493774414 224 1644759265.91980457 0.379935383796691895 0.924869358539581299 0.00997072178870439529 -0.0128964809700846672
15.6743879318237305 -163.468032836914062 6.64344120025634766 225 1644759267.9184556 0.537776947021484375 0.842516124248504639 -0.00529627362266182899 -0.0305701158940792084
11.6092004776000977 -154.501998901367188 7.03487491607666016 226 1644759269.9185915 0.533197641372680664 0.84489208459854126 -0.016083989292383194 -0.0399873331189155579
8.55878353118896484 -144.78887939453125 7.46434879302978516 227 1644759271.91929531 0.634589314460754395 0.772606730461120605 -0.00674086948856711388 -0.0181600749492645264
9.16591072082519531 -134.925262451171875 7.50335073471069336 228 1644759274.01835799 0.809328913688659668 0.587302803993225098 -0.00760779669508337975 0.00205371621996164322
12.2647542953491211 -130.938613891601562 7.39626598358154297 229 1644759275.02188587 0.935431838035583496 0.35276457667350769 -0.00696606049314141273 0.0218148920685052872
21.9545364379882812 -126.129074096679688 6.95867681503295898 230 1644759277.1183126 0.969308435916900635 0.243824854493141174 -0.022711949422955513 0.0217895582318305969
31.2518596649169922 -118.067283630371094 5.87758207321166992 231 1644759279.21556354 0.91761249303817749 0.394758731126785278 -0.0352340303361415863 0.0301903430372476578
38.2065315246582031 -107.592025756835938 5.10238790512084961 232 1644759281.21940756 0.846020638942718506 0.532878518104553223 -0.0126265529543161392 0.011407989077270031
40.9828414916992188 -94.769256591796875 4.9359288215637207 233 1644759283.32061648 0.758108913898468018 0.652116119861602783 -0.0028372050728648901 0.00272411806508898735
42.7849769592285156 -81.4626693725585938 4.85707187652587891 234 1644759285.41912699 0.748344719409942627 0.663228213787078857 -0.00689945369958877563 -0.00780423358082771301
44.6565361022949219 -68.1243133544921875 4.83768796920776367 235 1644759287.51407456 0.759588181972503662 0.650308132171630859 -0.00936099886894226074 -0.00612009502947330475
46.2376365661621094 -54.8400306701660156 5.07342863082885742 236 1644759289.61295819 0.744621098041534424 0.667166531085968018 0.0193898864090442657 -0.00722894724458456039
47.8692283630371094 -42.5120582580566406 5.53615522384643555 237 1644759291.61809468 0.747007131576538086 0.664393365383148193 0.0134583404287695885 -0.0195099636912345886
47.2124252319335938 -37.2725334167480469 5.69001340866088867 238 1644759292.5203023 0.608770847320556641 0.793247044086456299 0.00243464088998734951 -0.0122972019016742706
41.5076637268066406 -27.2880058288574219 6.00766611099243164 239 1644759294.61411953 0.541000187397003174 0.84047013521194458 0.02954074926674366 -0.00749112758785486221
40.9574775695800781 -18.2752304077148438 6.13737010955810547 240 1644759296.21243691 0.736835479736328125 0.676011264324188232 0.00693796016275882721 -0.0058367094025015831
42.7756004333496094 -6.84703254699707031 6.29984855651855469 241 1644759298.21361637 0.769285023212432861 0.638718485832214355 0.0153799382969737053 0.00166023802012205124
44.7175636291503906 -2.86099076271057129 6.39727163314819336 242 1644759299.11390781 0.880059778690338135 0.474845856428146362 0.0034829988144338131 -0.00200731400400400162
47.1939239501953125 -0.878134489059448242 6.42565298080444336 243 1644759299.81298733 0.95250248908996582 0.304429560899734497 0.00726788351312279701 -0.00297368410974740982
57.6558418273925781 0.574038386344909668 6.43900299072265625 244 1644759301.8158412 0.99978172779083252 -0.0177527535706758499 0.0110097033903002739 -0.000319394835969433188
70.1007080078125 -1.19847393035888672 6.47969293594360352 245 1644759303.81736064 0.995891690254211426 -0.0903058424592018127 -0.00103564921300858259 0.00659951847046613693
80.3168182373046875 -3.12216711044311523 6.55468273162841797 246 1644759305.91778708 0.995335221290588379 -0.0962463170289993286 0.00570042617619037628 0.00345330662094056606
90.34124755859375 -5.41638946533203125 6.67714357376098633 247 1644759308.01797986 0.992758870124816895 -0.119066089391708374 0.0114736305549740791 -0.0110207861289381981
100.0657958984375 -8.51094150543212891 7.29501485824584961 248 1644759309.91768169 0.985236644744873047 -0.161756917834281921 0.0290292706340551376 -0.0479655973613262177
108.523635864257812 -10.8270130157470703 7.44291448593139648 249 1644759312.01393056 0.997203946113586426 -0.0514835715293884277 0.0137385120615363121 -0.0523921772837638855
117.901008605957031 -9.15603160858154297 7.89345359802246094 250 1644759314.11384988 0.993582248687744141 0.106948085129261017 0.0265007484704256058 -0.0255756750702857971
128.587722778320312 -8.29195976257324219 8.10954475402832031 251 1644759316.21179175 0.99984276294708252 -0.00909914914518594742 -0.00271811941638588905 -0.0149738062173128128
140.707778930664062 -9.58194065093994141 8.16985321044921875 252 1644759318.31164169 0.998273909091949463 -0.0500761233270168304 0.00567239942029118538 -0.0301562510430812836
152.825408935546875 -11.3041019439697266 8.35280513763427734 253 1644759320.31270766 0.993117332458496094 -0.113830067217350006 -0.000647671171464025974 -0.0275721624493598938
165.281829833984375 -13.5351753234863281 8.19636726379394531 254 1644759322.31316304 0.996959924697875977 -0.0698740705847740173 0.0019535943865776062 -0.0344200506806373596
178.717926025390625 -15.8170137405395508 8.30953407287597656 255 1644759324.4122541 0.996008038520812988 -0.0819310396909713745 0.0212139859795570374 -0.0283773038536310196
191.796279907226562 -17.4759883880615234 8.563385009765625 256 1644759326.51225615 0.999420821666717529 -0.0169344861060380936 0.00928440503776073456 -0.0280185863375663757
203.469863891601562 -17.0011806488037109 8.91330242156982422 257 1644759328.51280642 0.998602151870727539 0.0388707257807254791 0.0181118547916412354 -0.0308989658951759338
214.813995361328125 -15.421717643737793 9.43319606781005859 258 1644759330.51506472 0.995865404605865479 0.0850651934742927551 0.0208695940673351288 -0.0240920782089233398
226.5380859375 -12.9985837936401367 9.95400238037109375 259 1644759332.61483335 0.994113504886627197 0.104921795427799225 0.0191564857959747314 -0.0190468262881040573
237.010818481445312 -12.4069852828979492 10.4063520431518555 260 1644759334.71240783 0.993076860904693604 -0.115253522992134094 0.0185472406446933746 -0.0130768204107880592
240.364013671875 -14.3224821090698242 10.4194393157958984 261 1644759335.51440573 0.957334458827972412 -0.288144558668136597 0.0111011471599340439 -0.0189785193651914597
247.813018798828125 -21.7053356170654297 10.4284849166870117 262 1644759337.51614904 0.913305759429931641 -0.407086312770843506 0.0058512282557785511 -0.0109130134806036949
255.217681884765625 -29.8102970123291016 10.5977153778076172 263 1644759339.6137526 0.913696408271789551 -0.406097710132598877 0.0151263074949383736 -0.00383264757692813873
265.471466064453125 -37.4823150634765625 10.9121160507202148 264 1644759341.71408629 0.960078716278076172 -0.279114961624145508 0.0185373742133378983 -0.000186009652679786086
277.456329345703125 -43.666473388671875 11.3968744277954102 265 1644759343.81526828 0.978304505348205566 -0.205844849348068237 0.0232970546931028366 0.00234103831462562084
289.41558837890625 -46.7452583312988281 11.9789724349975586 266 1644759345.81592131 0.998585164546966553 -0.0454991497099399567 0.027243591845035553 0.00390704814344644547
301.91839599609375 -46.8408050537109375 12.6329641342163086 267 1644759347.91567183 0.999297559261322021 0.0232332702726125717 0.0271261129528284073 0.0113476580008864403
311.95941162109375 -45.5912284851074219 13.1696996688842773 268 1644759350.01327276 0.993468701839447021 0.111245006322860718 0.0253848563879728317 0.000291592004941776395
317.10693359375 -44.2472877502441406 13.4653158187866211 269 1644759352.0183804 0.993940412998199463 0.107252985239028931 0.0130288880318403244 0.0202371980994939804
321.055328369140625 -43.6353111267089844 13.7005825042724609 270 1644759354.11179137 0.996497213840484619 0.0766471177339553833 0.0296946018934249878 0.0153859881684184074
326.668182373046875 -42.8367118835449219 14.1196393966674805 271 1644759356.11486816 0.996876776218414307 0.0735964551568031311 0.0279930159449577332 -0.00605516042560338974
333.68988037109375 -42.0445899963378906 14.2867059707641602 272 1644759358.21127629 0.998431563377380371 0.0524708889424800873 -0.000829351600259542465 -0.019506772980093956
341.87261962890625 -41.3376502990722656 14.1754465103149414 273 1644759360.30946255 0.999500453472137451 0.0286604445427656174 -0.0127974348142743111 -0.00369442743249237537
351.32977294921875 -41.0753631591796875 14.0117712020874023 274 1644759362.30952501 0.999840319156646729 0.00431054690852761269 -0.00967712420970201492 -0.0143930539488792419
362.135345458984375 -41.5393905639648438 13.7828092575073242 275 1644759364.31051111 0.9987221360206604 -0.0364327244460582733 -0.0127335470169782639 -0.032629113644361496
371.307769775390625 -43.7768478393554688 13.501072883605957 276 1644759366.10885167 0.974692285060882568 -0.222062289714813232 -0.0203620847314596176 -0.01576988585293293
376.5472412109375 -48.0475196838378906 13.0806846618652344 277 1644759367.6074245 0.921259880065917969 -0.385126322507858276 -0.0273904874920845032 -0.0469864346086978912
378.93194580078125 -52.2035713195800781 12.6564674377441406 278 1644759368.90878367 0.836513519287109375 -0.544753730297088623 -0.0342436656355857849 -0.0481231249868869781
378.966644287109375 -54.7295150756835938 12.472041130065918 279 1644759369.8086524 0.716533422470092773 -0.695319294929504395 9.47622538660652936e-05 -0.0557755641639232635
378.1243896484375 -56.8830528259277344 12.2680091857910156 280 1644759370.7073245 0.575886070728302002 -0.816026091575622559 -0.013213244266808033 -0.0477702952921390533
375.82098388671875 -61.698974609375 11.787602424621582 281 1644759372.70869017 0.527826845645904541 -0.847461104393005371 -0.0035757310688495636 -0.0565304197371006012
372.4925537109375 -68.2069778442382812 11.0755167007446289 282 1644759374.70997381 0.508797585964202881 -0.858989238739013672 -0.00237228651531040668 -0.0570688843727111816
368.19708251953125 -75.4767227172851562 10.2430076599121094 283 1644759376.80809879 0.486942261457443237 -0.87143254280090332 0.00772719178348779678 -0.0585904903709888458
364.275970458984375 -82.2308197021484375 9.61903572082519531 284 1644759378.81147099 0.485368847846984863 -0.873054802417755127 0.0026690035592764616 -0.0467473044991493225
360.38165283203125 -87.974700927734375 9.35893917083740234 285 1644759380.90977526 0.453959405422210693 -0.889567434787750244 -0.000189928468898870051 -0.050898432731628418
356.776580810546875 -92.69989013671875 8.87474250793457031 286 1644759382.91129422 0.452107727527618408 -0.890149414539337158 0.0118780527263879776 -0.055601462721824646
353.28863525390625 -98.2008743286132812 8.45778560638427734 287 1644759385.01128316 0.460410267114639282 -0.886646270751953125 0.0128459259867668152 -0.0414216592907905579
347.99249267578125 -103.807876586914062 7.57180118560791016 288 1644759387.11262369 0.37972557544708252 -0.923754036426544189 0.0114529775455594063 -0.0485370978713035583
342.790924072265625 -109.227767944335938 6.96691274642944336 289 1644759389.11387873 0.398870497941970825 -0.91600722074508667 -0.0105617986992001534 -0.0414910763502120972
337.95684814453125 -114.871871948242188 6.40048027038574219 290 1644759391.21378255 0.396292716264724731 -0.917046725749969482 0.0108865536749362946 -0.0431150905787944794
332.342498779296875 -120.067024230957031 5.78847599029541016 291 1644759393.31293225 0.370147258043289185 -0.927718162536621094 0.0106356441974639893 -0.0470839031040668488
328.023773193359375 -125.515266418457031 5.35359001159667969 292 1644759395.31481719 0.506192505359649658 -0.860373198986053467 0.0332892909646034241 -0.0491823442280292511
323.597991943359375 -131.69903564453125 4.86698770523071289 293 1644759397.41098547 0.388796746730804443 -0.919951558113098145 0.0204273350536823273 -0.0459230430424213409
320.261077880859375 -133.779647827148438 4.49868154525756836 294 1644759398.70951056 0.187899485230445862 -0.980758726596832275 -0.00437640305608510971 -0.052791401743888855
318.485504150390625 -133.574951171875 4.33655834197998047 295 1644759399.41297579 0.00296228076331317425 -0.998690664768218994 -0.00391329545527696609 -0.050920434296131134
314.572509765625 -137.765121459960938 3.99117708206176758 296 1644759401.51223111 0.473999351263046265 -0.878903806209564209 0.0238146055489778519 -0.0478074513375759125
310.1412353515625 -144.193939208984375 3.55585336685180664 297 1644759403.61016202 0.474695384502410889 -0.87890094518661499 0.0213251803070306778 -0.041745457798242569
305.49798583984375 -151.055587768554688 3.09846663475036621 298 1644759405.61110258 0.459298372268676758 -0.887124538421630859 0.0134884091094136238 -0.0432796888053417206
301.065277099609375 -157.777084350585938 2.64960503578186035 299 1644759407.61110473 0.470160543918609619 -0.881777286529541016 0.00505559751763939857 -0.0373143069446086884
296.2943115234375 -164.108139038085938 2.2022700309753418 300 1644759409.61213875 0.445433169603347778 -0.894458353519439697 0.0134398546069860458 -0.0367827340960502625
290.538238525390625 -170.421539306640625 1.69457161426544189 301 1644759411.71141434 0.362510710954666138 -0.931290328502655029 0.00186940073035657406 -0.0357878431677818298
283.40362548828125 -176.398696899414062 1.07969152927398682 302 1644759413.71270394 0.341844916343688965 -0.938970506191253662 0.00185215391684323549 -0.038379225879907608
275.926727294921875 -182.696182250976562 0.555801272392272949 303 1644759415.80800509 0.342805951833724976 -0.938814938068389893 0.00945864245295524597 -0.0319554023444652557
268.97467041015625 -188.356658935546875 0.0600754320621490479 304 1644759417.81362629 0.338130205869674683 -0.94055640697479248 0.018276778981089592 -0.0262221414595842361
261.770599365234375 -194.226959228515625 -0.238534644246101379 305 1644759419.9072628 0.323290467262268066 -0.946039497852325439 0.0169919654726982117 -0.0142752211540937424
254.172866821289062 -200.350051879882812 -0.483557999134063721 306 1644759421.90887594 0.338132739067077637 -0.940859317779541016 0.0142183424904942513 -0.0157430358231067657
246.296096801757812 -207.121231079101562 -0.705714106559753418 307 1644759423.90963435 0.34217563271522522 -0.939358413219451904 0.0153325451537966728 -0.0169275905936956406
236.6505126953125 -215.016632080078125 -0.963367581367492676 308 1644759426.01019382 0.341450214385986328 -0.939614713191986084 0.0162404961884021759 -0.0164996441453695297
226.927490234375 -222.896896362304688 -1.19265592098236084 309 1644759428.10873151 0.334978669881820679 -0.941888868808746338 0.0163831394165754318 -0.0191366467624902725
217.569305419921875 -230.483734130859375 -1.37881207466125488 310 1644759430.11046004 0.338345259428024292 -0.940747737884521484 0.0163865089416503906 -0.0157376751303672791
207.839736938476562 -238.49017333984375 -1.54548311233520508 311 1644759432.2109592 0.334314674139022827 -0.942109405994415283 0.0192705728113651276 -0.0170953609049320221
198.679977416992188 -245.94403076171875 -1.66725993156433105 312 1644759434.31176162 0.334015309810638428 -0.942199110984802246 0.0184739567339420319 -0.0187959671020507812
190.167373657226562 -251.293075561523438 -1.79914653301239014 313 1644759436.40886354 0.221196919679641724 -0.975037574768066406 0.016057899221777916 -0.0107624921947717667
180.977279663085938 -254.728851318359375 -1.99885284900665283 314 1644759438.41198301 0.145359665155410767 -0.98931509256362915 0.00795085541903972626 -0.00793985556811094284
170.975784301757812 -256.7037353515625 -2.22912263870239258 315 1644759440.50550842 0.0624900944530963898 -0.997883796691894531 0.00885319430381059647 -0.0156384911388158798
160.970901489257812 -256.866455078125 -2.38401985168457031 316 1644759442.50710726 -0.0314090996980667114 -0.999473631381988525 0.00721264025196433067 -0.00373350409790873528
150.670272827148438 -255.548568725585938 -2.41007447242736816 317 1644759444.6110127 -0.0604288019239902496 -0.998086214065551758 0.0125818774104118347 0.00374344433657824993
140.148101806640625 -254.409332275390625 -2.28712725639343262 318 1644759446.70540738 -0.0719464272260665894 -0.996959984302520752 0.0208483580499887466 0.0214436743408441544
130.182937622070312 -253.335433959960938 -2.05653619766235352 319 1644759448.70630383 -0.0450877770781517029 -0.998815596103668213 0.014034702442586422 0.0117261121049523354
120.556663513183594 -252.39373779296875 -1.68573391437530518 320 1644759450.70665932 -0.0541268512606620789 -0.998206019401550293 0.0131647204980254173 0.0219475105404853821
111.044029235839844 -251.414962768554688 -1.18893086910247803 321 1644759452.70716715 -0.0543693900108337402 -0.997870981693267822 0.00762018980458378792 0.0352043993771076202
101.262252807617188 -250.452041625976562 -0.541534781455993652 322 1644759454.70762634 -0.0504610426723957062 -0.997951209545135498 0.00947563257068395615 0.0381745882332324982
91.2086410522460938 -249.2052001953125 0.156843826174736023 323 1644759456.806988 -0.0732325911521911621 -0.996203303337097168 0.0147036211565136909 0.0447183363139629364
81.5074005126953125 -248.061798095703125 0.728351175785064697 324 1644759458.80876255 -0.0488164797425270081 -0.998616456985473633 0.00965882278978824615 0.0169959757477045059
72.2202377319335938 -247.367477416992188 1.46486425399780273 325 1644759460.90733075 -0.043786756694316864 -0.997979164123535156 0.0105882976204156876 0.0448130145668983459
63.5014305114746094 -246.454681396484375 2.09619355201721191 326 1644759462.90829515 -0.0792070180177688599 -0.996214687824249268 -0.00449537951499223709 0.0355299562215805054
56.6281051635742188 -244.149810791015625 2.58244943618774414 327 1644759465.00686836 -0.209518924355506897 -0.976829469203948975 0.00638976180925965309 0.043188195675611496
49.7715034484863281 -240.736785888671875 3.09801173210144043 328 1644759467.0080502 -0.249319493770599365 -0.967891454696655273 -0.0013823717599734664 0.0320008806884288788
42.9593391418457031 -236.626434326171875 3.78339362144470215 329 1644759469.00875854 -0.282576024532318115 -0.958046257495880127 -0.00621757097542285919 0.0475345365703105927
36.7642631530761719 -231.78662109375 4.44539880752563477 330 1644759471.01013947 -0.368582636117935181 -0.9285011887550354 -0.011392238549888134 0.0436183363199234009
31.8174877166748047 -225.262420654296875 5.06474828720092773 331 1644759473.11151052 -0.464494824409484863 -0.884416818618774414 -0.00636800797656178474 0.0448426008224487305
27.3550624847412109 -218.93896484375 5.56470012664794922 332 1644759475.21212316 -0.468593895435333252 -0.882408559322357178 -0.013498576357960701 0.0399080589413642883
22.8350620269775391 -212.20257568359375 6.06716680526733398 333 1644759477.31563187 -0.472260802984237671 -0.880731165409088135 -0.0118126105517148972 0.0338057950139045715
18.1090564727783203 -205.4486083984375 6.61247110366821289 334 1644759479.41364956 -0.465967565774917603 -0.883981823921203613 -0.00451767351478338242 0.0378154292702674866
14.5187530517578125 -199.533950805664062 7.13110589981079102 335 1644759481.41500473 -0.565262913703918457 -0.823547124862670898 -0.0144711695611476898 0.0451503507792949677
11.5011997222900391 -196.048065185546875 7.2557826042175293 336 1644759483.41488385 -0.296526581048965454 -0.95444488525390625 -0.028209315612912178 0.0176416076719760895
9.0769805908203125 -192.070846557617188 7.59922075271606445 337 1644759485.51341772 -0.576273024082183838 -0.816678881645202637 -0.00420239241793751717 0.0304523352533578873
9.23779201507568359 -189.811676025390625 7.67080593109130859 338 1644759486.31157756 -0.724571645259857178 -0.688670873641967773 0.00228797970339655876 0.0268899183720350266
10.1643610000610352 -187.8826904296875 7.64932155609130859 339 1644759487.01123118 -0.836208581924438477 -0.547942161560058594 0.0144909834489226341 0.0174529850482940674
12.2841863632202148 -185.614303588867188 7.47766351699829102 340 1644759487.91220522 -0.92132723331451416 -0.387288331985473633 0.0341076478362083435 -0.000747036945540457964
18.5482902526855469 -181.797271728515625 7.05088615417480469 341 1644759489.91232967 -0.966947972774505615 -0.250069737434387207 0.0460162945091724396 -0.0189551599323749542
26.2650318145751953 -177.225601196289062 6.59687519073486328 342 1644759492.01445198 -0.961166679859161377 -0.273723244667053223 0.0343909338116645813 -0.00717552425339818001
36.0819435119628906 -170.244247436523438 5.39253425598144531 343 1644759494.0151422 -0.947632551193237305 -0.315088868141174316 0.0368388332426548004 -0.036803022027015686
47.9372215270996094 -161.970703125 3.9195094108581543 344 1644759496.10731411 -0.958887100219726562 -0.28006860613822937 0.0328328758478164673 -0.0319233722984790802
59.5763511657714844 -155.545852661132812 2.92743015289306641 345 1644759498.11094689 -0.962301313877105713 -0.270992249250411987 0.0181109122931957245 -0.014540565200150013
71.5942840576171875 -145.540634155273438 1.79251468181610107 346 1644759500.20622182 -0.933996856212615967 -0.35491141676902771 0.0308065470308065414 -0.0271782111376523972
82.0809097290039062 -133.929550170898438 1.0323333740234375 347 1644759502.30646586 -0.88993304967880249 -0.455615878105163574 0.0107223475351929665 -0.0178431998938322067
89.1886672973632812 -121.066673278808594 0.732507705688476562 348 1644759504.40598416 -0.83789902925491333 -0.545677423477172852 -0.00159560597967356443 -0.0126044107601046562
92.5810012817382812 -109.044548034667969 0.816195070743560791 349 1644759506.40660381 -0.77125626802444458 -0.636359632015228271 -0.0132874175906181335 -0.00579554494470357895
94.2838516235351562 -96.399627685546875 1.24425244331359863 350 1644759508.50494838 -0.741683602333068848 -0.670576572418212891 -0.0146303474903106689 0.00429357634857296944
95.1473464965820312 -84.2669525146484375 1.76732325553894043 351 1644759510.50540304 -0.738539159297943115 -0.673219501972198486 -0.0328539907932281494 0.01599876768887043
97.0555038452148438 -71.92767333984375 2.52207636833190918 352 1644759512.60451841 -0.763160049915313721 -0.644997715950012207 -0.0391135662794113159 0.00590201234444975853
98.7509536743164062 -60.32489013671875 3.33204150199890137 353 1644759514.60497737 -0.748493671417236328 -0.661763668060302734 -0.0406299903988838196 0.013240487314760685
100.111434936523438 -48.0639076232910156 4.28645086288452148 354 1644759516.70267797 -0.755019068717956543 -0.653842568397521973 -0.0477706901729106903 0.012411569245159626
101.773628234863281 -36.59832763671875 5.27700567245483398 355 1644759518.70388556 -0.757570326328277588 -0.650870978832244873 -0.0473889671266078949 0.0144373420625925064
103.613594055175781 -25.3228931427001953 6.27343463897705078 356 1644759520.70486331 -0.765224099159240723 -0.641769230365753174 -0.0453192777931690216 0.0225937440991401672
104.592155456542969 -16.0571918487548828 7.01577472686767578 357 1644759522.70635319 -0.729835391044616699 -0.682164251804351807 -0.0433721952140331268 0.0105406502261757851
103.854789733886719 -11.2572946548461914 7.36158037185668945 358 1644759524.00770497 -0.578894317150115967 -0.814043104648590088 -0.0440696477890014648 0.0165237840265035629
102.026756286621094 -9.14987564086914062 7.47283554077148438 359 1644759524.70820355 -0.409403443336486816 -0.911332428455352783 -0.0420491211116313934 0.00969070661813020706
99.45660400390625 -7.73705911636352539 7.48896121978759766 360 1644759525.41046095 -0.241280317306518555 -0.969529092311859131 -0.042336784303188324 -0.00218897266313433647
90.653961181640625 -3.79134082794189453 6.7548365592956543 361 1644759527.50507355 -0.372861146926879883 -0.927460610866546631 -0.00800403859466314316 -0.0269681178033351898
89.45489501953125 -1.30889511108398438 6.7238774299621582 362 1644759528.10593843 -0.550639092922210693 -0.83457183837890625 -0.0104470457881689072 -0.0133122745901346207
90.7363128662109375 7.37556552886962891 6.83028316497802734 363 1644759530.20388627 -0.794355511665344238 -0.607260167598724365 0.00610251352190971375 0.0140422023832798004
88.9529800415039062 14.5776815414428711 6.94777584075927734 364 1644759532.20615649 -0.398510098457336426 -0.916875958442687988 0.0189628545194864273 0.0129831628873944283
80.1725311279296875 16.5238189697265625 6.85031795501708984 365 1644759534.30292201 -0.0343434624373912811 -0.999400198459625244 0.00382734788581728935 -0.00225272681564092636
70.0512771606445312 16.0604457855224609 6.72016191482543945 366 1644759536.30412722 0.136978417634963989 -0.990364253520965576 0.013949771411716938 -0.0148630347102880478
67.9715347290039062 14.6441335678100586 6.66176176071166992 367 1644759536.80415487 0.309179425239562988 -0.95055234432220459 0.0149935493245720863 -0.0251689348369836807
66.6808853149414062 12.6062078475952148 6.62769699096679688 368 1644759537.30368042 0.477669507265090942 -0.878345608711242676 0.0122765796259045601 -0.0137865906581282616
62.5227279663085938 3.72268009185791016 6.5397191047668457 369 1644759539.30562258 0.480455785989761353 -0.876833856105804443 -0.017579253762960434 0.00394701678305864334
59.0160102844238281 0.467047184705734253 6.46819782257080078 370 1644759540.20489955 0.306034862995147705 -0.951709508895874023 -0.0242647416889667511 -0.00168715452309697866
48.0904273986816406 -1.06740736961364746 6.45108461380004883 371 1644759542.30256367 -0.0355976149439811707 -0.999229967594146729 -0.0160699095577001572 0.0037508432287722826
40.9755439758300781 -0.143528863787651062 6.50290632247924805 372 1644759543.80538607 -0.075649067759513855 -0.997037112712860107 -0.0135005265474319458 0.00344917899928987026
30.6964282989501953 1.62237691879272461 6.59806728363037109 373 1644759545.90502095 -0.0904554873704910278 -0.995727002620697021 -0.0156403481960296631 0.0100485729053616524
20.6804924011230469 3.54493069648742676 6.70223760604858398 374 1644759547.90654421 -0.0903047099709510803 -0.995815098285675049 -0.00791288726031780243 -0.0116075789555907249
12.3600883483886719 4.23804855346679688 6.71114158630371094 375 1644759549.90685463 -0.00506202783435583115 -0.999898731708526611 -0.0132811674848198891 0.000697887793648988008
3.52842807769775391 4.58809995651245117 6.66758251190185547 376 1644759552.00632429 -0.0374718345701694489 -0.99914240837097168 -0.0173685122281312943 -0.00293408194556832314
-2.7388606071472168 5.20792150497436523 6.60217046737670898 377 1644759554.10749531 -0.0612618625164031982 -0.997828125953674316 -0.0186836700886487961 -0.0153922773897647858
-2.97380423545837402 5.24421358108520508 6.60087156295776367 378 1644759556.20788932 -0.063230857253074646 -0.997799932956695557 -0.0171158462762832642 -0.0102081140503287315
