# .PCD v0.7 - Point Cloud Data file format
VERSION 0.7
FIELDS x y z intensity t qx qy qz qw
SIZE 4 4 4 4 8 4 4 4 4
TYPE F F F F F F F F F
COUNT 1 1 1 1 1 1 1 1 1
WIDTH 526
HEIGHT 1
VIEWPOINT 0 0 0 1 0 0 0
POINTS 526
DATA ascii
0.176298245787620544 1.38037443161010742 4.73649740219116211 0 1644823132.09111714 0.99997556209564209 -0.00265209609642624855 -0.00235672085545957088 -0.00602679559960961342
0.349852979183197021 1.39614653587341309 4.76276063919067383 1 1644823136.49082184 0.999931216239929199 0.00181922200135886669 0.0102684954181313515 -0.0053705461323261261
2.79262018203735352 2.24303460121154785 4.76969623565673828 2 1644823137.68994617 0.980822145938873291 0.193195343017578125 0.00391973135992884636 -0.0254580806940793991
4.14729833602905273 3.74016618728637695 4.81476879119873047 3 1644823138.29563618 0.918829858303070068 0.393426269292831421 -0.000436866364907473326 -0.0311009064316749573
4.73290061950683594 5.51968479156494141 4.8432612419128418 4 1644823138.79751396 0.832662642002105713 0.553357601165771484 -0.000716848415322601795 -0.0216277483850717545
4.85672378540039062 9.00705432891845703 4.92758607864379883 5 1644823139.69605136 0.720178663730621338 0.693602263927459717 0.0132132042199373245 -0.00916850194334983826
4.87798547744750977 14.034388542175293 4.97570085525512695 6 1644823140.89160228 0.721676945686340332 0.692126750946044922 0.00953153707087039948 0.00721512921154499054
5.84396696090698242 19.0495033264160156 4.96804904937744141 7 1644823142.09267449 0.792714178562164307 0.609456479549407959 0.00873847585171461105 0.00951953325420618057
8.11844730377197266 23.6083641052246094 4.92752504348754883 8 1644823143.39323354 0.892912507057189941 0.449838787317276001 -0.00297079142183065414 0.0185341108590364456
13.182276725769043 24.7502937316894531 4.90042638778686523 9 1644823144.8898139 0.999478638172149658 0.0295276697725057602 -0.00556233339011669159 -0.011814226396381855
18.4018707275390625 23.9568939208984375 4.89839315414428711 10 1644823146.49003482 0.996953368186950684 -0.0763893947005271912 -0.00249094190075993538 -0.0155695583671331406
23.7216987609863281 23.2435245513916016 4.88007354736328125 11 1644823147.88989162 0.998388350009918213 -0.0544380135834217072 0.0106084486469626427 -0.0120296133682131767
28.7686691284179688 22.8655681610107422 4.89859294891357422 12 1644823148.98997021 0.999297916889190674 -0.033514171838760376 0.00127333216369152069 -0.0166995301842689514
33.988861083984375 22.5447292327880859 4.90298986434936523 13 1644823150.08955908 0.999374687671661377 -0.0332747995853424072 0.00459081260487437248 -0.0110439080744981766
39.0515785217285156 22.1827526092529297 4.91311454772949219 14 1644823151.08960772 0.99921947717666626 -0.037538137286901474 -0.00250483187846839428 -0.0120459152385592461
44.1996269226074219 21.7835807800292969 4.92346048355102539 15 1644823152.19138932 0.999116241931915283 -0.0403683669865131378 0.000518672168254852295 -0.0116999587044119835
49.3586311340332031 21.3225116729736328 4.94994592666625977 16 1644823153.3909409 0.998832583427429199 -0.0461680665612220764 0.00200543808750808239 -0.014070325531065464
54.3804435729980469 20.7572402954101562 4.95917654037475586 17 1644823154.49259496 0.998025000095367432 -0.0608166232705116272 0.00365571142174303532 -0.0152980415150523186
59.3698043823242188 20.0377178192138672 5.05920839309692383 18 1644823155.59354687 0.997232317924499512 -0.068590015172958374 0.00707586435601115227 -0.0278047677129507065
64.3383331298828125 19.0383186340332031 5.20287656784057617 19 1644823156.89174247 0.984714150428771973 -0.173325315117835999 0.0165888015180826187 0.00460562668740749359
66.2323760986328125 17.3831348419189453 5.2020268440246582 20 1644823157.59120178 0.931743144989013672 -0.362926959991455078 -0.00938116759061813354 0.007125114556401968
67.1484603881835938 15.3472557067871094 5.20676231384277344 21 1644823158.19226313 0.84363090991973877 -0.536667883396148682 -0.0151801072061061859 0.00663842307403683662
68.4498138427734375 10.303471565246582 5.12030410766601562 22 1644823159.59191298 0.847224652767181396 -0.530817866325378418 0.00650002947077155113 -0.0200143959373235703
72.4873275756835938 7.28929042816162109 5.10995197296142578 23 1644823160.79213691 0.964113414287567139 -0.264922082424163818 0.00895514991134405136 -0.0148804113268852234
77.4660415649414062 5.87009096145629883 5.17249488830566406 24 1644823161.89338112 0.993318676948547363 -0.115395665168762207 0.000348149507772177458 0.00129585596732795238
82.65185546875 5.13811492919921875 5.35409355163574219 25 1644823163.19497418 0.99776226282119751 -0.0513606220483779907 0.0410960838198661804 -0.0119855105876922607
87.8846511840820312 4.73640871047973633 5.32811832427978516 26 1644823164.69375467 0.998417437076568604 -0.0550495684146881104 0.00865289010107517242 0.00756931537762284279
92.6460723876953125 2.55280041694641113 5.37494754791259766 27 1644823166.29550624 0.946414768695831299 -0.322897255420684814 -0.00114324688911437988 -0.0059307529591023922
93.248321533203125 -0.595432937145233154 5.28499126434326172 28 1644823167.39550948 0.71557694673538208 -0.698273181915283203 -0.0186001211404800415 -0.00426582759246230125
92.5345382690429688 -1.55092346668243408 5.27244758605957031 29 1644823167.79373717 0.56008833646774292 -0.828067481517791748 -0.0223696157336235046 -0.0102411750704050064
91.5002670288085938 -2.15741753578186035 5.22926044464111328 30 1644823168.19491696 0.365185409784317017 -0.93014371395111084 -0.0339645110070705414 -0.0178521107882261276
90.297393798828125 -2.3104710578918457 5.21338415145874023 31 1644823168.59377289 0.1768769770860672 -0.98367011547088623 -0.0308735352009534836 -0.0124290529638528824
86.9905166625976562 -2.19517874717712402 5.17829322814941406 32 1644823169.49439096 -0.0084690311923623085 -0.999827265739440918 -0.0160167496651411057 -0.00413882685825228691
81.774658203125 -1.93737268447875977 5.12008285522460938 33 1644823170.59460378 -0.0193733405321836472 -0.999751567840576172 -0.0109775597229599953 -0.000969058426562696695
76.4119949340820312 -1.6795271635055542 5.03896427154541016 34 1644823171.59568954 -0.0422274023294448853 -0.998939692974090576 -0.0182696431875228882 -0.0016117575578391552
72.243927001953125 -0.316562473773956299 4.99645471572875977 35 1644823172.49442077 -0.238123610615730286 -0.970554351806640625 -0.0323545001447200775 -0.0165706053376197815
70.4155197143554688 1.73134243488311768 4.98168230056762695 36 1644823173.09442663 -0.4273853600025177 -0.903391718864440918 -0.0272250529378652573 -0.0219989977777004242
69.30401611328125 4.84385013580322266 5.06374502182006836 37 1644823173.8962214 -0.580022275447845459 -0.814173221588134766 -0.0262746494263410568 0.00240060454234480858
68.2833251953125 13.3606109619140625 5.16224193572998047 38 1644823175.89660573 -0.690679728984832764 -0.723078668117523193 -0.00300533976405858994 0.0104747619479894638
69.49407958984375 21.7105808258056641 5.2227325439453125 39 1644823177.39741874 -0.808146774768829346 -0.588957488536834717 -0.0016155727207660675 -0.00502380635589361191
71.8035507202148438 26.7819309234619141 5.25825119018554688 40 1644823178.29656196 -0.846637070178985596 -0.532153129577636719 -0.00432763062417507172 -0.0001005702288239263
74.376556396484375 31.5456447601318359 5.26502037048339844 41 1644823179.29512429 -0.886565327644348145 -0.462307244539260864 -0.00310933752916753292 -0.01625775545835495
76.2288894653320312 32.9100761413574219 5.25584745407104492 42 1644823179.79845738 -0.957504570484161377 -0.285451143980026245 -0.00227427436038851738 -0.0412004478275775909
81.5516891479492188 32.9577827453613281 5.33508682250976562 43 1644823181.09859467 -0.999452888965606689 0.0318870581686496735 -0.00669222930446267128 -0.00568371405825018883
86.9258499145507812 32.2993392944335938 5.39704084396362305 44 1644823182.19786263 -0.998005568981170654 0.0628846734762191772 -0.00540491146966814995 0.00111260986886918545
92.2278976440429688 31.5037918090820312 5.45914888381958008 45 1644823183.29528284 -0.992443442344665527 0.121400900185108185 -0.00263625918887555599 -0.0176307652145624161
95.563446044921875 28.1291599273681641 5.51388788223266602 46 1644823184.3971839 -0.86608576774597168 0.499603182077407837 0.0130965085700154305 -0.0109821595251560211
95.9395828247070312 25.7880382537841797 5.49114513397216797 47 1644823184.9963336 -0.762919068336486816 0.64618682861328125 0.0191393494606018066 -0.00555291306227445602
95.588623046875 20.3664169311523438 5.44959878921508789 48 1644823186.29286027 -0.686235129833221436 0.72736591100692749 0.00436675595119595528 0.00105199671816080809
95.5522384643554688 15.1636362075805664 5.42134714126586914 49 1644823187.29495692 -0.713074922561645508 0.70108407735824585 0.00184260692913085222 0.00138942268677055836
96.5583648681640625 10.2238578796386719 5.36855459213256836 50 1644823188.29581594 -0.812401890754699707 0.583003878593444824 -0.00187259900849312544 0.010303121991455555
99.8129730224609375 6.09321165084838867 5.5462651252746582 51 1644823189.492208 -0.924808740615844727 0.378734886646270752 -0.0322291366755962372 -0.0158116947859525681
104.474891662597656 3.49599337577819824 6.08289480209350586 52 1644823190.89408994 -0.980931282043457031 0.183418259024620056 -0.0610026493668556213 0.020253816619515419
109.275863647460938 1.97932052612304688 6.27445030212402344 53 1644823192.29208374 -0.989856481552124023 0.128450572490692139 -0.00811124313622713089 0.0601567365229129791
113.909889221191406 0.0644417181611061096 6.29441452026367188 54 1644823193.79078388 -0.968303203582763672 0.245994120836257935 -0.00373631366528570652 0.043149065226316452
116.350830078125 -4.6586613655090332 5.94847393035888672 55 1644823195.28974986 -0.775893270969390869 0.629023313522338867 0.0363777615129947662 0.0315579213201999664
116.284461975097656 -9.86700248718261719 5.50211238861083984 56 1644823196.29101682 -0.697011232376098633 0.716018438339233398 0.0298467036336660385 0.024538649246096611
116.017646789550781 -15.0921421051025391 5.07885169982910156 57 1644823197.08969712 -0.685761213302612305 0.726785540580749512 0.0271591134369373322 0.0278692636638879776
115.778221130371094 -20.1109333038330078 4.69090938568115234 58 1644823197.79096794 -0.689611732959747314 0.723142385482788086 0.0254142209887504578 0.0292389430105686188
115.485282897949219 -25.3010005950927734 4.3202662467956543 59 1644823198.49081898 -0.677026212215423584 0.735254526138305664 0.0193756259977817535 0.0257086008787155151
115.012275695800781 -30.5826225280761719 3.92149710655212402 60 1644823199.19053459 -0.669788718223571777 0.741712629795074463 0.026543768122792244 0.0232557319104671478
114.456733703613281 -35.9334831237792969 3.51597237586975098 61 1644823199.89012933 -0.669055759906768799 0.742725491523742676 0.0222934894263744354 0.0150418588891625404
114.021392822265625 -41.4082489013671875 3.11576008796691895 62 1644823200.59077525 -0.68013608455657959 0.7323189377784729 0.0270502083003520966 0.0198036562651395798
113.730781555175781 -46.9725990295410156 2.73400712013244629 63 1644823201.2900269 -0.688141942024230957 0.724791824817657471 0.0283665917813777924 0.0182438325136899948
113.374504089355469 -52.5741043090820312 2.42324018478393555 64 1644823201.99154496 -0.678563237190246582 0.733905255794525146 0.0259833689779043198 0.0161213520914316177
112.881866455078125 -58.1909942626953125 2.14646816253662109 65 1644823202.69274974 -0.67360532283782959 0.738364279270172119 0.0210638158023357391 0.0251080431044101715
112.367744445800781 -63.7545623779296875 1.89387106895446777 66 1644823203.39089203 -0.67301332950592041 0.739081323146820068 0.00846807379275560379 0.027205517515540123
111.929244995117188 -69.3721389770507812 1.6221386194229126 67 1644823204.09096932 -0.679573357105255127 0.7331581711769104 0.00991776864975690842 0.0236808415502309799
111.526336669921875 -74.992340087890625 1.31773614883422852 68 1644823204.79097843 -0.678998291492462158 0.733346819877624512 0.0181407220661640167 0.0288906022906303406
111.174301147460938 -80.581634521484375 1.06042027473449707 69 1644823205.49093032 -0.682658612728118896 0.730646193027496338 0.00695000356063246727 0.00922202412039041519
110.88055419921875 -86.2155838012695312 0.918080329895019531 70 1644823206.1943469 -0.684767961502075195 0.728552579879760742 0.0163754615932703018 0.00598460482433438301
110.554710388183594 -91.6924667358398438 0.807392477989196777 71 1644823206.89071417 -0.67834705114364624 0.734519302845001221 0.0177830308675765991 -0.00323333614505827427
109.944671630859375 -97.0593032836914062 0.701159954071044922 72 1644823207.59115553 -0.658425986766815186 0.752403140068054199 0.0159502234309911728 -0.0105025209486484528
109.276481628417969 -102.289627075195312 0.715248405933380127 73 1644823208.29070234 -0.662872612476348877 0.748709917068481445 0.00577144650742411613 0.000202169045223854482
108.470695495605469 -107.497001647949219 0.790598571300506592 74 1644823208.99124312 -0.638645172119140625 0.769461691379547119 -0.00717237917706370354 -0.00309651088900864124
107.165992736816406 -112.776908874511719 0.909599840641021729 75 1644823209.69483423 -0.603805363178253174 0.7970084547996521 -0.0135307405143976212 -0.00368094304576516151
105.350959777832031 -118.021682739257812 1.03375983238220215 76 1644823210.39183545 -0.565734982490539551 0.824384987354278564 -0.0173286590725183487 -0.00574927777051925659
103.09039306640625 -123.128662109375 1.21811342239379883 77 1644823211.09285283 -0.534165918827056885 0.845002174377441406 -0.0223399307578802109 -0.0117914304137229919
100.601882934570312 -127.928932189941406 1.42249143123626709 78 1644823211.79222131 -0.506717264652252197 0.861846804618835449 -0.0194837171584367752 -0.00883800536394119263
97.9353866577148438 -132.243362426757812 1.66903185844421387 79 1644823212.49437928 -0.478831678628921509 0.877438902854919434 -0.0228874757885932922 -0.0172428358346223831
94.6360549926757812 -136.709396362304688 1.96831369400024414 80 1644823213.29392457 -0.432227998971939087 0.901160478591918945 -0.0254854317754507065 -0.0209571179002523422
91.1526107788085938 -140.626068115234375 2.28661489486694336 81 1644823214.09169245 -0.395968377590179443 0.917529881000518799 -0.0299287587404251099 -0.0212655980139970779
87.5742263793945312 -144.148117065429688 2.59487748146057129 82 1644823214.89203072 -0.367080748081207275 0.929493367671966553 -0.0259965937584638596 -0.0248587075620889664
83.6623306274414062 -147.466323852539062 2.97832202911376953 83 1644823215.79169345 -0.334236413240432739 0.941351175308227539 -0.0296329129487276077 -0.0355785973370075226
79.5529403686523438 -150.611114501953125 3.34791445732116699 84 1644823216.69280767 -0.318208307027816772 0.947103559970855713 -0.0299140661954879761 -0.0290425103157758713
75.2659072875976562 -153.825485229492188 3.72769689559936523 85 1644823217.69544506 -0.31500774621963501 0.948183715343475342 -0.0300591476261615753 -0.0285349804908037186
71.16241455078125 -156.804946899414062 4.09655857086181641 86 1644823218.6947813 -0.305685967206954956 0.951124668121337891 -0.0319542810320854187 -0.0299477577209472656
66.838653564453125 -159.836563110351562 4.50942373275756836 87 1644823219.79399371 -0.300763159990310669 0.95260697603225708 -0.0308563709259033203 -0.033606112003326416
62.6261634826660156 -162.780960083007812 4.90518856048583984 88 1644823220.79378009 -0.299110740423202515 0.953162550926208496 -0.0278243422508239746 -0.0352098420262336731
58.2067146301269531 -165.823074340820312 5.28195428848266602 89 1644823221.7952919 -0.288774281740188599 0.956564247608184814 -0.0204451438039541245 -0.034296918660402298
53.5954818725585938 -167.93719482421875 5.63318395614624023 90 1644823222.89427114 -0.179131433367729187 0.983121693134307861 -0.0301636122167110443 -0.0217683110386133194
48.3439445495605469 -168.446533203125 6.14353322982788086 91 1644823224.09570837 -0.0258101951330900192 0.998734533786773682 -0.0326290875673294067 -0.0282572433352470398
43.8130836486816406 -167.87261962890625 6.10830163955688477 92 1644823224.99582744 0.152898654341697693 0.987377941608428955 -0.0186572540551424026 -0.0368611589074134827
39.8716201782226562 -165.328277587890625 6.32263660430908203 93 1644823225.89844966 0.333740204572677612 0.942260086536407471 -0.00251831649802625179 -0.0275149289518594742
36.2732734680175781 -161.27764892578125 6.49569845199584961 94 1644823226.8947258 0.431749284267425537 0.901221513748168945 -0.0159758459776639938 -0.0337211154401302338
33.3251228332519531 -157.07855224609375 6.64903545379638672 95 1644823227.79399943 0.466179847717285156 0.883917927742004395 -0.0235525891184806824 -0.0284723863005638123
30.3708705902099609 -152.683807373046875 6.76583480834960938 96 1644823228.69427681 0.470966190099716187 0.881437897682189941 -0.0225984957069158554 -0.0273377839475870132
27.4927253723144531 -148.101333618164062 6.89269161224365234 97 1644823229.59484148 0.485751450061798096 0.873052000999450684 -0.031282961368560791 -0.0291052758693695068
24.8762130737304688 -143.724288940429688 7.10567045211791992 98 1644823230.59519529 0.516982316970825195 0.855775833129882812 -0.00175343954470008612 -0.0193369295448064804
23.1927471160888672 -138.90679931640625 7.12314176559448242 99 1644823231.59512448 0.610518574714660645 0.791965186595916748 -0.00582032464444637299 -0.00493439380079507828
23.0088424682617188 -133.806015014648438 7.01979494094848633 100 1644823232.49203515 0.731058657169342041 0.682253658771514893 -0.00600423617288470268 0.00686518941074609756
24.575469970703125 -129.183013916015625 6.88059711456298828 101 1644823233.2905395 0.850781381130218506 0.524874508380889893 -0.0107687683776021004 0.0237018093466758728
27.1120567321777344 -126.32244873046875 6.75331258773803711 102 1644823233.89769053 0.932115495204925537 0.359560281038284302 -0.00478336680680513382 0.0430604927241802216
32.03167724609375 -123.720291137695312 6.62069845199584961 103 1644823234.79239178 0.969102025032043457 0.246373802423477173 -0.0118485568091273308 -0.000936579657718539238
36.3598823547363281 -120.396408081054688 6.30414962768554688 104 1644823235.60110855 0.940981745719909668 0.336372524499893188 -0.0226221159100532532 0.0299192126840353012
40.6528091430664062 -116.648101806640625 5.81486606597900391 105 1644823236.39191103 0.93127816915512085 0.360410183668136597 -0.0423799715936183929 0.0320850014686584473
44.06549072265625 -112.888679504394531 5.32473230361938477 106 1644823237.09102035 0.905397355556488037 0.420745849609375 -0.0460310578346252441 0.0333116389811038971
47.1000480651855469 -108.738929748535156 4.8990321159362793 107 1644823237.79158592 0.892351448535919189 0.449458092451095581 -0.0188009534031152725 0.0366445668041706085
49.84466552734375 -104.520668029785156 4.62945079803466797 108 1644823238.49003649 0.864753007888793945 0.501627027988433838 -0.0196953341364860535 0.0135886818170547485
51.5825538635253906 -99.7141494750976562 4.43109750747680664 109 1644823239.19109225 0.796983301639556885 0.603868484497070312 -0.0114886658266186714 -0.00534282950684428215
52.383636474609375 -94.6026382446289062 4.37394809722900391 110 1644823239.89130259 0.748275279998779297 0.663376212120056152 -0.00377690047025680542 -0.00137950037606060505
52.7248725891113281 -89.3076171875 4.32098484039306641 111 1644823240.59552765 0.727672398090362549 0.685910165309906006 0.00378536689095199108 0.0024207776878029108
53.1909637451171875 -83.9104766845703125 4.30395936965942383 112 1644823241.2935009 0.746339678764343262 0.665551066398620605 0.00405216636136174202 0.0015446606557816267
53.9736747741699219 -78.4657135009765625 4.30058145523071289 113 1644823241.99132013 0.755463540554046631 0.655090034008026123 0.00292127858847379684 -0.0111054610460996628
54.821044921875 -72.9240493774414062 4.29488563537597656 114 1644823242.69035435 0.758054077625274658 0.652109265327453613 -0.00454841786995530128 -0.00932052917778491974
55.5361557006835938 -67.3709869384765625 4.33372783660888672 115 1644823243.39175129 0.747101724147796631 0.664407491683959961 -0.00186614436097443104 -0.0199553836137056351
55.9489593505859375 -61.7185554504394531 4.2941431999206543 116 1644823244.09246254 0.726484954357147217 0.687051117420196533 -0.00493284920230507851 -0.0124893812462687492
56.1034698486328125 -56.08837890625 4.32410240173339844 117 1644823244.79233575 0.726340591907501221 0.687157213687896729 0.0146116912364959717 0.00554324453696608543
56.3470039367675781 -50.5564308166503906 4.43784379959106445 118 1644823245.49391103 0.72714388370513916 0.686242997646331787 0.0175969414412975311 -0.00476026535034179688
56.6373367309570312 -45.1219215393066406 4.62561893463134766 119 1644823246.19023514 0.720177173614501953 0.693404078483581543 0.0165308341383934021 -0.0161966998130083084
56.5700836181640625 -39.8574295043945312 4.7878880500793457 120 1644823246.89055085 0.701669454574584961 0.712235927581787109 0.0172649230808019638 -0.00904986821115016937
56.3861503601074219 -34.2835197448730469 4.96993207931518555 121 1644823247.6902287 0.693703055381774902 0.720225095748901367 0.00471232552081346512 -0.00544931972399353981
55.3877143859863281 -29.2705211639404297 5.10980319976806641 122 1644823248.48966146 0.58237689733505249 0.812518537044525146 -0.0111684249714016914 -0.0229348354041576385
52.2026100158691406 -25.1509914398193359 5.1762852668762207 123 1644823249.391186 0.401770889759063721 0.915716767311096191 0.00628850376233458519 -0.00185095914639532566
49.2686805725097656 -20.9710140228271484 5.24952125549316406 124 1644823250.39035869 0.52269357442855835 0.852377772331237793 0.0154553493484854698 0.00216896436177194118
48.3739814758300781 -15.8289394378662109 5.2292022705078125 125 1644823251.38886189 0.671139419078826904 0.741322636604309082 -0.000831720943097025156 -0.00346310879103839397
48.5810928344726562 -10.522700309753418 5.1845550537109375 126 1644823252.29189706 0.735361456871032715 0.677656173706054688 -0.00491250120103359222 -0.00125491595827043056
49.2765922546386719 -5.02386999130249023 5.13652992248535156 127 1644823253.19097686 0.749152600765228271 0.662395834922790527 -0.00118177896365523338 0.000880887208040803671
49.5237693786621094 0.208917483687400818 5.08058357238769531 128 1644823254.09027147 0.710321366786956787 0.703800499439239502 -0.00614431966096162796 0.00840587075799703598
48.1992111206054688 5.19705820083618164 5.09580612182617188 129 1644823255.08985782 0.52306056022644043 0.851735413074493408 -0.0234516095370054245 -0.0201102830469608307
46.7560272216796875 6.53504562377929688 5.09593343734741211 130 1644823255.48988533 0.363438606262207031 0.930989265441894531 -0.0330064781010150909 -0.00905111897736787796
44.5833168029785156 7.33048868179321289 5.10282421112060547 131 1644823255.99072933 0.18893982470035553 0.981901109218597412 -0.0124342255294322968 0.00415814761072397232
39.1588249206542969 8.12567234039306641 5.11748933792114258 132 1644823257.18946791 0.0555458776652812958 0.998430907726287842 -0.00708995480090379715 -0.000374256575014442205
33.7647323608398438 8.74286365509033203 5.10161018371582031 133 1644823258.18949676 0.0582593232393264771 0.99821317195892334 -0.0121087431907653809 -0.00544566335156559944
28.4218635559082031 9.48646736145019531 5.12973260879516602 134 1644823259.08907628 0.0707441344857215881 0.997320055961608887 -0.0129530876874923706 -0.0134223746135830879
22.9987602233886719 10.2243280410766602 5.06868171691894531 135 1644823259.99142504 0.0648714601993560791 0.997868895530700684 -0.00681259483098983765 0.00171583506744354963
17.9675369262695312 11.174473762512207 5.02228164672851562 136 1644823260.89206862 0.0912935808300971985 0.995454132556915283 -0.0268266387283802032 -0.00410740496590733528
12.7467460632324219 12.1783924102783203 4.98096656799316406 137 1644823261.89233422 0.096152178943157196 0.995276212692260742 -0.013414556160569191 -0.000187849742360413074
6.49318933486938477 12.2026987075805664 5.00590229034423828 138 1644823263.19384789 -0.100500345230102539 0.99458545446395874 -0.0262225847691297531 0.00343897496350109577
4.53323745727539062 11.0240564346313477 4.93015909194946289 139 1644823263.6921258 -0.283660471439361572 0.958161354064941406 -0.0294107981026172638 0.0244645457714796066
3.5612335205078125 9.57109737396240234 4.90149211883544922 140 1644823264.09155297 -0.448810666799545288 0.892761886119842529 -0.0255193039774894714 0.0298987403512001038
3.25054192543029785 7.77225685119628906 4.84749603271484375 141 1644823264.49294877 -0.626226663589477539 0.777612030506134033 -0.0180018898099660873 0.0532500781118869781
3.70847439765930176 6.15123176574707031 4.81608724594116211 142 1644823264.89311481 -0.774374186992645264 0.630108058452606201 -0.0145043227821588516 0.0556601285934448242
4.77982950210571289 4.92948627471923828 4.83423519134521484 143 1644823265.29388499 -0.881395578384399414 0.470448464155197144 -0.0159728899598121643 0.0395594723522663116
6.27480459213256836 4.11625385284423828 4.82338380813598633 144 1644823265.69319248 -0.958304882049560547 0.282500118017196655 -0.00275677582249045372 0.0428695380687713623
7.94774246215820312 3.93276476860046387 4.85627174377441406 145 1644823266.09336281 -0.994328796863555908 0.10177900642156601 -0.00497551262378692627 0.0304382536560297012
11.9360008239746094 4.51217269897460938 4.91031503677368164 146 1644823266.99381161 -0.996855080127716064 -0.0766728520393371582 -0.00747907673940062523 0.018583003431558609
16.9303970336914062 5.75930404663085938 5.00507402420043945 147 1644823267.9953258 -0.992182374000549316 -0.123517215251922607 -0.0120196035131812096 0.0131597239524126053
29.6989269256591797 7.62096834182739258 5.03631401062011719 148 1644823270.09387422 -0.997440457344055176 -0.0334059819579124451 0.0620049051940441132 0.0123253157362341881
43.1249008178710938 8.36988353729248047 5.10334539413452148 149 1644823272.09672022 -0.99986720085144043 -0.0162116456776857376 0.000184246251592412591 -0.00165136717259883881
52.2540969848632812 8.32546424865722656 5.07781219482421875 150 1644823273.59669089 -0.999937593936920166 0.00521733053028583527 0.00620278110727667809 -0.00768685154616832733
57.6339340209960938 8.29139041900634766 5.02505970001220703 151 1644823274.59148383 -0.999959647655487061 0.00360502256080508232 0.00782072357833385468 -0.00254698190838098526
62.931488037109375 8.34328937530517578 5.09663295745849609 152 1644823275.68893766 -0.997854828834533691 -0.056775365024805069 -0.00838802102953195572 0.0314956344664096832
65.1579666137695312 9.49278450012207031 5.14401960372924805 153 1644823276.18962908 -0.95935213565826416 -0.277401238679885864 0.00996734388172626495 0.0509186387062072754
66.3031463623046875 11.130864143371582 5.13147449493408203 154 1644823276.59296656 -0.882099688053131104 -0.46573483943939209 0.0486819073557853699 0.0511987805366516113
70.3462600708007812 21.1068458557128906 5.22503280639648438 155 1644823278.69123697 -0.826657891273498535 -0.56246340274810791 0.00814919639378786087 0.0143251847475767136
76.8860549926757812 25.8009548187255859 5.35442876815795898 156 1644823280.68875599 -0.998116254806518555 -0.0589789487421512604 -0.0157603658735752106 -0.00608364585787057877
82.2040176391601562 25.73614501953125 5.41309452056884766 157 1644823281.79023552 -0.999418675899505615 0.0318310000002384186 -0.00859768316149711609 -0.00867264717817306519
87.1684799194335938 24.9456691741943359 5.4811859130859375 158 1644823282.68903422 -0.995273709297180176 0.0967993885278701782 -0.00683818385004997253 -0.0036513390950858593
93.2903823852539062 22.3321399688720703 5.49074554443359375 159 1644823283.89242148 -0.952707231044769287 0.303474545478820801 0.0137626919895410538 -0.00791681092232465744
95.4809112548828125 12.5685825347900391 5.41303539276123047 160 1644823285.99019027 -0.689239084720611572 0.724486768245697021 0.00639536837115883827 0.00524730142205953598
90.1101913452148438 4.8612065315246582 5.36422538757324219 161 1644823287.99133635 -0.255445003509521484 0.96678459644317627 -0.00421659927815198898 0.00759193114936351776
81.8466110229492188 3.67074346542358398 5.28754043579101562 162 1644823289.99186158 -0.0135926995426416397 0.999868869781494141 -0.00858065672218799591 -0.00195491150952875614
72.4810028076171875 4.18337106704711914 5.11479663848876953 163 1644823291.99375343 0.0441405102610588074 0.998932063579559326 0.0110297258943319321 0.00804453436285257339
60.4777565002441406 5.05758285522460938 5.041259765625 164 1644823293.99326277 0.0289376676082611084 0.999498844146728516 0.0128291584551334381 0.000230771824135445058
53.0894088745117188 4.59532403945922852 5.10059690475463867 165 1644823295.39240766 -0.14215463399887085 0.989618062973022461 -0.0201421566307544708 0.00651103630661964417
51.5145149230957031 3.43156313896179199 5.08790493011474609 166 1644823295.79293251 -0.314080625772476196 0.948900282382965088 -0.0262618754059076309 0.0158733613789081573
50.5905036926269531 1.859855055809021 5.1096186637878418 167 1644823296.19219184 -0.477305054664611816 0.878267288208007812 -0.0256720725446939468 0.0129363648593425751
50.3406143188476562 -0.341547578573226929 5.08030319213867188 168 1644823296.69306803 -0.639342784881591797 0.768590927124023438 0.0132836010307073593 0.0182298868894577026
49.5916900634765625 -10.2839860916137695 5.14220571517944336 169 1644823298.69548178 -0.689326822757720947 0.724441111087799072 0.00319724390283226967 -0.0018398212268948555
50.6910133361816406 -20.9728546142578125 5.2239680290222168 170 1644823300.79240537 -0.769207358360290527 0.638949871063232422 0.00380734680220484734 -0.0069735073484480381
53.0013580322265625 -26.3162422180175781 5.11203479766845703 171 1644823301.89000893 -0.869904398918151855 0.492244362831115723 -0.00184884830377995968 0.0309576038271188736
56.7943458557128906 -36.3537101745605469 4.89355707168579102 172 1644823303.89363742 -0.730019211769104004 0.683396518230438232 0.0060823122039437294 0.00203700480051338673
55.913970947265625 -50.5603256225585938 4.42509126663208008 173 1644823305.99179506 -0.682456314563751221 0.730710327625274658 0.00193768914323300123 0.0176641996949911118
55.6562538146972656 -66.3936004638671875 4.32106351852416992 174 1644823307.99737382 -0.699235141277313232 0.714848220348358154 -0.00730003835633397102 -0.00298990728333592415
53.8320465087890625 -83.2020645141601562 4.28526735305786133 175 1644823310.09378672 -0.660013377666473389 0.751192450523376465 -0.00941839534789323807 -0.00188046565745025873
52.0025253295898438 -99.5159454345703125 4.41829442977905273 176 1644823312.0952518 -0.635972321033477783 0.771615147590637207 -0.000238033913774415851 -0.0122123677283525467
48.9489173889160156 -106.7703857421875 4.74030685424804688 177 1644823313.09416723 -0.492813199758529663 0.86956322193145752 -0.0241640936583280563 -0.0202755257487297058
39.4401931762695312 -117.9111328125 5.95942497253417969 178 1644823315.19236922 -0.37439611554145813 0.925649106502532959 -0.039022006094455719 -0.0384521558880805969
32.0152854919433594 -124.089408874511719 6.59952068328857422 179 1644823317.19259906 -0.319474488496780396 0.947048366069793701 -0.0306597650051116943 -0.00976852141320705414
25.7145404815673828 -127.262420654296875 6.77678108215332031 180 1644823318.99035048 -0.14358307421207428 0.989533126354217529 -0.00728174438700079918 -0.0124505450949072838
19.7670364379882812 -127.627883911132812 6.86079168319702148 181 1644823320.18903565 0.00888804905116558075 0.999716639518737793 -0.0219320096075534821 -0.00257249083369970322
14.6396379470825195 -127.390869140625 6.94481706619262695 182 1644823321.28892493 -0.0306406170129776001 0.998658180236816406 -0.040745418518781662 -0.00910253450274467468
9.98728561401367188 -129.955291748046875 7.13958883285522461 183 1644823322.58907056 -0.340662628412246704 0.939565718173980713 -0.0340273566544055939 -0.00270960829220712185
8.60177230834960938 -132.361083984375 7.16900062561035156 184 1644823323.18795419 -0.518408298492431641 0.854416012763977051 -0.0328968986868858337 0.0119974063709378242
8.27500629425048828 -134.826095581054688 7.20709133148193359 185 1644823323.68894649 -0.666319489479064941 0.744882345199584961 -0.0296606607735157013 0.0169974658638238907
8.9090118408203125 -137.382415771484375 7.23223257064819336 186 1644823324.18924093 -0.806231975555419922 0.590127527713775635 -0.0232696384191513062 0.0346120037138462067
10.5220966339111328 -139.408233642578125 7.2244715690612793 187 1644823324.69034767 -0.908488452434539795 0.415741145610809326 -0.00709970155730843544 0.0419242046773433685
13.1978883743286133 -140.940109252929688 7.20400285720825195 188 1644823325.28986669 -0.969404697418212891 0.243383601307868958 0.00241563632152974606 0.0318293087184429169
16.3756904602050781 -141.534469604492188 7.16032266616821289 189 1644823325.88958979 -0.99764549732208252 0.0569155476987361908 0.00485844537615776062 0.0379538647830486298
19.6036815643310547 -140.90533447265625 7.14269733428955078 190 1644823326.49046826 -0.98960191011428833 -0.139567196369171143 0.0111392410472035408 0.0329397320747375488
22.3210926055908203 -138.890121459960938 7.07953882217407227 191 1644823327.08958054 -0.940729260444641113 -0.336918026208877563 0.029782220721244812 0.0250543504953384399
22.2917251586914062 -129.289398193359375 6.88042688369750977 192 1644823329.09304333 -0.444470614194869995 -0.894441664218902588 0.0480137132108211517 0.0107076233252882957
19.7204818725585938 -127.642219543457031 6.84921503067016602 193 1644823329.68853879 -0.252999931573867798 -0.966006338596343994 0.0526909567415714264 0.00681855669245123863
10.5506324768066406 -131.146026611328125 7.15340900421142578 194 1644823331.68936825 0.443898230791091919 -0.895363271236419678 0.0355264917016029358 -0.00410503428429365158
13.1288690567016602 -141.330413818359375 7.18121719360351562 195 1644823333.78854632 0.944469332695007324 -0.325864225625991821 -0.00123085733503103256 -0.042292766273021698
22.4600982666015625 -146.158096313476562 7.06657695770263672 196 1644823335.79097772 0.957737088203430176 -0.287298262119293213 -0.00407470390200614929 -0.0135176824405789375
30.7579975128173828 -152.845870971679688 6.6832127571105957 197 1644823337.79156041 0.918016254901885986 -0.394778668880462646 -0.0293837394565343857 0.023076079785823822
37.8412818908691406 -161.451583862304688 6.32222461700439453 198 1644823339.88909841 0.891155004501342773 -0.452003926038742065 -0.0347536765038967133 0.0180945489555597305
44.1431655883789062 -167.89202880859375 6.00287961959838867 199 1644823341.88975596 0.965078413486480713 -0.259220331907272339 -0.0363721735775470734 0.0102750593796372414
46.1192626953125 -168.193679809570312 5.91704702377319336 200 1644823342.39018202 0.99602741003036499 -0.0798869580030441284 -0.0391381718218326569 0.0039559132419526577
47.8479423522949219 -167.598464965820312 5.76587820053100586 201 1644823342.88991737 0.993209004402160645 0.108686745166778564 -0.0405721478164196014 0.00877324119210243225
50.860198974609375 -165.527725219726562 5.46079683303833008 202 1644823343.68974853 0.955394923686981201 0.291612505912780762 -0.0318567715585231781 0.0341740287840366364
55.7470245361328125 -161.419952392578125 4.98602390289306641 203 1644823344.78840184 0.940291464328765869 0.337475448846817017 -0.0229920912533998489 0.0378628410398960114
60.1668891906738281 -158.09832763671875 4.5613551139831543 204 1644823345.58977771 0.949516713619232178 0.310695469379425049 -0.0270057916641235352 0.0340154021978378296
64.49627685546875 -155.015884399414062 4.16124439239501953 205 1644823346.28958249 0.954702138900756836 0.293989181518554688 -0.0227556359022855759 0.0399549044668674469
69.2840728759765625 -151.934234619140625 3.74587416648864746 206 1644823346.98955822 0.962211012840270996 0.267471998929977417 -0.0281876884400844574 0.0425927937030792236
78.964447021484375 -145.411956787109375 2.92698240280151367 207 1644823348.39107537 0.936111330986022949 0.349445074796676636 -0.0271700415760278702 0.0290770865976810455
82.7922592163085938 -141.9014892578125 2.51164555549621582 208 1644823348.99064279 0.930875778198242188 0.36231696605682373 -0.0302233733236789703 0.0358217731118202209
86.5151214599609375 -138.272811889648438 2.12754940986633301 209 1644823349.59134889 0.921153485774993896 0.387619972229003906 -0.0203859303146600723 0.0284849405288696289
90.053558349609375 -134.32421875 1.74674010276794434 210 1644823350.19137573 0.907934665679931641 0.417031466960906982 -0.0272840633988380432 0.0315440818667411804
93.280670166015625 -130.150787353515625 1.46464073657989502 211 1644823350.79224968 0.894343852996826172 0.4460030198097229 -0.0166666731238365173 0.0308636818081140518
97.1085433959960938 -124.339820861816406 1.12814164161682129 212 1644823351.59215236 0.868041574954986572 0.495923340320587158 -0.0102216554805636406 0.0214340519160032272
99.4170684814453125 -119.691848754882812 0.92195051908493042 213 1644823352.19360566 0.843380153179168701 0.53680264949798584 -0.00578606314957141876 0.0227886773645877838
101.299057006835938 -114.966461181640625 0.764835000038146973 214 1644823352.79293513 0.820826828479766846 0.570839941501617432 0.00324887828901410103 0.0193533189594745636
102.894378662109375 -110.103782653808594 0.652418315410614014 215 1644823353.39331675 0.803991913795471191 0.59433448314666748 -0.00434384867548942566 0.0185650493949651718
104.142616271972656 -104.5107421875 0.579393625259399414 216 1644823354.09171796 0.773425102233886719 0.633764386177062988 0.0015681820223107934 0.0124034546315670013
104.962348937988281 -98.8763809204101562 0.588248074054718018 217 1644823354.79239273 0.755425393581390381 0.654998779296875 0.0112934783101081848 0.0134724145755171776
105.552085876464844 -93.3555068969726562 0.705388844013214111 218 1644823355.49298239 0.738086700439453125 0.674394845962524414 0.0204758364707231522 -0.000619802332948893309
105.926353454589844 -87.8740921020507812 0.845723152160644531 219 1644823356.1931529 0.726393282413482666 0.686993122100830078 0.0189648475497961044 -0.00579149927943944931
106.073593139648438 -82.3977432250976562 0.926782190799713135 220 1644823356.89555645 0.718638837337493896 0.695059120655059814 0.021144496276974678 -0.00199686246924102306
106.299034118652344 -77.0301513671875 1.09568893909454346 221 1644823357.59265041 0.723847746849060059 0.689527571201324463 0.0217898208647966385 -0.0110150128602981567
106.646896362304688 -71.7110671997070312 1.33995068073272705 222 1644823358.28958869 0.738993585109710693 0.67320328950881958 0.0259859710931777954 -0.00324694695882499218
107.149543762207031 -66.4919509887695312 1.59087991714477539 223 1644823358.991117 0.739601016044616699 0.67227470874786377 0.0318392105400562286 -0.00482944585382938385
107.642692565917969 -61.3634414672851562 1.8425445556640625 224 1644823359.69292641 0.743977963924407959 0.667250096797943115 0.0356913693249225616 -0.000416535360272973776
108.0888671875 -56.3611373901367188 2.11452555656433105 225 1644823360.39584446 0.737146377563476562 0.674189448356628418 0.0456274710595607758 -0.00139370514079928398
108.500823974609375 -50.7584648132324219 2.43365788459777832 226 1644823361.19176388 0.727522611618041992 0.685263633728027344 0.0314157865941524506 -0.0117341615259647369
108.65118408203125 -45.283416748046875 2.75151538848876953 227 1644823361.99378943 0.714866876602172852 0.698282063007354736 0.0362763740122318268 -0.00717645511031150818
108.765861511230469 -39.9946441650390625 3.09557700157165527 228 1644823362.79344201 0.716550707817077637 0.696139752864837646 0.0434386879205703735 -0.00758652109652757645
108.968040466308594 -34.8115653991699219 3.46364760398864746 229 1644823363.59360385 0.720579683780670166 0.691876411437988281 0.043362736701965332 -0.0138439061120152473
109.240196228027344 -29.6785678863525391 3.83958840370178223 230 1644823364.39148307 0.729325294494628906 0.682518839836120605 0.0457730479538440704 -0.0125463930889964104
109.690696716308594 -24.6716976165771484 4.22055196762084961 231 1644823365.19427037 0.739004552364349365 0.67209780216217041 0.04438067227602005 -0.0136804403737187386
110.236465454101562 -19.4148731231689453 4.63328123092651367 232 1644823366.09131098 0.742686867713928223 0.668514013290405273 0.0351502597332000732 -0.0164204128086566925
110.783699035644531 -14.1625547409057617 5.064971923828125 233 1644823367.18801427 0.744462847709655762 0.66655498743057251 0.0354501791298389435 -0.0149271180853247643
111.565872192382812 -8.07543182373046875 5.57270383834838867 234 1644823368.49045992 0.758265495300292969 0.650373935699462891 0.0433471724390983582 -0.0129694323986768723
114.164749145507812 -0.306006968021392822 6.33879280090332031 235 1644823370.49207592 0.848651647567749023 0.52691274881362915 0.0393782481551170349 -0.0245500374585390091
117.069404602050781 2.9501807689666748 6.63293123245239258 236 1644823371.59205055 0.932152152061462402 0.360614418983459473 0.019380718469619751 -0.0259603448212146759
120.038856506347656 4.20951652526855469 6.78732156753540039 237 1644823372.39179635 0.982836127281188965 0.179651498794555664 0.0319748446345329285 -0.027130788192152977
125.148208618164062 4.63887643814086914 6.97407770156860352 238 1644823373.48868871 0.999158620834350586 0.000380276644136756659 0.0224755946546792984 -0.0343037769198417664
130.65631103515625 3.97466039657592773 7.04070377349853516 239 1644823374.48799372 0.997423648834228516 -0.0690661296248435974 0.0101553257554769516 -0.0165159814059734344
136.186538696289062 3.64183449745178223 6.96442317962646484 240 1644823375.39001822 0.999527394771575928 -0.0118151446804404259 -0.0042852228507399559 -0.0280531849712133408
141.656753540039062 3.57243704795837402 6.86986351013183594 241 1644823376.28678131 0.999707341194152832 -0.011203814297914505 -0.00887031108140945435 -0.019518781453371048
146.986831665039062 3.4151604175567627 6.79666996002197266 242 1644823377.18861771 0.999561309814453125 -0.0188154168426990509 -0.00754346605390310287 -0.0215936955064535141
152.378890991210938 3.21098613739013672 6.74843692779541016 243 1644823378.18961549 0.999556005001068115 -0.0206706225872039795 -0.00123751512728631496 -0.0214228276163339615
157.385726928710938 2.96857309341430664 6.71982574462890625 244 1644823379.19123244 0.999377310276031494 -0.0304100252687931061 -0.000823420181404799223 -0.0178754236549139023
162.775070190429688 2.43799901008605957 6.67656898498535156 245 1644823380.28687024 0.998186826705932617 -0.0556109696626663208 -0.00288913608528673649 -0.0228497441858053207
168.062347412109375 1.82312214374542236 6.62436914443969727 246 1644823381.3863318 0.998402953147888184 -0.0498717203736305237 -8.09224293334409595e-05 -0.0265402123332023621
173.139846801757812 1.85916292667388916 6.6104578971862793 247 1644823382.48664594 0.999267995357513428 0.0327012762427330017 -0.00308193499222397804 -0.0196121558547019958
176.697006225585938 3.24502849578857422 6.69252204895019531 248 1644823383.48726606 0.976940631866455078 0.21220630407333374 0.008489951491355896 -0.0219871699810028076
180.943405151367188 6.0191187858581543 6.88851070404052734 249 1644823384.88845253 0.956641674041748047 0.290506452322006226 0.00612807087600231171 -0.0201286263763904572
185.973129272460938 7.61062717437744141 7.13324594497680664 250 1644823386.38728571 0.997160017490386963 0.0727891027927398682 0.0152234537526965141 -0.0119125256314873695
189.489883422851562 6.41041660308837891 7.16614723205566406 251 1644823387.48701811 0.972495853900909424 -0.232490286231040955 -0.00186761387158185244 -0.0140193309634923935
190.829544067382812 4.74413824081420898 7.11147642135620117 252 1644823388.08797264 0.905193209648132324 -0.424590349197387695 -0.0166004206985235214 -0.00852792616933584213
191.34625244140625 2.69467401504516602 7.04197120666503906 253 1644823388.68731785 0.794805824756622314 -0.606440424919128418 -0.0207973383367061615 -0.00900940969586372375
190.905670166015625 1.00880205631256104 6.96102333068847656 254 1644823389.18820214 0.643603503704071045 -0.764472723007202148 -0.0330449715256690979 -0.0162501260638237
189.989120483398438 -0.00677625834941864014 6.88424539566040039 255 1644823389.58855581 0.463962465524673462 -0.883786499500274658 -0.056812286376953125 -0.0208000615239143372
188.744338989257812 -0.433098256587982178 6.83215856552124023 256 1644823389.98842216 0.27257460355758667 -0.960783243179321289 -0.0436992235481739044 -0.0262495838105678558
186.96697998046875 -0.464053958654403687 6.79080581665039062 257 1644823390.58801365 0.0840806812047958374 -0.99612581729888916 -0.0215671472251415253 -0.0140957674011588097
182.296356201171875 0.0192497167736291885 6.65956974029541016 258 1644823391.88880014 -0.10927949845790863 -0.993393421173095703 -0.029800737276673317 -0.018424229696393013
180.341781616210938 1.34969115257263184 6.66695308685302734 259 1644823392.58955717 -0.308966219425201416 -0.950323104858398438 -0.0338356085121631622 -0.0167624056339263916
179.76904296875 2.78295612335205078 6.71473789215087891 260 1644823393.08950019 -0.503146231174468994 -0.86369633674621582 -0.027080196887254715 -0.0117975044995546341
179.888900756835938 4.17598295211791992 6.77685832977294922 261 1644823393.59082627 -0.671151518821716309 -0.741003811359405518 -0.0216411259025335312 -0.000756121298763900995
180.506790161132812 5.27412509918212891 6.83824396133422852 262 1644823394.09044528 -0.80611187219619751 -0.591552734375 -0.0152902649715542793 0.0038962888065725565
187.20501708984375 6.15369844436645508 7.10043430328369141 263 1644823396.1915319 -0.993217825889587402 0.116071648895740509 -0.00652100192382931709 0.0017827905248850584
194.571563720703125 1.9038093090057373 7.0414886474609375 264 1644823398.29208875 -0.97762829065322876 0.208837822079658508 0.000994232017546892166 0.0250740032643079758
199.526351928710938 0.842409193515777588 7.05914068222045898 265 1644823399.49142838 -0.99774467945098877 0.0654732957482337952 -0.00586986774578690529 0.0135754263028502464
204.816513061523438 0.914261937141418457 7.19240474700927734 266 1644823400.69363785 -0.999023735523223877 -0.0313722789287567139 -0.0111102927476167679 0.0290509853512048721
210.015640258789062 1.26718997955322266 7.37993335723876953 267 1644823401.89083648 -0.99928516149520874 -0.0259032305330038071 -0.0218803007155656815 0.0167170744389295578
215.170440673828125 1.71251773834228516 7.58321237564086914 268 1644823402.99003935 -0.997181892395019531 -0.0684752687811851501 -0.0170097798109054565 0.0254972614347934723
220.233718872070312 3.01506567001342773 7.81264448165893555 269 1644823404.08992124 -0.988572597503662109 -0.148555442690849304 -0.0181237906217575073 0.0180845372378826141
225.114974975585938 4.51681613922119141 8.02969932556152344 270 1644823405.19113111 -0.989626944065093994 -0.141409650444984436 -0.0192303173243999481 0.016493355855345726
230.322998046875 5.84838676452636719 8.24727153778076172 271 1644823406.29050207 -0.991997659206390381 -0.123850330710411072 -0.0150204598903656006 0.019395025447010994
235.572845458984375 7.19574069976806641 8.49233531951904297 272 1644823407.49309063 -0.991738200187683105 -0.125336423516273499 -0.0201759021729230881 0.0184140652418136597
240.715972900390625 8.25373935699462891 8.70544052124023438 273 1644823408.7932446 -0.998456299304962158 -0.052596013993024826 -0.0174719728529453278 0.00366859324276447296
245.623291015625 7.08711433410644531 8.85546875 274 1644823410.1929915 -0.987728416919708252 0.155023008584976196 -0.0122680915519595146 0.0144895073026418686
250.059768676757812 4.17668437957763672 8.88110923767089844 275 1644823411.59270048 -0.943827986717224121 0.329471081495285034 -0.0177855417132377625 0.0179224852472543716
253.743270874023438 0.296111375093460083 8.88013935089111328 276 1644823412.7921207 -0.913327455520629883 0.406963318586349487 -0.0124085284769535065 0.00773740885779261589
257.387908935546875 -3.61951375007629395 8.93844699859619141 277 1644823413.79146743 -0.917168796062469482 0.398304790258407593 -0.0122826872393488884 0.00195518112741410732
261.267364501953125 -7.49841403961181641 9.07025814056396484 278 1644823414.79205847 -0.924204707145690918 0.381186157464981079 -0.0232055019587278366 0.00206181802786886692
265.001129150390625 -10.8638381958007812 9.19959735870361328 279 1644823415.68967152 -0.939054608345031738 0.342948436737060547 -0.023653494194149971 -0.00182528921868652105
269.494476318359375 -14.1355571746826172 9.34967422485351562 280 1644823416.6915369 -0.957156598567962646 0.28893771767616272 -0.0186284370720386505 -0.00438211672008037567
273.994293212890625 -16.5655307769775391 9.53126144409179688 281 1644823417.58779502 -0.972612440586090088 0.231828108429908752 -0.0160934459418058395 -0.0046654711477458477
278.693328857421875 -18.6590366363525391 9.7184295654296875 282 1644823418.48818207 -0.979046642780303955 0.202550485730171204 -0.0195310395210981369 -0.00771222729235887527
283.3929443359375 -20.4214935302734375 9.92807102203369141 283 1644823419.38789368 -0.984461784362792969 0.174237534403800964 -0.0205648038536310196 -0.00730486586689949036
288.603302001953125 -21.9047298431396484 10.1534519195556641 284 1644823420.38696051 -0.993010878562927246 0.115965142846107483 -0.0182029344141483307 -0.0122531810775399208
293.701568603515625 -22.4973239898681641 10.4023504257202148 285 1644823421.39158916 -0.998426437377929688 0.0464618168771266937 -0.0252443980425596237 -0.0186734236776828766
298.9361572265625 -22.5683212280273438 10.6647262573242188 286 1644823422.39029264 -0.999190807342529297 -0.000289603834971785545 -0.0253807678818702698 -0.0312006492167711258
303.9730224609375 -22.3230972290039062 10.9281511306762695 287 1644823423.38771772 -0.999104559421539307 -0.0186122190207242966 -0.0262944865971803665 -0.0274264533072710037
309.372955322265625 -22.2441978454589844 11.212183952331543 288 1644823424.48873115 -0.999355494976043701 -0.00243731704540550709 -0.0232972800731658936 -0.0272017307579517365
314.539154052734375 -21.8727912902832031 11.4900035858154297 289 1644823425.58885431 -0.998085081577301025 -0.0535032264888286591 -0.0258226059377193451 -0.0172264203429222107
319.54071044921875 -20.610137939453125 11.7751703262329102 290 1644823426.79016066 -0.991600930690765381 -0.125616103410720825 -0.0244572758674621582 -0.0187085103243589401
324.397613525390625 -19.4241447448730469 12.0610761642456055 291 1644823428.88806105 -0.992532253265380859 -0.121382452547550201 -0.00117824121844023466 -0.0120286261662840843
328.268402099609375 -18.4908676147460938 12.3036041259765625 292 1644823430.98759532 -0.993890702724456787 -0.109854035079479218 -0.00636958284303545952 -0.00853307917714118958
333.301116943359375 -17.5822544097900391 12.6263570785522461 293 1644823432.79004288 -0.995682477951049805 -0.0860968455672264099 -0.0339781679213047028 0.00701599009335041046
338.419097900390625 -16.8954830169677734 12.7990427017211914 294 1644823433.88830519 -0.997379004955291748 -0.0682756528258323669 -0.0103641906753182411 0.0215904023498296738
343.77520751953125 -16.2923965454101562 12.7522668838500977 295 1644823434.98808122 -0.998948454856872559 -0.0437944084405899048 0.0115748848766088486 0.00707397935912013054
349.0360107421875 -15.6881475448608398 12.6758871078491211 296 1644823436.0876677 -0.997171163558959961 -0.0734135210514068604 0.0145891681313514709 0.00687794154509902
353.980621337890625 -14.7488212585449219 12.578913688659668 297 1644823437.19011188 -0.996294498443603516 -0.0843651071190834045 0.0166981499642133713 0.000986600876785814762
359.063873291015625 -14.035609245300293 12.5205297470092773 298 1644823438.39120388 -0.99764406681060791 -0.0681563541293144226 0.00548154208809137344 0.00556196365505456924
364.2542724609375 -13.5598678588867188 12.4156484603881836 299 1644823439.78980041 -0.998937308788299561 -0.0412296503782272339 0.0162218045443296432 0.0126979611814022064
369.568359375 -13.3679180145263672 12.3049488067626953 300 1644823441.39156079 -0.99963688850402832 -0.00954349152743816376 0.018264375627040863 0.0173612367361783981
374.644683837890625 -13.8872537612915039 12.1466207504272461 301 1644823443.09262729 -0.997024059295654297 0.0709012895822525024 0.0192512087523937225 0.0233553890138864517
379.7353515625 -15.2084426879882812 11.9817628860473633 302 1644823444.88769197 -0.989580631256103516 0.141464278101921082 0.0171216018497943878 0.0206135734915733337
384.482330322265625 -17.2462844848632812 11.7672557830810547 303 1644823446.48845911 -0.976692914962768555 0.208888858556747437 0.0204695835709571838 0.0449148640036582947
387.66241455078125 -19.7274341583251953 11.4932489395141602 304 1644823448.08858681 -0.916371524333953857 0.397479385137557983 0.0285391751676797867 0.0381950512528419495
387.977447509765625 -21.3967666625976562 11.3703508377075195 305 1644823448.68813682 -0.809298217296600342 0.58603668212890625 0.0139903370290994644 0.0374385975301265717
387.66217041015625 -22.991912841796875 11.2438163757324219 306 1644823449.19037175 -0.691600024700164795 0.720502078533172607 -0.00392352556809782982 0.0505050979554653168
386.0552978515625 -26.9277286529541016 10.8201990127563477 307 1644823450.48658252 -0.554422497749328613 0.829528391361236572 0.000845213886350393295 0.0670646876096725464
384.269195556640625 -31.6628131866455078 10.3999881744384766 308 1644823452.48932528 -0.568043410778045654 0.821054279804229736 0.00422817841172218323 0.0563799142837524414
382.2938232421875 -36.2679862976074219 9.89867877960205078 309 1644823454.08701181 -0.555898010730743408 0.829234600067138672 -0.000906212255358695984 0.0578489154577255249
380.22021484375 -40.9618072509765625 9.39903545379638672 310 1644823455.58695817 -0.534727752208709717 0.843176662921905518 0.00421997671946883202 0.0556910522282123566
377.94195556640625 -45.5986289978027344 8.89255142211914062 311 1644823456.98692417 -0.531112730503082275 0.845362424850463867 2.88250103039899841e-05 0.0572857782244682312
375.623870849609375 -50.315765380859375 8.44130611419677734 312 1644823458.38790131 -0.529316067695617676 0.847237467765808105 -0.00787798967212438583 0.0441707894206047058
373.30950927734375 -55.0108146667480469 8.01608371734619141 313 1644823459.78841114 -0.512567400932312012 0.857542097568511963 -0.001184884924441576 0.0435289293527603149
370.627471923828125 -59.2423820495605469 7.91484594345092773 314 1644823461.38885713 -0.484683513641357422 0.873555421829223633 -0.0263782963156700134 0.0358747169375419617
368.0791015625 -63.5738143920898438 7.53729867935180664 315 1644823463.08809781 -0.49853178858757019 0.865737557411193848 0.000352815666701644659 0.0443215742707252502
365.452545166015625 -68.2428359985351562 7.12114381790161133 316 1644823464.58908558 -0.501782894134521484 0.863706111907958984 0.00468412693589925766 0.0469438843429088593
362.47332763671875 -72.563140869140625 6.66572666168212891 317 1644823466.08866048 -0.457245200872421265 0.886243999004364014 -0.0130744297057390213 0.0729896724224090576
359.153839111328125 -76.5390243530273438 6.067169189453125 318 1644823467.49003768 -0.408166497945785522 0.912278413772583008 0.000722664815839380026 0.0338781736791133881
355.799560546875 -80.2337493896484375 5.65761995315551758 319 1644823468.79092312 -0.40831795334815979 0.911653399467468262 -0.00868539884686470032 0.0457068979740142822
352.223297119140625 -84.0851669311523438 5.24094295501708984 320 1644823469.98947453 -0.402039408683776855 0.914666414260864258 -0.00473078619688749313 0.0415608994662761688
348.68994140625 -88.0915374755859375 4.80831718444824219 321 1644823471.08999753 -0.405039697885513306 0.913219332695007324 -0.0076261213980615139 0.0437627732753753662
345.162200927734375 -92.1472244262695312 4.3908534049987793 322 1644823472.18930888 -0.397380203008651733 0.916491806507110596 -0.00106628343928605318 0.0461588576436042786
341.514923095703125 -95.8490371704101562 3.96108627319335938 323 1644823473.28824353 -0.388905972242355347 0.919912159442901611 -0.00683221453800797462 0.0496699027717113495
338.051788330078125 -99.7553939819335938 3.57456326484680176 324 1644823474.38990951 -0.42051735520362854 0.906269729137420654 -0.00626302370801568031 0.0424389131367206573
334.64300537109375 -103.350486755371094 3.1728358268737793 325 1644823475.59040976 -0.395575791597366333 0.917023122310638428 -0.0115111023187637329 0.0495566464960575104
331.5751953125 -107.537460327148438 2.82131218910217285 326 1644823477.29122281 -0.479926377534866333 0.876079559326171875 -0.0136792799457907677 0.0443641319870948792
328.79974365234375 -112.145645141601562 2.56595540046691895 327 1644823478.690835 -0.483337521553039551 0.874662578105926514 -0.0165884681046009064 0.032788250595331192
326.083953857421875 -116.660087585449219 2.2530825138092041 328 1644823479.6909225 -0.496186912059783936 0.867432296276092529 -0.0164073389023542404 0.0330236777663230896
323.4090576171875 -121.529655456542969 1.97060859203338623 329 1644823480.59099126 -0.501022517681121826 0.864722013473510742 -0.0111705772578716278 0.0332791358232498169
320.755615234375 -126.172645568847656 1.68446767330169678 330 1644823481.39047813 -0.488312244415283203 0.871871829032897949 -0.00955569464713335037 0.0360471494495868683
317.965301513671875 -130.608596801757812 1.39828598499298096 331 1644823482.19058609 -0.475698530673980713 0.878880321979522705 -0.0075012650340795517 0.0349861830472946167
315.374786376953125 -134.911788940429688 1.14708805084228516 332 1644823482.99336624 -0.492634683847427368 0.869569718837738037 -0.00455544982105493546 0.0337457954883575439
312.62591552734375 -139.569061279296875 0.867498099803924561 333 1644823483.89377093 -0.482149094343185425 0.875493824481964111 0.000793615763541311026 0.0322821922600269318
309.72784423828125 -143.797164916992188 0.626702666282653809 334 1644823484.79386353 -0.459104329347610474 0.887877941131591797 -0.000112962334242183715 0.0299321785569190979
306.22412109375 -147.95037841796875 0.319474965333938599 335 1644823485.79253316 -0.396217614412307739 0.917653441429138184 0.0013207955053076148 0.0303644426167011261
302.4503173828125 -151.721389770507812 -0.0167130902409553528 336 1644823486.79091716 -0.382725358009338379 0.923250913619995117 -0.00195646588690578938 0.0335441157221794128
298.812408447265625 -155.304443359375 -0.311868429183959961 337 1644823487.69359708 -0.372840195894241333 0.927585005760192871 -0.00174065958708524704 0.0239410530775785446
295.12017822265625 -158.796432495117188 -0.562666714191436768 338 1644823488.49219537 -0.371588766574859619 0.928062736988067627 -0.0125390151515603065 0.0215423591434955597
291.0804443359375 -162.574050903320312 -0.80559229850769043 339 1644823489.29216003 -0.359118938446044922 0.933073282241821289 -0.00228125136345624924 0.0200656522065401077
286.950286865234375 -166.343643188476562 -1.13115966320037842 340 1644823490.09108424 -0.356303393840789795 0.933098495006561279 0.01283266581594944 0.0470155738294124603
283.007598876953125 -169.794448852539062 -1.31353318691253662 341 1644823490.88991809 -0.361986815929412842 0.931832730770111084 -0.0135481394827365875 0.0216737203299999237
279.23101806640625 -173.323089599609375 -1.42551195621490479 342 1644823491.694453 -0.364514946937561035 0.930944323539733887 -0.0156403668224811554 0.0150622408837080002
275.230224609375 -176.951522827148438 -1.5224604606628418 343 1644823492.59015775 -0.353081554174423218 0.935364782810211182 -0.0158600937575101852 0.0132148601114749908
271.560821533203125 -180.458755493164062 -1.64506709575653076 344 1644823493.49517107 -0.367573529481887817 0.929900467395782471 -0.0112961316481232643 0.00687153590843081474
267.79168701171875 -184.044189453125 -1.7250823974609375 345 1644823494.39216614 -0.375010401010513306 0.92683941125869751 -0.0137438923120498657 0.0121236992999911308
264.169891357421875 -187.578582763671875 -1.82622170448303223 346 1644823495.18893814 -0.378963619470596313 0.925200998783111572 -0.0137313446030020714 0.0141834178939461708
260.30572509765625 -191.379119873046875 -1.91714680194854736 347 1644823495.98991156 -0.365181654691696167 0.930795609951019287 -0.01415982935577631 0.00783320330083370209
256.09002685546875 -195.182174682617188 -1.99929559230804443 348 1644823496.78948855 -0.345097094774246216 0.938496947288513184 -0.00950107909739017487 0.00642241677269339561
252.2523193359375 -198.659164428710938 -2.07178115844726562 349 1644823497.48757744 -0.371579825878143311 0.92828214168548584 -0.01274065300822258 0.00763822393491864204
248.403335571289062 -202.346221923828125 -2.13701367378234863 350 1644823498.18824172 -0.371161878108978271 0.928342878818511963 -0.019566001370549202 0.00595724768936634064
244.472946166992188 -206.192779541015625 -2.20092225074768066 351 1644823498.88798714 -0.369428545236587524 0.929146051406860352 -0.0130031928420066833 0.00640484457835555077
240.289443969726562 -209.971527099609375 -2.25721096992492676 352 1644823499.5893898 -0.359873980283737183 0.932826519012451172 -0.0142158288508653641 0.011106523685157299
236.099349975585938 -213.764068603515625 -2.31270813941955566 353 1644823500.28617191 -0.354310691356658936 0.934970974922180176 -0.0136836022138595581 0.01029221061617136
231.935501098632812 -217.573074340820312 -2.34901952743530273 354 1644823500.98602319 -0.358364135026931763 0.933481812477111816 -0.0094147808849811554 0.00990793667733669281
227.861862182617188 -221.328262329101562 -2.38617277145385742 355 1644823501.68614244 -0.36779358983039856 0.929661095142364502 -0.01303081214427948 0.0169801805168390274
223.9781494140625 -224.891067504882812 -2.40274858474731445 356 1644823502.38680315 -0.361527115106582642 0.932229757308959961 -0.01468656025826931 0.00548986438661813736
220.22430419921875 -228.29046630859375 -2.41127276420593262 357 1644823503.08629775 -0.363436013460159302 0.93140178918838501 -0.0164560433477163315 0.0115821519866585732
216.078857421875 -231.905502319335938 -2.43550300598144531 358 1644823503.88705492 -0.335980027914047241 0.941797435283660889 -0.0110418414697051048 0.00361658097244799137
211.780548095703125 -234.847930908203125 -2.46019339561462402 359 1644823504.68634558 -0.270327895879745483 0.962727487087249756 -0.00873426627367734909 0.00151183758862316608
207.284072875976562 -237.150909423828125 -2.47736358642578125 360 1644823505.48679876 -0.219812408089637756 0.975472867488861084 -0.0116036096587777138 -0.000763380608987063169
202.293624877929688 -239.15313720703125 -2.538543701171875 361 1644823506.28843546 -0.175148487091064453 0.984499096870422363 -0.0091907186433672905 -0.000260453671216964722
196.8988037109375 -240.845474243164062 -2.60179686546325684 362 1644823507.08914304 -0.133112862706184387 0.991088688373565674 -0.0044419621117413044 0.00210512615740299225
191.871185302734375 -241.933563232421875 -2.67988014221191406 363 1644823507.78786826 -0.0850041136145591736 0.996326029300689697 -0.0069191264919936657 0.00780414650216698647
186.644287109375 -242.442794799804688 -2.71215248107910156 364 1644823508.48781514 -0.0297028999775648117 0.999534428119659424 -0.00608411291614174843 -0.00341594102792441845
181.25677490234375 -242.435134887695312 -2.72767496109008789 365 1644823509.18694878 0.0126853128895163536 0.99987560510635376 -0.00916505977511405945 -0.00195200764574110508
175.842422485351562 -242.198196411132812 -2.68419337272644043 366 1644823509.88787317 0.021580548956990242 0.999581754207611084 -0.0109154535457491875 -0.0158569775521755219
170.43017578125 -241.975540161132812 -2.62016963958740234 367 1644823510.58842707 0.0231990721076726913 0.999664008617401123 -0.0049017355777323246 -0.0104714939370751381
165.04229736328125 -241.618881225585938 -2.52764320373535156 368 1644823511.28764725 0.0419244356453418732 0.998879134654998779 -0.00954537093639373779 -0.0197909921407699585
159.655303955078125 -241.194793701171875 -2.3744969367980957 369 1644823511.98789001 0.0359279103577136993 0.99882352352142334 -0.01937132328748703 -0.0261826515197753906
154.336105346679688 -240.918197631835938 -2.20977568626403809 370 1644823512.6873951 0.0220289640128612518 0.999275267124176025 -0.0205270387232303619 -0.0232884213328361511
149.113204956054688 -240.704360961914062 -2.01538944244384766 371 1644823513.387115 0.0254204627126455307 0.999323070049285889 -0.0135773904621601105 -0.0228649042546749115
144.001556396484375 -240.49945068359375 -1.75142419338226318 372 1644823514.08813167 0.0271532703191041946 0.99916917085647583 -0.0124382693320512772 -0.0277300942689180374
138.387527465820312 -240.257049560546875 -1.48282766342163086 373 1644823514.88690782 0.0252066720277070999 0.999391734600067139 -0.0140404095873236656 -0.0195870082825422287
133.079574584960938 -239.95904541015625 -1.12214851379394531 374 1644823515.6875267 0.0335012339055538177 0.998746097087860107 -0.00259655481204390526 -0.0371105894446372986
127.906669616699219 -239.6087646484375 -0.755154073238372803 375 1644823516.48727703 0.039352118968963623 0.998359501361846924 -0.0116193210706114769 -0.0399340800940990448
122.879814147949219 -239.333221435546875 -0.381565749645233154 376 1644823517.28803277 0.0351083613932132721 0.998464703559875488 -0.00508874235674738884 -0.0425414107739925385
117.347053527832031 -238.992874145507812 0.0368372835218906403 377 1644823518.18682027 0.0327329225838184357 0.9985198974609375 -0.0082213766872882843 -0.0426489003002643585
111.971923828125 -238.650344848632812 0.4488181471824646 378 1644823519.08784175 0.0332625396549701691 0.998377084732055664 -0.00696112634614109993 -0.0456988289952278137
106.768936157226562 -238.326278686523438 0.897328615188598633 379 1644823519.9889555 0.0288169402629137039 0.998123884201049805 -0.0124158365651965141 -0.0525748170912265778
101.594154357910156 -238.1014404296875 1.16496813297271729 380 1644823520.88841867 0.0274214036762714386 0.998550891876220703 0.00052328652236610651 -0.0463026128709316254
96.4299545288085938 -237.909469604492188 1.61642336845397949 381 1644823521.78742218 0.0186020191758871078 0.998633265495300293 -0.00917706359177827835 -0.0479721017181873322
91.3088455200195312 -237.733016967773438 2.0330502986907959 382 1644823522.68756366 0.0202697403728961945 0.998647034168243408 -0.00253838975913822651 -0.0478203967213630676
86.283447265625 -237.443252563476562 2.4351203441619873 383 1644823523.5893929 0.036924269050359726 0.998538970947265625 0.000490596110466867685 -0.0394504666328430176
81.2938766479492188 -236.764068603515625 2.82176470756530762 384 1644823524.48841119 0.0966235622763633728 0.994255959987640381 0.00272718747146427631 -0.0459519810974597931
76.4860458374023438 -235.372650146484375 3.18512153625488281 385 1644823525.38831401 0.158551454544067383 0.98623359203338623 0.00192799465730786324 -0.0469150282442569733
71.80303955078125 -233.56463623046875 3.5638575553894043 386 1644823526.29056096 0.199346080422401428 0.978786170482635498 0.00558342784643173218 -0.046985626220703125
67.2920913696289062 -231.439102172851562 4.00839424133300781 387 1644823527.18933058 0.225945934653282166 0.972617387771606445 0.0103485109284520149 -0.0534484013915061951
62.6054420471191406 -228.886810302734375 4.51045799255371094 388 1644823528.19189167 0.270208925008773804 0.961508095264434814 0.0169930886477231979 -0.0469096042215824127
58.5393905639648438 -225.68707275390625 4.99157810211181641 389 1644823529.19107652 0.346109211444854736 0.9367331862449646 0.0175803005695343018 -0.049297429621219635
54.8918800354003906 -222.204864501953125 5.47737503051757812 390 1644823530.19299507 0.379843264818191528 0.923504173755645752 0.00579360686242580414 -0.053155701607465744
51.1058349609375 -218.253509521484375 5.92416620254516602 391 1644823531.28847504 0.401575624942779541 0.914364457130432129 0.0108949048444628716 -0.0505559630692005157
47.7082710266113281 -214.218414306640625 6.31686496734619141 392 1644823532.39244604 0.439945042133331299 0.897284626960754395 0.00908832624554634094 -0.0352993495762348175
44.5994338989257812 -209.802703857421875 6.70676755905151367 393 1644823533.69007111 0.473272025585174561 0.879724562168121338 0.0144065534695982933 -0.0434820838272571564
41.6762504577636719 -205.754837036132812 7.06456327438354492 394 1644823534.88838983 0.443421304225921631 0.895439743995666504 0.00448044715449213982 -0.0393086746335029602
38.5264396667480469 -202.292694091796875 6.97630834579467773 395 1644823536.28829741 0.453196555376052856 0.890720903873443604 0.00709850015118718147 -0.0343326330184936523
35.4571876525878906 -197.300811767578125 7.87237024307250977 396 1644823537.88810873 0.458797991275787354 0.887558817863464355 0.00477633066475391388 -0.0414839684963226318
32.6890907287597656 -193.0096435546875 8.31363201141357422 397 1644823539.78953075 0.486977934837341309 0.871825873851776123 0.0115298619493842125 -0.0513731911778450012
30.0015792846679688 -189.885147094726562 8.43142890930175781 398 1644823541.79097772 0.407036632299423218 0.912117421627044678 0.0453857406973838806 0.0174100492149591446
29.6483306884765625 -187.653182983398438 8.61403560638427734 399 1644823542.68903613 0.633523464202880859 0.77248769998550415 0.0185312777757644653 -0.0395900532603263855
30.0962333679199219 -186.500091552734375 8.64421272277832031 400 1644823543.08824849 0.764185786247253418 0.643841385841369629 -0.00138949044048786163 -0.0385550670325756073
31.2193393707275391 -184.965103149414062 8.66833209991455078 401 1644823543.68828702 0.873557746410369873 0.485505968332290649 -0.00361908902414143085 -0.0341713353991508484
34.1950454711914062 -182.363235473632812 8.57334041595458984 402 1644823544.78775287 0.946502983570098877 0.321793824434280396 -0.0219021029770374298 -0.0100592924281954765
38.4940605163574219 -179.434677124023438 8.34210586547851562 403 1644823546.28808594 0.953049778938293457 0.301546096801757812 -0.0272673442959785461 -0.00475139496847987175
42.5430335998535156 -176.300857543945312 8.18268966674804688 404 1644823548.18975711 0.942381680011749268 0.334352672100067139 0.00208026752807199955 -0.0109905069693922997
44.1654319763183594 -175.324371337890625 6.7271270751953125 405 1644823549.18915844 0.859196722507476807 0.509697020053863525 -0.0440749675035476685 -0.00687506468966603279
44.1455345153808594 -173.518356323242188 6.38579940795898438 406 1644823549.78963494 0.738979578018188477 0.672506511211395264 -0.0404667146503925323 0.00256688124500215054
43.3962211608886719 -170.818527221679688 6.22298765182495117 407 1644823550.49134636 0.609754085540771484 0.791275203227996826 -0.044177670031785965 -0.0114812767133116722
38.1921424865722656 -162.975357055664062 6.33922290802001953 408 1644823552.49281335 0.42566215991973877 0.90435713529586792 -0.016543285921216011 -0.0260047074407339096
31.2090187072753906 -153.686325073242188 6.69229555130004883 409 1644823554.58946967 0.45624011754989624 0.88904571533203125 -0.0229017715901136398 -0.0303024165332317352
25.1828594207763672 -144.034439086914062 7.05595779418945312 410 1644823556.59277964 0.539991199970245361 0.841437816619873047 -0.00402732891961932182 -0.0193838737905025482
23.3229618072509766 -133.637832641601562 6.97460269927978516 411 1644823558.68781185 0.651109635829925537 0.758568227291107178 -0.0215132962912321091 -0.0129498830065131187
17.1337165832519531 -126.874237060546875 6.87082958221435547 412 1644823560.6924758 0.149493411183357239 0.987538993358612061 -0.0489112511277198792 -0.00511627038940787315
9.66486072540283203 -132.58099365234375 7.17877483367919922 413 1644823562.78922844 -0.619680464267730713 0.783923447132110596 -0.0336460061371326447 0.018114069476723671
15.8141460418701172 -141.549789428710938 7.18679952621459961 414 1644823564.88813329 -0.961615800857543945 0.27361983060836792 -0.000371790578356012702 0.020666118711233139
26.7903461456298828 -149.781539916992188 6.92826652526855469 415 1644823566.98893857 -0.939265310764312744 0.34260934591293335 0.0196076910942792892 0.00387631263583898544
35.9357986450195312 -158.9283447265625 6.4655766487121582 416 1644823568.99000907 -0.897472202777862549 0.439398497343063354 0.0325900837779045105 -0.0202616564929485321
41.976348876953125 -167.964874267578125 6.23366260528564453 417 1644823570.79033661 -0.865372002124786377 0.500305652618408203 0.0178327634930610657 -0.0225286148488521576
43.510040283203125 -172.621261596679688 6.35476827621459961 418 1644823571.89061594 -0.754682540893554688 0.6546478271484375 0.00846520718187093735 -0.0426481515169143677
42.920501708984375 -175.685165405273438 6.58435773849487305 419 1644823572.69216251 -0.615565180778503418 0.787103533744812012 -0.00326698459684848785 -0.0392026565968990326
41.1933860778808594 -178.311477661132812 6.86393594741821289 420 1644823573.58846736 -0.469566375017166138 0.880816876888275146 -0.0464781671762466431 -0.0388435274362564087
37.6607666015625 -181.382675170898438 7.00585794448852539 421 1644823574.8885324 -0.319499105215072632 0.947130858898162842 -0.0186555925756692886 0.0227025095373392105
32.6336669921875 -184.66943359375 7.28592872619628906 422 1644823576.89271688 -0.294992148876190186 0.955386519432067871 -0.00670378655195236206 -0.013088032603263855
29.5742435455322266 -188.557281494140625 7.32973861694335938 423 1644823578.38727498 -0.484802305698394775 0.874477863311767578 0.0159622076898813248 -0.000607488036621361971
28.1290321350097656 -193.69378662109375 7.31325292587280273 424 1644823580.0896287 -0.628046274185180664 0.777201175689697266 0.0294223856180906296 -0.0255054309964179993
28.2066421508789062 -197.814071655273438 7.80222558975219727 425 1644823581.58708525 -0.728762269020080566 0.684433937072753906 0.0207949019968509674 -0.00483286753296852112
29.3580074310302734 -199.912322998046875 7.41696929931640625 426 1644823582.38626432 -0.84193575382232666 0.539080917835235596 0.0207683444023132324 -0.0102266762405633926
32.8261184692382812 -203.179214477539062 7.24180984497070312 427 1644823583.48749423 -0.923794090747833252 0.381463021039962769 0.0277952328324317932 -0.0178286992013454437
36.8874664306640625 -207.193466186523438 7.23158025741577148 428 1644823584.48665094 -0.925529658794403076 0.376117855310440063 0.0431619510054588318 0.00820292439311742783
44.4774131774902344 -215.720672607421875 6.50928068161010742 429 1644823586.48750734 -0.897679328918457031 0.438231348991394043 0.0394749753177165985 -0.0238070804625749588
52.2391624450683594 -225.036056518554688 5.56389617919921875 430 1644823588.48938894 -0.919338822364807129 0.392101198434829712 0.0325600206851959229 -0.00356096238829195499
66.0580902099609375 -234.694488525390625 4.04545259475708008 431 1644823590.58657932 -0.972546041011810303 0.226048722863197327 0.0530844181776046753 -0.0154355494305491447
83.9020614624023438 -240.719070434570312 2.66280627250671387 432 1644823592.6882093 -0.994814813137054443 0.0937104672193527222 0.0381330437958240509 -0.0103763891384005547
103.123558044433594 -241.959152221679688 1.12373805046081543 433 1644823594.788234 -0.999052524566650391 0.0216671172529459 0.0365005545318126678 -0.00960607267916202545
122.593009948730469 -242.995758056640625 -0.385436952114105225 434 1644823596.88782787 -0.998809278011322021 0.0362697355449199677 0.0325350016355514526 -0.00244112801738083363
142.075775146484375 -244.3094482421875 -1.68971347808837891 435 1644823598.98841119 -0.998752295970916748 0.0366167500615119934 0.0291237551718950272 -0.0174596887081861496
156.799285888671875 -245.348785400390625 -2.34579014778137207 436 1644823600.58614492 -0.999319672584533691 0.0338886193931102753 0.0116963479667901993 -0.00866039469838142395
173.019195556640625 -246.514938354492188 -2.61939883232116699 437 1644823602.39086795 -0.999341785907745361 0.0356901772320270538 0.000665593717712908983 -0.00646022753790020943
178.297348022460938 -246.617446899414062 -2.67675662040710449 438 1644823602.98543763 -0.999877572059631348 -0.0140102123841643333 0.00534901302307844162 0.00446999352425336838
195.34442138671875 -244.333648681640625 -2.6320641040802002 439 1644823604.98625064 -0.994878172874450684 -0.0988798215985298157 -0.0121027138084173203 -0.0171399340033531189
210.83087158203125 -238.620697021484375 -2.42541909217834473 440 1644823606.98801875 -0.974934577941894531 -0.220767781138420105 -0.0122487423941493034 -0.0247810222208499908
224.0626220703125 -229.174072265625 -2.37207269668579102 441 1644823608.98986411 -0.93522113561630249 -0.353164941072463989 -0.0113796619698405266 -0.0225036963820457458
236.021575927734375 -218.091323852539062 -2.23943185806274414 442 1644823610.9908514 -0.92909926176071167 -0.368537247180938721 -0.0175828579813241959 -0.025409722700715065
248.7271728515625 -206.582763671875 -2.11090421676635742 443 1644823613.09054112 -0.932137846946716309 -0.361263543367385864 -0.00547529198229312897 -0.0240354184061288834
260.52435302734375 -195.251510620117188 -1.97080814838409424 444 1644823615.09168816 -0.930073857307434082 -0.366603553295135498 -0.0139674777165055275 -0.0192197393625974655
273.328216552734375 -183.811981201171875 -1.67296719551086426 445 1644823617.19037771 -0.937107861042022705 -0.347231358289718628 -0.0236632265150547028 -0.0264447983354330063
285.3717041015625 -172.874969482421875 -1.20426130294799805 446 1644823619.19077682 -0.928282082080841064 -0.369524985551834106 -0.0305859129875898361 -0.0284282565116882324
296.695281982421875 -161.450668334960938 -0.61251676082611084 447 1644823621.19220042 -0.926200747489929199 -0.374801307916641235 -0.0352812521159648895 -0.0207703374326229095
308.74090576171875 -149.943099975585938 0.320160895586013794 448 1644823623.28869748 -0.928519070148468018 -0.368694692850112915 -0.0407671555876731873 -0.015957443043589592
317.834747314453125 -140.146682739257812 1.1193697452545166 449 1644823624.99165988 -0.899281919002532959 -0.435325801372528076 -0.04166388139128685 -0.00690290797501802444
320.95458984375 -135.65216064453125 1.38169097900390625 450 1644823625.6903348 -0.882684946060180664 -0.46711084246635437 -0.0474203005433082581 -0.0206403173506259918
323.981201171875 -131.0947265625 1.66907942295074463 451 1644823626.38939023 -0.882536768913269043 -0.468340903520584106 -0.0372710190713405609 -0.0199136901646852493
327.053253173828125 -126.467506408691406 1.97401750087738037 452 1644823627.09200692 -0.882913708686828613 -0.467152178287506104 -0.0438967011868953705 -0.0174725465476512909
330.105072021484375 -121.880706787109375 2.28391695022583008 453 1644823627.790941 -0.884074687957763672 -0.464645206928253174 -0.042417038232088089 -0.0267868172377347946
333.17901611328125 -117.355789184570312 2.63148975372314453 454 1644823628.49113774 -0.884747445583343506 -0.463096857070922852 -0.0503793098032474518 -0.0150052644312381744
336.391937255859375 -112.821052551269531 2.89554524421691895 455 1644823629.19123816 -0.890376150608062744 -0.451255679130554199 -0.0585257001221179962 -0.0131669836118817329
339.5960693359375 -108.514259338378906 3.39779376983642578 456 1644823629.88976884 -0.89514470100402832 -0.441983997821807861 -0.0555262826383113861 -0.0168198514729738235
342.975616455078125 -104.243316650390625 3.78020238876342773 457 1644823630.59098911 -0.902555286884307861 -0.427610665559768677 -0.0475038625299930573 -0.0169247575104236603
346.459625244140625 -99.9997177124023438 4.17856836318969727 458 1644823631.28912592 -0.90519416332244873 -0.421215951442718506 -0.054823949933052063 -0.0139637645334005356
349.827239990234375 -95.8430709838867188 4.6006007194519043 459 1644823631.99064898 -0.900130569934844971 -0.431595832109451294 -0.0588929168879985809 -0.00465380866080522537
353.15069580078125 -91.7284011840820312 5.01755142211914062 460 1644823632.69006681 -0.903384804725646973 -0.426168680191040039 -0.0465411767363548279 -0.0104888007044792175
356.600189208984375 -87.4449234008789062 5.46265220642089844 461 1644823633.49280882 -0.901352047920227051 -0.429619014263153076 -0.0523292422294616699 -0.015927458181977272
359.778900146484375 -83.5630950927734375 5.88087320327758789 462 1644823634.29191661 -0.905915379524230957 -0.419439792633056641 -0.0555688962340354919 -0.0173118449747562408
363.9281005859375 -78.2988739013671875 6.40869283676147461 463 1644823635.48734331 -0.890622854232788086 -0.45179709792137146 -0.0506920851767063141 -0.0100332312285900116
370.290435791015625 -67.5172195434570312 7.33137845993041992 464 1644823637.58734035 -0.858741343021392822 -0.510268092155456543 -0.0458190515637397766 -0.00950851663947105408
376.793792724609375 -55.5655937194824219 8.36468315124511719 465 1644823639.68670392 -0.860745549201965332 -0.505655944347381592 -0.0562014728784561157 -0.0164490062743425369
381.4749755859375 -45.4301071166992188 9.23221397399902344 466 1644823641.68764043 -0.837813377380371094 -0.541692435741424561 -0.0666078180074691772 -0.0141941141337156296
386.035888671875 -35.1591262817382812 10.3144025802612305 467 1644823643.78605294 -0.824281275272369385 -0.562864840030670166 -0.0604102052748203278 -0.00970513280481100082
387.06414794921875 -29.272430419921875 10.7863845825195312 468 1644823645.08476806 -0.70779728889465332 -0.704283654689788818 -0.0541282370686531067 -0.00881455279886722565
386.13739013671875 -26.3726673126220703 10.8695755004882812 469 1644823645.785532 -0.572547376155853271 -0.818180322647094727 -0.0510985367000102997 -0.0126246977597475052
384.61090087890625 -24.3065662384033203 11.0126209259033203 470 1644823646.38656139 -0.417941570281982422 -0.906658828258514404 -0.0454409122467041016 0.0350681133568286896
380.136138916015625 -21.4022693634033203 11.4197225570678711 471 1644823647.68566155 -0.259650498628616333 -0.964186608791351318 -0.0408107005059719086 0.0355003997683525085
375.286376953125 -19.3667278289794922 11.7465457916259766 472 1644823648.98531222 -0.168392151594161987 -0.985114395618438721 -0.0254509579390287399 0.0233668889850378036
369.954833984375 -18.4360828399658203 11.95501708984375 473 1644823650.28505325 -0.0729554593563079834 -0.996692895889282227 -0.0286740437150001526 0.0214140992611646652
361.43316650390625 -18.0988864898681641 12.3110666275024414 474 1644823652.28586698 0.00915689580142498016 -0.999470770359039307 -0.0215106941759586334 0.0226195473223924637
352.690032958984375 -19.7512016296386719 12.4833612442016602 475 1644823654.28694892 0.122564278542995453 -0.992272317409515381 -0.012924637645483017 0.0143732763826847076
347.55975341796875 -20.9949722290039062 12.5518579483032227 476 1644823655.38661671 0.107544787228107452 -0.993947505950927734 -0.016834944486618042 0.0147988591343164444
342.22613525390625 -22.130401611328125 12.6066513061523438 477 1644823656.4884119 0.111596845090389252 -0.993602454662322998 -0.0138609157875180244 0.0103983506560325623
337.196685791015625 -23.4355411529541016 12.5515832901000977 478 1644823657.48812103 0.119747050106525421 -0.992676496505737305 -0.0159193072468042374 -0.000784911040682345629
331.805023193359375 -24.3605556488037109 12.3870363235473633 479 1644823658.49114251 0.0553409941494464874 -0.998082995414733887 -0.0261442828923463821 -0.00917816348373889923
326.754730224609375 -24.8490276336669922 12.2245988845825195 480 1644823659.39045858 0.0502053014934062958 -0.998608589172363281 -0.00481943134218454361 -0.015398106537759304
321.74212646484375 -25.3918685913085938 12.0122165679931641 481 1644823660.28895187 0.0596164874732494354 -0.997879981994628906 0.00873291585594415665 -0.0245992019772529602
312.48638916015625 -26.7436008453369141 11.51275634765625 482 1644823661.79015326 0.0764242187142372131 -0.996911883354187012 0.00531722418963909149 -0.0172566883265972137
307.123046875 -27.5519313812255859 11.2617731094360352 483 1644823662.58791327 0.0658387914299964905 -0.997608482837677002 0.00452313153073191643 -0.0205440465360879898
301.53009033203125 -27.9154891967773438 10.9709081649780273 484 1644823663.39085436 0.0123236803337931633 -0.999698162078857422 0.00704981479793787003 -0.0200502499938011169
296.495147705078125 -27.7655410766601562 10.7085800170898438 485 1644823664.08859205 -0.0293278507888317108 -0.999155879020690918 0.00541900470852851868 -0.0282504409551620483
291.36407470703125 -27.1325817108154297 10.4390449523925781 486 1644823664.78636479 -0.0778827592730522156 -0.996580541133880615 0.00563362706452608109 -0.0270140077918767929
285.369720458984375 -25.8020610809326172 10.1421289443969727 487 1644823665.58655763 -0.128133922815322876 -0.991362512111663818 0.00813079066574573517 -0.0267584901303052902
279.393280029296875 -23.8912715911865234 9.83355998992919922 488 1644823666.38656926 -0.175272732973098755 -0.984101474285125732 -0.0173256471753120422 -0.0228806398808956146
274.315155029296875 -21.6055927276611328 9.64358806610107422 489 1644823667.08673191 -0.222434863448143005 -0.974852502346038818 -0.000465925433672964573 -0.0136054884642362595
264.794921875 -16.0244216918945312 9.25334358215332031 490 1644823668.48720622 -0.282518863677978516 -0.959061026573181152 0.00137989828363060951 -0.0195746663957834244
259.974090576171875 -12.6727638244628906 9.07507801055908203 491 1644823669.28549361 -0.309872418642044067 -0.950666487216949463 -0.00231773708947002888 -0.0143849039450287819
255.658416748046875 -9.00338459014892578 8.91311740875244141 492 1644823670.0865221 -0.366866856813430786 -0.930001914501190186 -0.00639729620888829231 -0.0215464625507593155
252.007476806640625 -5.15708065032958984 8.7959747314453125 493 1644823670.88440347 -0.404975384473800659 -0.914203286170959473 -0.0090688653290271759 -0.0120453601703047752
248.647369384765625 -1.39132118225097656 8.72715950012207031 494 1644823671.6850915 -0.400725901126861572 -0.916170239448547363 -0.000274533289484679699 -0.00712813902646303177
244.395294189453125 1.71017801761627197 8.62613201141357422 495 1644823672.58681798 -0.275144517421722412 -0.96131134033203125 -0.00710041169077157974 -0.0112047400325536728
239.385650634765625 3.32071018218994141 8.46179485321044922 496 1644823673.58630395 -0.0848484188318252563 -0.995950400829315186 -0.0127626629546284676 -0.0268461611121892929
235.903854370117188 2.89840388298034668 8.34108734130859375 497 1644823674.28804564 0.090356484055519104 -0.995803534984588623 0.00178518088068813086 -0.0144164692610502243
228.8150634765625 0.920943140983581543 8.02482414245605469 498 1644823675.58719754 0.144188806414604187 -0.989187955856323242 -0.0168161727488040924 -0.0208330359309911728
216.577896118164062 -2.09104037284851074 7.49861288070678711 499 1644823677.68588471 0.0709272325038909912 -0.997110307216644287 -0.0151681313291192055 -0.0225892085582017899
206.183303833007812 -3.10718607902526855 7.1094355583190918 500 1644823679.68746328 0.0472490005195140839 -0.998643636703491211 -0.00209323433227837086 -0.021773727610707283
199.11712646484375 -2.5736241340637207 6.98679256439208984 501 1644823681.28791118 -0.135404005646705627 -0.989991247653961182 -0.0395977459847927094 -0.00388288195244967937
194.202529907226562 0.398979276418685913 6.99624347686767578 502 1644823682.48775721 -0.319503217935562134 -0.947210967540740967 -0.0260360632091760635 -0.00558195309713482857
189.7425537109375 4.87330341339111328 7.07536888122558594 503 1644823683.98763371 -0.363304406404495239 -0.931634664535522461 -0.00776337180286645889 0.00255667418241500854
185.932952880859375 6.73949956893920898 7.07152128219604492 504 1644823685.0882709 -0.174991384148597717 -0.984554111957550049 -0.00405783345922827721 -0.00383620080538094044
183.244857788085938 6.75701236724853516 6.97055578231811523 505 1644823685.68803 0.0199602339416742325 -0.999543726444244385 0.00932581257075071335 -0.0206622928380966187
180.4688720703125 5.52448701858520508 6.80707168579101562 506 1644823686.39024234 0.215875402092933655 -0.976071000099182129 -0.0035438269842416048 -0.0258960183709859848
173.518829345703125 0.82776188850402832 6.59864377975463867 507 1644823688.48918223 0.26633453369140625 -0.963790774345397949 -0.0130637232214212418 -0.00162605312652885914
167.269393920898438 -1.24118697643280029 6.50455188751220703 508 1644823689.79045844 0.0724785923957824707 -0.996863603591918945 -0.030413653701543808 -0.00921252649277448654
156.260055541992188 -0.82252049446105957 6.58041477203369141 509 1644823691.79278111 -0.038381822407245636 -0.999072253704071045 -0.0181741025298833847 0.00715431990101933479
144.178466796875 0.0333104915916919708 6.76747941970825195 510 1644823693.79468703 -0.0261267777532339096 -0.998697400093078613 -0.0407297052443027496 0.0161845721304416656
131.851898193359375 0.628424346446990967 6.91451644897460938 511 1644823695.8900063 -0.0264160502701997757 -0.999543488025665283 -0.0116054955869913101 0.00896046403795480728
122.745246887207031 1.13509738445281982 6.62984418869018555 512 1644823697.89086437 -0.0245561636984348297 -0.99908149242401123 -0.0202933307737112045 -0.0286599919199943542
115.537155151367188 1.13996303081512451 6.45691585540771484 513 1644823699.89128804 -0.00176453113090246916 -0.999294161796569824 -0.0375220589339733124 0.000461444869870319963
105.063026428222656 1.47344624996185303 6.04192256927490234 514 1644823701.89149427 -0.0410849638283252716 -0.997176885604858398 -0.0470055527985095978 -0.0417229309678077698
98.55584716796875 1.06785082817077637 5.44170951843261719 515 1644823703.19043517 0.102118536829948425 -0.994092047214508057 -0.00881385244429111481 -0.0357083193957805634
87.4722747802734375 -2.62763404846191406 5.17316341400146484 516 1644823705.19301844 0.0661009326577186584 -0.997591316699981689 -0.0200776383280754089 -0.00625804346054792404
73.7716751098632812 -0.980946481227874756 5.03881359100341797 517 1644823707.19325161 -0.169568419456481934 -0.985150516033172607 -0.025745319202542305 -0.00788827519863843918
60.6738700866699219 5.08897590637207031 5.04864263534545898 518 1644823709.29195428 -0.0887959450483322144 -0.99603724479675293 0.0025049170944839716 0.00434269523248076439
46.3138236999511719 5.95485019683837891 5.11624336242675781 519 1644823711.29742074 -0.0326279960572719574 -0.999450743198394775 0.00268134335055947304 0.00513718836009502411
31.1496658325195312 6.78477668762207031 5.11862373352050781 520 1644823713.39266562 -0.0284509938210248947 -0.999589800834655762 -0.0016176978824660182 0.0028589318972080946
18.9072837829589844 7.28298664093017578 5.03492403030395508 521 1644823715.48785901 -0.0189484916627407074 -0.999809443950653076 -0.00467316806316375732 -0.000399811891838908195
9.56404304504394531 9.38641643524169922 4.97525787353515625 522 1644823717.48808146 -0.27034759521484375 -0.96248173713684082 -0.0210699662566184998 -0.00985416211187839508
3.42603707313537598 15.1066951751708984 4.89861202239990234 523 1644823719.48983097 -0.443796396255493164 -0.895638346672058105 -0.0156901758164167404 -0.0251102279871702194
3.67910099029541016 21.5593833923339844 4.85347270965576172 524 1644823721.58889985 -0.759927690029144287 -0.649779140949249268 0.014683176763355732 -0.009021759033203125
3.67288756370544434 21.6207027435302734 4.84178590774536133 525 1644823723.68728852 -0.759322464466094971 -0.650598347187042236 0.0102088991552591324 -0.0068574836477637291
