# .PCD v0.7 - Point Cloud Data file format
VERSION 0.7
FIELDS x y z intensity t qx qy qz qw
SIZE 4 4 4 4 8 4 4 4 4
TYPE F F F F F F F F F
COUNT 1 1 1 1 1 1 1 1 1
WIDTH 205
HEIGHT 1
VIEWPOINT 0 0 0 1 0 0 0
POINTS 205
DATA ascii
7.3149104118347168 8.93380355834960938 8.08993911743164062 0 1644825195.24055576 0.998596489429473877 -0.0249637924134731293 -0.0208399966359138489 -0.0418043993413448334
7.21489286422729492 8.94236183166503906 8.10254096984863281 1 1644825213.73663664 0.998822629451751709 -0.025532107800245285 0.00142331910319626331 -0.0412246622145175934
11.1626319885253906 9.38735103607177734 8.25912380218505859 2 1644825215.7369945 0.995800495147705078 0.0811490043997764587 0.0136020863428711891 -0.0401393547654151917
17.6085777282714844 10.4212350845336914 8.42828178405761719 3 1644825217.73880148 0.998465120792388916 0.0530092902481555939 0.0125385168939828873 -0.0100099276751279831
26.6453857421875 10.1575784683227539 8.46464061737060547 4 1644825219.83855605 0.998838305473327637 -0.0433499068021774292 -0.00633442914113402367 -0.0200659483671188354
34.23590087890625 9.37457942962646484 8.54525375366210938 5 1644825221.83973742 0.997815489768981934 -0.0612422376871109009 -0.0235192310065031052 -0.00778009789064526558
42.8443222045898438 8.31769561767578125 8.56310558319091797 6 1644825223.84175849 0.997862040996551514 -0.0614160671830177307 -0.00231862068176269531 -0.0222268905490636826
52.9809341430664062 6.72713851928710938 8.57484531402587891 7 1644825225.83817244 0.996346354484558105 -0.0817713513970375061 -0.000203132876777090132 -0.0246435422450304031
62.3296737670898438 5.19950389862060547 8.53071117401123047 8 1644825227.93756008 0.995276033878326416 -0.0939516052603721619 -0.0121169285848736763 -0.0212567020207643509
68.9225311279296875 4.51102590560913086 8.68268203735351562 9 1644825230.03724933 0.996531844139099121 0.0683474093675613403 0.0063394010066986084 -0.0470398589968681335
70.4230270385742188 5.53407859802246094 8.78100776672363281 10 1644825230.73795819 0.964619457721710205 0.259797722101211548 0.00734570436179637909 -0.0442779287695884705
71.4293289184570312 6.998077392578125 8.87730026245117188 11 1644825231.33672214 0.898730278015136719 0.435751855373382568 0.00115133740473538637 -0.0490195080637931824
72.01495361328125 9.20499420166015625 9.00509071350097656 12 1644825232.038728 0.805115044116973877 0.591944754123687744 0.00543111143633723259 -0.0369014069437980652
74.09039306640625 15.6647911071777344 9.41048049926757812 13 1644825234.14082432 0.86497730016708374 0.501263976097106934 0.00855477061122655869 -0.0218061916530132294
80.1735687255859375 19.8143272399902344 9.71601390838623047 14 1644825236.23817897 0.982701122760772705 0.182682842016220093 0.00871566589921712875 -0.0291463341563940048
88.2405776977539062 20.3098163604736328 9.94342422485351562 15 1644825238.23871112 0.999395430088043213 -0.0162685941904783249 0.00768988300114870071 -0.0297488979995250702
95.976898193359375 19.1197547912597656 10.0541810989379883 16 1644825240.24337006 0.990253865718841553 -0.136004552245140076 -0.00126046419609338045 -0.0299749076366424561
99.35546875 17.1006259918212891 10.0020208358764648 17 1644825241.54064846 0.949133992195129395 -0.313565701246261597 -0.00749933952465653419 -0.0276591703295707703
100.893203735351562 14.78656005859375 9.85101127624511719 18 1644825242.44109941 0.872809946537017822 -0.486432135105133057 -0.0222790613770484924 -0.0330194272100925446
101.285202026367188 12.5016021728515625 9.71971988677978516 19 1644825243.24239564 0.765842258930206299 -0.641912698745727539 -0.0265198200941085815 -0.0270260591059923172
100.736824035644531 9.72621822357177734 9.59329795837402344 20 1644825244.34319592 0.641262829303741455 -0.766771376132965088 -0.0163621306419372559 -0.0239986013621091843
99.2574005126953125 3.0234227180480957 9.20958423614501953 21 1644825246.44343805 0.627393186092376709 -0.77784276008605957 -0.0153694497421383858 -0.0331994742155075073
97.5337982177734375 -0.22502569854259491 9.05694770812988281 22 1644825247.84123373 0.470848232507705688 -0.881702303886413574 -0.0178683698177337646 -0.0241594668477773666
95.509552001953125 -1.67769515514373779 8.93650531768798828 23 1644825248.7427969 0.3076210618019104 -0.950672626495361328 -0.0203385986387729645 -0.0343098528683185577
93.2745361328125 -2.28233695030212402 8.81980419158935547 24 1644825249.54081202 0.133317634463310242 -0.990021169185638428 -0.0345894955098628998 -0.0297999493777751923
90.8072052001953125 -2.0302727222442627 8.77355289459228516 25 1644825250.44182754 -0.0469247773289680481 -0.998122751712799072 -0.035020630806684494 -0.0179611872881650925
85.252593994140625 -0.683958053588867188 8.69961357116699219 26 1644825252.44307923 -0.108515307307243347 -0.99228060245513916 -0.021709715947508812 -0.0559669062495231628
79.5854263305664062 0.45287206768989563 8.65735435485839844 27 1644825254.44355822 -0.10427623987197876 -0.993847012519836426 -0.0366283096373081207 -0.00727622676640748978
71.6084442138671875 1.34378957748413086 8.50589561462402344 28 1644825256.54152775 -0.0433923006057739258 -0.998610258102416992 -0.0232696607708930969 -0.0187931284308433533
63.9957160949707031 2.06299614906311035 8.41295719146728516 29 1644825258.54407096 -0.0600694417953491211 -0.997740030288696289 -0.0286835115402936935 -0.00915343593806028366
57.7101020812988281 2.30697274208068848 8.37957668304443359 30 1644825260.64217114 0.0671546831727027893 -0.997374892234802246 -0.0227732546627521515 -0.0146605409681797028
56.0023994445800781 1.20093297958374023 8.28304195404052734 31 1644825261.44307899 0.256655633449554443 -0.966025948524475098 -0.0223828628659248352 -0.0205117985606193542
54.8517074584960938 -0.408527582883834839 8.19221973419189453 32 1644825262.14382148 0.437483727931976318 -0.89892125129699707 -0.00340110599063336849 -0.0231742728501558304
54.4059486389160156 -2.3834228515625 8.04462528228759766 33 1644825262.74213886 0.589071750640869141 -0.806796908378601074 -0.0253440625965595245 -0.0378270670771598816
54.0116043090820312 -9.06288433074951172 7.62453746795654297 34 1644825264.74423456 0.6641387939453125 -0.746451914310455322 -0.03881039097905159 -0.0149309961125254631
52.8363189697265625 -16.5284709930419922 7.23114490509033203 35 1644825266.83933926 0.656545519828796387 -0.753457725048065186 -0.0307992864400148392 -0.017344525083899498
53.29095458984375 -22.8022632598876953 6.89581966400146484 36 1644825268.63814354 0.785673439502716064 -0.617857217788696289 -0.0236159916967153549 -0.0202965438365936279
55.0999755859375 -25.7439899444580078 6.69311666488647461 37 1644825269.74252343 0.88506925106048584 -0.464352130889892578 -0.0113970031961798668 -0.029994642361998558
59.2037544250488281 -31.8336200714111328 6.34105014801025391 38 1644825271.83860755 0.835066854953765869 -0.548285901546478271 -0.0199476554989814758 -0.0405964367091655731
59.7269744873046875 -39.0219154357910156 5.83675479888916016 39 1644825273.83876157 0.685876429080963135 -0.726518452167510986 -0.0368894636631011963 -0.0195860937237739563
58.5824775695800781 -48.4029350280761719 5.07086706161499023 40 1644825275.84076571 0.663738071918487549 -0.746467769145965576 -0.0334608815610408783 -0.033436506986618042
57.2035255432128906 -58.7599372863769531 4.32241678237915039 41 1644825277.83873487 0.655202746391296387 -0.754367351531982422 -0.035311475396156311 -0.0198083333671092987
55.8331375122070312 -68.710235595703125 3.83341717720031738 42 1644825279.73687768 0.651071310043334961 -0.758057296276092529 -0.0379904657602310181 0.00346755422651767731
54.2101516723632812 -78.143402099609375 3.44665050506591797 43 1644825281.73829603 0.634738802909851074 -0.772441267967224121 -0.0129999304190278053 -0.0164965391159057617
52.1355361938476562 -87.3008804321289062 3.07536864280700684 44 1644825283.73875785 0.619205832481384277 -0.784526348114013672 0.00196143263019621372 -0.0331466943025588989
50.685455322265625 -96.8486785888671875 2.74995708465576172 45 1644825285.74018025 0.654497504234313965 -0.755562305450439453 -0.00324155273847281933 -0.0273515935987234116
48.5416221618652344 -106.078292846679688 2.56563949584960938 46 1644825287.74167609 0.574731886386871338 -0.818200469017028809 0.0120878657326102257 -0.00922437757253646851
44.0297126770019531 -112.648422241210938 2.68897676467895508 47 1644825289.7436111 0.430672168731689453 -0.902137637138366699 0.0257425848394632339 -0.00254756864160299301
37.7910346984863281 -118.728691101074219 3.13422584533691406 48 1644825291.84446073 0.339995026588439941 -0.9399452805519104 0.0256507527083158493 0.0157568063586950302
29.9828052520751953 -123.668922424316406 3.54780101776123047 49 1644825293.94343233 0.245890706777572632 -0.969126045703887939 0.0181058570742607117 0.00214424426667392254
23.5079669952392578 -127.128952026367188 3.58594799041748047 50 1644825296.03834605 0.277378886938095093 -0.960684776306152344 0.00224152044393122196 -0.0118588022887706757
19.3612613677978516 -132.855560302734375 3.50331568717956543 51 1644825298.03947854 0.555208086967468262 -0.831631302833557129 -0.00306565733626484871 -0.0111304540187120438
19.0667819976806641 -141.405563354492188 3.2886054515838623 52 1644825300.14266515 0.763335943222045898 -0.645621299743652344 -0.0120492586866021156 -0.0186053626239299774
21.7322597503662109 -150.079620361328125 2.79406166076660156 53 1644825302.23782659 0.830422759056091309 -0.555667877197265625 -0.0270211677998304367 -0.0300181377679109573
27.0829753875732422 -157.451461791992188 2.2898552417755127 54 1644825304.33789372 0.901453137397766113 -0.4313812255859375 -0.0342645607888698578 -0.0108831664547324181
32.6525917053222656 -165.492019653320312 1.76453840732574463 55 1644825306.43810415 0.872930645942687988 -0.486258536577224731 -0.0372578911483287811 -0.0125117860734462738
37.613616943359375 -171.091705322265625 1.4208371639251709 56 1644825308.53712869 0.950256824493408203 -0.309486955404281616 -0.0343133583664894104 -0.00723496917635202408
39.9754142761230469 -171.731719970703125 1.35832095146179199 57 1644825309.33800054 0.990441203117370605 -0.135882183909416199 -0.0236573461443185806 0.0015917349373921752
42.3261833190917969 -171.475814819335938 1.28334534168243408 58 1644825310.0365541 0.99890059232711792 0.0416452512145042419 -0.0215242505073547363 -2.481316369085107e-05
44.5393333435058594 -170.3974609375 1.18173503875732422 59 1644825310.6383245 0.974810481071472168 0.220893234014511108 -0.0303429942578077316 -0.00547527195885777473
52.1845207214355469 -163.238113403320312 0.752923548221588135 60 1644825312.73713136 0.943641841411590576 0.32904091477394104 -0.0248819291591644287 0.0255542118102312088
60.83868408203125 -157.564834594726562 0.346422106027603149 61 1644825314.63700271 0.9619484543800354 0.271445661783218384 -0.0221397653222084045 0.0219608582556247711
69.6653594970703125 -151.961532592773438 -0.0296692326664924622 62 1644825316.43897414 0.952159345149993896 0.305063128471374512 -0.00907353591173887253 0.0157085191458463669
77.9583282470703125 -145.647506713867188 -0.342978388071060181 63 1644825318.13907123 0.948424398899078369 0.315989494323730469 -0.0157585050910711288 0.0198374763131141663
85.5664825439453125 -138.796005249023438 -0.617324709892272949 64 1644825319.74069166 0.921863198280334473 0.386598050594329834 -0.0149459205567836761 0.0220632441341876984
92.0901031494140625 -130.87823486328125 -0.658641278743743896 65 1644825321.34084988 0.895670235157012939 0.444436192512512207 0.00187418214045464993 0.0157413557171821594
97.4137191772460938 -121.883659362792969 -0.549657344818115234 66 1644825323.04067087 0.847698569297790527 0.530209898948669434 0.0120710171759128571 0.0117869842797517776
100.49444580078125 -112.249366760253906 -0.261305123567581177 67 1644825324.84205532 0.792013764381408691 0.609854757785797119 0.026784876361489296 0.0085990559309720993
102.399452209472656 -102.14544677734375 0.239016011357307434 68 1644825326.54322338 0.760156393051147461 0.648432672023773193 0.0411437153816223145 0.00212110159918665886
103.960693359375 -92.265472412109375 0.945579349994659424 69 1644825328.24512553 0.76494830846786499 0.64309537410736084 0.0351938195526599884 -0.0066183735616505146
105.258743286132812 -81.848541259765625 1.7196953296661377 70 1644825330.14511299 0.743426620960235596 0.667455434799194336 0.0391271375119686127 -0.0170034617185592651
106.187408447265625 -71.5711669921875 2.66234064102172852 71 1644825331.94199967 0.736157059669494629 0.6750296950340271 0.048632550984621048 -0.00652813911437988281
107.347091674804688 -61.4763221740722656 3.64491701126098633 72 1644825333.74244857 0.751004576683044434 0.657057881355285645 0.0620910711586475372 -0.0202903281897306442
108.531646728515625 -51.5912322998046875 4.66737270355224609 73 1644825335.4426477 0.749263763427734375 0.659595608711242676 0.0581702888011932373 -0.0123954024165868759
109.773338317871094 -41.3307876586914062 5.84212398529052734 74 1644825337.13973188 0.751457393169403076 0.656569182872772217 0.0624363459646701813 -0.0181784201413393021
111.160049438476562 -31.3495540618896484 7.00154304504394531 75 1644825338.84175086 0.75148475170135498 0.656682133674621582 0.0611926838755607605 -0.0171659756451845169
112.460777282714844 -21.3056755065917969 8.12364101409912109 76 1644825340.64242172 0.755975186824798584 0.652245759963989258 0.0527761094272136688 -0.0170775037258863449
113.906387329101562 -12.2255039215087891 9.116943359375 77 1644825342.73817182 0.770928919315338135 0.634545087814331055 0.052698824554681778 -0.0156190646812319756
116.219841003417969 -6.72472476959228516 9.86225223541259766 78 1644825344.33738828 0.874746203422546387 0.481328308582305908 0.0514058247208595276 -0.022350948303937912
118.956214904785156 -4.39098262786865234 10.2592649459838867 79 1644825345.33822465 0.945032000541687012 0.322883367538452148 0.036426205188035965 -0.036523912101984024
122.45947265625 -3.17507266998291016 10.5125112533569336 80 1644825346.24103165 0.988467276096343994 0.141966208815574646 0.0267972629517316818 -0.0453866906464099884
127.344657897949219 -3.10175943374633789 10.8060894012451172 81 1644825347.33951664 0.998408973217010498 -0.0314901173114776611 0.0110738668590784073 -0.0454448014497756958
137.6414794921875 -4.46595335006713867 11.0905513763427734 82 1644825349.43929029 0.998143851757049561 -0.0441261716187000275 -0.00335168233141303062 -0.0418388582766056061
147.894912719726562 -5.33288049697875977 11.1636161804199219 83 1644825351.23738742 0.997818589210510254 -0.0559516474604606628 -0.000275087717454880476 -0.035034768283367157
157.990249633789062 -6.60642671585083008 11.2962055206298828 84 1644825352.83746719 0.997330784797668457 -0.0610550753772258759 0.011716790497303009 -0.0382923893630504608
167.92626953125 -7.99416542053222656 11.4187402725219727 85 1644825354.339185 0.997596919536590576 -0.0579694397747516632 0.00741213280707597733 -0.0372152552008628845
178.124404907226562 -9.54678726196289062 11.6258821487426758 86 1644825355.8393724 0.996218502521514893 -0.0774038881063461304 0.0156989395618438721 -0.0362064950168132782
188.2913818359375 -11.2523097991943359 12.0294675827026367 87 1644825357.33896232 0.996831178665161133 -0.0637275576591491699 0.0233363322913646698 -0.0414950177073478699
198.820037841796875 -11.8583803176879883 12.5142688751220703 88 1644825359.04060078 0.99891960620880127 0.0137076210230588913 0.0135789019986987114 -0.0422762632369995117
208.8275146484375 -11.1801109313964844 13.0639352798461914 89 1644825360.93831706 0.99849313497543335 0.0260643213987350464 0.026063261553645134 -0.0406546890735626221
219.183929443359375 -10.6452827453613281 13.7716026306152344 90 1644825362.94062781 0.998041391372680664 0.0408229716122150421 0.0241878386586904526 -0.0407650098204612732
228.075119018554688 -8.81449794769287109 14.4270839691162109 91 1644825364.94314742 0.990255534648895264 0.132859408855438232 0.0298987757414579391 -0.0291268303990364075
236.493240356445312 -6.70872926712036133 15.0842189788818359 92 1644825367.03782248 0.992406487464904785 0.116303920745849609 0.0246916599571704865 -0.0315138548612594604
243.285888671875 -5.34803199768066406 15.6037693023681641 93 1644825369.04306984 0.994497299194335938 0.0956232771277427673 0.02812235988676548 -0.0322566665709018707
249.289505004882812 -4.90055942535400391 16.0145931243896484 94 1644825371.14195704 0.997937917709350586 -0.0545974522829055786 0.0180044285953044891 -0.0285452771931886673
251.441802978515625 -6.17544364929199219 16.0790309906005859 95 1644825372.04275537 0.964454174041748047 -0.261509627103805542 0.00995311886072158813 -0.0366307012736797333
252.672576904296875 -7.91855382919311523 16.0246124267578125 96 1644825372.84111381 0.898549377918243408 -0.436536580324172974 0.00705678248777985573 -0.0446655750274658203
255.85760498046875 -14.7256755828857422 15.8328876495361328 97 1644825374.84225893 0.860645174980163574 -0.507399678230285645 0.00967596285045146942 -0.0417347252368927002
262.107025146484375 -22.78338623046875 15.9455146789550781 98 1644825376.84263444 0.913398444652557373 -0.405974447727203369 0.0161529313772916794 -0.0250427927821874619
270.212066650390625 -29.2065773010253906 16.2407035827636719 99 1644825378.5413301 0.953375339508056641 -0.300802767276763916 0.017955610528588295 -0.016455547884106636
279.0711669921875 -34.2940406799316406 16.6946182250976562 100 1644825380.24468946 0.974463880062103271 -0.222376629710197449 0.0266327094286680222 -0.016109006479382515
288.717041015625 -38.3993148803710938 17.2741661071777344 101 1644825382.04371357 0.981577694416046143 -0.189094647765159607 0.0244977027177810669 -0.0121781155467033386
298.65338134765625 -40.104949951171875 18.0254726409912109 102 1644825383.94490075 0.999177932739257812 -0.0191949047148227692 0.0352080017328262329 -0.00594764156267046928
309.07037353515625 -40.1756706237792969 18.8382759094238281 103 1644825385.94347596 0.999515235424041748 -0.00255349418148398399 0.0303401816636323929 0.00649871863424777985
317.63287353515625 -39.3318595886230469 19.5328578948974609 104 1644825388.04027772 0.996976971626281738 0.0685861259698867798 0.0364305563271045685 0.00237630214542150497
323.860107421875 -37.9852638244628906 20.1074085235595703 105 1644825390.04336119 0.994044184684753418 0.103662297129631042 0.0335480496287345886 -0.00219788914546370506
328.95526123046875 -37.0958480834960938 20.5359973907470703 106 1644825392.14501882 0.996668875217437744 0.0745209679007530212 0.0316887199878692627 -0.00967260077595710754
332.901123046875 -36.6630096435546875 20.9353466033935547 107 1644825394.24061728 0.997632145881652832 0.0497101917862892151 0.0418689250946044922 -0.0224939938634634018
337.720794677734375 -36.0279693603515625 21.2964992523193359 108 1644825396.34440804 0.997112929821014404 0.0657012090086936951 0.0227591916918754578 -0.0305144935846328735
344.201385498046875 -35.3606224060058594 21.5073928833007812 109 1644825398.43903685 0.99674612283706665 0.0728613138198852539 -0.000646592583507299423 -0.0344664566218852997
353.15740966796875 -34.127166748046875 21.6138725280761719 110 1644825400.43958044 0.997725844383239746 0.0595839545130729675 -0.00895450916141271591 -0.0302101057022809982
362.89447021484375 -33.1775169372558594 21.7958316802978516 111 1644825402.44135594 0.998857021331787109 0.0326461009681224823 -0.00505850324407219887 -0.0345436520874500275
371.797607421875 -33.7783241271972656 21.8244953155517578 112 1644825404.53963733 0.996025562286376953 -0.0754313096404075623 -0.0112539418041706085 -0.0460064560174942017
379.63818359375 -35.7837791442871094 21.6933193206787109 113 1644825406.63899612 0.990808367729187012 -0.124970421195030212 -0.0108822491019964218 -0.0506236329674720764
385.471588134765625 -38.4708900451660156 21.5486469268798828 114 1644825408.73779678 0.957077860832214355 -0.280804306268692017 -0.0160864125937223434 -0.0699439272284507751
388.062713623046875 -41.4556045532226562 21.2081489562988281 115 1644825410.13735461 0.890692830085754395 -0.448044836521148682 -0.0308633130043745041 -0.07049541175365448
389.0162353515625 -44.7215042114257812 20.9723300933837891 116 1644825411.34015727 0.790658712387084961 -0.60694575309753418 0.0165259335190057755 -0.0787566155195236206
388.7320556640625 -48.1470451354980469 20.68109130859375 117 1644825412.43969989 0.666657626628875732 -0.740970373153686523 0.0123287569731473923 -0.0798657014966011047
387.455230712890625 -55.6604080200195312 19.9048671722412109 118 1644825414.44054103 0.665075898170471191 -0.740362703800201416 0.0293836779892444611 -0.0931327193975448608
386.251953125 -63.4293899536132812 19.1715850830078125 119 1644825416.44211912 0.628657877445220947 -0.772374987602233887 0.0245109070092439651 -0.0873229876160621643
383.3111572265625 -72.9562301635742188 18.1595706939697266 120 1644825418.4415257 0.549104392528533936 -0.831642627716064453 0.0168897956609725952 -0.081053413450717926
378.562164306640625 -82.0376129150390625 17.0751991271972656 121 1644825420.14097548 0.498441576957702637 -0.863119304180145264 0.0176199022680521011 -0.0791873335838317871
373.421630859375 -90.91973876953125 16.0375022888183594 122 1644825421.74106574 0.490232169628143311 -0.868232190608978271 0.0206581577658653259 -0.0736107155680656433
367.982269287109375 -99.40997314453125 15.0190401077270508 123 1644825423.23844481 0.478828847408294678 -0.874432623386383057 0.0179306697100400925 -0.0759541913866996765
362.338653564453125 -108.03082275390625 13.9966983795166016 124 1644825424.74154592 0.467111110687255859 -0.881534814834594727 0.011200612410902977 -0.0676614716649055481
356.209228515625 -116.58880615234375 12.9257411956787109 125 1644825426.24344587 0.451385557651519775 -0.889362514019012451 0.0112626086920499802 -0.0718227699398994446
350.10504150390625 -124.514839172363281 11.9253005981445312 126 1644825427.6393218 0.432166725397109985 -0.899295926094055176 0.0109632927924394608 -0.0661705061793327332
343.96453857421875 -132.456466674804688 10.9478998184204102 127 1644825429.03961277 0.427551865577697754 -0.902128159999847412 0.00840569008141756058 -0.0573888272047042847
337.330963134765625 -140.138076782226562 10.0151557922363281 128 1644825430.43784142 0.410091221332550049 -0.909447014331817627 0.0146015994250774384 -0.0672165751457214355
330.2862548828125 -148.08538818359375 9.00613975524902344 129 1644825431.83765292 0.397706836462020874 -0.915331900119781494 0.0114072635769844055 -0.0621825195848941803
323.199188232421875 -155.422698974609375 8.11388015747070312 130 1644825433.14227438 0.378742426633834839 -0.923667252063751221 0.0102281868457794189 -0.0573440752923488617
315.538818359375 -162.888931274414062 7.17335033416748047 131 1644825434.53773522 0.364296674728393555 -0.929030478000640869 0.00807979796081781387 -0.0642261132597923279
308.030548095703125 -169.994003295898438 6.30496644973754883 132 1644825435.93830371 0.379333794116973877 -0.923850297927856445 0.0107209170237183571 -0.049915459007024765
300.76519775390625 -176.950469970703125 5.44822597503662109 133 1644825437.34179068 0.35352092981338501 -0.934147417545318604 -0.000653367489576339722 -0.0488988868892192841
293.06292724609375 -183.542404174804688 4.67539262771606445 134 1644825438.74195242 0.33466675877571106 -0.941557407379150391 -0.000659015669953078032 -0.0383069366216659546
285.346710205078125 -189.991180419921875 4.04350614547729492 135 1644825440.03997016 0.344767093658447266 -0.937832653522491455 0.00104293774347752333 -0.040056183934211731
277.42633056640625 -196.73016357421875 3.4314112663269043 136 1644825441.34151101 0.331484228372573853 -0.942934691905975342 -0.00148692191578447819 -0.0314667224884033203
269.5098876953125 -203.431564331054688 2.93787026405334473 137 1644825442.64014745 0.335787355899810791 -0.941560268402099609 -0.00888870563358068466 -0.0251420922577381134
261.511322021484375 -210.046630859375 2.5136561393737793 138 1644825443.94163752 0.339836180210113525 -0.940213024616241455 -0.00329744350165128708 -0.0223595798015594482
253.75048828125 -216.618133544921875 2.157379150390625 139 1644825445.24188757 0.339268267154693604 -0.940394461154937744 -0.00459807226434350014 -0.023110879585146904
245.896453857421875 -223.236679077148438 1.81119918823242188 140 1644825446.54060125 0.339173674583435059 -0.940550446510314941 -0.0118657145649194717 -0.0136119630187749863
237.892486572265625 -229.982772827148438 1.4799654483795166 141 1644825447.84253073 0.33538353443145752 -0.941778957843780518 -0.023465646430850029 -0.00443820375949144363
229.865707397460938 -236.654632568359375 1.17677462100982666 142 1644825449.14207363 0.336457967758178711 -0.941283226013183594 -0.0231790374964475632 -0.0156424082815647125
221.907958984375 -243.244384765625 0.900008082389831543 143 1644825450.4422586 0.333484500646591187 -0.942552506923675537 -0.0126988859847187996 -0.0148881515488028526
213.821243286132812 -249.29541015625 0.720063149929046631 144 1644825451.84254217 0.297805666923522949 -0.954513370990753174 0.00198441487736999989 -0.0145632633939385414
204.714279174804688 -254.886383056640625 0.477642029523849487 145 1644825453.3395679 0.23176690936088562 -0.972664535045623779 -0.004635633435100317 -0.01364944688975811
194.728302001953125 -258.699859619140625 0.180861294269561768 146 1644825454.74222183 0.149685010313987732 -0.988527595996856689 0.00433319900184869766 -0.0197178144007921219
184.8328857421875 -261.043212890625 -0.102752678096294403 147 1644825456.04378724 0.0820045247673988342 -0.996419072151184082 0.00480865081772208214 -0.0200294256210327148
174.607254028320312 -261.504241943359375 -0.348771959543228149 148 1644825457.34210372 -0.019674982875585556 -0.99972224235534668 0.00166929850820451975 -0.0128651037812232971
164.254928588867188 -260.80950927734375 -0.46850922703742981 149 1644825458.74330568 -0.0543460361659526825 -0.998433887958526611 -0.000497565371915698051 -0.0132666435092687607
154.01898193359375 -259.83135986328125 -0.340177774429321289 150 1644825460.74327159 -0.0529779493808746338 -0.99856191873550415 -0.00526340166106820107 -0.00630596373230218887
145.419692993164062 -259.05548095703125 -0.253191679716110229 151 1644825462.84451389 -0.051673542708158493 -0.998546004295349121 -0.00163903029169887304 0.0152647364884614944
135.4521484375 -258.0849609375 0.078930199146270752 152 1644825464.7431972 -0.0523035600781440735 -0.998395919799804688 -0.00253949407488107681 0.0215286556631326675
124.976936340332031 -257.172271728515625 0.556789875030517578 153 1644825466.54189253 -0.0612162388861179352 -0.997862696647644043 -0.0138503992930054665 0.0181871838867664337
114.823570251464844 -256.006805419921875 1.16059470176696777 154 1644825468.24431682 -0.050550658255815506 -0.998193442821502686 -0.0161265991628170013 0.0281860064715147018
104.512710571289062 -255.057968139648438 1.79046154022216797 155 1644825469.93950105 -0.0603390969336032867 -0.997237026691436768 -0.0257518980652093887 0.0348472967743873596
94.3106536865234375 -253.993362426757812 2.64446854591369629 156 1644825471.64213467 -0.0567742101848125458 -0.997598946094512939 -0.0130886202678084373 0.0374387726187705994
84.1163558959960938 -252.755523681640625 3.49527573585510254 157 1644825473.44041872 -0.0705927982926368713 -0.996593654155731201 -0.00144337909296154976 0.0426111742854118347
74.1491241455078125 -251.046783447265625 4.32420825958251953 158 1644825475.23944783 -0.0957316160202026367 -0.994666755199432373 0.00264908233657479286 0.0382942929863929749
64.147918701171875 -248.66009521484375 5.08296108245849609 159 1644825477.03807354 -0.154197767376899719 -0.987389266490936279 0.00171503203455358744 0.0358132421970367432
55.1930999755859375 -244.338150024414062 5.8132472038269043 160 1644825479.03985047 -0.238787546753883362 -0.969683647155761719 0.0164191536605358124 0.049239329993724823
46.5466232299804688 -238.732391357421875 6.62360858917236328 161 1644825481.0409286 -0.330798834562301636 -0.942782580852508545 0.0104797994717955589 0.0402900353074073792
39.1908493041992188 -231.475311279296875 7.20791053771972656 162 1644825482.93822312 -0.410381853580474854 -0.911189854145050049 0.000913276569917798042 0.0363179594278335571
32.992645263671875 -223.417404174804688 7.87273979187011719 163 1644825484.73784161 -0.468887090682983398 -0.881957411766052246 -0.00539489462971687317 0.0476117655634880066
27.4387187957763672 -214.953964233398438 8.43225002288818359 164 1644825486.54144049 -0.481969654560089111 -0.875315725803375244 0.00196935515850782394 0.0390353314578533173
22.6247978210449219 -206.51702880859375 8.98511886596679688 165 1644825488.63785028 -0.526290416717529297 -0.849435210227966309 0.00808371603488922119 0.0375885851681232452
20.5746593475341797 -198.942337036132812 9.36099338531494141 166 1644825490.53801131 -0.66888803243637085 -0.742131352424621582 0.0183131452649831772 0.0386581085622310638
21.4492206573486328 -193.503372192382812 9.44592857360839844 167 1644825492.03893113 -0.787883639335632324 -0.613624989986419678 0.0267843492329120636 0.0445686616003513336
24.1851215362548828 -188.452789306640625 9.42761611938476562 168 1644825493.33843851 -0.892412006855010986 -0.449227660894393921 0.0278914682567119598 0.0318967029452323914
30.8942165374755859 -183.511016845703125 9.09109115600585938 169 1644825495.33865571 -0.96652454137802124 -0.253982216119766235 0.0363466702401638031 -0.00151455868035554886
36.930267333984375 -179.790359497070312 8.73760890960693359 170 1644825497.33979344 -0.955718159675598145 -0.294132411479949951 0.00942832790315151215 7.6353724580258131e-05
42.6065101623535156 -174.983688354492188 8.10200691223144531 171 1644825499.34077191 -0.934163868427276611 -0.35429006814956665 0.040911063551902771 -0.0119440257549285889
51.1407585144042969 -165.453170776367188 6.89608287811279297 172 1644825501.44169497 -0.917920827865600586 -0.393111616373062134 0.0472981929779052734 -0.025445127859711647
61.9392013549804688 -156.780960083007812 5.60702991485595703 173 1644825503.54152274 -0.953576445579528809 -0.295051425695419312 0.0505754090845584869 -0.0328439138829708099
73.0692138671875 -149.22613525390625 4.45267534255981445 174 1644825505.64407372 -0.955543100833892822 -0.290451228618621826 0.0357594899833202362 -0.0360102951526641846
83.3236846923828125 -141.069534301757812 3.33159041404724121 175 1644825507.74396276 -0.930865645408630371 -0.362413644790649414 0.0376183763146400452 -0.0270248446613550186
92.0968399047851562 -131.183837890625 2.45922732353210449 176 1644825509.84067488 -0.902612686157226562 -0.429044723510742188 0.0246372949331998825 -0.0245759356766939163
98.136688232421875 -120.607803344726562 1.94843137264251709 177 1644825511.84146333 -0.844398617744445801 -0.535201847553253174 0.00687355175614356995 -0.0224198922514915466
102.30902099609375 -108.367828369140625 1.77761447429656982 178 1644825513.94053769 -0.792211651802062988 -0.610215127468109131 -0.00306451390497386456 -0.00537158362567424774
104.5714111328125 -93.8478851318359375 2.13497829437255859 179 1644825516.04109144 -0.756681084632873535 -0.653696835041046143 -0.00607126718387007713 0.00879181548953056335
106.539115905761719 -79.1248703002929688 2.65281820297241211 180 1644825518.14084148 -0.749433636665344238 -0.661329507827758789 -0.0171461701393127441 0.0264296475797891617
108.319015502929688 -64.8421249389648438 3.43984150886535645 181 1644825520.24003911 -0.756433367729187012 -0.653354525566101074 -0.0273455139249563217 0.0137363038957118988
109.83966064453125 -51.8521385192871094 4.26427841186523438 182 1644825522.24224401 -0.747968077659606934 -0.662939906120300293 -0.0283619724214076996 0.0158137660473585129
111.298881530761719 -39.3144645690917969 5.22848224639892578 183 1644825524.24226236 -0.751259207725524902 -0.658742725849151611 -0.0354786999523639679 0.0202208291739225388
113.003288269042969 -27.58001708984375 6.22020864486694336 184 1644825526.24372578 -0.762813270092010498 -0.645575821399688721 -0.0297692660242319107 0.0214840974658727646
114.623794555664062 -18.1226921081542969 7.1000819206237793 185 1644825528.33715844 -0.76555025577545166 -0.642071664333343506 -0.0319442152976989746 0.0256192609667778015
115.337905883789062 -10.2899494171142578 7.79800271987915039 186 1644825530.43851018 -0.699164807796478271 -0.713991045951843262 -0.0305499006062746048 0.0212613344192504883
114.145164489746094 -6.92899894714355469 8.08446788787841797 187 1644825531.53944445 -0.558171868324279785 -0.828455746173858643 -0.0442021787166595459 0.0123052988201379776
112.335929870605469 -4.88794994354248047 8.2464599609375 188 1644825532.43477154 -0.3953724205493927 -0.917644798755645752 -0.0374917164444923401 0.0142509313300251961
110.245948791503906 -3.93877029418945312 8.31575202941894531 189 1644825533.03856134 -0.222635552287101746 -0.974226176738739014 -0.0356845967471599579 0.00658698612824082375
106.979911804199219 -3.62830138206481934 8.07003688812255859 190 1644825533.7372961 -0.0443877018988132477 -0.997006118297576904 -0.0376351065933704376 -0.0509130619466304779
95.4679183959960938 -2.71968507766723633 7.81365013122558594 191 1644825535.83641362 -0.0667229518294334412 -0.997500896453857422 -0.0229760147631168365 0.00348027399741113186
84.557525634765625 -1.19975876808166504 7.8789210319519043 192 1644825537.84186935 -0.0671523213386535645 -0.997424423694610596 -0.0251111388206481934 -0.00211860425770282745
74.1116409301757812 0.0850100591778755188 7.98180103302001953 193 1644825539.94079995 -0.0559463798999786377 -0.998381853103637695 -0.0101046739146113396 0.00126455852296203375
61.4973907470703125 1.6473081111907959 8.21532535552978516 194 1644825541.94094849 -0.0744909569621086121 -0.996867477893829346 -0.0209815092384815216 0.0163119807839393616
47.6618118286132812 3.34398961067199707 8.51651859283447266 195 1644825543.94243646 -0.0562478676438331604 -0.998325109481811523 -0.0117749711498618126 0.00667536165565252304
35.8363800048828125 4.84764337539672852 8.35215091705322266 196 1644825546.03960586 -0.0830742120742797852 -0.996152698993682861 -0.0269272476434707642 -0.00730466609820723534
27.5139045715332031 6.22543239593505859 8.32294178009033203 197 1644825548.04066944 -0.0799169540405273438 -0.99634099006652832 -0.0293263420462608337 -0.00761046167463064194
18.5247535705566406 7.12930727005004883 8.23975944519042969 198 1644825550.14072633 -0.0278762858361005783 -0.999077320098876953 -0.0283311642706394196 -0.0162710584700107574
11.2852926254272461 7.36641979217529297 8.09870815277099609 199 1644825552.24296236 -0.0284333471208810806 -0.998704373836517334 -0.0364614091813564301 -0.0212537869811058044
7.81957530975341797 8.92534065246582031 8.11828422546386719 200 1644825553.64015198 -0.272649854421615601 -0.961258649826049805 -0.0379130467772483826 -0.0143680693581700325
6.65426540374755859 10.5024814605712891 8.20703887939453125 201 1644825554.44096589 -0.440333634614944458 -0.896374940872192383 -0.0503879301249980927 -0.00890427548438310623
6.26128435134887695 12.3007144927978516 8.26733493804931641 202 1644825555.243083 -0.595205187797546387 -0.802740633487701416 -0.0307593829929828644 -0.0198022406548261642
6.58991575241088867 13.9246206283569336 8.34001350402832031 203 1644825556.03709698 -0.732710897922515869 -0.680139601230621338 -0.0215552337467670441 -0.00895898044109344482
7.00845193862915039 15.4225482940673828 8.43604469299316406 204 1644825558.03786635 -0.769890964031219482 -0.637796461582183838 -0.0210215859115123749 0.00646007666364312172
